<svg width="1993px" height="1745px"
 viewBox="0.00 0.00 1494.90 1309.00" xmlns="http://www.w3.org/2000/svg" xmlns:xlink="http://www.w3.org/1999/xlink">
<g id="graph0" class="graph" transform=" rotate(0) translate(4 1305)">
<polygon fill="white" stroke="transparent" points="-4,4 -4,-1305 1490.9,-1305 1490.9,4 -4,4"/>
<!-- Path(19) -->
<g id="node1" class="node">
<title>Path(19)</title>
<polygon fill="none" stroke="darkgreen" points="1242.56,-977.54 1242.56,-992.46 1216.69,-1003 1180.11,-1003 1154.25,-992.46 1154.25,-977.54 1180.11,-967 1216.69,-967 1242.56,-977.54"/>
<polygon fill="none" stroke="darkgreen" points="1246.54,-974.85 1246.54,-995.15 1217.47,-1007 1179.33,-1007 1150.26,-995.15 1150.26,-974.85 1179.33,-963 1217.47,-963 1246.54,-974.85"/>
<text text-anchor="middle" x="1198.4" y="-981.3" font-family="Times,serif" font-size="14.00">Path(19)</text>
</g>
<!-- Trait(21) -->
<g id="node2" class="node">
<title>Trait(21)</title>
<polygon fill="none" stroke="darkgreen" points="1462.71,-981.54 1462.71,-996.46 1435.8,-1007 1397.74,-1007 1370.83,-996.46 1370.83,-981.54 1397.74,-971 1435.8,-971 1462.71,-981.54"/>
<polygon fill="none" stroke="darkgreen" points="1466.72,-978.82 1466.72,-999.18 1436.56,-1011 1396.98,-1011 1366.81,-999.18 1366.81,-978.82 1396.98,-967 1436.56,-967 1466.72,-978.82"/>
<text text-anchor="middle" x="1416.77" y="-985.3" font-family="Times,serif" font-size="14.00">Trait(21)</text>
</g>
<!-- DGES(22) -->
<g id="node3" class="node">
<title>DGES(22)</title>
<polygon fill="none" stroke="darkgreen" points="985.15,-984.54 985.15,-999.46 954.62,-1010 911.45,-1010 880.92,-999.46 880.92,-984.54 911.45,-974 954.62,-974 985.15,-984.54"/>
<polygon fill="none" stroke="darkgreen" points="989.15,-981.69 989.15,-1002.31 955.29,-1014 910.78,-1014 876.92,-1002.31 876.92,-981.69 910.78,-970 955.29,-970 989.15,-981.69"/>
<text text-anchor="middle" x="933.03" y="-988.3" font-family="Times,serif" font-size="14.00">DGES(22)</text>
</g>
<!-- Gene(8) -->
<g id="node4" class="node">
<title>Gene(8)</title>
<polygon fill="none" stroke="darkgreen" points="975.87,-1068.54 975.87,-1083.46 950.78,-1094 915.29,-1094 890.2,-1083.46 890.2,-1068.54 915.29,-1058 950.78,-1058 975.87,-1068.54"/>
<polygon fill="none" stroke="darkgreen" points="979.86,-1065.88 979.86,-1086.12 951.58,-1098 914.49,-1098 886.21,-1086.12 886.21,-1065.88 914.49,-1054 951.58,-1054 979.86,-1065.88"/>
<text text-anchor="middle" x="933.03" y="-1072.3" font-family="Times,serif" font-size="14.00">Gene(8)</text>
</g>
<!-- MolFunc(3) -->
<g id="node5" class="node">
<title>MolFunc(3)</title>
<polygon fill="none" stroke="darkgreen" points="991.32,-824.54 991.32,-839.46 957.18,-850 908.89,-850 874.75,-839.46 874.75,-824.54 908.89,-814 957.18,-814 991.32,-824.54"/>
<polygon fill="none" stroke="darkgreen" points="995.31,-821.59 995.31,-842.41 957.78,-854 908.29,-854 870.75,-842.41 870.75,-821.59 908.29,-810 957.78,-810 995.31,-821.59"/>
<text text-anchor="middle" x="933.03" y="-828.3" font-family="Times,serif" font-size="14.00">MolFunc(3)</text>
</g>
<!-- Publication(2) -->
<g id="node6" class="node">
<title>Publication(2)</title>
<polygon fill="none" stroke="darkgreen" points="1483.02,-572.54 1483.02,-587.46 1444.21,-598 1389.33,-598 1350.52,-587.46 1350.52,-572.54 1389.33,-562 1444.21,-562 1483.02,-572.54"/>
<polygon fill="none" stroke="darkgreen" points="1487.03,-569.49 1487.03,-590.51 1444.75,-602 1388.79,-602 1346.51,-590.51 1346.51,-569.49 1388.79,-558 1444.75,-558 1487.03,-569.49"/>
<text text-anchor="middle" x="1416.77" y="-576.3" font-family="Times,serif" font-size="14.00">Publication(2)</text>
</g>
<!-- Phenotype(13) -->
<g id="node7" class="node">
<title>Phenotype(13)</title>
<polygon fill="none" stroke="darkgreen" points="1265.97,-1228.54 1265.97,-1243.46 1226.39,-1254 1170.41,-1254 1130.83,-1243.46 1130.83,-1228.54 1170.41,-1218 1226.39,-1218 1265.97,-1228.54"/>
<polygon fill="none" stroke="darkgreen" points="1269.97,-1225.47 1269.97,-1246.53 1226.91,-1258 1169.89,-1258 1126.83,-1246.53 1126.83,-1225.47 1169.89,-1214 1226.91,-1214 1269.97,-1225.47"/>
<text text-anchor="middle" x="1198.4" y="-1232.3" font-family="Times,serif" font-size="14.00">Phenotype(13)</text>
</g>
<!-- SNPEffect(26) -->
<g id="node8" class="node">
<title>SNPEffect(26)</title>
<polygon fill="none" stroke="darkgreen" points="1266.87,-1166.54 1266.87,-1181.46 1226.76,-1192 1170.04,-1192 1129.94,-1181.46 1129.94,-1166.54 1170.04,-1156 1226.76,-1156 1266.87,-1166.54"/>
<polygon fill="none" stroke="darkgreen" points="1270.88,-1163.46 1270.88,-1184.54 1227.28,-1196 1169.52,-1196 1125.92,-1184.54 1125.92,-1163.46 1169.52,-1152 1227.28,-1152 1270.88,-1163.46"/>
<text text-anchor="middle" x="1198.4" y="-1170.3" font-family="Times,serif" font-size="14.00">SNPEffect(26)</text>
</g>
<!-- CelComp(5) -->
<g id="node9" class="node">
<title>CelComp(5)</title>
<polygon fill="none" stroke="darkgreen" points="992.64,-676.54 992.64,-691.46 957.72,-702 908.34,-702 873.43,-691.46 873.43,-676.54 908.34,-666 957.72,-666 992.64,-676.54"/>
<polygon fill="none" stroke="darkgreen" points="996.63,-673.57 996.63,-694.43 958.31,-706 907.76,-706 869.44,-694.43 869.44,-673.57 907.76,-662 958.31,-662 996.63,-673.57"/>
<text text-anchor="middle" x="933.03" y="-680.3" font-family="Times,serif" font-size="14.00">CelComp(5)</text>
</g>
<!-- BioProc(4) -->
<g id="node10" class="node">
<title>BioProc(4)</title>
<polygon fill="none" stroke="darkgreen" points="987.36,-614.54 987.36,-629.46 955.54,-640 910.53,-640 878.71,-629.46 878.71,-614.54 910.53,-604 955.54,-604 987.36,-614.54"/>
<polygon fill="none" stroke="darkgreen" points="991.37,-611.66 991.37,-632.34 956.19,-644 909.88,-644 874.7,-632.34 874.7,-611.66 909.88,-600 956.19,-600 991.37,-611.66"/>
<text text-anchor="middle" x="933.03" y="-618.3" font-family="Times,serif" font-size="14.00">BioProc(4)</text>
</g>
<!-- ProtDomain(14) -->
<g id="node11" class="node">
<title>ProtDomain(14)</title>
<polygon fill="none" stroke="darkgreen" points="663.13,-517.54 663.13,-532.46 619.41,-543 557.58,-543 513.86,-532.46 513.86,-517.54 557.58,-507 619.41,-507 663.13,-517.54"/>
<polygon fill="none" stroke="darkgreen" points="667.13,-514.39 667.13,-535.61 619.88,-547 557.1,-547 509.85,-535.61 509.85,-514.39 557.1,-503 619.88,-503 667.13,-514.39"/>
<text text-anchor="middle" x="588.49" y="-521.3" font-family="Times,serif" font-size="14.00">ProtDomain(14)</text>
</g>
<!-- Enzyme(177) -->
<g id="node12" class="node">
<title>Enzyme(177)</title>
<polygon fill="none" stroke="darkgreen" points="652.53,-455.54 652.53,-470.46 615.02,-481 561.97,-481 524.46,-470.46 524.46,-455.54 561.97,-445 615.02,-445 652.53,-455.54"/>
<polygon fill="none" stroke="darkgreen" points="656.53,-452.51 656.53,-473.49 615.57,-485 561.42,-485 520.46,-473.49 520.46,-452.51 561.42,-441 615.57,-441 656.53,-452.51"/>
<text text-anchor="middle" x="588.49" y="-459.3" font-family="Times,serif" font-size="14.00">Enzyme(177)</text>
</g>
<!-- EC(15) -->
<g id="node13" class="node">
<title>EC(15)</title>
<polygon fill="none" stroke="darkgreen" points="627.79,-393.54 627.79,-408.46 604.77,-419 572.21,-419 549.19,-408.46 549.19,-393.54 572.21,-383 604.77,-383 627.79,-393.54"/>
<polygon fill="none" stroke="darkgreen" points="631.78,-390.97 631.78,-411.03 605.64,-423 571.35,-423 545.2,-411.03 545.2,-390.97 571.35,-379 605.64,-379 631.78,-390.97"/>
<text text-anchor="middle" x="588.49" y="-397.3" font-family="Times,serif" font-size="14.00">EC(15)</text>
</g>
<!-- Protein(7) -->
<g id="node14" class="node">
<title>Protein(7)</title>
<polygon fill="none" stroke="darkgreen" points="638.39,-255.54 638.39,-270.46 609.16,-281 567.82,-281 538.59,-270.46 538.59,-255.54 567.82,-245 609.16,-245 638.39,-255.54"/>
<polygon fill="none" stroke="darkgreen" points="642.39,-252.73 642.39,-273.27 609.86,-285 567.13,-285 534.6,-273.27 534.6,-252.73 567.13,-241 609.86,-241 642.39,-252.73"/>
<text text-anchor="middle" x="588.49" y="-259.3" font-family="Times,serif" font-size="14.00">Protein(7)</text>
</g>
<!-- Reaction(188) -->
<g id="node15" class="node">
<title>Reaction(188)</title>
<polygon fill="none" stroke="darkgreen" points="999.28,-226.54 999.28,-241.46 960.48,-252 905.59,-252 866.79,-241.46 866.79,-226.54 905.59,-216 960.48,-216 999.28,-226.54"/>
<polygon fill="none" stroke="darkgreen" points="1003.29,-223.49 1003.29,-244.51 961.01,-256 905.06,-256 862.78,-244.51 862.78,-223.49 905.06,-212 961.01,-212 1003.29,-223.49"/>
<text text-anchor="middle" x="933.03" y="-230.3" font-family="Times,serif" font-size="14.00">Reaction(188)</text>
</g>
<!-- Gene(1) -->
<g id="node16" class="node">
<title>Gene(1)</title>
<ellipse fill="none" stroke="red" cx="43.65" cy="-916" rx="39.78" ry="39.78"/>
<ellipse fill="none" stroke="red" cx="43.65" cy="-916" rx="43.79" ry="43.79"/>
<text text-anchor="middle" x="43.65" y="-912.3" font-family="Times,serif" font-size="14.00">Gene(1)</text>
</g>
<!-- Gene(1)&#45;&gt;Path(19) -->
<g id="edge47" class="edge">
<title>Gene(1)&#45;&gt;Path(19)</title>
<path fill="none" stroke="black" d="M67,-953.13C77.45,-968.68 90.78,-986.29 105.29,-1000 144.69,-1037.19 265.62,-1117.57 332.08,-1137 618.64,-1220.78 734.48,-1237.17 1003.16,-1107 1064.36,-1077.35 1067.28,-1050.01 1126.16,-1016 1136.79,-1009.86 1148.87,-1004.17 1160.01,-999.38"/>
<text text-anchor="middle" x="588.49" y="-1205.8" font-family="Times,serif" font-size="14.00">part_of</text>
</g>
<!-- Gene(1)&#45;&gt;Trait(21) -->
<g id="edge37" class="edge">
<title>Gene(1)&#45;&gt;Trait(21)</title>
<path fill="none" stroke="black" d="M43.76,-959.82C44.67,-1019.74 54.03,-1128.22 105.29,-1202 145.05,-1259.23 168,-1286 237.69,-1286 237.69,-1286 237.69,-1286 1199.4,-1286 1232.17,-1286 1245.06,-1287.48 1270.64,-1267 1356.7,-1198.09 1397.42,-1064.25 1410.68,-1011.32"/>
<text text-anchor="middle" x="779.41" y="-1289.8" font-family="Times,serif" font-size="14.00">cooc_wi</text>
</g>
<!-- Gene(1)&#45;&gt;DGES(22) -->
<g id="edge38" class="edge">
<title>Gene(1)&#45;&gt;DGES(22)</title>
<path fill="none" stroke="blue" d="M80.28,-940.17C102.97,-954.11 133.58,-970.36 163.29,-978 298.22,-1012.71 724.26,-1000.12 876.93,-994.29"/>
<text text-anchor="middle" x="397.58" y="-1003.8" font-family="Times,serif" font-size="14.00">differentially_expressed</text>
</g>
<!-- Gene(1)&#45;&gt;Gene(8) -->
<g id="edge41" class="edge">
<title>Gene(1)&#45;&gt;Gene(8)</title>
<path fill="none" stroke="black" d="M72.76,-948.98C82.36,-958.89 93.63,-969.19 105.29,-977 128.47,-992.53 136.74,-992.44 163.29,-1001 301.4,-1045.55 337.16,-1057.37 481.08,-1076 583.74,-1089.29 610.4,-1080.67 713.91,-1082 772.12,-1082.75 786.72,-1084 844.91,-1082 858.24,-1081.54 872.7,-1080.69 885.94,-1079.77"/>
<text text-anchor="middle" x="397.58" y="-1121.8" font-family="Times,serif" font-size="14.00">genetic(&lt;=2)</text>
<text text-anchor="middle" x="397.58" y="-1106.8" font-family="Times,serif" font-size="14.00">homoeolog(&lt;=2)</text>
<text text-anchor="middle" x="397.58" y="-1091.8" font-family="Times,serif" font-size="14.00">physical(&lt;=2)</text>
<text text-anchor="middle" x="397.58" y="-1076.8" font-family="Times,serif" font-size="14.00">regulates(&lt;=2)</text>
</g>
<!-- Gene(1)&#45;&gt;Publication(2) -->
<g id="edge45" class="edge">
<title>Gene(1)&#45;&gt;Publication(2)</title>
<path fill="none" stroke="black" d="M44.42,-872.26C44.23,-729.4 48.29,-278.04 105.29,-146 140.01,-65.58 150.09,0 237.69,0 237.69,0 237.69,0 1199.4,0 1320.85,0 1396.49,-452.03 1412.55,-557.97"/>
<text text-anchor="middle" x="779.41" y="-3.8" font-family="Times,serif" font-size="14.00">occ_in</text>
</g>
<!-- Gene(1)&#45;&gt;Protein(7) -->
<g id="edge39" class="edge">
<title>Gene(1)&#45;&gt;Protein(7)</title>
<path fill="none" stroke="black" d="M47.49,-872.46C58.28,-748.13 108.35,-391.53 332.08,-253 397.92,-212.23 492.67,-231.69 546.33,-248.21"/>
<text text-anchor="middle" x="238.69" y="-446.8" font-family="Times,serif" font-size="14.00">enc</text>
</g>
<!-- Gene(1)&#45;&gt;Reaction(188) -->
<g id="edge44" class="edge">
<title>Gene(1)&#45;&gt;Reaction(188)</title>
<path fill="none" stroke="blue" d="M46.59,-872.43C53.32,-741.49 79.99,-355.13 163.29,-267 257.13,-167.74 691.6,-206.01 862.61,-225.42"/>
<text text-anchor="middle" x="397.58" y="-213.8" font-family="Times,serif" font-size="14.00">inv_in</text>
</g>
<!-- Gene(9) -->
<g id="node20" class="node">
<title>Gene(9)</title>
<ellipse fill="none" stroke="black" cx="588.49" cy="-910" rx="39.79" ry="18"/>
<text text-anchor="middle" x="588.49" y="-906.3" font-family="Times,serif" font-size="14.00">Gene(9)</text>
</g>
<!-- Gene(1)&#45;&gt;Gene(9) -->
<g id="edge42" class="edge">
<title>Gene(1)&#45;&gt;Gene(9)</title>
<path fill="none" stroke="blue" d="M87.7,-915.52C190.76,-914.38 450.42,-911.52 548.85,-910.43"/>
<text text-anchor="middle" x="238.69" y="-962.8" font-family="Times,serif" font-size="14.00">genetic(&lt;=2)</text>
<text text-anchor="middle" x="238.69" y="-947.8" font-family="Times,serif" font-size="14.00">homoeolog(&lt;=2)</text>
<text text-anchor="middle" x="238.69" y="-932.8" font-family="Times,serif" font-size="14.00">physical(&lt;=2)</text>
<text text-anchor="middle" x="238.69" y="-917.8" font-family="Times,serif" font-size="14.00">regulates(&lt;=2)</text>
</g>
<!-- SNP(20) -->
<g id="node21" class="node">
<title>SNP(20)</title>
<ellipse fill="none" stroke="black" cx="933.03" cy="-1198" rx="41.69" ry="18"/>
<text text-anchor="middle" x="933.03" y="-1194.3" font-family="Times,serif" font-size="14.00">SNP(20)</text>
</g>
<!-- Gene(1)&#45;&gt;SNP(20) -->
<g id="edge43" class="edge">
<title>Gene(1)&#45;&gt;SNP(20)</title>
<path fill="none" stroke="black" d="M48.38,-959.53C55.14,-1026.72 71.9,-1150.79 105.29,-1178 227.23,-1277.37 746.15,-1221.28 893.11,-1203.06"/>
<text text-anchor="middle" x="397.58" y="-1253.8" font-family="Times,serif" font-size="14.00">has_mutant</text>
<text text-anchor="middle" x="397.58" y="-1238.8" font-family="Times,serif" font-size="14.00">has_variation</text>
</g>
<!-- Protein(10) -->
<g id="node23" class="node">
<title>Protein(10)</title>
<ellipse fill="none" stroke="black" cx="238.69" cy="-634" rx="50.89" ry="18"/>
<text text-anchor="middle" x="238.69" y="-630.3" font-family="Times,serif" font-size="14.00">Protein(10)</text>
</g>
<!-- Gene(1)&#45;&gt;Protein(10) -->
<g id="edge40" class="edge">
<title>Gene(1)&#45;&gt;Protein(10)</title>
<path fill="none" stroke="blue" d="M69.1,-880.28C110.89,-819.22 194.59,-696.96 225.69,-651.53"/>
<text text-anchor="middle" x="125.29" y="-827.8" font-family="Times,serif" font-size="14.00">enc</text>
</g>
<!-- CoExpCluster(23) -->
<g id="node27" class="node">
<title>CoExpCluster(23)</title>
<ellipse fill="none" stroke="black" cx="238.69" cy="-128" rx="75.29" ry="18"/>
<text text-anchor="middle" x="238.69" y="-124.3" font-family="Times,serif" font-size="14.00">CoExpCluster(23)</text>
</g>
<!-- Gene(1)&#45;&gt;CoExpCluster(23) -->
<g id="edge46" class="edge">
<title>Gene(1)&#45;&gt;CoExpCluster(23)</title>
<path fill="none" stroke="blue" d="M45.59,-872.3C49.17,-722.46 63.93,-235.62 105.29,-180 121.8,-157.81 149.2,-145.08 174.81,-137.78"/>
<text text-anchor="middle" x="125.29" y="-183.8" font-family="Times,serif" font-size="14.00">part_of</text>
</g>
<!-- PlantOntologyTerm(24) -->
<g id="node17" class="node">
<title>PlantOntologyTerm(24)</title>
<polygon fill="none" stroke="darkgreen" points="691.82,-104.54 691.82,-119.46 631.29,-130 545.69,-130 485.16,-119.46 485.16,-104.54 545.69,-94 631.29,-94 691.82,-104.54"/>
<polygon fill="none" stroke="darkgreen" points="695.82,-101.18 695.82,-122.82 631.64,-134 545.35,-134 481.17,-122.82 481.17,-101.18 545.35,-90 631.64,-90 695.82,-101.18"/>
<text text-anchor="middle" x="588.49" y="-108.3" font-family="Times,serif" font-size="14.00">PlantOntologyTerm(24)</text>
</g>
<!-- CoExpStudy(25) -->
<g id="node18" class="node">
<title>CoExpStudy(25)</title>
<polygon fill="none" stroke="darkgreen" points="664.45,-42.54 664.45,-57.46 619.95,-68 557.03,-68 512.54,-57.46 512.54,-42.54 557.03,-32 619.95,-32 664.45,-42.54"/>
<polygon fill="none" stroke="darkgreen" points="668.45,-39.38 668.45,-60.62 620.42,-72 556.56,-72 508.54,-60.62 508.54,-39.38 556.56,-28 620.42,-28 668.45,-39.38"/>
<text text-anchor="middle" x="588.49" y="-46.3" font-family="Times,serif" font-size="14.00">CoExpStudy(25)</text>
</g>
<!-- Reaction(18) -->
<g id="node19" class="node">
<title>Reaction(18)</title>
<ellipse fill="none" stroke="black" cx="933.03" cy="-564" rx="56.59" ry="18"/>
<text text-anchor="middle" x="933.03" y="-560.3" font-family="Times,serif" font-size="14.00">Reaction(18)</text>
</g>
<!-- Reaction(18)&#45;&gt;Path(19) -->
<g id="edge1" class="edge">
<title>Reaction(18)&#45;&gt;Path(19)</title>
<path fill="none" stroke="blue" d="M980.06,-574.31C988.84,-578.22 997.15,-583.6 1003.16,-591 1033.83,-628.78 1004.08,-653.44 1021.16,-699 1061.29,-806.04 1143.28,-916.82 1179.51,-962.87"/>
<text text-anchor="middle" x="1064.66" y="-863.8" font-family="Times,serif" font-size="14.00">part_of</text>
</g>
<!-- Gene(9)&#45;&gt;Trait(21) -->
<g id="edge2" class="edge">
<title>Gene(9)&#45;&gt;Trait(21)</title>
<path fill="none" stroke="blue" d="M627.59,-913.66C652.2,-915.95 684.93,-918.86 713.91,-921 961.11,-939.25 1025.48,-917.47 1270.64,-954 1305.38,-959.18 1344,-968.68 1372.66,-976.48"/>
<text text-anchor="middle" x="1064.66" y="-938.8" font-family="Times,serif" font-size="14.00">cooc_wi</text>
</g>
<!-- Gene(9)&#45;&gt;DGES(22) -->
<g id="edge3" class="edge">
<title>Gene(9)&#45;&gt;DGES(22)</title>
<path fill="none" stroke="black" d="M621.21,-920.2C646.2,-927.99 682.03,-938.61 713.91,-946 771.49,-959.35 787.17,-956.33 844.91,-969 857.9,-971.85 871.86,-975.34 884.73,-978.74"/>
<text text-anchor="middle" x="779.41" y="-972.8" font-family="Times,serif" font-size="14.00">differentially_expressed</text>
</g>
<!-- Gene(9)&#45;&gt;Gene(8) -->
<g id="edge5" class="edge">
<title>Gene(9)&#45;&gt;Gene(8)</title>
<path fill="none" stroke="black" d="M610.2,-925.12C634.2,-942.14 675.42,-969.79 713.91,-988 769.42,-1014.27 788.24,-1008.32 844.91,-1032 864.14,-1040.04 885,-1050.51 901.49,-1059.22"/>
<text text-anchor="middle" x="779.41" y="-1050.8" font-family="Times,serif" font-size="14.00">genetic(&lt;=8)</text>
<text text-anchor="middle" x="779.41" y="-1035.8" font-family="Times,serif" font-size="14.00">physical(&lt;=8)</text>
</g>
<!-- Gene(9)&#45;&gt;MolFunc(3) -->
<g id="edge6" class="edge">
<title>Gene(9)&#45;&gt;MolFunc(3)</title>
<path fill="none" stroke="blue" d="M623.71,-901.49C648.64,-895.42 683.27,-887.26 713.91,-881 771.82,-869.17 787.38,-871.59 844.91,-858 858.12,-854.88 872.29,-850.92 885.28,-847.04"/>
<text text-anchor="middle" x="779.41" y="-884.8" font-family="Times,serif" font-size="14.00">has_function</text>
</g>
<!-- Gene(9)&#45;&gt;Publication(2) -->
<g id="edge10" class="edge">
<title>Gene(9)&#45;&gt;Publication(2)</title>
<path fill="none" stroke="blue" d="M628.01,-911.77C721.04,-915.14 953.97,-917.79 1003.16,-863 1030.46,-832.59 994.52,-710.98 1021.16,-680 1101.81,-586.23 1256.6,-573.93 1346.47,-575.54"/>
<text text-anchor="middle" x="1064.66" y="-683.8" font-family="Times,serif" font-size="14.00">pub_in</text>
</g>
<!-- Gene(9)&#45;&gt;CelComp(5) -->
<g id="edge8" class="edge">
<title>Gene(9)&#45;&gt;CelComp(5)</title>
<path fill="none" stroke="blue" d="M625.93,-903.85C649.27,-898.02 678.35,-886.89 695.91,-866 719.63,-837.76 687.72,-810.97 713.91,-785 756.18,-743.07 791.4,-783.11 844.91,-757 870.62,-744.45 895.16,-722.7 911.6,-706.19"/>
<text text-anchor="middle" x="779.41" y="-788.8" font-family="Times,serif" font-size="14.00">located_in</text>
</g>
<!-- Gene(9)&#45;&gt;BioProc(4) -->
<g id="edge9" class="edge">
<title>Gene(9)&#45;&gt;BioProc(4)</title>
<path fill="none" stroke="black" d="M626.43,-904.51C650.14,-898.96 679.45,-887.9 695.91,-866 739.69,-807.73 663.84,-755.97 713.91,-703 754.46,-660.09 795.62,-713.5 844.91,-681 857.26,-672.86 851.69,-662.65 862.91,-653 870.38,-646.57 879.41,-641.24 888.44,-636.93"/>
<text text-anchor="middle" x="779.41" y="-706.8" font-family="Times,serif" font-size="14.00">participates_in</text>
</g>
<!-- Gene(9)&#45;&gt;Gene(9) -->
<g id="edge4" class="edge">
<title>Gene(9)&#45;&gt;Gene(9)</title>
<path fill="none" stroke="blue" d="M559.21,-922.54C544.96,-933.87 554.72,-946 588.49,-946 622.26,-946 632.02,-933.87 617.78,-922.54"/>
<text text-anchor="middle" x="588.49" y="-964.8" font-family="Times,serif" font-size="14.00">genetic(&lt;=8)</text>
<text text-anchor="middle" x="588.49" y="-949.8" font-family="Times,serif" font-size="14.00">physical(&lt;=8)</text>
</g>
<!-- Gene(9)&#45;&gt;SNP(20) -->
<g id="edge7" class="edge">
<title>Gene(9)&#45;&gt;SNP(20)</title>
<path fill="none" stroke="black" d="M605.97,-926.35C628.1,-948.86 667.89,-991.23 695.91,-1032 705.59,-1046.09 702.17,-1053.57 713.91,-1066 769.22,-1124.57 856.13,-1166.58 901.76,-1185.97"/>
<text text-anchor="middle" x="779.41" y="-1160.8" font-family="Times,serif" font-size="14.00">has_variation</text>
</g>
<!-- SNP(20)&#45;&gt;Phenotype(13) -->
<g id="edge12" class="edge">
<title>SNP(20)&#45;&gt;Phenotype(13)</title>
<path fill="none" stroke="blue" d="M972.61,-1203.57C1012.98,-1209.39 1077.23,-1218.66 1126.73,-1225.8"/>
<text text-anchor="middle" x="1064.66" y="-1225.8" font-family="Times,serif" font-size="14.00">associated_with</text>
</g>
<!-- SNP(20)&#45;&gt;SNPEffect(26) -->
<g id="edge13" class="edge">
<title>SNP(20)&#45;&gt;SNPEffect(26)</title>
<path fill="none" stroke="black" d="M974.03,-1194.35C1014.25,-1190.69 1077.13,-1184.96 1125.93,-1180.51"/>
<text text-anchor="middle" x="1064.66" y="-1192.8" font-family="Times,serif" font-size="14.00">leads_to</text>
</g>
<!-- Phenotype(133) -->
<g id="node22" class="node">
<title>Phenotype(133)</title>
<ellipse fill="none" stroke="black" cx="1198.4" cy="-1043" rx="66.89" ry="18"/>
<text text-anchor="middle" x="1198.4" y="-1039.3" font-family="Times,serif" font-size="14.00">Phenotype(133)</text>
</g>
<!-- SNP(20)&#45;&gt;Phenotype(133) -->
<g id="edge11" class="edge">
<title>SNP(20)&#45;&gt;Phenotype(133)</title>
<path fill="none" stroke="black" d="M963.19,-1185.42C979.99,-1178.39 1001.58,-1169.73 1021.16,-1163 1059.21,-1149.93 1073.83,-1158.97 1108.16,-1138 1141.19,-1117.83 1169.91,-1082.22 1185.34,-1060.79"/>
<text text-anchor="middle" x="1064.66" y="-1166.8" font-family="Times,serif" font-size="14.00">associated_with</text>
</g>
<!-- Phenotype(133)&#45;&gt;Trait(21) -->
<g id="edge14" class="edge">
<title>Phenotype(133)&#45;&gt;Trait(21)</title>
<path fill="none" stroke="blue" d="M1247.96,-1030.88C1284.46,-1021.77 1334.14,-1009.37 1369.96,-1000.43"/>
<text text-anchor="middle" x="1308.64" y="-1022.8" font-family="Times,serif" font-size="14.00">part_of</text>
</g>
<!-- Phenotype(133)&#45;&gt;Publication(2) -->
<g id="edge15" class="edge">
<title>Phenotype(133)&#45;&gt;Publication(2)</title>
<path fill="none" stroke="black" d="M1248.52,-1031.03C1256.7,-1027.29 1264.5,-1022.39 1270.64,-1016 1330.79,-953.34 1393.61,-681.83 1411.05,-602.1"/>
<text text-anchor="middle" x="1308.64" y="-988.8" font-family="Times,serif" font-size="14.00">pub_in</text>
</g>
<!-- Protein(10)&#45;&gt;Trait(21) -->
<g id="edge18" class="edge">
<title>Protein(10)&#45;&gt;Trait(21)</title>
<path fill="none" stroke="blue" d="M248.34,-616.25C263.15,-585.4 293.73,-519.68 314.08,-462 324.05,-433.73 309.94,-417.21 332.08,-397 374.19,-358.56 792.25,-357.14 844.91,-379 1142.97,-502.73 1354.15,-872.18 1404.31,-966.75"/>
<text text-anchor="middle" x="933.03" y="-472.8" font-family="Times,serif" font-size="14.00">cooc_wi</text>
</g>
<!-- Protein(10)&#45;&gt;Gene(8) -->
<g id="edge20" class="edge">
<title>Protein(10)&#45;&gt;Gene(8)</title>
<path fill="none" stroke="blue" d="M241.82,-652.27C247.99,-698.1 269.62,-819.66 332.08,-896 390.67,-967.61 623.08,-1044.37 713.91,-1062 772.58,-1073.39 841.62,-1076.06 886.06,-1076.44"/>
<text text-anchor="middle" x="588.49" y="-1060.8" font-family="Times,serif" font-size="14.00">enc</text>
</g>
<!-- Protein(10)&#45;&gt;MolFunc(3) -->
<g id="edge25" class="edge">
<title>Protein(10)&#45;&gt;MolFunc(3)</title>
<path fill="none" stroke="black" d="M243.13,-652.11C251.23,-689.1 275.25,-773 332.08,-810 419.37,-866.84 736.08,-848.33 870.75,-837.49"/>
<text text-anchor="middle" x="588.49" y="-852.8" font-family="Times,serif" font-size="14.00">has_function</text>
</g>
<!-- Protein(10)&#45;&gt;Publication(2) -->
<g id="edge30" class="edge">
<title>Protein(10)&#45;&gt;Publication(2)</title>
<path fill="none" stroke="blue" d="M249.17,-615.95C264.93,-585.18 296.55,-520.26 314.08,-462 327.22,-418.34 299.57,-392.97 332.08,-361 349.45,-343.92 718.7,-313 778.41,-313 778.41,-313 778.41,-313 1199.4,-313 1324.99,-313 1390.34,-493.52 1409.6,-557.69"/>
<text text-anchor="middle" x="933.03" y="-316.8" font-family="Times,serif" font-size="14.00">pub_in</text>
</g>
<!-- Protein(10)&#45;&gt;CelComp(5) -->
<g id="edge28" class="edge">
<title>Protein(10)&#45;&gt;CelComp(5)</title>
<path fill="none" stroke="blue" d="M281.32,-643.94C297.13,-647.35 315.35,-650.84 332.08,-653 397.85,-661.48 414.79,-659.22 481.08,-661 576.52,-663.56 618.29,-716.61 695.91,-661 716.13,-646.51 693.68,-622.49 713.91,-608 761.23,-574.09 796.69,-575.36 844.91,-608 862.74,-620.08 847.99,-637.46 862.91,-653 869.1,-659.45 876.88,-664.66 884.97,-668.84"/>
<text text-anchor="middle" x="588.49" y="-690.8" font-family="Times,serif" font-size="14.00">located_in</text>
</g>
<!-- Protein(10)&#45;&gt;BioProc(4) -->
<g id="edge29" class="edge">
<title>Protein(10)&#45;&gt;BioProc(4)</title>
<path fill="none" stroke="black" d="M284.61,-626.1C333.07,-617.59 412.52,-603.71 481.08,-592 576.51,-575.7 605.21,-589.86 695.91,-556 704.69,-552.72 704.88,-547.54 713.91,-545 769.95,-529.23 796.82,-512.18 844.91,-545 863.04,-557.38 847.76,-575.1 862.91,-591 869.44,-597.86 877.76,-603.31 886.36,-607.6"/>
<text text-anchor="middle" x="588.49" y="-595.8" font-family="Times,serif" font-size="14.00">participates_in</text>
</g>
<!-- Protein(10)&#45;&gt;ProtDomain(14) -->
<g id="edge24" class="edge">
<title>Protein(10)&#45;&gt;ProtDomain(14)</title>
<path fill="none" stroke="blue" d="M253.96,-616.53C270.55,-597.59 299.82,-568.15 332.08,-554 388.17,-529.4 457.53,-522.84 509.81,-522.05"/>
<text text-anchor="middle" x="397.58" y="-557.8" font-family="Times,serif" font-size="14.00">has_domain</text>
</g>
<!-- Protein(10)&#45;&gt;Enzyme(177) -->
<g id="edge27" class="edge">
<title>Protein(10)&#45;&gt;Enzyme(177)</title>
<path fill="none" stroke="black" d="M247.13,-616.1C259.94,-587.69 289.02,-532.77 332.08,-506 388.79,-470.75 465.65,-461.92 520.2,-460.73"/>
<text text-anchor="middle" x="397.58" y="-509.8" font-family="Times,serif" font-size="14.00">is_a</text>
</g>
<!-- Protein(10)&#45;&gt;EC(15) -->
<g id="edge17" class="edge">
<title>Protein(10)&#45;&gt;EC(15)</title>
<path fill="none" stroke="black" d="M243,-615.9C250.97,-577.95 274.93,-490 332.08,-447 394.72,-399.86 490.21,-395.55 544.95,-397.63"/>
<text text-anchor="middle" x="397.58" y="-450.8" font-family="Times,serif" font-size="14.00">cat_c</text>
</g>
<!-- Protein(10)&#45;&gt;Protein(7) -->
<g id="edge22" class="edge">
<title>Protein(10)&#45;&gt;Protein(7)</title>
<path fill="none" stroke="blue" d="M241.51,-615.89C248.67,-549 277.11,-317.42 332.08,-273 362.02,-248.8 468.7,-252.81 534.34,-257.91"/>
<text text-anchor="middle" x="397.58" y="-321.8" font-family="Times,serif" font-size="14.00">equivalent(&lt;=4)</text>
<text text-anchor="middle" x="397.58" y="-306.8" font-family="Times,serif" font-size="14.00">h_s_s(&lt;=4)</text>
<text text-anchor="middle" x="397.58" y="-291.8" font-family="Times,serif" font-size="14.00">ortho(&lt;=4)</text>
<text text-anchor="middle" x="397.58" y="-276.8" font-family="Times,serif" font-size="14.00">xref(&lt;=8)</text>
</g>
<!-- Protein(10)&#45;&gt;Gene(9) -->
<g id="edge19" class="edge">
<title>Protein(10)&#45;&gt;Gene(9)</title>
<path fill="none" stroke="black" d="M241.4,-652.27C246.51,-695.55 265.66,-804.65 332.08,-858 378.17,-895.02 405.16,-869.17 463.08,-881 493.72,-887.26 528.35,-895.42 553.28,-901.49"/>
<text text-anchor="middle" x="397.58" y="-884.8" font-family="Times,serif" font-size="14.00">enc</text>
</g>
<!-- Protein(10)&#45;&gt;Protein(10) -->
<g id="edge21" class="edge">
<title>Protein(10)&#45;&gt;Protein(10)</title>
<path fill="none" stroke="black" d="M219,-650.66C214.62,-660.62 221.19,-670 238.69,-670 256.19,-670 262.75,-660.62 258.37,-650.66"/>
<text text-anchor="middle" x="238.69" y="-718.8" font-family="Times,serif" font-size="14.00">equivalent(&lt;=4)</text>
<text text-anchor="middle" x="238.69" y="-703.8" font-family="Times,serif" font-size="14.00">h_s_s(&lt;=4)</text>
<text text-anchor="middle" x="238.69" y="-688.8" font-family="Times,serif" font-size="14.00">ortho(&lt;=4)</text>
<text text-anchor="middle" x="238.69" y="-673.8" font-family="Times,serif" font-size="14.00">xref(&lt;=8)</text>
</g>
<!-- EC(12) -->
<g id="node24" class="node">
<title>EC(12)</title>
<ellipse fill="none" stroke="black" cx="588.49" cy="-793" rx="36.29" ry="18"/>
<text text-anchor="middle" x="588.49" y="-789.3" font-family="Times,serif" font-size="14.00">EC(12)</text>
</g>
<!-- Protein(10)&#45;&gt;EC(12) -->
<g id="edge16" class="edge">
<title>Protein(10)&#45;&gt;EC(12)</title>
<path fill="none" stroke="blue" d="M248.11,-652.02C261.68,-678.87 291.08,-728.81 332.08,-753 401.86,-794.16 500.21,-797.17 552.16,-795.36"/>
<text text-anchor="middle" x="397.58" y="-794.8" font-family="Times,serif" font-size="14.00">cat_c</text>
</g>
<!-- ProtDomain(11) -->
<g id="node25" class="node">
<title>ProtDomain(11)</title>
<ellipse fill="none" stroke="black" cx="588.49" cy="-739" rx="68.79" ry="18"/>
<text text-anchor="middle" x="588.49" y="-735.3" font-family="Times,serif" font-size="14.00">ProtDomain(11)</text>
</g>
<!-- Protein(10)&#45;&gt;ProtDomain(11) -->
<g id="edge23" class="edge">
<title>Protein(10)&#45;&gt;ProtDomain(11)</title>
<path fill="none" stroke="black" d="M257.14,-651.02C274.59,-666.96 302.96,-690.06 332.08,-702 392.4,-726.73 466.66,-735.31 519.53,-738.1"/>
<text text-anchor="middle" x="397.58" y="-737.8" font-family="Times,serif" font-size="14.00">has_domain</text>
</g>
<!-- Enzyme(17) -->
<g id="node26" class="node">
<title>Enzyme(17)</title>
<ellipse fill="none" stroke="black" cx="588.49" cy="-634" rx="54.69" ry="18"/>
<text text-anchor="middle" x="588.49" y="-630.3" font-family="Times,serif" font-size="14.00">Enzyme(17)</text>
</g>
<!-- Protein(10)&#45;&gt;Enzyme(17) -->
<g id="edge26" class="edge">
<title>Protein(10)&#45;&gt;Enzyme(17)</title>
<path fill="none" stroke="blue" d="M289.52,-634C354.32,-634 467.09,-634 533.75,-634"/>
<text text-anchor="middle" x="397.58" y="-637.8" font-family="Times,serif" font-size="14.00">is_a</text>
</g>
<!-- EC(12)&#45;&gt;MolFunc(3) -->
<g id="edge31" class="edge">
<title>EC(12)&#45;&gt;MolFunc(3)</title>
<path fill="none" stroke="blue" d="M624.69,-795.75C674.02,-799.77 766.47,-807.87 844.91,-818 853.26,-819.08 862.05,-820.34 870.7,-821.66"/>
<text text-anchor="middle" x="779.41" y="-821.8" font-family="Times,serif" font-size="14.00">equ</text>
</g>
<!-- ProtDomain(11)&#45;&gt;MolFunc(3) -->
<g id="edge32" class="edge">
<title>ProtDomain(11)&#45;&gt;MolFunc(3)</title>
<path fill="none" stroke="black" d="M643.32,-728.03C696.78,-719.74 779.94,-714.02 844.91,-742 877.06,-755.85 903.23,-787.88 918.23,-809.74"/>
<text text-anchor="middle" x="779.41" y="-745.8" font-family="Times,serif" font-size="14.00">has_function</text>
</g>
<!-- ProtDomain(11)&#45;&gt;CelComp(5) -->
<g id="edge33" class="edge">
<title>ProtDomain(11)&#45;&gt;CelComp(5)</title>
<path fill="none" stroke="blue" d="M649.57,-730.52C666.08,-725.8 682.98,-718.44 695.91,-707 710.81,-693.81 697.24,-676.88 713.91,-666 767.35,-631.09 844.59,-649.75 891.38,-666.71"/>
<text text-anchor="middle" x="779.41" y="-669.8" font-family="Times,serif" font-size="14.00">located_in</text>
</g>
<!-- ProtDomain(11)&#45;&gt;BioProc(4) -->
<g id="edge34" class="edge">
<title>ProtDomain(11)&#45;&gt;BioProc(4)</title>
<path fill="none" stroke="black" d="M651.86,-731.77C668.12,-727.06 684.32,-719.41 695.91,-707 720.49,-680.68 686.07,-650.84 713.91,-628 761.5,-588.95 836.56,-597.06 885.04,-608.19"/>
<text text-anchor="middle" x="779.41" y="-631.8" font-family="Times,serif" font-size="14.00">participates_in</text>
</g>
<!-- Enzyme(17)&#45;&gt;Reaction(188) -->
<g id="edge35" class="edge">
<title>Enzyme(17)&#45;&gt;Reaction(188)</title>
<path fill="none" stroke="blue" d="M641.36,-629.43C660.91,-625.15 681.82,-617.08 695.91,-602 720.49,-575.68 699.97,-556.2 713.91,-523 761.34,-410.01 781.54,-382.64 862.91,-291 874.47,-277.97 889.15,-265.43 902,-255.45"/>
<text text-anchor="middle" x="779.41" y="-526.8" font-family="Times,serif" font-size="14.00">ca_by</text>
</g>
<!-- Enzyme(17)&#45;&gt;Reaction(18) -->
<g id="edge36" class="edge">
<title>Enzyme(17)&#45;&gt;Reaction(18)</title>
<path fill="none" stroke="black" d="M639.7,-627.69C659.02,-623.16 680.19,-615.38 695.91,-602 709.83,-590.15 698.43,-574.73 713.91,-565 767.29,-531.44 843.5,-541.11 890.27,-551.97"/>
<text text-anchor="middle" x="779.41" y="-568.8" font-family="Times,serif" font-size="14.00">ca_by</text>
</g>
<!-- CoExpCluster(23)&#45;&gt;BioProc(4) -->
<g id="edge48" class="edge">
<title>CoExpCluster(23)&#45;&gt;BioProc(4)</title>
<path fill="none" stroke="black" d="M300.14,-138.56C415.61,-158.91 659.38,-202.81 695.91,-217 768.24,-245.09 804.81,-241.57 844.91,-308 877.47,-361.95 826.99,-539.22 862.91,-591 868.08,-598.46 875.48,-604.15 883.54,-608.48"/>
<text text-anchor="middle" x="588.49" y="-220.8" font-family="Times,serif" font-size="14.00">enriched_for</text>
</g>
<!-- CoExpCluster(23)&#45;&gt;PlantOntologyTerm(24) -->
<g id="edge49" class="edge">
<title>CoExpCluster(23)&#45;&gt;PlantOntologyTerm(24)</title>
<path fill="none" stroke="blue" d="M313.02,-124.63C361.75,-122.38 426.53,-119.4 480.92,-116.9"/>
<text text-anchor="middle" x="397.58" y="-127.8" font-family="Times,serif" font-size="14.00">enriched_for</text>
</g>
<!-- CoExpCluster(23)&#45;&gt;CoExpStudy(25) -->
<g id="edge50" class="edge">
<title>CoExpCluster(23)&#45;&gt;CoExpStudy(25)</title>
<path fill="none" stroke="black" d="M284.08,-113.56C299.22,-108.89 316.3,-103.92 332.08,-100 393.25,-84.79 463.59,-71.31 514.95,-62.19"/>
<text text-anchor="middle" x="397.58" y="-103.8" font-family="Times,serif" font-size="14.00">part_of</text>
</g>
</g>
</svg>
