<svg width="1016pt" height="744pt"
 viewBox="0.00 0.00 1015.90 743.73" xmlns="http://www.w3.org/2000/svg" xmlns:xlink="http://www.w3.org/1999/xlink">
<g id="graph0" class="graph" transform="scale(1 1) rotate(0) translate(4 739.73)">
<title>%3</title>
<polygon fill="white" stroke="transparent" points="-4,4 -4,-739.73 1011.9,-739.73 1011.9,4 -4,4"/>
<!-- Protein(7) -->
<g id="node1" class="node">
<title>Protein(7)</title>
<polygon fill="none" stroke="darkgreen" points="473.21,-706.27 473.21,-721.19 444.2,-731.73 403.18,-731.73 374.17,-721.19 374.17,-706.27 403.18,-695.73 444.2,-695.73 473.21,-706.27"/>
<polygon fill="none" stroke="darkgreen" points="477.19,-703.47 477.19,-723.99 444.9,-735.73 402.48,-735.73 370.19,-723.99 370.19,-703.47 402.48,-691.73 444.9,-691.73 477.19,-703.47"/>
<text text-anchor="middle" x="423.69" y="-709.53" font-family="Times,serif" font-size="14.00">Protein(7)</text>
</g>
<!-- Trait(21) -->
<g id="node2" class="node">
<title>Trait(21)</title>
<polygon fill="none" stroke="darkgreen" points="1004.05,-444.27 1004.05,-459.19 977.51,-469.73 939.98,-469.73 913.44,-459.19 913.44,-444.27 939.98,-433.73 977.51,-433.73 1004.05,-444.27"/>
<polygon fill="none" stroke="darkgreen" points="1008.06,-441.56 1008.06,-461.9 978.28,-473.73 939.21,-473.73 909.43,-461.9 909.43,-441.56 939.21,-429.73 978.28,-429.73 1008.06,-441.56"/>
<text text-anchor="middle" x="958.74" y="-447.53" font-family="Times,serif" font-size="14.00">Trait(21)</text>
</g>
<!-- Publication(2) -->
<g id="node3" class="node">
<title>Publication(2)</title>
<polygon fill="none" stroke="darkgreen" points="778.77,-569.27 778.77,-584.19 740.16,-594.73 685.57,-594.73 646.97,-584.19 646.97,-569.27 685.57,-558.73 740.16,-558.73 778.77,-569.27"/>
<polygon fill="none" stroke="darkgreen" points="782.78,-566.22 782.78,-587.24 740.7,-598.73 685.04,-598.73 642.96,-587.24 642.96,-566.22 685.04,-554.73 740.7,-554.73 782.78,-566.22"/>
<text text-anchor="middle" x="712.87" y="-572.53" font-family="Times,serif" font-size="14.00">Publication(2)</text>
</g>
<!-- MolFunc(3) -->
<g id="node4" class="node">
<title>MolFunc(3)</title>
<polygon fill="none" stroke="darkgreen" points="770.26,-67.27 770.26,-82.19 736.64,-92.73 689.1,-92.73 655.48,-82.19 655.48,-67.27 689.1,-56.73 736.64,-56.73 770.26,-67.27"/>
<polygon fill="none" stroke="darkgreen" points="774.27,-64.34 774.27,-85.12 737.26,-96.73 688.48,-96.73 651.47,-85.12 651.47,-64.34 688.48,-52.73 737.26,-52.73 774.27,-64.34"/>
<text text-anchor="middle" x="712.87" y="-70.53" font-family="Times,serif" font-size="14.00">MolFunc(3)</text>
</g>
<!-- CelComp(5) -->
<g id="node5" class="node">
<title>CelComp(5)</title>
<polygon fill="none" stroke="darkgreen" points="771.47,-386.27 771.47,-401.19 737.14,-411.73 688.59,-411.73 654.27,-401.19 654.27,-386.27 688.59,-375.73 737.14,-375.73 771.47,-386.27"/>
<polygon fill="none" stroke="darkgreen" points="775.46,-383.32 775.46,-404.14 737.74,-415.73 688,-415.73 650.28,-404.14 650.28,-383.32 688,-371.73 737.74,-371.73 775.46,-383.32"/>
<text text-anchor="middle" x="712.87" y="-389.53" font-family="Times,serif" font-size="14.00">CelComp(5)</text>
</g>
<!-- Phenotype(13) -->
<g id="node6" class="node">
<title>Phenotype(13)</title>
<polygon fill="none" stroke="darkgreen" points="779.98,-324.27 779.98,-339.19 740.67,-349.73 685.07,-349.73 645.76,-339.19 645.76,-324.27 685.07,-313.73 740.67,-313.73 779.98,-324.27"/>
<polygon fill="none" stroke="darkgreen" points="783.96,-321.2 783.96,-342.26 741.19,-353.73 684.55,-353.73 641.77,-342.26 641.77,-321.2 684.55,-309.73 741.19,-309.73 783.96,-321.2"/>
<text text-anchor="middle" x="712.87" y="-327.53" font-family="Times,serif" font-size="14.00">Phenotype(13)</text>
</g>
<!-- Gene(8) -->
<g id="node7" class="node">
<title>Gene(8)</title>
<polygon fill="none" stroke="darkgreen" points="754.98,-504.27 754.98,-519.19 730.31,-529.73 695.43,-529.73 670.76,-519.19 670.76,-504.27 695.43,-493.73 730.31,-493.73 754.98,-504.27"/>
<polygon fill="none" stroke="darkgreen" points="758.96,-501.63 758.96,-521.83 731.12,-533.73 694.61,-533.73 666.78,-521.83 666.78,-501.63 694.61,-489.73 731.12,-489.73 758.96,-501.63"/>
<text text-anchor="middle" x="712.87" y="-507.53" font-family="Times,serif" font-size="14.00">Gene(8)</text>
</g>
<!-- TO(16) -->
<g id="node8" class="node">
<title>TO(16)</title>
<polygon fill="none" stroke="darkgreen" points="752.33,-261.27 752.33,-276.19 729.21,-286.73 696.53,-286.73 673.41,-276.19 673.41,-261.27 696.53,-250.73 729.21,-250.73 752.33,-261.27"/>
<polygon fill="none" stroke="darkgreen" points="756.33,-258.7 756.33,-278.76 730.08,-290.73 695.66,-290.73 669.41,-278.76 669.41,-258.7 695.66,-246.73 730.08,-246.73 756.33,-258.7"/>
<text text-anchor="middle" x="712.87" y="-264.53" font-family="Times,serif" font-size="14.00">TO(16)</text>
</g>
<!-- BioProc(4) -->
<g id="node9" class="node">
<title>BioProc(4)</title>
<polygon fill="none" stroke="darkgreen" points="766.32,-154.27 766.32,-169.19 735.01,-179.73 690.73,-179.73 659.42,-169.19 659.42,-154.27 690.73,-143.73 735.01,-143.73 766.32,-154.27"/>
<polygon fill="none" stroke="darkgreen" points="770.32,-151.4 770.32,-172.06 735.67,-183.73 690.07,-183.73 655.42,-172.06 655.42,-151.4 690.07,-139.73 735.67,-139.73 770.32,-151.4"/>
<text text-anchor="middle" x="712.87" y="-157.53" font-family="Times,serif" font-size="14.00">BioProc(4)</text>
</g>
<!-- ProtDomain(14) -->
<g id="node10" class="node">
<title>ProtDomain(14)</title>
<polygon fill="none" stroke="darkgreen" points="497.55,-281.27 497.55,-296.19 454.28,-306.73 393.1,-306.73 349.84,-296.19 349.84,-281.27 393.1,-270.73 454.28,-270.73 497.55,-281.27"/>
<polygon fill="none" stroke="darkgreen" points="501.55,-278.13 501.55,-299.33 454.76,-310.73 392.62,-310.73 345.83,-299.33 345.83,-278.13 392.62,-266.73 454.76,-266.73 501.55,-278.13"/>
<text text-anchor="middle" x="423.69" y="-284.53" font-family="Times,serif" font-size="14.00">ProtDomain(14)</text>
</g>
<!-- Reaction(188) -->
<g id="node11" class="node">
<title>Reaction(188)</title>
<polygon fill="none" stroke="darkgreen" points="778.75,-638.27 778.75,-653.19 740.16,-663.73 685.58,-663.73 646.99,-653.19 646.99,-638.27 685.58,-627.73 740.16,-627.73 778.75,-638.27"/>
<polygon fill="none" stroke="darkgreen" points="782.76,-635.22 782.76,-656.24 740.7,-667.73 685.04,-667.73 642.98,-656.24 642.98,-635.22 685.04,-623.73 740.7,-623.73 782.76,-635.22"/>
<text text-anchor="middle" x="712.87" y="-641.53" font-family="Times,serif" font-size="14.00">Reaction(188)</text>
</g>
<!-- Enzyme(177) -->
<g id="node12" class="node">
<title>Enzyme(177)</title>
<polygon fill="none" stroke="darkgreen" points="486.76,-219.27 486.76,-234.19 449.81,-244.73 397.57,-244.73 360.62,-234.19 360.62,-219.27 397.57,-208.73 449.81,-208.73 486.76,-219.27"/>
<polygon fill="none" stroke="darkgreen" points="490.76,-216.26 490.76,-237.2 450.37,-248.73 397.01,-248.73 356.62,-237.2 356.62,-216.26 397.01,-204.73 450.37,-204.73 490.76,-216.26"/>
<text text-anchor="middle" x="423.69" y="-222.53" font-family="Times,serif" font-size="14.00">Enzyme(177)</text>
</g>
<!-- EC(15) -->
<g id="node13" class="node">
<title>EC(15)</title>
<polygon fill="none" stroke="darkgreen" points="462.92,-157.27 462.92,-172.19 439.94,-182.73 407.44,-182.73 384.46,-172.19 384.46,-157.27 407.44,-146.73 439.94,-146.73 462.92,-157.27"/>
<polygon fill="none" stroke="darkgreen" points="466.93,-154.71 466.93,-174.75 440.82,-186.73 406.56,-186.73 380.45,-174.75 380.45,-154.71 406.56,-142.73 440.82,-142.73 466.93,-154.71"/>
<text text-anchor="middle" x="423.69" y="-160.53" font-family="Times,serif" font-size="14.00">EC(15)</text>
</g>
<!-- Path(19) -->
<g id="node14" class="node">
<title>Path(19)</title>
<polygon fill="none" stroke="darkgreen" points="1002.56,-696.27 1002.56,-711.19 976.89,-721.73 940.6,-721.73 914.93,-711.19 914.93,-696.27 940.6,-685.73 976.89,-685.73 1002.56,-696.27"/>
<polygon fill="none" stroke="darkgreen" points="1006.55,-693.59 1006.55,-713.87 977.68,-725.73 939.81,-725.73 910.94,-713.87 910.94,-693.59 939.81,-681.73 977.68,-681.73 1006.55,-693.59"/>
<text text-anchor="middle" x="958.74" y="-699.53" font-family="Times,serif" font-size="14.00">Path(19)</text>
</g>
<!-- Gene(1) -->
<g id="node15" class="node">
<title>Gene(1)</title>
<ellipse fill="none" stroke="red" cx="43.08" cy="-559.73" rx="39.15" ry="39.15"/>
<ellipse fill="none" stroke="red" cx="43.08" cy="-559.73" rx="43.15" ry="43.15"/>
<text text-anchor="middle" x="43.08" y="-555.53" font-family="Times,serif" font-size="14.00">Gene(1)</text>
</g>
<!-- Gene(1)&#45;&gt;Protein(7) -->
<g id="edge33" class="edge">
<title>Gene(1)&#45;&gt;Protein(7)</title>
<path fill="none" stroke="black" d="M74.52,-589.7C113.69,-626.01 185.64,-685.34 260.35,-709.73 292.02,-720.07 329.03,-721.71 359.71,-720.49"/>
<polygon fill="black" stroke="black" points="360.05,-723.98 369.86,-719.97 359.69,-716.99 360.05,-723.98"/>
<text text-anchor="middle" x="191.97" y="-705.53" font-family="Times,serif" font-size="14.00">enc</text>
</g>
<!-- Protein(10) -->
<g id="node18" class="node">
<title>Protein(10)</title>
<ellipse fill="none" stroke="black" cx="191.97" cy="-363.73" rx="50.27" ry="18"/>
<text text-anchor="middle" x="191.97" y="-359.53" font-family="Times,serif" font-size="14.00">Protein(10)</text>
</g>
<!-- Gene(1)&#45;&gt;Protein(10) -->
<g id="edge32" class="edge">
<title>Gene(1)&#45;&gt;Protein(10)</title>
<path fill="none" stroke="blue" d="M69.66,-525.59C98.76,-486.76 145.61,-424.25 171.75,-389.37"/>
<polygon fill="blue" stroke="blue" points="174.74,-391.22 177.93,-381.12 169.13,-387.03 174.74,-391.22"/>
<text text-anchor="middle" x="113.87" y="-481.53" font-family="Times,serif" font-size="14.00">enc</text>
</g>
<!-- Gene(9) -->
<g id="node16" class="node">
<title>Gene(9)</title>
<ellipse fill="none" stroke="black" cx="423.69" cy="-396.73" rx="39.15" ry="18"/>
<text text-anchor="middle" x="423.69" y="-392.53" font-family="Times,serif" font-size="14.00">Gene(9)</text>
</g>
<!-- Gene(9)&#45;&gt;Publication(2) -->
<g id="edge2" class="edge">
<title>Gene(9)&#45;&gt;Publication(2)</title>
<path fill="none" stroke="blue" d="M442.75,-412.64C459.18,-427.67 483.52,-451.32 501.37,-474.73 511.03,-487.4 507.18,-495.48 519.37,-505.73 553.04,-534.03 599,-551.55 637.58,-562.1"/>
<polygon fill="blue" stroke="blue" points="637.17,-565.61 647.73,-564.76 638.94,-558.84 637.17,-565.61"/>
<text text-anchor="middle" x="571.47" y="-559.53" font-family="Times,serif" font-size="14.00">pub_in</text>
</g>
<!-- Gene(9)&#45;&gt;MolFunc(3) -->
<g id="edge1" class="edge">
<title>Gene(9)&#45;&gt;MolFunc(3)</title>
<path fill="none" stroke="black" d="M460.24,-390.29C475.28,-385.71 491.56,-377.92 501.37,-364.73 547.51,-302.7 472.35,-253.08 519.37,-191.73 549.55,-152.36 583.04,-180.32 623.57,-151.73 633.62,-144.64 632.73,-139.26 641.57,-130.73 652.05,-120.62 664.24,-110.43 675.49,-101.58"/>
<polygon fill="black" stroke="black" points="677.72,-104.27 683.48,-95.38 673.43,-98.74 677.72,-104.27"/>
<text text-anchor="middle" x="571.47" y="-194.53" font-family="Times,serif" font-size="14.00">has_function</text>
</g>
<!-- Gene(9)&#45;&gt;CelComp(5) -->
<g id="edge5" class="edge">
<title>Gene(9)&#45;&gt;CelComp(5)</title>
<path fill="none" stroke="black" d="M459.59,-389.4C477.39,-386.02 499.44,-382.4 519.37,-380.73 565.52,-376.86 577.38,-377.35 623.57,-380.73 628.98,-381.13 634.56,-381.66 640.16,-382.28"/>
<polygon fill="black" stroke="black" points="639.9,-385.77 650.25,-383.48 640.73,-378.82 639.9,-385.77"/>
<text text-anchor="middle" x="571.47" y="-383.53" font-family="Times,serif" font-size="14.00">located_in</text>
</g>
<!-- Gene(9)&#45;&gt;Phenotype(13) -->
<g id="edge6" class="edge">
<title>Gene(9)&#45;&gt;Phenotype(13)</title>
<path fill="none" stroke="blue" d="M451.89,-384.18C470.52,-376.07 496,-365.91 519.37,-359.73 555.63,-350.14 596.65,-343.61 631.48,-339.28"/>
<polygon fill="blue" stroke="blue" points="632.09,-342.73 641.6,-338.06 631.25,-335.78 632.09,-342.73"/>
<text text-anchor="middle" x="571.47" y="-362.53" font-family="Times,serif" font-size="14.00">has_observ_pheno</text>
</g>
<!-- Gene(9)&#45;&gt;Gene(8) -->
<g id="edge7" class="edge">
<title>Gene(9)&#45;&gt;Gene(8)</title>
<path fill="none" stroke="black" d="M453.81,-408.39C503.92,-428.46 606.82,-469.66 666.43,-493.54"/>
<polygon fill="black" stroke="black" points="665.39,-496.89 675.97,-497.35 667.99,-490.39 665.39,-496.89"/>
<text text-anchor="middle" x="571.47" y="-490.53" font-family="Times,serif" font-size="14.00">physical(&lt;=8)</text>
<text text-anchor="middle" x="571.47" y="-476.53" font-family="Times,serif" font-size="14.00">genetic(&lt;=8)</text>
</g>
<!-- Gene(9)&#45;&gt;TO(16) -->
<g id="edge8" class="edge">
<title>Gene(9)&#45;&gt;TO(16)</title>
<path fill="none" stroke="blue" d="M460.13,-389.78C474.96,-385.11 491.11,-377.39 501.37,-364.73 528.44,-331.35 486.35,-297.23 519.37,-269.73 539.86,-252.67 609.55,-256.48 659.17,-261.78"/>
<polygon fill="blue" stroke="blue" points="658.8,-265.26 669.12,-262.89 659.57,-258.3 658.8,-265.26"/>
<text text-anchor="middle" x="571.47" y="-272.53" font-family="Times,serif" font-size="14.00">cooc_wi</text>
</g>
<!-- Gene(9)&#45;&gt;BioProc(4) -->
<g id="edge9" class="edge">
<title>Gene(9)&#45;&gt;BioProc(4)</title>
<path fill="none" stroke="black" d="M460.39,-389.99C475.28,-385.36 491.39,-377.61 501.37,-364.73 535.75,-320.36 482.5,-282.05 519.37,-239.73 551.03,-203.4 578.98,-228.01 623.57,-209.73 639.88,-203.04 657.07,-194.16 671.91,-185.85"/>
<polygon fill="black" stroke="black" points="673.85,-188.77 680.81,-180.78 670.39,-182.69 673.85,-188.77"/>
<text text-anchor="middle" x="571.47" y="-242.53" font-family="Times,serif" font-size="14.00">participates_in</text>
</g>
<!-- Gene(9)&#45;&gt;Gene(9) -->
<g id="edge3" class="edge">
<title>Gene(9)&#45;&gt;Gene(9)</title>
<path fill="none" stroke="black" d="M402.03,-411.9C395.47,-422.39 402.69,-432.73 423.69,-432.73 437.8,-432.73 445.69,-428.06 447.36,-421.82"/>
<polygon fill="black" stroke="black" points="450.76,-421 445.35,-411.9 443.9,-422.39 450.76,-421"/>
<text text-anchor="middle" x="423.69" y="-449.53" font-family="Times,serif" font-size="14.00">physical(&lt;=8)</text>
<text text-anchor="middle" x="423.69" y="-435.53" font-family="Times,serif" font-size="14.00">genetic(&lt;=8)</text>
</g>
<!-- SNP(20) -->
<g id="node17" class="node">
<title>SNP(20)</title>
<ellipse fill="none" stroke="black" cx="712.87" cy="-451.73" rx="41.13" ry="18"/>
<text text-anchor="middle" x="712.87" y="-447.53" font-family="Times,serif" font-size="14.00">SNP(20)</text>
</g>
<!-- Gene(9)&#45;&gt;SNP(20) -->
<g id="edge4" class="edge">
<title>Gene(9)&#45;&gt;SNP(20)</title>
<path fill="none" stroke="blue" d="M462.96,-397.76C503.39,-399.55 568.74,-404.43 623.57,-417.73 631.91,-419.75 633.57,-421.64 641.57,-424.73 651.36,-428.51 661.92,-432.58 671.8,-436.37"/>
<polygon fill="blue" stroke="blue" points="670.82,-439.75 681.41,-440.06 673.33,-433.21 670.82,-439.75"/>
<text text-anchor="middle" x="571.47" y="-420.53" font-family="Times,serif" font-size="14.00">has_variation</text>
</g>
<!-- SNP(20)&#45;&gt;Trait(21) -->
<g id="edge10" class="edge">
<title>SNP(20)&#45;&gt;Trait(21)</title>
<path fill="none" stroke="black" d="M754.14,-451.73C793.68,-451.73 854.41,-451.73 899.26,-451.73"/>
<polygon fill="black" stroke="black" points="899.44,-455.23 909.44,-451.73 899.44,-448.23 899.44,-455.23"/>
<text text-anchor="middle" x="846.88" y="-454.53" font-family="Times,serif" font-size="14.00">associated_with</text>
</g>
<!-- Protein(10)&#45;&gt;Protein(7) -->
<g id="edge11" class="edge">
<title>Protein(10)&#45;&gt;Protein(7)</title>
<path fill="none" stroke="blue" d="M195.03,-381.9C201.72,-437.73 224.44,-605.34 260.35,-644.73 281.75,-668.2 298.63,-655.66 328.01,-667.73 345.39,-674.87 364.08,-683.7 380.23,-691.7"/>
<polygon fill="blue" stroke="blue" points="378.9,-694.95 389.41,-696.3 382.04,-688.7 378.9,-694.95"/>
<text text-anchor="middle" x="294.18" y="-698.53" font-family="Times,serif" font-size="14.00">ortho(&lt;=5)</text>
<text text-anchor="middle" x="294.18" y="-684.53" font-family="Times,serif" font-size="14.00">xref(&lt;=8)</text>
<text text-anchor="middle" x="294.18" y="-670.53" font-family="Times,serif" font-size="14.00">h_s_s(&lt;=5)</text>
</g>
<!-- Protein(10)&#45;&gt;Publication(2) -->
<g id="edge17" class="edge">
<title>Protein(10)&#45;&gt;Publication(2)</title>
<path fill="none" stroke="blue" d="M198.62,-381.76C213.75,-426.33 260.01,-540.54 346.01,-574.73 442.61,-613.13 565.21,-603.25 641.1,-591.13"/>
<polygon fill="blue" stroke="blue" points="641.74,-594.57 651.03,-589.48 640.6,-587.66 641.74,-594.57"/>
<text text-anchor="middle" x="423.69" y="-604.53" font-family="Times,serif" font-size="14.00">pub_in</text>
</g>
<!-- Protein(10)&#45;&gt;MolFunc(3) -->
<g id="edge22" class="edge">
<title>Protein(10)&#45;&gt;MolFunc(3)</title>
<path fill="none" stroke="black" d="M192.58,-345.55C192.42,-296.21 197.9,-157.5 260.35,-67.73 286.33,-30.39 302.42,-24.71 346.01,-11.73 457.8,21.57 594.39,-23.7 664.84,-53.09"/>
<polygon fill="black" stroke="black" points="663.76,-56.44 674.33,-57.13 666.49,-50 663.76,-56.44"/>
<text text-anchor="middle" x="423.69" y="-14.53" font-family="Times,serif" font-size="14.00">has_function</text>
</g>
<!-- Protein(10)&#45;&gt;CelComp(5) -->
<g id="edge19" class="edge">
<title>Protein(10)&#45;&gt;CelComp(5)</title>
<path fill="none" stroke="blue" d="M210.48,-380.67C237.19,-405.3 290.86,-450.2 346.01,-469.73 404.22,-490.34 573.86,-519.35 623.57,-482.73 645.3,-466.72 623.61,-444.87 641.57,-424.73 645.35,-420.5 649.8,-416.82 654.61,-413.62"/>
<polygon fill="blue" stroke="blue" points="656.72,-416.45 663.58,-408.38 653.18,-410.4 656.72,-416.45"/>
<text text-anchor="middle" x="423.69" y="-500.53" font-family="Times,serif" font-size="14.00">located_in</text>
</g>
<!-- Protein(10)&#45;&gt;Gene(8) -->
<g id="edge24" class="edge">
<title>Protein(10)&#45;&gt;Gene(8)</title>
<path fill="none" stroke="black" d="M203.39,-381.32C215.51,-400.88 236.87,-432.74 260.35,-455.73 293.57,-488.25 302.99,-498.13 346.01,-515.73 460.8,-562.7 501.52,-566.79 623.57,-544.73 639.01,-541.94 655.27,-536.61 669.57,-531.04"/>
<polygon fill="black" stroke="black" points="671.17,-534.16 679.12,-527.16 668.54,-527.68 671.17,-534.16"/>
<text text-anchor="middle" x="423.69" y="-559.53" font-family="Times,serif" font-size="14.00">enc</text>
</g>
<!-- Protein(10)&#45;&gt;BioProc(4) -->
<g id="edge14" class="edge">
<title>Protein(10)&#45;&gt;BioProc(4)</title>
<path fill="none" stroke="black" d="M241.6,-360.01C323.9,-353.25 483.46,-337.96 501.37,-319.73 546.58,-273.73 472.6,-220.14 519.37,-175.73 537.07,-158.93 596.93,-156.71 645.26,-157.92"/>
<polygon fill="black" stroke="black" points="645.27,-161.43 655.37,-158.23 645.49,-154.43 645.27,-161.43"/>
<text text-anchor="middle" x="423.69" y="-353.53" font-family="Times,serif" font-size="14.00">participates_in</text>
</g>
<!-- Protein(10)&#45;&gt;ProtDomain(14) -->
<g id="edge21" class="edge">
<title>Protein(10)&#45;&gt;ProtDomain(14)</title>
<path fill="none" stroke="blue" d="M212.97,-347.2C225.77,-337.46 243.15,-325.72 260.35,-318.73 283.93,-309.16 310.67,-302.62 335.55,-298.15"/>
<polygon fill="blue" stroke="blue" points="336.44,-301.55 345.72,-296.43 335.27,-294.65 336.44,-301.55"/>
<text text-anchor="middle" x="294.18" y="-321.53" font-family="Times,serif" font-size="14.00">has_domain</text>
</g>
<!-- Protein(10)&#45;&gt;Enzyme(177) -->
<g id="edge12" class="edge">
<title>Protein(10)&#45;&gt;Enzyme(177)</title>
<path fill="none" stroke="black" d="M203.47,-346.14C215.21,-327.88 235.82,-299.68 260.35,-282.73 288.02,-263.62 322.82,-250.47 353.1,-241.75"/>
<polygon fill="black" stroke="black" points="354.06,-245.12 362.76,-239.07 352.18,-238.37 354.06,-245.12"/>
<text text-anchor="middle" x="294.18" y="-285.53" font-family="Times,serif" font-size="14.00">is_a</text>
</g>
<!-- Protein(10)&#45;&gt;EC(15) -->
<g id="edge20" class="edge">
<title>Protein(10)&#45;&gt;EC(15)</title>
<path fill="none" stroke="black" d="M197.94,-345.65C206.42,-317.9 226.16,-264.69 260.35,-232.73 291.13,-203.96 335.85,-186.45 370.56,-176.42"/>
<polygon fill="black" stroke="black" points="371.82,-179.71 380.53,-173.67 369.96,-172.96 371.82,-179.71"/>
<text text-anchor="middle" x="294.18" y="-235.53" font-family="Times,serif" font-size="14.00">cat_c</text>
</g>
<!-- Protein(10)&#45;&gt;Gene(9) -->
<g id="edge16" class="edge">
<title>Protein(10)&#45;&gt;Gene(9)</title>
<path fill="none" stroke="black" d="M238.9,-370.33C278.77,-376.06 336.22,-384.31 376.24,-390.06"/>
<polygon fill="black" stroke="black" points="375.88,-393.54 386.27,-391.5 376.87,-386.61 375.88,-393.54"/>
<text text-anchor="middle" x="294.18" y="-384.53" font-family="Times,serif" font-size="14.00">enc</text>
</g>
<!-- Protein(10)&#45;&gt;Protein(10) -->
<g id="edge15" class="edge">
<title>Protein(10)&#45;&gt;Protein(10)</title>
<path fill="none" stroke="blue" d="M178.04,-381.14C175.44,-390.82 180.08,-399.73 191.97,-399.73 199.39,-399.73 203.99,-396.25 205.76,-391.27"/>
<polygon fill="blue" stroke="blue" points="209.26,-391.18 205.89,-381.14 202.26,-391.09 209.26,-391.18"/>
<text text-anchor="middle" x="191.97" y="-430.53" font-family="Times,serif" font-size="14.00">xref(&lt;=8)</text>
<text text-anchor="middle" x="191.97" y="-416.53" font-family="Times,serif" font-size="14.00">ortho(&lt;=5)</text>
<text text-anchor="middle" x="191.97" y="-402.53" font-family="Times,serif" font-size="14.00">h_s_s(&lt;=5)</text>
</g>
<!-- ProtDomain(11) -->
<g id="node19" class="node">
<title>ProtDomain(11)</title>
<ellipse fill="none" stroke="black" cx="423.69" cy="-106.73" rx="68" ry="18"/>
<text text-anchor="middle" x="423.69" y="-102.53" font-family="Times,serif" font-size="14.00">ProtDomain(11)</text>
</g>
<!-- Protein(10)&#45;&gt;ProtDomain(11) -->
<g id="edge13" class="edge">
<title>Protein(10)&#45;&gt;ProtDomain(11)</title>
<path fill="none" stroke="blue" d="M194.84,-345.53C199.51,-308.87 214.76,-225.32 260.35,-174.73 285.77,-146.53 324.75,-129.68 358.14,-119.82"/>
<polygon fill="blue" stroke="blue" points="359.16,-123.16 367.85,-117.09 357.27,-116.42 359.16,-123.16"/>
<text text-anchor="middle" x="294.18" y="-177.53" font-family="Times,serif" font-size="14.00">has_domain</text>
</g>
<!-- EC(12) -->
<g id="node20" class="node">
<title>EC(12)</title>
<ellipse fill="none" stroke="black" cx="423.69" cy="-52.73" rx="36.28" ry="18"/>
<text text-anchor="middle" x="423.69" y="-48.53" font-family="Times,serif" font-size="14.00">EC(12)</text>
</g>
<!-- Protein(10)&#45;&gt;EC(12) -->
<g id="edge18" class="edge">
<title>Protein(10)&#45;&gt;EC(12)</title>
<path fill="none" stroke="black" d="M192.56,-345.67C192.52,-300.5 198.64,-181.32 260.35,-112.73 290.57,-79.14 341.3,-64.31 378.01,-57.79"/>
<polygon fill="black" stroke="black" points="378.67,-61.23 387.97,-56.16 377.54,-54.32 378.67,-61.23"/>
<text text-anchor="middle" x="294.18" y="-115.53" font-family="Times,serif" font-size="14.00">cat_c</text>
</g>
<!-- Enzyme(17) -->
<g id="node21" class="node">
<title>Enzyme(17)</title>
<ellipse fill="none" stroke="black" cx="423.69" cy="-646.73" rx="53.63" ry="18"/>
<text text-anchor="middle" x="423.69" y="-642.53" font-family="Times,serif" font-size="14.00">Enzyme(17)</text>
</g>
<!-- Protein(10)&#45;&gt;Enzyme(17) -->
<g id="edge23" class="edge">
<title>Protein(10)&#45;&gt;Enzyme(17)</title>
<path fill="none" stroke="blue" d="M192.21,-381.8C191.36,-426.89 195.74,-545.26 260.35,-607.73 268.16,-615.28 322.43,-627.35 366.11,-636.06"/>
<polygon fill="blue" stroke="blue" points="365.61,-639.53 376.1,-638.04 366.97,-632.66 365.61,-639.53"/>
<text text-anchor="middle" x="294.18" y="-630.53" font-family="Times,serif" font-size="14.00">is_a</text>
</g>
<!-- ProtDomain(11)&#45;&gt;MolFunc(3) -->
<g id="edge26" class="edge">
<title>ProtDomain(11)&#45;&gt;MolFunc(3)</title>
<path fill="none" stroke="black" d="M486.06,-99.54C497.14,-98.26 508.6,-96.94 519.37,-95.73 559.83,-91.17 605.09,-86.23 641.56,-82.28"/>
<polygon fill="black" stroke="black" points="642.03,-85.75 651.6,-81.2 641.28,-78.79 642.03,-85.75"/>
<text text-anchor="middle" x="571.47" y="-98.53" font-family="Times,serif" font-size="14.00">has_function</text>
</g>
<!-- ProtDomain(11)&#45;&gt;CelComp(5) -->
<g id="edge27" class="edge">
<title>ProtDomain(11)&#45;&gt;CelComp(5)</title>
<path fill="none" stroke="blue" d="M479.08,-117.26C487.63,-121.15 495.55,-126.46 501.37,-133.73 543.37,-186.12 477.88,-230.94 519.37,-283.73 549.93,-322.61 587.49,-288.91 623.57,-322.73 637.8,-336.06 627.74,-349 641.57,-362.73 645.76,-366.88 650.59,-370.53 655.73,-373.71"/>
<polygon fill="blue" stroke="blue" points="654.16,-376.84 664.6,-378.65 657.56,-370.73 654.16,-376.84"/>
<text text-anchor="middle" x="571.47" y="-325.53" font-family="Times,serif" font-size="14.00">located_in</text>
</g>
<!-- ProtDomain(11)&#45;&gt;BioProc(4) -->
<g id="edge25" class="edge">
<title>ProtDomain(11)&#45;&gt;BioProc(4)</title>
<path fill="none" stroke="blue" d="M487.89,-112.5C527.22,-116.78 578.7,-123.65 623.57,-133.73 635.34,-136.37 647.79,-139.87 659.52,-143.5"/>
<polygon fill="blue" stroke="blue" points="658.57,-146.87 669.16,-146.56 660.69,-140.2 658.57,-146.87"/>
<text text-anchor="middle" x="571.47" y="-136.53" font-family="Times,serif" font-size="14.00">participates_in</text>
</g>
<!-- EC(12)&#45;&gt;MolFunc(3) -->
<g id="edge28" class="edge">
<title>EC(12)&#45;&gt;MolFunc(3)</title>
<path fill="none" stroke="blue" d="M460.01,-51.86C499.87,-51.3 566.57,-51.57 623.57,-57.73 631.02,-58.53 638.78,-59.63 646.46,-60.89"/>
<polygon fill="blue" stroke="blue" points="646.05,-64.37 656.5,-62.62 647.24,-57.47 646.05,-64.37"/>
<text text-anchor="middle" x="571.47" y="-60.53" font-family="Times,serif" font-size="14.00">equ</text>
</g>
<!-- Enzyme(17)&#45;&gt;Reaction(188) -->
<g id="edge29" class="edge">
<title>Enzyme(17)&#45;&gt;Reaction(188)</title>
<path fill="none" stroke="blue" d="M477.7,-646.55C521.29,-646.39 583.71,-646.18 633.14,-646"/>
<polygon fill="blue" stroke="blue" points="633.17,-649.5 643.16,-645.97 633.15,-642.5 633.17,-649.5"/>
<text text-anchor="middle" x="571.47" y="-648.53" font-family="Times,serif" font-size="14.00">ca_by</text>
</g>
<!-- Reaction(18) -->
<g id="node22" class="node">
<title>Reaction(18)</title>
<ellipse fill="none" stroke="black" cx="712.87" cy="-703.73" rx="56.04" ry="18"/>
<text text-anchor="middle" x="712.87" y="-699.53" font-family="Times,serif" font-size="14.00">Reaction(18)</text>
</g>
<!-- Enzyme(17)&#45;&gt;Reaction(18) -->
<g id="edge30" class="edge">
<title>Enzyme(17)&#45;&gt;Reaction(18)</title>
<path fill="none" stroke="black" d="M470.51,-655.82C520.35,-665.72 600.11,-681.55 654.18,-692.28"/>
<polygon fill="black" stroke="black" points="653.81,-695.77 664.3,-694.29 655.17,-688.91 653.81,-695.77"/>
<text text-anchor="middle" x="571.47" y="-687.53" font-family="Times,serif" font-size="14.00">ca_by</text>
</g>
<!-- Reaction(18)&#45;&gt;Path(19) -->
<g id="edge31" class="edge">
<title>Reaction(18)&#45;&gt;Path(19)</title>
<path fill="none" stroke="black" d="M769.21,-703.73C808.51,-703.73 861.13,-703.73 900.79,-703.73"/>
<polygon fill="black" stroke="black" points="900.83,-707.23 910.83,-703.73 900.83,-700.23 900.83,-707.23"/>
<text text-anchor="middle" x="846.88" y="-706.53" font-family="Times,serif" font-size="14.00">part_of</text>
</g>
</g>
</svg>
