<svg width="1016pt" height="850pt"
 viewBox="0.00 0.00 1015.90 850.08" xmlns="http://www.w3.org/2000/svg" xmlns:xlink="http://www.w3.org/1999/xlink">
<g id="graph0" class="graph" transform="scale(1 1) rotate(0) translate(4 846.08)">
<title>%3</title>
<polygon fill="white" stroke="transparent" points="-4,4 -4,-846.08 1011.9,-846.08 1011.9,4 -4,4"/>
<!-- BioProc(4) -->
<g id="node1" class="node">
<title>BioProc(4)</title>
<polygon fill="none" stroke="darkgreen" points="766.32,-675.62 766.32,-690.53 735.01,-701.08 690.73,-701.08 659.42,-690.53 659.42,-675.62 690.73,-665.08 735.01,-665.08 766.32,-675.62"/>
<polygon fill="none" stroke="darkgreen" points="770.32,-672.75 770.32,-693.41 735.67,-705.08 690.07,-705.08 655.42,-693.41 655.42,-672.75 690.07,-661.08 735.67,-661.08 770.32,-672.75"/>
<text text-anchor="middle" x="712.87" y="-678.88" font-family="Times,serif" font-size="14.00">BioProc(4)</text>
</g>
<!-- CelComp(5) -->
<g id="node2" class="node">
<title>CelComp(5)</title>
<polygon fill="none" stroke="darkgreen" points="771.47,-531.62 771.47,-546.53 737.14,-557.08 688.59,-557.08 654.27,-546.53 654.27,-531.62 688.59,-521.08 737.14,-521.08 771.47,-531.62"/>
<polygon fill="none" stroke="darkgreen" points="775.46,-528.66 775.46,-549.49 737.74,-561.08 688,-561.08 650.28,-549.49 650.28,-528.66 688,-517.08 737.74,-517.08 775.46,-528.66"/>
<text text-anchor="middle" x="712.87" y="-534.88" font-family="Times,serif" font-size="14.00">CelComp(5)</text>
</g>
<!-- MolFunc(3) -->
<g id="node3" class="node">
<title>MolFunc(3)</title>
<polygon fill="none" stroke="darkgreen" points="770.26,-456.62 770.26,-471.53 736.64,-482.08 689.1,-482.08 655.48,-471.53 655.48,-456.62 689.1,-446.08 736.64,-446.08 770.26,-456.62"/>
<polygon fill="none" stroke="darkgreen" points="774.27,-453.69 774.27,-474.47 737.26,-486.08 688.48,-486.08 651.47,-474.47 651.47,-453.69 688.48,-442.08 737.26,-442.08 774.27,-453.69"/>
<text text-anchor="middle" x="712.87" y="-459.88" font-family="Times,serif" font-size="14.00">MolFunc(3)</text>
</g>
<!-- Enzyme(177) -->
<g id="node4" class="node">
<title>Enzyme(177)</title>
<polygon fill="none" stroke="darkgreen" points="486.76,-270.62 486.76,-285.53 449.81,-296.08 397.57,-296.08 360.62,-285.53 360.62,-270.62 397.57,-260.08 449.81,-260.08 486.76,-270.62"/>
<polygon fill="none" stroke="darkgreen" points="490.76,-267.6 490.76,-288.55 450.37,-300.08 397.01,-300.08 356.62,-288.55 356.62,-267.6 397.01,-256.08 450.37,-256.08 490.76,-267.6"/>
<text text-anchor="middle" x="423.69" y="-273.88" font-family="Times,serif" font-size="14.00">Enzyme(177)</text>
</g>
<!-- Phenotype(13) -->
<g id="node5" class="node">
<title>Phenotype(13)</title>
<polygon fill="none" stroke="darkgreen" points="779.98,-332.62 779.98,-347.53 740.67,-358.08 685.07,-358.08 645.76,-347.53 645.76,-332.62 685.07,-322.08 740.67,-322.08 779.98,-332.62"/>
<polygon fill="none" stroke="darkgreen" points="783.96,-329.55 783.96,-350.6 741.19,-362.08 684.55,-362.08 641.77,-350.6 641.77,-329.55 684.55,-318.08 741.19,-318.08 783.96,-329.55"/>
<text text-anchor="middle" x="712.87" y="-335.88" font-family="Times,serif" font-size="14.00">Phenotype(13)</text>
</g>
<!-- Path(19) -->
<g id="node6" class="node">
<title>Path(19)</title>
<polygon fill="none" stroke="darkgreen" points="1002.56,-743.62 1002.56,-758.53 976.89,-769.08 940.6,-769.08 914.93,-758.53 914.93,-743.62 940.6,-733.08 976.89,-733.08 1002.56,-743.62"/>
<polygon fill="none" stroke="darkgreen" points="1006.55,-740.94 1006.55,-761.22 977.68,-773.08 939.81,-773.08 910.94,-761.22 910.94,-740.94 939.81,-729.08 977.68,-729.08 1006.55,-740.94"/>
<text text-anchor="middle" x="958.74" y="-746.88" font-family="Times,serif" font-size="14.00">Path(19)</text>
</g>
<!-- Reaction(188) -->
<g id="node7" class="node">
<title>Reaction(188)</title>
<polygon fill="none" stroke="darkgreen" points="778.75,-801.62 778.75,-816.53 740.16,-827.08 685.58,-827.08 646.99,-816.53 646.99,-801.62 685.58,-791.08 740.16,-791.08 778.75,-801.62"/>
<polygon fill="none" stroke="darkgreen" points="782.76,-798.57 782.76,-819.58 740.7,-831.08 685.04,-831.08 642.98,-819.58 642.98,-798.57 685.04,-787.08 740.7,-787.08 782.76,-798.57"/>
<text text-anchor="middle" x="712.87" y="-804.88" font-family="Times,serif" font-size="14.00">Reaction(188)</text>
</g>
<!-- Gene(8) -->
<g id="node8" class="node">
<title>Gene(8)</title>
<polygon fill="none" stroke="darkgreen" points="754.98,-208.62 754.98,-223.53 730.31,-234.08 695.43,-234.08 670.76,-223.53 670.76,-208.62 695.43,-198.08 730.31,-198.08 754.98,-208.62"/>
<polygon fill="none" stroke="darkgreen" points="758.96,-205.98 758.96,-226.18 731.12,-238.08 694.61,-238.08 666.78,-226.18 666.78,-205.98 694.61,-194.08 731.12,-194.08 758.96,-205.98"/>
<text text-anchor="middle" x="712.87" y="-211.88" font-family="Times,serif" font-size="14.00">Gene(8)</text>
</g>
<!-- TO(16) -->
<g id="node9" class="node">
<title>TO(16)</title>
<polygon fill="none" stroke="darkgreen" points="752.33,-270.62 752.33,-285.53 729.21,-296.08 696.53,-296.08 673.41,-285.53 673.41,-270.62 696.53,-260.08 729.21,-260.08 752.33,-270.62"/>
<polygon fill="none" stroke="darkgreen" points="756.33,-268.05 756.33,-288.11 730.08,-300.08 695.66,-300.08 669.41,-288.11 669.41,-268.05 695.66,-256.08 730.08,-256.08 756.33,-268.05"/>
<text text-anchor="middle" x="712.87" y="-273.88" font-family="Times,serif" font-size="14.00">TO(16)</text>
</g>
<!-- Trait(21) -->
<g id="node10" class="node">
<title>Trait(21)</title>
<polygon fill="none" stroke="darkgreen" points="1004.05,-390.62 1004.05,-405.53 977.51,-416.08 939.98,-416.08 913.44,-405.53 913.44,-390.62 939.98,-380.08 977.51,-380.08 1004.05,-390.62"/>
<polygon fill="none" stroke="darkgreen" points="1008.06,-387.91 1008.06,-408.24 978.28,-420.08 939.21,-420.08 909.43,-408.24 909.43,-387.91 939.21,-376.08 978.28,-376.08 1008.06,-387.91"/>
<text text-anchor="middle" x="958.74" y="-393.88" font-family="Times,serif" font-size="14.00">Trait(21)</text>
</g>
<!-- Publication(2) -->
<g id="node11" class="node">
<title>Publication(2)</title>
<polygon fill="none" stroke="darkgreen" points="778.77,-146.62 778.77,-161.53 740.16,-172.08 685.57,-172.08 646.97,-161.53 646.97,-146.62 685.57,-136.08 740.16,-136.08 778.77,-146.62"/>
<polygon fill="none" stroke="darkgreen" points="782.78,-143.57 782.78,-164.58 740.7,-176.08 685.04,-176.08 642.96,-164.58 642.96,-143.57 685.04,-132.08 740.7,-132.08 782.78,-143.57"/>
<text text-anchor="middle" x="712.87" y="-149.88" font-family="Times,serif" font-size="14.00">Publication(2)</text>
</g>
<!-- Protein(7) -->
<g id="node12" class="node">
<title>Protein(7)</title>
<polygon fill="none" stroke="darkgreen" points="473.21,-23.62 473.21,-38.53 444.2,-49.08 403.18,-49.08 374.17,-38.53 374.17,-23.62 403.18,-13.08 444.2,-13.08 473.21,-23.62"/>
<polygon fill="none" stroke="darkgreen" points="477.19,-20.81 477.19,-41.34 444.9,-53.08 402.48,-53.08 370.19,-41.34 370.19,-20.81 402.48,-9.08 444.9,-9.08 477.19,-20.81"/>
<text text-anchor="middle" x="423.69" y="-26.88" font-family="Times,serif" font-size="14.00">Protein(7)</text>
</g>
<!-- Gene(1) -->
<g id="node13" class="node">
<title>Gene(1)</title>
<ellipse fill="none" stroke="red" cx="43.08" cy="-43.08" rx="39.15" ry="39.15"/>
<ellipse fill="none" stroke="red" cx="43.08" cy="-43.08" rx="43.15" ry="43.15"/>
<text text-anchor="middle" x="43.08" y="-38.88" font-family="Times,serif" font-size="14.00">Gene(1)</text>
</g>
<!-- Gene(1)&#45;&gt;Protein(7) -->
<g id="edge18" class="edge">
<title>Gene(1)&#45;&gt;Protein(7)</title>
<path fill="none" stroke="black" d="M86.41,-41.74C152.98,-39.63 282.53,-35.52 359.95,-33.07"/>
<polygon fill="black" stroke="black" points="360.17,-36.56 370.06,-32.75 359.95,-29.56 360.17,-36.56"/>
<text text-anchor="middle" x="191.97" y="-42.88" font-family="Times,serif" font-size="14.00">enc</text>
</g>
<!-- Protein(10) -->
<g id="node21" class="node">
<title>Protein(10)</title>
<ellipse fill="none" stroke="black" cx="191.97" cy="-411.08" rx="50.27" ry="18"/>
<text text-anchor="middle" x="191.97" y="-406.88" font-family="Times,serif" font-size="14.00">Protein(10)</text>
</g>
<!-- Gene(1)&#45;&gt;Protein(10) -->
<g id="edge17" class="edge">
<title>Gene(1)&#45;&gt;Protein(10)</title>
<path fill="none" stroke="blue" d="M59.94,-82.81C89.93,-157.96 154.28,-319.16 180.01,-383.62"/>
<polygon fill="blue" stroke="blue" points="176.84,-385.11 183.79,-393.1 183.34,-382.52 176.84,-385.11"/>
<text text-anchor="middle" x="113.87" y="-240.88" font-family="Times,serif" font-size="14.00">enc</text>
</g>
<!-- ProtDomain(14) -->
<g id="node14" class="node">
<title>ProtDomain(14)</title>
<polygon fill="none" stroke="darkgreen" points="497.55,-88.62 497.55,-103.53 454.28,-114.08 393.1,-114.08 349.84,-103.53 349.84,-88.62 393.1,-78.08 454.28,-78.08 497.55,-88.62"/>
<polygon fill="none" stroke="darkgreen" points="501.55,-85.48 501.55,-106.67 454.76,-118.08 392.62,-118.08 345.83,-106.67 345.83,-85.48 392.62,-74.08 454.76,-74.08 501.55,-85.48"/>
<text text-anchor="middle" x="423.69" y="-91.88" font-family="Times,serif" font-size="14.00">ProtDomain(14)</text>
</g>
<!-- EC(15) -->
<g id="node15" class="node">
<title>EC(15)</title>
<polygon fill="none" stroke="darkgreen" points="462.92,-812.62 462.92,-827.53 439.94,-838.08 407.44,-838.08 384.46,-827.53 384.46,-812.62 407.44,-802.08 439.94,-802.08 462.92,-812.62"/>
<polygon fill="none" stroke="darkgreen" points="466.93,-810.06 466.93,-830.1 440.82,-842.08 406.56,-842.08 380.45,-830.1 380.45,-810.06 406.56,-798.08 440.82,-798.08 466.93,-810.06"/>
<text text-anchor="middle" x="423.69" y="-815.88" font-family="Times,serif" font-size="14.00">EC(15)</text>
</g>
<!-- ProtDomain(11) -->
<g id="node16" class="node">
<title>ProtDomain(11)</title>
<ellipse fill="none" stroke="black" cx="423.69" cy="-618.08" rx="68" ry="18"/>
<text text-anchor="middle" x="423.69" y="-613.88" font-family="Times,serif" font-size="14.00">ProtDomain(11)</text>
</g>
<!-- ProtDomain(11)&#45;&gt;BioProc(4) -->
<g id="edge1" class="edge">
<title>ProtDomain(11)&#45;&gt;BioProc(4)</title>
<path fill="none" stroke="blue" d="M454.06,-634.31C472.32,-643.66 496.58,-654.77 519.37,-661.08 560.26,-672.4 607.6,-677.9 645.09,-680.58"/>
<polygon fill="blue" stroke="blue" points="645.18,-684.09 655.39,-681.26 645.64,-677.1 645.18,-684.09"/>
<text text-anchor="middle" x="571.47" y="-680.88" font-family="Times,serif" font-size="14.00">participates_in</text>
</g>
<!-- ProtDomain(11)&#45;&gt;CelComp(5) -->
<g id="edge2" class="edge">
<title>ProtDomain(11)&#45;&gt;CelComp(5)</title>
<path fill="none" stroke="black" d="M474.03,-630.28C515.49,-638.06 575.51,-643.45 623.57,-624.08 650.86,-613.08 674.42,-589.17 690.33,-569.5"/>
<polygon fill="black" stroke="black" points="693.27,-571.42 696.67,-561.38 687.75,-567.11 693.27,-571.42"/>
<text text-anchor="middle" x="571.47" y="-639.88" font-family="Times,serif" font-size="14.00">located_in</text>
</g>
<!-- ProtDomain(11)&#45;&gt;MolFunc(3) -->
<g id="edge3" class="edge">
<title>ProtDomain(11)&#45;&gt;MolFunc(3)</title>
<path fill="none" stroke="blue" d="M456.98,-602.38C475.22,-593.6 498.49,-582.55 519.37,-573.08 565.32,-552.25 582.6,-557.5 623.57,-528.08 633.29,-521.1 632.42,-515.77 641.57,-508.08 650.01,-500.99 659.69,-494.2 669.12,-488.17"/>
<polygon fill="blue" stroke="blue" points="671.01,-491.12 677.65,-482.86 667.31,-485.17 671.01,-491.12"/>
<text text-anchor="middle" x="571.47" y="-575.88" font-family="Times,serif" font-size="14.00">has_function</text>
</g>
<!-- Enzyme(17) -->
<g id="node17" class="node">
<title>Enzyme(17)</title>
<ellipse fill="none" stroke="black" cx="423.69" cy="-762.08" rx="53.63" ry="18"/>
<text text-anchor="middle" x="423.69" y="-757.88" font-family="Times,serif" font-size="14.00">Enzyme(17)</text>
</g>
<!-- Enzyme(17)&#45;&gt;Reaction(188) -->
<g id="edge5" class="edge">
<title>Enzyme(17)&#45;&gt;Reaction(188)</title>
<path fill="none" stroke="blue" d="M472.43,-769.89C516.54,-777.11 582.86,-787.96 634.53,-796.42"/>
<polygon fill="blue" stroke="blue" points="634.22,-799.92 644.65,-798.08 635.35,-793.01 634.22,-799.92"/>
<text text-anchor="middle" x="571.47" y="-795.88" font-family="Times,serif" font-size="14.00">ca_by</text>
</g>
<!-- Reaction(18) -->
<g id="node18" class="node">
<title>Reaction(18)</title>
<ellipse fill="none" stroke="black" cx="712.87" cy="-751.08" rx="56.04" ry="18"/>
<text text-anchor="middle" x="712.87" y="-746.88" font-family="Times,serif" font-size="14.00">Reaction(18)</text>
</g>
<!-- Enzyme(17)&#45;&gt;Reaction(18) -->
<g id="edge4" class="edge">
<title>Enzyme(17)&#45;&gt;Reaction(18)</title>
<path fill="none" stroke="black" d="M477.36,-760.06C524.93,-758.24 595.11,-755.55 646.3,-753.59"/>
<polygon fill="black" stroke="black" points="646.74,-757.07 656.59,-753.19 646.47,-750.08 646.74,-757.07"/>
<text text-anchor="middle" x="571.47" y="-760.88" font-family="Times,serif" font-size="14.00">ca_by</text>
</g>
<!-- Reaction(18)&#45;&gt;Path(19) -->
<g id="edge6" class="edge">
<title>Reaction(18)&#45;&gt;Path(19)</title>
<path fill="none" stroke="blue" d="M769.21,-751.08C808.51,-751.08 861.13,-751.08 900.79,-751.08"/>
<polygon fill="blue" stroke="blue" points="900.83,-754.58 910.83,-751.08 900.83,-747.58 900.83,-754.58"/>
<text text-anchor="middle" x="846.88" y="-753.88" font-family="Times,serif" font-size="14.00">part_of</text>
</g>
<!-- Gene(9) -->
<g id="node19" class="node">
<title>Gene(9)</title>
<ellipse fill="none" stroke="black" cx="423.69" cy="-336.08" rx="39.15" ry="18"/>
<text text-anchor="middle" x="423.69" y="-331.88" font-family="Times,serif" font-size="14.00">Gene(9)</text>
</g>
<!-- Gene(9)&#45;&gt;BioProc(4) -->
<g id="edge9" class="edge">
<title>Gene(9)&#45;&gt;BioProc(4)</title>
<path fill="none" stroke="black" d="M445.93,-351.03C464.02,-365.07 488.99,-387.79 501.37,-414.08 517.85,-449.04 493.11,-558.72 519.37,-587.08 551.36,-621.62 581.16,-585.65 623.57,-606.08 647.25,-617.48 669.52,-636.99 685.77,-653.51"/>
<polygon fill="black" stroke="black" points="683.36,-656.05 692.8,-660.86 688.41,-651.21 683.36,-656.05"/>
<text text-anchor="middle" x="571.47" y="-608.88" font-family="Times,serif" font-size="14.00">participates_in</text>
</g>
<!-- Gene(9)&#45;&gt;CelComp(5) -->
<g id="edge12" class="edge">
<title>Gene(9)&#45;&gt;CelComp(5)</title>
<path fill="none" stroke="blue" d="M445.08,-351.47C462.61,-365.79 487.25,-388.69 501.37,-414.08 517.83,-443.65 495.18,-464.4 519.37,-488.08 553.26,-521.25 577.77,-498.79 623.57,-511.08 634.16,-513.92 645.36,-517.23 656.11,-520.56"/>
<polygon fill="blue" stroke="blue" points="655.23,-523.95 665.82,-523.61 657.33,-517.27 655.23,-523.95"/>
<text text-anchor="middle" x="571.47" y="-513.88" font-family="Times,serif" font-size="14.00">located_in</text>
</g>
<!-- Gene(9)&#45;&gt;MolFunc(3) -->
<g id="edge10" class="edge">
<title>Gene(9)&#45;&gt;MolFunc(3)</title>
<path fill="none" stroke="blue" d="M446.74,-350.88C465.37,-362.77 493.14,-379.09 519.37,-389.08 563.69,-405.95 580.29,-392.68 623.57,-412.08 632.58,-416.11 633.24,-419.78 641.57,-425.08 649.88,-430.35 658.94,-435.68 667.71,-440.63"/>
<polygon fill="blue" stroke="blue" points="666.27,-443.83 676.71,-445.64 669.67,-437.72 666.27,-443.83"/>
<text text-anchor="middle" x="571.47" y="-414.88" font-family="Times,serif" font-size="14.00">has_function</text>
</g>
<!-- Gene(9)&#45;&gt;Phenotype(13) -->
<g id="edge7" class="edge">
<title>Gene(9)&#45;&gt;Phenotype(13)</title>
<path fill="none" stroke="black" d="M462.82,-336.32C502.86,-336.6 567.64,-337.16 623.57,-338.08 626.12,-338.12 628.71,-338.16 631.33,-338.21"/>
<polygon fill="black" stroke="black" points="631.44,-341.71 641.51,-338.4 631.57,-334.71 631.44,-341.71"/>
<text text-anchor="middle" x="571.47" y="-340.88" font-family="Times,serif" font-size="14.00">has_observ_pheno</text>
</g>
<!-- Gene(9)&#45;&gt;Gene(8) -->
<g id="edge8" class="edge">
<title>Gene(9)&#45;&gt;Gene(8)</title>
<path fill="none" stroke="blue" d="M460.91,-330.02C475,-326.08 490.37,-319.63 501.37,-309.08 516.92,-294.17 503.14,-278.24 519.37,-264.08 539.71,-246.34 607.28,-232.33 656.63,-224.13"/>
<polygon fill="blue" stroke="blue" points="657.24,-227.58 666.55,-222.52 656.12,-220.67 657.24,-227.58"/>
<text text-anchor="middle" x="571.47" y="-280.88" font-family="Times,serif" font-size="14.00">genetic(&lt;=8)</text>
<text text-anchor="middle" x="571.47" y="-266.88" font-family="Times,serif" font-size="14.00">physical(&lt;=8)</text>
</g>
<!-- Gene(9)&#45;&gt;TO(16) -->
<g id="edge13" class="edge">
<title>Gene(9)&#45;&gt;TO(16)</title>
<path fill="none" stroke="black" d="M459.9,-328.97C509.78,-318.89 601.36,-300.4 659.3,-288.69"/>
<polygon fill="black" stroke="black" points="660.25,-292.07 669.36,-286.66 658.87,-285.21 660.25,-292.07"/>
<text text-anchor="middle" x="571.47" y="-317.88" font-family="Times,serif" font-size="14.00">cooc_wi</text>
</g>
<!-- Gene(9)&#45;&gt;Publication(2) -->
<g id="edge15" class="edge">
<title>Gene(9)&#45;&gt;Publication(2)</title>
<path fill="none" stroke="black" d="M461.61,-331.15C475.98,-327.39 491.37,-320.77 501.37,-309.08 529.88,-275.76 490.11,-244.73 519.37,-212.08 535.52,-194.06 590.64,-178.55 637.78,-168.11"/>
<polygon fill="black" stroke="black" points="638.66,-171.5 647.7,-165.96 637.18,-164.66 638.66,-171.5"/>
<text text-anchor="middle" x="571.47" y="-214.88" font-family="Times,serif" font-size="14.00">pub_in</text>
</g>
<!-- Gene(9)&#45;&gt;Gene(9) -->
<g id="edge11" class="edge">
<title>Gene(9)&#45;&gt;Gene(9)</title>
<path fill="none" stroke="black" d="M402.03,-351.24C395.47,-361.74 402.69,-372.08 423.69,-372.08 437.8,-372.08 445.69,-367.41 447.36,-361.17"/>
<polygon fill="black" stroke="black" points="450.76,-360.35 445.35,-351.24 443.9,-361.74 450.76,-360.35"/>
<text text-anchor="middle" x="423.69" y="-388.88" font-family="Times,serif" font-size="14.00">genetic(&lt;=8)</text>
<text text-anchor="middle" x="423.69" y="-374.88" font-family="Times,serif" font-size="14.00">physical(&lt;=8)</text>
</g>
<!-- SNP(20) -->
<g id="node20" class="node">
<title>SNP(20)</title>
<ellipse fill="none" stroke="black" cx="712.87" cy="-398.08" rx="41.13" ry="18"/>
<text text-anchor="middle" x="712.87" y="-393.88" font-family="Times,serif" font-size="14.00">SNP(20)</text>
</g>
<!-- Gene(9)&#45;&gt;SNP(20) -->
<g id="edge14" class="edge">
<title>Gene(9)&#45;&gt;SNP(20)</title>
<path fill="none" stroke="blue" d="M460.4,-342.4C500.31,-349.62 566.8,-362.13 623.57,-375.08 637.99,-378.36 653.63,-382.31 667.69,-386"/>
<polygon fill="blue" stroke="blue" points="667.04,-389.45 677.6,-388.63 668.84,-382.69 667.04,-389.45"/>
<text text-anchor="middle" x="571.47" y="-377.88" font-family="Times,serif" font-size="14.00">has_variation</text>
</g>
<!-- SNP(20)&#45;&gt;Trait(21) -->
<g id="edge16" class="edge">
<title>SNP(20)&#45;&gt;Trait(21)</title>
<path fill="none" stroke="black" d="M754.14,-398.08C793.68,-398.08 854.41,-398.08 899.26,-398.08"/>
<polygon fill="black" stroke="black" points="899.44,-401.58 909.44,-398.08 899.44,-394.58 899.44,-401.58"/>
<text text-anchor="middle" x="846.88" y="-400.88" font-family="Times,serif" font-size="14.00">associated_with</text>
</g>
<!-- Protein(10)&#45;&gt;BioProc(4) -->
<g id="edge32" class="edge">
<title>Protein(10)&#45;&gt;BioProc(4)</title>
<path fill="none" stroke="blue" d="M194.09,-429.12C197.42,-467.58 210.43,-558.44 260.35,-611.08 359.77,-715.9 546.04,-708.07 645.42,-694.78"/>
<polygon fill="blue" stroke="blue" points="645.92,-698.25 655.34,-693.4 644.96,-691.31 645.92,-698.25"/>
<text text-anchor="middle" x="423.69" y="-703.88" font-family="Times,serif" font-size="14.00">participates_in</text>
</g>
<!-- Protein(10)&#45;&gt;CelComp(5) -->
<g id="edge23" class="edge">
<title>Protein(10)&#45;&gt;CelComp(5)</title>
<path fill="none" stroke="black" d="M204.27,-428.7C216.22,-445.97 236.6,-471.85 260.35,-487.08 321.55,-526.31 528.54,-536 639.77,-538.36"/>
<polygon fill="black" stroke="black" points="639.83,-541.86 649.89,-538.56 639.97,-534.86 639.83,-541.86"/>
<text text-anchor="middle" x="423.69" y="-534.88" font-family="Times,serif" font-size="14.00">located_in</text>
</g>
<!-- Protein(10)&#45;&gt;MolFunc(3) -->
<g id="edge27" class="edge">
<title>Protein(10)&#45;&gt;MolFunc(3)</title>
<path fill="none" stroke="black" d="M240.85,-415.97C332.73,-425.35 534.12,-445.92 641.38,-456.88"/>
<polygon fill="black" stroke="black" points="641.15,-460.37 651.46,-457.91 641.86,-453.41 641.15,-460.37"/>
<text text-anchor="middle" x="423.69" y="-443.88" font-family="Times,serif" font-size="14.00">has_function</text>
</g>
<!-- Protein(10)&#45;&gt;Enzyme(177) -->
<g id="edge26" class="edge">
<title>Protein(10)&#45;&gt;Enzyme(177)</title>
<path fill="none" stroke="blue" d="M209.36,-394.16C222.39,-381.31 241.5,-363.75 260.35,-351.08 293.39,-328.88 334.27,-310.54 366.74,-297.8"/>
<polygon fill="blue" stroke="blue" points="368.03,-301.05 376.1,-294.19 365.51,-294.52 368.03,-301.05"/>
<text text-anchor="middle" x="294.18" y="-353.88" font-family="Times,serif" font-size="14.00">is_a</text>
</g>
<!-- Protein(10)&#45;&gt;Gene(8) -->
<g id="edge25" class="edge">
<title>Protein(10)&#45;&gt;Gene(8)</title>
<path fill="none" stroke="black" d="M202.12,-393.29C222.34,-356.1 274.72,-270.44 346.01,-233.08 456.4,-175.22 499.95,-177.24 623.57,-193.08 636.34,-194.71 649.9,-197.63 662.47,-200.85"/>
<polygon fill="black" stroke="black" points="661.73,-204.27 672.29,-203.47 663.54,-197.51 661.73,-204.27"/>
<text text-anchor="middle" x="423.69" y="-235.88" font-family="Times,serif" font-size="14.00">enc</text>
</g>
<!-- Protein(10)&#45;&gt;Publication(2) -->
<g id="edge29" class="edge">
<title>Protein(10)&#45;&gt;Publication(2)</title>
<path fill="none" stroke="black" d="M196.64,-393.1C208.03,-343.05 248.05,-203.22 346.01,-165.08 440.23,-128.39 558.65,-133.06 634.8,-141.85"/>
<polygon fill="black" stroke="black" points="634.45,-145.33 644.8,-143.05 635.29,-138.38 634.45,-145.33"/>
<text text-anchor="middle" x="423.69" y="-167.88" font-family="Times,serif" font-size="14.00">pub_in</text>
</g>
<!-- Protein(10)&#45;&gt;Protein(7) -->
<g id="edge21" class="edge">
<title>Protein(10)&#45;&gt;Protein(7)</title>
<path fill="none" stroke="black" d="M193.82,-392.87C197.27,-327.7 212.33,-107.48 260.35,-60.08 274.41,-46.2 320.48,-38.86 359.97,-35.04"/>
<polygon fill="black" stroke="black" points="360.46,-38.51 370.1,-34.12 359.83,-31.53 360.46,-38.51"/>
<text text-anchor="middle" x="294.18" y="-90.88" font-family="Times,serif" font-size="14.00">h_s_s(&lt;=5)</text>
<text text-anchor="middle" x="294.18" y="-76.88" font-family="Times,serif" font-size="14.00">xref(&lt;=8)</text>
<text text-anchor="middle" x="294.18" y="-62.88" font-family="Times,serif" font-size="14.00">ortho(&lt;=5)</text>
</g>
<!-- Protein(10)&#45;&gt;ProtDomain(14) -->
<g id="edge19" class="edge">
<title>Protein(10)&#45;&gt;ProtDomain(14)</title>
<path fill="none" stroke="black" d="M194.71,-392.82C200.53,-335.92 221.13,-163.41 260.35,-126.08 271.78,-115.2 303.41,-108.13 335.75,-103.6"/>
<polygon fill="black" stroke="black" points="336.33,-107.06 345.79,-102.28 335.42,-100.12 336.33,-107.06"/>
<text text-anchor="middle" x="294.18" y="-128.88" font-family="Times,serif" font-size="14.00">has_domain</text>
</g>
<!-- Protein(10)&#45;&gt;EC(15) -->
<g id="edge28" class="edge">
<title>Protein(10)&#45;&gt;EC(15)</title>
<path fill="none" stroke="blue" d="M193.84,-429.4C197.36,-496.06 212.77,-724.41 260.35,-776.08 288.08,-806.18 334.11,-816.51 370.09,-819.69"/>
<polygon fill="blue" stroke="blue" points="370.2,-823.21 380.42,-820.44 370.7,-816.23 370.2,-823.21"/>
<text text-anchor="middle" x="294.18" y="-814.88" font-family="Times,serif" font-size="14.00">cat_c</text>
</g>
<!-- Protein(10)&#45;&gt;ProtDomain(11) -->
<g id="edge30" class="edge">
<title>Protein(10)&#45;&gt;ProtDomain(11)</title>
<path fill="none" stroke="blue" d="M196.85,-428.99C204.21,-458.86 222.91,-518.98 260.35,-554.08 287.5,-579.52 325.95,-595.28 358.62,-604.79"/>
<polygon fill="blue" stroke="blue" points="357.98,-608.24 368.56,-607.54 359.86,-601.5 357.98,-608.24"/>
<text text-anchor="middle" x="294.18" y="-595.88" font-family="Times,serif" font-size="14.00">has_domain</text>
</g>
<!-- Protein(10)&#45;&gt;Enzyme(17) -->
<g id="edge24" class="edge">
<title>Protein(10)&#45;&gt;Enzyme(17)</title>
<path fill="none" stroke="blue" d="M194.34,-429.44C199.26,-490.23 218,-683.41 260.35,-726.08 286.06,-751.98 325.97,-761.08 359.78,-763.65"/>
<polygon fill="blue" stroke="blue" points="359.87,-767.16 370.06,-764.25 360.28,-760.18 359.87,-767.16"/>
<text text-anchor="middle" x="294.18" y="-760.88" font-family="Times,serif" font-size="14.00">is_a</text>
</g>
<!-- Protein(10)&#45;&gt;Gene(9) -->
<g id="edge31" class="edge">
<title>Protein(10)&#45;&gt;Gene(9)</title>
<path fill="none" stroke="black" d="M229.62,-399.11C271.11,-385.57 338.51,-363.56 381.7,-349.46"/>
<polygon fill="black" stroke="black" points="382.91,-352.75 391.33,-346.31 380.74,-346.09 382.91,-352.75"/>
<text text-anchor="middle" x="294.18" y="-390.88" font-family="Times,serif" font-size="14.00">enc</text>
</g>
<!-- Protein(10)&#45;&gt;Protein(10) -->
<g id="edge20" class="edge">
<title>Protein(10)&#45;&gt;Protein(10)</title>
<path fill="none" stroke="blue" d="M178.04,-428.49C175.44,-438.16 180.08,-447.08 191.97,-447.08 199.39,-447.08 203.99,-443.6 205.76,-438.62"/>
<polygon fill="blue" stroke="blue" points="209.26,-438.53 205.89,-428.49 202.26,-438.44 209.26,-438.53"/>
<text text-anchor="middle" x="191.97" y="-477.88" font-family="Times,serif" font-size="14.00">xref(&lt;=8)</text>
<text text-anchor="middle" x="191.97" y="-463.88" font-family="Times,serif" font-size="14.00">h_s_s(&lt;=5)</text>
<text text-anchor="middle" x="191.97" y="-449.88" font-family="Times,serif" font-size="14.00">ortho(&lt;=5)</text>
</g>
<!-- EC(12) -->
<g id="node22" class="node">
<title>EC(12)</title>
<ellipse fill="none" stroke="black" cx="423.69" cy="-486.08" rx="36.28" ry="18"/>
<text text-anchor="middle" x="423.69" y="-481.88" font-family="Times,serif" font-size="14.00">EC(12)</text>
</g>
<!-- Protein(10)&#45;&gt;EC(12) -->
<g id="edge22" class="edge">
<title>Protein(10)&#45;&gt;EC(12)</title>
<path fill="none" stroke="blue" d="M216.4,-427.03C228.96,-434.95 244.99,-444.09 260.35,-450.08 298.99,-465.13 345.38,-474.62 378.66,-480.06"/>
<polygon fill="blue" stroke="blue" points="378.11,-483.52 388.54,-481.62 379.21,-476.6 378.11,-483.52"/>
<text text-anchor="middle" x="294.18" y="-471.88" font-family="Times,serif" font-size="14.00">cat_c</text>
</g>
<!-- EC(12)&#45;&gt;MolFunc(3) -->
<g id="edge33" class="edge">
<title>EC(12)&#45;&gt;MolFunc(3)</title>
<path fill="none" stroke="black" d="M458.81,-481.13C476.79,-478.68 499.24,-475.87 519.37,-474.08 559.74,-470.48 605,-468.04 641.48,-466.48"/>
<polygon fill="black" stroke="black" points="641.68,-469.97 651.53,-466.06 641.39,-462.98 641.68,-469.97"/>
<text text-anchor="middle" x="571.47" y="-476.88" font-family="Times,serif" font-size="14.00">equ</text>
</g>
</g>
</svg>
