<svg width="1039pt" height="817pt"
 viewBox="0.00 0.00 1038.67 816.89" xmlns="http://www.w3.org/2000/svg" xmlns:xlink="http://www.w3.org/1999/xlink">
<g id="graph0" class="graph" transform="scale(1 1) rotate(0) translate(4 812.89)">
<title>%3</title>
<polygon fill="white" stroke="transparent" points="-4,4 -4,-812.89 1034.67,-812.89 1034.67,4 -4,4"/>
<!-- Path(19) -->
<g id="node1" class="node">
<title>Path(19)</title>
<polygon fill="none" stroke="darkgreen" points="1025.33,-604.44 1025.33,-619.35 999.66,-629.89 963.37,-629.89 937.7,-619.35 937.7,-604.44 963.37,-593.89 999.66,-593.89 1025.33,-604.44"/>
<polygon fill="none" stroke="darkgreen" points="1029.32,-601.75 1029.32,-622.03 1000.45,-633.89 962.58,-633.89 933.71,-622.03 933.71,-601.75 962.58,-589.89 1000.45,-589.89 1029.32,-601.75"/>
<text text-anchor="middle" x="981.52" y="-607.69" font-family="Times,serif" font-size="14.00">Path(19)</text>
</g>
<!-- Reaction(188) -->
<g id="node2" class="node">
<title>Reaction(188)</title>
<polygon fill="none" stroke="darkgreen" points="801.52,-724.44 801.52,-739.35 762.93,-749.89 708.35,-749.89 669.76,-739.35 669.76,-724.44 708.35,-713.89 762.93,-713.89 801.52,-724.44"/>
<polygon fill="none" stroke="darkgreen" points="805.53,-721.38 805.53,-742.4 763.47,-753.89 707.81,-753.89 665.75,-742.4 665.75,-721.38 707.81,-709.89 763.47,-709.89 805.53,-721.38"/>
<text text-anchor="middle" x="735.64" y="-727.69" font-family="Times,serif" font-size="14.00">Reaction(188)</text>
</g>
<!-- Protein(7) -->
<g id="node3" class="node">
<title>Protein(7)</title>
<polygon fill="none" stroke="darkgreen" points="495.98,-779.44 495.98,-794.35 466.97,-804.89 425.95,-804.89 396.94,-794.35 396.94,-779.44 425.95,-768.89 466.97,-768.89 495.98,-779.44"/>
<polygon fill="none" stroke="darkgreen" points="499.97,-776.63 499.97,-797.15 467.67,-808.89 425.25,-808.89 392.96,-797.15 392.96,-776.63 425.25,-764.89 467.67,-764.89 499.97,-776.63"/>
<text text-anchor="middle" x="446.46" y="-782.69" font-family="Times,serif" font-size="14.00">Protein(7)</text>
</g>
<!-- CelComp(5) -->
<g id="node4" class="node">
<title>CelComp(5)</title>
<polygon fill="none" stroke="darkgreen" points="794.24,-120.44 794.24,-135.35 759.91,-145.89 711.37,-145.89 677.04,-135.35 677.04,-120.44 711.37,-109.89 759.91,-109.89 794.24,-120.44"/>
<polygon fill="none" stroke="darkgreen" points="798.23,-117.48 798.23,-138.31 760.51,-149.89 710.77,-149.89 673.05,-138.31 673.05,-117.48 710.77,-105.89 760.51,-105.89 798.23,-117.48"/>
<text text-anchor="middle" x="735.64" y="-123.69" font-family="Times,serif" font-size="14.00">CelComp(5)</text>
</g>
<!-- Publication(2) -->
<g id="node5" class="node">
<title>Publication(2)</title>
<polygon fill="none" stroke="darkgreen" points="801.54,-662.44 801.54,-677.35 762.93,-687.89 708.35,-687.89 669.74,-677.35 669.74,-662.44 708.35,-651.89 762.93,-651.89 801.54,-662.44"/>
<polygon fill="none" stroke="darkgreen" points="805.55,-659.38 805.55,-680.4 763.47,-691.89 707.81,-691.89 665.73,-680.4 665.73,-659.38 707.81,-647.89 763.47,-647.89 805.55,-659.38"/>
<text text-anchor="middle" x="735.64" y="-665.69" font-family="Times,serif" font-size="14.00">Publication(2)</text>
</g>
<!-- Phenotype(13) -->
<g id="node6" class="node">
<title>Phenotype(13)</title>
<polygon fill="none" stroke="darkgreen" points="802.75,-368.44 802.75,-383.35 763.44,-393.89 707.84,-393.89 668.53,-383.35 668.53,-368.44 707.84,-357.89 763.44,-357.89 802.75,-368.44"/>
<polygon fill="none" stroke="darkgreen" points="806.74,-365.37 806.74,-386.42 763.96,-397.89 707.32,-397.89 664.55,-386.42 664.55,-365.37 707.32,-353.89 763.96,-353.89 806.74,-365.37"/>
<text text-anchor="middle" x="735.64" y="-371.69" font-family="Times,serif" font-size="14.00">Phenotype(13)</text>
</g>
<!-- BioProc(4) -->
<g id="node7" class="node">
<title>BioProc(4)</title>
<polygon fill="none" stroke="darkgreen" points="789.09,-47.44 789.09,-62.35 757.78,-72.89 713.5,-72.89 682.19,-62.35 682.19,-47.44 713.5,-36.89 757.78,-36.89 789.09,-47.44"/>
<polygon fill="none" stroke="darkgreen" points="793.09,-44.56 793.09,-65.22 758.44,-76.89 712.84,-76.89 678.19,-65.22 678.19,-44.56 712.84,-32.89 758.44,-32.89 793.09,-44.56"/>
<text text-anchor="middle" x="735.64" y="-50.69" font-family="Times,serif" font-size="14.00">BioProc(4)</text>
</g>
<!-- MolFunc(3) -->
<g id="node8" class="node">
<title>MolFunc(3)</title>
<polygon fill="none" stroke="darkgreen" points="793.03,-289.44 793.03,-304.35 759.41,-314.89 711.87,-314.89 678.25,-304.35 678.25,-289.44 711.87,-278.89 759.41,-278.89 793.03,-289.44"/>
<polygon fill="none" stroke="darkgreen" points="797.04,-286.5 797.04,-307.28 760.03,-318.89 711.25,-318.89 674.24,-307.28 674.24,-286.5 711.25,-274.89 760.03,-274.89 797.04,-286.5"/>
<text text-anchor="middle" x="735.64" y="-292.69" font-family="Times,serif" font-size="14.00">MolFunc(3)</text>
</g>
<!-- Trait(21) -->
<g id="node9" class="node">
<title>Trait(21)</title>
<polygon fill="none" stroke="darkgreen" points="1026.82,-426.44 1026.82,-441.35 1000.28,-451.89 962.75,-451.89 936.21,-441.35 936.21,-426.44 962.75,-415.89 1000.28,-415.89 1026.82,-426.44"/>
<polygon fill="none" stroke="darkgreen" points="1030.83,-423.72 1030.83,-444.06 1001.05,-455.89 961.98,-455.89 932.2,-444.06 932.2,-423.72 961.98,-411.89 1001.05,-411.89 1030.83,-423.72"/>
<text text-anchor="middle" x="981.52" y="-429.69" font-family="Times,serif" font-size="14.00">Trait(21)</text>
</g>
<!-- Gene(8) -->
<g id="node10" class="node">
<title>Gene(8)</title>
<polygon fill="none" stroke="darkgreen" points="777.75,-546.44 777.75,-561.35 753.08,-571.89 718.2,-571.89 693.53,-561.35 693.53,-546.44 718.2,-535.89 753.08,-535.89 777.75,-546.44"/>
<polygon fill="none" stroke="darkgreen" points="781.73,-543.79 781.73,-563.99 753.9,-575.89 717.38,-575.89 689.55,-563.99 689.55,-543.79 717.38,-531.89 753.9,-531.89 781.73,-543.79"/>
<text text-anchor="middle" x="735.64" y="-549.69" font-family="Times,serif" font-size="14.00">Gene(8)</text>
</g>
<!-- TO(16) -->
<g id="node11" class="node">
<title>TO(16)</title>
<polygon fill="none" stroke="darkgreen" points="775.1,-484.44 775.1,-499.35 751.98,-509.89 719.3,-509.89 696.18,-499.35 696.18,-484.44 719.3,-473.89 751.98,-473.89 775.1,-484.44"/>
<polygon fill="none" stroke="darkgreen" points="779.1,-481.86 779.1,-501.92 752.85,-513.89 718.43,-513.89 692.18,-501.92 692.18,-481.86 718.43,-469.89 752.85,-469.89 779.1,-481.86"/>
<text text-anchor="middle" x="735.64" y="-487.69" font-family="Times,serif" font-size="14.00">TO(16)</text>
</g>
<!-- Gene(1) -->
<g id="node12" class="node">
<title>Gene(1)</title>
<ellipse fill="none" stroke="red" cx="43.08" cy="-609.89" rx="39.15" ry="39.15"/>
<ellipse fill="none" stroke="red" cx="43.08" cy="-609.89" rx="43.15" ry="43.15"/>
<text text-anchor="middle" x="43.08" y="-605.69" font-family="Times,serif" font-size="14.00">Gene(1)</text>
</g>
<!-- Gene(1)&#45;&gt;Protein(7) -->
<g id="edge14" class="edge">
<title>Gene(1)&#45;&gt;Protein(7)</title>
<path fill="none" stroke="black" d="M69.9,-644.13C106.46,-689.43 178.1,-767.14 260.35,-797.89 301.88,-813.42 352.28,-809.06 390.01,-801.71"/>
<polygon fill="black" stroke="black" points="390.72,-805.14 399.8,-799.69 389.3,-798.29 390.72,-805.14"/>
<text text-anchor="middle" x="191.97" y="-791.69" font-family="Times,serif" font-size="14.00">enc</text>
</g>
<!-- Protein(10) -->
<g id="node20" class="node">
<title>Protein(10)</title>
<ellipse fill="none" stroke="black" cx="191.97" cy="-407.89" rx="50.27" ry="18"/>
<text text-anchor="middle" x="191.97" y="-403.69" font-family="Times,serif" font-size="14.00">Protein(10)</text>
</g>
<!-- Gene(1)&#45;&gt;Protein(10) -->
<g id="edge15" class="edge">
<title>Gene(1)&#45;&gt;Protein(10)</title>
<path fill="none" stroke="blue" d="M69.33,-575.17C98.52,-535.03 145.89,-469.88 172.07,-433.88"/>
<polygon fill="blue" stroke="blue" points="175.2,-435.53 178.25,-425.39 169.53,-431.42 175.2,-435.53"/>
<text text-anchor="middle" x="113.87" y="-529.69" font-family="Times,serif" font-size="14.00">enc</text>
</g>
<!-- ProtDomain(14) -->
<g id="node13" class="node">
<title>ProtDomain(14)</title>
<polygon fill="none" stroke="darkgreen" points="520.32,-302.44 520.32,-317.35 477.05,-327.89 415.87,-327.89 372.61,-317.35 372.61,-302.44 415.87,-291.89 477.05,-291.89 520.32,-302.44"/>
<polygon fill="none" stroke="darkgreen" points="524.32,-299.3 524.32,-320.49 477.54,-331.89 415.39,-331.89 368.6,-320.49 368.6,-299.3 415.39,-287.89 477.54,-287.89 524.32,-299.3"/>
<text text-anchor="middle" x="446.46" y="-305.69" font-family="Times,serif" font-size="14.00">ProtDomain(14)</text>
</g>
<!-- EC(15) -->
<g id="node14" class="node">
<title>EC(15)</title>
<polygon fill="none" stroke="darkgreen" points="485.69,-240.44 485.69,-255.35 462.71,-265.89 430.21,-265.89 407.24,-255.35 407.24,-240.44 430.21,-229.89 462.71,-229.89 485.69,-240.44"/>
<polygon fill="none" stroke="darkgreen" points="489.7,-237.87 489.7,-257.91 463.59,-269.89 429.33,-269.89 403.22,-257.91 403.22,-237.87 429.33,-225.89 463.59,-225.89 489.7,-237.87"/>
<text text-anchor="middle" x="446.46" y="-243.69" font-family="Times,serif" font-size="14.00">EC(15)</text>
</g>
<!-- Enzyme(177) -->
<g id="node15" class="node">
<title>Enzyme(177)</title>
<polygon fill="none" stroke="darkgreen" points="509.53,-178.44 509.53,-193.35 472.58,-203.89 420.34,-203.89 383.39,-193.35 383.39,-178.44 420.34,-167.89 472.58,-167.89 509.53,-178.44"/>
<polygon fill="none" stroke="darkgreen" points="513.53,-175.42 513.53,-196.37 473.14,-207.89 419.78,-207.89 379.39,-196.37 379.39,-175.42 419.78,-163.89 473.14,-163.89 513.53,-175.42"/>
<text text-anchor="middle" x="446.46" y="-181.69" font-family="Times,serif" font-size="14.00">Enzyme(177)</text>
</g>
<!-- Enzyme(17) -->
<g id="node16" class="node">
<title>Enzyme(17)</title>
<ellipse fill="none" stroke="black" cx="446.46" cy="-621.89" rx="53.63" ry="18"/>
<text text-anchor="middle" x="446.46" y="-617.69" font-family="Times,serif" font-size="14.00">Enzyme(17)</text>
</g>
<!-- Enzyme(17)&#45;&gt;Reaction(188) -->
<g id="edge2" class="edge">
<title>Enzyme(17)&#45;&gt;Reaction(188)</title>
<path fill="none" stroke="black" d="M482.67,-635.38C532.05,-654.29 622.29,-688.86 680.31,-711.08"/>
<polygon fill="black" stroke="black" points="679.1,-714.37 689.69,-714.67 681.6,-707.83 679.1,-714.37"/>
<text text-anchor="middle" x="594.24" y="-698.69" font-family="Times,serif" font-size="14.00">ca_by</text>
</g>
<!-- Reaction(18) -->
<g id="node17" class="node">
<title>Reaction(18)</title>
<ellipse fill="none" stroke="black" cx="735.64" cy="-611.89" rx="56.04" ry="18"/>
<text text-anchor="middle" x="735.64" y="-607.69" font-family="Times,serif" font-size="14.00">Reaction(18)</text>
</g>
<!-- Enzyme(17)&#45;&gt;Reaction(18) -->
<g id="edge1" class="edge">
<title>Enzyme(17)&#45;&gt;Reaction(18)</title>
<path fill="none" stroke="blue" d="M493.02,-612.61C508.53,-609.87 526.03,-607.24 542.14,-605.89 588.29,-602.02 600.06,-604.32 646.34,-605.89 654.12,-606.16 662.27,-606.55 670.35,-607.01"/>
<polygon fill="blue" stroke="blue" points="670.31,-610.52 680.5,-607.63 670.73,-603.53 670.31,-610.52"/>
<text text-anchor="middle" x="594.24" y="-608.69" font-family="Times,serif" font-size="14.00">ca_by</text>
</g>
<!-- Reaction(18)&#45;&gt;Path(19) -->
<g id="edge3" class="edge">
<title>Reaction(18)&#45;&gt;Path(19)</title>
<path fill="none" stroke="black" d="M791.98,-611.89C831.28,-611.89 883.9,-611.89 923.56,-611.89"/>
<polygon fill="black" stroke="black" points="923.6,-615.39 933.6,-611.89 923.6,-608.39 923.6,-615.39"/>
<text text-anchor="middle" x="869.65" y="-614.69" font-family="Times,serif" font-size="14.00">part_of</text>
</g>
<!-- Gene(9) -->
<g id="node18" class="node">
<title>Gene(9)</title>
<ellipse fill="none" stroke="black" cx="446.46" cy="-471.89" rx="39.15" ry="18"/>
<text text-anchor="middle" x="446.46" y="-467.69" font-family="Times,serif" font-size="14.00">Gene(9)</text>
</g>
<!-- Gene(9)&#45;&gt;CelComp(5) -->
<g id="edge12" class="edge">
<title>Gene(9)&#45;&gt;CelComp(5)</title>
<path fill="none" stroke="blue" d="M482.94,-464.98C497.78,-460.31 513.92,-452.59 524.14,-439.89 552.18,-405.05 513.61,-375.32 542.14,-340.89 573.8,-302.7 609.47,-334.07 646.34,-300.89 646.71,-300.56 693.39,-208.91 718.72,-159.16"/>
<polygon fill="blue" stroke="blue" points="721.92,-160.6 723.34,-150.1 715.68,-157.43 721.92,-160.6"/>
<text text-anchor="middle" x="594.24" y="-343.69" font-family="Times,serif" font-size="14.00">located_in</text>
</g>
<!-- Gene(9)&#45;&gt;Publication(2) -->
<g id="edge10" class="edge">
<title>Gene(9)&#45;&gt;Publication(2)</title>
<path fill="none" stroke="blue" d="M467.77,-487.33C485.25,-501.68 509.85,-524.6 524.14,-549.89 539.94,-577.86 518.94,-597.68 542.14,-619.89 576.33,-652.62 600.57,-629.83 646.34,-641.89 656.14,-644.47 666.46,-647.48 676.46,-650.55"/>
<polygon fill="blue" stroke="blue" points="675.73,-653.98 686.31,-653.62 677.81,-647.3 675.73,-653.98"/>
<text text-anchor="middle" x="594.24" y="-644.69" font-family="Times,serif" font-size="14.00">pub_in</text>
</g>
<!-- Gene(9)&#45;&gt;Phenotype(13) -->
<g id="edge4" class="edge">
<title>Gene(9)&#45;&gt;Phenotype(13)</title>
<path fill="none" stroke="blue" d="M477.57,-460.88C491.97,-455.23 509.26,-447.86 524.14,-439.89 532.62,-435.35 533.39,-431.86 542.14,-427.89 564.32,-417.83 620.25,-403.13 666.14,-391.92"/>
<polygon fill="blue" stroke="blue" points="667.17,-395.27 676.07,-389.51 665.52,-388.47 667.17,-395.27"/>
<text text-anchor="middle" x="594.24" y="-430.69" font-family="Times,serif" font-size="14.00">has_observ_pheno</text>
</g>
<!-- Gene(9)&#45;&gt;BioProc(4) -->
<g id="edge6" class="edge">
<title>Gene(9)&#45;&gt;BioProc(4)</title>
<path fill="none" stroke="blue" d="M483.23,-465.62C498.31,-461.07 514.56,-453.26 524.14,-439.89 558.39,-392.09 505.2,-221.64 542.14,-175.89 572.42,-138.4 611.07,-178.73 646.34,-145.89 663.33,-130.09 649.54,-114.75 664.34,-96.89 670.81,-89.09 679.12,-82.38 687.75,-76.76"/>
<polygon fill="blue" stroke="blue" points="689.69,-79.67 696.43,-71.5 686.06,-73.69 689.69,-79.67"/>
<text text-anchor="middle" x="594.24" y="-178.69" font-family="Times,serif" font-size="14.00">participates_in</text>
</g>
<!-- Gene(9)&#45;&gt;MolFunc(3) -->
<g id="edge7" class="edge">
<title>Gene(9)&#45;&gt;MolFunc(3)</title>
<path fill="none" stroke="black" d="M482.32,-464.45C497.04,-459.68 513.26,-452.03 524.14,-439.89 543.02,-418.85 521.21,-397.88 542.14,-378.89 577.07,-347.21 603.39,-378.35 646.34,-358.89 655.57,-354.71 656.15,-350.86 664.34,-344.89 674.51,-337.48 685.69,-329.68 696.09,-322.59"/>
<polygon fill="black" stroke="black" points="698.29,-325.32 704.6,-316.81 694.36,-319.53 698.29,-325.32"/>
<text text-anchor="middle" x="594.24" y="-381.69" font-family="Times,serif" font-size="14.00">has_function</text>
</g>
<!-- Gene(9)&#45;&gt;Gene(8) -->
<g id="edge9" class="edge">
<title>Gene(9)&#45;&gt;Gene(8)</title>
<path fill="none" stroke="black" d="M478.44,-482.58C496.86,-488.8 520.73,-496.62 542.14,-502.89 588.05,-516.34 600.1,-517.62 646.34,-529.89 658.1,-533.01 670.72,-536.41 682.64,-539.65"/>
<polygon fill="black" stroke="black" points="681.88,-543.07 692.45,-542.32 683.72,-536.31 681.88,-543.07"/>
<text text-anchor="middle" x="594.24" y="-546.69" font-family="Times,serif" font-size="14.00">genetic(&lt;=8)</text>
<text text-anchor="middle" x="594.24" y="-532.69" font-family="Times,serif" font-size="14.00">physical(&lt;=8)</text>
</g>
<!-- Gene(9)&#45;&gt;TO(16) -->
<g id="edge11" class="edge">
<title>Gene(9)&#45;&gt;TO(16)</title>
<path fill="none" stroke="black" d="M485.3,-474.53C535.63,-478.03 624.85,-484.25 681.8,-488.21"/>
<polygon fill="black" stroke="black" points="681.82,-491.72 692.04,-488.93 682.31,-484.74 681.82,-491.72"/>
<text text-anchor="middle" x="594.24" y="-487.69" font-family="Times,serif" font-size="14.00">cooc_wi</text>
</g>
<!-- Gene(9)&#45;&gt;Gene(9) -->
<g id="edge5" class="edge">
<title>Gene(9)&#45;&gt;Gene(9)</title>
<path fill="none" stroke="black" d="M423.04,-486.68C415.41,-497.31 423.22,-507.89 446.46,-507.89 462.08,-507.89 470.73,-503.11 472.41,-496.76"/>
<polygon fill="black" stroke="black" points="475.71,-495.53 469.88,-486.68 468.92,-497.23 475.71,-495.53"/>
<text text-anchor="middle" x="446.46" y="-524.69" font-family="Times,serif" font-size="14.00">genetic(&lt;=8)</text>
<text text-anchor="middle" x="446.46" y="-510.69" font-family="Times,serif" font-size="14.00">physical(&lt;=8)</text>
</g>
<!-- SNP(20) -->
<g id="node19" class="node">
<title>SNP(20)</title>
<ellipse fill="none" stroke="black" cx="735.64" cy="-433.89" rx="41.13" ry="18"/>
<text text-anchor="middle" x="735.64" y="-429.69" font-family="Times,serif" font-size="14.00">SNP(20)</text>
</g>
<!-- Gene(9)&#45;&gt;SNP(20) -->
<g id="edge8" class="edge">
<title>Gene(9)&#45;&gt;SNP(20)</title>
<path fill="none" stroke="blue" d="M484.12,-467.04C535.37,-460.26 628.54,-447.93 685.67,-440.37"/>
<polygon fill="blue" stroke="blue" points="686.45,-443.8 695.91,-439.02 685.53,-436.86 686.45,-443.8"/>
<text text-anchor="middle" x="594.24" y="-460.69" font-family="Times,serif" font-size="14.00">has_variation</text>
</g>
<!-- SNP(20)&#45;&gt;Trait(21) -->
<g id="edge13" class="edge">
<title>SNP(20)&#45;&gt;Trait(21)</title>
<path fill="none" stroke="blue" d="M776.91,-433.89C816.45,-433.89 877.18,-433.89 922.04,-433.89"/>
<polygon fill="blue" stroke="blue" points="922.21,-437.39 932.21,-433.89 922.21,-430.39 922.21,-437.39"/>
<text text-anchor="middle" x="869.65" y="-436.69" font-family="Times,serif" font-size="14.00">associated_with</text>
</g>
<!-- Protein(10)&#45;&gt;Protein(7) -->
<g id="edge19" class="edge">
<title>Protein(10)&#45;&gt;Protein(7)</title>
<path fill="none" stroke="blue" d="M194.43,-425.98C199.61,-485.84 219.12,-676.15 260.35,-718.89 289.15,-748.73 311.77,-727.81 350.78,-741.89 368.38,-748.25 387.12,-756.75 403.24,-764.66"/>
<polygon fill="blue" stroke="blue" points="401.89,-767.9 412.4,-769.23 405.01,-761.63 401.89,-767.9"/>
<text text-anchor="middle" x="305.57" y="-786.69" font-family="Times,serif" font-size="14.00">xref(&lt;=6)</text>
<text text-anchor="middle" x="305.57" y="-772.69" font-family="Times,serif" font-size="14.00">equivalent(&lt;=4)</text>
<text text-anchor="middle" x="305.57" y="-758.69" font-family="Times,serif" font-size="14.00">ortho(&lt;=4)</text>
<text text-anchor="middle" x="305.57" y="-744.69" font-family="Times,serif" font-size="14.00">h_s_s(&lt;=4)</text>
</g>
<!-- Protein(10)&#45;&gt;CelComp(5) -->
<g id="edge22" class="edge">
<title>Protein(10)&#45;&gt;CelComp(5)</title>
<path fill="none" stroke="black" d="M192.39,-389.72C191.85,-342.43 196.69,-213.84 260.35,-136.89 362.48,-13.46 583.25,-72.41 683.39,-107.85"/>
<polygon fill="black" stroke="black" points="682.39,-111.2 692.98,-111.3 684.76,-104.62 682.39,-111.2"/>
<text text-anchor="middle" x="446.46" y="-73.69" font-family="Times,serif" font-size="14.00">located_in</text>
</g>
<!-- Protein(10)&#45;&gt;Publication(2) -->
<g id="edge16" class="edge">
<title>Protein(10)&#45;&gt;Publication(2)</title>
<path fill="none" stroke="black" d="M192.38,-426.14C192.05,-469.97 197.72,-581.72 260.35,-638.89 388.33,-755.72 474.58,-716.82 646.34,-693.89 655.81,-692.63 665.7,-690.64 675.29,-688.32"/>
<polygon fill="black" stroke="black" points="676.32,-691.67 685.15,-685.82 674.59,-684.89 676.32,-691.67"/>
<text text-anchor="middle" x="446.46" y="-721.69" font-family="Times,serif" font-size="14.00">pub_in</text>
</g>
<!-- Protein(10)&#45;&gt;BioProc(4) -->
<g id="edge29" class="edge">
<title>Protein(10)&#45;&gt;BioProc(4)</title>
<path fill="none" stroke="blue" d="M194.15,-389.82C198.63,-327.17 216.51,-120.56 260.35,-73.89 369.19,41.94 583.25,-5.98 682.2,-36.66"/>
<polygon fill="blue" stroke="blue" points="681.39,-40.07 691.98,-39.75 683.5,-33.4 681.39,-40.07"/>
<text text-anchor="middle" x="446.46" y="-14.69" font-family="Times,serif" font-size="14.00">participates_in</text>
</g>
<!-- Protein(10)&#45;&gt;MolFunc(3) -->
<g id="edge24" class="edge">
<title>Protein(10)&#45;&gt;MolFunc(3)</title>
<path fill="none" stroke="black" d="M242.39,-408.84C273.5,-409.2 314.5,-409.25 350.78,-407.89 427.99,-405 464.9,-444.49 524.14,-394.89 548.77,-374.27 518.24,-346.36 542.14,-324.89 559.87,-308.97 616.57,-302.09 663.87,-299.13"/>
<polygon fill="black" stroke="black" points="664.33,-302.61 674.11,-298.54 663.93,-295.62 664.33,-302.61"/>
<text text-anchor="middle" x="446.46" y="-422.69" font-family="Times,serif" font-size="14.00">has_function</text>
</g>
<!-- Protein(10)&#45;&gt;Gene(8) -->
<g id="edge27" class="edge">
<title>Protein(10)&#45;&gt;Gene(8)</title>
<path fill="none" stroke="blue" d="M207.66,-425.35C235.33,-456.68 298.72,-521.36 368.78,-544.89 474.19,-580.3 606.47,-571.5 679.62,-562.39"/>
<polygon fill="blue" stroke="blue" points="680.07,-565.86 689.53,-561.11 679.17,-558.92 680.07,-565.86"/>
<text text-anchor="middle" x="446.46" y="-572.69" font-family="Times,serif" font-size="14.00">enc</text>
</g>
<!-- Protein(10)&#45;&gt;ProtDomain(14) -->
<g id="edge23" class="edge">
<title>Protein(10)&#45;&gt;ProtDomain(14)</title>
<path fill="none" stroke="blue" d="M213.15,-391.53C226.02,-381.78 243.41,-369.8 260.35,-361.89 294.63,-345.9 334.83,-333.88 369,-325.45"/>
<polygon fill="blue" stroke="blue" points="370.02,-328.8 378.93,-323.05 368.38,-321.99 370.02,-328.8"/>
<text text-anchor="middle" x="305.57" y="-364.69" font-family="Times,serif" font-size="14.00">has_domain</text>
</g>
<!-- Protein(10)&#45;&gt;EC(15) -->
<g id="edge25" class="edge">
<title>Protein(10)&#45;&gt;EC(15)</title>
<path fill="none" stroke="blue" d="M201.38,-389.94C212.19,-368.68 232.9,-333.58 260.35,-312.89 299.64,-283.29 353.52,-266.4 393.01,-257.3"/>
<polygon fill="blue" stroke="blue" points="393.97,-260.67 402.98,-255.1 392.46,-253.84 393.97,-260.67"/>
<text text-anchor="middle" x="305.57" y="-315.69" font-family="Times,serif" font-size="14.00">cat_c</text>
</g>
<!-- Protein(10)&#45;&gt;Enzyme(177) -->
<g id="edge28" class="edge">
<title>Protein(10)&#45;&gt;Enzyme(177)</title>
<path fill="none" stroke="black" d="M195.84,-389.89C201.91,-357.57 219.07,-289.47 260.35,-250.89 290.04,-223.15 332.25,-207.15 368.87,-197.97"/>
<polygon fill="black" stroke="black" points="370.11,-201.27 379.03,-195.56 368.5,-194.46 370.11,-201.27"/>
<text text-anchor="middle" x="305.57" y="-253.69" font-family="Times,serif" font-size="14.00">is_a</text>
</g>
<!-- Protein(10)&#45;&gt;Enzyme(17) -->
<g id="edge20" class="edge">
<title>Protein(10)&#45;&gt;Enzyme(17)</title>
<path fill="none" stroke="black" d="M194.2,-426.04C197.71,-462.4 210.97,-544.25 260.35,-585.89 294.09,-614.33 343.6,-622.81 382.94,-624.45"/>
<polygon fill="black" stroke="black" points="382.86,-627.95 392.96,-624.74 383.06,-620.95 382.86,-627.95"/>
<text text-anchor="middle" x="305.57" y="-623.69" font-family="Times,serif" font-size="14.00">is_a</text>
</g>
<!-- Protein(10)&#45;&gt;Gene(9) -->
<g id="edge26" class="edge">
<title>Protein(10)&#45;&gt;Gene(9)</title>
<path fill="none" stroke="black" d="M223.35,-422.05C234.77,-426.96 247.98,-432.16 260.35,-435.89 306.48,-449.81 360.75,-459.62 398.55,-465.45"/>
<polygon fill="black" stroke="black" points="398.34,-468.96 408.75,-466.99 399.39,-462.04 398.34,-468.96"/>
<text text-anchor="middle" x="305.57" y="-459.69" font-family="Times,serif" font-size="14.00">enc</text>
</g>
<!-- Protein(10)&#45;&gt;Protein(10) -->
<g id="edge18" class="edge">
<title>Protein(10)&#45;&gt;Protein(10)</title>
<path fill="none" stroke="black" d="M178.04,-425.3C175.44,-434.98 180.08,-443.89 191.97,-443.89 199.39,-443.89 203.99,-440.41 205.76,-435.44"/>
<polygon fill="black" stroke="black" points="209.26,-435.35 205.89,-425.3 202.26,-435.26 209.26,-435.35"/>
<text text-anchor="middle" x="191.97" y="-488.69" font-family="Times,serif" font-size="14.00">ortho(&lt;=4)</text>
<text text-anchor="middle" x="191.97" y="-474.69" font-family="Times,serif" font-size="14.00">xref(&lt;=6)</text>
<text text-anchor="middle" x="191.97" y="-460.69" font-family="Times,serif" font-size="14.00">h_s_s(&lt;=4)</text>
<text text-anchor="middle" x="191.97" y="-446.69" font-family="Times,serif" font-size="14.00">equivalent(&lt;=4)</text>
</g>
<!-- ProtDomain(11) -->
<g id="node21" class="node">
<title>ProtDomain(11)</title>
<ellipse fill="none" stroke="black" cx="446.46" cy="-127.89" rx="68" ry="18"/>
<text text-anchor="middle" x="446.46" y="-123.69" font-family="Times,serif" font-size="14.00">ProtDomain(11)</text>
</g>
<!-- Protein(10)&#45;&gt;ProtDomain(11) -->
<g id="edge17" class="edge">
<title>Protein(10)&#45;&gt;ProtDomain(11)</title>
<path fill="none" stroke="blue" d="M193.06,-389.83C194.28,-347.97 203.22,-243.54 260.35,-185.89 289.51,-156.47 333.39,-141.93 371.11,-134.77"/>
<polygon fill="blue" stroke="blue" points="371.81,-138.2 381.05,-133.02 370.6,-131.3 371.81,-138.2"/>
<text text-anchor="middle" x="305.57" y="-188.69" font-family="Times,serif" font-size="14.00">has_domain</text>
</g>
<!-- EC(12) -->
<g id="node22" class="node">
<title>EC(12)</title>
<ellipse fill="none" stroke="black" cx="446.46" cy="-367.89" rx="36.28" ry="18"/>
<text text-anchor="middle" x="446.46" y="-363.69" font-family="Times,serif" font-size="14.00">EC(12)</text>
</g>
<!-- Protein(10)&#45;&gt;EC(12) -->
<g id="edge21" class="edge">
<title>Protein(10)&#45;&gt;EC(12)</title>
<path fill="none" stroke="blue" d="M235.3,-398.66C243.59,-396.97 252.23,-395.3 260.35,-393.89 308.28,-385.56 363.55,-378.07 401.13,-373.29"/>
<polygon fill="blue" stroke="blue" points="401.76,-376.74 411.24,-372.02 400.88,-369.8 401.76,-376.74"/>
<text text-anchor="middle" x="305.57" y="-396.69" font-family="Times,serif" font-size="14.00">cat_c</text>
</g>
<!-- ProtDomain(11)&#45;&gt;CelComp(5) -->
<g id="edge31" class="edge">
<title>ProtDomain(11)&#45;&gt;CelComp(5)</title>
<path fill="none" stroke="blue" d="M514.43,-127.89C558.96,-127.89 617.4,-127.89 662.88,-127.89"/>
<polygon fill="blue" stroke="blue" points="662.97,-131.39 672.97,-127.89 662.97,-124.39 662.97,-131.39"/>
<text text-anchor="middle" x="594.24" y="-130.69" font-family="Times,serif" font-size="14.00">located_in</text>
</g>
<!-- ProtDomain(11)&#45;&gt;BioProc(4) -->
<g id="edge32" class="edge">
<title>ProtDomain(11)&#45;&gt;BioProc(4)</title>
<path fill="none" stroke="black" d="M496.18,-115.51C545.49,-102.97 621.82,-83.57 674.78,-70.11"/>
<polygon fill="black" stroke="black" points="675.89,-73.44 684.72,-67.58 674.17,-66.65 675.89,-73.44"/>
<text text-anchor="middle" x="594.24" y="-105.69" font-family="Times,serif" font-size="14.00">participates_in</text>
</g>
<!-- ProtDomain(11)&#45;&gt;MolFunc(3) -->
<g id="edge30" class="edge">
<title>ProtDomain(11)&#45;&gt;MolFunc(3)</title>
<path fill="none" stroke="black" d="M498.91,-139.57C508.05,-143.35 516.94,-148.34 524.14,-154.89 538.26,-167.74 528.85,-180.19 542.14,-193.89 578.18,-231.04 600.76,-221.38 646.34,-245.89 661.84,-254.22 678.61,-263.77 693.33,-272.34"/>
<polygon fill="black" stroke="black" points="691.8,-275.5 702.2,-277.52 695.33,-269.45 691.8,-275.5"/>
<text text-anchor="middle" x="594.24" y="-248.69" font-family="Times,serif" font-size="14.00">has_function</text>
</g>
<!-- EC(12)&#45;&gt;MolFunc(3) -->
<g id="edge33" class="edge">
<title>EC(12)&#45;&gt;MolFunc(3)</title>
<path fill="none" stroke="black" d="M481.38,-362.98C496.27,-359.22 512.88,-352.58 524.14,-340.89 542.87,-321.45 520.41,-298.9 542.14,-282.89 583.06,-252.75 643.07,-263.24 685.18,-276.8"/>
<polygon fill="black" stroke="black" points="684.09,-280.12 694.68,-280 686.33,-273.49 684.09,-280.12"/>
<text text-anchor="middle" x="594.24" y="-285.69" font-family="Times,serif" font-size="14.00">equ</text>
</g>
</g>
</svg>
