<svg width="1993px" height="1733px"
 viewBox="0.00 0.00 1494.90 1300.00" xmlns="http://www.w3.org/2000/svg" xmlns:xlink="http://www.w3.org/1999/xlink">
<g id="graph0" class="graph" transform=" rotate(0) translate(4 1296)">
<polygon fill="white" stroke="transparent" points="-4,4 -4,-1296 1490.9,-1296 1490.9,4 -4,4"/>
<!-- Reaction(188) -->
<g id="node1" class="node">
<title>Reaction(188)</title>
<polygon fill="none" stroke="darkgreen" points="999.28,-1175.54 999.28,-1190.46 960.48,-1201 905.59,-1201 866.79,-1190.46 866.79,-1175.54 905.59,-1165 960.48,-1165 999.28,-1175.54"/>
<polygon fill="none" stroke="darkgreen" points="1003.29,-1172.49 1003.29,-1193.51 961.01,-1205 905.06,-1205 862.78,-1193.51 862.78,-1172.49 905.06,-1161 961.01,-1161 1003.29,-1172.49"/>
<text text-anchor="middle" x="933.03" y="-1179.3" font-family="Times,serif" font-size="14.00">Reaction(188)</text>
</g>
<!-- Publication(2) -->
<g id="node2" class="node">
<title>Publication(2)</title>
<polygon fill="none" stroke="darkgreen" points="1483.02,-795.54 1483.02,-810.46 1444.21,-821 1389.33,-821 1350.52,-810.46 1350.52,-795.54 1389.33,-785 1444.21,-785 1483.02,-795.54"/>
<polygon fill="none" stroke="darkgreen" points="1487.03,-792.49 1487.03,-813.51 1444.75,-825 1388.79,-825 1346.51,-813.51 1346.51,-792.49 1388.79,-781 1444.75,-781 1487.03,-792.49"/>
<text text-anchor="middle" x="1416.77" y="-799.3" font-family="Times,serif" font-size="14.00">Publication(2)</text>
</g>
<!-- Trait(21) -->
<g id="node3" class="node">
<title>Trait(21)</title>
<polygon fill="none" stroke="darkgreen" points="1462.71,-568.54 1462.71,-583.46 1435.8,-594 1397.74,-594 1370.83,-583.46 1370.83,-568.54 1397.74,-558 1435.8,-558 1462.71,-568.54"/>
<polygon fill="none" stroke="darkgreen" points="1466.72,-565.82 1466.72,-586.18 1436.56,-598 1396.98,-598 1366.81,-586.18 1366.81,-565.82 1396.98,-554 1436.56,-554 1466.72,-565.82"/>
<text text-anchor="middle" x="1416.77" y="-572.3" font-family="Times,serif" font-size="14.00">Trait(21)</text>
</g>
<!-- DGES(22) -->
<g id="node4" class="node">
<title>DGES(22)</title>
<polygon fill="none" stroke="darkgreen" points="985.15,-1036.54 985.15,-1051.46 954.62,-1062 911.45,-1062 880.92,-1051.46 880.92,-1036.54 911.45,-1026 954.62,-1026 985.15,-1036.54"/>
<polygon fill="none" stroke="darkgreen" points="989.15,-1033.69 989.15,-1054.31 955.29,-1066 910.78,-1066 876.92,-1054.31 876.92,-1033.69 910.78,-1022 955.29,-1022 989.15,-1033.69"/>
<text text-anchor="middle" x="933.03" y="-1040.3" font-family="Times,serif" font-size="14.00">DGES(22)</text>
</g>
<!-- Gene(8) -->
<g id="node5" class="node">
<title>Gene(8)</title>
<polygon fill="none" stroke="darkgreen" points="975.87,-864.54 975.87,-879.46 950.78,-890 915.29,-890 890.2,-879.46 890.2,-864.54 915.29,-854 950.78,-854 975.87,-864.54"/>
<polygon fill="none" stroke="darkgreen" points="979.86,-861.88 979.86,-882.12 951.58,-894 914.49,-894 886.21,-882.12 886.21,-861.88 914.49,-850 951.58,-850 979.86,-861.88"/>
<text text-anchor="middle" x="933.03" y="-868.3" font-family="Times,serif" font-size="14.00">Gene(8)</text>
</g>
<!-- MolFunc(3) -->
<g id="node6" class="node">
<title>MolFunc(3)</title>
<polygon fill="none" stroke="darkgreen" points="991.32,-340.54 991.32,-355.46 957.18,-366 908.89,-366 874.75,-355.46 874.75,-340.54 908.89,-330 957.18,-330 991.32,-340.54"/>
<polygon fill="none" stroke="darkgreen" points="995.31,-337.59 995.31,-358.41 957.78,-370 908.29,-370 870.75,-358.41 870.75,-337.59 908.29,-326 957.78,-326 995.31,-337.59"/>
<text text-anchor="middle" x="933.03" y="-344.3" font-family="Times,serif" font-size="14.00">MolFunc(3)</text>
</g>
<!-- Phenotype(13) -->
<g id="node7" class="node">
<title>Phenotype(13)</title>
<polygon fill="none" stroke="darkgreen" points="1265.97,-973.54 1265.97,-988.46 1226.39,-999 1170.41,-999 1130.83,-988.46 1130.83,-973.54 1170.41,-963 1226.39,-963 1265.97,-973.54"/>
<polygon fill="none" stroke="darkgreen" points="1269.97,-970.47 1269.97,-991.53 1226.91,-1003 1169.89,-1003 1126.83,-991.53 1126.83,-970.47 1169.89,-959 1226.91,-959 1269.97,-970.47"/>
<text text-anchor="middle" x="1198.4" y="-977.3" font-family="Times,serif" font-size="14.00">Phenotype(13)</text>
</g>
<!-- SNPEffect(26) -->
<g id="node8" class="node">
<title>SNPEffect(26)</title>
<polygon fill="none" stroke="darkgreen" points="1266.87,-911.54 1266.87,-926.46 1226.76,-937 1170.04,-937 1129.94,-926.46 1129.94,-911.54 1170.04,-901 1226.76,-901 1266.87,-911.54"/>
<polygon fill="none" stroke="darkgreen" points="1270.88,-908.46 1270.88,-929.54 1227.28,-941 1169.52,-941 1125.92,-929.54 1125.92,-908.46 1169.52,-897 1227.28,-897 1270.88,-908.46"/>
<text text-anchor="middle" x="1198.4" y="-915.3" font-family="Times,serif" font-size="14.00">SNPEffect(26)</text>
</g>
<!-- CelComp(5) -->
<g id="node9" class="node">
<title>CelComp(5)</title>
<polygon fill="none" stroke="darkgreen" points="992.64,-520.54 992.64,-535.46 957.72,-546 908.34,-546 873.43,-535.46 873.43,-520.54 908.34,-510 957.72,-510 992.64,-520.54"/>
<polygon fill="none" stroke="darkgreen" points="996.63,-517.57 996.63,-538.43 958.31,-550 907.76,-550 869.44,-538.43 869.44,-517.57 907.76,-506 958.31,-506 996.63,-517.57"/>
<text text-anchor="middle" x="933.03" y="-524.3" font-family="Times,serif" font-size="14.00">CelComp(5)</text>
</g>
<!-- BioProc(4) -->
<g id="node10" class="node">
<title>BioProc(4)</title>
<polygon fill="none" stroke="darkgreen" points="987.36,-204.54 987.36,-219.46 955.54,-230 910.53,-230 878.71,-219.46 878.71,-204.54 910.53,-194 955.54,-194 987.36,-204.54"/>
<polygon fill="none" stroke="darkgreen" points="991.37,-201.66 991.37,-222.34 956.19,-234 909.88,-234 874.7,-222.34 874.7,-201.66 909.88,-190 956.19,-190 991.37,-201.66"/>
<text text-anchor="middle" x="933.03" y="-208.3" font-family="Times,serif" font-size="14.00">BioProc(4)</text>
</g>
<!-- Gene(1) -->
<g id="node11" class="node">
<title>Gene(1)</title>
<ellipse fill="none" stroke="red" cx="43.65" cy="-985" rx="39.78" ry="39.78"/>
<ellipse fill="none" stroke="red" cx="43.65" cy="-985" rx="43.79" ry="43.79"/>
<text text-anchor="middle" x="43.65" y="-981.3" font-family="Times,serif" font-size="14.00">Gene(1)</text>
</g>
<!-- Gene(1)&#45;&gt;Reaction(188) -->
<g id="edge22" class="edge">
<title>Gene(1)&#45;&gt;Reaction(188)</title>
<path fill="none" stroke="black" d="M75.64,-1014.99C84.84,-1023.21 95.17,-1031.83 105.29,-1039 129.33,-1056.01 136.2,-1059.49 163.29,-1071 299.33,-1128.78 335.29,-1144.71 481.08,-1169 614.75,-1191.27 773.7,-1189.83 862.71,-1186.56"/>
<text text-anchor="middle" x="397.58" y="-1168.8" font-family="Times,serif" font-size="14.00">inv_in</text>
</g>
<!-- Gene(1)&#45;&gt;Publication(2) -->
<g id="edge23" class="edge">
<title>Gene(1)&#45;&gt;Publication(2)</title>
<path fill="none" stroke="blue" d="M51.49,-1027.94C59.53,-1069.31 75.69,-1132.44 105.29,-1180 143.84,-1241.93 164.74,-1277 237.69,-1277 237.69,-1277 237.69,-1277 1199.4,-1277 1400.67,-1277 1415.52,-918.94 1415.96,-825.23"/>
<text text-anchor="middle" x="779.41" y="-1280.8" font-family="Times,serif" font-size="14.00">occ_in</text>
</g>
<!-- Gene(1)&#45;&gt;Trait(21) -->
<g id="edge15" class="edge">
<title>Gene(1)&#45;&gt;Trait(21)</title>
<path fill="none" stroke="blue" d="M43.84,-941.2C42.84,-810.72 50.03,-415.03 163.29,-114 184.6,-57.37 177.19,0 237.69,0 237.69,0 237.69,0 1199.4,0 1319.98,0 1396.15,-447.92 1412.47,-553.77"/>
<text text-anchor="middle" x="779.41" y="-3.8" font-family="Times,serif" font-size="14.00">cooc_wi</text>
</g>
<!-- Gene(1)&#45;&gt;DGES(22) -->
<g id="edge16" class="edge">
<title>Gene(1)&#45;&gt;DGES(22)</title>
<path fill="none" stroke="black" d="M82.02,-1005.98C89.61,-1009.88 97.62,-1013.75 105.29,-1017 201.18,-1057.66 228.63,-1063.91 332.08,-1076 531.77,-1099.34 770.87,-1069.39 876.83,-1053.17"/>
<text text-anchor="middle" x="397.58" y="-1087.8" font-family="Times,serif" font-size="14.00">differentially_expressed</text>
</g>
<!-- Gene(1)&#45;&gt;Gene(8) -->
<g id="edge19" class="edge">
<title>Gene(1)&#45;&gt;Gene(8)</title>
<path fill="none" stroke="blue" d="M87.5,-983.05C143.67,-980.49 245.25,-975.87 332.08,-972 493.78,-964.79 537.05,-987.02 695.91,-956 770.64,-941.41 853.54,-907.51 898.52,-887.52"/>
<text text-anchor="middle" x="397.58" y="-1020.8" font-family="Times,serif" font-size="14.00">genetic(&lt;=2)</text>
<text text-anchor="middle" x="397.58" y="-1005.8" font-family="Times,serif" font-size="14.00">homoeolog(&lt;=2)</text>
<text text-anchor="middle" x="397.58" y="-990.8" font-family="Times,serif" font-size="14.00">physical(&lt;=2)</text>
<text text-anchor="middle" x="397.58" y="-975.8" font-family="Times,serif" font-size="14.00">regulates(&lt;=2)</text>
</g>
<!-- Protein(7) -->
<g id="node12" class="node">
<title>Protein(7)</title>
<polygon fill="none" stroke="darkgreen" points="638.39,-917.54 638.39,-932.46 609.16,-943 567.82,-943 538.59,-932.46 538.59,-917.54 567.82,-907 609.16,-907 638.39,-917.54"/>
<polygon fill="none" stroke="darkgreen" points="642.39,-914.73 642.39,-935.27 609.86,-947 567.13,-947 534.6,-935.27 534.6,-914.73 567.13,-903 609.86,-903 642.39,-914.73"/>
<text text-anchor="middle" x="588.49" y="-921.3" font-family="Times,serif" font-size="14.00">Protein(7)</text>
</g>
<!-- Gene(1)&#45;&gt;Protein(7) -->
<g id="edge17" class="edge">
<title>Gene(1)&#45;&gt;Protein(7)</title>
<path fill="none" stroke="blue" d="M85.76,-973.16C108.44,-967.08 137.22,-960.11 163.29,-956 295.86,-935.1 454.01,-928.25 534.6,-926.04"/>
<text text-anchor="middle" x="238.69" y="-959.8" font-family="Times,serif" font-size="14.00">enc</text>
</g>
<!-- Path(19) -->
<g id="node15" class="node">
<title>Path(19)</title>
<polygon fill="none" stroke="darkgreen" points="1242.56,-1208.54 1242.56,-1223.46 1216.69,-1234 1180.11,-1234 1154.25,-1223.46 1154.25,-1208.54 1180.11,-1198 1216.69,-1198 1242.56,-1208.54"/>
<polygon fill="none" stroke="darkgreen" points="1246.54,-1205.85 1246.54,-1226.15 1217.47,-1238 1179.33,-1238 1150.26,-1226.15 1150.26,-1205.85 1179.33,-1194 1217.47,-1194 1246.54,-1205.85"/>
<text text-anchor="middle" x="1198.4" y="-1212.3" font-family="Times,serif" font-size="14.00">Path(19)</text>
</g>
<!-- Gene(1)&#45;&gt;Path(19) -->
<g id="edge25" class="edge">
<title>Gene(1)&#45;&gt;Path(19)</title>
<path fill="none" stroke="blue" d="M56.06,-1026.96C78.21,-1097.92 134.17,-1234 237.69,-1234 237.69,-1234 237.69,-1234 934.03,-1234 1009.65,-1234 1097.2,-1226.52 1149.89,-1221.21"/>
<text text-anchor="middle" x="588.49" y="-1237.8" font-family="Times,serif" font-size="14.00">part_of</text>
</g>
<!-- Gene(9) -->
<g id="node19" class="node">
<title>Gene(9)</title>
<ellipse fill="none" stroke="black" cx="588.49" cy="-768" rx="39.79" ry="18"/>
<text text-anchor="middle" x="588.49" y="-764.3" font-family="Times,serif" font-size="14.00">Gene(9)</text>
</g>
<!-- Gene(1)&#45;&gt;Gene(9) -->
<g id="edge20" class="edge">
<title>Gene(1)&#45;&gt;Gene(9)</title>
<path fill="none" stroke="black" d="M72.88,-952.44C95.36,-928.14 128.7,-895.56 163.29,-874 289.41,-795.41 470.68,-775.03 549.02,-769.79"/>
<text text-anchor="middle" x="238.69" y="-922.8" font-family="Times,serif" font-size="14.00">genetic(&lt;=2)</text>
<text text-anchor="middle" x="238.69" y="-907.8" font-family="Times,serif" font-size="14.00">homoeolog(&lt;=2)</text>
<text text-anchor="middle" x="238.69" y="-892.8" font-family="Times,serif" font-size="14.00">physical(&lt;=2)</text>
<text text-anchor="middle" x="238.69" y="-877.8" font-family="Times,serif" font-size="14.00">regulates(&lt;=2)</text>
</g>
<!-- SNP(20) -->
<g id="node20" class="node">
<title>SNP(20)</title>
<ellipse fill="none" stroke="black" cx="933.03" cy="-930" rx="41.69" ry="18"/>
<text text-anchor="middle" x="933.03" y="-926.3" font-family="Times,serif" font-size="14.00">SNP(20)</text>
</g>
<!-- Gene(1)&#45;&gt;SNP(20) -->
<g id="edge21" class="edge">
<title>Gene(1)&#45;&gt;SNP(20)</title>
<path fill="none" stroke="blue" d="M86.21,-994.93C141.82,-1007.63 243.68,-1028.84 332.08,-1036 467.03,-1046.94 801.59,-1048 844.91,-1028 854.52,-1023.56 896.16,-973.84 918.21,-946.98"/>
<text text-anchor="middle" x="397.58" y="-1060.8" font-family="Times,serif" font-size="14.00">has_mutant</text>
<text text-anchor="middle" x="397.58" y="-1045.8" font-family="Times,serif" font-size="14.00">has_variation</text>
</g>
<!-- Protein(10) -->
<g id="node22" class="node">
<title>Protein(10)</title>
<ellipse fill="none" stroke="black" cx="238.69" cy="-610" rx="50.89" ry="18"/>
<text text-anchor="middle" x="238.69" y="-606.3" font-family="Times,serif" font-size="14.00">Protein(10)</text>
</g>
<!-- Gene(1)&#45;&gt;Protein(10) -->
<g id="edge18" class="edge">
<title>Gene(1)&#45;&gt;Protein(10)</title>
<path fill="none" stroke="black" d="M51.08,-941.59C59.08,-896.07 75.48,-823.45 105.29,-767 135.77,-709.31 190.33,-653.87 218.96,-626.94"/>
<text text-anchor="middle" x="125.29" y="-770.8" font-family="Times,serif" font-size="14.00">enc</text>
</g>
<!-- CoExpCluster(23) -->
<g id="node23" class="node">
<title>CoExpCluster(23)</title>
<ellipse fill="none" stroke="black" cx="238.69" cy="-141" rx="75.29" ry="18"/>
<text text-anchor="middle" x="238.69" y="-137.3" font-family="Times,serif" font-size="14.00">CoExpCluster(23)</text>
</g>
<!-- Gene(1)&#45;&gt;CoExpCluster(23) -->
<g id="edge24" class="edge">
<title>Gene(1)&#45;&gt;CoExpCluster(23)</title>
<path fill="none" stroke="black" d="M53.05,-942.06C64.37,-884.71 85.41,-780.01 105.29,-691 152.19,-481.09 215.74,-227.82 233.13,-158.99"/>
<text text-anchor="middle" x="125.29" y="-694.8" font-family="Times,serif" font-size="14.00">part_of</text>
</g>
<!-- EC(15) -->
<g id="node13" class="node">
<title>EC(15)</title>
<polygon fill="none" stroke="darkgreen" points="627.79,-664.54 627.79,-679.46 604.77,-690 572.21,-690 549.19,-679.46 549.19,-664.54 572.21,-654 604.77,-654 627.79,-664.54"/>
<polygon fill="none" stroke="darkgreen" points="631.78,-661.97 631.78,-682.03 605.64,-694 571.35,-694 545.2,-682.03 545.2,-661.97 571.35,-650 605.64,-650 631.78,-661.97"/>
<text text-anchor="middle" x="588.49" y="-668.3" font-family="Times,serif" font-size="14.00">EC(15)</text>
</g>
<!-- ProtDomain(14) -->
<g id="node14" class="node">
<title>ProtDomain(14)</title>
<polygon fill="none" stroke="darkgreen" points="663.13,-602.54 663.13,-617.46 619.41,-628 557.58,-628 513.86,-617.46 513.86,-602.54 557.58,-592 619.41,-592 663.13,-602.54"/>
<polygon fill="none" stroke="darkgreen" points="667.13,-599.39 667.13,-620.61 619.88,-632 557.1,-632 509.85,-620.61 509.85,-599.39 557.1,-588 619.88,-588 667.13,-599.39"/>
<text text-anchor="middle" x="588.49" y="-606.3" font-family="Times,serif" font-size="14.00">ProtDomain(14)</text>
</g>
<!-- Enzyme(177) -->
<g id="node16" class="node">
<title>Enzyme(177)</title>
<polygon fill="none" stroke="darkgreen" points="652.53,-540.54 652.53,-555.46 615.02,-566 561.97,-566 524.46,-555.46 524.46,-540.54 561.97,-530 615.02,-530 652.53,-540.54"/>
<polygon fill="none" stroke="darkgreen" points="656.53,-537.51 656.53,-558.49 615.57,-570 561.42,-570 520.46,-558.49 520.46,-537.51 561.42,-526 615.57,-526 656.53,-537.51"/>
<text text-anchor="middle" x="588.49" y="-544.3" font-family="Times,serif" font-size="14.00">Enzyme(177)</text>
</g>
<!-- PlantOntologyTerm(24) -->
<g id="node17" class="node">
<title>PlantOntologyTerm(24)</title>
<polygon fill="none" stroke="darkgreen" points="691.82,-104.54 691.82,-119.46 631.29,-130 545.69,-130 485.16,-119.46 485.16,-104.54 545.69,-94 631.29,-94 691.82,-104.54"/>
<polygon fill="none" stroke="darkgreen" points="695.82,-101.18 695.82,-122.82 631.64,-134 545.35,-134 481.17,-122.82 481.17,-101.18 545.35,-90 631.64,-90 695.82,-101.18"/>
<text text-anchor="middle" x="588.49" y="-108.3" font-family="Times,serif" font-size="14.00">PlantOntologyTerm(24)</text>
</g>
<!-- CoExpStudy(25) -->
<g id="node18" class="node">
<title>CoExpStudy(25)</title>
<polygon fill="none" stroke="darkgreen" points="664.45,-42.54 664.45,-57.46 619.95,-68 557.03,-68 512.54,-57.46 512.54,-42.54 557.03,-32 619.95,-32 664.45,-42.54"/>
<polygon fill="none" stroke="darkgreen" points="668.45,-39.38 668.45,-60.62 620.42,-72 556.56,-72 508.54,-60.62 508.54,-39.38 556.56,-28 620.42,-28 668.45,-39.38"/>
<text text-anchor="middle" x="588.49" y="-46.3" font-family="Times,serif" font-size="14.00">CoExpStudy(25)</text>
</g>
<!-- Gene(9)&#45;&gt;Publication(2) -->
<g id="edge9" class="edge">
<title>Gene(9)&#45;&gt;Publication(2)</title>
<path fill="none" stroke="black" d="M628.18,-765.79C738.29,-760.12 1062.58,-747.83 1328.64,-782 1339.6,-783.41 1351.18,-785.65 1362.2,-788.15"/>
<text text-anchor="middle" x="1064.66" y="-766.8" font-family="Times,serif" font-size="14.00">pub_in</text>
</g>
<!-- Gene(9)&#45;&gt;Trait(21) -->
<g id="edge1" class="edge">
<title>Gene(9)&#45;&gt;Trait(21)</title>
<path fill="none" stroke="black" d="M626.62,-762.99C688.68,-754.05 810.12,-733.9 844.91,-709 857.24,-700.17 850.39,-688.57 862.91,-680 1021.84,-571.12 1264.08,-568.28 1366.89,-572.72"/>
<text text-anchor="middle" x="1064.66" y="-612.8" font-family="Times,serif" font-size="14.00">cooc_wi</text>
</g>
<!-- Gene(9)&#45;&gt;DGES(22) -->
<g id="edge2" class="edge">
<title>Gene(9)&#45;&gt;DGES(22)</title>
<path fill="none" stroke="blue" d="M615.73,-781.2C640.03,-794.75 675.41,-818.05 695.91,-848 712.59,-872.38 696.02,-888.48 713.91,-912 759.2,-971.53 839.75,-1009.99 889.27,-1029.25"/>
<text text-anchor="middle" x="779.41" y="-1012.8" font-family="Times,serif" font-size="14.00">differentially_expressed</text>
</g>
<!-- Gene(9)&#45;&gt;Gene(8) -->
<g id="edge3" class="edge">
<title>Gene(9)&#45;&gt;Gene(8)</title>
<path fill="none" stroke="black" d="M627.25,-771.89C693.45,-778.88 825.32,-793.61 844.91,-802 871.13,-813.23 895.96,-834.64 912.36,-850.84"/>
<text text-anchor="middle" x="779.41" y="-820.8" font-family="Times,serif" font-size="14.00">genetic(&lt;=8)</text>
<text text-anchor="middle" x="779.41" y="-805.8" font-family="Times,serif" font-size="14.00">physical(&lt;=8)</text>
</g>
<!-- Gene(9)&#45;&gt;MolFunc(3) -->
<g id="edge5" class="edge">
<title>Gene(9)&#45;&gt;MolFunc(3)</title>
<path fill="none" stroke="black" d="M621.26,-757.81C646.18,-748 679.33,-730.54 695.91,-703 729.66,-646.92 670.84,-458.3 713.91,-409 752.96,-364.3 788.01,-399.91 844.91,-383 861,-378.22 878.25,-371.62 893.12,-365.43"/>
<text text-anchor="middle" x="779.41" y="-412.8" font-family="Times,serif" font-size="14.00">has_function</text>
</g>
<!-- Gene(9)&#45;&gt;CelComp(5) -->
<g id="edge7" class="edge">
<title>Gene(9)&#45;&gt;CelComp(5)</title>
<path fill="none" stroke="black" d="M613.97,-753.89C635.79,-741.11 668.44,-721.51 695.91,-703 773.76,-650.53 861.68,-583.08 904.98,-549.29"/>
<text text-anchor="middle" x="779.41" y="-693.8" font-family="Times,serif" font-size="14.00">located_in</text>
</g>
<!-- Gene(9)&#45;&gt;BioProc(4) -->
<g id="edge8" class="edge">
<title>Gene(9)&#45;&gt;BioProc(4)</title>
<path fill="none" stroke="blue" d="M621.37,-757.88C646.36,-748.11 679.54,-730.67 695.91,-703 740.63,-627.36 664.23,-380.48 713.91,-308 724.52,-292.51 829.73,-250.73 890.06,-227.72"/>
<text text-anchor="middle" x="779.41" y="-311.8" font-family="Times,serif" font-size="14.00">participates_in</text>
</g>
<!-- Gene(9)&#45;&gt;Gene(9) -->
<g id="edge4" class="edge">
<title>Gene(9)&#45;&gt;Gene(9)</title>
<path fill="none" stroke="blue" d="M559.21,-780.54C544.96,-791.87 554.72,-804 588.49,-804 622.26,-804 632.02,-791.87 617.78,-780.54"/>
<text text-anchor="middle" x="588.49" y="-822.8" font-family="Times,serif" font-size="14.00">genetic(&lt;=8)</text>
<text text-anchor="middle" x="588.49" y="-807.8" font-family="Times,serif" font-size="14.00">physical(&lt;=8)</text>
</g>
<!-- Gene(9)&#45;&gt;SNP(20) -->
<g id="edge6" class="edge">
<title>Gene(9)&#45;&gt;SNP(20)</title>
<path fill="none" stroke="blue" d="M614.72,-781.52C662.47,-806.87 769.63,-862.62 862.91,-903 875.2,-908.32 888.92,-913.78 900.87,-918.38"/>
<text text-anchor="middle" x="779.41" y="-896.8" font-family="Times,serif" font-size="14.00">has_variation</text>
</g>
<!-- SNP(20)&#45;&gt;Phenotype(13) -->
<g id="edge11" class="edge">
<title>SNP(20)&#45;&gt;Phenotype(13)</title>
<path fill="none" stroke="blue" d="M971.21,-937.2C1013.32,-945.35 1082.69,-958.79 1133.52,-968.63"/>
<text text-anchor="middle" x="1064.66" y="-966.8" font-family="Times,serif" font-size="14.00">associated_with</text>
</g>
<!-- SNP(20)&#45;&gt;SNPEffect(26) -->
<g id="edge12" class="edge">
<title>SNP(20)&#45;&gt;SNPEffect(26)</title>
<path fill="none" stroke="black" d="M974.61,-928.31C1014.87,-926.62 1077.4,-924.01 1125.99,-921.98"/>
<text text-anchor="middle" x="1064.66" y="-929.8" font-family="Times,serif" font-size="14.00">leads_to</text>
</g>
<!-- Phenotype(133) -->
<g id="node21" class="node">
<title>Phenotype(133)</title>
<ellipse fill="none" stroke="black" cx="1198.4" cy="-839" rx="66.89" ry="18"/>
<text text-anchor="middle" x="1198.4" y="-835.3" font-family="Times,serif" font-size="14.00">Phenotype(133)</text>
</g>
<!-- SNP(20)&#45;&gt;Phenotype(133) -->
<g id="edge10" class="edge">
<title>SNP(20)&#45;&gt;Phenotype(133)</title>
<path fill="none" stroke="black" d="M966.07,-918.93C1013.91,-902.4 1104.01,-871.27 1156.54,-853.12"/>
<text text-anchor="middle" x="1064.66" y="-900.8" font-family="Times,serif" font-size="14.00">associated_with</text>
</g>
<!-- Phenotype(133)&#45;&gt;Publication(2) -->
<g id="edge14" class="edge">
<title>Phenotype(133)&#45;&gt;Publication(2)</title>
<path fill="none" stroke="black" d="M1255.68,-829.64C1284.11,-824.91 1318.8,-819.13 1348.6,-814.18"/>
<text text-anchor="middle" x="1308.64" y="-826.8" font-family="Times,serif" font-size="14.00">pub_in</text>
</g>
<!-- Phenotype(133)&#45;&gt;Trait(21) -->
<g id="edge13" class="edge">
<title>Phenotype(133)&#45;&gt;Trait(21)</title>
<path fill="none" stroke="blue" d="M1213.93,-821.34C1252.12,-774.92 1355.24,-649.58 1397.41,-598.31"/>
<text text-anchor="middle" x="1308.64" y="-726.8" font-family="Times,serif" font-size="14.00">part_of</text>
</g>
<!-- Protein(10)&#45;&gt;Publication(2) -->
<g id="edge40" class="edge">
<title>Protein(10)&#45;&gt;Publication(2)</title>
<path fill="none" stroke="blue" d="M259.71,-626.42C277.62,-640.3 305.14,-659.69 332.08,-671 394.53,-697.22 413.73,-695.85 481.08,-703 576.02,-713.08 602.98,-724.94 695.91,-703 704.61,-700.95 705.2,-696.05 713.91,-694 770.57,-680.62 786.86,-689.53 844.91,-694 1035.82,-708.71 1082.51,-724.37 1270.64,-760 1296.6,-764.92 1303.22,-765.8 1328.64,-773 1342.03,-776.79 1356.38,-781.47 1369.5,-786"/>
<text text-anchor="middle" x="933.03" y="-713.8" font-family="Times,serif" font-size="14.00">pub_in</text>
</g>
<!-- Protein(10)&#45;&gt;Trait(21) -->
<g id="edge28" class="edge">
<title>Protein(10)&#45;&gt;Trait(21)</title>
<path fill="none" stroke="blue" d="M249.19,-592.35C263.54,-567.66 293.24,-523.52 332.08,-503 391.01,-471.86 414.56,-490.13 481.08,-486 712.68,-471.61 772.57,-456.07 1003.16,-482 1140.78,-497.48 1299.44,-541.13 1373.54,-563.07"/>
<text text-anchor="middle" x="933.03" y="-485.8" font-family="Times,serif" font-size="14.00">cooc_wi</text>
</g>
<!-- Protein(10)&#45;&gt;Gene(8) -->
<g id="edge29" class="edge">
<title>Protein(10)&#45;&gt;Gene(8)</title>
<path fill="none" stroke="black" d="M245.76,-628.23C257.28,-659.79 285.39,-724.36 332.08,-757 380.88,-791.11 419.12,-744.84 463.08,-785 483.01,-803.2 460.31,-825.76 481.08,-843 521.16,-876.26 661.92,-866.76 713.91,-870 773.25,-873.7 841.84,-873.62 886.03,-873"/>
<text text-anchor="middle" x="588.49" y="-872.8" font-family="Times,serif" font-size="14.00">enc</text>
</g>
<!-- Protein(10)&#45;&gt;MolFunc(3) -->
<g id="edge35" class="edge">
<title>Protein(10)&#45;&gt;MolFunc(3)</title>
<path fill="none" stroke="black" d="M239.49,-591.84C240.02,-540.87 249.07,-395.66 332.08,-326 506.68,-179.49 621.51,-277.76 844.91,-323 858.02,-325.66 872.03,-329.3 884.89,-332.99"/>
<text text-anchor="middle" x="588.49" y="-286.8" font-family="Times,serif" font-size="14.00">has_function</text>
</g>
<!-- Protein(10)&#45;&gt;CelComp(5) -->
<g id="edge38" class="edge">
<title>Protein(10)&#45;&gt;CelComp(5)</title>
<path fill="none" stroke="blue" d="M264.5,-594.41C306.92,-568.82 396.94,-519.06 481.08,-502 620.96,-473.64 789.88,-498.75 875.84,-515.63"/>
<text text-anchor="middle" x="588.49" y="-505.8" font-family="Times,serif" font-size="14.00">located_in</text>
</g>
<!-- Protein(10)&#45;&gt;BioProc(4) -->
<g id="edge39" class="edge">
<title>Protein(10)&#45;&gt;BioProc(4)</title>
<path fill="none" stroke="black" d="M241.75,-591.77C249.63,-525.5 280.06,-298.78 332.08,-252 410.67,-181.33 740.32,-197.43 874.68,-207.25"/>
<text text-anchor="middle" x="588.49" y="-209.8" font-family="Times,serif" font-size="14.00">participates_in</text>
</g>
<!-- Protein(10)&#45;&gt;Protein(7) -->
<g id="edge31" class="edge">
<title>Protein(10)&#45;&gt;Protein(7)</title>
<path fill="none" stroke="black" d="M244.33,-627.92C254.36,-663.1 281.31,-741.55 332.08,-785 378.85,-825.03 420.31,-785.72 463.08,-830 482.13,-849.72 461.99,-869.32 481.08,-889 495.2,-903.56 515.42,-912.23 534.44,-917.39"/>
<text text-anchor="middle" x="397.58" y="-878.8" font-family="Times,serif" font-size="14.00">equivalent(&lt;=4)</text>
<text text-anchor="middle" x="397.58" y="-863.8" font-family="Times,serif" font-size="14.00">h_s_s(&lt;=4)</text>
<text text-anchor="middle" x="397.58" y="-848.8" font-family="Times,serif" font-size="14.00">ortho(&lt;=4)</text>
<text text-anchor="middle" x="397.58" y="-833.8" font-family="Times,serif" font-size="14.00">xref(&lt;=8)</text>
</g>
<!-- Protein(10)&#45;&gt;EC(15) -->
<g id="edge27" class="edge">
<title>Protein(10)&#45;&gt;EC(15)</title>
<path fill="none" stroke="black" d="M282.4,-619.12C298.01,-622.36 315.82,-625.96 332.08,-629 406.78,-642.96 494.16,-657.23 544.93,-665.32"/>
<text text-anchor="middle" x="397.58" y="-655.8" font-family="Times,serif" font-size="14.00">cat_c</text>
</g>
<!-- Protein(10)&#45;&gt;ProtDomain(14) -->
<g id="edge34" class="edge">
<title>Protein(10)&#45;&gt;ProtDomain(14)</title>
<path fill="none" stroke="blue" d="M289.52,-610C347.09,-610 442.52,-610 509.84,-610"/>
<text text-anchor="middle" x="397.58" y="-613.8" font-family="Times,serif" font-size="14.00">has_domain</text>
</g>
<!-- Protein(10)&#45;&gt;Enzyme(177) -->
<g id="edge37" class="edge">
<title>Protein(10)&#45;&gt;Enzyme(177)</title>
<path fill="none" stroke="black" d="M282.4,-600.88C298.01,-597.64 315.82,-594.04 332.08,-591 395.95,-579.06 469.09,-566.9 520.69,-558.57"/>
<text text-anchor="middle" x="397.58" y="-594.8" font-family="Times,serif" font-size="14.00">is_a</text>
</g>
<!-- Protein(10)&#45;&gt;Gene(9) -->
<g id="edge30" class="edge">
<title>Protein(10)&#45;&gt;Gene(9)</title>
<path fill="none" stroke="blue" d="M249.28,-627.66C263.74,-652.42 293.56,-696.91 332.08,-719 383.36,-748.41 405.03,-730.84 463.08,-742 493.31,-747.81 527.54,-755.01 552.43,-760.36"/>
<text text-anchor="middle" x="397.58" y="-745.8" font-family="Times,serif" font-size="14.00">enc</text>
</g>
<!-- Protein(10)&#45;&gt;Protein(10) -->
<g id="edge32" class="edge">
<title>Protein(10)&#45;&gt;Protein(10)</title>
<path fill="none" stroke="blue" d="M219,-626.66C214.62,-636.62 221.19,-646 238.69,-646 256.19,-646 262.75,-636.62 258.37,-626.66"/>
<text text-anchor="middle" x="238.69" y="-694.8" font-family="Times,serif" font-size="14.00">equivalent(&lt;=4)</text>
<text text-anchor="middle" x="238.69" y="-679.8" font-family="Times,serif" font-size="14.00">h_s_s(&lt;=4)</text>
<text text-anchor="middle" x="238.69" y="-664.8" font-family="Times,serif" font-size="14.00">ortho(&lt;=4)</text>
<text text-anchor="middle" x="238.69" y="-649.8" font-family="Times,serif" font-size="14.00">xref(&lt;=8)</text>
</g>
<!-- EC(12) -->
<g id="node24" class="node">
<title>EC(12)</title>
<ellipse fill="none" stroke="black" cx="588.49" cy="-347" rx="36.29" ry="18"/>
<text text-anchor="middle" x="588.49" y="-343.3" font-family="Times,serif" font-size="14.00">EC(12)</text>
</g>
<!-- Protein(10)&#45;&gt;EC(12) -->
<g id="edge26" class="edge">
<title>Protein(10)&#45;&gt;EC(12)</title>
<path fill="none" stroke="blue" d="M240.35,-591.76C243.12,-545.21 257.5,-421.7 332.08,-366 398.34,-316.51 503.15,-328.9 555.51,-339.38"/>
<text text-anchor="middle" x="397.58" y="-369.8" font-family="Times,serif" font-size="14.00">cat_c</text>
</g>
<!-- ProtDomain(11) -->
<g id="node25" class="node">
<title>ProtDomain(11)</title>
<ellipse fill="none" stroke="black" cx="588.49" cy="-401" rx="68.79" ry="18"/>
<text text-anchor="middle" x="588.49" y="-397.3" font-family="Times,serif" font-size="14.00">ProtDomain(11)</text>
</g>
<!-- Protein(10)&#45;&gt;ProtDomain(11) -->
<g id="edge33" class="edge">
<title>Protein(10)&#45;&gt;ProtDomain(11)</title>
<path fill="none" stroke="black" d="M242.32,-591.81C249.09,-552.38 271.09,-459.22 332.08,-418 391.82,-377.62 478.43,-381.6 533.86,-389.92"/>
<text text-anchor="middle" x="397.58" y="-421.8" font-family="Times,serif" font-size="14.00">has_domain</text>
</g>
<!-- Enzyme(17) -->
<g id="node26" class="node">
<title>Enzyme(17)</title>
<ellipse fill="none" stroke="black" cx="588.49" cy="-1142" rx="54.69" ry="18"/>
<text text-anchor="middle" x="588.49" y="-1138.3" font-family="Times,serif" font-size="14.00">Enzyme(17)</text>
</g>
<!-- Protein(10)&#45;&gt;Enzyme(17) -->
<g id="edge36" class="edge">
<title>Protein(10)&#45;&gt;Enzyme(17)</title>
<path fill="none" stroke="blue" d="M249.6,-627.58C265.72,-656.95 297.46,-718.27 314.08,-774 328.99,-824 299,-849.65 332.08,-890 371.39,-937.95 415.15,-898.66 463.08,-938 495.95,-964.97 555.96,-1079.56 578.56,-1124.15"/>
<text text-anchor="middle" x="397.58" y="-941.8" font-family="Times,serif" font-size="14.00">is_a</text>
</g>
<!-- CoExpCluster(23)&#45;&gt;BioProc(4) -->
<g id="edge48" class="edge">
<title>CoExpCluster(23)&#45;&gt;BioProc(4)</title>
<path fill="none" stroke="black" d="M304.24,-149.96C313.57,-151.09 323.06,-152.14 332.08,-153 559.39,-174.61 620.49,-141.85 844.91,-184 860.05,-186.84 876.23,-191.55 890.48,-196.31"/>
<text text-anchor="middle" x="588.49" y="-167.8" font-family="Times,serif" font-size="14.00">enriched_for</text>
</g>
<!-- CoExpCluster(23)&#45;&gt;PlantOntologyTerm(24) -->
<g id="edge49" class="edge">
<title>CoExpCluster(23)&#45;&gt;PlantOntologyTerm(24)</title>
<path fill="none" stroke="blue" d="M310.07,-135.13C359.1,-131.04 425.39,-125.52 480.87,-120.89"/>
<text text-anchor="middle" x="397.58" y="-137.8" font-family="Times,serif" font-size="14.00">enriched_for</text>
</g>
<!-- CoExpCluster(23)&#45;&gt;CoExpStudy(25) -->
<g id="edge50" class="edge">
<title>CoExpCluster(23)&#45;&gt;CoExpStudy(25)</title>
<path fill="none" stroke="black" d="M276.08,-125.27C292.91,-118.4 313.28,-110.65 332.08,-105 393.01,-86.7 463.84,-71.94 515.43,-62.34"/>
<text text-anchor="middle" x="397.58" y="-108.8" font-family="Times,serif" font-size="14.00">part_of</text>
</g>
<!-- EC(12)&#45;&gt;MolFunc(3) -->
<g id="edge41" class="edge">
<title>EC(12)&#45;&gt;MolFunc(3)</title>
<path fill="none" stroke="blue" d="M623.16,-341.14C648.12,-337.1 683.02,-332.1 713.91,-330 771.99,-326.05 786.99,-324.08 844.91,-330 855.82,-331.12 867.38,-333 878.39,-335.13"/>
<text text-anchor="middle" x="779.41" y="-333.8" font-family="Times,serif" font-size="14.00">equ</text>
</g>
<!-- ProtDomain(11)&#45;&gt;MolFunc(3) -->
<g id="edge42" class="edge">
<title>ProtDomain(11)&#45;&gt;MolFunc(3)</title>
<path fill="none" stroke="black" d="M640.04,-388.98C657.78,-384.55 677.8,-379.31 695.91,-374 704,-371.63 705.65,-369.73 713.91,-368 766.01,-357.08 826.36,-352.12 870.36,-349.87"/>
<text text-anchor="middle" x="779.41" y="-371.8" font-family="Times,serif" font-size="14.00">has_function</text>
</g>
<!-- ProtDomain(11)&#45;&gt;CelComp(5) -->
<g id="edge43" class="edge">
<title>ProtDomain(11)&#45;&gt;CelComp(5)</title>
<path fill="none" stroke="blue" d="M644.72,-411.42C709.5,-424.37 812.21,-447.42 844.91,-469 855.74,-476.15 852.92,-483.7 862.91,-492 871.54,-499.18 881.85,-505.49 891.83,-510.73"/>
<text text-anchor="middle" x="779.41" y="-472.8" font-family="Times,serif" font-size="14.00">located_in</text>
</g>
<!-- ProtDomain(11)&#45;&gt;BioProc(4) -->
<g id="edge44" class="edge">
<title>ProtDomain(11)&#45;&gt;BioProc(4)</title>
<path fill="none" stroke="black" d="M655.54,-396.85C670.75,-392.79 685.5,-385.79 695.91,-374 738.87,-325.3 666.95,-273.86 713.91,-229 736.19,-207.71 817.85,-206.58 874.67,-208.61"/>
<text text-anchor="middle" x="779.41" y="-232.8" font-family="Times,serif" font-size="14.00">participates_in</text>
</g>
<!-- Enzyme(17)&#45;&gt;Reaction(188) -->
<g id="edge46" class="edge">
<title>Enzyme(17)&#45;&gt;Reaction(188)</title>
<path fill="none" stroke="black" d="M643.16,-1142.86C695.08,-1144.38 775.84,-1148.55 844.91,-1160 856.48,-1161.92 868.75,-1164.69 880.32,-1167.64"/>
<text text-anchor="middle" x="779.41" y="-1163.8" font-family="Times,serif" font-size="14.00">ca_by</text>
</g>
<!-- Reaction(18) -->
<g id="node27" class="node">
<title>Reaction(18)</title>
<ellipse fill="none" stroke="black" cx="933.03" cy="-1122" rx="56.59" ry="18"/>
<text text-anchor="middle" x="933.03" y="-1118.3" font-family="Times,serif" font-size="14.00">Reaction(18)</text>
</g>
<!-- Enzyme(17)&#45;&gt;Reaction(18) -->
<g id="edge45" class="edge">
<title>Enzyme(17)&#45;&gt;Reaction(18)</title>
<path fill="none" stroke="blue" d="M635.66,-1132.78C659.01,-1128.58 687.85,-1124.08 713.91,-1122 769.21,-1117.58 832.65,-1118.22 876.8,-1119.58"/>
<text text-anchor="middle" x="779.41" y="-1125.8" font-family="Times,serif" font-size="14.00">ca_by</text>
</g>
<!-- Reaction(18)&#45;&gt;Path(19) -->
<g id="edge47" class="edge">
<title>Reaction(18)&#45;&gt;Path(19)</title>
<path fill="none" stroke="blue" d="M971.49,-1135.37C1021.19,-1153.11 1108.51,-1184.27 1158.79,-1202.22"/>
<text text-anchor="middle" x="1064.66" y="-1185.8" font-family="Times,serif" font-size="14.00">part_of</text>
</g>
</g>
</svg>
