<svg width="1016pt" height="962pt"
 viewBox="0.00 0.00 1015.90 962.22" xmlns="http://www.w3.org/2000/svg" xmlns:xlink="http://www.w3.org/1999/xlink">
<g id="graph0" class="graph" transform="scale(1 1) rotate(0) translate(4 958.22)">
<title>%3</title>
<polygon fill="white" stroke="transparent" points="-4,4 -4,-958.22 1011.9,-958.22 1011.9,4 -4,4"/>
<!-- Enzyme(177) -->
<g id="node1" class="node">
<title>Enzyme(177)</title>
<polygon fill="none" stroke="darkgreen" points="486.76,-746.76 486.76,-761.68 449.81,-772.22 397.57,-772.22 360.62,-761.68 360.62,-746.76 397.57,-736.22 449.81,-736.22 486.76,-746.76"/>
<polygon fill="none" stroke="darkgreen" points="490.76,-743.75 490.76,-764.69 450.37,-776.22 397.01,-776.22 356.62,-764.69 356.62,-743.75 397.01,-732.22 450.37,-732.22 490.76,-743.75"/>
<text text-anchor="middle" x="423.69" y="-750.02" font-family="Times,serif" font-size="14.00">Enzyme(177)</text>
</g>
<!-- CelComp(5) -->
<g id="node2" class="node">
<title>CelComp(5)</title>
<polygon fill="none" stroke="darkgreen" points="771.47,-695.76 771.47,-710.68 737.14,-721.22 688.59,-721.22 654.27,-710.68 654.27,-695.76 688.59,-685.22 737.14,-685.22 771.47,-695.76"/>
<polygon fill="none" stroke="darkgreen" points="775.46,-692.81 775.46,-713.63 737.74,-725.22 688,-725.22 650.28,-713.63 650.28,-692.81 688,-681.22 737.74,-681.22 775.46,-692.81"/>
<text text-anchor="middle" x="712.87" y="-699.02" font-family="Times,serif" font-size="14.00">CelComp(5)</text>
</g>
<!-- Gene(1) -->
<g id="node3" class="node">
<title>Gene(1)</title>
<ellipse fill="none" stroke="red" cx="43.08" cy="-61.22" rx="39.15" ry="39.15"/>
<ellipse fill="none" stroke="red" cx="43.08" cy="-61.22" rx="43.15" ry="43.15"/>
<text text-anchor="middle" x="43.08" y="-57.02" font-family="Times,serif" font-size="14.00">Gene(1)</text>
</g>
<!-- Protein(7) -->
<g id="node6" class="node">
<title>Protein(7)</title>
<polygon fill="none" stroke="darkgreen" points="473.21,-82.76 473.21,-97.68 444.2,-108.22 403.18,-108.22 374.17,-97.68 374.17,-82.76 403.18,-72.22 444.2,-72.22 473.21,-82.76"/>
<polygon fill="none" stroke="darkgreen" points="477.19,-79.96 477.19,-100.48 444.9,-112.22 402.48,-112.22 370.19,-100.48 370.19,-79.96 402.48,-68.22 444.9,-68.22 477.19,-79.96"/>
<text text-anchor="middle" x="423.69" y="-86.02" font-family="Times,serif" font-size="14.00">Protein(7)</text>
</g>
<!-- Gene(1)&#45;&gt;Protein(7) -->
<g id="edge4" class="edge">
<title>Gene(1)&#45;&gt;Protein(7)</title>
<path fill="none" stroke="blue" d="M86.04,-64.43C152.47,-69.52 282.23,-79.46 359.82,-85.4"/>
<polygon fill="blue" stroke="blue" points="359.7,-88.91 369.94,-86.18 360.24,-81.93 359.7,-88.91"/>
<text text-anchor="middle" x="191.97" y="-79.02" font-family="Times,serif" font-size="14.00">enc</text>
</g>
<!-- Publication(2) -->
<g id="node10" class="node">
<title>Publication(2)</title>
<polygon fill="none" stroke="darkgreen" points="778.77,-184.76 778.77,-199.68 740.16,-210.22 685.57,-210.22 646.97,-199.68 646.97,-184.76 685.57,-174.22 740.16,-174.22 778.77,-184.76"/>
<polygon fill="none" stroke="darkgreen" points="782.78,-181.71 782.78,-202.73 740.7,-214.22 685.04,-214.22 642.96,-202.73 642.96,-181.71 685.04,-170.22 740.7,-170.22 782.78,-181.71"/>
<text text-anchor="middle" x="712.87" y="-188.02" font-family="Times,serif" font-size="14.00">Publication(2)</text>
</g>
<!-- Gene(1)&#45;&gt;Publication(2) -->
<g id="edge3" class="edge">
<title>Gene(1)&#45;&gt;Publication(2)</title>
<path fill="none" stroke="black" d="M85.46,-52.6C167.33,-37.36 354.72,-11.52 501.37,-59.22 574.65,-83.06 574.78,-122.79 641.57,-161.22 647.04,-164.36 652.88,-167.4 658.77,-170.27"/>
<polygon fill="black" stroke="black" points="657.49,-173.53 668.03,-174.62 660.47,-167.2 657.49,-173.53"/>
<text text-anchor="middle" x="294.18" y="-36.02" font-family="Times,serif" font-size="14.00">occ_in</text>
</g>
<!-- TO(16) -->
<g id="node11" class="node">
<title>TO(16)</title>
<polygon fill="none" stroke="darkgreen" points="752.33,-122.76 752.33,-137.68 729.21,-148.22 696.53,-148.22 673.41,-137.68 673.41,-122.76 696.53,-112.22 729.21,-112.22 752.33,-122.76"/>
<polygon fill="none" stroke="darkgreen" points="756.33,-120.19 756.33,-140.25 730.08,-152.22 695.66,-152.22 669.41,-140.25 669.41,-120.19 695.66,-108.22 730.08,-108.22 756.33,-120.19"/>
<text text-anchor="middle" x="712.87" y="-126.02" font-family="Times,serif" font-size="14.00">TO(16)</text>
</g>
<!-- Gene(1)&#45;&gt;TO(16) -->
<g id="edge2" class="edge">
<title>Gene(1)&#45;&gt;TO(16)</title>
<path fill="none" stroke="blue" d="M78.74,-36.56C86.78,-31.8 95.51,-27.34 104.15,-24.22 170.11,-0.45 190.42,-7.12 260.35,-2.22 382.81,6.36 611.86,-18.19 623.57,-24.22 655.44,-40.62 680.22,-74.06 695.31,-99.02"/>
<polygon fill="blue" stroke="blue" points="692.36,-100.91 700.43,-107.78 698.41,-97.38 692.36,-100.91"/>
<text text-anchor="middle" x="294.18" y="-5.02" font-family="Times,serif" font-size="14.00">cooc_wi</text>
</g>
<!-- Protein(10) -->
<g id="node16" class="node">
<title>Protein(10)</title>
<ellipse fill="none" stroke="black" cx="191.97" cy="-497.22" rx="50.27" ry="18"/>
<text text-anchor="middle" x="191.97" y="-493.02" font-family="Times,serif" font-size="14.00">Protein(10)</text>
</g>
<!-- Gene(1)&#45;&gt;Protein(10) -->
<g id="edge1" class="edge">
<title>Gene(1)&#45;&gt;Protein(10)</title>
<path fill="none" stroke="black" d="M57.76,-101.85C87.35,-189.67 156.63,-395.3 181.7,-469.72"/>
<polygon fill="black" stroke="black" points="178.43,-470.96 184.94,-479.32 185.06,-468.73 178.43,-470.96"/>
<text text-anchor="middle" x="113.87" y="-296.02" font-family="Times,serif" font-size="14.00">enc</text>
</g>
<!-- BioProc(4) -->
<g id="node4" class="node">
<title>BioProc(4)</title>
<polygon fill="none" stroke="darkgreen" points="766.32,-588.76 766.32,-603.68 735.01,-614.22 690.73,-614.22 659.42,-603.68 659.42,-588.76 690.73,-578.22 735.01,-578.22 766.32,-588.76"/>
<polygon fill="none" stroke="darkgreen" points="770.32,-585.89 770.32,-606.55 735.67,-618.22 690.07,-618.22 655.42,-606.55 655.42,-585.89 690.07,-574.22 735.67,-574.22 770.32,-585.89"/>
<text text-anchor="middle" x="712.87" y="-592.02" font-family="Times,serif" font-size="14.00">BioProc(4)</text>
</g>
<!-- Gene(8) -->
<g id="node5" class="node">
<title>Gene(8)</title>
<polygon fill="none" stroke="darkgreen" points="754.98,-482.76 754.98,-497.68 730.31,-508.22 695.43,-508.22 670.76,-497.68 670.76,-482.76 695.43,-472.22 730.31,-472.22 754.98,-482.76"/>
<polygon fill="none" stroke="darkgreen" points="758.96,-480.12 758.96,-500.32 731.12,-512.22 694.61,-512.22 666.78,-500.32 666.78,-480.12 694.61,-468.22 731.12,-468.22 758.96,-480.12"/>
<text text-anchor="middle" x="712.87" y="-486.02" font-family="Times,serif" font-size="14.00">Gene(8)</text>
</g>
<!-- Reaction(188) -->
<g id="node7" class="node">
<title>Reaction(188)</title>
<polygon fill="none" stroke="darkgreen" points="778.75,-826.76 778.75,-841.68 740.16,-852.22 685.58,-852.22 646.99,-841.68 646.99,-826.76 685.58,-816.22 740.16,-816.22 778.75,-826.76"/>
<polygon fill="none" stroke="darkgreen" points="782.76,-823.71 782.76,-844.73 740.7,-856.22 685.04,-856.22 642.98,-844.73 642.98,-823.71 685.04,-812.22 740.7,-812.22 782.76,-823.71"/>
<text text-anchor="middle" x="712.87" y="-830.02" font-family="Times,serif" font-size="14.00">Reaction(188)</text>
</g>
<!-- Path(19) -->
<g id="node8" class="node">
<title>Path(19)</title>
<polygon fill="none" stroke="darkgreen" points="1002.56,-768.76 1002.56,-783.68 976.89,-794.22 940.6,-794.22 914.93,-783.68 914.93,-768.76 940.6,-758.22 976.89,-758.22 1002.56,-768.76"/>
<polygon fill="none" stroke="darkgreen" points="1006.55,-766.08 1006.55,-786.36 977.68,-798.22 939.81,-798.22 910.94,-786.36 910.94,-766.08 939.81,-754.22 977.68,-754.22 1006.55,-766.08"/>
<text text-anchor="middle" x="958.74" y="-772.02" font-family="Times,serif" font-size="14.00">Path(19)</text>
</g>
<!-- MolFunc(3) -->
<g id="node9" class="node">
<title>MolFunc(3)</title>
<polygon fill="none" stroke="darkgreen" points="770.26,-298.76 770.26,-313.68 736.64,-324.22 689.1,-324.22 655.48,-313.68 655.48,-298.76 689.1,-288.22 736.64,-288.22 770.26,-298.76"/>
<polygon fill="none" stroke="darkgreen" points="774.27,-295.83 774.27,-316.61 737.26,-328.22 688.48,-328.22 651.47,-316.61 651.47,-295.83 688.48,-284.22 737.26,-284.22 774.27,-295.83"/>
<text text-anchor="middle" x="712.87" y="-302.02" font-family="Times,serif" font-size="14.00">MolFunc(3)</text>
</g>
<!-- Trait(21) -->
<g id="node12" class="node">
<title>Trait(21)</title>
<polygon fill="none" stroke="darkgreen" points="1004.05,-356.76 1004.05,-371.68 977.51,-382.22 939.98,-382.22 913.44,-371.68 913.44,-356.76 939.98,-346.22 977.51,-346.22 1004.05,-356.76"/>
<polygon fill="none" stroke="darkgreen" points="1008.06,-354.05 1008.06,-374.39 978.28,-386.22 939.21,-386.22 909.43,-374.39 909.43,-354.05 939.21,-342.22 978.28,-342.22 1008.06,-354.05"/>
<text text-anchor="middle" x="958.74" y="-360.02" font-family="Times,serif" font-size="14.00">Trait(21)</text>
</g>
<!-- Phenotype(13) -->
<g id="node13" class="node">
<title>Phenotype(13)</title>
<polygon fill="none" stroke="darkgreen" points="779.98,-414.76 779.98,-429.68 740.67,-440.22 685.07,-440.22 645.76,-429.68 645.76,-414.76 685.07,-404.22 740.67,-404.22 779.98,-414.76"/>
<polygon fill="none" stroke="darkgreen" points="783.96,-411.69 783.96,-432.75 741.19,-444.22 684.55,-444.22 641.77,-432.75 641.77,-411.69 684.55,-400.22 741.19,-400.22 783.96,-411.69"/>
<text text-anchor="middle" x="712.87" y="-418.02" font-family="Times,serif" font-size="14.00">Phenotype(13)</text>
</g>
<!-- ProtDomain(14) -->
<g id="node14" class="node">
<title>ProtDomain(14)</title>
<polygon fill="none" stroke="darkgreen" points="497.55,-924.76 497.55,-939.68 454.28,-950.22 393.1,-950.22 349.84,-939.68 349.84,-924.76 393.1,-914.22 454.28,-914.22 497.55,-924.76"/>
<polygon fill="none" stroke="darkgreen" points="501.55,-921.62 501.55,-942.82 454.76,-954.22 392.62,-954.22 345.83,-942.82 345.83,-921.62 392.62,-910.22 454.76,-910.22 501.55,-921.62"/>
<text text-anchor="middle" x="423.69" y="-928.02" font-family="Times,serif" font-size="14.00">ProtDomain(14)</text>
</g>
<!-- EC(15) -->
<g id="node15" class="node">
<title>EC(15)</title>
<polygon fill="none" stroke="darkgreen" points="462.92,-862.76 462.92,-877.68 439.94,-888.22 407.44,-888.22 384.46,-877.68 384.46,-862.76 407.44,-852.22 439.94,-852.22 462.92,-862.76"/>
<polygon fill="none" stroke="darkgreen" points="466.93,-860.2 466.93,-880.24 440.82,-892.22 406.56,-892.22 380.45,-880.24 380.45,-860.2 406.56,-848.22 440.82,-848.22 466.93,-860.2"/>
<text text-anchor="middle" x="423.69" y="-866.02" font-family="Times,serif" font-size="14.00">EC(15)</text>
</g>
<!-- Protein(10)&#45;&gt;Enzyme(177) -->
<g id="edge5" class="edge">
<title>Protein(10)&#45;&gt;Enzyme(177)</title>
<path fill="none" stroke="black" d="M192.97,-515.44C194.01,-557.08 202.64,-659.85 260.35,-714.22 283.42,-735.95 316.33,-746.42 346.49,-751.28"/>
<polygon fill="black" stroke="black" points="346.21,-754.78 356.6,-752.73 347.2,-747.85 346.21,-754.78"/>
<text text-anchor="middle" x="294.18" y="-750.02" font-family="Times,serif" font-size="14.00">is_a</text>
</g>
<!-- Protein(10)&#45;&gt;CelComp(5) -->
<g id="edge12" class="edge">
<title>Protein(10)&#45;&gt;CelComp(5)</title>
<path fill="none" stroke="blue" d="M195.24,-515.35C200.4,-548.55 216.22,-618.98 260.35,-655.22 290.42,-679.9 307.91,-665.37 346.01,-673.22 423,-689.08 441.16,-700.4 519.37,-708.22 565.45,-712.82 577.28,-709.53 623.57,-708.22 628.94,-708.07 634.5,-707.86 640.08,-707.63"/>
<polygon fill="blue" stroke="blue" points="640.31,-711.12 650.14,-707.16 639.99,-704.13 640.31,-711.12"/>
<text text-anchor="middle" x="423.69" y="-708.02" font-family="Times,serif" font-size="14.00">located_in</text>
</g>
<!-- Protein(10)&#45;&gt;BioProc(4) -->
<g id="edge6" class="edge">
<title>Protein(10)&#45;&gt;BioProc(4)</title>
<path fill="none" stroke="blue" d="M230.18,-509.29C290.29,-528.24 412.78,-564.62 519.37,-582.22 560.77,-589.06 607.73,-592.56 644.9,-594.34"/>
<polygon fill="blue" stroke="blue" points="644.97,-597.85 655.12,-594.81 645.28,-590.86 644.97,-597.85"/>
<text text-anchor="middle" x="423.69" y="-581.02" font-family="Times,serif" font-size="14.00">participates_in</text>
</g>
<!-- Protein(10)&#45;&gt;Gene(8) -->
<g id="edge7" class="edge">
<title>Protein(10)&#45;&gt;Gene(8)</title>
<path fill="none" stroke="black" d="M242.72,-496.55C340.08,-495.24 555.12,-492.33 656.69,-490.96"/>
<polygon fill="black" stroke="black" points="656.79,-494.46 666.74,-490.83 656.69,-487.46 656.79,-494.46"/>
<text text-anchor="middle" x="423.69" y="-498.02" font-family="Times,serif" font-size="14.00">enc</text>
</g>
<!-- Protein(10)&#45;&gt;Protein(7) -->
<g id="edge8" class="edge">
<title>Protein(10)&#45;&gt;Protein(7)</title>
<path fill="none" stroke="blue" d="M193.53,-478.99C196.04,-410.5 208.47,-169.83 260.35,-118.22 274.34,-104.3 320.42,-97.25 359.92,-93.71"/>
<polygon fill="blue" stroke="blue" points="360.39,-97.19 370.06,-92.86 359.81,-90.21 360.39,-97.19"/>
<text text-anchor="middle" x="294.18" y="-149.02" font-family="Times,serif" font-size="14.00">ortho(&lt;=4)</text>
<text text-anchor="middle" x="294.18" y="-135.02" font-family="Times,serif" font-size="14.00">xref(&lt;=6)</text>
<text text-anchor="middle" x="294.18" y="-121.02" font-family="Times,serif" font-size="14.00">h_s_s(&lt;=4)</text>
</g>
<!-- Protein(10)&#45;&gt;MolFunc(3) -->
<g id="edge19" class="edge">
<title>Protein(10)&#45;&gt;MolFunc(3)</title>
<path fill="none" stroke="black" d="M199.09,-479.23C215.03,-435.88 262.44,-326.65 346.01,-292.22 447.61,-250.36 578.82,-271.42 653.33,-289.51"/>
<polygon fill="black" stroke="black" points="652.9,-293.01 663.45,-292.03 654.6,-286.22 652.9,-293.01"/>
<text text-anchor="middle" x="423.69" y="-295.02" font-family="Times,serif" font-size="14.00">has_function</text>
</g>
<!-- Protein(10)&#45;&gt;Publication(2) -->
<g id="edge13" class="edge">
<title>Protein(10)&#45;&gt;Publication(2)</title>
<path fill="none" stroke="black" d="M194.84,-479.02C199.55,-441.47 214.96,-354.27 260.35,-299.22 350.38,-190.05 529.43,-180.32 632.96,-184.96"/>
<polygon fill="black" stroke="black" points="632.88,-188.46 643.04,-185.47 633.23,-181.47 632.88,-188.46"/>
<text text-anchor="middle" x="423.69" y="-233.02" font-family="Times,serif" font-size="14.00">pub_in</text>
</g>
<!-- Protein(10)&#45;&gt;TO(16) -->
<g id="edge18" class="edge">
<title>Protein(10)&#45;&gt;TO(16)</title>
<path fill="none" stroke="blue" d="M193.78,-479.05C196.56,-434.55 208.63,-317.96 260.35,-239.22 286.89,-198.82 301.29,-190.55 346.01,-172.22 450.74,-129.29 585.6,-125.65 658.82,-127.49"/>
<polygon fill="blue" stroke="blue" points="659.06,-131 669.16,-127.8 659.27,-124 659.06,-131"/>
<text text-anchor="middle" x="423.69" y="-175.02" font-family="Times,serif" font-size="14.00">cooc_wi</text>
</g>
<!-- Protein(10)&#45;&gt;ProtDomain(14) -->
<g id="edge15" class="edge">
<title>Protein(10)&#45;&gt;ProtDomain(14)</title>
<path fill="none" stroke="black" d="M193.84,-515.61C197.44,-583.6 213.17,-819.74 260.35,-875.22 279.48,-897.71 308.04,-911.33 335.9,-919.58"/>
<polygon fill="black" stroke="black" points="335.13,-923 345.7,-922.28 336.99,-916.25 335.13,-923"/>
<text text-anchor="middle" x="294.18" y="-919.02" font-family="Times,serif" font-size="14.00">has_domain</text>
</g>
<!-- Protein(10)&#45;&gt;EC(15) -->
<g id="edge16" class="edge">
<title>Protein(10)&#45;&gt;EC(15)</title>
<path fill="none" stroke="blue" d="M194.39,-515.42C199.53,-576.62 219.02,-773.62 260.35,-819.22 288.16,-849.9 334.18,-862.27 370.14,-867.19"/>
<polygon fill="blue" stroke="blue" points="370.12,-870.71 380.46,-868.44 370.96,-863.76 370.12,-870.71"/>
<text text-anchor="middle" x="294.18" y="-860.02" font-family="Times,serif" font-size="14.00">cat_c</text>
</g>
<!-- Protein(10)&#45;&gt;Protein(10) -->
<g id="edge10" class="edge">
<title>Protein(10)&#45;&gt;Protein(10)</title>
<path fill="none" stroke="blue" d="M178.04,-514.63C175.44,-524.31 180.08,-533.22 191.97,-533.22 199.39,-533.22 203.99,-529.74 205.76,-524.76"/>
<polygon fill="blue" stroke="blue" points="209.26,-524.67 205.89,-514.63 202.26,-524.58 209.26,-524.67"/>
<text text-anchor="middle" x="191.97" y="-564.02" font-family="Times,serif" font-size="14.00">ortho(&lt;=4)</text>
<text text-anchor="middle" x="191.97" y="-550.02" font-family="Times,serif" font-size="14.00">xref(&lt;=6)</text>
<text text-anchor="middle" x="191.97" y="-536.02" font-family="Times,serif" font-size="14.00">h_s_s(&lt;=4)</text>
</g>
<!-- Enzyme(17) -->
<g id="node17" class="node">
<title>Enzyme(17)</title>
<ellipse fill="none" stroke="black" cx="423.69" cy="-812.22" rx="53.63" ry="18"/>
<text text-anchor="middle" x="423.69" y="-808.02" font-family="Times,serif" font-size="14.00">Enzyme(17)</text>
</g>
<!-- Protein(10)&#45;&gt;Enzyme(17) -->
<g id="edge9" class="edge">
<title>Protein(10)&#45;&gt;Enzyme(17)</title>
<path fill="none" stroke="black" d="M195.17,-515.39C202.11,-569.6 225.12,-728.71 260.35,-765.22 286.11,-791.91 326.02,-803.7 359.82,-808.8"/>
<polygon fill="black" stroke="black" points="359.71,-812.32 370.09,-810.18 360.64,-805.38 359.71,-812.32"/>
<text text-anchor="middle" x="294.18" y="-804.02" font-family="Times,serif" font-size="14.00">is_a</text>
</g>
<!-- ProtDomain(11) -->
<g id="node18" class="node">
<title>ProtDomain(11)</title>
<ellipse fill="none" stroke="black" cx="423.69" cy="-646.22" rx="68" ry="18"/>
<text text-anchor="middle" x="423.69" y="-642.02" font-family="Times,serif" font-size="14.00">ProtDomain(11)</text>
</g>
<!-- Protein(10)&#45;&gt;ProtDomain(11) -->
<g id="edge11" class="edge">
<title>Protein(10)&#45;&gt;ProtDomain(11)</title>
<path fill="none" stroke="black" d="M198.59,-515.24C207.47,-540.57 227.21,-586.28 260.35,-610.22 285.16,-628.14 317.25,-637.39 346.35,-642.08"/>
<polygon fill="black" stroke="black" points="346.1,-645.58 356.5,-643.56 347.11,-638.66 346.1,-645.58"/>
<text text-anchor="middle" x="294.18" y="-640.02" font-family="Times,serif" font-size="14.00">has_domain</text>
</g>
<!-- Gene(9) -->
<g id="node19" class="node">
<title>Gene(9)</title>
<ellipse fill="none" stroke="black" cx="423.69" cy="-397.22" rx="39.15" ry="18"/>
<text text-anchor="middle" x="423.69" y="-393.02" font-family="Times,serif" font-size="14.00">Gene(9)</text>
</g>
<!-- Protein(10)&#45;&gt;Gene(9) -->
<g id="edge14" class="edge">
<title>Protein(10)&#45;&gt;Gene(9)</title>
<path fill="none" stroke="blue" d="M224.91,-483.32C266.95,-465.02 340.71,-432.9 385.3,-413.49"/>
<polygon fill="blue" stroke="blue" points="386.85,-416.64 394.62,-409.44 384.06,-410.22 386.85,-416.64"/>
<text text-anchor="middle" x="294.18" y="-471.02" font-family="Times,serif" font-size="14.00">enc</text>
</g>
<!-- EC(12) -->
<g id="node20" class="node">
<title>EC(12)</title>
<ellipse fill="none" stroke="black" cx="423.69" cy="-333.22" rx="36.28" ry="18"/>
<text text-anchor="middle" x="423.69" y="-329.02" font-family="Times,serif" font-size="14.00">EC(12)</text>
</g>
<!-- Protein(10)&#45;&gt;EC(12) -->
<g id="edge17" class="edge">
<title>Protein(10)&#45;&gt;EC(12)</title>
<path fill="none" stroke="black" d="M206.81,-479.78C219.7,-464.17 239.93,-441.21 260.35,-424.22 294.95,-395.44 306.65,-392.03 346.01,-370.22 359.12,-362.96 373.87,-355.64 386.91,-349.46"/>
<polygon fill="black" stroke="black" points="388.49,-352.58 396.05,-345.17 385.51,-346.25 388.49,-352.58"/>
<text text-anchor="middle" x="294.18" y="-427.02" font-family="Times,serif" font-size="14.00">cat_c</text>
</g>
<!-- Enzyme(17)&#45;&gt;Reaction(188) -->
<g id="edge20" class="edge">
<title>Enzyme(17)&#45;&gt;Reaction(188)</title>
<path fill="none" stroke="black" d="M476.36,-816.18C519.95,-819.52 583.03,-824.35 632.94,-828.17"/>
<polygon fill="black" stroke="black" points="632.81,-831.67 643.05,-828.95 633.35,-824.69 632.81,-831.67"/>
<text text-anchor="middle" x="571.47" y="-829.02" font-family="Times,serif" font-size="14.00">ca_by</text>
</g>
<!-- Reaction(18) -->
<g id="node21" class="node">
<title>Reaction(18)</title>
<ellipse fill="none" stroke="black" cx="712.87" cy="-776.22" rx="56.04" ry="18"/>
<text text-anchor="middle" x="712.87" y="-772.02" font-family="Times,serif" font-size="14.00">Reaction(18)</text>
</g>
<!-- Enzyme(17)&#45;&gt;Reaction(18) -->
<g id="edge21" class="edge">
<title>Enzyme(17)&#45;&gt;Reaction(18)</title>
<path fill="none" stroke="blue" d="M474.39,-805.99C523,-799.9 597.18,-790.6 649.68,-784.02"/>
<polygon fill="blue" stroke="blue" points="650.39,-787.45 659.88,-782.74 649.52,-780.51 650.39,-787.45"/>
<text text-anchor="middle" x="571.47" y="-802.02" font-family="Times,serif" font-size="14.00">ca_by</text>
</g>
<!-- ProtDomain(11)&#45;&gt;CelComp(5) -->
<g id="edge25" class="edge">
<title>ProtDomain(11)&#45;&gt;CelComp(5)</title>
<path fill="none" stroke="black" d="M469.71,-659.66C485.35,-664.03 503.05,-668.67 519.37,-672.22 558.98,-680.82 603.65,-688.16 639.98,-693.53"/>
<polygon fill="black" stroke="black" points="639.6,-697.01 650,-695 640.61,-690.09 639.6,-697.01"/>
<text text-anchor="middle" x="571.47" y="-693.02" font-family="Times,serif" font-size="14.00">located_in</text>
</g>
<!-- ProtDomain(11)&#45;&gt;BioProc(4) -->
<g id="edge23" class="edge">
<title>ProtDomain(11)&#45;&gt;BioProc(4)</title>
<path fill="none" stroke="black" d="M486.19,-653.18C526,-655.85 578.62,-655.89 623.57,-644.22 641.5,-639.57 659.75,-630.52 674.96,-621.52"/>
<polygon fill="black" stroke="black" points="676.84,-624.47 683.54,-616.26 673.19,-618.5 676.84,-624.47"/>
<text text-anchor="middle" x="571.47" y="-657.02" font-family="Times,serif" font-size="14.00">participates_in</text>
</g>
<!-- ProtDomain(11)&#45;&gt;MolFunc(3) -->
<g id="edge24" class="edge">
<title>ProtDomain(11)&#45;&gt;MolFunc(3)</title>
<path fill="none" stroke="blue" d="M472.19,-633.38C482.83,-628.73 493.33,-622.5 501.37,-614.22 516.95,-598.17 502.36,-581.74 519.37,-567.22 555.37,-536.49 592.2,-580.66 623.57,-545.22 654.32,-510.48 614.58,-374.96 641.57,-337.22 644.82,-332.68 648.89,-328.79 653.42,-325.47"/>
<polygon fill="blue" stroke="blue" points="655.4,-328.36 662,-320.08 651.67,-322.43 655.4,-328.36"/>
<text text-anchor="middle" x="571.47" y="-570.02" font-family="Times,serif" font-size="14.00">has_function</text>
</g>
<!-- Gene(9)&#45;&gt;CelComp(5) -->
<g id="edge32" class="edge">
<title>Gene(9)&#45;&gt;CelComp(5)</title>
<path fill="none" stroke="blue" d="M445.56,-412.36C463.4,-426.51 488.23,-449.31 501.37,-475.22 523.79,-519.4 488.26,-546.67 519.37,-585.22 550.63,-623.95 581.04,-600.38 623.57,-626.22 645.23,-639.38 666.73,-657.97 683.08,-673.59"/>
<polygon fill="blue" stroke="blue" points="681.07,-676.52 690.68,-680.98 685.95,-671.5 681.07,-676.52"/>
<text text-anchor="middle" x="571.47" y="-629.02" font-family="Times,serif" font-size="14.00">located_in</text>
</g>
<!-- Gene(9)&#45;&gt;BioProc(4) -->
<g id="edge34" class="edge">
<title>Gene(9)&#45;&gt;BioProc(4)</title>
<path fill="none" stroke="blue" d="M438.95,-414.06C456.32,-433.72 487.31,-466.22 519.37,-487.22 561.43,-514.76 579.87,-506.37 623.57,-531.22 642.74,-542.12 662.63,-556.46 678.67,-568.9"/>
<polygon fill="blue" stroke="blue" points="676.66,-571.77 686.69,-575.2 680.99,-566.27 676.66,-571.77"/>
<text text-anchor="middle" x="571.47" y="-534.02" font-family="Times,serif" font-size="14.00">participates_in</text>
</g>
<!-- Gene(9)&#45;&gt;Gene(8) -->
<g id="edge30" class="edge">
<title>Gene(9)&#45;&gt;Gene(8)</title>
<path fill="none" stroke="blue" d="M453.35,-408.98C471.96,-416.32 496.84,-425.6 519.37,-432.22 564.88,-445.58 578.23,-441.33 623.57,-455.22 638.43,-459.77 654.32,-465.72 668.46,-471.41"/>
<polygon fill="blue" stroke="blue" points="667.36,-474.74 677.94,-475.29 670.01,-468.26 667.36,-474.74"/>
<text text-anchor="middle" x="571.47" y="-472.02" font-family="Times,serif" font-size="14.00">physical(&lt;=8)</text>
<text text-anchor="middle" x="571.47" y="-458.02" font-family="Times,serif" font-size="14.00">genetic(&lt;=8)</text>
</g>
<!-- Gene(9)&#45;&gt;MolFunc(3) -->
<g id="edge33" class="edge">
<title>Gene(9)&#45;&gt;MolFunc(3)</title>
<path fill="none" stroke="black" d="M451.64,-384.64C470.38,-376.19 496.07,-365.18 519.37,-357.22 561.42,-342.85 609.76,-330.05 647.48,-320.87"/>
<polygon fill="black" stroke="black" points="648.43,-324.25 657.33,-318.5 646.79,-317.44 648.43,-324.25"/>
<text text-anchor="middle" x="571.47" y="-360.02" font-family="Times,serif" font-size="14.00">has_function</text>
</g>
<!-- Gene(9)&#45;&gt;Publication(2) -->
<g id="edge31" class="edge">
<title>Gene(9)&#45;&gt;Publication(2)</title>
<path fill="none" stroke="black" d="M457.99,-388.41C473.3,-382.74 490.45,-373.82 501.37,-360.22 523.12,-333.16 497.58,-311.24 519.37,-284.22 537.61,-261.6 605.8,-232.15 655.85,-212.74"/>
<polygon fill="black" stroke="black" points="657.21,-215.97 665.29,-209.12 654.7,-209.44 657.21,-215.97"/>
<text text-anchor="middle" x="571.47" y="-287.02" font-family="Times,serif" font-size="14.00">pub_in</text>
</g>
<!-- Gene(9)&#45;&gt;TO(16) -->
<g id="edge26" class="edge">
<title>Gene(9)&#45;&gt;TO(16)</title>
<path fill="none" stroke="blue" d="M458.68,-388.93C474.15,-383.39 491.24,-374.42 501.37,-360.22 540.64,-305.21 478.47,-263.02 519.37,-209.22 524.13,-202.96 611.4,-168.7 666.78,-147.4"/>
<polygon fill="blue" stroke="blue" points="668.31,-150.56 676.39,-143.71 665.8,-144.03 668.31,-150.56"/>
<text text-anchor="middle" x="571.47" y="-212.02" font-family="Times,serif" font-size="14.00">cooc_wi</text>
</g>
<!-- Gene(9)&#45;&gt;Phenotype(13) -->
<g id="edge29" class="edge">
<title>Gene(9)&#45;&gt;Phenotype(13)</title>
<path fill="none" stroke="black" d="M462.23,-400.49C504.96,-404.21 575.98,-410.39 631.37,-415.21"/>
<polygon fill="black" stroke="black" points="631.26,-418.72 641.52,-416.1 631.86,-411.74 631.26,-418.72"/>
<text text-anchor="middle" x="571.47" y="-417.02" font-family="Times,serif" font-size="14.00">has_observ_pheno</text>
</g>
<!-- Gene(9)&#45;&gt;Gene(9) -->
<g id="edge27" class="edge">
<title>Gene(9)&#45;&gt;Gene(9)</title>
<path fill="none" stroke="black" d="M402.03,-412.39C395.47,-422.88 402.69,-433.22 423.69,-433.22 437.8,-433.22 445.69,-428.55 447.36,-422.31"/>
<polygon fill="black" stroke="black" points="450.76,-421.49 445.35,-412.39 443.9,-422.88 450.76,-421.49"/>
<text text-anchor="middle" x="423.69" y="-450.02" font-family="Times,serif" font-size="14.00">genetic(&lt;=8)</text>
<text text-anchor="middle" x="423.69" y="-436.02" font-family="Times,serif" font-size="14.00">physical(&lt;=8)</text>
</g>
<!-- SNP(20) -->
<g id="node22" class="node">
<title>SNP(20)</title>
<ellipse fill="none" stroke="black" cx="712.87" cy="-364.22" rx="41.13" ry="18"/>
<text text-anchor="middle" x="712.87" y="-360.02" font-family="Times,serif" font-size="14.00">SNP(20)</text>
</g>
<!-- Gene(9)&#45;&gt;SNP(20) -->
<g id="edge28" class="edge">
<title>Gene(9)&#45;&gt;SNP(20)</title>
<path fill="none" stroke="blue" d="M461.94,-392.94C513.23,-387.05 605.71,-376.42 662.65,-369.88"/>
<polygon fill="blue" stroke="blue" points="663.31,-373.32 672.85,-368.7 662.52,-366.37 663.31,-373.32"/>
<text text-anchor="middle" x="571.47" y="-389.02" font-family="Times,serif" font-size="14.00">has_variation</text>
</g>
<!-- EC(12)&#45;&gt;MolFunc(3) -->
<g id="edge36" class="edge">
<title>EC(12)&#45;&gt;MolFunc(3)</title>
<path fill="none" stroke="black" d="M453.7,-323.12C472.23,-317.2 496.91,-310.31 519.37,-307.22 559.47,-301.71 604.71,-301.19 641.26,-302.17"/>
<polygon fill="black" stroke="black" points="641.22,-305.67 651.32,-302.48 641.44,-298.67 641.22,-305.67"/>
<text text-anchor="middle" x="571.47" y="-310.02" font-family="Times,serif" font-size="14.00">equ</text>
</g>
<!-- Reaction(18)&#45;&gt;Path(19) -->
<g id="edge22" class="edge">
<title>Reaction(18)&#45;&gt;Path(19)</title>
<path fill="none" stroke="blue" d="M769.21,-776.22C808.51,-776.22 861.13,-776.22 900.79,-776.22"/>
<polygon fill="blue" stroke="blue" points="900.83,-779.72 910.83,-776.22 900.83,-772.72 900.83,-779.72"/>
<text text-anchor="middle" x="846.88" y="-779.02" font-family="Times,serif" font-size="14.00">part_of</text>
</g>
<!-- SNP(20)&#45;&gt;Trait(21) -->
<g id="edge35" class="edge">
<title>SNP(20)&#45;&gt;Trait(21)</title>
<path fill="none" stroke="blue" d="M754.14,-364.22C793.68,-364.22 854.41,-364.22 899.26,-364.22"/>
<polygon fill="blue" stroke="blue" points="899.44,-367.72 909.44,-364.22 899.44,-360.72 899.44,-367.72"/>
<text text-anchor="middle" x="846.88" y="-367.02" font-family="Times,serif" font-size="14.00">associated_with</text>
</g>
</g>
</svg>
