<svg width="1016pt" height="1004pt"
 viewBox="0.00 0.00 1015.90 1003.84" xmlns="http://www.w3.org/2000/svg" xmlns:xlink="http://www.w3.org/1999/xlink">
<g id="graph0" class="graph" transform="scale(1 1) rotate(0) translate(4 999.84)">
<title>%3</title>
<polygon fill="white" stroke="transparent" points="-4,4 -4,-999.84 1011.9,-999.84 1011.9,4 -4,4"/>
<!-- ProtDomain(14) -->
<g id="node1" class="node">
<title>ProtDomain(14)</title>
<polygon fill="none" stroke="darkgreen" points="497.55,-444.38 497.55,-459.29 454.28,-469.84 393.1,-469.84 349.84,-459.29 349.84,-444.38 393.1,-433.84 454.28,-433.84 497.55,-444.38"/>
<polygon fill="none" stroke="darkgreen" points="501.55,-441.24 501.55,-462.43 454.76,-473.84 392.62,-473.84 345.83,-462.43 345.83,-441.24 392.62,-429.84 454.76,-429.84 501.55,-441.24"/>
<text text-anchor="middle" x="423.69" y="-447.64" font-family="Times,serif" font-size="14.00">ProtDomain(14)</text>
</g>
<!-- CelComp(5) -->
<g id="node2" class="node">
<title>CelComp(5)</title>
<polygon fill="none" stroke="darkgreen" points="771.47,-282.38 771.47,-297.29 737.14,-307.84 688.59,-307.84 654.27,-297.29 654.27,-282.38 688.59,-271.84 737.14,-271.84 771.47,-282.38"/>
<polygon fill="none" stroke="darkgreen" points="775.46,-279.42 775.46,-300.25 737.74,-311.84 688,-311.84 650.28,-300.25 650.28,-279.42 688,-267.84 737.74,-267.84 775.46,-279.42"/>
<text text-anchor="middle" x="712.87" y="-285.64" font-family="Times,serif" font-size="14.00">CelComp(5)</text>
</g>
<!-- Trait(21) -->
<g id="node3" class="node">
<title>Trait(21)</title>
<polygon fill="none" stroke="darkgreen" points="1004.05,-384.38 1004.05,-399.29 977.51,-409.84 939.98,-409.84 913.44,-399.29 913.44,-384.38 939.98,-373.84 977.51,-373.84 1004.05,-384.38"/>
<polygon fill="none" stroke="darkgreen" points="1008.06,-381.67 1008.06,-402 978.28,-413.84 939.21,-413.84 909.43,-402 909.43,-381.67 939.21,-369.84 978.28,-369.84 1008.06,-381.67"/>
<text text-anchor="middle" x="958.74" y="-387.64" font-family="Times,serif" font-size="14.00">Trait(21)</text>
</g>
<!-- Phenotype(13) -->
<g id="node4" class="node">
<title>Phenotype(13)</title>
<polygon fill="none" stroke="darkgreen" points="779.98,-442.38 779.98,-457.29 740.67,-467.84 685.07,-467.84 645.76,-457.29 645.76,-442.38 685.07,-431.84 740.67,-431.84 779.98,-442.38"/>
<polygon fill="none" stroke="darkgreen" points="783.96,-439.31 783.96,-460.36 741.19,-471.84 684.55,-471.84 641.77,-460.36 641.77,-439.31 684.55,-427.84 741.19,-427.84 783.96,-439.31"/>
<text text-anchor="middle" x="712.87" y="-445.64" font-family="Times,serif" font-size="14.00">Phenotype(13)</text>
</g>
<!-- TO(16) -->
<g id="node5" class="node">
<title>TO(16)</title>
<polygon fill="none" stroke="darkgreen" points="752.33,-608.38 752.33,-623.29 729.21,-633.84 696.53,-633.84 673.41,-623.29 673.41,-608.38 696.53,-597.84 729.21,-597.84 752.33,-608.38"/>
<polygon fill="none" stroke="darkgreen" points="756.33,-605.81 756.33,-625.87 730.08,-637.84 695.66,-637.84 669.41,-625.87 669.41,-605.81 695.66,-593.84 730.08,-593.84 756.33,-605.81"/>
<text text-anchor="middle" x="712.87" y="-611.64" font-family="Times,serif" font-size="14.00">TO(16)</text>
</g>
<!-- Gene(8) -->
<g id="node6" class="node">
<title>Gene(8)</title>
<polygon fill="none" stroke="darkgreen" points="754.98,-525.38 754.98,-540.29 730.31,-550.84 695.43,-550.84 670.76,-540.29 670.76,-525.38 695.43,-514.84 730.31,-514.84 754.98,-525.38"/>
<polygon fill="none" stroke="darkgreen" points="758.96,-522.74 758.96,-542.94 731.12,-554.84 694.61,-554.84 666.78,-542.94 666.78,-522.74 694.61,-510.84 731.12,-510.84 758.96,-522.74"/>
<text text-anchor="middle" x="712.87" y="-528.64" font-family="Times,serif" font-size="14.00">Gene(8)</text>
</g>
<!-- Publication(2) -->
<g id="node7" class="node">
<title>Publication(2)</title>
<polygon fill="none" stroke="darkgreen" points="778.77,-670.38 778.77,-685.29 740.16,-695.84 685.57,-695.84 646.97,-685.29 646.97,-670.38 685.57,-659.84 740.16,-659.84 778.77,-670.38"/>
<polygon fill="none" stroke="darkgreen" points="782.78,-667.33 782.78,-688.34 740.7,-699.84 685.04,-699.84 642.96,-688.34 642.96,-667.33 685.04,-655.84 740.7,-655.84 782.78,-667.33"/>
<text text-anchor="middle" x="712.87" y="-673.64" font-family="Times,serif" font-size="14.00">Publication(2)</text>
</g>
<!-- MolFunc(3) -->
<g id="node8" class="node">
<title>MolFunc(3)</title>
<polygon fill="none" stroke="darkgreen" points="770.26,-143.38 770.26,-158.29 736.64,-168.84 689.1,-168.84 655.48,-158.29 655.48,-143.38 689.1,-132.84 736.64,-132.84 770.26,-143.38"/>
<polygon fill="none" stroke="darkgreen" points="774.27,-140.45 774.27,-161.23 737.26,-172.84 688.48,-172.84 651.47,-161.23 651.47,-140.45 688.48,-128.84 737.26,-128.84 774.27,-140.45"/>
<text text-anchor="middle" x="712.87" y="-146.64" font-family="Times,serif" font-size="14.00">MolFunc(3)</text>
</g>
<!-- BioProc(4) -->
<g id="node9" class="node">
<title>BioProc(4)</title>
<polygon fill="none" stroke="darkgreen" points="766.32,-58.38 766.32,-73.29 735.01,-83.84 690.73,-83.84 659.42,-73.29 659.42,-58.38 690.73,-47.84 735.01,-47.84 766.32,-58.38"/>
<polygon fill="none" stroke="darkgreen" points="770.32,-55.51 770.32,-76.17 735.67,-87.84 690.07,-87.84 655.42,-76.17 655.42,-55.51 690.07,-43.84 735.67,-43.84 770.32,-55.51"/>
<text text-anchor="middle" x="712.87" y="-61.64" font-family="Times,serif" font-size="14.00">BioProc(4)</text>
</g>
<!-- Enzyme(177) -->
<g id="node10" class="node">
<title>Enzyme(177)</title>
<polygon fill="none" stroke="darkgreen" points="486.76,-506.38 486.76,-521.29 449.81,-531.84 397.57,-531.84 360.62,-521.29 360.62,-506.38 397.57,-495.84 449.81,-495.84 486.76,-506.38"/>
<polygon fill="none" stroke="darkgreen" points="490.76,-503.36 490.76,-524.31 450.37,-535.84 397.01,-535.84 356.62,-524.31 356.62,-503.36 397.01,-491.84 450.37,-491.84 490.76,-503.36"/>
<text text-anchor="middle" x="423.69" y="-509.64" font-family="Times,serif" font-size="14.00">Enzyme(177)</text>
</g>
<!-- Protein(7) -->
<g id="node11" class="node">
<title>Protein(7)</title>
<polygon fill="none" stroke="darkgreen" points="473.21,-718.38 473.21,-733.29 444.2,-743.84 403.18,-743.84 374.17,-733.29 374.17,-718.38 403.18,-707.84 444.2,-707.84 473.21,-718.38"/>
<polygon fill="none" stroke="darkgreen" points="477.19,-715.57 477.19,-736.1 444.9,-747.84 402.48,-747.84 370.19,-736.1 370.19,-715.57 402.48,-703.84 444.9,-703.84 477.19,-715.57"/>
<text text-anchor="middle" x="423.69" y="-721.64" font-family="Times,serif" font-size="14.00">Protein(7)</text>
</g>
<!-- Reaction(188) -->
<g id="node12" class="node">
<title>Reaction(188)</title>
<polygon fill="none" stroke="darkgreen" points="778.75,-908.38 778.75,-923.29 740.16,-933.84 685.58,-933.84 646.99,-923.29 646.99,-908.38 685.58,-897.84 740.16,-897.84 778.75,-908.38"/>
<polygon fill="none" stroke="darkgreen" points="782.76,-905.33 782.76,-926.34 740.7,-937.84 685.04,-937.84 642.98,-926.34 642.98,-905.33 685.04,-893.84 740.7,-893.84 782.76,-905.33"/>
<text text-anchor="middle" x="712.87" y="-911.64" font-family="Times,serif" font-size="14.00">Reaction(188)</text>
</g>
<!-- Path(19) -->
<g id="node13" class="node">
<title>Path(19)</title>
<polygon fill="none" stroke="darkgreen" points="1002.56,-966.38 1002.56,-981.29 976.89,-991.84 940.6,-991.84 914.93,-981.29 914.93,-966.38 940.6,-955.84 976.89,-955.84 1002.56,-966.38"/>
<polygon fill="none" stroke="darkgreen" points="1006.55,-963.7 1006.55,-983.98 977.68,-995.84 939.81,-995.84 910.94,-983.98 910.94,-963.7 939.81,-951.84 977.68,-951.84 1006.55,-963.7"/>
<text text-anchor="middle" x="958.74" y="-969.64" font-family="Times,serif" font-size="14.00">Path(19)</text>
</g>
<!-- EC(15) -->
<g id="node14" class="node">
<title>EC(15)</title>
<polygon fill="none" stroke="darkgreen" points="462.92,-178.38 462.92,-193.29 439.94,-203.84 407.44,-203.84 384.46,-193.29 384.46,-178.38 407.44,-167.84 439.94,-167.84 462.92,-178.38"/>
<polygon fill="none" stroke="darkgreen" points="466.93,-175.82 466.93,-195.86 440.82,-207.84 406.56,-207.84 380.45,-195.86 380.45,-175.82 406.56,-163.84 440.82,-163.84 466.93,-175.82"/>
<text text-anchor="middle" x="423.69" y="-181.64" font-family="Times,serif" font-size="14.00">EC(15)</text>
</g>
<!-- Gene(1) -->
<g id="node15" class="node">
<title>Gene(1)</title>
<ellipse fill="none" stroke="red" cx="43.08" cy="-788.84" rx="39.15" ry="39.15"/>
<ellipse fill="none" stroke="red" cx="43.08" cy="-788.84" rx="43.15" ry="43.15"/>
<text text-anchor="middle" x="43.08" y="-784.64" font-family="Times,serif" font-size="14.00">Gene(1)</text>
</g>
<!-- Gene(1)&#45;&gt;TO(16) -->
<g id="edge36" class="edge">
<title>Gene(1)&#45;&gt;TO(16)</title>
<path fill="none" stroke="blue" d="M86.21,-785.91C199.26,-778.05 500.77,-757.07 501.37,-756.84 565.24,-732.78 571.53,-708 623.57,-663.84 631.96,-656.72 632.4,-652.92 641.57,-646.84 649.33,-641.69 658.07,-637.05 666.7,-633.01"/>
<polygon fill="blue" stroke="blue" points="668.25,-636.15 675.96,-628.88 665.4,-629.76 668.25,-636.15"/>
<text text-anchor="middle" x="294.18" y="-775.64" font-family="Times,serif" font-size="14.00">cooc_wi</text>
</g>
<!-- Gene(1)&#45;&gt;Publication(2) -->
<g id="edge35" class="edge">
<title>Gene(1)&#45;&gt;Publication(2)</title>
<path fill="none" stroke="black" d="M82.58,-806.33C89.69,-809.32 97.1,-812.29 104.15,-814.84 199.19,-849.22 227.53,-865.76 328.01,-854.84 461.72,-840.31 509.6,-861.26 623.57,-789.84 655.15,-770.05 680.12,-734.81 695.33,-709.13"/>
<polygon fill="black" stroke="black" points="698.55,-710.57 700.49,-700.15 692.48,-707.08 698.55,-710.57"/>
<text text-anchor="middle" x="294.18" y="-860.64" font-family="Times,serif" font-size="14.00">occ_in</text>
</g>
<!-- Gene(1)&#45;&gt;Protein(7) -->
<g id="edge34" class="edge">
<title>Gene(1)&#45;&gt;Protein(7)</title>
<path fill="none" stroke="blue" d="M85.68,-797.15C142.07,-806.67 245.24,-817.84 328.01,-791.84 351.83,-784.35 374.89,-768.52 392.29,-754.23"/>
<polygon fill="blue" stroke="blue" points="395,-756.53 400.36,-747.39 390.47,-751.19 395,-756.53"/>
<text text-anchor="middle" x="191.97" y="-810.64" font-family="Times,serif" font-size="14.00">enc</text>
</g>
<!-- Protein(10) -->
<g id="node16" class="node">
<title>Protein(10)</title>
<ellipse fill="none" stroke="black" cx="191.97" cy="-451.84" rx="50.27" ry="18"/>
<text text-anchor="middle" x="191.97" y="-447.64" font-family="Times,serif" font-size="14.00">Protein(10)</text>
</g>
<!-- Gene(1)&#45;&gt;Protein(10) -->
<g id="edge33" class="edge">
<title>Gene(1)&#45;&gt;Protein(10)</title>
<path fill="none" stroke="black" d="M61.21,-749.52C91.33,-680.42 153.03,-538.89 179.01,-479.27"/>
<polygon fill="black" stroke="black" points="182.36,-480.34 183.15,-469.78 175.94,-477.55 182.36,-480.34"/>
<text text-anchor="middle" x="113.87" y="-653.64" font-family="Times,serif" font-size="14.00">enc</text>
</g>
<!-- Protein(10)&#45;&gt;ProtDomain(14) -->
<g id="edge4" class="edge">
<title>Protein(10)&#45;&gt;ProtDomain(14)</title>
<path fill="none" stroke="blue" d="M242.53,-451.84C269.67,-451.84 304.08,-451.84 335.55,-451.84"/>
<polygon fill="blue" stroke="blue" points="335.65,-455.34 345.65,-451.84 335.65,-448.34 335.65,-455.34"/>
<text text-anchor="middle" x="294.18" y="-454.64" font-family="Times,serif" font-size="14.00">has_domain</text>
</g>
<!-- Protein(10)&#45;&gt;CelComp(5) -->
<g id="edge6" class="edge">
<title>Protein(10)&#45;&gt;CelComp(5)</title>
<path fill="none" stroke="blue" d="M204.76,-434.34C227.59,-402.16 281.35,-334.36 346.01,-306.84 397.06,-285.11 548.54,-285.1 639.8,-287.3"/>
<polygon fill="blue" stroke="blue" points="639.98,-290.81 650.07,-287.57 640.16,-283.81 639.98,-290.81"/>
<text text-anchor="middle" x="423.69" y="-309.64" font-family="Times,serif" font-size="14.00">located_in</text>
</g>
<!-- Protein(10)&#45;&gt;TO(16) -->
<g id="edge3" class="edge">
<title>Protein(10)&#45;&gt;TO(16)</title>
<path fill="none" stroke="black" d="M204.04,-469.34C216.25,-487.69 237.25,-516.63 260.35,-536.84 293.7,-566.01 303.77,-574.46 346.01,-587.84 453.24,-621.8 586.59,-622.23 659.03,-619.23"/>
<polygon fill="black" stroke="black" points="659.43,-622.72 669.26,-618.77 659.11,-615.72 659.43,-622.72"/>
<text text-anchor="middle" x="423.69" y="-619.64" font-family="Times,serif" font-size="14.00">cooc_wi</text>
</g>
<!-- Protein(10)&#45;&gt;Gene(8) -->
<g id="edge11" class="edge">
<title>Protein(10)&#45;&gt;Gene(8)</title>
<path fill="none" stroke="black" d="M211.86,-468.62C224.91,-479.72 242.99,-494.15 260.35,-504.84 296.14,-526.86 305.36,-534.2 346.01,-544.84 465.49,-576.09 501.25,-574.82 623.57,-557.84 636.9,-555.99 651.05,-552.64 664.02,-548.98"/>
<polygon fill="black" stroke="black" points="665.07,-552.31 673.68,-546.14 663.1,-545.6 665.07,-552.31"/>
<text text-anchor="middle" x="423.69" y="-572.64" font-family="Times,serif" font-size="14.00">enc</text>
</g>
<!-- Protein(10)&#45;&gt;Publication(2) -->
<g id="edge14" class="edge">
<title>Protein(10)&#45;&gt;Publication(2)</title>
<path fill="none" stroke="blue" d="M199.94,-469.96C210.31,-495.27 231.69,-541.69 260.35,-573.84 291.46,-608.72 302.82,-616.97 346.01,-634.84 439.33,-673.45 556.73,-680.79 632.99,-680.74"/>
<polygon fill="blue" stroke="blue" points="633.03,-684.24 643.01,-680.69 632.99,-677.24 633.03,-684.24"/>
<text text-anchor="middle" x="423.69" y="-675.64" font-family="Times,serif" font-size="14.00">pub_in</text>
</g>
<!-- Protein(10)&#45;&gt;MolFunc(3) -->
<g id="edge9" class="edge">
<title>Protein(10)&#45;&gt;MolFunc(3)</title>
<path fill="none" stroke="black" d="M192.91,-433.8C193.68,-388.01 201.46,-265.44 260.35,-188.84 359.43,-59.96 461.21,-137.92 623.57,-145.84 629.37,-146.12 635.38,-146.43 641.41,-146.75"/>
<polygon fill="black" stroke="black" points="641.38,-150.25 651.55,-147.3 641.76,-143.26 641.38,-150.25"/>
<text text-anchor="middle" x="423.69" y="-132.64" font-family="Times,serif" font-size="14.00">has_function</text>
</g>
<!-- Protein(10)&#45;&gt;BioProc(4) -->
<g id="edge13" class="edge">
<title>Protein(10)&#45;&gt;BioProc(4)</title>
<path fill="none" stroke="black" d="M193.87,-433.83C197.6,-366.14 213.88,-127.85 260.35,-70.84 356.73,47.38 567.43,-11.21 663,-46.14"/>
<polygon fill="black" stroke="black" points="661.83,-49.44 672.43,-49.65 664.27,-42.88 661.83,-49.44"/>
<text text-anchor="middle" x="423.69" y="-15.64" font-family="Times,serif" font-size="14.00">participates_in</text>
</g>
<!-- Protein(10)&#45;&gt;Enzyme(177) -->
<g id="edge5" class="edge">
<title>Protein(10)&#45;&gt;Enzyme(177)</title>
<path fill="none" stroke="black" d="M232.72,-462.57C267.72,-472.01 319.28,-485.93 359.86,-496.88"/>
<polygon fill="black" stroke="black" points="359.09,-500.3 369.66,-499.52 360.92,-493.54 359.09,-500.3"/>
<text text-anchor="middle" x="294.18" y="-489.64" font-family="Times,serif" font-size="14.00">is_a</text>
</g>
<!-- Protein(10)&#45;&gt;Protein(7) -->
<g id="edge7" class="edge">
<title>Protein(10)&#45;&gt;Protein(7)</title>
<path fill="none" stroke="black" d="M192.48,-470.12C192.37,-514.06 198.5,-626.34 260.35,-685.84 267.83,-693.03 317.63,-704.67 360.13,-713.55"/>
<polygon fill="black" stroke="black" points="359.68,-717.03 370.18,-715.63 361.09,-710.17 359.68,-717.03"/>
<text text-anchor="middle" x="294.18" y="-737.64" font-family="Times,serif" font-size="14.00">ortho(&lt;=4)</text>
<text text-anchor="middle" x="294.18" y="-723.64" font-family="Times,serif" font-size="14.00">xref(&lt;=6)</text>
<text text-anchor="middle" x="294.18" y="-709.64" font-family="Times,serif" font-size="14.00">h_s_s(&lt;=4)</text>
</g>
<!-- Protein(10)&#45;&gt;EC(15) -->
<g id="edge12" class="edge">
<title>Protein(10)&#45;&gt;EC(15)</title>
<path fill="none" stroke="blue" d="M192.71,-433.53C193.14,-390.62 200.48,-282.89 260.35,-225.84 289.52,-198.04 334.78,-188.63 370.11,-185.84"/>
<polygon fill="blue" stroke="blue" points="370.5,-189.32 380.26,-185.19 370.05,-182.33 370.5,-189.32"/>
<text text-anchor="middle" x="294.18" y="-228.64" font-family="Times,serif" font-size="14.00">cat_c</text>
</g>
<!-- Protein(10)&#45;&gt;Protein(10) -->
<g id="edge2" class="edge">
<title>Protein(10)&#45;&gt;Protein(10)</title>
<path fill="none" stroke="blue" d="M178.04,-469.25C175.44,-478.93 180.08,-487.84 191.97,-487.84 199.39,-487.84 203.99,-484.36 205.76,-479.38"/>
<polygon fill="blue" stroke="blue" points="209.26,-479.29 205.89,-469.25 202.26,-479.2 209.26,-479.29"/>
<text text-anchor="middle" x="191.97" y="-518.64" font-family="Times,serif" font-size="14.00">xref(&lt;=6)</text>
<text text-anchor="middle" x="191.97" y="-504.64" font-family="Times,serif" font-size="14.00">h_s_s(&lt;=4)</text>
<text text-anchor="middle" x="191.97" y="-490.64" font-family="Times,serif" font-size="14.00">ortho(&lt;=4)</text>
</g>
<!-- Gene(9) -->
<g id="node17" class="node">
<title>Gene(9)</title>
<ellipse fill="none" stroke="black" cx="423.69" cy="-347.84" rx="39.15" ry="18"/>
<text text-anchor="middle" x="423.69" y="-343.64" font-family="Times,serif" font-size="14.00">Gene(9)</text>
</g>
<!-- Protein(10)&#45;&gt;Gene(9) -->
<g id="edge1" class="edge">
<title>Protein(10)&#45;&gt;Gene(9)</title>
<path fill="none" stroke="black" d="M223.95,-437.81C265.94,-418.8 340.81,-384.91 385.69,-364.59"/>
<polygon fill="black" stroke="black" points="387.4,-367.66 395.07,-360.34 384.51,-361.28 387.4,-367.66"/>
<text text-anchor="middle" x="294.18" y="-424.64" font-family="Times,serif" font-size="14.00">enc</text>
</g>
<!-- EC(12) -->
<g id="node18" class="node">
<title>EC(12)</title>
<ellipse fill="none" stroke="black" cx="423.69" cy="-243.84" rx="36.28" ry="18"/>
<text text-anchor="middle" x="423.69" y="-239.64" font-family="Times,serif" font-size="14.00">EC(12)</text>
</g>
<!-- Protein(10)&#45;&gt;EC(12) -->
<g id="edge8" class="edge">
<title>Protein(10)&#45;&gt;EC(12)</title>
<path fill="none" stroke="blue" d="M193.9,-433.72C196.87,-396.6 209.19,-311.85 260.35,-269.84 293.08,-242.97 342.39,-238.51 378.08,-239.51"/>
<polygon fill="blue" stroke="blue" points="378.08,-243.01 388.22,-239.95 378.38,-236.02 378.08,-243.01"/>
<text text-anchor="middle" x="294.18" y="-272.64" font-family="Times,serif" font-size="14.00">cat_c</text>
</g>
<!-- Enzyme(17) -->
<g id="node19" class="node">
<title>Enzyme(17)</title>
<ellipse fill="none" stroke="black" cx="423.69" cy="-922.84" rx="53.63" ry="18"/>
<text text-anchor="middle" x="423.69" y="-918.64" font-family="Times,serif" font-size="14.00">Enzyme(17)</text>
</g>
<!-- Protein(10)&#45;&gt;Enzyme(17) -->
<g id="edge10" class="edge">
<title>Protein(10)&#45;&gt;Enzyme(17)</title>
<path fill="none" stroke="blue" d="M194.82,-470.14C201.42,-532.69 225.29,-737.12 260.35,-791.84 280.38,-823.1 298.91,-817.77 328.01,-840.84 351.87,-859.75 377.95,-882.5 396.68,-899.24"/>
<polygon fill="blue" stroke="blue" points="394.45,-901.94 404.24,-906.01 399.13,-896.73 394.45,-901.94"/>
<text text-anchor="middle" x="294.18" y="-843.64" font-family="Times,serif" font-size="14.00">is_a</text>
</g>
<!-- ProtDomain(11) -->
<g id="node20" class="node">
<title>ProtDomain(11)</title>
<ellipse fill="none" stroke="black" cx="423.69" cy="-77.84" rx="68" ry="18"/>
<text text-anchor="middle" x="423.69" y="-73.64" font-family="Times,serif" font-size="14.00">ProtDomain(11)</text>
</g>
<!-- Protein(10)&#45;&gt;ProtDomain(11) -->
<g id="edge15" class="edge">
<title>Protein(10)&#45;&gt;ProtDomain(11)</title>
<path fill="none" stroke="black" d="M193.82,-433.75C197.25,-369.04 212.27,-150.39 260.35,-103.84 283.67,-81.27 318.3,-73.62 349.59,-72.08"/>
<polygon fill="black" stroke="black" points="349.72,-75.58 359.61,-71.79 349.51,-68.58 349.72,-75.58"/>
<text text-anchor="middle" x="294.18" y="-106.64" font-family="Times,serif" font-size="14.00">has_domain</text>
</g>
<!-- Gene(9)&#45;&gt;CelComp(5) -->
<g id="edge16" class="edge">
<title>Gene(9)&#45;&gt;CelComp(5)</title>
<path fill="none" stroke="blue" d="M462.51,-350.86C503.12,-352.97 569.16,-353.14 623.57,-337.84 640.82,-332.99 658.44,-324.31 673.35,-315.65"/>
<polygon fill="blue" stroke="blue" points="675.5,-318.44 682.26,-310.29 671.89,-312.44 675.5,-318.44"/>
<text text-anchor="middle" x="571.47" y="-354.64" font-family="Times,serif" font-size="14.00">located_in</text>
</g>
<!-- Gene(9)&#45;&gt;Phenotype(13) -->
<g id="edge19" class="edge">
<title>Gene(9)&#45;&gt;Phenotype(13)</title>
<path fill="none" stroke="black" d="M445.08,-363.04C463.58,-376.16 492.06,-394.7 519.37,-405.84 554.91,-420.33 596.18,-430.56 631.37,-437.49"/>
<polygon fill="black" stroke="black" points="631.12,-441 641.6,-439.44 632.44,-434.13 631.12,-441"/>
<text text-anchor="middle" x="571.47" y="-438.64" font-family="Times,serif" font-size="14.00">has_observ_pheno</text>
</g>
<!-- Gene(9)&#45;&gt;TO(16) -->
<g id="edge20" class="edge">
<title>Gene(9)&#45;&gt;TO(16)</title>
<path fill="none" stroke="blue" d="M446.51,-362.54C464.2,-375.68 488.28,-396.57 501.37,-420.84 522.61,-460.19 492.52,-484.07 519.37,-519.84 538.33,-545.09 616.24,-578.87 666.94,-598.89"/>
<polygon fill="blue" stroke="blue" points="665.79,-602.2 676.38,-602.58 668.34,-595.68 665.79,-602.2"/>
<text text-anchor="middle" x="571.47" y="-583.64" font-family="Times,serif" font-size="14.00">cooc_wi</text>
</g>
<!-- Gene(9)&#45;&gt;Gene(8) -->
<g id="edge21" class="edge">
<title>Gene(9)&#45;&gt;Gene(8)</title>
<path fill="none" stroke="black" d="M444.28,-363.49C460.83,-377.38 484.47,-398.82 501.37,-420.84 511.54,-434.09 506.71,-442.94 519.37,-453.84 556.74,-485.99 578.02,-473 623.57,-491.84 638.95,-498.2 655.55,-505.73 670.17,-512.59"/>
<polygon fill="black" stroke="black" points="668.92,-515.87 679.46,-516.98 671.91,-509.54 668.92,-515.87"/>
<text text-anchor="middle" x="571.47" y="-508.64" font-family="Times,serif" font-size="14.00">physical(&lt;=8)</text>
<text text-anchor="middle" x="571.47" y="-494.64" font-family="Times,serif" font-size="14.00">genetic(&lt;=8)</text>
</g>
<!-- Gene(9)&#45;&gt;Publication(2) -->
<g id="edge22" class="edge">
<title>Gene(9)&#45;&gt;Publication(2)</title>
<path fill="none" stroke="blue" d="M447.01,-362.28C465,-375.27 489.25,-396.08 501.37,-420.84 518.86,-456.54 495.6,-566.97 519.37,-598.84 528.03,-610.45 601.39,-638.51 654.98,-657.86"/>
<polygon fill="blue" stroke="blue" points="653.81,-661.16 664.4,-661.25 656.17,-654.57 653.81,-661.16"/>
<text text-anchor="middle" x="571.47" y="-648.64" font-family="Times,serif" font-size="14.00">pub_in</text>
</g>
<!-- Gene(9)&#45;&gt;MolFunc(3) -->
<g id="edge23" class="edge">
<title>Gene(9)&#45;&gt;MolFunc(3)</title>
<path fill="none" stroke="black" d="M457.47,-338.58C506.71,-324.25 596.86,-296.21 623.57,-275.84 641.05,-262.51 672.81,-214.2 693.1,-181.69"/>
<polygon fill="black" stroke="black" points="696.21,-183.33 698.5,-172.98 690.25,-179.64 696.21,-183.33"/>
<text text-anchor="middle" x="571.47" y="-322.64" font-family="Times,serif" font-size="14.00">has_function</text>
</g>
<!-- Gene(9)&#45;&gt;BioProc(4) -->
<g id="edge24" class="edge">
<title>Gene(9)&#45;&gt;BioProc(4)</title>
<path fill="none" stroke="blue" d="M460.18,-340.93C475.03,-336.27 491.16,-328.55 501.37,-315.84 529.65,-280.63 487.92,-248.24 519.37,-215.84 552.34,-181.87 589.6,-226.79 623.57,-193.84 647.87,-170.27 623.1,-148.2 641.57,-119.84 649.07,-108.33 659.88,-98.28 670.79,-90.07"/>
<polygon fill="blue" stroke="blue" points="672.97,-92.81 679.09,-84.16 668.92,-87.11 672.97,-92.81"/>
<text text-anchor="middle" x="571.47" y="-218.64" font-family="Times,serif" font-size="14.00">participates_in</text>
</g>
<!-- Gene(9)&#45;&gt;Gene(9) -->
<g id="edge17" class="edge">
<title>Gene(9)&#45;&gt;Gene(9)</title>
<path fill="none" stroke="black" d="M402.03,-363C395.47,-373.5 402.69,-383.84 423.69,-383.84 437.8,-383.84 445.69,-379.17 447.36,-372.93"/>
<polygon fill="black" stroke="black" points="450.76,-372.11 445.35,-363 443.9,-373.5 450.76,-372.11"/>
<text text-anchor="middle" x="423.69" y="-400.64" font-family="Times,serif" font-size="14.00">physical(&lt;=8)</text>
<text text-anchor="middle" x="423.69" y="-386.64" font-family="Times,serif" font-size="14.00">genetic(&lt;=8)</text>
</g>
<!-- SNP(20) -->
<g id="node21" class="node">
<title>SNP(20)</title>
<ellipse fill="none" stroke="black" cx="712.87" cy="-391.84" rx="41.13" ry="18"/>
<text text-anchor="middle" x="712.87" y="-387.64" font-family="Times,serif" font-size="14.00">SNP(20)</text>
</g>
<!-- Gene(9)&#45;&gt;SNP(20) -->
<g id="edge18" class="edge">
<title>Gene(9)&#45;&gt;SNP(20)</title>
<path fill="none" stroke="blue" d="M455.9,-358.35C474.19,-364.11 497.86,-370.86 519.37,-374.84 567.22,-383.69 622.64,-387.97 661.69,-390.01"/>
<polygon fill="blue" stroke="blue" points="661.59,-393.51 671.75,-390.51 661.94,-386.52 661.59,-393.51"/>
<text text-anchor="middle" x="571.47" y="-390.64" font-family="Times,serif" font-size="14.00">has_variation</text>
</g>
<!-- EC(12)&#45;&gt;MolFunc(3) -->
<g id="edge26" class="edge">
<title>EC(12)&#45;&gt;MolFunc(3)</title>
<path fill="none" stroke="black" d="M458.21,-238.02C472.84,-234.07 489.36,-227.55 501.37,-216.84 515.02,-204.67 504.64,-190.67 519.37,-179.84 554.07,-154.34 601.91,-147.04 641.22,-146.14"/>
<polygon fill="black" stroke="black" points="641.31,-149.64 651.28,-146.04 641.24,-142.64 641.31,-149.64"/>
<text text-anchor="middle" x="571.47" y="-182.64" font-family="Times,serif" font-size="14.00">equ</text>
</g>
<!-- Enzyme(17)&#45;&gt;Reaction(188) -->
<g id="edge27" class="edge">
<title>Enzyme(17)&#45;&gt;Reaction(188)</title>
<path fill="none" stroke="blue" d="M477.7,-921.55C521.29,-920.48 583.71,-918.96 633.14,-917.76"/>
<polygon fill="blue" stroke="blue" points="633.25,-921.25 643.16,-917.51 633.08,-914.26 633.25,-921.25"/>
<text text-anchor="middle" x="571.47" y="-922.64" font-family="Times,serif" font-size="14.00">ca_by</text>
</g>
<!-- Reaction(18) -->
<g id="node22" class="node">
<title>Reaction(18)</title>
<ellipse fill="none" stroke="black" cx="712.87" cy="-973.84" rx="56.04" ry="18"/>
<text text-anchor="middle" x="712.87" y="-969.64" font-family="Times,serif" font-size="14.00">Reaction(18)</text>
</g>
<!-- Enzyme(17)&#45;&gt;Reaction(18) -->
<g id="edge28" class="edge">
<title>Enzyme(17)&#45;&gt;Reaction(18)</title>
<path fill="none" stroke="black" d="M471.47,-931.14C521.04,-939.95 599.43,-953.87 653.13,-963.41"/>
<polygon fill="black" stroke="black" points="652.73,-966.89 663.19,-965.19 653.96,-960 652.73,-966.89"/>
<text text-anchor="middle" x="571.47" y="-959.64" font-family="Times,serif" font-size="14.00">ca_by</text>
</g>
<!-- ProtDomain(11)&#45;&gt;CelComp(5) -->
<g id="edge30" class="edge">
<title>ProtDomain(11)&#45;&gt;CelComp(5)</title>
<path fill="none" stroke="black" d="M474.35,-89.84C484.66,-94.5 494.48,-100.95 501.37,-109.84 535.51,-153.84 482.39,-192.2 519.37,-233.84 551.22,-269.69 577.55,-248.36 623.57,-261.84 633.97,-264.88 645.01,-268.26 655.64,-271.59"/>
<polygon fill="black" stroke="black" points="654.66,-274.95 665.25,-274.63 656.76,-268.28 654.66,-274.95"/>
<text text-anchor="middle" x="571.47" y="-264.64" font-family="Times,serif" font-size="14.00">located_in</text>
</g>
<!-- ProtDomain(11)&#45;&gt;MolFunc(3) -->
<g id="edge31" class="edge">
<title>ProtDomain(11)&#45;&gt;MolFunc(3)</title>
<path fill="none" stroke="blue" d="M490.92,-80.55C530.23,-83.61 580.62,-90.1 623.57,-103.84 640.28,-109.18 657.56,-117.63 672.35,-125.9"/>
<polygon fill="blue" stroke="blue" points="670.79,-129.04 681.21,-130.99 674.28,-122.97 670.79,-129.04"/>
<text text-anchor="middle" x="571.47" y="-106.64" font-family="Times,serif" font-size="14.00">has_function</text>
</g>
<!-- ProtDomain(11)&#45;&gt;BioProc(4) -->
<g id="edge32" class="edge">
<title>ProtDomain(11)&#45;&gt;BioProc(4)</title>
<path fill="none" stroke="black" d="M484.71,-69.85C496.19,-68.61 508.14,-67.52 519.37,-66.84 561.15,-64.31 608.11,-64.02 645.2,-64.38"/>
<polygon fill="black" stroke="black" points="645.34,-67.88 655.38,-64.49 645.42,-60.88 645.34,-67.88"/>
<text text-anchor="middle" x="571.47" y="-69.64" font-family="Times,serif" font-size="14.00">participates_in</text>
</g>
<!-- SNP(20)&#45;&gt;Trait(21) -->
<g id="edge25" class="edge">
<title>SNP(20)&#45;&gt;Trait(21)</title>
<path fill="none" stroke="blue" d="M754.14,-391.84C793.68,-391.84 854.41,-391.84 899.26,-391.84"/>
<polygon fill="blue" stroke="blue" points="899.44,-395.34 909.44,-391.84 899.44,-388.34 899.44,-395.34"/>
<text text-anchor="middle" x="846.88" y="-394.64" font-family="Times,serif" font-size="14.00">associated_with</text>
</g>
<!-- Reaction(18)&#45;&gt;Path(19) -->
<g id="edge29" class="edge">
<title>Reaction(18)&#45;&gt;Path(19)</title>
<path fill="none" stroke="blue" d="M769.21,-973.84C808.51,-973.84 861.13,-973.84 900.79,-973.84"/>
<polygon fill="blue" stroke="blue" points="900.83,-977.34 910.83,-973.84 900.83,-970.34 900.83,-977.34"/>
<text text-anchor="middle" x="846.88" y="-976.64" font-family="Times,serif" font-size="14.00">part_of</text>
</g>
</g>
</svg>
