<svg width="1287pt" height="1238pt"
 viewBox="0.00 0.00 1287.45 1238.00" xmlns="http://www.w3.org/2000/svg" xmlns:xlink="http://www.w3.org/1999/xlink">
<g id="graph0" class="graph" transform="scale(1 1) rotate(0) translate(4 1234)">
<title>%3</title>
<polygon fill="white" stroke="transparent" points="-4,4 -4,-1234 1283.45,-1234 1283.45,4 -4,4"/>
<!-- SNPEffect(26) -->
<g id="node1" class="node">
<title>SNPEffect(26)</title>
<polygon fill="none" stroke="darkgreen" points="1275.6,-1200.54 1275.6,-1215.46 1235.88,-1226 1179.7,-1226 1139.98,-1215.46 1139.98,-1200.54 1179.7,-1190 1235.88,-1190 1275.6,-1200.54"/>
<polygon fill="none" stroke="darkgreen" points="1279.6,-1197.47 1279.6,-1218.53 1236.4,-1230 1179.18,-1230 1135.98,-1218.53 1135.98,-1197.47 1179.18,-1186 1236.4,-1186 1279.6,-1197.47"/>
<text text-anchor="middle" x="1207.79" y="-1203.8" font-family="Times,serif" font-size="14.00">SNPEffect(26)</text>
</g>
<!-- Publication(2) -->
<g id="node2" class="node">
<title>Publication(2)</title>
<polygon fill="none" stroke="darkgreen" points="1005.31,-917.54 1005.31,-932.46 966.71,-943 912.12,-943 873.52,-932.46 873.52,-917.54 912.12,-907 966.71,-907 1005.31,-917.54"/>
<polygon fill="none" stroke="darkgreen" points="1009.32,-914.49 1009.32,-935.51 967.25,-947 911.58,-947 869.51,-935.51 869.51,-914.49 911.58,-903 967.25,-903 1009.32,-914.49"/>
<text text-anchor="middle" x="939.41" y="-920.8" font-family="Times,serif" font-size="14.00">Publication(2)</text>
</g>
<!-- Gene(8) -->
<g id="node3" class="node">
<title>Gene(8)</title>
<polygon fill="none" stroke="darkgreen" points="981.53,-231.54 981.53,-246.46 956.86,-257 921.97,-257 897.3,-246.46 897.3,-231.54 921.97,-221 956.86,-221 981.53,-231.54"/>
<polygon fill="none" stroke="darkgreen" points="985.51,-228.9 985.51,-249.1 957.67,-261 921.16,-261 893.32,-249.1 893.32,-228.9 921.16,-217 957.67,-217 985.51,-228.9"/>
<text text-anchor="middle" x="939.41" y="-234.8" font-family="Times,serif" font-size="14.00">Gene(8)</text>
</g>
<!-- CelComp(5) -->
<g id="node4" class="node">
<title>CelComp(5)</title>
<polygon fill="none" stroke="darkgreen" points="998.02,-443.54 998.02,-458.46 963.69,-469 915.14,-469 880.81,-458.46 880.81,-443.54 915.14,-433 963.69,-433 998.02,-443.54"/>
<polygon fill="none" stroke="darkgreen" points="1002.01,-440.59 1002.01,-461.41 964.29,-473 914.54,-473 876.82,-461.41 876.82,-440.59 914.54,-429 964.29,-429 1002.01,-440.59"/>
<text text-anchor="middle" x="939.41" y="-446.8" font-family="Times,serif" font-size="14.00">CelComp(5)</text>
</g>
<!-- DGES(22) -->
<g id="node5" class="node">
<title>DGES(22)</title>
<polygon fill="none" stroke="darkgreen" points="991.19,-1105.54 991.19,-1120.46 960.86,-1131 917.97,-1131 887.64,-1120.46 887.64,-1105.54 917.97,-1095 960.86,-1095 991.19,-1105.54"/>
<polygon fill="none" stroke="darkgreen" points="995.18,-1102.7 995.18,-1123.3 961.53,-1135 917.3,-1135 883.65,-1123.3 883.65,-1102.7 917.3,-1091 961.53,-1091 995.18,-1102.7"/>
<text text-anchor="middle" x="939.41" y="-1108.8" font-family="Times,serif" font-size="14.00">DGES(22)</text>
</g>
<!-- Phenotype(13) -->
<g id="node6" class="node">
<title>Phenotype(13)</title>
<polygon fill="none" stroke="darkgreen" points="1006.52,-689.54 1006.52,-704.46 967.21,-715 911.62,-715 872.31,-704.46 872.31,-689.54 911.62,-679 967.21,-679 1006.52,-689.54"/>
<polygon fill="none" stroke="darkgreen" points="1010.51,-686.47 1010.51,-707.53 967.74,-719 911.09,-719 868.32,-707.53 868.32,-686.47 911.09,-675 967.74,-675 1010.51,-686.47"/>
<text text-anchor="middle" x="939.41" y="-692.8" font-family="Times,serif" font-size="14.00">Phenotype(13)</text>
</g>
<!-- Trait(21) -->
<g id="node7" class="node">
<title>Trait(21)</title>
<polygon fill="none" stroke="darkgreen" points="1253.09,-768.54 1253.09,-783.46 1226.55,-794 1189.03,-794 1162.49,-783.46 1162.49,-768.54 1189.03,-758 1226.55,-758 1253.09,-768.54"/>
<polygon fill="none" stroke="darkgreen" points="1257.1,-765.83 1257.1,-786.17 1227.32,-798 1188.25,-798 1158.48,-786.17 1158.48,-765.83 1188.25,-754 1227.32,-754 1257.1,-765.83"/>
<text text-anchor="middle" x="1207.79" y="-771.8" font-family="Times,serif" font-size="14.00">Trait(21)</text>
</g>
<!-- MolFunc(3) -->
<g id="node8" class="node">
<title>MolFunc(3)</title>
<polygon fill="none" stroke="darkgreen" points="996.81,-359.54 996.81,-374.46 963.19,-385 915.64,-385 882.02,-374.46 882.02,-359.54 915.64,-349 963.19,-349 996.81,-359.54"/>
<polygon fill="none" stroke="darkgreen" points="1000.82,-356.61 1000.82,-377.39 963.8,-389 915.03,-389 878.01,-377.39 878.01,-356.61 915.03,-345 963.8,-345 1000.82,-356.61"/>
<text text-anchor="middle" x="939.41" y="-362.8" font-family="Times,serif" font-size="14.00">MolFunc(3)</text>
</g>
<!-- BioProc(4) -->
<g id="node9" class="node">
<title>BioProc(4)</title>
<polygon fill="none" stroke="darkgreen" points="992.87,-584.54 992.87,-599.46 961.56,-610 917.27,-610 885.96,-599.46 885.96,-584.54 917.27,-574 961.56,-574 992.87,-584.54"/>
<polygon fill="none" stroke="darkgreen" points="996.87,-581.67 996.87,-602.33 962.21,-614 916.62,-614 881.96,-602.33 881.96,-581.67 916.62,-570 962.21,-570 996.87,-581.67"/>
<text text-anchor="middle" x="939.41" y="-587.8" font-family="Times,serif" font-size="14.00">BioProc(4)</text>
</g>
<!-- Reaction(188) -->
<g id="node10" class="node">
<title>Reaction(188)</title>
<polygon fill="none" stroke="darkgreen" points="1005.29,-14.54 1005.29,-29.46 966.7,-40 912.13,-40 873.54,-29.46 873.54,-14.54 912.13,-4 966.7,-4 1005.29,-14.54"/>
<polygon fill="none" stroke="darkgreen" points="1009.3,-11.49 1009.3,-32.51 967.24,-44 911.59,-44 869.53,-32.51 869.53,-11.49 911.59,0 967.24,0 1009.3,-11.49"/>
<text text-anchor="middle" x="939.41" y="-17.8" font-family="Times,serif" font-size="14.00">Reaction(188)</text>
</g>
<!-- PlantOntologyTerm(24) -->
<g id="node11" class="node">
<title>PlantOntologyTerm(24)</title>
<polygon fill="none" stroke="darkgreen" points="692.88,-1033.54 692.88,-1048.46 632.79,-1059 547.81,-1059 487.72,-1048.46 487.72,-1033.54 547.81,-1023 632.79,-1023 692.88,-1033.54"/>
<polygon fill="none" stroke="darkgreen" points="696.87,-1030.18 696.87,-1051.82 633.14,-1063 547.46,-1063 483.73,-1051.82 483.73,-1030.18 547.46,-1019 633.14,-1019 696.87,-1030.18"/>
<text text-anchor="middle" x="590.3" y="-1036.8" font-family="Times,serif" font-size="14.00">PlantOntologyTerm(24)</text>
</g>
<!-- Protein(7) -->
<g id="node12" class="node">
<title>Protein(7)</title>
<polygon fill="none" stroke="darkgreen" points="639.82,-139.54 639.82,-154.46 610.81,-165 569.79,-165 540.78,-154.46 540.78,-139.54 569.79,-129 610.81,-129 639.82,-139.54"/>
<polygon fill="none" stroke="darkgreen" points="643.81,-136.74 643.81,-157.26 611.51,-169 569.09,-169 536.8,-157.26 536.8,-136.74 569.09,-125 611.51,-125 643.81,-136.74"/>
<text text-anchor="middle" x="590.3" y="-142.8" font-family="Times,serif" font-size="14.00">Protein(7)</text>
</g>
<!-- CoExpStudy(25) -->
<g id="node13" class="node">
<title>CoExpStudy(25)</title>
<polygon fill="none" stroke="darkgreen" points="665.95,-971.54 665.95,-986.46 621.63,-997 558.97,-997 514.66,-986.46 514.66,-971.54 558.97,-961 621.63,-961 665.95,-971.54"/>
<polygon fill="none" stroke="darkgreen" points="669.94,-968.38 669.94,-989.62 622.1,-1001 558.5,-1001 510.67,-989.62 510.67,-968.38 558.5,-957 622.1,-957 669.94,-968.38"/>
<text text-anchor="middle" x="590.3" y="-974.8" font-family="Times,serif" font-size="14.00">CoExpStudy(25)</text>
</g>
<!-- Path(19) -->
<g id="node14" class="node">
<title>Path(19)</title>
<polygon fill="none" stroke="darkgreen" points="1251.61,-72.54 1251.61,-87.46 1225.94,-98 1189.64,-98 1163.97,-87.46 1163.97,-72.54 1189.64,-62 1225.94,-62 1251.61,-72.54"/>
<polygon fill="none" stroke="darkgreen" points="1255.6,-69.86 1255.6,-90.14 1226.73,-102 1188.85,-102 1159.98,-90.14 1159.98,-69.86 1188.85,-58 1226.73,-58 1255.6,-69.86"/>
<text text-anchor="middle" x="1207.79" y="-75.8" font-family="Times,serif" font-size="14.00">Path(19)</text>
</g>
<!-- EC(15) -->
<g id="node15" class="node">
<title>EC(15)</title>
<polygon fill="none" stroke="darkgreen" points="629.53,-671.54 629.53,-686.46 606.55,-697 574.05,-697 551.08,-686.46 551.08,-671.54 574.05,-661 606.55,-661 629.53,-671.54"/>
<polygon fill="none" stroke="darkgreen" points="633.54,-668.98 633.54,-689.02 607.43,-701 573.17,-701 547.06,-689.02 547.06,-668.98 573.17,-657 607.43,-657 633.54,-668.98"/>
<text text-anchor="middle" x="590.3" y="-674.8" font-family="Times,serif" font-size="14.00">EC(15)</text>
</g>
<!-- Enzyme(177) -->
<g id="node16" class="node">
<title>Enzyme(177)</title>
<polygon fill="none" stroke="darkgreen" points="653.37,-609.54 653.37,-624.46 616.42,-635 564.18,-635 527.23,-624.46 527.23,-609.54 564.18,-599 616.42,-599 653.37,-609.54"/>
<polygon fill="none" stroke="darkgreen" points="657.37,-606.53 657.37,-627.47 616.98,-639 563.62,-639 523.23,-627.47 523.23,-606.53 563.62,-595 616.98,-595 657.37,-606.53"/>
<text text-anchor="middle" x="590.3" y="-612.8" font-family="Times,serif" font-size="14.00">Enzyme(177)</text>
</g>
<!-- ProtDomain(14) -->
<g id="node17" class="node">
<title>ProtDomain(14)</title>
<polygon fill="none" stroke="darkgreen" points="664.16,-547.54 664.16,-562.46 620.89,-573 559.71,-573 516.45,-562.46 516.45,-547.54 559.71,-537 620.89,-537 664.16,-547.54"/>
<polygon fill="none" stroke="darkgreen" points="668.16,-544.4 668.16,-565.6 621.38,-577 559.23,-577 512.44,-565.6 512.44,-544.4 559.23,-533 621.38,-533 668.16,-544.4"/>
<text text-anchor="middle" x="590.3" y="-550.8" font-family="Times,serif" font-size="14.00">ProtDomain(14)</text>
</g>
<!-- Gene(1) -->
<g id="node18" class="node">
<title>Gene(1)</title>
<ellipse fill="none" stroke="red" cx="43.08" cy="-879" rx="39.15" ry="39.15"/>
<ellipse fill="none" stroke="red" cx="43.08" cy="-879" rx="43.15" ry="43.15"/>
<text text-anchor="middle" x="43.08" y="-874.8" font-family="Times,serif" font-size="14.00">Gene(1)</text>
</g>
<!-- Gene(1)&#45;&gt;Publication(2) -->
<g id="edge46" class="edge">
<title>Gene(1)&#45;&gt;Publication(2)</title>
<path fill="none" stroke="black" d="M73.66,-909.98C96.2,-932 128.98,-960.77 162.58,-979 293.11,-1049.82 336,-1054.88 483.52,-1072 577.8,-1082.94 605.7,-1097.64 697.09,-1072 779.13,-1048.98 860.93,-989.53 905.06,-953.68"/>
<polygon fill="black" stroke="black" points="907.35,-956.33 912.85,-947.27 902.9,-950.92 907.35,-956.33"/>
<text text-anchor="middle" x="398" y="-1071.8" font-family="Times,serif" font-size="14.00">occ_in</text>
</g>
<!-- Gene(1)&#45;&gt;Gene(8) -->
<g id="edge43" class="edge">
<title>Gene(1)&#45;&gt;Gene(8)</title>
<path fill="none" stroke="blue" d="M44.91,-835.53C48.57,-692.74 67.56,-241.41 162.58,-139 216.69,-80.69 252.18,-91 330.49,-77 389.56,-66.44 405.71,-72 465.52,-77 517.52,-81.35 659.38,-79.92 697.09,-116 724.68,-142.39 687.58,-173.52 715.09,-200 738.49,-222.53 824.59,-232.22 882.78,-236.26"/>
<polygon fill="blue" stroke="blue" points="882.73,-239.77 892.94,-236.93 883.19,-232.78 882.73,-239.77"/>
<text text-anchor="middle" x="398" y="-93.8" font-family="Times,serif" font-size="14.00">homoeolog(&lt;=2)</text>
<text text-anchor="middle" x="398" y="-79.8" font-family="Times,serif" font-size="14.00">regulates(&lt;=2)</text>
</g>
<!-- Gene(1)&#45;&gt;DGES(22) -->
<g id="edge45" class="edge">
<title>Gene(1)&#45;&gt;DGES(22)</title>
<path fill="none" stroke="blue" d="M66.57,-915.23C77.28,-931.57 90.66,-950.79 104.15,-967 176.98,-1054.52 218.86,-1064.58 330.49,-1087 524.83,-1126.04 760.89,-1121.82 873.1,-1116.78"/>
<polygon fill="blue" stroke="blue" points="873.41,-1120.27 883.24,-1116.31 873.09,-1113.28 873.41,-1120.27"/>
<text text-anchor="middle" x="398" y="-1108.8" font-family="Times,serif" font-size="14.00">differentially_expressed</text>
</g>
<!-- Gene(1)&#45;&gt;Trait(21) -->
<g id="edge39" class="edge">
<title>Gene(1)&#45;&gt;Trait(21)</title>
<path fill="none" stroke="blue" d="M51.29,-921.41C67.9,-1003.26 117.01,-1175 236.53,-1175 236.53,-1175 236.53,-1175 940.41,-1175 1116.63,-1175 1183.52,-902.48 1201.43,-807.88"/>
<polygon fill="blue" stroke="blue" points="1204.87,-808.49 1203.24,-798.02 1197.99,-807.22 1204.87,-808.49"/>
<text text-anchor="middle" x="590.3" y="-1177.8" font-family="Times,serif" font-size="14.00">cooc_wi</text>
</g>
<!-- Gene(1)&#45;&gt;Protein(7) -->
<g id="edge44" class="edge">
<title>Gene(1)&#45;&gt;Protein(7)</title>
<path fill="none" stroke="black" d="M43.76,-835.55C45.47,-698.6 72.16,-276.31 330.49,-130 395.59,-93.13 485.21,-111.28 540.1,-128.56"/>
<polygon fill="black" stroke="black" points="539.34,-132 549.93,-131.77 541.51,-125.34 539.34,-132"/>
<text text-anchor="middle" x="237.53" y="-308.8" font-family="Times,serif" font-size="14.00">enc</text>
</g>
<!-- Gene(9) -->
<g id="node19" class="node">
<title>Gene(9)</title>
<ellipse fill="none" stroke="black" cx="590.3" cy="-737" rx="39.15" ry="18"/>
<text text-anchor="middle" x="590.3" y="-732.8" font-family="Times,serif" font-size="14.00">Gene(9)</text>
</g>
<!-- Gene(1)&#45;&gt;Gene(9) -->
<g id="edge41" class="edge">
<title>Gene(1)&#45;&gt;Gene(9)</title>
<path fill="none" stroke="blue" d="M83.49,-863.8C106.38,-855.28 135.88,-844.84 162.58,-837 299.89,-796.71 465.74,-761.65 544.1,-745.88"/>
<polygon fill="blue" stroke="blue" points="545,-749.27 554.11,-743.87 543.62,-742.41 545,-749.27"/>
<text text-anchor="middle" x="237.53" y="-853.8" font-family="Times,serif" font-size="14.00">homoeolog(&lt;=2)</text>
<text text-anchor="middle" x="237.53" y="-839.8" font-family="Times,serif" font-size="14.00">regulates(&lt;=2)</text>
</g>
<!-- SNP(20) -->
<g id="node20" class="node">
<title>SNP(20)</title>
<ellipse fill="none" stroke="black" cx="939.41" cy="-836" rx="41.13" ry="18"/>
<text text-anchor="middle" x="939.41" y="-831.8" font-family="Times,serif" font-size="14.00">SNP(20)</text>
</g>
<!-- Gene(1)&#45;&gt;SNP(20) -->
<g id="edge38" class="edge">
<title>Gene(1)&#45;&gt;SNP(20)</title>
<path fill="none" stroke="black" d="M86.3,-879.93C230.26,-882.84 701.16,-890.16 850.12,-865 866.56,-862.22 884.12,-856.96 899.21,-851.67"/>
<polygon fill="black" stroke="black" points="900.53,-854.92 908.74,-848.22 898.15,-848.34 900.53,-854.92"/>
<text text-anchor="middle" x="398" y="-899.8" font-family="Times,serif" font-size="14.00">has_mutant</text>
<text text-anchor="middle" x="398" y="-885.8" font-family="Times,serif" font-size="14.00">has_variation</text>
</g>
<!-- CoExpCluster(23) -->
<g id="node22" class="node">
<title>CoExpCluster(23)</title>
<ellipse fill="none" stroke="black" cx="237.53" cy="-952" rx="74.9" ry="18"/>
<text text-anchor="middle" x="237.53" y="-947.8" font-family="Times,serif" font-size="14.00">CoExpCluster(23)</text>
</g>
<!-- Gene(1)&#45;&gt;CoExpCluster(23) -->
<g id="edge42" class="edge">
<title>Gene(1)&#45;&gt;CoExpCluster(23)</title>
<path fill="none" stroke="black" d="M83.49,-893.95C113.39,-905.29 154.69,-920.95 186.85,-933.15"/>
<polygon fill="black" stroke="black" points="185.92,-936.55 196.51,-936.82 188.41,-930 185.92,-936.55"/>
<text text-anchor="middle" x="124.37" y="-917.8" font-family="Times,serif" font-size="14.00">part_of</text>
</g>
<!-- Protein(10) -->
<g id="node23" class="node">
<title>Protein(10)</title>
<ellipse fill="none" stroke="black" cx="237.53" cy="-451" rx="50.27" ry="18"/>
<text text-anchor="middle" x="237.53" y="-446.8" font-family="Times,serif" font-size="14.00">Protein(10)</text>
</g>
<!-- Gene(1)&#45;&gt;Protein(10) -->
<g id="edge40" class="edge">
<title>Gene(1)&#45;&gt;Protein(10)</title>
<path fill="none" stroke="black" d="M60.64,-839.66C72.56,-811.54 89.12,-772.84 104.15,-739 146.99,-642.59 199.91,-529.06 223.79,-478.12"/>
<polygon fill="black" stroke="black" points="227.09,-479.33 228.16,-468.79 220.75,-476.36 227.09,-479.33"/>
<text text-anchor="middle" x="124.37" y="-741.8" font-family="Times,serif" font-size="14.00">enc</text>
</g>
<!-- Gene(9)&#45;&gt;Publication(2) -->
<g id="edge1" class="edge">
<title>Gene(9)&#45;&gt;Publication(2)</title>
<path fill="none" stroke="blue" d="M611.6,-752.13C643.88,-776.13 704.37,-820.85 715.09,-827 769.77,-858.39 836.4,-886.42 882.57,-904.38"/>
<polygon fill="blue" stroke="blue" points="881.52,-907.72 892.11,-908.05 884.04,-901.19 881.52,-907.72"/>
<text text-anchor="middle" x="782.6" y="-891.8" font-family="Times,serif" font-size="14.00">pub_in</text>
</g>
<!-- Gene(9)&#45;&gt;Gene(8) -->
<g id="edge2" class="edge">
<title>Gene(9)&#45;&gt;Gene(8)</title>
<path fill="none" stroke="black" d="M629.56,-737.87C652.83,-736.18 681.06,-729.7 697.09,-710 725.23,-675.4 687.88,-344.34 715.09,-309 735.7,-282.21 823.85,-260.68 883.04,-248.88"/>
<polygon fill="black" stroke="black" points="883.86,-252.29 893.01,-246.93 882.52,-245.42 883.86,-252.29"/>
<text text-anchor="middle" x="782.6" y="-325.8" font-family="Times,serif" font-size="14.00">physical(&lt;=8)</text>
<text text-anchor="middle" x="782.6" y="-311.8" font-family="Times,serif" font-size="14.00">genetic(&lt;=8)</text>
</g>
<!-- Gene(9)&#45;&gt;CelComp(5) -->
<g id="edge4" class="edge">
<title>Gene(9)&#45;&gt;CelComp(5)</title>
<path fill="none" stroke="black" d="M629.54,-737.12C652.36,-735.08 680.1,-728.5 697.09,-710 730.01,-674.16 685.53,-640.66 715.09,-602 755.2,-549.54 795.99,-577.83 850.12,-540 874,-523.31 897.05,-499.74 913.61,-481.04"/>
<polygon fill="black" stroke="black" points="916.37,-483.21 920.29,-473.37 911.09,-478.61 916.37,-483.21"/>
<text text-anchor="middle" x="782.6" y="-604.8" font-family="Times,serif" font-size="14.00">located_in</text>
</g>
<!-- Gene(9)&#45;&gt;DGES(22) -->
<g id="edge5" class="edge">
<title>Gene(9)&#45;&gt;DGES(22)</title>
<path fill="none" stroke="blue" d="M618.4,-749.64C642.93,-762.54 678.05,-784.92 697.09,-815 719.37,-850.2 694.77,-870.63 715.09,-907 760.2,-987.75 848.29,-1054.53 899.32,-1088.59"/>
<polygon fill="blue" stroke="blue" points="897.51,-1091.59 907.79,-1094.17 901.36,-1085.75 897.51,-1091.59"/>
<text text-anchor="middle" x="782.6" y="-1051.8" font-family="Times,serif" font-size="14.00">differentially_expressed</text>
</g>
<!-- Gene(9)&#45;&gt;Phenotype(13) -->
<g id="edge6" class="edge">
<title>Gene(9)&#45;&gt;Phenotype(13)</title>
<path fill="none" stroke="black" d="M628.45,-732.72C682.9,-726.44 785.75,-714.59 858,-706.27"/>
<polygon fill="black" stroke="black" points="858.45,-709.74 867.99,-705.12 857.65,-702.78 858.45,-709.74"/>
<text text-anchor="middle" x="782.6" y="-723.8" font-family="Times,serif" font-size="14.00">has_observ_pheno</text>
</g>
<!-- Gene(9)&#45;&gt;Trait(21) -->
<g id="edge7" class="edge">
<title>Gene(9)&#45;&gt;Trait(21)</title>
<path fill="none" stroke="blue" d="M629.34,-739.41C733.35,-746 1023.03,-764.36 1148.08,-772.28"/>
<polygon fill="blue" stroke="blue" points="1148.03,-775.78 1158.23,-772.92 1148.47,-768.8 1148.03,-775.78"/>
<text text-anchor="middle" x="939.41" y="-765.8" font-family="Times,serif" font-size="14.00">cooc_wi</text>
</g>
<!-- Gene(9)&#45;&gt;MolFunc(3) -->
<g id="edge8" class="edge">
<title>Gene(9)&#45;&gt;MolFunc(3)</title>
<path fill="none" stroke="black" d="M629.59,-737.67C652.72,-735.87 680.79,-729.36 697.09,-710 729.96,-670.95 682.97,-520.67 715.09,-481 754.47,-432.36 797.59,-475.04 850.12,-441 860.43,-434.31 859.16,-428.42 868.12,-420 878.06,-410.66 889.61,-401.39 900.45,-393.28"/>
<polygon fill="black" stroke="black" points="902.57,-396.06 908.55,-387.32 898.42,-390.42 902.57,-396.06"/>
<text text-anchor="middle" x="782.6" y="-483.8" font-family="Times,serif" font-size="14.00">has_function</text>
</g>
<!-- Gene(9)&#45;&gt;BioProc(4) -->
<g id="edge9" class="edge">
<title>Gene(9)&#45;&gt;BioProc(4)</title>
<path fill="none" stroke="blue" d="M628.74,-733.1C650.03,-729.56 676.48,-722.81 697.09,-710 707.53,-703.51 705.2,-696.3 715.09,-689 766.15,-651.3 834.14,-624.45 881.64,-608.7"/>
<polygon fill="blue" stroke="blue" points="882.73,-612.03 891.15,-605.6 880.56,-605.37 882.73,-612.03"/>
<text text-anchor="middle" x="782.6" y="-691.8" font-family="Times,serif" font-size="14.00">participates_in</text>
</g>
<!-- Gene(9)&#45;&gt;Gene(9) -->
<g id="edge3" class="edge">
<title>Gene(9)&#45;&gt;Gene(9)</title>
<path fill="none" stroke="blue" d="M561.19,-749.17C546.1,-760.6 555.8,-773 590.3,-773 616.98,-773 628.83,-765.58 625.85,-756.93"/>
<polygon fill="blue" stroke="blue" points="628.49,-754.63 619.41,-749.17 623.1,-759.1 628.49,-754.63"/>
<text text-anchor="middle" x="590.3" y="-789.8" font-family="Times,serif" font-size="14.00">physical(&lt;=8)</text>
<text text-anchor="middle" x="590.3" y="-775.8" font-family="Times,serif" font-size="14.00">genetic(&lt;=8)</text>
</g>
<!-- Gene(9)&#45;&gt;SNP(20) -->
<g id="edge10" class="edge">
<title>Gene(9)&#45;&gt;SNP(20)</title>
<path fill="none" stroke="black" d="M623.96,-746.31C686.69,-764.21 824.08,-803.39 894.66,-823.52"/>
<polygon fill="black" stroke="black" points="894,-826.97 904.57,-826.35 895.92,-820.24 894,-826.97"/>
<text text-anchor="middle" x="782.6" y="-811.8" font-family="Times,serif" font-size="14.00">has_variation</text>
</g>
<!-- SNP(20)&#45;&gt;SNPEffect(26) -->
<g id="edge11" class="edge">
<title>SNP(20)&#45;&gt;SNPEffect(26)</title>
<path fill="none" stroke="blue" d="M962.28,-851.14C977.02,-862.01 996.32,-877.58 1010.71,-894 1092.16,-986.95 1161.88,-1117.43 1191.54,-1176.61"/>
<polygon fill="blue" stroke="blue" points="1188.53,-1178.42 1196.11,-1185.81 1194.8,-1175.3 1188.53,-1178.42"/>
<text text-anchor="middle" x="1073.42" y="-1043.8" font-family="Times,serif" font-size="14.00">leads_to</text>
</g>
<!-- SNP(20)&#45;&gt;Trait(21) -->
<g id="edge12" class="edge">
<title>SNP(20)&#45;&gt;Trait(21)</title>
<path fill="none" stroke="black" d="M976.34,-827.91C1020.77,-817.9 1096.94,-800.74 1149.47,-788.91"/>
<polygon fill="black" stroke="black" points="1150.34,-792.3 1159.32,-786.69 1148.8,-785.47 1150.34,-792.3"/>
<text text-anchor="middle" x="1073.42" y="-816.8" font-family="Times,serif" font-size="14.00">associated_with</text>
</g>
<!-- ProtDomain(11) -->
<g id="node21" class="node">
<title>ProtDomain(11)</title>
<ellipse fill="none" stroke="black" cx="590.3" cy="-397" rx="68" ry="18"/>
<text text-anchor="middle" x="590.3" y="-392.8" font-family="Times,serif" font-size="14.00">ProtDomain(11)</text>
</g>
<!-- ProtDomain(11)&#45;&gt;CelComp(5) -->
<g id="edge14" class="edge">
<title>ProtDomain(11)&#45;&gt;CelComp(5)</title>
<path fill="none" stroke="blue" d="M657.29,-399.86C709.93,-403.04 785.33,-409.62 850.12,-423 861.45,-425.34 873.38,-428.57 884.68,-432.02"/>
<polygon fill="blue" stroke="blue" points="883.83,-435.42 894.42,-435.08 885.93,-428.74 883.83,-435.42"/>
<text text-anchor="middle" x="782.6" y="-425.8" font-family="Times,serif" font-size="14.00">located_in</text>
</g>
<!-- ProtDomain(11)&#45;&gt;MolFunc(3) -->
<g id="edge13" class="edge">
<title>ProtDomain(11)&#45;&gt;MolFunc(3)</title>
<path fill="none" stroke="black" d="M654.91,-391.3C674.23,-389.58 695.53,-387.7 715.09,-386 766.16,-381.56 823.81,-376.66 867.74,-372.94"/>
<polygon fill="black" stroke="black" points="868.08,-376.43 877.75,-372.1 867.49,-369.45 868.08,-376.43"/>
<text text-anchor="middle" x="782.6" y="-388.8" font-family="Times,serif" font-size="14.00">has_function</text>
</g>
<!-- ProtDomain(11)&#45;&gt;BioProc(4) -->
<g id="edge15" class="edge">
<title>ProtDomain(11)&#45;&gt;BioProc(4)</title>
<path fill="none" stroke="black" d="M652.53,-404.35C668.88,-409.05 685.27,-416.67 697.09,-429 719.32,-452.19 691.45,-477.25 715.09,-499 759.88,-540.22 794.52,-497.2 850.12,-522 872.07,-531.79 893.3,-548.31 909.43,-562.85"/>
<polygon fill="black" stroke="black" points="907.21,-565.56 916.92,-569.78 911.96,-560.42 907.21,-565.56"/>
<text text-anchor="middle" x="782.6" y="-524.8" font-family="Times,serif" font-size="14.00">participates_in</text>
</g>
<!-- CoExpCluster(23)&#45;&gt;BioProc(4) -->
<g id="edge17" class="edge">
<title>CoExpCluster(23)&#45;&gt;BioProc(4)</title>
<path fill="none" stroke="black" d="M253.12,-934.24C273.99,-909.33 311.91,-866.03 330.49,-857 382.69,-831.61 808.52,-843.49 850.12,-803 872.12,-781.58 854.89,-693.71 868.12,-666 876.47,-648.49 890.54,-632.42 903.91,-619.76"/>
<polygon fill="black" stroke="black" points="906.61,-622.03 911.65,-612.71 901.9,-616.86 906.61,-622.03"/>
<text text-anchor="middle" x="590.3" y="-842.8" font-family="Times,serif" font-size="14.00">enriched_for</text>
</g>
<!-- CoExpCluster(23)&#45;&gt;PlantOntologyTerm(24) -->
<g id="edge18" class="edge">
<title>CoExpCluster(23)&#45;&gt;PlantOntologyTerm(24)</title>
<path fill="none" stroke="blue" d="M276.6,-967.48C293,-973.78 312.5,-980.79 330.49,-986 384.36,-1001.59 445.71,-1014.82 495.16,-1024.4"/>
<polygon fill="blue" stroke="blue" points="494.72,-1027.88 505.2,-1026.32 496.04,-1021 494.72,-1027.88"/>
<text text-anchor="middle" x="398" y="-1020.8" font-family="Times,serif" font-size="14.00">enriched_for</text>
</g>
<!-- CoExpCluster(23)&#45;&gt;CoExpStudy(25) -->
<g id="edge16" class="edge">
<title>CoExpCluster(23)&#45;&gt;CoExpStudy(25)</title>
<path fill="none" stroke="blue" d="M309.09,-957.43C364.22,-961.67 441.18,-967.6 500.49,-972.16"/>
<polygon fill="blue" stroke="blue" points="500.36,-975.66 510.6,-972.94 500.9,-968.68 500.36,-975.66"/>
<text text-anchor="middle" x="398" y="-970.8" font-family="Times,serif" font-size="14.00">part_of</text>
</g>
<!-- Protein(10)&#45;&gt;Publication(2) -->
<g id="edge23" class="edge">
<title>Protein(10)&#45;&gt;Publication(2)</title>
<path fill="none" stroke="black" d="M240.29,-469.28C245.78,-518.26 266.26,-654.83 330.49,-745 379.54,-813.86 406.4,-823.35 483.52,-858 606.69,-913.34 765.7,-924.8 859.41,-926.21"/>
<polygon fill="black" stroke="black" points="859.63,-929.71 869.67,-926.32 859.71,-922.71 859.63,-929.71"/>
<text text-anchor="middle" x="590.3" y="-915.8" font-family="Times,serif" font-size="14.00">pub_in</text>
</g>
<!-- Protein(10)&#45;&gt;Gene(8) -->
<g id="edge32" class="edge">
<title>Protein(10)&#45;&gt;Gene(8)</title>
<path fill="none" stroke="blue" d="M244.09,-433.03C255.01,-400.9 282.49,-333.9 330.49,-301 419.41,-240.04 750.33,-236.8 882.94,-238.05"/>
<polygon fill="blue" stroke="blue" points="883.23,-241.55 893.26,-238.16 883.3,-234.55 883.23,-241.55"/>
<text text-anchor="middle" x="590.3" y="-260.8" font-family="Times,serif" font-size="14.00">enc</text>
</g>
<!-- Protein(10)&#45;&gt;CelComp(5) -->
<g id="edge19" class="edge">
<title>Protein(10)&#45;&gt;CelComp(5)</title>
<path fill="none" stroke="black" d="M288.03,-451C409.75,-451 724.1,-451 866.46,-451"/>
<polygon fill="black" stroke="black" points="866.82,-454.5 876.82,-451 866.82,-447.5 866.82,-454.5"/>
<text text-anchor="middle" x="590.3" y="-453.8" font-family="Times,serif" font-size="14.00">located_in</text>
</g>
<!-- Protein(10)&#45;&gt;Trait(21) -->
<g id="edge29" class="edge">
<title>Protein(10)&#45;&gt;Trait(21)</title>
<path fill="none" stroke="black" d="M250.9,-433.28C267.06,-409.43 295.31,-365.21 312.49,-324 324.35,-295.54 307.29,-277.31 330.49,-257 358.99,-232.04 979.86,-186.01 1010.71,-208 1191.45,-336.81 1207.2,-643.81 1207.37,-743.87"/>
<polygon fill="black" stroke="black" points="1203.87,-743.95 1207.33,-753.96 1210.87,-743.98 1203.87,-743.95"/>
<text text-anchor="middle" x="782.6" y="-214.8" font-family="Times,serif" font-size="14.00">cooc_wi</text>
</g>
<!-- Protein(10)&#45;&gt;MolFunc(3) -->
<g id="edge22" class="edge">
<title>Protein(10)&#45;&gt;MolFunc(3)</title>
<path fill="none" stroke="blue" d="M249.7,-433.36C265.12,-410.39 295.1,-370.53 330.49,-348 390.39,-309.85 413.25,-312.33 483.52,-302 645.45,-278.19 692.65,-292.37 850.12,-337 861.56,-340.24 873.7,-344.09 885.2,-347.94"/>
<polygon fill="blue" stroke="blue" points="884.08,-351.25 894.68,-351.15 886.33,-344.62 884.08,-351.25"/>
<text text-anchor="middle" x="590.3" y="-304.8" font-family="Times,serif" font-size="14.00">has_function</text>
</g>
<!-- Protein(10)&#45;&gt;BioProc(4) -->
<g id="edge31" class="edge">
<title>Protein(10)&#45;&gt;BioProc(4)</title>
<path fill="none" stroke="black" d="M283.86,-458.17C298.71,-460.44 315.29,-462.91 330.49,-465 411.8,-476.18 626.84,-467.54 697.09,-510 709.12,-517.27 703.37,-528.24 715.09,-536 766.19,-569.84 790.82,-548.49 850.12,-564 861.43,-566.96 873.44,-570.49 884.83,-574.04"/>
<polygon fill="black" stroke="black" points="884.07,-577.47 894.66,-577.15 886.18,-570.8 884.07,-577.47"/>
<text text-anchor="middle" x="590.3" y="-512.8" font-family="Times,serif" font-size="14.00">participates_in</text>
</g>
<!-- Protein(10)&#45;&gt;Protein(7) -->
<g id="edge21" class="edge">
<title>Protein(10)&#45;&gt;Protein(7)</title>
<path fill="none" stroke="black" d="M238.87,-432.75C240.81,-384.22 253.29,-251.3 330.49,-187 334.26,-183.86 450.95,-166.72 526.34,-155.92"/>
<polygon fill="black" stroke="black" points="527.29,-159.32 536.69,-154.44 526.3,-152.39 527.29,-159.32"/>
<text text-anchor="middle" x="398" y="-217.8" font-family="Times,serif" font-size="14.00">ortho(&lt;=4)</text>
<text text-anchor="middle" x="398" y="-203.8" font-family="Times,serif" font-size="14.00">h_s_s(&lt;=4)</text>
<text text-anchor="middle" x="398" y="-189.8" font-family="Times,serif" font-size="14.00">xref(&lt;=8)</text>
</g>
<!-- Protein(10)&#45;&gt;EC(15) -->
<g id="edge25" class="edge">
<title>Protein(10)&#45;&gt;EC(15)</title>
<path fill="none" stroke="black" d="M242.53,-468.95C251.51,-504.89 276.85,-585.69 330.49,-626 390.72,-671.27 480.22,-680.26 536.63,-680.9"/>
<polygon fill="black" stroke="black" points="536.75,-684.4 546.76,-680.93 536.77,-677.4 536.75,-684.4"/>
<text text-anchor="middle" x="398" y="-677.8" font-family="Times,serif" font-size="14.00">cat_c</text>
</g>
<!-- Protein(10)&#45;&gt;Enzyme(177) -->
<g id="edge26" class="edge">
<title>Protein(10)&#45;&gt;Enzyme(177)</title>
<path fill="none" stroke="blue" d="M247.74,-468.73C261.91,-494.12 291.55,-540.4 330.49,-564 385.76,-597.5 458.6,-610.18 512.93,-614.81"/>
<polygon fill="blue" stroke="blue" points="512.95,-618.32 523.19,-615.61 513.49,-611.34 512.95,-618.32"/>
<text text-anchor="middle" x="398" y="-610.8" font-family="Times,serif" font-size="14.00">is_a</text>
</g>
<!-- Protein(10)&#45;&gt;ProtDomain(14) -->
<g id="edge33" class="edge">
<title>Protein(10)&#45;&gt;ProtDomain(14)</title>
<path fill="none" stroke="black" d="M257.11,-467.79C274.69,-482.7 302.5,-503.8 330.49,-515 385.2,-536.9 450.85,-546.87 502.34,-551.39"/>
<polygon fill="black" stroke="black" points="502.19,-554.89 512.44,-552.22 502.76,-547.91 502.19,-554.89"/>
<text text-anchor="middle" x="398" y="-548.8" font-family="Times,serif" font-size="14.00">has_domain</text>
</g>
<!-- Protein(10)&#45;&gt;Gene(9) -->
<g id="edge24" class="edge">
<title>Protein(10)&#45;&gt;Gene(9)</title>
<path fill="none" stroke="blue" d="M239.55,-469.02C243.16,-514.51 259.31,-634.49 330.49,-693 361.9,-718.82 475.28,-730.03 541.09,-734.44"/>
<polygon fill="blue" stroke="blue" points="541.02,-737.95 551.22,-735.09 541.47,-730.96 541.02,-737.95"/>
<text text-anchor="middle" x="398" y="-729.8" font-family="Times,serif" font-size="14.00">enc</text>
</g>
<!-- Protein(10)&#45;&gt;ProtDomain(11) -->
<g id="edge28" class="edge">
<title>Protein(10)&#45;&gt;ProtDomain(11)</title>
<path fill="none" stroke="blue" d="M273.93,-438.45C290.85,-432.91 311.51,-426.81 330.49,-423 391.3,-410.81 461.35,-404.21 513.23,-400.72"/>
<polygon fill="blue" stroke="blue" points="513.61,-404.2 523.36,-400.06 513.15,-397.22 513.61,-404.2"/>
<text text-anchor="middle" x="398" y="-425.8" font-family="Times,serif" font-size="14.00">has_domain</text>
</g>
<!-- Protein(10)&#45;&gt;Protein(10) -->
<g id="edge20" class="edge">
<title>Protein(10)&#45;&gt;Protein(10)</title>
<path fill="none" stroke="blue" d="M217.85,-467.66C213.47,-477.62 220.03,-487 237.53,-487 248.74,-487 255.47,-483.15 257.7,-477.77"/>
<polygon fill="blue" stroke="blue" points="261.19,-477.49 257.22,-467.66 254.2,-477.82 261.19,-477.49"/>
<text text-anchor="middle" x="237.53" y="-517.8" font-family="Times,serif" font-size="14.00">xref(&lt;=8)</text>
<text text-anchor="middle" x="237.53" y="-503.8" font-family="Times,serif" font-size="14.00">h_s_s(&lt;=4)</text>
<text text-anchor="middle" x="237.53" y="-489.8" font-family="Times,serif" font-size="14.00">ortho(&lt;=4)</text>
</g>
<!-- Enzyme(17) -->
<g id="node24" class="node">
<title>Enzyme(17)</title>
<ellipse fill="none" stroke="black" cx="590.3" cy="-51" rx="53.63" ry="18"/>
<text text-anchor="middle" x="590.3" y="-46.8" font-family="Times,serif" font-size="14.00">Enzyme(17)</text>
</g>
<!-- Protein(10)&#45;&gt;Enzyme(17) -->
<g id="edge27" class="edge">
<title>Protein(10)&#45;&gt;Enzyme(17)</title>
<path fill="none" stroke="black" d="M238.53,-432.76C239.52,-380.71 249.61,-229.99 330.49,-148 374.72,-103.16 406.57,-127.18 465.52,-105 493.9,-94.32 525.2,-80.65 549.22,-69.74"/>
<polygon fill="black" stroke="black" points="550.74,-72.89 558.38,-65.55 547.83,-66.52 550.74,-72.89"/>
<text text-anchor="middle" x="398" y="-150.8" font-family="Times,serif" font-size="14.00">is_a</text>
</g>
<!-- EC(12) -->
<g id="node25" class="node">
<title>EC(12)</title>
<ellipse fill="none" stroke="black" cx="590.3" cy="-343" rx="36.28" ry="18"/>
<text text-anchor="middle" x="590.3" y="-338.8" font-family="Times,serif" font-size="14.00">EC(12)</text>
</g>
<!-- Protein(10)&#45;&gt;EC(12) -->
<g id="edge30" class="edge">
<title>Protein(10)&#45;&gt;EC(12)</title>
<path fill="none" stroke="blue" d="M256.75,-434.3C274.3,-419.2 302.28,-397.59 330.49,-386 401.38,-356.86 490.91,-347.45 543.93,-344.42"/>
<polygon fill="blue" stroke="blue" points="544.23,-347.91 554.04,-343.9 543.87,-340.92 544.23,-347.91"/>
<text text-anchor="middle" x="398" y="-388.8" font-family="Times,serif" font-size="14.00">cat_c</text>
</g>
<!-- Enzyme(17)&#45;&gt;Reaction(188) -->
<g id="edge35" class="edge">
<title>Enzyme(17)&#45;&gt;Reaction(188)</title>
<path fill="none" stroke="blue" d="M642.89,-46.69C700.11,-41.91 793.08,-34.14 859.46,-28.6"/>
<polygon fill="blue" stroke="blue" points="859.79,-32.08 869.46,-27.76 859.21,-25.11 859.79,-32.08"/>
<text text-anchor="middle" x="782.6" y="-42.8" font-family="Times,serif" font-size="14.00">ca_by</text>
</g>
<!-- Reaction(18) -->
<g id="node26" class="node">
<title>Reaction(18)</title>
<ellipse fill="none" stroke="black" cx="939.41" cy="-80" rx="56.04" ry="18"/>
<text text-anchor="middle" x="939.41" y="-75.8" font-family="Times,serif" font-size="14.00">Reaction(18)</text>
</g>
<!-- Enzyme(17)&#45;&gt;Reaction(18) -->
<g id="edge34" class="edge">
<title>Enzyme(17)&#45;&gt;Reaction(18)</title>
<path fill="none" stroke="black" d="M642.89,-55.31C704.56,-60.46 807.77,-69.09 874.45,-74.66"/>
<polygon fill="black" stroke="black" points="874.57,-78.18 884.83,-75.52 875.15,-71.2 874.57,-78.18"/>
<text text-anchor="middle" x="782.6" y="-75.8" font-family="Times,serif" font-size="14.00">ca_by</text>
</g>
<!-- EC(12)&#45;&gt;MolFunc(3) -->
<g id="edge37" class="edge">
<title>EC(12)&#45;&gt;MolFunc(3)</title>
<path fill="none" stroke="blue" d="M626.6,-341.84C676.54,-340.64 770.62,-340.05 850.12,-349 858.08,-349.9 866.38,-351.15 874.58,-352.59"/>
<polygon fill="blue" stroke="blue" points="874.02,-356.05 884.49,-354.42 875.29,-349.16 874.02,-356.05"/>
<text text-anchor="middle" x="782.6" y="-351.8" font-family="Times,serif" font-size="14.00">equ</text>
</g>
<!-- Reaction(18)&#45;&gt;Path(19) -->
<g id="edge36" class="edge">
<title>Reaction(18)&#45;&gt;Path(19)</title>
<path fill="none" stroke="blue" d="M995.93,-80C1040.91,-80 1104.07,-80 1149.51,-80"/>
<polygon fill="blue" stroke="blue" points="1149.8,-83.5 1159.8,-80 1149.8,-76.5 1149.8,-83.5"/>
<text text-anchor="middle" x="1073.42" y="-82.8" font-family="Times,serif" font-size="14.00">part_of</text>
</g>
</g>
</svg>
