<svg width="1287pt" height="1207pt"
 viewBox="0.00 0.00 1287.45 1207.00" xmlns="http://www.w3.org/2000/svg" xmlns:xlink="http://www.w3.org/1999/xlink">
<g id="graph0" class="graph" transform="scale(1 1) rotate(0) translate(4 1203)">
<title>%3</title>
<polygon fill="white" stroke="transparent" points="-4,4 -4,-1203 1283.45,-1203 1283.45,4 -4,4"/>
<!-- EC(15) -->
<g id="node1" class="node">
<title>EC(15)</title>
<polygon fill="none" stroke="darkgreen" points="629.53,-288.54 629.53,-303.46 606.55,-314 574.05,-314 551.08,-303.46 551.08,-288.54 574.05,-278 606.55,-278 629.53,-288.54"/>
<polygon fill="none" stroke="darkgreen" points="633.54,-285.98 633.54,-306.02 607.43,-318 573.17,-318 547.06,-306.02 547.06,-285.98 573.17,-274 607.43,-274 633.54,-285.98"/>
<text text-anchor="middle" x="590.3" y="-291.8" font-family="Times,serif" font-size="14.00">EC(15)</text>
</g>
<!-- Path(19) -->
<g id="node2" class="node">
<title>Path(19)</title>
<polygon fill="none" stroke="darkgreen" points="1251.61,-346.54 1251.61,-361.46 1225.94,-372 1189.64,-372 1163.97,-361.46 1163.97,-346.54 1189.64,-336 1225.94,-336 1251.61,-346.54"/>
<polygon fill="none" stroke="darkgreen" points="1255.6,-343.86 1255.6,-364.14 1226.73,-376 1188.85,-376 1159.98,-364.14 1159.98,-343.86 1188.85,-332 1226.73,-332 1255.6,-343.86"/>
<text text-anchor="middle" x="1207.79" y="-349.8" font-family="Times,serif" font-size="14.00">Path(19)</text>
</g>
<!-- BioProc(4) -->
<g id="node3" class="node">
<title>BioProc(4)</title>
<polygon fill="none" stroke="darkgreen" points="992.87,-200.54 992.87,-215.46 961.56,-226 917.27,-226 885.96,-215.46 885.96,-200.54 917.27,-190 961.56,-190 992.87,-200.54"/>
<polygon fill="none" stroke="darkgreen" points="996.87,-197.67 996.87,-218.33 962.21,-230 916.62,-230 881.96,-218.33 881.96,-197.67 916.62,-186 962.21,-186 996.87,-197.67"/>
<text text-anchor="middle" x="939.41" y="-203.8" font-family="Times,serif" font-size="14.00">BioProc(4)</text>
</g>
<!-- CelComp(5) -->
<g id="node4" class="node">
<title>CelComp(5)</title>
<polygon fill="none" stroke="darkgreen" points="998.02,-281.54 998.02,-296.46 963.69,-307 915.14,-307 880.81,-296.46 880.81,-281.54 915.14,-271 963.69,-271 998.02,-281.54"/>
<polygon fill="none" stroke="darkgreen" points="1002.01,-278.59 1002.01,-299.41 964.29,-311 914.54,-311 876.82,-299.41 876.82,-278.59 914.54,-267 964.29,-267 1002.01,-278.59"/>
<text text-anchor="middle" x="939.41" y="-284.8" font-family="Times,serif" font-size="14.00">CelComp(5)</text>
</g>
<!-- Protein(7) -->
<g id="node5" class="node">
<title>Protein(7)</title>
<polygon fill="none" stroke="darkgreen" points="639.82,-874.54 639.82,-889.46 610.81,-900 569.79,-900 540.78,-889.46 540.78,-874.54 569.79,-864 610.81,-864 639.82,-874.54"/>
<polygon fill="none" stroke="darkgreen" points="643.81,-871.74 643.81,-892.26 611.51,-904 569.09,-904 536.8,-892.26 536.8,-871.74 569.09,-860 611.51,-860 643.81,-871.74"/>
<text text-anchor="middle" x="590.3" y="-877.8" font-family="Times,serif" font-size="14.00">Protein(7)</text>
</g>
<!-- MolFunc(3) -->
<g id="node6" class="node">
<title>MolFunc(3)</title>
<polygon fill="none" stroke="darkgreen" points="996.81,-506.54 996.81,-521.46 963.19,-532 915.64,-532 882.02,-521.46 882.02,-506.54 915.64,-496 963.19,-496 996.81,-506.54"/>
<polygon fill="none" stroke="darkgreen" points="1000.82,-503.61 1000.82,-524.39 963.8,-536 915.03,-536 878.01,-524.39 878.01,-503.61 915.03,-492 963.8,-492 1000.82,-503.61"/>
<text text-anchor="middle" x="939.41" y="-509.8" font-family="Times,serif" font-size="14.00">MolFunc(3)</text>
</g>
<!-- DGES(22) -->
<g id="node7" class="node">
<title>DGES(22)</title>
<polygon fill="none" stroke="darkgreen" points="991.19,-994.54 991.19,-1009.46 960.86,-1020 917.97,-1020 887.64,-1009.46 887.64,-994.54 917.97,-984 960.86,-984 991.19,-994.54"/>
<polygon fill="none" stroke="darkgreen" points="995.18,-991.7 995.18,-1012.3 961.53,-1024 917.3,-1024 883.65,-1012.3 883.65,-991.7 917.3,-980 961.53,-980 995.18,-991.7"/>
<text text-anchor="middle" x="939.41" y="-997.8" font-family="Times,serif" font-size="14.00">DGES(22)</text>
</g>
<!-- Trait(21) -->
<g id="node8" class="node">
<title>Trait(21)</title>
<polygon fill="none" stroke="darkgreen" points="1253.09,-1104.54 1253.09,-1119.46 1226.55,-1130 1189.03,-1130 1162.49,-1119.46 1162.49,-1104.54 1189.03,-1094 1226.55,-1094 1253.09,-1104.54"/>
<polygon fill="none" stroke="darkgreen" points="1257.1,-1101.83 1257.1,-1122.17 1227.32,-1134 1188.25,-1134 1158.48,-1122.17 1158.48,-1101.83 1188.25,-1090 1227.32,-1090 1257.1,-1101.83"/>
<text text-anchor="middle" x="1207.79" y="-1107.8" font-family="Times,serif" font-size="14.00">Trait(21)</text>
</g>
<!-- SNPEffect(26) -->
<g id="node9" class="node">
<title>SNPEffect(26)</title>
<polygon fill="none" stroke="darkgreen" points="1275.6,-1040.54 1275.6,-1055.46 1235.88,-1066 1179.7,-1066 1139.98,-1055.46 1139.98,-1040.54 1179.7,-1030 1235.88,-1030 1275.6,-1040.54"/>
<polygon fill="none" stroke="darkgreen" points="1279.6,-1037.47 1279.6,-1058.53 1236.4,-1070 1179.18,-1070 1135.98,-1058.53 1135.98,-1037.47 1179.18,-1026 1236.4,-1026 1279.6,-1037.47"/>
<text text-anchor="middle" x="1207.79" y="-1043.8" font-family="Times,serif" font-size="14.00">SNPEffect(26)</text>
</g>
<!-- Publication(2) -->
<g id="node10" class="node">
<title>Publication(2)</title>
<polygon fill="none" stroke="darkgreen" points="1005.31,-932.54 1005.31,-947.46 966.71,-958 912.12,-958 873.52,-947.46 873.52,-932.54 912.12,-922 966.71,-922 1005.31,-932.54"/>
<polygon fill="none" stroke="darkgreen" points="1009.32,-929.49 1009.32,-950.51 967.25,-962 911.58,-962 869.51,-950.51 869.51,-929.49 911.58,-918 967.25,-918 1009.32,-929.49"/>
<text text-anchor="middle" x="939.41" y="-935.8" font-family="Times,serif" font-size="14.00">Publication(2)</text>
</g>
<!-- Reaction(188) -->
<g id="node11" class="node">
<title>Reaction(188)</title>
<polygon fill="none" stroke="darkgreen" points="1005.29,-442.54 1005.29,-457.46 966.7,-468 912.13,-468 873.54,-457.46 873.54,-442.54 912.13,-432 966.7,-432 1005.29,-442.54"/>
<polygon fill="none" stroke="darkgreen" points="1009.3,-439.49 1009.3,-460.51 967.24,-472 911.59,-472 869.53,-460.51 869.53,-439.49 911.59,-428 967.24,-428 1009.3,-439.49"/>
<text text-anchor="middle" x="939.41" y="-445.8" font-family="Times,serif" font-size="14.00">Reaction(188)</text>
</g>
<!-- ProtDomain(14) -->
<g id="node12" class="node">
<title>ProtDomain(14)</title>
<polygon fill="none" stroke="darkgreen" points="664.16,-662.54 664.16,-677.46 620.89,-688 559.71,-688 516.45,-677.46 516.45,-662.54 559.71,-652 620.89,-652 664.16,-662.54"/>
<polygon fill="none" stroke="darkgreen" points="668.16,-659.4 668.16,-680.6 621.38,-692 559.23,-692 512.44,-680.6 512.44,-659.4 559.23,-648 621.38,-648 668.16,-659.4"/>
<text text-anchor="middle" x="590.3" y="-665.8" font-family="Times,serif" font-size="14.00">ProtDomain(14)</text>
</g>
<!-- Enzyme(177) -->
<g id="node13" class="node">
<title>Enzyme(177)</title>
<polygon fill="none" stroke="darkgreen" points="653.37,-600.54 653.37,-615.46 616.42,-626 564.18,-626 527.23,-615.46 527.23,-600.54 564.18,-590 616.42,-590 653.37,-600.54"/>
<polygon fill="none" stroke="darkgreen" points="657.37,-597.53 657.37,-618.47 616.98,-630 563.62,-630 523.23,-618.47 523.23,-597.53 563.62,-586 616.98,-586 657.37,-597.53"/>
<text text-anchor="middle" x="590.3" y="-603.8" font-family="Times,serif" font-size="14.00">Enzyme(177)</text>
</g>
<!-- Phenotype(13) -->
<g id="node14" class="node">
<title>Phenotype(13)</title>
<polygon fill="none" stroke="darkgreen" points="1006.52,-762.54 1006.52,-777.46 967.21,-788 911.62,-788 872.31,-777.46 872.31,-762.54 911.62,-752 967.21,-752 1006.52,-762.54"/>
<polygon fill="none" stroke="darkgreen" points="1010.51,-759.47 1010.51,-780.53 967.74,-792 911.09,-792 868.32,-780.53 868.32,-759.47 911.09,-748 967.74,-748 1010.51,-759.47"/>
<text text-anchor="middle" x="939.41" y="-765.8" font-family="Times,serif" font-size="14.00">Phenotype(13)</text>
</g>
<!-- Gene(8) -->
<g id="node15" class="node">
<title>Gene(8)</title>
<polygon fill="none" stroke="darkgreen" points="981.53,-824.54 981.53,-839.46 956.86,-850 921.97,-850 897.3,-839.46 897.3,-824.54 921.97,-814 956.86,-814 981.53,-824.54"/>
<polygon fill="none" stroke="darkgreen" points="985.51,-821.9 985.51,-842.1 957.67,-854 921.16,-854 893.32,-842.1 893.32,-821.9 921.16,-810 957.67,-810 985.51,-821.9"/>
<text text-anchor="middle" x="939.41" y="-827.8" font-family="Times,serif" font-size="14.00">Gene(8)</text>
</g>
<!-- CoExpStudy(25) -->
<g id="node16" class="node">
<title>CoExpStudy(25)</title>
<polygon fill="none" stroke="darkgreen" points="665.95,-76.54 665.95,-91.46 621.63,-102 558.97,-102 514.66,-91.46 514.66,-76.54 558.97,-66 621.63,-66 665.95,-76.54"/>
<polygon fill="none" stroke="darkgreen" points="669.94,-73.38 669.94,-94.62 622.1,-106 558.5,-106 510.67,-94.62 510.67,-73.38 558.5,-62 622.1,-62 669.94,-73.38"/>
<text text-anchor="middle" x="590.3" y="-79.8" font-family="Times,serif" font-size="14.00">CoExpStudy(25)</text>
</g>
<!-- Gene(1) -->
<g id="node17" class="node">
<title>Gene(1)</title>
<ellipse fill="none" stroke="red" cx="43.08" cy="-976" rx="39.15" ry="39.15"/>
<ellipse fill="none" stroke="red" cx="43.08" cy="-976" rx="43.15" ry="43.15"/>
<text text-anchor="middle" x="43.08" y="-971.8" font-family="Times,serif" font-size="14.00">Gene(1)</text>
</g>
<!-- Gene(1)&#45;&gt;Protein(7) -->
<g id="edge43" class="edge">
<title>Gene(1)&#45;&gt;Protein(7)</title>
<path fill="none" stroke="black" d="M85.04,-965.48C107.78,-959.86 136.65,-953.06 162.58,-948 291.13,-922.91 442.97,-901.33 526.43,-890.15"/>
<polygon fill="black" stroke="black" points="527.07,-893.6 536.52,-888.81 526.14,-886.66 527.07,-893.6"/>
<text text-anchor="middle" x="237.53" y="-950.8" font-family="Times,serif" font-size="14.00">enc</text>
</g>
<!-- Gene(1)&#45;&gt;DGES(22) -->
<g id="edge38" class="edge">
<title>Gene(1)&#45;&gt;DGES(22)</title>
<path fill="none" stroke="blue" d="M68.04,-1011.36C77.8,-1022.87 90.11,-1034.39 104.15,-1041 350.18,-1156.87 443.25,-1067.44 715.09,-1075 775.08,-1076.67 800.02,-1108.04 850.12,-1075 867.07,-1063.82 853.83,-1047.44 868.12,-1033 872.85,-1028.22 878.44,-1024.12 884.37,-1020.62"/>
<polygon fill="blue" stroke="blue" points="886.05,-1023.69 893.24,-1015.91 882.76,-1017.51 886.05,-1023.69"/>
<text text-anchor="middle" x="398" y="-1102.8" font-family="Times,serif" font-size="14.00">differentially_expressed</text>
</g>
<!-- Gene(1)&#45;&gt;Trait(21) -->
<g id="edge35" class="edge">
<title>Gene(1)&#45;&gt;Trait(21)</title>
<path fill="none" stroke="black" d="M59.65,-1016.3C86.06,-1077.03 145.77,-1185 236.53,-1185 236.53,-1185 236.53,-1185 940.41,-1185 1021.22,-1185 1111.06,-1153.37 1163.03,-1131.75"/>
<polygon fill="black" stroke="black" points="1164.44,-1134.96 1172.29,-1127.84 1161.71,-1128.51 1164.44,-1134.96"/>
<text text-anchor="middle" x="590.3" y="-1187.8" font-family="Times,serif" font-size="14.00">cooc_wi</text>
</g>
<!-- Gene(1)&#45;&gt;Publication(2) -->
<g id="edge41" class="edge">
<title>Gene(1)&#45;&gt;Publication(2)</title>
<path fill="none" stroke="black" d="M84.95,-986.46C91.34,-987.83 97.9,-989.07 104.15,-990 203.87,-1004.82 229.74,-1001.27 330.49,-1005 445.88,-1009.27 752.22,-1069.24 850.12,-1008 865.62,-998.3 854.95,-983.69 868.12,-971 871.86,-967.39 876.1,-964.16 880.59,-961.28"/>
<polygon fill="black" stroke="black" points="882.56,-964.19 889.48,-956.16 879.06,-958.12 882.56,-964.19"/>
<text text-anchor="middle" x="398" y="-1019.8" font-family="Times,serif" font-size="14.00">occ_in</text>
</g>
<!-- Gene(1)&#45;&gt;Gene(8) -->
<g id="edge42" class="edge">
<title>Gene(1)&#45;&gt;Gene(8)</title>
<path fill="none" stroke="blue" d="M86.37,-975.56C229.83,-974.05 689.52,-969.14 697.09,-968 767.19,-957.47 789.43,-959.65 850.12,-923 864.34,-914.41 892.48,-884.32 913.19,-861.06"/>
<polygon fill="blue" stroke="blue" points="915.9,-863.29 919.9,-853.48 910.65,-858.65 915.9,-863.29"/>
<text text-anchor="middle" x="398" y="-988.8" font-family="Times,serif" font-size="14.00">homoeolog(&lt;=2)</text>
<text text-anchor="middle" x="398" y="-974.8" font-family="Times,serif" font-size="14.00">regulates(&lt;=2)</text>
</g>
<!-- SNP(20) -->
<g id="node20" class="node">
<title>SNP(20)</title>
<ellipse fill="none" stroke="black" cx="939.41" cy="-1060" rx="41.13" ry="18"/>
<text text-anchor="middle" x="939.41" y="-1055.8" font-family="Times,serif" font-size="14.00">SNP(20)</text>
</g>
<!-- Gene(1)&#45;&gt;SNP(20) -->
<g id="edge39" class="edge">
<title>Gene(1)&#45;&gt;SNP(20)</title>
<path fill="none" stroke="black" d="M64.76,-1013.58C75.1,-1030.09 88.71,-1048.89 104.15,-1063 126.17,-1083.12 134.27,-1086.64 162.58,-1096 307.65,-1143.96 701.04,-1129.47 850.12,-1096 867.91,-1092.01 886.73,-1084.78 902.41,-1077.85"/>
<polygon fill="black" stroke="black" points="904.08,-1080.94 911.73,-1073.61 901.18,-1074.57 904.08,-1080.94"/>
<text text-anchor="middle" x="398" y="-1142.8" font-family="Times,serif" font-size="14.00">has_variation</text>
<text text-anchor="middle" x="398" y="-1128.8" font-family="Times,serif" font-size="14.00">has_mutant</text>
</g>
<!-- Protein(10) -->
<g id="node21" class="node">
<title>Protein(10)</title>
<ellipse fill="none" stroke="black" cx="237.53" cy="-550" rx="50.27" ry="18"/>
<text text-anchor="middle" x="237.53" y="-545.8" font-family="Times,serif" font-size="14.00">Protein(10)</text>
</g>
<!-- Gene(1)&#45;&gt;Protein(10) -->
<g id="edge36" class="edge">
<title>Gene(1)&#45;&gt;Protein(10)</title>
<path fill="none" stroke="blue" d="M59.14,-935.94C70.86,-905.33 87.82,-862.2 104.15,-825 144.69,-732.66 198.12,-625.63 222.86,-576.79"/>
<polygon fill="blue" stroke="blue" points="226.01,-578.32 227.42,-567.82 219.77,-575.15 226.01,-578.32"/>
<text text-anchor="middle" x="124.37" y="-827.8" font-family="Times,serif" font-size="14.00">enc</text>
</g>
<!-- Gene(9) -->
<g id="node23" class="node">
<title>Gene(9)</title>
<ellipse fill="none" stroke="black" cx="590.3" cy="-778" rx="39.15" ry="18"/>
<text text-anchor="middle" x="590.3" y="-773.8" font-family="Times,serif" font-size="14.00">Gene(9)</text>
</g>
<!-- Gene(1)&#45;&gt;Gene(9) -->
<g id="edge37" class="edge">
<title>Gene(1)&#45;&gt;Gene(9)</title>
<path fill="none" stroke="black" d="M75.22,-946.72C97.76,-927.23 129.88,-902.76 162.58,-889 288.35,-836.06 335.59,-880.72 465.52,-839 498.08,-828.54 532.82,-810.78 557.18,-797.11"/>
<polygon fill="black" stroke="black" points="559.03,-800.09 565.99,-792.09 555.56,-794 559.03,-800.09"/>
<text text-anchor="middle" x="237.53" y="-905.8" font-family="Times,serif" font-size="14.00">homoeolog(&lt;=2)</text>
<text text-anchor="middle" x="237.53" y="-891.8" font-family="Times,serif" font-size="14.00">regulates(&lt;=2)</text>
</g>
<!-- CoExpCluster(23) -->
<g id="node26" class="node">
<title>CoExpCluster(23)</title>
<ellipse fill="none" stroke="black" cx="237.53" cy="-113" rx="74.9" ry="18"/>
<text text-anchor="middle" x="237.53" y="-108.8" font-family="Times,serif" font-size="14.00">CoExpCluster(23)</text>
</g>
<!-- Gene(1)&#45;&gt;CoExpCluster(23) -->
<g id="edge40" class="edge">
<title>Gene(1)&#45;&gt;CoExpCluster(23)</title>
<path fill="none" stroke="blue" d="M53.42,-934.08C87.14,-782.88 202.02,-267.76 230.24,-141.24"/>
<polygon fill="blue" stroke="blue" points="233.72,-141.71 232.48,-131.19 226.89,-140.18 233.72,-141.71"/>
<text text-anchor="middle" x="124.37" y="-698.8" font-family="Times,serif" font-size="14.00">part_of</text>
</g>
<!-- PlantOntologyTerm(24) -->
<g id="node18" class="node">
<title>PlantOntologyTerm(24)</title>
<polygon fill="none" stroke="darkgreen" points="692.88,-14.54 692.88,-29.46 632.79,-40 547.81,-40 487.72,-29.46 487.72,-14.54 547.81,-4 632.79,-4 692.88,-14.54"/>
<polygon fill="none" stroke="darkgreen" points="696.87,-11.18 696.87,-32.82 633.14,-44 547.46,-44 483.73,-32.82 483.73,-11.18 547.46,0 633.14,0 696.87,-11.18"/>
<text text-anchor="middle" x="590.3" y="-17.8" font-family="Times,serif" font-size="14.00">PlantOntologyTerm(24)</text>
</g>
<!-- Reaction(18) -->
<g id="node19" class="node">
<title>Reaction(18)</title>
<ellipse fill="none" stroke="black" cx="939.41" cy="-354" rx="56.04" ry="18"/>
<text text-anchor="middle" x="939.41" y="-349.8" font-family="Times,serif" font-size="14.00">Reaction(18)</text>
</g>
<!-- Reaction(18)&#45;&gt;Path(19) -->
<g id="edge1" class="edge">
<title>Reaction(18)&#45;&gt;Path(19)</title>
<path fill="none" stroke="blue" d="M995.93,-354C1040.91,-354 1104.07,-354 1149.51,-354"/>
<polygon fill="blue" stroke="blue" points="1149.8,-357.5 1159.8,-354 1149.8,-350.5 1149.8,-357.5"/>
<text text-anchor="middle" x="1073.42" y="-356.8" font-family="Times,serif" font-size="14.00">part_of</text>
</g>
<!-- SNP(20)&#45;&gt;Trait(21) -->
<g id="edge2" class="edge">
<title>SNP(20)&#45;&gt;Trait(21)</title>
<path fill="none" stroke="blue" d="M979.53,-1064.13C1015.73,-1068.32 1070.92,-1075.68 1118.13,-1086 1130.62,-1088.73 1143.93,-1092.28 1156.33,-1095.88"/>
<polygon fill="blue" stroke="blue" points="1155.47,-1099.27 1166.05,-1098.75 1157.45,-1092.56 1155.47,-1099.27"/>
<text text-anchor="middle" x="1073.42" y="-1088.8" font-family="Times,serif" font-size="14.00">associated_with</text>
</g>
<!-- SNP(20)&#45;&gt;SNPEffect(26) -->
<g id="edge3" class="edge">
<title>SNP(20)&#45;&gt;SNPEffect(26)</title>
<path fill="none" stroke="black" d="M978.57,-1054.25C994.09,-1052.17 1012.22,-1050.07 1028.71,-1049 1060.45,-1046.94 1095.44,-1046.38 1125.93,-1046.44"/>
<polygon fill="black" stroke="black" points="1126.08,-1049.94 1136.09,-1046.48 1126.11,-1042.94 1126.08,-1049.94"/>
<text text-anchor="middle" x="1073.42" y="-1051.8" font-family="Times,serif" font-size="14.00">leads_to</text>
</g>
<!-- Protein(10)&#45;&gt;EC(15) -->
<g id="edge12" class="edge">
<title>Protein(10)&#45;&gt;EC(15)</title>
<path fill="none" stroke="blue" d="M239.67,-531.88C243.54,-487.38 260.2,-372.49 330.49,-320 390.05,-275.51 480.14,-278.35 536.79,-286.02"/>
<polygon fill="blue" stroke="blue" points="536.57,-289.52 546.97,-287.5 537.58,-282.59 536.57,-289.52"/>
<text text-anchor="middle" x="398" y="-322.8" font-family="Times,serif" font-size="14.00">cat_c</text>
</g>
<!-- Protein(10)&#45;&gt;BioProc(4) -->
<g id="edge17" class="edge">
<title>Protein(10)&#45;&gt;BioProc(4)</title>
<path fill="none" stroke="black" d="M241.17,-531.8C250.41,-470.66 283.36,-274.33 330.49,-235 410.8,-167.97 730.68,-188.49 871.4,-201.22"/>
<polygon fill="black" stroke="black" points="871.34,-204.73 881.62,-202.16 871.98,-197.76 871.34,-204.73"/>
<text text-anchor="middle" x="590.3" y="-195.8" font-family="Times,serif" font-size="14.00">participates_in</text>
</g>
<!-- Protein(10)&#45;&gt;CelComp(5) -->
<g id="edge8" class="edge">
<title>Protein(10)&#45;&gt;CelComp(5)</title>
<path fill="none" stroke="blue" d="M238.68,-531.93C240.13,-482.56 251.4,-344.58 330.49,-277 418.28,-201.98 736.13,-254.49 850.12,-273 856.17,-273.98 862.45,-275.04 868.75,-276.13"/>
<polygon fill="blue" stroke="blue" points="868.17,-279.58 878.62,-277.86 869.37,-272.69 868.17,-279.58"/>
<text text-anchor="middle" x="590.3" y="-251.8" font-family="Times,serif" font-size="14.00">located_in</text>
</g>
<!-- Protein(10)&#45;&gt;Protein(7) -->
<g id="edge4" class="edge">
<title>Protein(10)&#45;&gt;Protein(7)</title>
<path fill="none" stroke="blue" d="M241.49,-567.99C249.13,-609.27 273.07,-712.01 330.49,-774 382.56,-830.22 468.43,-858.14 526.86,-871.3"/>
<polygon fill="blue" stroke="blue" points="526.2,-874.74 536.72,-873.44 527.69,-867.9 526.2,-874.74"/>
<text text-anchor="middle" x="398" y="-883.8" font-family="Times,serif" font-size="14.00">h_s_s(&lt;=4)</text>
<text text-anchor="middle" x="398" y="-869.8" font-family="Times,serif" font-size="14.00">xref(&lt;=8)</text>
<text text-anchor="middle" x="398" y="-855.8" font-family="Times,serif" font-size="14.00">ortho(&lt;=4)</text>
</g>
<!-- Protein(10)&#45;&gt;MolFunc(3) -->
<g id="edge13" class="edge">
<title>Protein(10)&#45;&gt;MolFunc(3)</title>
<path fill="none" stroke="black" d="M280.75,-540.74C329.36,-530.59 411.75,-514.96 483.52,-509 619.18,-497.73 778.37,-503.9 867.91,-509.14"/>
<polygon fill="black" stroke="black" points="867.76,-512.63 877.95,-509.74 868.17,-505.65 867.76,-512.63"/>
<text text-anchor="middle" x="590.3" y="-511.8" font-family="Times,serif" font-size="14.00">has_function</text>
</g>
<!-- Protein(10)&#45;&gt;Trait(21) -->
<g id="edge18" class="edge">
<title>Protein(10)&#45;&gt;Trait(21)</title>
<path fill="none" stroke="blue" d="M247.61,-532.22C261.61,-506.8 291.05,-460.77 330.49,-439 414.29,-392.73 937.44,-358.34 1010.71,-419 1068.21,-466.6 1090.32,-1020.07 1136.13,-1079 1141.1,-1085.39 1147.6,-1090.59 1154.64,-1094.82"/>
<polygon fill="blue" stroke="blue" points="1153.31,-1098.07 1163.78,-1099.66 1156.58,-1091.89 1153.31,-1098.07"/>
<text text-anchor="middle" x="782.6" y="-389.8" font-family="Times,serif" font-size="14.00">cooc_wi</text>
</g>
<!-- Protein(10)&#45;&gt;Publication(2) -->
<g id="edge16" class="edge">
<title>Protein(10)&#45;&gt;Publication(2)</title>
<path fill="none" stroke="blue" d="M242.7,-568.1C258.88,-638.12 317.33,-887.87 330.49,-899 408.26,-964.81 713.19,-954.79 859.39,-945.8"/>
<polygon fill="blue" stroke="blue" points="859.88,-949.28 869.64,-945.16 859.44,-942.29 859.88,-949.28"/>
<text text-anchor="middle" x="590.3" y="-954.8" font-family="Times,serif" font-size="14.00">pub_in</text>
</g>
<!-- Protein(10)&#45;&gt;ProtDomain(14) -->
<g id="edge7" class="edge">
<title>Protein(10)&#45;&gt;ProtDomain(14)</title>
<path fill="none" stroke="black" d="M260.13,-566.14C278.12,-578.88 304.85,-596.26 330.49,-607 386.86,-630.63 454.03,-646.65 505.8,-656.63"/>
<polygon fill="black" stroke="black" points="505.47,-660.12 515.95,-658.54 506.77,-653.25 505.47,-660.12"/>
<text text-anchor="middle" x="398" y="-649.8" font-family="Times,serif" font-size="14.00">has_domain</text>
</g>
<!-- Protein(10)&#45;&gt;Enzyme(177) -->
<g id="edge9" class="edge">
<title>Protein(10)&#45;&gt;Enzyme(177)</title>
<path fill="none" stroke="black" d="M281.97,-558.87C297.28,-561.9 314.62,-565.22 330.49,-568 391.79,-578.73 461.52,-589.42 513.15,-597.05"/>
<polygon fill="black" stroke="black" points="512.82,-600.54 523.23,-598.53 513.84,-593.61 512.82,-600.54"/>
<text text-anchor="middle" x="398" y="-591.8" font-family="Times,serif" font-size="14.00">is_a</text>
</g>
<!-- Protein(10)&#45;&gt;Gene(8) -->
<g id="edge14" class="edge">
<title>Protein(10)&#45;&gt;Gene(8)</title>
<path fill="none" stroke="blue" d="M247.75,-567.89C261.93,-593.55 291.59,-640.42 330.49,-665 429.99,-727.9 755.39,-698.11 850.12,-768 863.56,-777.92 855.82,-789.69 868.12,-801 874.12,-806.52 881.27,-811.18 888.68,-815.06"/>
<polygon fill="blue" stroke="blue" points="887.59,-818.42 898.12,-819.58 890.61,-812.1 887.59,-818.42"/>
<text text-anchor="middle" x="590.3" y="-726.8" font-family="Times,serif" font-size="14.00">enc</text>
</g>
<!-- Protein(10)&#45;&gt;Protein(10) -->
<g id="edge6" class="edge">
<title>Protein(10)&#45;&gt;Protein(10)</title>
<path fill="none" stroke="blue" d="M217.85,-566.66C213.47,-576.62 220.03,-586 237.53,-586 248.74,-586 255.47,-582.15 257.7,-576.77"/>
<polygon fill="blue" stroke="blue" points="261.19,-576.49 257.22,-566.66 254.2,-576.82 261.19,-576.49"/>
<text text-anchor="middle" x="237.53" y="-616.8" font-family="Times,serif" font-size="14.00">xref(&lt;=8)</text>
<text text-anchor="middle" x="237.53" y="-602.8" font-family="Times,serif" font-size="14.00">h_s_s(&lt;=4)</text>
<text text-anchor="middle" x="237.53" y="-588.8" font-family="Times,serif" font-size="14.00">ortho(&lt;=4)</text>
</g>
<!-- Enzyme(17) -->
<g id="node22" class="node">
<title>Enzyme(17)</title>
<ellipse fill="none" stroke="black" cx="590.3" cy="-446" rx="53.63" ry="18"/>
<text text-anchor="middle" x="590.3" y="-441.8" font-family="Times,serif" font-size="14.00">Enzyme(17)</text>
</g>
<!-- Protein(10)&#45;&gt;Enzyme(17) -->
<g id="edge5" class="edge">
<title>Protein(10)&#45;&gt;Enzyme(17)</title>
<path fill="none" stroke="black" d="M253.08,-532.56C269.69,-514.01 298.7,-485.51 330.49,-472 393.74,-445.12 473.26,-441.01 527.35,-442.1"/>
<polygon fill="black" stroke="black" points="527.39,-445.6 537.48,-442.37 527.57,-438.6 527.39,-445.6"/>
<text text-anchor="middle" x="398" y="-474.8" font-family="Times,serif" font-size="14.00">is_a</text>
</g>
<!-- Protein(10)&#45;&gt;Gene(9) -->
<g id="edge10" class="edge">
<title>Protein(10)&#45;&gt;Gene(9)</title>
<path fill="none" stroke="blue" d="M241.74,-568.19C249.48,-606.32 272.98,-694.59 330.49,-737 334.74,-740.14 469.44,-760.36 542.79,-771.18"/>
<polygon fill="blue" stroke="blue" points="542.31,-774.65 552.71,-772.65 543.33,-767.73 542.31,-774.65"/>
<text text-anchor="middle" x="398" y="-761.8" font-family="Times,serif" font-size="14.00">enc</text>
</g>
<!-- EC(12) -->
<g id="node24" class="node">
<title>EC(12)</title>
<ellipse fill="none" stroke="black" cx="590.3" cy="-550" rx="36.28" ry="18"/>
<text text-anchor="middle" x="590.3" y="-545.8" font-family="Times,serif" font-size="14.00">EC(12)</text>
</g>
<!-- Protein(10)&#45;&gt;EC(12) -->
<g id="edge11" class="edge">
<title>Protein(10)&#45;&gt;EC(12)</title>
<path fill="none" stroke="black" d="M288.05,-550C356.16,-550 477.82,-550 543.77,-550"/>
<polygon fill="black" stroke="black" points="543.86,-553.5 553.86,-550 543.86,-546.5 543.86,-553.5"/>
<text text-anchor="middle" x="398" y="-552.8" font-family="Times,serif" font-size="14.00">cat_c</text>
</g>
<!-- ProtDomain(11) -->
<g id="node25" class="node">
<title>ProtDomain(11)</title>
<ellipse fill="none" stroke="black" cx="590.3" cy="-354" rx="68" ry="18"/>
<text text-anchor="middle" x="590.3" y="-349.8" font-family="Times,serif" font-size="14.00">ProtDomain(11)</text>
</g>
<!-- Protein(10)&#45;&gt;ProtDomain(11) -->
<g id="edge15" class="edge">
<title>Protein(10)&#45;&gt;ProtDomain(11)</title>
<path fill="none" stroke="black" d="M241.81,-531.99C249.64,-494.76 273.23,-409.65 330.49,-372 388.06,-334.14 469.24,-335.1 525.26,-342.01"/>
<polygon fill="black" stroke="black" points="525.04,-345.51 535.42,-343.36 525.97,-338.57 525.04,-345.51"/>
<text text-anchor="middle" x="398" y="-374.8" font-family="Times,serif" font-size="14.00">has_domain</text>
</g>
<!-- Enzyme(17)&#45;&gt;Reaction(188) -->
<g id="edge20" class="edge">
<title>Enzyme(17)&#45;&gt;Reaction(188)</title>
<path fill="none" stroke="blue" d="M644.35,-444.8C696.68,-443.85 778.93,-442.99 850.12,-445 853.17,-445.09 856.27,-445.19 859.41,-445.31"/>
<polygon fill="blue" stroke="blue" points="859.37,-448.81 869.5,-445.72 859.65,-441.81 859.37,-448.81"/>
<text text-anchor="middle" x="782.6" y="-447.8" font-family="Times,serif" font-size="14.00">ca_by</text>
</g>
<!-- Enzyme(17)&#45;&gt;Reaction(18) -->
<g id="edge19" class="edge">
<title>Enzyme(17)&#45;&gt;Reaction(18)</title>
<path fill="none" stroke="black" d="M619.73,-430.66C641.64,-418.34 672.28,-400.01 697.09,-381 705.82,-374.31 704.96,-368.29 715.09,-364 766.75,-342.11 831.28,-341.75 877.67,-345.59"/>
<polygon fill="black" stroke="black" points="877.6,-349.1 887.87,-346.53 878.24,-342.13 877.6,-349.1"/>
<text text-anchor="middle" x="782.6" y="-366.8" font-family="Times,serif" font-size="14.00">ca_by</text>
</g>
<!-- Gene(9)&#45;&gt;BioProc(4) -->
<g id="edge29" class="edge">
<title>Gene(9)&#45;&gt;BioProc(4)</title>
<path fill="none" stroke="black" d="M629.48,-777C652.87,-774.19 681.27,-766.39 697.09,-746 725.79,-709.01 683.88,-359.9 715.09,-325 755.57,-279.73 802.74,-342 850.12,-304 867.24,-290.26 854.61,-275.31 868.12,-258 875.82,-248.13 885.99,-239.38 896.19,-232.06"/>
<polygon fill="black" stroke="black" points="898.42,-234.78 904.71,-226.26 894.48,-228.99 898.42,-234.78"/>
<text text-anchor="middle" x="782.6" y="-327.8" font-family="Times,serif" font-size="14.00">participates_in</text>
</g>
<!-- Gene(9)&#45;&gt;CelComp(5) -->
<g id="edge24" class="edge">
<title>Gene(9)&#45;&gt;CelComp(5)</title>
<path fill="none" stroke="blue" d="M629.4,-776.45C652.45,-773.39 680.51,-765.53 697.09,-746 736.83,-699.18 677.56,-657.62 715.09,-609 754.68,-557.7 811.86,-606.3 850.12,-554 879.99,-513.16 840.51,-369.41 868.12,-327 872.43,-320.38 878.3,-314.82 884.83,-310.19"/>
<polygon fill="blue" stroke="blue" points="886.78,-313.09 893.37,-304.79 883.05,-307.17 886.78,-313.09"/>
<text text-anchor="middle" x="782.6" y="-611.8" font-family="Times,serif" font-size="14.00">located_in</text>
</g>
<!-- Gene(9)&#45;&gt;MolFunc(3) -->
<g id="edge27" class="edge">
<title>Gene(9)&#45;&gt;MolFunc(3)</title>
<path fill="none" stroke="black" d="M626.5,-771.07C647.77,-766 674.95,-757.9 697.09,-746 792.66,-694.63 877.19,-594.79 915.95,-544.51"/>
<polygon fill="black" stroke="black" points="918.93,-546.37 922.21,-536.29 913.36,-542.12 918.93,-546.37"/>
<text text-anchor="middle" x="782.6" y="-734.8" font-family="Times,serif" font-size="14.00">has_function</text>
</g>
<!-- Gene(9)&#45;&gt;DGES(22) -->
<g id="edge25" class="edge">
<title>Gene(9)&#45;&gt;DGES(22)</title>
<path fill="none" stroke="black" d="M619.45,-790.31C643.66,-802.34 677.64,-822.94 697.09,-851 715.87,-878.11 692.9,-898.59 715.09,-923 755.72,-967.69 823.25,-987.11 873.43,-995.54"/>
<polygon fill="black" stroke="black" points="873.12,-999.03 883.54,-997.13 874.2,-992.12 873.12,-999.03"/>
<text text-anchor="middle" x="782.6" y="-992.8" font-family="Times,serif" font-size="14.00">differentially_expressed</text>
</g>
<!-- Gene(9)&#45;&gt;Trait(21) -->
<g id="edge26" class="edge">
<title>Gene(9)&#45;&gt;Trait(21)</title>
<path fill="none" stroke="blue" d="M620.62,-789.58C645.59,-801.12 680.05,-821.42 697.09,-851 722.57,-895.23 678.75,-1044.15 715.09,-1080 774.79,-1138.9 1031.5,-1126.35 1148.4,-1117.24"/>
<polygon fill="blue" stroke="blue" points="1148.9,-1120.71 1158.59,-1116.43 1148.35,-1113.74 1148.9,-1120.71"/>
<text text-anchor="middle" x="939.41" y="-1127.8" font-family="Times,serif" font-size="14.00">cooc_wi</text>
</g>
<!-- Gene(9)&#45;&gt;Publication(2) -->
<g id="edge30" class="edge">
<title>Gene(9)&#45;&gt;Publication(2)</title>
<path fill="none" stroke="blue" d="M614.07,-792.29C638.53,-807.35 678.79,-831.3 715.09,-849 770.77,-876.16 836.7,-902.33 882.42,-919.57"/>
<polygon fill="blue" stroke="blue" points="881.27,-922.88 891.86,-923.12 883.73,-916.33 881.27,-922.88"/>
<text text-anchor="middle" x="782.6" y="-907.8" font-family="Times,serif" font-size="14.00">pub_in</text>
</g>
<!-- Gene(9)&#45;&gt;Phenotype(13) -->
<g id="edge21" class="edge">
<title>Gene(9)&#45;&gt;Phenotype(13)</title>
<path fill="none" stroke="black" d="M629.44,-777.12C684.08,-775.86 785.95,-773.51 857.75,-771.86"/>
<polygon fill="black" stroke="black" points="858.2,-775.35 868.11,-771.62 858.03,-768.35 858.2,-775.35"/>
<text text-anchor="middle" x="782.6" y="-776.8" font-family="Times,serif" font-size="14.00">has_observ_pheno</text>
</g>
<!-- Gene(9)&#45;&gt;Gene(8) -->
<g id="edge28" class="edge">
<title>Gene(9)&#45;&gt;Gene(8)</title>
<path fill="none" stroke="blue" d="M627.47,-783.63C688.21,-793.08 811.09,-812.19 882.85,-823.36"/>
<polygon fill="blue" stroke="blue" points="882.64,-826.86 893.06,-824.94 883.71,-819.95 882.64,-826.86"/>
<text text-anchor="middle" x="782.6" y="-833.8" font-family="Times,serif" font-size="14.00">genetic(&lt;=8)</text>
<text text-anchor="middle" x="782.6" y="-819.8" font-family="Times,serif" font-size="14.00">physical(&lt;=8)</text>
</g>
<!-- Gene(9)&#45;&gt;SNP(20) -->
<g id="edge22" class="edge">
<title>Gene(9)&#45;&gt;SNP(20)</title>
<path fill="none" stroke="blue" d="M620.36,-789.73C645.17,-801.37 679.52,-821.73 697.09,-851 733.22,-911.22 668.35,-955.57 715.09,-1008 758.33,-1056.51 837.24,-1064.3 888.74,-1063.57"/>
<polygon fill="blue" stroke="blue" points="889.07,-1067.06 898.98,-1063.31 888.89,-1060.07 889.07,-1067.06"/>
<text text-anchor="middle" x="782.6" y="-1064.8" font-family="Times,serif" font-size="14.00">has_variation</text>
</g>
<!-- Gene(9)&#45;&gt;Gene(9) -->
<g id="edge23" class="edge">
<title>Gene(9)&#45;&gt;Gene(9)</title>
<path fill="none" stroke="black" d="M561.19,-790.17C546.1,-801.6 555.8,-814 590.3,-814 616.98,-814 628.83,-806.58 625.85,-797.93"/>
<polygon fill="black" stroke="black" points="628.49,-795.63 619.41,-790.17 623.1,-800.1 628.49,-795.63"/>
<text text-anchor="middle" x="590.3" y="-830.8" font-family="Times,serif" font-size="14.00">physical(&lt;=8)</text>
<text text-anchor="middle" x="590.3" y="-816.8" font-family="Times,serif" font-size="14.00">genetic(&lt;=8)</text>
</g>
<!-- EC(12)&#45;&gt;MolFunc(3) -->
<g id="edge31" class="edge">
<title>EC(12)&#45;&gt;MolFunc(3)</title>
<path fill="none" stroke="blue" d="M625.85,-546.42C682.03,-540.59 794.28,-528.95 867.84,-521.32"/>
<polygon fill="blue" stroke="blue" points="868.37,-524.78 877.96,-520.27 867.65,-517.82 868.37,-524.78"/>
<text text-anchor="middle" x="782.6" y="-538.8" font-family="Times,serif" font-size="14.00">equ</text>
</g>
<!-- ProtDomain(11)&#45;&gt;BioProc(4) -->
<g id="edge34" class="edge">
<title>ProtDomain(11)&#45;&gt;BioProc(4)</title>
<path fill="none" stroke="black" d="M655.35,-348.92C670.68,-344.89 685.85,-338.14 697.09,-327 719.29,-304.99 692.61,-280.72 715.09,-259 756.34,-219.14 822,-208 871.47,-205.88"/>
<polygon fill="black" stroke="black" points="871.89,-209.37 881.77,-205.56 871.67,-202.37 871.89,-209.37"/>
<text text-anchor="middle" x="782.6" y="-261.8" font-family="Times,serif" font-size="14.00">participates_in</text>
</g>
<!-- ProtDomain(11)&#45;&gt;CelComp(5) -->
<g id="edge33" class="edge">
<title>ProtDomain(11)&#45;&gt;CelComp(5)</title>
<path fill="none" stroke="blue" d="M653.68,-347.44C669.11,-343.43 684.75,-337.06 697.09,-327 711.26,-315.44 699.61,-299.73 715.09,-290 739.5,-274.65 810.94,-276.8 866.51,-281.3"/>
<polygon fill="blue" stroke="blue" points="866.43,-284.8 876.69,-282.16 867.02,-277.83 866.43,-284.8"/>
<text text-anchor="middle" x="782.6" y="-292.8" font-family="Times,serif" font-size="14.00">located_in</text>
</g>
<!-- ProtDomain(11)&#45;&gt;MolFunc(3) -->
<g id="edge32" class="edge">
<title>ProtDomain(11)&#45;&gt;MolFunc(3)</title>
<path fill="none" stroke="black" d="M626.98,-369.19C649.5,-380.27 677.87,-397.15 697.09,-419 709.96,-433.64 699.67,-447.07 715.09,-459 763.24,-496.24 791.26,-466.46 850.12,-482 862.56,-485.29 875.72,-489.59 887.97,-493.96"/>
<polygon fill="black" stroke="black" points="886.98,-497.33 897.57,-497.47 889.38,-490.75 886.98,-497.33"/>
<text text-anchor="middle" x="782.6" y="-484.8" font-family="Times,serif" font-size="14.00">has_function</text>
</g>
<!-- CoExpCluster(23)&#45;&gt;BioProc(4) -->
<g id="edge46" class="edge">
<title>CoExpCluster(23)&#45;&gt;BioProc(4)</title>
<path fill="none" stroke="black" d="M304.8,-121.18C313.44,-122.18 322.17,-123.14 330.49,-124 561.44,-147.89 624.32,-123.9 850.12,-178 862.54,-180.98 875.69,-184.97 887.95,-189.07"/>
<polygon fill="black" stroke="black" points="886.96,-192.43 897.55,-192.36 889.23,-185.8 886.96,-192.43"/>
<text text-anchor="middle" x="590.3" y="-151.8" font-family="Times,serif" font-size="14.00">enriched_for</text>
</g>
<!-- CoExpCluster(23)&#45;&gt;CoExpStudy(25) -->
<g id="edge45" class="edge">
<title>CoExpCluster(23)&#45;&gt;CoExpStudy(25)</title>
<path fill="none" stroke="blue" d="M308.67,-107.2C363.77,-102.65 440.84,-96.27 500.28,-91.36"/>
<polygon fill="blue" stroke="blue" points="500.74,-94.83 510.41,-90.52 500.16,-87.86 500.74,-94.83"/>
<text text-anchor="middle" x="398" y="-108.8" font-family="Times,serif" font-size="14.00">part_of</text>
</g>
<!-- CoExpCluster(23)&#45;&gt;PlantOntologyTerm(24) -->
<g id="edge44" class="edge">
<title>CoExpCluster(23)&#45;&gt;PlantOntologyTerm(24)</title>
<path fill="none" stroke="black" d="M275.68,-97.4C292.25,-90.82 312.14,-83.44 330.49,-78 384.5,-61.98 446.12,-48.46 495.67,-38.72"/>
<polygon fill="black" stroke="black" points="496.59,-42.11 505.74,-36.76 495.25,-35.24 496.59,-42.11"/>
<text text-anchor="middle" x="398" y="-80.8" font-family="Times,serif" font-size="14.00">enriched_for</text>
</g>
</g>
</svg>
