<svg width="1039pt" height="824pt"
 viewBox="0.00 0.00 1038.67 824.00" xmlns="http://www.w3.org/2000/svg" xmlns:xlink="http://www.w3.org/1999/xlink">
<g id="graph0" class="graph" transform="scale(1 1) rotate(0) translate(4 820)">
<title>%3</title>
<polygon fill="white" stroke="transparent" points="-4,4 -4,-820 1034.67,-820 1034.67,4 -4,4"/>
<!-- Publication(2) -->
<g id="node1" class="node">
<title>Publication(2)</title>
<polygon fill="none" stroke="darkgreen" points="801.54,-716.54 801.54,-731.46 762.93,-742 708.35,-742 669.74,-731.46 669.74,-716.54 708.35,-706 762.93,-706 801.54,-716.54"/>
<polygon fill="none" stroke="darkgreen" points="805.55,-713.49 805.55,-734.51 763.47,-746 707.81,-746 665.73,-734.51 665.73,-713.49 707.81,-702 763.47,-702 805.55,-713.49"/>
<text text-anchor="middle" x="735.64" y="-719.8" font-family="Times,serif" font-size="14.00">Publication(2)</text>
</g>
<!-- Trait(21) -->
<g id="node2" class="node">
<title>Trait(21)</title>
<polygon fill="none" stroke="darkgreen" points="1026.82,-596.54 1026.82,-611.46 1000.28,-622 962.75,-622 936.21,-611.46 936.21,-596.54 962.75,-586 1000.28,-586 1026.82,-596.54"/>
<polygon fill="none" stroke="darkgreen" points="1030.83,-593.83 1030.83,-614.17 1001.05,-626 961.98,-626 932.2,-614.17 932.2,-593.83 961.98,-582 1001.05,-582 1030.83,-593.83"/>
<text text-anchor="middle" x="981.52" y="-599.8" font-family="Times,serif" font-size="14.00">Trait(21)</text>
</g>
<!-- Gene(1) -->
<g id="node3" class="node">
<title>Gene(1)</title>
<ellipse fill="none" stroke="red" cx="43.08" cy="-628" rx="39.15" ry="39.15"/>
<ellipse fill="none" stroke="red" cx="43.08" cy="-628" rx="43.15" ry="43.15"/>
<text text-anchor="middle" x="43.08" y="-623.8" font-family="Times,serif" font-size="14.00">Gene(1)</text>
</g>
<!-- Protein(7) -->
<g id="node4" class="node">
<title>Protein(7)</title>
<polygon fill="none" stroke="darkgreen" points="495.98,-786.54 495.98,-801.46 466.97,-812 425.95,-812 396.94,-801.46 396.94,-786.54 425.95,-776 466.97,-776 495.98,-786.54"/>
<polygon fill="none" stroke="darkgreen" points="499.97,-783.74 499.97,-804.26 467.67,-816 425.25,-816 392.96,-804.26 392.96,-783.74 425.25,-772 467.67,-772 499.97,-783.74"/>
<text text-anchor="middle" x="446.46" y="-789.8" font-family="Times,serif" font-size="14.00">Protein(7)</text>
</g>
<!-- Gene(1)&#45;&gt;Protein(7) -->
<g id="edge1" class="edge">
<title>Gene(1)&#45;&gt;Protein(7)</title>
<path fill="none" stroke="blue" d="M73.66,-658.41C112.48,-696.03 184.63,-758.36 260.35,-785 299.47,-798.76 346.12,-800.95 382.8,-799.72"/>
<polygon fill="blue" stroke="blue" points="383.02,-803.22 392.87,-799.3 382.73,-796.22 383.02,-803.22"/>
<text text-anchor="middle" x="191.97" y="-779.8" font-family="Times,serif" font-size="14.00">enc</text>
</g>
<!-- Protein(10) -->
<g id="node16" class="node">
<title>Protein(10)</title>
<ellipse fill="none" stroke="black" cx="191.97" cy="-437" rx="50.27" ry="18"/>
<text text-anchor="middle" x="191.97" y="-432.8" font-family="Times,serif" font-size="14.00">Protein(10)</text>
</g>
<!-- Gene(1)&#45;&gt;Protein(10) -->
<g id="edge2" class="edge">
<title>Gene(1)&#45;&gt;Protein(10)</title>
<path fill="none" stroke="black" d="M70,-594.29C99,-556.58 145.34,-496.33 171.44,-462.39"/>
<polygon fill="black" stroke="black" points="174.3,-464.42 177.62,-454.36 168.75,-460.15 174.3,-464.42"/>
<text text-anchor="middle" x="113.87" y="-551.8" font-family="Times,serif" font-size="14.00">enc</text>
</g>
<!-- Path(19) -->
<g id="node5" class="node">
<title>Path(19)</title>
<polygon fill="none" stroke="darkgreen" points="1025.33,-418.54 1025.33,-433.46 999.66,-444 963.37,-444 937.7,-433.46 937.7,-418.54 963.37,-408 999.66,-408 1025.33,-418.54"/>
<polygon fill="none" stroke="darkgreen" points="1029.32,-415.86 1029.32,-436.14 1000.45,-448 962.58,-448 933.71,-436.14 933.71,-415.86 962.58,-404 1000.45,-404 1029.32,-415.86"/>
<text text-anchor="middle" x="981.52" y="-421.8" font-family="Times,serif" font-size="14.00">Path(19)</text>
</g>
<!-- Reaction(188) -->
<g id="node6" class="node">
<title>Reaction(188)</title>
<polygon fill="none" stroke="darkgreen" points="801.52,-360.54 801.52,-375.46 762.93,-386 708.35,-386 669.76,-375.46 669.76,-360.54 708.35,-350 762.93,-350 801.52,-360.54"/>
<polygon fill="none" stroke="darkgreen" points="805.53,-357.49 805.53,-378.51 763.47,-390 707.81,-390 665.75,-378.51 665.75,-357.49 707.81,-346 763.47,-346 805.53,-357.49"/>
<text text-anchor="middle" x="735.64" y="-363.8" font-family="Times,serif" font-size="14.00">Reaction(188)</text>
</g>
<!-- MolFunc(3) -->
<g id="node7" class="node">
<title>MolFunc(3)</title>
<polygon fill="none" stroke="darkgreen" points="793.03,-284.54 793.03,-299.46 759.41,-310 711.87,-310 678.25,-299.46 678.25,-284.54 711.87,-274 759.41,-274 793.03,-284.54"/>
<polygon fill="none" stroke="darkgreen" points="797.04,-281.61 797.04,-302.39 760.03,-314 711.25,-314 674.24,-302.39 674.24,-281.61 711.25,-270 760.03,-270 797.04,-281.61"/>
<text text-anchor="middle" x="735.64" y="-287.8" font-family="Times,serif" font-size="14.00">MolFunc(3)</text>
</g>
<!-- ProtDomain(14) -->
<g id="node8" class="node">
<title>ProtDomain(14)</title>
<polygon fill="none" stroke="darkgreen" points="520.32,-14.54 520.32,-29.46 477.05,-40 415.87,-40 372.61,-29.46 372.61,-14.54 415.87,-4 477.05,-4 520.32,-14.54"/>
<polygon fill="none" stroke="darkgreen" points="524.32,-11.4 524.32,-32.6 477.54,-44 415.39,-44 368.6,-32.6 368.6,-11.4 415.39,0 477.54,0 524.32,-11.4"/>
<text text-anchor="middle" x="446.46" y="-17.8" font-family="Times,serif" font-size="14.00">ProtDomain(14)</text>
</g>
<!-- EC(15) -->
<g id="node9" class="node">
<title>EC(15)</title>
<polygon fill="none" stroke="darkgreen" points="485.69,-719.54 485.69,-734.46 462.71,-745 430.21,-745 407.24,-734.46 407.24,-719.54 430.21,-709 462.71,-709 485.69,-719.54"/>
<polygon fill="none" stroke="darkgreen" points="489.7,-716.98 489.7,-737.02 463.59,-749 429.33,-749 403.22,-737.02 403.22,-716.98 429.33,-705 463.59,-705 489.7,-716.98"/>
<text text-anchor="middle" x="446.46" y="-722.8" font-family="Times,serif" font-size="14.00">EC(15)</text>
</g>
<!-- TO(16) -->
<g id="node10" class="node">
<title>TO(16)</title>
<polygon fill="none" stroke="darkgreen" points="775.1,-538.54 775.1,-553.46 751.98,-564 719.3,-564 696.18,-553.46 696.18,-538.54 719.3,-528 751.98,-528 775.1,-538.54"/>
<polygon fill="none" stroke="darkgreen" points="779.1,-535.97 779.1,-556.03 752.85,-568 718.43,-568 692.18,-556.03 692.18,-535.97 718.43,-524 752.85,-524 779.1,-535.97"/>
<text text-anchor="middle" x="735.64" y="-541.8" font-family="Times,serif" font-size="14.00">TO(16)</text>
</g>
<!-- CelComp(5) -->
<g id="node11" class="node">
<title>CelComp(5)</title>
<polygon fill="none" stroke="darkgreen" points="794.24,-171.54 794.24,-186.46 759.91,-197 711.37,-197 677.04,-186.46 677.04,-171.54 711.37,-161 759.91,-161 794.24,-171.54"/>
<polygon fill="none" stroke="darkgreen" points="798.23,-168.59 798.23,-189.41 760.51,-201 710.77,-201 673.05,-189.41 673.05,-168.59 710.77,-157 760.51,-157 798.23,-168.59"/>
<text text-anchor="middle" x="735.64" y="-174.8" font-family="Times,serif" font-size="14.00">CelComp(5)</text>
</g>
<!-- Gene(8) -->
<g id="node12" class="node">
<title>Gene(8)</title>
<polygon fill="none" stroke="darkgreen" points="777.75,-476.54 777.75,-491.46 753.08,-502 718.2,-502 693.53,-491.46 693.53,-476.54 718.2,-466 753.08,-466 777.75,-476.54"/>
<polygon fill="none" stroke="darkgreen" points="781.73,-473.9 781.73,-494.1 753.9,-506 717.38,-506 689.55,-494.1 689.55,-473.9 717.38,-462 753.9,-462 781.73,-473.9"/>
<text text-anchor="middle" x="735.64" y="-479.8" font-family="Times,serif" font-size="14.00">Gene(8)</text>
</g>
<!-- BioProc(4) -->
<g id="node13" class="node">
<title>BioProc(4)</title>
<polygon fill="none" stroke="darkgreen" points="789.09,-105.54 789.09,-120.46 757.78,-131 713.5,-131 682.19,-120.46 682.19,-105.54 713.5,-95 757.78,-95 789.09,-105.54"/>
<polygon fill="none" stroke="darkgreen" points="793.09,-102.67 793.09,-123.33 758.44,-135 712.84,-135 678.19,-123.33 678.19,-102.67 712.84,-91 758.44,-91 793.09,-102.67"/>
<text text-anchor="middle" x="735.64" y="-108.8" font-family="Times,serif" font-size="14.00">BioProc(4)</text>
</g>
<!-- Phenotype(13) -->
<g id="node14" class="node">
<title>Phenotype(13)</title>
<polygon fill="none" stroke="darkgreen" points="802.75,-654.54 802.75,-669.46 763.44,-680 707.84,-680 668.53,-669.46 668.53,-654.54 707.84,-644 763.44,-644 802.75,-654.54"/>
<polygon fill="none" stroke="darkgreen" points="806.74,-651.47 806.74,-672.53 763.96,-684 707.32,-684 664.55,-672.53 664.55,-651.47 707.32,-640 763.96,-640 806.74,-651.47"/>
<text text-anchor="middle" x="735.64" y="-657.8" font-family="Times,serif" font-size="14.00">Phenotype(13)</text>
</g>
<!-- Enzyme(177) -->
<g id="node15" class="node">
<title>Enzyme(177)</title>
<polygon fill="none" stroke="darkgreen" points="509.53,-657.54 509.53,-672.46 472.58,-683 420.34,-683 383.39,-672.46 383.39,-657.54 420.34,-647 472.58,-647 509.53,-657.54"/>
<polygon fill="none" stroke="darkgreen" points="513.53,-654.53 513.53,-675.47 473.14,-687 419.78,-687 379.39,-675.47 379.39,-654.53 419.78,-643 473.14,-643 513.53,-654.53"/>
<text text-anchor="middle" x="446.46" y="-660.8" font-family="Times,serif" font-size="14.00">Enzyme(177)</text>
</g>
<!-- Protein(10)&#45;&gt;Publication(2) -->
<g id="edge14" class="edge">
<title>Protein(10)&#45;&gt;Publication(2)</title>
<path fill="none" stroke="black" d="M207.61,-454.28C220.7,-469.27 240.79,-491.13 260.35,-508 304.93,-546.42 315.03,-560.03 368.78,-584 433.51,-612.87 474.05,-569.86 524.14,-620 549.29,-645.17 515.85,-674.03 542.14,-698 572.23,-725.42 616.74,-732.76 655.39,-732.87"/>
<polygon fill="black" stroke="black" points="655.64,-736.36 665.59,-732.73 655.55,-729.36 655.64,-736.36"/>
<text text-anchor="middle" x="446.46" y="-622.8" font-family="Times,serif" font-size="14.00">pub_in</text>
</g>
<!-- Protein(10)&#45;&gt;Protein(7) -->
<g id="edge9" class="edge">
<title>Protein(10)&#45;&gt;Protein(7)</title>
<path fill="none" stroke="blue" d="M195.11,-455.29C201.87,-509.85 224.42,-669.93 260.35,-706 289.62,-735.38 317.32,-704.5 350.78,-729 363.02,-737.96 357.45,-747.92 368.78,-758 376.36,-764.75 385.43,-770.47 394.62,-775.23"/>
<polygon fill="blue" stroke="blue" points="393.29,-778.48 403.82,-779.68 396.34,-772.17 393.29,-778.48"/>
<text text-anchor="middle" x="305.57" y="-773.8" font-family="Times,serif" font-size="14.00">xref(&lt;=6)</text>
<text text-anchor="middle" x="305.57" y="-759.8" font-family="Times,serif" font-size="14.00">equivalent(&lt;=4)</text>
<text text-anchor="middle" x="305.57" y="-745.8" font-family="Times,serif" font-size="14.00">ortho(&lt;=4)</text>
<text text-anchor="middle" x="305.57" y="-731.8" font-family="Times,serif" font-size="14.00">h_s_s(&lt;=4)</text>
</g>
<!-- Protein(10)&#45;&gt;MolFunc(3) -->
<g id="edge4" class="edge">
<title>Protein(10)&#45;&gt;MolFunc(3)</title>
<path fill="none" stroke="black" d="M204.23,-419.45C216.44,-401.41 237.3,-373.3 260.35,-354 302.58,-318.64 315.49,-307.92 368.78,-294 468.71,-267.9 589.3,-274.15 663.98,-282.18"/>
<polygon fill="black" stroke="black" points="663.88,-285.69 674.21,-283.33 664.66,-278.74 663.88,-285.69"/>
<text text-anchor="middle" x="446.46" y="-296.8" font-family="Times,serif" font-size="14.00">has_function</text>
</g>
<!-- Protein(10)&#45;&gt;ProtDomain(14) -->
<g id="edge5" class="edge">
<title>Protein(10)&#45;&gt;ProtDomain(14)</title>
<path fill="none" stroke="blue" d="M193.45,-418.94C195.7,-349.96 207.36,-104.33 260.35,-52 285.87,-26.81 323.68,-17.74 358.5,-15.58"/>
<polygon fill="blue" stroke="blue" points="358.87,-19.07 368.71,-15.14 358.56,-12.08 358.87,-19.07"/>
<text text-anchor="middle" x="305.57" y="-54.8" font-family="Times,serif" font-size="14.00">has_domain</text>
</g>
<!-- Protein(10)&#45;&gt;EC(15) -->
<g id="edge6" class="edge">
<title>Protein(10)&#45;&gt;EC(15)</title>
<path fill="none" stroke="black" d="M192.57,-455.1C192.64,-498.61 199.15,-609.81 260.35,-669 290.17,-697.83 311.18,-679.68 350.78,-692 367.55,-697.22 385.69,-703.71 401.57,-709.68"/>
<polygon fill="black" stroke="black" points="400.54,-713.04 411.13,-713.32 403.03,-706.49 400.54,-713.04"/>
<text text-anchor="middle" x="305.57" y="-694.8" font-family="Times,serif" font-size="14.00">cat_c</text>
</g>
<!-- Protein(10)&#45;&gt;CelComp(5) -->
<g id="edge13" class="edge">
<title>Protein(10)&#45;&gt;CelComp(5)</title>
<path fill="none" stroke="blue" d="M196.9,-418.61C204.24,-388.63 222.79,-329.13 260.35,-295 372.87,-192.77 560.51,-176.85 662.79,-176.48"/>
<polygon fill="blue" stroke="blue" points="663.02,-179.98 673.02,-176.49 663.03,-172.98 663.02,-179.98"/>
<text text-anchor="middle" x="446.46" y="-228.8" font-family="Times,serif" font-size="14.00">located_in</text>
</g>
<!-- Protein(10)&#45;&gt;Gene(8) -->
<g id="edge10" class="edge">
<title>Protein(10)&#45;&gt;Gene(8)</title>
<path fill="none" stroke="black" d="M242.52,-437.63C326.14,-439.23 500.45,-444.91 646.34,-465 657.64,-466.55 669.64,-468.76 681.03,-471.12"/>
<polygon fill="black" stroke="black" points="680.35,-474.55 690.86,-473.22 681.81,-467.71 680.35,-474.55"/>
<text text-anchor="middle" x="446.46" y="-453.8" font-family="Times,serif" font-size="14.00">enc</text>
</g>
<!-- Protein(10)&#45;&gt;BioProc(4) -->
<g id="edge11" class="edge">
<title>Protein(10)&#45;&gt;BioProc(4)</title>
<path fill="none" stroke="blue" d="M194.42,-418.61C199.61,-357.76 219.09,-164.22 260.35,-120 313.86,-62.67 550.25,-86.77 667.8,-102.87"/>
<polygon fill="blue" stroke="blue" points="667.38,-106.34 677.77,-104.25 668.34,-99.41 667.38,-106.34"/>
<text text-anchor="middle" x="446.46" y="-90.8" font-family="Times,serif" font-size="14.00">participates_in</text>
</g>
<!-- Protein(10)&#45;&gt;Enzyme(177) -->
<g id="edge16" class="edge">
<title>Protein(10)&#45;&gt;Enzyme(177)</title>
<path fill="none" stroke="black" d="M193.87,-455.18C196.77,-492.92 208.99,-579.98 260.35,-625 276.7,-639.33 325.53,-649.52 368.93,-656.04"/>
<polygon fill="black" stroke="black" points="368.56,-659.52 378.96,-657.49 369.56,-652.59 368.56,-659.52"/>
<text text-anchor="middle" x="305.57" y="-654.8" font-family="Times,serif" font-size="14.00">is_a</text>
</g>
<!-- Protein(10)&#45;&gt;Protein(10) -->
<g id="edge8" class="edge">
<title>Protein(10)&#45;&gt;Protein(10)</title>
<path fill="none" stroke="black" d="M178.04,-454.41C175.44,-464.09 180.08,-473 191.97,-473 199.39,-473 203.99,-469.52 205.76,-464.54"/>
<polygon fill="black" stroke="black" points="209.26,-464.45 205.89,-454.41 202.26,-464.36 209.26,-464.45"/>
<text text-anchor="middle" x="191.97" y="-517.8" font-family="Times,serif" font-size="14.00">xref(&lt;=6)</text>
<text text-anchor="middle" x="191.97" y="-503.8" font-family="Times,serif" font-size="14.00">equivalent(&lt;=4)</text>
<text text-anchor="middle" x="191.97" y="-489.8" font-family="Times,serif" font-size="14.00">h_s_s(&lt;=4)</text>
<text text-anchor="middle" x="191.97" y="-475.8" font-family="Times,serif" font-size="14.00">ortho(&lt;=4)</text>
</g>
<!-- Enzyme(17) -->
<g id="node17" class="node">
<title>Enzyme(17)</title>
<ellipse fill="none" stroke="black" cx="446.46" cy="-397" rx="53.63" ry="18"/>
<text text-anchor="middle" x="446.46" y="-392.8" font-family="Times,serif" font-size="14.00">Enzyme(17)</text>
</g>
<!-- Protein(10)&#45;&gt;Enzyme(17) -->
<g id="edge3" class="edge">
<title>Protein(10)&#45;&gt;Enzyme(17)</title>
<path fill="none" stroke="blue" d="M235.3,-427.76C243.59,-426.08 252.23,-424.41 260.35,-423 302,-415.76 349.19,-409.15 385.5,-404.41"/>
<polygon fill="blue" stroke="blue" points="385.97,-407.88 395.43,-403.13 385.07,-400.94 385.97,-407.88"/>
<text text-anchor="middle" x="305.57" y="-425.8" font-family="Times,serif" font-size="14.00">is_a</text>
</g>
<!-- Gene(9) -->
<g id="node18" class="node">
<title>Gene(9)</title>
<ellipse fill="none" stroke="black" cx="446.46" cy="-511" rx="39.15" ry="18"/>
<text text-anchor="middle" x="446.46" y="-506.8" font-family="Times,serif" font-size="14.00">Gene(9)</text>
</g>
<!-- Protein(10)&#45;&gt;Gene(9) -->
<g id="edge7" class="edge">
<title>Protein(10)&#45;&gt;Gene(9)</title>
<path fill="none" stroke="blue" d="M223.8,-450.95C235.15,-455.79 248.2,-460.99 260.35,-465 307.21,-480.46 362.22,-493.5 400.03,-501.71"/>
<polygon fill="blue" stroke="blue" points="399.71,-505.22 410.22,-503.89 401.17,-498.38 399.71,-505.22"/>
<text text-anchor="middle" x="305.57" y="-492.8" font-family="Times,serif" font-size="14.00">enc</text>
</g>
<!-- EC(12) -->
<g id="node19" class="node">
<title>EC(12)</title>
<ellipse fill="none" stroke="black" cx="446.46" cy="-335" rx="36.28" ry="18"/>
<text text-anchor="middle" x="446.46" y="-330.8" font-family="Times,serif" font-size="14.00">EC(12)</text>
</g>
<!-- Protein(10)&#45;&gt;EC(12) -->
<g id="edge12" class="edge">
<title>Protein(10)&#45;&gt;EC(12)</title>
<path fill="none" stroke="black" d="M213.5,-420.54C226.36,-410.87 243.62,-399.01 260.35,-391 306.92,-368.71 364.33,-353 402.75,-344"/>
<polygon fill="black" stroke="black" points="403.61,-347.39 412.58,-341.75 402.05,-340.57 403.61,-347.39"/>
<text text-anchor="middle" x="305.57" y="-393.8" font-family="Times,serif" font-size="14.00">cat_c</text>
</g>
<!-- ProtDomain(11) -->
<g id="node20" class="node">
<title>ProtDomain(11)</title>
<ellipse fill="none" stroke="black" cx="446.46" cy="-130" rx="68" ry="18"/>
<text text-anchor="middle" x="446.46" y="-125.8" font-family="Times,serif" font-size="14.00">ProtDomain(11)</text>
</g>
<!-- Protein(10)&#45;&gt;ProtDomain(11) -->
<g id="edge15" class="edge">
<title>Protein(10)&#45;&gt;ProtDomain(11)</title>
<path fill="none" stroke="blue" d="M194.69,-418.92C200.42,-362.6 220.81,-191.93 260.35,-156 290.78,-128.36 336.42,-121.7 374.77,-122.04"/>
<polygon fill="blue" stroke="blue" points="374.78,-125.54 384.86,-122.29 374.95,-118.54 374.78,-125.54"/>
<text text-anchor="middle" x="305.57" y="-158.8" font-family="Times,serif" font-size="14.00">has_domain</text>
</g>
<!-- Enzyme(17)&#45;&gt;Reaction(188) -->
<g id="edge18" class="edge">
<title>Enzyme(17)&#45;&gt;Reaction(188)</title>
<path fill="none" stroke="black" d="M498.14,-391.88C541.75,-387.48 605.4,-381.05 655.69,-375.97"/>
<polygon fill="black" stroke="black" points="656.28,-379.43 665.88,-374.94 655.58,-372.47 656.28,-379.43"/>
<text text-anchor="middle" x="594.24" y="-388.8" font-family="Times,serif" font-size="14.00">ca_by</text>
</g>
<!-- Reaction(18) -->
<g id="node21" class="node">
<title>Reaction(18)</title>
<ellipse fill="none" stroke="black" cx="735.64" cy="-426" rx="56.04" ry="18"/>
<text text-anchor="middle" x="735.64" y="-421.8" font-family="Times,serif" font-size="14.00">Reaction(18)</text>
</g>
<!-- Enzyme(17)&#45;&gt;Reaction(18) -->
<g id="edge17" class="edge">
<title>Enzyme(17)&#45;&gt;Reaction(18)</title>
<path fill="none" stroke="blue" d="M498.14,-402.12C546.45,-407 619.34,-414.36 671.42,-419.62"/>
<polygon fill="blue" stroke="blue" points="671.25,-423.12 681.55,-420.64 671.95,-416.15 671.25,-423.12"/>
<text text-anchor="middle" x="594.24" y="-418.8" font-family="Times,serif" font-size="14.00">ca_by</text>
</g>
<!-- Gene(9)&#45;&gt;Publication(2) -->
<g id="edge20" class="edge">
<title>Gene(9)&#45;&gt;Publication(2)</title>
<path fill="none" stroke="black" d="M467.77,-526.43C485.25,-540.78 509.85,-563.7 524.14,-589 539.94,-616.97 519.24,-636.47 542.14,-659 576.09,-692.4 601.6,-667.69 646.34,-684 654.75,-687.06 656.25,-689.19 664.34,-693 670.51,-695.9 677.01,-698.87 683.47,-701.78"/>
<polygon fill="black" stroke="black" points="682.3,-705.09 692.86,-705.97 685.15,-698.7 682.3,-705.09"/>
<text text-anchor="middle" x="594.24" y="-686.8" font-family="Times,serif" font-size="14.00">pub_in</text>
</g>
<!-- Gene(9)&#45;&gt;MolFunc(3) -->
<g id="edge25" class="edge">
<title>Gene(9)&#45;&gt;MolFunc(3)</title>
<path fill="none" stroke="blue" d="M478.9,-500.71C532.09,-483.02 635.17,-447.47 646.34,-434 674.34,-400.25 639.86,-373.37 664.34,-337 670.23,-328.25 678.45,-320.85 687.2,-314.72"/>
<polygon fill="blue" stroke="blue" points="689.18,-317.6 695.69,-309.24 685.39,-311.72 689.18,-317.6"/>
<text text-anchor="middle" x="594.24" y="-479.8" font-family="Times,serif" font-size="14.00">has_function</text>
</g>
<!-- Gene(9)&#45;&gt;TO(16) -->
<g id="edge22" class="edge">
<title>Gene(9)&#45;&gt;TO(16)</title>
<path fill="none" stroke="black" d="M477.71,-522.06C496.08,-528.24 520.15,-535.41 542.14,-539 588.95,-546.65 642.98,-547.97 681.86,-547.63"/>
<polygon fill="black" stroke="black" points="681.95,-551.13 691.9,-547.5 681.86,-544.13 681.95,-551.13"/>
<text text-anchor="middle" x="594.24" y="-549.8" font-family="Times,serif" font-size="14.00">cooc_wi</text>
</g>
<!-- Gene(9)&#45;&gt;CelComp(5) -->
<g id="edge23" class="edge">
<title>Gene(9)&#45;&gt;CelComp(5)</title>
<path fill="none" stroke="blue" d="M479.31,-501.11C495.23,-494.53 513.36,-484.24 524.14,-469 552.76,-428.57 509.73,-396.47 542.14,-359 573.92,-322.26 612.63,-360.97 646.34,-326 667.15,-304.42 650.25,-287.46 664.34,-261 674.55,-241.83 689.91,-223.23 703.67,-208.6"/>
<polygon fill="blue" stroke="blue" points="706.26,-210.95 710.69,-201.32 701.22,-206.09 706.26,-210.95"/>
<text text-anchor="middle" x="594.24" y="-361.8" font-family="Times,serif" font-size="14.00">located_in</text>
</g>
<!-- Gene(9)&#45;&gt;Gene(8) -->
<g id="edge26" class="edge">
<title>Gene(9)&#45;&gt;Gene(8)</title>
<path fill="none" stroke="black" d="M485.69,-509.92C525.82,-508.5 590.67,-505.39 646.34,-499 657.11,-497.76 668.55,-496.09 679.51,-494.31"/>
<polygon fill="black" stroke="black" points="680.12,-497.76 689.4,-492.65 678.96,-490.85 680.12,-497.76"/>
<text text-anchor="middle" x="594.24" y="-523.8" font-family="Times,serif" font-size="14.00">physical(&lt;=8)</text>
<text text-anchor="middle" x="594.24" y="-509.8" font-family="Times,serif" font-size="14.00">genetic(&lt;=8)</text>
</g>
<!-- Gene(9)&#45;&gt;BioProc(4) -->
<g id="edge27" class="edge">
<title>Gene(9)&#45;&gt;BioProc(4)</title>
<path fill="none" stroke="blue" d="M479.9,-501.5C495.98,-495.03 514.08,-484.72 524.14,-469 555.37,-420.22 507.71,-255.57 542.14,-209 571.64,-169.11 605.81,-197.59 646.34,-169 656.39,-161.91 654.65,-155.56 664.34,-148 670.99,-142.82 678.53,-138.1 686.13,-133.92"/>
<polygon fill="blue" stroke="blue" points="687.8,-137 695.05,-129.27 684.56,-130.79 687.8,-137"/>
<text text-anchor="middle" x="594.24" y="-211.8" font-family="Times,serif" font-size="14.00">participates_in</text>
</g>
<!-- Gene(9)&#45;&gt;Phenotype(13) -->
<g id="edge28" class="edge">
<title>Gene(9)&#45;&gt;Phenotype(13)</title>
<path fill="none" stroke="black" d="M463.83,-527.23C479.5,-542.87 503.72,-567.28 524.14,-589 532.34,-597.71 531.97,-602.72 542.14,-609 562.61,-621.64 617.48,-636.16 663.43,-646.8"/>
<polygon fill="black" stroke="black" points="662.85,-650.26 673.38,-649.08 664.41,-643.43 662.85,-650.26"/>
<text text-anchor="middle" x="594.24" y="-643.8" font-family="Times,serif" font-size="14.00">has_observ_pheno</text>
</g>
<!-- Gene(9)&#45;&gt;Gene(9) -->
<g id="edge24" class="edge">
<title>Gene(9)&#45;&gt;Gene(9)</title>
<path fill="none" stroke="black" d="M423.04,-525.79C415.41,-536.42 423.22,-547 446.46,-547 462.08,-547 470.73,-542.22 472.41,-535.86"/>
<polygon fill="black" stroke="black" points="475.71,-534.64 469.88,-525.79 468.92,-536.34 475.71,-534.64"/>
<text text-anchor="middle" x="446.46" y="-563.8" font-family="Times,serif" font-size="14.00">genetic(&lt;=8)</text>
<text text-anchor="middle" x="446.46" y="-549.8" font-family="Times,serif" font-size="14.00">physical(&lt;=8)</text>
</g>
<!-- SNP(20) -->
<g id="node22" class="node">
<title>SNP(20)</title>
<ellipse fill="none" stroke="black" cx="735.64" cy="-604" rx="41.13" ry="18"/>
<text text-anchor="middle" x="735.64" y="-599.8" font-family="Times,serif" font-size="14.00">SNP(20)</text>
</g>
<!-- Gene(9)&#45;&gt;SNP(20) -->
<g id="edge21" class="edge">
<title>Gene(9)&#45;&gt;SNP(20)</title>
<path fill="none" stroke="blue" d="M469.05,-525.98C487.63,-538.2 515.57,-555.02 542.14,-565 589.28,-582.69 646.07,-592.95 685.71,-598.46"/>
<polygon fill="blue" stroke="blue" points="685.28,-601.94 695.65,-599.8 686.21,-595 685.28,-601.94"/>
<text text-anchor="middle" x="594.24" y="-593.8" font-family="Times,serif" font-size="14.00">has_variation</text>
</g>
<!-- EC(12)&#45;&gt;MolFunc(3) -->
<g id="edge30" class="edge">
<title>EC(12)&#45;&gt;MolFunc(3)</title>
<path fill="none" stroke="blue" d="M478.37,-326.38C496.77,-321.52 520.64,-315.71 542.14,-312 582.24,-305.08 627.49,-300.23 664.03,-297.04"/>
<polygon fill="blue" stroke="blue" points="664.43,-300.52 674.1,-296.19 663.83,-293.55 664.43,-300.52"/>
<text text-anchor="middle" x="594.24" y="-314.8" font-family="Times,serif" font-size="14.00">equ</text>
</g>
<!-- ProtDomain(11)&#45;&gt;MolFunc(3) -->
<g id="edge32" class="edge">
<title>ProtDomain(11)&#45;&gt;MolFunc(3)</title>
<path fill="none" stroke="black" d="M495.93,-142.48C506.42,-147.13 516.6,-153.45 524.14,-162 543.97,-184.48 520.39,-206.37 542.14,-227 576.55,-259.64 601.49,-234.6 646.34,-250 661.21,-255.1 676.88,-262.01 690.83,-268.75"/>
<polygon fill="black" stroke="black" points="689.66,-272.08 700.17,-273.37 692.76,-265.8 689.66,-272.08"/>
<text text-anchor="middle" x="594.24" y="-252.8" font-family="Times,serif" font-size="14.00">has_function</text>
</g>
<!-- ProtDomain(11)&#45;&gt;CelComp(5) -->
<g id="edge33" class="edge">
<title>ProtDomain(11)&#45;&gt;CelComp(5)</title>
<path fill="none" stroke="blue" d="M512.92,-133.57C551.96,-136.53 602.33,-141.8 646.34,-151 657.67,-153.37 669.6,-156.62 680.9,-160.06"/>
<polygon fill="blue" stroke="blue" points="680.05,-163.46 690.64,-163.12 682.15,-156.79 680.05,-163.46"/>
<text text-anchor="middle" x="594.24" y="-153.8" font-family="Times,serif" font-size="14.00">located_in</text>
</g>
<!-- ProtDomain(11)&#45;&gt;BioProc(4) -->
<g id="edge31" class="edge">
<title>ProtDomain(11)&#45;&gt;BioProc(4)</title>
<path fill="none" stroke="blue" d="M501.34,-119.34C514.63,-117.14 528.86,-115.15 542.14,-114 583.84,-110.39 630.8,-110.08 667.9,-110.69"/>
<polygon fill="blue" stroke="blue" points="668.03,-114.2 678.1,-110.89 668.17,-107.2 668.03,-114.2"/>
<text text-anchor="middle" x="594.24" y="-116.8" font-family="Times,serif" font-size="14.00">participates_in</text>
</g>
<!-- Reaction(18)&#45;&gt;Path(19) -->
<g id="edge19" class="edge">
<title>Reaction(18)&#45;&gt;Path(19)</title>
<path fill="none" stroke="black" d="M791.98,-426C831.28,-426 883.9,-426 923.56,-426"/>
<polygon fill="black" stroke="black" points="923.6,-429.5 933.6,-426 923.6,-422.5 923.6,-429.5"/>
<text text-anchor="middle" x="869.65" y="-428.8" font-family="Times,serif" font-size="14.00">part_of</text>
</g>
<!-- SNP(20)&#45;&gt;Trait(21) -->
<g id="edge29" class="edge">
<title>SNP(20)&#45;&gt;Trait(21)</title>
<path fill="none" stroke="black" d="M776.91,-604C816.45,-604 877.18,-604 922.04,-604"/>
<polygon fill="black" stroke="black" points="922.21,-607.5 932.21,-604 922.21,-600.5 922.21,-607.5"/>
<text text-anchor="middle" x="869.65" y="-606.8" font-family="Times,serif" font-size="14.00">associated_with</text>
</g>
</g>
</svg>
