<?xml version="1.0" encoding="UTF-8" standalone="no"?>
<svg
   xmlns:dc="http://purl.org/dc/elements/1.1/"
   xmlns:cc="http://creativecommons.org/ns#"
   xmlns:rdf="http://www.w3.org/1999/02/22-rdf-syntax-ns#"
   xmlns:svg="http://www.w3.org/2000/svg"
   xmlns="http://www.w3.org/2000/svg"
   xmlns:sodipodi="http://sodipodi.sourceforge.net/DTD/sodipodi-0.dtd"
   xmlns:inkscape="http://www.inkscape.org/namespaces/inkscape"
   xml:space="preserve"
   width="36"
   height="36"
   viewBox="0 0 360 360"
   id="svg2"
   version="1.1"
   inkscape:version="0.91 r13725"
   sodipodi:docname="information.svg"
   style="clip-rule:evenodd;fill-rule:evenodd;image-rendering:optimizeQuality;shape-rendering:geometricPrecision;text-rendering:geometricPrecision"
   inkscape:export-filename="C:\code\qtl\common\client\src\main\webapp\html\GeneMap\assets\img\information_no_shadow.png"
   inkscape:export-xdpi="90"
   inkscape:export-ydpi="90"><metadata
     id="metadata14"><rdf:RDF><cc:Work
         rdf:about=""><dc:format>image/svg+xml</dc:format><dc:type
           rdf:resource="http://purl.org/dc/dcmitype/StillImage" /><dc:title>information icon</dc:title></cc:Work></rdf:RDF></metadata><defs
     id="defs12" /><sodipodi:namedview
     pagecolor="#ffffff"
     bordercolor="#666666"
     borderopacity="1"
     objecttolerance="10"
     gridtolerance="10"
     guidetolerance="10"
     inkscape:pageopacity="0"
     inkscape:pageshadow="2"
     inkscape:window-width="1920"
     inkscape:window-height="1018"
     id="namedview10"
     showgrid="false"
     inkscape:zoom="7.375"
     inkscape:cx="-2.1912643"
     inkscape:cy="-17.180224"
     inkscape:window-x="-8"
     inkscape:window-y="-8"
     inkscape:window-maximized="1"
     inkscape:current-layer="svg2" /><title
     id="title4">information icon</title><desc
     id="desc6">information icon from the IconExperience.com O-Collection. Copyright by INCORS GmbH (www.incors.com).</desc><path
     id="curve1"
     d="m 180,72.857165 c 17.74554,0 32.14285,14.39733 32.14285,32.142835 0,17.7455 -14.39731,32.1425 -32.14285,32.1425 -17.74554,0 -32.14286,-14.397 -32.14286,-32.1425 0,-17.745505 14.39732,-32.142835 32.14286,-32.142835 z M 158.57143,190.71417 C 158.57143,184.82167 153.75,180 147.85714,180 l 0,-21.42833 42.85715,0 c 5.89285,0 10.71428,4.82083 10.71428,10.71417 l 0,85.71416 c 0,5.8925 4.82143,10.71417 10.71428,10.71417 l 10.71429,0 0,21.42833 -21.42857,0 -42.85714,0 -21.42857,0 0,-21.42833 10.71428,0 c 5.89286,0 10.71429,-4.82167 10.71429,-10.71417 l 0,-64.28583 z"
     inkscape:connector-curvature="0"
     style="fill:#444444;fill-opacity:1" /><path
     id="curve0"
     d="m 180,30.000009 c 82.83482,0 150,67.165156 150,149.999991 0,82.835 -67.16518,150 -150,150 C 97.165182,330 30,262.835 30,180 30,97.165165 97.165182,30.000009 180,30.000009 Z m 0,21.428584 c 71.01562,0 128.57143,57.555827 128.57143,128.571407 0,71.01584 -57.55581,128.57167 -128.57143,128.57167 C 108.98438,308.57167 51.428571,251.01584 51.428571,180 51.428571,108.98442 108.98438,51.428593 180,51.428593 Z"
     inkscape:connector-curvature="0"
     style="fill:#444444;fill-opacity:1" /></svg>