<svg width="1355px" height="1032px"
 viewBox="0.00 0.00 1015.90 773.88" xmlns="http://www.w3.org/2000/svg" xmlns:xlink="http://www.w3.org/1999/xlink">
<g id="graph0" class="graph" transform=" rotate(0) translate(4 769.88)">
<title>%3</title>
<polygon fill="white" stroke="transparent" points="-4,4 -4,-769.88 1011.9,-769.88 1011.9,4 -4,4"/>
<!-- Publication(2) -->
<g id="node1" class="node">
<title>Publication(2)</title>
<polygon fill="none" stroke="darkgreen" points="778.77,-612.42 778.77,-627.33 740.16,-637.88 685.57,-637.88 646.97,-627.33 646.97,-612.42 685.57,-601.88 740.16,-601.88 778.77,-612.42"/>
<polygon fill="none" stroke="darkgreen" points="782.78,-609.37 782.78,-630.38 740.7,-641.88 685.04,-641.88 642.96,-630.38 642.96,-609.37 685.04,-597.88 740.7,-597.88 782.78,-609.37"/>
<text text-anchor="middle" x="712.87" y="-615.68" font-family="Times,serif" font-size="14.00">Publication(2)</text>
</g>
<!-- Trait(21) -->
<g id="node2" class="node">
<title>Trait(21)</title>
<polygon fill="none" stroke="darkgreen" points="1004.05,-492.42 1004.05,-507.33 977.51,-517.88 939.98,-517.88 913.44,-507.33 913.44,-492.42 939.98,-481.88 977.51,-481.88 1004.05,-492.42"/>
<polygon fill="none" stroke="darkgreen" points="1008.06,-489.71 1008.06,-510.04 978.28,-521.88 939.21,-521.88 909.43,-510.04 909.43,-489.71 939.21,-477.88 978.28,-477.88 1008.06,-489.71"/>
<text text-anchor="middle" x="958.74" y="-495.68" font-family="Times,serif" font-size="14.00">Trait(21)</text>
</g>
<!-- BioProc(4) -->
<g id="node3" class="node">
<title>BioProc(4)</title>
<polygon fill="none" stroke="darkgreen" points="766.32,-123.42 766.32,-138.33 735.01,-148.88 690.73,-148.88 659.42,-138.33 659.42,-123.42 690.73,-112.88 735.01,-112.88 766.32,-123.42"/>
<polygon fill="none" stroke="darkgreen" points="770.32,-120.55 770.32,-141.21 735.67,-152.88 690.07,-152.88 655.42,-141.21 655.42,-120.55 690.07,-108.88 735.67,-108.88 770.32,-120.55"/>
<text text-anchor="middle" x="712.87" y="-126.68" font-family="Times,serif" font-size="14.00">BioProc(4)</text>
</g>
<!-- MolFunc(3) -->
<g id="node4" class="node">
<title>MolFunc(3)</title>
<polygon fill="none" stroke="darkgreen" points="770.26,-300.42 770.26,-315.33 736.64,-325.88 689.1,-325.88 655.48,-315.33 655.48,-300.42 689.1,-289.88 736.64,-289.88 770.26,-300.42"/>
<polygon fill="none" stroke="darkgreen" points="774.27,-297.49 774.27,-318.27 737.26,-329.88 688.48,-329.88 651.47,-318.27 651.47,-297.49 688.48,-285.88 737.26,-285.88 774.27,-297.49"/>
<text text-anchor="middle" x="712.87" y="-303.68" font-family="Times,serif" font-size="14.00">MolFunc(3)</text>
</g>
<!-- Protein(7) -->
<g id="node5" class="node">
<title>Protein(7)</title>
<polygon fill="none" stroke="darkgreen" points="473.21,-736.42 473.21,-751.33 444.2,-761.88 403.18,-761.88 374.17,-751.33 374.17,-736.42 403.18,-725.88 444.2,-725.88 473.21,-736.42"/>
<polygon fill="none" stroke="darkgreen" points="477.19,-733.61 477.19,-754.14 444.9,-765.88 402.48,-765.88 370.19,-754.14 370.19,-733.61 402.48,-721.88 444.9,-721.88 477.19,-733.61"/>
<text text-anchor="middle" x="423.69" y="-739.68" font-family="Times,serif" font-size="14.00">Protein(7)</text>
</g>
<!-- Reaction(188) -->
<g id="node6" class="node">
<title>Reaction(188)</title>
<polygon fill="none" stroke="darkgreen" points="778.75,-674.42 778.75,-689.33 740.16,-699.88 685.58,-699.88 646.99,-689.33 646.99,-674.42 685.58,-663.88 740.16,-663.88 778.75,-674.42"/>
<polygon fill="none" stroke="darkgreen" points="782.76,-671.37 782.76,-692.38 740.7,-703.88 685.04,-703.88 642.98,-692.38 642.98,-671.37 685.04,-659.88 740.7,-659.88 782.76,-671.37"/>
<text text-anchor="middle" x="712.87" y="-677.68" font-family="Times,serif" font-size="14.00">Reaction(188)</text>
</g>
<!-- TO(16) -->
<g id="node7" class="node">
<title>TO(16)</title>
<polygon fill="none" stroke="darkgreen" points="752.33,-434.42 752.33,-449.33 729.21,-459.88 696.53,-459.88 673.41,-449.33 673.41,-434.42 696.53,-423.88 729.21,-423.88 752.33,-434.42"/>
<polygon fill="none" stroke="darkgreen" points="756.33,-431.85 756.33,-451.91 730.08,-463.88 695.66,-463.88 669.41,-451.91 669.41,-431.85 695.66,-419.88 730.08,-419.88 756.33,-431.85"/>
<text text-anchor="middle" x="712.87" y="-437.68" font-family="Times,serif" font-size="14.00">TO(16)</text>
</g>
<!-- Gene(8) -->
<g id="node8" class="node">
<title>Gene(8)</title>
<polygon fill="none" stroke="darkgreen" points="754.98,-550.42 754.98,-565.33 730.31,-575.88 695.43,-575.88 670.76,-565.33 670.76,-550.42 695.43,-539.88 730.31,-539.88 754.98,-550.42"/>
<polygon fill="none" stroke="darkgreen" points="758.96,-547.78 758.96,-567.98 731.12,-579.88 694.61,-579.88 666.78,-567.98 666.78,-547.78 694.61,-535.88 731.12,-535.88 758.96,-547.78"/>
<text text-anchor="middle" x="712.87" y="-553.68" font-family="Times,serif" font-size="14.00">Gene(8)</text>
</g>
<!-- Phenotype(13) -->
<g id="node9" class="node">
<title>Phenotype(13)</title>
<polygon fill="none" stroke="darkgreen" points="779.98,-372.42 779.98,-387.33 740.67,-397.88 685.07,-397.88 645.76,-387.33 645.76,-372.42 685.07,-361.88 740.67,-361.88 779.98,-372.42"/>
<polygon fill="none" stroke="darkgreen" points="783.96,-369.35 783.96,-390.4 741.19,-401.88 684.55,-401.88 641.77,-390.4 641.77,-369.35 684.55,-357.88 741.19,-357.88 783.96,-369.35"/>
<text text-anchor="middle" x="712.87" y="-375.68" font-family="Times,serif" font-size="14.00">Phenotype(13)</text>
</g>
<!-- CelComp(5) -->
<g id="node10" class="node">
<title>CelComp(5)</title>
<polygon fill="none" stroke="darkgreen" points="771.47,-16.42 771.47,-31.33 737.14,-41.88 688.59,-41.88 654.27,-31.33 654.27,-16.42 688.59,-5.88 737.14,-5.88 771.47,-16.42"/>
<polygon fill="none" stroke="darkgreen" points="775.46,-13.46 775.46,-34.29 737.74,-45.88 688,-45.88 650.28,-34.29 650.28,-13.46 688,-1.88 737.74,-1.88 775.46,-13.46"/>
<text text-anchor="middle" x="712.87" y="-19.68" font-family="Times,serif" font-size="14.00">CelComp(5)</text>
</g>
<!-- EC(15) -->
<g id="node11" class="node">
<title>EC(15)</title>
<polygon fill="none" stroke="darkgreen" points="462.92,-305.42 462.92,-320.33 439.94,-330.88 407.44,-330.88 384.46,-320.33 384.46,-305.42 407.44,-294.88 439.94,-294.88 462.92,-305.42"/>
<polygon fill="none" stroke="darkgreen" points="466.93,-302.86 466.93,-322.9 440.82,-334.88 406.56,-334.88 380.45,-322.9 380.45,-302.86 406.56,-290.88 440.82,-290.88 466.93,-302.86"/>
<text text-anchor="middle" x="423.69" y="-308.68" font-family="Times,serif" font-size="14.00">EC(15)</text>
</g>
<!-- ProtDomain(14) -->
<g id="node12" class="node">
<title>ProtDomain(14)</title>
<polygon fill="none" stroke="darkgreen" points="497.55,-243.42 497.55,-258.33 454.28,-268.88 393.1,-268.88 349.84,-258.33 349.84,-243.42 393.1,-232.88 454.28,-232.88 497.55,-243.42"/>
<polygon fill="none" stroke="darkgreen" points="501.55,-240.28 501.55,-261.47 454.76,-272.88 392.62,-272.88 345.83,-261.47 345.83,-240.28 392.62,-228.88 454.76,-228.88 501.55,-240.28"/>
<text text-anchor="middle" x="423.69" y="-246.68" font-family="Times,serif" font-size="14.00">ProtDomain(14)</text>
</g>
<!-- Path(19) -->
<g id="node13" class="node">
<title>Path(19)</title>
<polygon fill="none" stroke="darkgreen" points="1002.56,-732.42 1002.56,-747.33 976.89,-757.88 940.6,-757.88 914.93,-747.33 914.93,-732.42 940.6,-721.88 976.89,-721.88 1002.56,-732.42"/>
<polygon fill="none" stroke="darkgreen" points="1006.55,-729.74 1006.55,-750.02 977.68,-761.88 939.81,-761.88 910.94,-750.02 910.94,-729.74 939.81,-717.88 977.68,-717.88 1006.55,-729.74"/>
<text text-anchor="middle" x="958.74" y="-735.68" font-family="Times,serif" font-size="14.00">Path(19)</text>
</g>
<!-- Enzyme(177) -->
<g id="node14" class="node">
<title>Enzyme(177)</title>
<polygon fill="none" stroke="darkgreen" points="486.76,-181.42 486.76,-196.33 449.81,-206.88 397.57,-206.88 360.62,-196.33 360.62,-181.42 397.57,-170.88 449.81,-170.88 486.76,-181.42"/>
<polygon fill="none" stroke="darkgreen" points="490.76,-178.4 490.76,-199.35 450.37,-210.88 397.01,-210.88 356.62,-199.35 356.62,-178.4 397.01,-166.88 450.37,-166.88 490.76,-178.4"/>
<text text-anchor="middle" x="423.69" y="-184.68" font-family="Times,serif" font-size="14.00">Enzyme(177)</text>
</g>
<!-- Gene(1) -->
<g id="node15" class="node">
<title>Gene(1)</title>
<ellipse fill="none" stroke="red" cx="43.08" cy="-573.88" rx="39.15" ry="39.15"/>
<ellipse fill="none" stroke="red" cx="43.08" cy="-573.88" rx="43.15" ry="43.15"/>
<text text-anchor="middle" x="43.08" y="-569.68" font-family="Times,serif" font-size="14.00">Gene(1)</text>
</g>
<!-- Gene(1)&#45;&gt;Protein(7) -->
<g id="edge32" class="edge">
<title>Gene(1)&#45;&gt;Protein(7)</title>
<path fill="none" stroke="black" d="M72.99,-605.43C111.38,-644.83 183.35,-710.39 260.35,-737.88 295.41,-750.39 337.48,-751.6 370,-749.83"/>
<text text-anchor="middle" x="191.97" y="-732.68" font-family="Times,serif" font-size="14.00">enc</text>
</g>
<!-- Protein(10) -->
<g id="node19" class="node">
<title>Protein(10)</title>
<ellipse fill="none" stroke="black" cx="191.97" cy="-387.88" rx="50.27" ry="18"/>
<text text-anchor="middle" x="191.97" y="-383.68" font-family="Times,serif" font-size="14.00">Protein(10)</text>
</g>
<!-- Gene(1)&#45;&gt;Protein(10) -->
<g id="edge33" class="edge">
<title>Gene(1)&#45;&gt;Protein(10)</title>
<path fill="none" stroke="blue" d="M70.68,-540.19C101.93,-500.62 152.6,-436.46 176.98,-405.58"/>
<text text-anchor="middle" x="113.87" y="-499.68" font-family="Times,serif" font-size="14.00">enc</text>
</g>
<!-- SNP(20) -->
<g id="node16" class="node">
<title>SNP(20)</title>
<ellipse fill="none" stroke="black" cx="712.87" cy="-499.88" rx="41.13" ry="18"/>
<text text-anchor="middle" x="712.87" y="-495.68" font-family="Times,serif" font-size="14.00">SNP(20)</text>
</g>
<!-- SNP(20)&#45;&gt;Trait(21) -->
<g id="edge1" class="edge">
<title>SNP(20)&#45;&gt;Trait(21)</title>
<path fill="none" stroke="black" d="M754.14,-499.88C796.76,-499.88 864,-499.88 909.44,-499.88"/>
<text text-anchor="middle" x="846.88" y="-502.68" font-family="Times,serif" font-size="14.00">associated_with</text>
</g>
<!-- EC(12) -->
<g id="node17" class="node">
<title>EC(12)</title>
<ellipse fill="none" stroke="black" cx="423.69" cy="-420.88" rx="36.28" ry="18"/>
<text text-anchor="middle" x="423.69" y="-416.68" font-family="Times,serif" font-size="14.00">EC(12)</text>
</g>
<!-- EC(12)&#45;&gt;MolFunc(3) -->
<g id="edge2" class="edge">
<title>EC(12)&#45;&gt;MolFunc(3)</title>
<path fill="none" stroke="black" d="M457.5,-413.96C472.7,-409.22 489.89,-401.44 501.37,-388.88 519.3,-369.27 498.96,-348.88 519.37,-331.88 538.97,-315.55 602.79,-310.14 651.63,-308.45"/>
<text text-anchor="middle" x="571.47" y="-334.68" font-family="Times,serif" font-size="14.00">equ</text>
</g>
<!-- Gene(9) -->
<g id="node18" class="node">
<title>Gene(9)</title>
<ellipse fill="none" stroke="black" cx="423.69" cy="-474.88" rx="39.15" ry="18"/>
<text text-anchor="middle" x="423.69" y="-470.68" font-family="Times,serif" font-size="14.00">Gene(9)</text>
</g>
<!-- Gene(9)&#45;&gt;Publication(2) -->
<g id="edge11" class="edge">
<title>Gene(9)&#45;&gt;Publication(2)</title>
<path fill="none" stroke="blue" d="M442.91,-490.65C461.28,-505.98 490.91,-529.18 519.37,-544.88 565.22,-570.17 621.39,-591.01 661.19,-604.24"/>
<text text-anchor="middle" x="571.47" y="-592.68" font-family="Times,serif" font-size="14.00">pub_in</text>
</g>
<!-- Gene(9)&#45;&gt;BioProc(4) -->
<g id="edge10" class="edge">
<title>Gene(9)&#45;&gt;BioProc(4)</title>
<path fill="none" stroke="black" d="M461.62,-470.39C476.17,-466.71 491.69,-460.01 501.37,-447.88 545.16,-392.96 481.02,-349.72 519.37,-290.88 548.68,-245.92 582.05,-263.87 623.57,-229.88 651.73,-206.83 678.76,-174.52 695.34,-153.16"/>
<text text-anchor="middle" x="571.47" y="-293.68" font-family="Times,serif" font-size="14.00">participates_in</text>
</g>
<!-- Gene(9)&#45;&gt;MolFunc(3) -->
<g id="edge6" class="edge">
<title>Gene(9)&#45;&gt;MolFunc(3)</title>
<path fill="none" stroke="black" d="M461.33,-469.71C475.66,-465.91 491.09,-459.32 501.37,-447.88 524.58,-422.07 494.97,-396.57 519.37,-371.88 552.92,-337.92 578.35,-361.14 623.57,-345.88 640.49,-340.17 658.69,-332.59 674.15,-325.71"/>
<text text-anchor="middle" x="571.47" y="-374.68" font-family="Times,serif" font-size="14.00">has_function</text>
</g>
<!-- Gene(9)&#45;&gt;TO(16) -->
<g id="edge3" class="edge">
<title>Gene(9)&#45;&gt;TO(16)</title>
<path fill="none" stroke="blue" d="M458.67,-466.49C476.61,-462.37 499.07,-457.69 519.37,-454.88 570.63,-447.77 630.13,-444.5 669.26,-443.03"/>
<text text-anchor="middle" x="571.47" y="-457.68" font-family="Times,serif" font-size="14.00">cooc_wi</text>
</g>
<!-- Gene(9)&#45;&gt;Gene(8) -->
<g id="edge5" class="edge">
<title>Gene(9)&#45;&gt;Gene(8)</title>
<path fill="none" stroke="blue" d="M459.89,-482.03C514.93,-493.25 615.91,-514.01 623.57,-516.88 632.15,-520.08 633.38,-522.8 641.57,-526.88 652.92,-532.52 665.53,-538.24 676.89,-543.21"/>
<text text-anchor="middle" x="571.47" y="-533.68" font-family="Times,serif" font-size="14.00">genetic(&lt;=8)</text>
<text text-anchor="middle" x="571.47" y="-519.68" font-family="Times,serif" font-size="14.00">physical(&lt;=8)</text>
</g>
<!-- Gene(9)&#45;&gt;Phenotype(13) -->
<g id="edge7" class="edge">
<title>Gene(9)&#45;&gt;Phenotype(13)</title>
<path fill="none" stroke="blue" d="M458.95,-466.99C472.89,-462.75 488.68,-456.57 501.37,-447.88 511.52,-440.93 508.9,-433.31 519.37,-426.88 556.16,-404.28 603.14,-392.54 641.48,-386.45"/>
<text text-anchor="middle" x="571.47" y="-429.68" font-family="Times,serif" font-size="14.00">has_observ_pheno</text>
</g>
<!-- Gene(9)&#45;&gt;CelComp(5) -->
<g id="edge9" class="edge">
<title>Gene(9)&#45;&gt;CelComp(5)</title>
<path fill="none" stroke="blue" d="M461.98,-470.67C476.6,-467.03 492.06,-460.3 501.37,-447.88 546.07,-388.21 477.54,-174.59 519.37,-112.88 549.22,-68.84 606.71,-46.16 651.12,-34.76"/>
<text text-anchor="middle" x="571.47" y="-115.68" font-family="Times,serif" font-size="14.00">located_in</text>
</g>
<!-- Gene(9)&#45;&gt;SNP(20) -->
<g id="edge8" class="edge">
<title>Gene(9)&#45;&gt;SNP(20)</title>
<path fill="none" stroke="black" d="M462.98,-473.61C503.15,-472.79 568.05,-472.96 623.57,-479.88 641.67,-482.13 661.49,-486.45 677.76,-490.5"/>
<text text-anchor="middle" x="571.47" y="-482.68" font-family="Times,serif" font-size="14.00">has_variation</text>
</g>
<!-- Gene(9)&#45;&gt;Gene(9) -->
<g id="edge4" class="edge">
<title>Gene(9)&#45;&gt;Gene(9)</title>
<path fill="none" stroke="black" d="M402.03,-490.04C395.47,-500.54 402.69,-510.88 423.69,-510.88 444.69,-510.88 451.91,-500.54 445.35,-490.04"/>
<text text-anchor="middle" x="423.69" y="-527.68" font-family="Times,serif" font-size="14.00">genetic(&lt;=8)</text>
<text text-anchor="middle" x="423.69" y="-513.68" font-family="Times,serif" font-size="14.00">physical(&lt;=8)</text>
</g>
<!-- Protein(10)&#45;&gt;Publication(2) -->
<g id="edge25" class="edge">
<title>Protein(10)&#45;&gt;Publication(2)</title>
<path fill="none" stroke="black" d="M198.84,-405.95C214.33,-450.1 261.11,-562.37 346.01,-597.88 443.02,-638.45 567.23,-635.81 643.11,-628.84"/>
<text text-anchor="middle" x="423.69" y="-632.68" font-family="Times,serif" font-size="14.00">pub_in</text>
</g>
<!-- Protein(10)&#45;&gt;BioProc(4) -->
<g id="edge24" class="edge">
<title>Protein(10)&#45;&gt;BioProc(4)</title>
<path fill="none" stroke="blue" d="M194.01,-369.7C197.26,-327.36 210.23,-220.41 260.35,-149.88 287.28,-111.99 301.68,-103.86 346.01,-89.88 459.54,-54.07 601.53,-92.07 670.47,-115.43"/>
<text text-anchor="middle" x="423.69" y="-92.68" font-family="Times,serif" font-size="14.00">participates_in</text>
</g>
<!-- Protein(10)&#45;&gt;MolFunc(3) -->
<g id="edge20" class="edge">
<title>Protein(10)&#45;&gt;MolFunc(3)</title>
<path fill="none" stroke="blue" d="M242.38,-386.08C318.57,-382.44 460.25,-372.01 501.37,-343.88 514.84,-334.66 505.37,-320.26 519.37,-311.88 560.81,-287.06 616.8,-288.98 657.71,-295.37"/>
<text text-anchor="middle" x="423.69" y="-380.68" font-family="Times,serif" font-size="14.00">has_function</text>
</g>
<!-- Protein(10)&#45;&gt;Protein(7) -->
<g id="edge17" class="edge">
<title>Protein(10)&#45;&gt;Protein(7)</title>
<path fill="none" stroke="black" d="M194.95,-405.91C201.47,-462.12 223.94,-632.8 260.35,-672.88 281.71,-696.38 299.79,-681.31 328.01,-695.88 336.78,-700.4 337.48,-703.92 346.01,-708.88 358.15,-715.94 371.97,-722.63 384.5,-728.23"/>
<text text-anchor="middle" x="294.18" y="-726.68" font-family="Times,serif" font-size="14.00">h_s_s(&lt;=5)</text>
<text text-anchor="middle" x="294.18" y="-712.68" font-family="Times,serif" font-size="14.00">ortho(&lt;=5)</text>
<text text-anchor="middle" x="294.18" y="-698.68" font-family="Times,serif" font-size="14.00">xref(&lt;=8)</text>
</g>
<!-- Protein(10)&#45;&gt;Gene(8) -->
<g id="edge14" class="edge">
<title>Protein(10)&#45;&gt;Gene(8)</title>
<path fill="none" stroke="blue" d="M203.92,-405.41C226.11,-439.26 279.92,-513.33 346.01,-547.88 401.08,-576.66 561.98,-590.1 623.57,-581.88 640.11,-579.67 657.93,-575.24 673.21,-570.77"/>
<text text-anchor="middle" x="423.69" y="-582.68" font-family="Times,serif" font-size="14.00">enc</text>
</g>
<!-- Protein(10)&#45;&gt;CelComp(5) -->
<g id="edge23" class="edge">
<title>Protein(10)&#45;&gt;CelComp(5)</title>
<path fill="none" stroke="black" d="M194.92,-369.72C201.44,-312.26 224.07,-135.63 260.35,-92.88 357.2,21.24 556.69,4.59 654.81,-12.03"/>
<text text-anchor="middle" x="423.69" y="-31.68" font-family="Times,serif" font-size="14.00">located_in</text>
</g>
<!-- Protein(10)&#45;&gt;EC(15) -->
<g id="edge13" class="edge">
<title>Protein(10)&#45;&gt;EC(15)</title>
<path fill="none" stroke="black" d="M212.97,-371.35C225.77,-361.61 243.15,-349.86 260.35,-342.88 299.26,-327.08 346.8,-319.54 380.35,-315.98"/>
<text text-anchor="middle" x="294.18" y="-345.68" font-family="Times,serif" font-size="14.00">cat_c</text>
</g>
<!-- Protein(10)&#45;&gt;ProtDomain(14) -->
<g id="edge19" class="edge">
<title>Protein(10)&#45;&gt;ProtDomain(14)</title>
<path fill="none" stroke="black" d="M203.4,-370.04C215.08,-351.53 235.65,-322.95 260.35,-305.88 289.12,-286 325.67,-272.78 356.81,-264.3"/>
<text text-anchor="middle" x="294.18" y="-308.68" font-family="Times,serif" font-size="14.00">has_domain</text>
</g>
<!-- Protein(10)&#45;&gt;Enzyme(177) -->
<g id="edge22" class="edge">
<title>Protein(10)&#45;&gt;Enzyme(177)</title>
<path fill="none" stroke="blue" d="M197.65,-369.89C205.85,-341.75 225.34,-287.16 260.35,-254.88 289.43,-228.07 330.84,-211.47 364.56,-201.62"/>
<text text-anchor="middle" x="294.18" y="-257.68" font-family="Times,serif" font-size="14.00">is_a</text>
</g>
<!-- Protein(10)&#45;&gt;EC(12) -->
<g id="edge12" class="edge">
<title>Protein(10)&#45;&gt;EC(12)</title>
<path fill="none" stroke="blue" d="M238.9,-394.48C283.16,-400.83 349.08,-410.3 388.77,-416"/>
<text text-anchor="middle" x="294.18" y="-408.68" font-family="Times,serif" font-size="14.00">cat_c</text>
</g>
<!-- Protein(10)&#45;&gt;Gene(9) -->
<g id="edge15" class="edge">
<title>Protein(10)&#45;&gt;Gene(9)</title>
<path fill="none" stroke="black" d="M218.98,-403.24C231.26,-410.11 246.29,-417.97 260.35,-423.88 303.66,-442.06 355.8,-457.33 389.09,-466.29"/>
<text text-anchor="middle" x="294.18" y="-449.68" font-family="Times,serif" font-size="14.00">enc</text>
</g>
<!-- Protein(10)&#45;&gt;Protein(10) -->
<g id="edge16" class="edge">
<title>Protein(10)&#45;&gt;Protein(10)</title>
<path fill="none" stroke="blue" d="M178.04,-405.29C175.44,-414.96 180.08,-423.88 191.97,-423.88 203.85,-423.88 208.49,-414.96 205.89,-405.29"/>
<text text-anchor="middle" x="191.97" y="-454.68" font-family="Times,serif" font-size="14.00">h_s_s(&lt;=5)</text>
<text text-anchor="middle" x="191.97" y="-440.68" font-family="Times,serif" font-size="14.00">ortho(&lt;=5)</text>
<text text-anchor="middle" x="191.97" y="-426.68" font-family="Times,serif" font-size="14.00">xref(&lt;=8)</text>
</g>
<!-- ProtDomain(11) -->
<g id="node20" class="node">
<title>ProtDomain(11)</title>
<ellipse fill="none" stroke="black" cx="423.69" cy="-130.88" rx="68" ry="18"/>
<text text-anchor="middle" x="423.69" y="-126.68" font-family="Times,serif" font-size="14.00">ProtDomain(11)</text>
</g>
<!-- Protein(10)&#45;&gt;ProtDomain(11) -->
<g id="edge18" class="edge">
<title>Protein(10)&#45;&gt;ProtDomain(11)</title>
<path fill="none" stroke="blue" d="M194.67,-369.7C199.04,-332.66 213.81,-247.71 260.35,-196.88 288.09,-166.58 331.72,-149.89 366.76,-140.87"/>
<text text-anchor="middle" x="294.18" y="-199.68" font-family="Times,serif" font-size="14.00">has_domain</text>
</g>
<!-- Enzyme(17) -->
<g id="node21" class="node">
<title>Enzyme(17)</title>
<ellipse fill="none" stroke="black" cx="423.69" cy="-681.88" rx="53.63" ry="18"/>
<text text-anchor="middle" x="423.69" y="-677.68" font-family="Times,serif" font-size="14.00">Enzyme(17)</text>
</g>
<!-- Protein(10)&#45;&gt;Enzyme(17) -->
<g id="edge21" class="edge">
<title>Protein(10)&#45;&gt;Enzyme(17)</title>
<path fill="none" stroke="black" d="M192.26,-406.07C191.54,-451.52 196.19,-571.01 260.35,-635.88 264.69,-640.26 333.65,-658.8 380.28,-670.97"/>
<text text-anchor="middle" x="294.18" y="-658.68" font-family="Times,serif" font-size="14.00">is_a</text>
</g>
<!-- ProtDomain(11)&#45;&gt;BioProc(4) -->
<g id="edge28" class="edge">
<title>ProtDomain(11)&#45;&gt;BioProc(4)</title>
<path fill="none" stroke="blue" d="M491.66,-130.88C541.22,-130.88 607.99,-130.88 654.97,-130.88"/>
<text text-anchor="middle" x="571.47" y="-133.68" font-family="Times,serif" font-size="14.00">participates_in</text>
</g>
<!-- ProtDomain(11)&#45;&gt;MolFunc(3) -->
<g id="edge26" class="edge">
<title>ProtDomain(11)&#45;&gt;MolFunc(3)</title>
<path fill="none" stroke="blue" d="M470.27,-143.97C512.6,-157.55 576.05,-181.63 623.57,-215.88 651.41,-235.94 677.91,-265.44 694.48,-285.58"/>
<text text-anchor="middle" x="571.47" y="-218.68" font-family="Times,serif" font-size="14.00">has_function</text>
</g>
<!-- ProtDomain(11)&#45;&gt;CelComp(5) -->
<g id="edge27" class="edge">
<title>ProtDomain(11)&#45;&gt;CelComp(5)</title>
<path fill="none" stroke="black" d="M473.36,-118.56C483.83,-113.91 493.97,-107.54 501.37,-98.88 523.36,-73.14 492.81,-45.86 519.37,-24.88 538.97,-9.39 601.33,-11.65 649.82,-16.21"/>
<text text-anchor="middle" x="571.47" y="-27.68" font-family="Times,serif" font-size="14.00">located_in</text>
</g>
<!-- Enzyme(17)&#45;&gt;Reaction(188) -->
<g id="edge30" class="edge">
<title>Enzyme(17)&#45;&gt;Reaction(188)</title>
<path fill="none" stroke="black" d="M477.7,-681.88C524.29,-681.88 592.4,-681.88 643.16,-681.88"/>
<text text-anchor="middle" x="571.47" y="-684.68" font-family="Times,serif" font-size="14.00">ca_by</text>
</g>
<!-- Reaction(18) -->
<g id="node22" class="node">
<title>Reaction(18)</title>
<ellipse fill="none" stroke="black" cx="712.87" cy="-739.88" rx="56.04" ry="18"/>
<text text-anchor="middle" x="712.87" y="-735.68" font-family="Times,serif" font-size="14.00">Reaction(18)</text>
</g>
<!-- Enzyme(17)&#45;&gt;Reaction(18) -->
<g id="edge29" class="edge">
<title>Enzyme(17)&#45;&gt;Reaction(18)</title>
<path fill="none" stroke="blue" d="M470.2,-691.07C523.34,-701.8 610.81,-719.47 664.67,-730.34"/>
<text text-anchor="middle" x="571.47" y="-723.68" font-family="Times,serif" font-size="14.00">ca_by</text>
</g>
<!-- Reaction(18)&#45;&gt;Path(19) -->
<g id="edge31" class="edge">
<title>Reaction(18)&#45;&gt;Path(19)</title>
<path fill="none" stroke="black" d="M769.21,-739.88C811.93,-739.88 870.39,-739.88 910.83,-739.88"/>
<text text-anchor="middle" x="846.88" y="-742.68" font-family="Times,serif" font-size="14.00">part_of</text>
</g>
</g>
</svg>
