<svg width="1330px" height="1208px"
 viewBox="0.00 0.00 997.52 906.00" xmlns="http://www.w3.org/2000/svg" xmlns:xlink="http://www.w3.org/1999/xlink">
<g id="graph0" class="graph" transform=" rotate(0) translate(4 902)">
<title>%3</title>
<polygon fill="white" stroke="transparent" points="-4,4 -4,-902 993.52,-902 993.52,4 -4,4"/>
<!-- EC(15) -->
<g id="node1" class="node">
<title>EC(15)</title>
<polygon fill="none" stroke="darkgreen" points="547.67,-630.54 547.67,-645.46 524.69,-656 492.19,-656 469.22,-645.46 469.22,-630.54 492.19,-620 524.69,-620 547.67,-630.54"/>
<polygon fill="none" stroke="darkgreen" points="551.68,-627.98 551.68,-648.02 525.57,-660 491.32,-660 465.21,-648.02 465.21,-627.98 491.32,-616 525.57,-616 551.68,-627.98"/>
<text text-anchor="middle" x="508.44" y="-633.8" font-family="Times,serif" font-size="14.00">EC(15)</text>
</g>
<!-- Reaction(200) -->
<g id="node2" class="node">
<title>Reaction(200)</title>
<polygon fill="none" stroke="darkgreen" points="791.12,-660.54 791.12,-675.46 752.53,-686 697.96,-686 659.37,-675.46 659.37,-660.54 697.96,-650 752.53,-650 791.12,-660.54"/>
<polygon fill="none" stroke="darkgreen" points="795.13,-657.49 795.13,-678.51 753.07,-690 697.42,-690 655.36,-678.51 655.36,-657.49 697.42,-646 753.07,-646 795.13,-657.49"/>
<text text-anchor="middle" x="725.25" y="-663.8" font-family="Times,serif" font-size="14.00">Reaction(200)</text>
</g>
<!-- Comp(222) -->
<g id="node3" class="node">
<title>Comp(222)</title>
<polygon fill="none" stroke="darkgreen" points="985.59,-760.54 985.59,-775.46 953.28,-786 907.6,-786 875.3,-775.46 875.3,-760.54 907.6,-750 953.28,-750 985.59,-760.54"/>
<polygon fill="none" stroke="darkgreen" points="989.59,-757.64 989.59,-778.36 953.92,-790 906.96,-790 871.29,-778.36 871.29,-757.64 906.96,-746 953.92,-746 989.59,-757.64"/>
<text text-anchor="middle" x="930.44" y="-763.8" font-family="Times,serif" font-size="14.00">Comp(222)</text>
</g>
<!-- Path(21) -->
<g id="node4" class="node">
<title>Path(21)</title>
<polygon fill="none" stroke="darkgreen" points="974.26,-587.54 974.26,-602.46 948.59,-613 912.29,-613 886.63,-602.46 886.63,-587.54 912.29,-577 948.59,-577 974.26,-587.54"/>
<polygon fill="none" stroke="darkgreen" points="978.25,-584.86 978.25,-605.14 949.38,-617 911.51,-617 882.63,-605.14 882.63,-584.86 911.51,-573 949.38,-573 978.25,-584.86"/>
<text text-anchor="middle" x="930.44" y="-590.8" font-family="Times,serif" font-size="14.00">Path(21)</text>
</g>
<!-- ProtDomain(18) -->
<g id="node5" class="node">
<title>ProtDomain(18)</title>
<polygon fill="none" stroke="darkgreen" points="582.3,-504.54 582.3,-519.46 539.03,-530 477.85,-530 434.59,-519.46 434.59,-504.54 477.85,-494 539.03,-494 582.3,-504.54"/>
<polygon fill="none" stroke="darkgreen" points="586.31,-501.4 586.31,-522.6 539.52,-534 477.37,-534 430.58,-522.6 430.58,-501.4 477.37,-490 539.52,-490 586.31,-501.4"/>
<text text-anchor="middle" x="508.44" y="-507.8" font-family="Times,serif" font-size="14.00">ProtDomain(18)</text>
</g>
<!-- MolFunc(3) -->
<g id="node6" class="node">
<title>MolFunc(3)</title>
<polygon fill="none" stroke="darkgreen" points="565.83,-442.54 565.83,-457.46 532.21,-468 484.67,-468 451.05,-457.46 451.05,-442.54 484.67,-432 532.21,-432 565.83,-442.54"/>
<polygon fill="none" stroke="darkgreen" points="569.85,-439.61 569.85,-460.39 532.83,-472 484.05,-472 447.04,-460.39 447.04,-439.61 484.05,-428 532.83,-428 569.85,-439.61"/>
<text text-anchor="middle" x="508.44" y="-445.8" font-family="Times,serif" font-size="14.00">MolFunc(3)</text>
</g>
<!-- Disease(6) -->
<g id="node7" class="node">
<title>Disease(6)</title>
<polygon fill="none" stroke="darkgreen" points="560.19,-380.54 560.19,-395.46 529.88,-406 487.01,-406 456.7,-395.46 456.7,-380.54 487.01,-370 529.88,-370 560.19,-380.54"/>
<polygon fill="none" stroke="darkgreen" points="564.18,-377.7 564.18,-398.3 530.55,-410 486.34,-410 452.7,-398.3 452.7,-377.7 486.34,-366 530.55,-366 564.18,-377.7"/>
<text text-anchor="middle" x="508.44" y="-383.8" font-family="Times,serif" font-size="14.00">Disease(6)</text>
</g>
<!-- Enzyme(199) -->
<g id="node8" class="node">
<title>Enzyme(199)</title>
<polygon fill="none" stroke="darkgreen" points="571.51,-318.54 571.51,-333.46 534.57,-344 482.32,-344 445.38,-333.46 445.38,-318.54 482.32,-308 534.57,-308 571.51,-318.54"/>
<polygon fill="none" stroke="darkgreen" points="575.51,-315.53 575.51,-336.47 535.13,-348 481.76,-348 441.37,-336.47 441.37,-315.53 481.76,-304 535.13,-304 575.51,-315.53"/>
<text text-anchor="middle" x="508.44" y="-321.8" font-family="Times,serif" font-size="14.00">Enzyme(199)</text>
</g>
<!-- CelComp(5) -->
<g id="node9" class="node">
<title>CelComp(5)</title>
<polygon fill="none" stroke="darkgreen" points="567.05,-256.54 567.05,-271.46 532.72,-282 484.17,-282 449.84,-271.46 449.84,-256.54 484.17,-246 532.72,-246 567.05,-256.54"/>
<polygon fill="none" stroke="darkgreen" points="571.03,-253.59 571.03,-274.41 533.31,-286 483.57,-286 445.85,-274.41 445.85,-253.59 483.57,-242 533.31,-242 571.03,-253.59"/>
<text text-anchor="middle" x="508.44" y="-259.8" font-family="Times,serif" font-size="14.00">CelComp(5)</text>
</g>
<!-- Protein(7) -->
<g id="node10" class="node">
<title>Protein(7)</title>
<polygon fill="none" stroke="darkgreen" points="557.96,-692.54 557.96,-707.46 528.96,-718 487.93,-718 458.92,-707.46 458.92,-692.54 487.93,-682 528.96,-682 557.96,-692.54"/>
<polygon fill="none" stroke="darkgreen" points="561.95,-689.74 561.95,-710.26 529.65,-722 487.23,-722 454.94,-710.26 454.94,-689.74 487.23,-678 529.65,-678 561.95,-689.74"/>
<text text-anchor="middle" x="508.44" y="-695.8" font-family="Times,serif" font-size="14.00">Protein(7)</text>
</g>
<!-- BioProc(4) -->
<g id="node11" class="node">
<title>BioProc(4)</title>
<polygon fill="none" stroke="darkgreen" points="561.9,-194.54 561.9,-209.46 530.58,-220 486.3,-220 454.99,-209.46 454.99,-194.54 486.3,-184 530.58,-184 561.9,-194.54"/>
<polygon fill="none" stroke="darkgreen" points="565.9,-191.67 565.9,-212.33 531.24,-224 485.65,-224 450.99,-212.33 450.99,-191.67 485.65,-180 531.24,-180 565.9,-191.67"/>
<text text-anchor="middle" x="508.44" y="-197.8" font-family="Times,serif" font-size="14.00">BioProc(4)</text>
</g>
<!-- Publication(2) -->
<g id="node12" class="node">
<title>Publication(2)</title>
<polygon fill="none" stroke="darkgreen" points="574.34,-132.54 574.34,-147.46 535.74,-158 481.15,-158 442.55,-147.46 442.55,-132.54 481.15,-122 535.74,-122 574.34,-132.54"/>
<polygon fill="none" stroke="darkgreen" points="578.35,-129.49 578.35,-150.51 536.28,-162 480.61,-162 438.54,-150.51 438.54,-129.49 480.61,-118 536.28,-118 578.35,-129.49"/>
<text text-anchor="middle" x="508.44" y="-135.8" font-family="Times,serif" font-size="14.00">Publication(2)</text>
</g>
<!-- Trait(14) -->
<g id="node13" class="node">
<title>Trait(14)</title>
<polygon fill="none" stroke="darkgreen" points="307.26,-868.54 307.26,-883.46 280.73,-894 243.2,-894 216.66,-883.46 216.66,-868.54 243.2,-858 280.73,-858 307.26,-868.54"/>
<polygon fill="none" stroke="darkgreen" points="311.28,-865.83 311.28,-886.17 281.5,-898 242.43,-898 212.65,-886.17 212.65,-865.83 242.43,-854 281.5,-854 311.28,-865.83"/>
<text text-anchor="middle" x="261.96" y="-871.8" font-family="Times,serif" font-size="14.00">Trait(14)</text>
</g>
<!-- Gene(1) -->
<g id="node14" class="node">
<title>Gene(1)</title>
<ellipse fill="none" stroke="red" cx="43.08" cy="-663" rx="39.15" ry="39.15"/>
<ellipse fill="none" stroke="red" cx="43.08" cy="-663" rx="43.15" ry="43.15"/>
<text text-anchor="middle" x="43.08" y="-658.8" font-family="Times,serif" font-size="14.00">Gene(1)</text>
</g>
<!-- Gene(1)&#45;&gt;Protein(7) -->
<g id="edge25" class="edge">
<title>Gene(1)&#45;&gt;Protein(7)</title>
<path fill="none" stroke="blue" d="M83.51,-678.62C150.83,-703.37 292.34,-747.03 412.76,-729 431.12,-726.25 450.84,-720.66 467.51,-715.11"/>
<text text-anchor="middle" x="261.96" y="-734.8" font-family="Times,serif" font-size="14.00">enc</text>
</g>
<!-- Protein(10) -->
<g id="node15" class="node">
<title>Protein(10)</title>
<ellipse fill="none" stroke="black" cx="261.96" cy="-450" rx="50.27" ry="18"/>
<text text-anchor="middle" x="261.96" y="-445.8" font-family="Times,serif" font-size="14.00">Protein(10)</text>
</g>
<!-- Gene(1)&#45;&gt;Protein(10) -->
<g id="edge24" class="edge">
<title>Gene(1)&#45;&gt;Protein(10)</title>
<path fill="none" stroke="black" d="M74.69,-632.93C120.93,-587.52 207.07,-502.92 243.73,-466.92"/>
<text text-anchor="middle" x="148.86" y="-603.8" font-family="Times,serif" font-size="14.00">enc</text>
</g>
<!-- Protein(10)&#45;&gt;EC(15) -->
<g id="edge1" class="edge">
<title>Protein(10)&#45;&gt;EC(15)</title>
<path fill="none" stroke="blue" d="M267.3,-468.2C275.02,-496.6 293.87,-551.27 330.35,-581 359.82,-605.03 376.53,-592.46 412.76,-604 432.56,-610.31 454.42,-618.1 472.13,-624.63"/>
<text text-anchor="middle" x="371.55" y="-606.8" font-family="Times,serif" font-size="14.00">cat_c</text>
</g>
<!-- Protein(10)&#45;&gt;Reaction(200) -->
<g id="edge2" class="edge">
<title>Protein(10)&#45;&gt;Reaction(200)</title>
<path fill="none" stroke="black" d="M279.66,-467.11C292.56,-479.55 311.37,-496.05 330.35,-507 371.42,-530.69 385.28,-529.63 430.76,-543 498.76,-562.99 522.67,-547.42 586.12,-579 622.12,-596.92 621.48,-615.64 655.55,-637 663.31,-641.86 671.96,-646.39 680.44,-650.39"/>
<text text-anchor="middle" x="508.44" y="-595.8" font-family="Times,serif" font-size="14.00">cs_by</text>
<text text-anchor="middle" x="508.44" y="-581.8" font-family="Times,serif" font-size="14.00">pd_by</text>
</g>
<!-- Protein(10)&#45;&gt;ProtDomain(18) -->
<g id="edge5" class="edge">
<title>Protein(10)&#45;&gt;ProtDomain(18)</title>
<path fill="none" stroke="blue" d="M302.84,-460.78C311.88,-463.18 321.44,-465.7 330.35,-468 369.15,-478 412.85,-488.86 447.13,-497.29"/>
<text text-anchor="middle" x="371.55" y="-491.8" font-family="Times,serif" font-size="14.00">has_domain</text>
</g>
<!-- Protein(10)&#45;&gt;MolFunc(3) -->
<g id="edge6" class="edge">
<title>Protein(10)&#45;&gt;MolFunc(3)</title>
<path fill="none" stroke="black" d="M312.44,-450C351.36,-450 405.77,-450 447.23,-450"/>
<text text-anchor="middle" x="371.55" y="-452.8" font-family="Times,serif" font-size="14.00">has_function</text>
</g>
<!-- Protein(10)&#45;&gt;Disease(6) -->
<g id="edge7" class="edge">
<title>Protein(10)&#45;&gt;Disease(6)</title>
<path fill="none" stroke="blue" d="M302.84,-439.22C311.88,-436.82 321.44,-434.3 330.35,-432 373.3,-420.93 422.23,-408.81 457.77,-400.1"/>
<text text-anchor="middle" x="371.55" y="-434.8" font-family="Times,serif" font-size="14.00">inv_in</text>
</g>
<!-- Protein(10)&#45;&gt;Enzyme(199) -->
<g id="edge8" class="edge">
<title>Protein(10)&#45;&gt;Enzyme(199)</title>
<path fill="none" stroke="black" d="M280.06,-433.07C293.02,-420.96 311.71,-404.92 330.35,-394 370.27,-370.61 419.72,-352.41 456.21,-340.75"/>
<text text-anchor="middle" x="371.55" y="-396.8" font-family="Times,serif" font-size="14.00">is_a</text>
</g>
<!-- Protein(10)&#45;&gt;CelComp(5) -->
<g id="edge10" class="edge">
<title>Protein(10)&#45;&gt;CelComp(5)</title>
<path fill="none" stroke="black" d="M269.84,-431.91C279.84,-407.8 300.49,-365.14 330.35,-339 365.77,-307.99 415.9,-288.39 453.78,-277.03"/>
<text text-anchor="middle" x="371.55" y="-341.8" font-family="Times,serif" font-size="14.00">located_in</text>
</g>
<!-- Protein(10)&#45;&gt;Protein(7) -->
<g id="edge11" class="edge">
<title>Protein(10)&#45;&gt;Protein(7)</title>
<path fill="none" stroke="blue" d="M264.99,-468.16C269.82,-502.59 285.18,-577.52 330.35,-618 358.67,-643.38 382.16,-618.42 412.76,-641 424.66,-649.79 419.37,-659.56 430.76,-669 439.83,-676.51 450.95,-682.39 461.89,-686.91"/>
<text text-anchor="middle" x="371.55" y="-643.8" font-family="Times,serif" font-size="14.00">ortho(&lt;=5)</text>
</g>
<!-- Protein(10)&#45;&gt;Protein(7) -->
<g id="edge15" class="edge">
<title>Protein(10)&#45;&gt;Protein(7)</title>
<path fill="none" stroke="black" d="M263.38,-468.1C265.31,-507.99 275.71,-604 330.35,-655 334.81,-659.16 397.91,-674.58 447.53,-686.22"/>
<polygon fill="black" stroke="black" points="447.04,-689.7 457.57,-688.57 448.63,-682.89 447.04,-689.7"/>
<text text-anchor="middle" x="371.55" y="-680.8" font-family="Times,serif" font-size="14.00">it_wi(&lt;=5)</text>
</g>
<!-- Protein(10)&#45;&gt;BioProc(4) -->
<g id="edge13" class="edge">
<title>Protein(10)&#45;&gt;BioProc(4)</title>
<path fill="none" stroke="blue" d="M265.09,-432.01C270.15,-397.05 285.96,-319.37 330.35,-274 362.84,-240.78 412.76,-222.37 451.32,-212.49"/>
<text text-anchor="middle" x="371.55" y="-276.8" font-family="Times,serif" font-size="14.00">participates_in</text>
</g>
<!-- Protein(10)&#45;&gt;Publication(2) -->
<g id="edge14" class="edge">
<title>Protein(10)&#45;&gt;Publication(2)</title>
<path fill="none" stroke="black" d="M262.77,-431.93C263.28,-387.85 270.64,-273.67 330.35,-208 358.48,-177.05 402.29,-160.08 439.29,-150.82"/>
<text text-anchor="middle" x="371.55" y="-210.8" font-family="Times,serif" font-size="14.00">pub_in</text>
</g>
<!-- Protein(10)&#45;&gt;Protein(10) -->
<g id="edge12" class="edge">
<title>Protein(10)&#45;&gt;Protein(10)</title>
<path fill="none" stroke="black" d="M252.25,-467.78C250.6,-477.31 253.84,-486 261.96,-486 270.08,-486 273.32,-477.31 271.67,-467.78"/>
<text text-anchor="middle" x="261.96" y="-488.8" font-family="Times,serif" font-size="14.00">ortho(&lt;=5)</text>
</g>
<!-- Protein(10)&#45;&gt;Protein(10) -->
<g id="edge16" class="edge">
<title>Protein(10)&#45;&gt;Protein(10)</title>
<path fill="none" stroke="blue" d="M246.16,-467.14C236.87,-484.58 242.13,-504 261.96,-504 278.23,-504 284.69,-490.94 281.36,-476.61"/>
<polygon fill="blue" stroke="blue" points="284.59,-475.25 277.76,-467.14 278.04,-477.73 284.59,-475.25"/>
<text text-anchor="middle" x="261.96" y="-506.8" font-family="Times,serif" font-size="14.00">it_wi(&lt;=5)</text>
</g>
<!-- Reaction(20) -->
<g id="node16" class="node">
<title>Reaction(20)</title>
<ellipse fill="none" stroke="black" cx="725.25" cy="-610" rx="56.04" ry="18"/>
<text text-anchor="middle" x="725.25" y="-605.8" font-family="Times,serif" font-size="14.00">Reaction(20)</text>
</g>
<!-- Protein(10)&#45;&gt;Reaction(20) -->
<g id="edge3" class="edge">
<title>Protein(10)&#45;&gt;Reaction(20)</title>
<path fill="none" stroke="blue" d="M262.87,-431.71C263.47,-382.7 270.74,-245.95 330.35,-155 395.21,-56.02 492.47,-8.66 586.12,-81 670.73,-146.35 713.38,-506.25 722.41,-591.76"/>
<text text-anchor="middle" x="508.44" y="-97.8" font-family="Times,serif" font-size="14.00">cs_by</text>
<text text-anchor="middle" x="508.44" y="-83.8" font-family="Times,serif" font-size="14.00">pd_by</text>
</g>
<!-- Gene(17) -->
<g id="node17" class="node">
<title>Gene(17)</title>
<ellipse fill="none" stroke="black" cx="508.44" cy="-18" rx="43.5" ry="18"/>
<text text-anchor="middle" x="508.44" y="-13.8" font-family="Times,serif" font-size="14.00">Gene(17)</text>
</g>
<!-- Protein(10)&#45;&gt;Gene(17) -->
<g id="edge4" class="edge">
<title>Protein(10)&#45;&gt;Gene(17)</title>
<path fill="none" stroke="black" d="M263.25,-431.93C264.76,-360.51 274.13,-99.18 330.35,-44 366.16,-8.85 427.27,-7.7 467.51,-11.64"/>
<text text-anchor="middle" x="371.55" y="-46.8" font-family="Times,serif" font-size="14.00">enc</text>
</g>
<!-- Enzyme(19) -->
<g id="node18" class="node">
<title>Enzyme(19)</title>
<ellipse fill="none" stroke="black" cx="508.44" cy="-758" rx="53.63" ry="18"/>
<text text-anchor="middle" x="508.44" y="-753.8" font-family="Times,serif" font-size="14.00">Enzyme(19)</text>
</g>
<!-- Protein(10)&#45;&gt;Enzyme(19) -->
<g id="edge9" class="edge">
<title>Protein(10)&#45;&gt;Enzyme(19)</title>
<path fill="none" stroke="blue" d="M262.78,-468.06C263.33,-512.1 270.77,-626.22 330.35,-692 363.06,-728.11 417.41,-744.54 457.29,-751.96"/>
<text text-anchor="middle" x="371.55" y="-743.8" font-family="Times,serif" font-size="14.00">is_a</text>
</g>
<!-- Reaction(20)&#45;&gt;Comp(222) -->
<g id="edge18" class="edge">
<title>Reaction(20)&#45;&gt;Comp(222)</title>
<path fill="none" stroke="black" d="M767.44,-621.93C777.02,-625.82 786.78,-630.79 794.94,-637 805.55,-645.08 804.05,-651.06 812.94,-661 836.71,-687.59 845.1,-691.88 871.37,-716 882.33,-726.07 894.6,-737.08 905.02,-746.38"/>
<text text-anchor="middle" x="833.15" y="-716.8" font-family="Times,serif" font-size="14.00">cs_by</text>
<text text-anchor="middle" x="833.15" y="-702.8" font-family="Times,serif" font-size="14.00">pd_by</text>
</g>
<!-- Reaction(20)&#45;&gt;Path(21) -->
<g id="edge19" class="edge">
<title>Reaction(20)&#45;&gt;Path(21)</title>
<path fill="none" stroke="blue" d="M774.23,-600.92C786.78,-598.91 800.33,-597.07 812.94,-596 835.82,-594.07 861.31,-593.65 882.6,-593.79"/>
<text text-anchor="middle" x="833.15" y="-598.8" font-family="Times,serif" font-size="14.00">part_of</text>
</g>
<!-- Comp(22) -->
<g id="node19" class="node">
<title>Comp(22)</title>
<ellipse fill="none" stroke="black" cx="930.44" cy="-689" rx="46.42" ry="18"/>
<text text-anchor="middle" x="930.44" y="-684.8" font-family="Times,serif" font-size="14.00">Comp(22)</text>
</g>
<!-- Reaction(20)&#45;&gt;Comp(22) -->
<g id="edge17" class="edge">
<title>Reaction(20)&#45;&gt;Comp(22)</title>
<path fill="none" stroke="blue" d="M780.08,-614.25C803.33,-617.47 830.4,-623.11 853.37,-633 875.51,-642.54 897.31,-659.59 911.85,-672.38"/>
<text text-anchor="middle" x="833.15" y="-649.8" font-family="Times,serif" font-size="14.00">cs_by</text>
<text text-anchor="middle" x="833.15" y="-635.8" font-family="Times,serif" font-size="14.00">pd_by</text>
</g>
<!-- Enzyme(19)&#45;&gt;Reaction(200) -->
<g id="edge23" class="edge">
<title>Enzyme(19)&#45;&gt;Reaction(200)</title>
<path fill="none" stroke="blue" d="M554.15,-748.36C565.46,-744.36 576.99,-738.77 586.12,-731 598.85,-720.17 590.91,-708.22 604.12,-698 618.83,-686.63 637.32,-679.52 655.35,-675.08"/>
<text text-anchor="middle" x="620.84" y="-700.8" font-family="Times,serif" font-size="14.00">ca_by</text>
</g>
<!-- Enzyme(19)&#45;&gt;Comp(222) -->
<g id="edge21" class="edge">
<title>Enzyme(19)&#45;&gt;Comp(222)</title>
<path fill="none" stroke="blue" d="M562.21,-759.26C641.08,-761.13 789.2,-764.66 871.17,-766.61"/>
<text text-anchor="middle" x="725.25" y="-781.8" font-family="Times,serif" font-size="14.00">ac_by</text>
<text text-anchor="middle" x="725.25" y="-767.8" font-family="Times,serif" font-size="14.00">in_by</text>
</g>
<!-- Enzyme(19)&#45;&gt;Reaction(20) -->
<g id="edge22" class="edge">
<title>Enzyme(19)&#45;&gt;Reaction(20)</title>
<path fill="none" stroke="black" d="M556.28,-749.47C567.32,-745.47 578.18,-739.61 586.12,-731 607.33,-708.03 584.45,-687.29 604.12,-663 622.34,-640.5 652.05,-627.28 677.36,-619.67"/>
<text text-anchor="middle" x="620.84" y="-665.8" font-family="Times,serif" font-size="14.00">ca_by</text>
</g>
<!-- Enzyme(19)&#45;&gt;Comp(22) -->
<g id="edge20" class="edge">
<title>Enzyme(19)&#45;&gt;Comp(22)</title>
<path fill="none" stroke="black" d="M554.01,-748.28C582.86,-742.28 621.28,-734.83 655.55,-730 742.97,-717.68 766.71,-728.86 853.37,-712 867.32,-709.29 882.36,-705.03 895.35,-700.92"/>
<text text-anchor="middle" x="725.25" y="-746.8" font-family="Times,serif" font-size="14.00">ac_by</text>
<text text-anchor="middle" x="725.25" y="-732.8" font-family="Times,serif" font-size="14.00">in_by</text>
</g>
<!-- SNP(13) -->
<g id="node20" class="node">
<title>SNP(13)</title>
<ellipse fill="none" stroke="black" cx="43.08" cy="-876" rx="41.13" ry="18"/>
<text text-anchor="middle" x="43.08" y="-871.8" font-family="Times,serif" font-size="14.00">SNP(13)</text>
</g>
<!-- SNP(13)&#45;&gt;Trait(14) -->
<g id="edge26" class="edge">
<title>SNP(13)&#45;&gt;Trait(14)</title>
<path fill="none" stroke="black" d="M84.36,-876C120.62,-876 173.98,-876 212.55,-876"/>
<text text-anchor="middle" x="148.86" y="-878.8" font-family="Times,serif" font-size="14.00">associated_with</text>
</g>
</g>
</svg>
