<svg width="743px" height="464px"
 viewBox="0.00 0.00 557.14 348.00" xmlns="http://www.w3.org/2000/svg" xmlns:xlink="http://www.w3.org/1999/xlink">
<g id="graph0" class="graph" transform=" rotate(0) translate(4 344)">
<title>%3</title>
<polygon fill="white" stroke="transparent" points="-4,4 -4,-344 553.14,-344 553.14,4 -4,4"/>
<!-- Protein(7) -->
<g id="node1" class="node">
<title>Protein(7)</title>
<polygon fill="none" stroke="darkgreen" points="287.09,-310.54 287.09,-325.46 258.09,-336 217.06,-336 188.05,-325.46 188.05,-310.54 217.06,-300 258.09,-300 287.09,-310.54"/>
<polygon fill="none" stroke="darkgreen" points="291.08,-307.74 291.08,-328.26 258.78,-340 216.36,-340 184.07,-328.26 184.07,-307.74 216.36,-296 258.78,-296 291.08,-307.74"/>
<text text-anchor="middle" x="237.57" y="-313.8" font-family="Times,serif" font-size="14.00">Protein(7)</text>
</g>
<!-- Publication(2) -->
<g id="node2" class="node">
<title>Publication(2)</title>
<polygon fill="none" stroke="darkgreen" points="545.34,-162.54 545.34,-177.46 506.74,-188 452.15,-188 413.55,-177.46 413.55,-162.54 452.15,-152 506.74,-152 545.34,-162.54"/>
<polygon fill="none" stroke="darkgreen" points="549.35,-159.49 549.35,-180.51 507.28,-192 451.61,-192 409.53,-180.51 409.53,-159.49 451.61,-148 507.28,-148 549.35,-159.49"/>
<text text-anchor="middle" x="479.44" y="-165.8" font-family="Times,serif" font-size="14.00">Publication(2)</text>
</g>
<!-- CelComp(5) -->
<g id="node3" class="node">
<title>CelComp(5)</title>
<polygon fill="none" stroke="darkgreen" points="538.05,-237.54 538.05,-252.46 503.72,-263 455.17,-263 420.84,-252.46 420.84,-237.54 455.17,-227 503.72,-227 538.05,-237.54"/>
<polygon fill="none" stroke="darkgreen" points="542.03,-234.59 542.03,-255.41 504.31,-267 454.57,-267 416.85,-255.41 416.85,-234.59 454.57,-223 504.31,-223 542.03,-234.59"/>
<text text-anchor="middle" x="479.44" y="-240.8" font-family="Times,serif" font-size="14.00">CelComp(5)</text>
</g>
<!-- MolFunc(3) -->
<g id="node4" class="node">
<title>MolFunc(3)</title>
<polygon fill="none" stroke="darkgreen" points="536.83,-14.54 536.83,-29.46 503.21,-40 455.67,-40 422.05,-29.46 422.05,-14.54 455.67,-4 503.21,-4 536.83,-14.54"/>
<polygon fill="none" stroke="darkgreen" points="540.84,-11.61 540.84,-32.39 503.83,-44 455.05,-44 418.04,-32.39 418.04,-11.61 455.05,0 503.83,0 540.84,-11.61"/>
<text text-anchor="middle" x="479.44" y="-17.8" font-family="Times,serif" font-size="14.00">MolFunc(3)</text>
</g>
<!-- BioProc(4) -->
<g id="node5" class="node">
<title>BioProc(4)</title>
<polygon fill="none" stroke="darkgreen" points="532.9,-92.54 532.9,-107.46 501.58,-118 457.3,-118 425.99,-107.46 425.99,-92.54 457.3,-82 501.58,-82 532.9,-92.54"/>
<polygon fill="none" stroke="darkgreen" points="536.89,-89.67 536.89,-110.33 502.24,-122 456.64,-122 421.99,-110.33 421.99,-89.67 456.64,-78 502.24,-78 536.89,-89.67"/>
<text text-anchor="middle" x="479.44" y="-95.8" font-family="Times,serif" font-size="14.00">BioProc(4)</text>
</g>
<!-- Gene(1) -->
<g id="node6" class="node">
<title>Gene(1)</title>
<ellipse fill="none" stroke="red" cx="43.08" cy="-187" rx="39.15" ry="39.15"/>
<ellipse fill="none" stroke="red" cx="43.08" cy="-187" rx="43.15" ry="43.15"/>
<text text-anchor="middle" x="43.08" y="-182.8" font-family="Times,serif" font-size="14.00">Gene(1)</text>
</g>
<!-- Gene(1)&#45;&gt;Protein(7) -->
<g id="edge5" class="edge">
<title>Gene(1)&#45;&gt;Protein(7)</title>
<path fill="none" stroke="black" d="M62.01,-226.19C72.08,-244.28 86.24,-264.65 104.15,-278 127.36,-295.29 158.06,-305.16 184.05,-310.78"/>
<text text-anchor="middle" x="134.99" y="-308.8" font-family="Times,serif" font-size="14.00">enc</text>
</g>
<!-- Gene(1)&#45;&gt;Publication(2) -->
<g id="edge10" class="edge">
<title>Gene(1)&#45;&gt;Publication(2)</title>
<path fill="none" stroke="blue" d="M85.49,-195.87C151.14,-208.47 282.81,-227.72 391.74,-206 408.52,-202.65 426.12,-196 441.05,-189.31"/>
<text text-anchor="middle" x="237.57" y="-217.8" font-family="Times,serif" font-size="14.00">pub_in</text>
</g>
<!-- Gene(1)&#45;&gt;CelComp(5) -->
<g id="edge7" class="edge">
<title>Gene(1)&#45;&gt;CelComp(5)</title>
<path fill="none" stroke="black" d="M80.83,-208.08C88.37,-211.8 96.38,-215.33 104.15,-218 209.35,-254.18 340.73,-254.11 416.56,-250.05"/>
<text text-anchor="middle" x="237.57" y="-252.8" font-family="Times,serif" font-size="14.00">located_in</text>
</g>
<!-- Gene(1)&#45;&gt;MolFunc(3) -->
<g id="edge6" class="edge">
<title>Gene(1)&#45;&gt;MolFunc(3)</title>
<path fill="none" stroke="blue" d="M67.02,-151.15C91.28,-117.02 133.03,-67.97 183.82,-48 260.52,-17.84 356.85,-15.28 418.05,-17.56"/>
<text text-anchor="middle" x="237.57" y="-50.8" font-family="Times,serif" font-size="14.00">has_function</text>
</g>
<!-- Gene(1)&#45;&gt;BioProc(4) -->
<g id="edge9" class="edge">
<title>Gene(1)&#45;&gt;BioProc(4)</title>
<path fill="none" stroke="black" d="M79.4,-163.17C128.43,-131.8 221.07,-78.56 309.32,-61 345.25,-53.85 355.92,-53.32 391.74,-61 410.46,-65.02 430.02,-73.4 445.81,-81.37"/>
<text text-anchor="middle" x="237.57" y="-105.8" font-family="Times,serif" font-size="14.00">participates_in</text>
</g>
<!-- Gene(9) -->
<g id="node7" class="node">
<title>Gene(9)</title>
<ellipse fill="none" stroke="black" cx="237.57" cy="-154" rx="39.15" ry="18"/>
<text text-anchor="middle" x="237.57" y="-149.8" font-family="Times,serif" font-size="14.00">Gene(9)</text>
</g>
<!-- Gene(1)&#45;&gt;Gene(9) -->
<g id="edge8" class="edge">
<title>Gene(1)&#45;&gt;Gene(9)</title>
<path fill="none" stroke="blue" d="M85.85,-179.84C120.12,-173.96 168.15,-165.73 200.71,-160.15"/>
<text text-anchor="middle" x="134.99" y="-178.8" font-family="Times,serif" font-size="14.00">ortho(&lt;=2)</text>
</g>
<!-- Gene(9)&#45;&gt;Publication(2) -->
<g id="edge4" class="edge">
<title>Gene(9)&#45;&gt;Publication(2)</title>
<path fill="none" stroke="blue" d="M276.74,-152.51C307.77,-151.72 352.67,-151.52 391.74,-155 399.35,-155.68 407.29,-156.66 415.15,-157.81"/>
<text text-anchor="middle" x="350.53" y="-157.8" font-family="Times,serif" font-size="14.00">pub_in</text>
</g>
<!-- Gene(9)&#45;&gt;CelComp(5) -->
<g id="edge2" class="edge">
<title>Gene(9)&#45;&gt;CelComp(5)</title>
<path fill="none" stroke="blue" d="M268.47,-165.34C310.54,-181.3 387.45,-210.48 435.59,-228.74"/>
<text text-anchor="middle" x="350.53" y="-212.8" font-family="Times,serif" font-size="14.00">located_in</text>
</g>
<!-- Gene(9)&#45;&gt;MolFunc(3) -->
<g id="edge1" class="edge">
<title>Gene(9)&#45;&gt;MolFunc(3)</title>
<path fill="none" stroke="black" d="M256.28,-137.95C270.07,-125.97 290.04,-109.71 309.32,-98 350.04,-73.26 400.2,-51.73 435.28,-37.96"/>
<text text-anchor="middle" x="350.53" y="-100.8" font-family="Times,serif" font-size="14.00">has_function</text>
</g>
<!-- Gene(9)&#45;&gt;BioProc(4) -->
<g id="edge3" class="edge">
<title>Gene(9)&#45;&gt;BioProc(4)</title>
<path fill="none" stroke="black" d="M270.84,-144.31C282.86,-140.85 296.67,-137.06 309.32,-134 346.59,-125 388.87,-116.5 421.83,-110.25"/>
<text text-anchor="middle" x="350.53" y="-136.8" font-family="Times,serif" font-size="14.00">participates_in</text>
</g>
</g>
</svg>
