<svg width="447" height="110" viewBox="0 0 447 110" fill="none" xmlns="http://www.w3.org/2000/svg">
<g clip-path="url(#clip0)">
<path d="M174.234 55.1719L195.005 77V77.5156H184.877L166.853 58.2656V77.5156H158.613V34.2031H166.853V52.5937L183.332 34.2031H193.46V34.375L174.234 55.1719Z" fill="white"/>
<path d="M219.552 61.5312C219.552 56.8906 216.977 53.2813 212.17 53.2813C207.535 53.2813 204.446 57.2344 204.446 61.875V77.5156H196.893V46.9219H203.587L204.102 51.0469C207.192 47.9531 210.282 46.4062 214.058 46.4062C221.268 46.4062 226.933 51.7344 226.933 61.3594V77.3438H219.38V61.5312H219.552Z" fill="white"/>
<path d="M248.733 71.5C251.479 71.5 255.084 70.4688 256.972 68.5781L261.779 73.3906C258.517 76.6563 253.368 78.375 248.733 78.375C238.262 78.375 231.91 71.8438 231.91 62.0469C231.91 52.7656 238.262 46.0625 248.046 46.0625C257.487 46.0625 263.495 51.3906 263.495 62.0469C263.495 62.9063 263.495 63.9375 263.324 64.9688H239.463C240.15 68.75 243.411 71.5 248.733 71.5ZM248.218 52.7656C244.098 52.7656 240.836 54.8281 239.635 58.7813H256.114C255.771 54.8281 252.681 52.7656 248.218 52.7656Z" fill="white"/>
<path d="M278.259 47.0938H286.67V53.625H278.259V66.8594C278.259 69.7813 279.804 71.1562 282.207 71.1562C283.409 71.1562 284.782 70.8125 285.812 70.2969L287.872 76.6562C285.468 77.5156 283.58 78.0312 281.005 78.0312C274.826 78.0312 270.706 74.25 270.706 66.8594V53.625H265.041V47.0938H270.706V39.1875L278.259 38.3281V47.0938Z" fill="white"/>
<path d="M316.197 64.9687H314.652L300.919 46.0625V77.5156H292.68V34.2031H302.121L315.682 52.7656L329.243 34.2031H338.513V77.5156H330.273V46.2344L316.197 64.9687Z" fill="white"/>
<path d="M377.134 47.0937V77.5156H370.096L369.753 73.0469C368.036 76.6562 363.058 78.375 359.797 78.375C350.87 78.375 344.176 72.875 344.176 62.2187C344.176 51.7344 351.042 46.2344 359.968 46.2344C364.088 46.2344 368.036 48.125 369.753 51.2187L369.925 47.0937H377.134ZM351.729 62.2187C351.729 68.0625 355.677 71.5 360.827 71.5C366.835 71.5 369.753 66.8594 369.753 62.2187C369.753 57.5781 366.835 52.9375 360.827 52.9375C355.677 52.9375 351.729 56.375 351.729 62.2187Z" fill="white"/>
<path d="M383.314 47.0937H390.352L390.867 51.2187C393.271 47.7812 397.219 46.4062 400.824 46.4062C410.265 46.4062 416.445 53.4531 416.445 62.3906C416.445 71.3281 410.78 78.375 400.995 78.375C397.734 78.375 393.099 77.3438 390.867 74.0781V90.4062H383.314V47.0937ZM408.72 62.2188C408.72 57.4063 405.458 53.625 400.137 53.625C394.816 53.625 391.554 57.5781 391.554 62.2188C391.554 66.8594 395.159 70.8125 400.137 70.8125C405.115 70.8125 408.72 67.0313 408.72 62.2188Z" fill="white"/>
<path d="M433.955 52.4219C430.35 52.4219 428.462 53.4531 428.462 55.5156C428.462 57.5781 430.179 58.6094 434.127 58.7813C439.792 59.125 447.173 60.5 447.173 68.5781C447.173 73.9063 442.71 78.5469 434.127 78.5469C429.32 78.5469 424.514 77.6875 420.051 73.0469L423.827 67.7188C426.059 70.125 431.037 72.0156 434.47 72.0156C437.217 72.0156 439.792 70.4687 439.792 68.4062C439.792 66.3437 438.075 65.4844 433.784 65.1406C428.119 64.625 421.252 62.5625 421.252 55.6875C421.252 48.6406 428.462 46.2344 434.127 46.2344C438.933 46.2344 442.538 47.0938 445.971 50.1875L441.851 55.1719C439.277 53.1094 436.873 52.4219 433.955 52.4219Z" fill="white"/>
<path d="M109.862 3.4375V22.8594C102.824 22.8594 96.9873 28.1875 96.3007 34.8906H83.4263C82.7396 30.5937 79.3065 27.1562 75.015 26.4688V7.39063C77.9332 6.70313 80.1647 3.95312 80.1647 0.6875C80.1647 0.34375 80.1647 0.171875 80.1647 0H106.429C106.429 1.89062 107.974 3.4375 109.862 3.4375ZM66.432 0.6875C66.432 0.34375 66.432 0.171875 66.432 0H46.8629C46.8629 0.171875 46.8629 0.515625 46.8629 0.6875C46.8629 5.84375 43.0864 9.96875 38.28 10.8281V29.9062C40.6832 30.5938 42.5714 32.4844 43.2581 34.8906H63.1705C63.8571 30.5937 67.2903 27.1562 71.5818 26.4688V7.39063C68.4919 6.70313 66.432 3.95312 66.432 0.6875ZM96.3007 38.3281H83.4263C82.7396 42.625 79.3065 46.0625 75.015 46.75V66.5156C77.4182 67.2031 79.3064 69.0938 79.9931 71.5H107.115C107.63 70.4688 108.832 69.7812 110.033 69.7812V50.3594C102.824 50.3594 96.9873 45.2031 96.3007 38.3281ZM26.2638 0.6875C26.2638 0.34375 26.2638 0.171875 26.2638 0H13.7327C13.7327 7.5625 7.553 13.75 0 13.75V33.1719C1.20161 33.1719 2.40323 33.8594 2.9182 34.8906H29.8687C30.5553 32.4844 32.4436 30.5938 34.8468 29.9062V10.8281C30.0403 10.1406 26.2638 5.84375 26.2638 0.6875ZM30.0403 38.3281H2.9182C2.23157 39.3594 1.20161 40.0469 0 40.0469V59.4687C7.03802 59.4687 12.7028 64.625 13.5611 71.5H26.4355C27.1221 67.2031 30.5553 63.7656 34.8468 63.0781V43.3125C32.4436 42.625 30.5553 40.7344 30.0403 38.3281ZM63.1705 38.3281H43.2581C42.5714 40.7344 40.6832 42.625 38.28 43.3125V63.25C42.5714 63.9375 46.0046 67.375 46.6912 71.6719H66.432C67.1187 69.2656 69.0069 67.375 71.4101 66.6875V46.75C67.1187 46.0625 63.8571 42.625 63.1705 38.3281ZM26.4355 74.9375H13.5611C12.7028 81.8125 6.86636 86.9688 0 86.9688V106.562C1.88825 106.562 3.43318 108.109 3.43318 110H29.697C29.697 106.734 31.9286 104.156 34.8468 103.297V83.5312C30.5553 82.8438 27.1221 79.4062 26.4355 74.9375ZM66.6037 74.9375H46.6912C46.0046 79.2344 42.5714 82.6719 38.28 83.3594V103.297C41.1982 103.984 43.4297 106.734 43.4297 110H62.8272C62.8272 104.844 66.6037 100.719 71.4101 99.8594V79.9219C69.1786 79.4062 67.1187 77.3438 66.6037 74.9375ZM106.944 74.9375H79.8214C79.1348 77.3438 77.2465 79.2344 74.8433 79.9219V99.8594C79.6498 100.719 83.4263 104.844 83.4263 110H96.129C96.129 102.438 102.309 96.25 109.862 96.25V76.8281C108.66 76.8281 107.459 76.1406 106.944 74.9375Z" fill="#FF74B7"/>
</g>
<defs>
<clipPath id="clip0">
<rect width="447" height="110" fill="white"/>
</clipPath>
</defs>
</svg>
