<svg width="1335px" height="1201px"
 viewBox="0.00 0.00 1000.95 900.58" xmlns="http://www.w3.org/2000/svg" xmlns:xlink="http://www.w3.org/1999/xlink">
<g id="graph0" class="graph" transform=" rotate(0) translate(4 896.58)">
<title>%3</title>
<polygon fill="white" stroke="transparent" points="-4,4 -4,-896.58 996.95,-896.58 996.95,4 -4,4"/>
<!-- EC(15) -->
<g id="node1" class="node">
<title>EC(15)</title>
<polygon fill="none" stroke="darkgreen" points="499.46,-477.12 499.46,-492.04 476.48,-502.58 443.99,-502.58 421.01,-492.04 421.01,-477.12 443.99,-466.58 476.48,-466.58 499.46,-477.12"/>
<polygon fill="none" stroke="darkgreen" points="503.47,-474.56 503.47,-494.6 477.36,-506.58 443.11,-506.58 417,-494.6 417,-474.56 443.11,-462.58 477.36,-462.58 503.47,-474.56"/>
<text text-anchor="middle" x="460.24" y="-480.38" font-family="Times,serif" font-size="14.00">EC(15)</text>
</g>
<!-- MolFunc(3) -->
<g id="node2" class="node">
<title>MolFunc(3)</title>
<polygon fill="none" stroke="darkgreen" points="806.81,-384.12 806.81,-399.04 773.19,-409.58 725.64,-409.58 692.02,-399.04 692.02,-384.12 725.64,-373.58 773.19,-373.58 806.81,-384.12"/>
<polygon fill="none" stroke="darkgreen" points="810.82,-381.19 810.82,-401.97 773.8,-413.58 725.03,-413.58 688.01,-401.97 688.01,-381.19 725.03,-369.58 773.8,-369.58 810.82,-381.19"/>
<text text-anchor="middle" x="749.41" y="-387.38" font-family="Times,serif" font-size="14.00">MolFunc(3)</text>
</g>
<!-- Phenotype(13) -->
<g id="node3" class="node">
<title>Phenotype(13)</title>
<polygon fill="none" stroke="darkgreen" points="816.52,-597.12 816.52,-612.04 777.21,-622.58 721.62,-622.58 682.31,-612.04 682.31,-597.12 721.62,-586.58 777.21,-586.58 816.52,-597.12"/>
<polygon fill="none" stroke="darkgreen" points="820.51,-594.05 820.51,-615.11 777.74,-626.58 721.09,-626.58 678.32,-615.11 678.32,-594.05 721.09,-582.58 777.74,-582.58 820.51,-594.05"/>
<text text-anchor="middle" x="749.41" y="-600.38" font-family="Times,serif" font-size="14.00">Phenotype(13)</text>
</g>
<!-- Gene(8) -->
<g id="node4" class="node">
<title>Gene(8)</title>
<polygon fill="none" stroke="darkgreen" points="502.35,-727.12 502.35,-742.04 477.68,-752.58 442.79,-752.58 418.12,-742.04 418.12,-727.12 442.79,-716.58 477.68,-716.58 502.35,-727.12"/>
<polygon fill="none" stroke="darkgreen" points="506.33,-724.48 506.33,-744.68 478.49,-756.58 441.98,-756.58 414.14,-744.68 414.14,-724.48 441.98,-712.58 478.49,-712.58 506.33,-724.48"/>
<text text-anchor="middle" x="460.24" y="-730.38" font-family="Times,serif" font-size="14.00">Gene(8)</text>
</g>
<!-- CelComp(5) -->
<g id="node5" class="node">
<title>CelComp(5)</title>
<polygon fill="none" stroke="darkgreen" points="808.02,-315.12 808.02,-330.04 773.69,-340.58 725.14,-340.58 690.81,-330.04 690.81,-315.12 725.14,-304.58 773.69,-304.58 808.02,-315.12"/>
<polygon fill="none" stroke="darkgreen" points="812.01,-312.17 812.01,-332.99 774.29,-344.58 724.54,-344.58 686.82,-332.99 686.82,-312.17 724.54,-300.58 774.29,-300.58 812.01,-312.17"/>
<text text-anchor="middle" x="749.41" y="-318.38" font-family="Times,serif" font-size="14.00">CelComp(5)</text>
</g>
<!-- Publication(2) -->
<g id="node6" class="node">
<title>Publication(2)</title>
<polygon fill="none" stroke="darkgreen" points="815.31,-105.12 815.31,-120.04 776.71,-130.58 722.12,-130.58 683.52,-120.04 683.52,-105.12 722.12,-94.58 776.71,-94.58 815.31,-105.12"/>
<polygon fill="none" stroke="darkgreen" points="819.32,-102.07 819.32,-123.09 777.25,-134.58 721.58,-134.58 679.51,-123.09 679.51,-102.07 721.58,-90.58 777.25,-90.58 819.32,-102.07"/>
<text text-anchor="middle" x="749.41" y="-108.38" font-family="Times,serif" font-size="14.00">Publication(2)</text>
</g>
<!-- BioProc(4) -->
<g id="node7" class="node">
<title>BioProc(4)</title>
<polygon fill="none" stroke="darkgreen" points="802.87,-190.12 802.87,-205.04 771.56,-215.58 727.27,-215.58 695.96,-205.04 695.96,-190.12 727.27,-179.58 771.56,-179.58 802.87,-190.12"/>
<polygon fill="none" stroke="darkgreen" points="806.87,-187.25 806.87,-207.91 772.21,-219.58 726.62,-219.58 691.96,-207.91 691.96,-187.25 726.62,-175.58 772.21,-175.58 806.87,-187.25"/>
<text text-anchor="middle" x="749.41" y="-193.38" font-family="Times,serif" font-size="14.00">BioProc(4)</text>
</g>
<!-- Protein(7) -->
<g id="node8" class="node">
<title>Protein(7)</title>
<polygon fill="none" stroke="darkgreen" points="509.76,-92.12 509.76,-107.04 480.75,-117.58 439.72,-117.58 410.71,-107.04 410.71,-92.12 439.72,-81.58 480.75,-81.58 509.76,-92.12"/>
<polygon fill="none" stroke="darkgreen" points="513.74,-89.32 513.74,-109.84 481.45,-121.58 439.02,-121.58 406.73,-109.84 406.73,-89.32 439.02,-77.58 481.45,-77.58 513.74,-89.32"/>
<text text-anchor="middle" x="460.24" y="-95.38" font-family="Times,serif" font-size="14.00">Protein(7)</text>
</g>
<!-- ProtDomain(14) -->
<g id="node9" class="node">
<title>ProtDomain(14)</title>
<polygon fill="none" stroke="darkgreen" points="534.09,-665.12 534.09,-680.04 490.83,-690.58 429.64,-690.58 386.38,-680.04 386.38,-665.12 429.64,-654.58 490.83,-654.58 534.09,-665.12"/>
<polygon fill="none" stroke="darkgreen" points="538.1,-661.98 538.1,-683.18 491.31,-694.58 429.16,-694.58 382.37,-683.18 382.37,-661.98 429.16,-650.58 491.31,-650.58 538.1,-661.98"/>
<text text-anchor="middle" x="460.24" y="-668.38" font-family="Times,serif" font-size="14.00">ProtDomain(14)</text>
</g>
<!-- Enzyme(17) -->
<g id="node10" class="node">
<title>Enzyme(17)</title>
<polygon fill="none" stroke="darkgreen" points="518.72,-539.12 518.72,-554.04 484.46,-564.58 436.01,-564.58 401.75,-554.04 401.75,-539.12 436.01,-528.58 484.46,-528.58 518.72,-539.12"/>
<polygon fill="none" stroke="darkgreen" points="522.73,-536.17 522.73,-556.99 485.07,-568.58 435.41,-568.58 397.74,-556.99 397.74,-536.17 435.41,-524.58 485.07,-524.58 522.73,-536.17"/>
<text text-anchor="middle" x="460.24" y="-542.38" font-family="Times,serif" font-size="14.00">Enzyme(17)</text>
</g>
<!-- Path(20) -->
<g id="node11" class="node">
<title>Path(20)</title>
<polygon fill="none" stroke="darkgreen" points="988.86,-805.12 988.86,-820.04 963.19,-830.58 926.89,-830.58 901.23,-820.04 901.23,-805.12 926.89,-794.58 963.19,-794.58 988.86,-805.12"/>
<polygon fill="none" stroke="darkgreen" points="992.85,-802.44 992.85,-822.72 963.98,-834.58 926.11,-834.58 897.23,-822.72 897.23,-802.44 926.11,-790.58 963.98,-790.58 992.85,-802.44"/>
<text text-anchor="middle" x="945.04" y="-808.38" font-family="Times,serif" font-size="14.00">Path(20)</text>
</g>
<!-- Reaction(19) -->
<g id="node12" class="node">
<title>Reaction(19)</title>
<polygon fill="none" stroke="darkgreen" points="810.24,-863.12 810.24,-878.04 774.61,-888.58 724.22,-888.58 688.59,-878.04 688.59,-863.12 724.22,-852.58 774.61,-852.58 810.24,-863.12"/>
<polygon fill="none" stroke="darkgreen" points="814.23,-860.13 814.23,-881.02 775.19,-892.58 723.64,-892.58 684.6,-881.02 684.6,-860.13 723.64,-848.58 775.19,-848.58 814.23,-860.13"/>
<text text-anchor="middle" x="749.41" y="-866.38" font-family="Times,serif" font-size="14.00">Reaction(19)</text>
</g>
<!-- Gene(1) -->
<g id="node13" class="node">
<title>Gene(1)</title>
<ellipse fill="none" stroke="red" cx="43.08" cy="-201.58" rx="39.15" ry="39.15"/>
<ellipse fill="none" stroke="red" cx="43.08" cy="-201.58" rx="43.15" ry="43.15"/>
<text text-anchor="middle" x="43.08" y="-197.38" font-family="Times,serif" font-size="14.00">Gene(1)</text>
</g>
<!-- Gene(1)&#45;&gt;Phenotype(13) -->
<g id="edge26" class="edge">
<title>Gene(1)&#45;&gt;Phenotype(13)</title>
<path fill="none" stroke="black" d="M45.03,-244.77C50.12,-354.83 80.72,-645.35 260.35,-762.58 275.06,-772.18 523.26,-770.54 537.92,-765.58 619.84,-737.84 694.96,-664.01 729.09,-626.75"/>
<text text-anchor="middle" x="312.45" y="-785.38" font-family="Times,serif" font-size="14.00">cooc_wi</text>
<text text-anchor="middle" x="312.45" y="-771.38" font-family="Times,serif" font-size="14.00">has_observ_pheno</text>
</g>
<!-- Gene(1)&#45;&gt;Publication(2) -->
<g id="edge29" class="edge">
<title>Gene(1)&#45;&gt;Publication(2)</title>
<path fill="none" stroke="blue" d="M63.16,-163.39C80.01,-133.23 107.23,-92.09 141.58,-66.58 186.41,-33.28 205.75,-37.28 260.35,-25.58 434.83,11.81 499.04,14.19 660.12,-62.58 678.72,-71.45 698.77,-82.65 715.05,-92.21"/>
<text text-anchor="middle" x="312.45" y="-42.38" font-family="Times,serif" font-size="14.00">occ_in</text>
<text text-anchor="middle" x="312.45" y="-28.38" font-family="Times,serif" font-size="14.00">pub_in</text>
</g>
<!-- Gene(1)&#45;&gt;Protein(7) -->
<g id="edge27" class="edge">
<title>Gene(1)&#45;&gt;Protein(7)</title>
<path fill="none" stroke="blue" d="M75.63,-173.3C115.38,-139.77 187.36,-85.75 260.35,-64.58 304.83,-51.68 318.97,-56.42 364.55,-64.58 384.74,-68.19 406.25,-75.81 423.66,-83.02"/>
<text text-anchor="middle" x="191.97" y="-125.38" font-family="Times,serif" font-size="14.00">enc</text>
</g>
<!-- Protein(10) -->
<g id="node14" class="node">
<title>Protein(10)</title>
<ellipse fill="none" stroke="black" cx="191.97" cy="-376.58" rx="50.27" ry="18"/>
<text text-anchor="middle" x="191.97" y="-372.38" font-family="Times,serif" font-size="14.00">Protein(10)</text>
</g>
<!-- Gene(1)&#45;&gt;Protein(10) -->
<g id="edge28" class="edge">
<title>Gene(1)&#45;&gt;Protein(10)</title>
<path fill="none" stroke="black" d="M71.36,-234.09C102.39,-271.05 151.91,-330.05 176.35,-359.16"/>
<text text-anchor="middle" x="113.87" y="-297.38" font-family="Times,serif" font-size="14.00">enc</text>
</g>
<!-- Protein(10)&#45;&gt;EC(15) -->
<g id="edge2" class="edge">
<title>Protein(10)&#45;&gt;EC(15)</title>
<path fill="none" stroke="blue" d="M205.33,-393.97C217.5,-409.72 237.53,-432.28 260.35,-444.58 309.81,-471.23 374.84,-480.2 416.84,-483.17"/>
<text text-anchor="middle" x="312.45" y="-479.38" font-family="Times,serif" font-size="14.00">cat_c</text>
</g>
<!-- Protein(10)&#45;&gt;MolFunc(3) -->
<g id="edge9" class="edge">
<title>Protein(10)&#45;&gt;MolFunc(3)</title>
<path fill="none" stroke="black" d="M231.18,-388.11C240.64,-390.6 250.8,-392.96 260.35,-394.58 435.8,-424.27 483.87,-441.05 660.12,-416.58 674.48,-414.59 689.79,-410.85 703.55,-406.86"/>
<text text-anchor="middle" x="460.24" y="-431.38" font-family="Times,serif" font-size="14.00">has_function</text>
</g>
<!-- Protein(10)&#45;&gt;Phenotype(13) -->
<g id="edge3" class="edge">
<title>Protein(10)&#45;&gt;Phenotype(13)</title>
<path fill="none" stroke="black" d="M194.18,-394.75C197.65,-431.16 210.84,-513.09 260.35,-554.58 322.05,-606.28 558.67,-608.89 678.3,-606.72"/>
<text text-anchor="middle" x="460.24" y="-622.38" font-family="Times,serif" font-size="14.00">cooc_wi</text>
<text text-anchor="middle" x="460.24" y="-608.38" font-family="Times,serif" font-size="14.00">has_observ_pheno</text>
</g>
<!-- Protein(10)&#45;&gt;Gene(8) -->
<g id="edge4" class="edge">
<title>Protein(10)&#45;&gt;Gene(8)</title>
<path fill="none" stroke="blue" d="M194.5,-394.85C199.86,-454.4 219.7,-641.48 260.35,-683.58 263.1,-686.42 357.65,-709.84 415.38,-723.94"/>
<text text-anchor="middle" x="312.45" y="-713.38" font-family="Times,serif" font-size="14.00">enc</text>
</g>
<!-- Protein(10)&#45;&gt;CelComp(5) -->
<g id="edge12" class="edge">
<title>Protein(10)&#45;&gt;CelComp(5)</title>
<path fill="none" stroke="blue" d="M232.15,-365.54C270.21,-355.44 329.82,-341.22 382.55,-335.58 451.21,-328.24 469.5,-326.25 537.92,-335.58 546.14,-336.7 547.69,-339.46 555.92,-340.58 601.8,-346.83 614.04,-345.23 660.12,-340.58 671.32,-339.45 683.21,-337.53 694.51,-335.36"/>
<text text-anchor="middle" x="460.24" y="-338.38" font-family="Times,serif" font-size="14.00">located_in</text>
</g>
<!-- Protein(10)&#45;&gt;Publication(2) -->
<g id="edge14" class="edge">
<title>Protein(10)&#45;&gt;Publication(2)</title>
<path fill="none" stroke="blue" d="M197.12,-358.67C204.87,-328.75 224.13,-268.17 260.35,-230.58 302.61,-186.72 324.57,-187.2 382.55,-168.58 482.89,-136.36 604.82,-122.44 679.5,-116.6"/>
<text text-anchor="middle" x="460.24" y="-171.38" font-family="Times,serif" font-size="14.00">pub_in</text>
</g>
<!-- Protein(10)&#45;&gt;BioProc(4) -->
<g id="edge13" class="edge">
<title>Protein(10)&#45;&gt;BioProc(4)</title>
<path fill="none" stroke="black" d="M199.31,-358.67C208.82,-334.43 229.05,-291.47 260.35,-267.58 271.79,-258.85 517.95,-186.95 555.92,-181.58 601.77,-175.1 613.99,-177.43 660.12,-181.58 671.29,-182.58 683.16,-184.29 694.46,-186.22"/>
<text text-anchor="middle" x="460.24" y="-230.38" font-family="Times,serif" font-size="14.00">participates_in</text>
</g>
<!-- Protein(10)&#45;&gt;Protein(7) -->
<g id="edge7" class="edge">
<title>Protein(10)&#45;&gt;Protein(7)</title>
<path fill="none" stroke="black" d="M195.28,-358.28C202.27,-306.01 224.91,-157.75 260.35,-126.58 271.2,-117.05 351.37,-108.54 406.55,-103.73"/>
<text text-anchor="middle" x="312.45" y="-157.38" font-family="Times,serif" font-size="14.00">h_s_s(&lt;=4)</text>
<text text-anchor="middle" x="312.45" y="-143.38" font-family="Times,serif" font-size="14.00">ortho(&lt;=4)</text>
<text text-anchor="middle" x="312.45" y="-129.38" font-family="Times,serif" font-size="14.00">xref(&lt;=6)</text>
</g>
<!-- Protein(10)&#45;&gt;Protein(7) -->
<g id="edge16" class="edge">
<title>Protein(10)&#45;&gt;Protein(7)</title>
<path fill="none" stroke="blue" d="M194.18,-358.3C198.55,-298.8 215.65,-112.35 260.35,-76.58 281.72,-59.48 352.08,-72.12 403.05,-84.39"/>
<polygon fill="blue" stroke="blue" points="402.42,-87.84 412.97,-86.83 404.1,-81.04 402.42,-87.84"/>
<text text-anchor="middle" x="312.45" y="-93.38" font-family="Times,serif" font-size="14.00">genetic(&lt;=6)</text>
<text text-anchor="middle" x="312.45" y="-79.38" font-family="Times,serif" font-size="14.00">physical(&lt;=6)</text>
</g>
<!-- Protein(10)&#45;&gt;ProtDomain(14) -->
<g id="edge8" class="edge">
<title>Protein(10)&#45;&gt;ProtDomain(14)</title>
<path fill="none" stroke="blue" d="M192.37,-394.72C191.92,-439.43 197.24,-555.87 260.35,-618.58 292.33,-650.35 341.01,-663.93 382.2,-669.53"/>
<text text-anchor="middle" x="312.45" y="-668.38" font-family="Times,serif" font-size="14.00">has_domain</text>
</g>
<!-- Protein(10)&#45;&gt;Enzyme(17) -->
<g id="edge10" class="edge">
<title>Protein(10)&#45;&gt;Enzyme(17)</title>
<path fill="none" stroke="blue" d="M198.35,-394.78C207.03,-420.91 226.65,-468.75 260.35,-494.58 299.87,-524.86 355.38,-537.58 397.71,-542.89"/>
<text text-anchor="middle" x="312.45" y="-539.38" font-family="Times,serif" font-size="14.00">is_a</text>
</g>
<!-- Protein(10)&#45;&gt;Protein(10) -->
<g id="edge6" class="edge">
<title>Protein(10)&#45;&gt;Protein(10)</title>
<path fill="none" stroke="blue" d="M184.91,-394.73C183.83,-404.12 186.18,-412.58 191.97,-412.58 197.76,-412.58 200.11,-404.12 199.02,-394.73"/>
<text text-anchor="middle" x="191.97" y="-443.38" font-family="Times,serif" font-size="14.00">h_s_s(&lt;=4)</text>
<text text-anchor="middle" x="191.97" y="-429.38" font-family="Times,serif" font-size="14.00">ortho(&lt;=4)</text>
<text text-anchor="middle" x="191.97" y="-415.38" font-family="Times,serif" font-size="14.00">xref(&lt;=6)</text>
</g>
<!-- Protein(10)&#45;&gt;Protein(10) -->
<g id="edge15" class="edge">
<title>Protein(10)&#45;&gt;Protein(10)</title>
<path fill="none" stroke="black" d="M181.59,-394.47C173.5,-419.05 176.96,-454.58 191.97,-454.58 205.04,-454.58 209.35,-427.62 204.9,-404.42"/>
<polygon fill="black" stroke="black" points="208.22,-403.29 202.34,-394.47 201.44,-405.02 208.22,-403.29"/>
<text text-anchor="middle" x="191.97" y="-471.38" font-family="Times,serif" font-size="14.00">genetic(&lt;=6)</text>
<text text-anchor="middle" x="191.97" y="-457.38" font-family="Times,serif" font-size="14.00">physical(&lt;=6)</text>
</g>
<!-- EC(12) -->
<g id="node15" class="node">
<title>EC(12)</title>
<ellipse fill="none" stroke="black" cx="460.24" cy="-376.58" rx="36.28" ry="18"/>
<text text-anchor="middle" x="460.24" y="-372.38" font-family="Times,serif" font-size="14.00">EC(12)</text>
</g>
<!-- Protein(10)&#45;&gt;EC(12) -->
<g id="edge1" class="edge">
<title>Protein(10)&#45;&gt;EC(12)</title>
<path fill="none" stroke="black" d="M242.43,-376.58C295.22,-376.58 377.52,-376.58 424.06,-376.58"/>
<text text-anchor="middle" x="312.45" y="-379.38" font-family="Times,serif" font-size="14.00">cat_c</text>
</g>
<!-- Gene(9) -->
<g id="node16" class="node">
<title>Gene(9)</title>
<ellipse fill="none" stroke="black" cx="460.24" cy="-272.58" rx="39.15" ry="18"/>
<text text-anchor="middle" x="460.24" y="-268.38" font-family="Times,serif" font-size="14.00">Gene(9)</text>
</g>
<!-- Protein(10)&#45;&gt;Gene(9) -->
<g id="edge5" class="edge">
<title>Protein(10)&#45;&gt;Gene(9)</title>
<path fill="none" stroke="black" d="M202.81,-358.99C214.13,-340.6 234.52,-312.5 260.35,-298.58 311.09,-271.25 379.35,-268.39 421.27,-269.78"/>
<text text-anchor="middle" x="312.45" y="-301.38" font-family="Times,serif" font-size="14.00">enc</text>
</g>
<!-- Enzyme(16) -->
<g id="node17" class="node">
<title>Enzyme(16)</title>
<ellipse fill="none" stroke="black" cx="460.24" cy="-830.58" rx="53.63" ry="18"/>
<text text-anchor="middle" x="460.24" y="-826.38" font-family="Times,serif" font-size="14.00">Enzyme(16)</text>
</g>
<!-- Protein(10)&#45;&gt;Enzyme(16) -->
<g id="edge11" class="edge">
<title>Protein(10)&#45;&gt;Enzyme(16)</title>
<path fill="none" stroke="black" d="M193.9,-394.62C197.63,-459.2 213.53,-677.5 260.35,-725.58 293.44,-759.56 322.64,-726.38 364.55,-748.58 374.28,-753.73 374.35,-758.24 382.55,-765.58 401.28,-782.34 423.2,-800.81 438.8,-813.76"/>
<text text-anchor="middle" x="312.45" y="-751.38" font-family="Times,serif" font-size="14.00">is_a</text>
</g>
<!-- Gene(9)&#45;&gt;MolFunc(3) -->
<g id="edge18" class="edge">
<title>Gene(9)&#45;&gt;MolFunc(3)</title>
<path fill="none" stroke="blue" d="M491.07,-283.92C530.12,-298.89 600.62,-326.3 660.12,-351.58 676.69,-358.62 694.84,-366.76 710.34,-373.86"/>
<text text-anchor="middle" x="608.02" y="-354.38" font-family="Times,serif" font-size="14.00">has_function</text>
</g>
<!-- Gene(9)&#45;&gt;Phenotype(13) -->
<g id="edge17" class="edge">
<title>Gene(9)&#45;&gt;Phenotype(13)</title>
<path fill="none" stroke="black" d="M496.1,-280.02C510.82,-284.79 527.03,-292.45 537.92,-304.58 556.79,-325.62 542.8,-340.54 555.92,-365.58 602.64,-454.78 685.3,-542.54 725.36,-582.37"/>
<text text-anchor="middle" x="608.02" y="-524.38" font-family="Times,serif" font-size="14.00">cooc_wi</text>
<text text-anchor="middle" x="608.02" y="-510.38" font-family="Times,serif" font-size="14.00">has_observ_pheno</text>
</g>
<!-- Gene(9)&#45;&gt;CelComp(5) -->
<g id="edge19" class="edge">
<title>Gene(9)&#45;&gt;CelComp(5)</title>
<path fill="none" stroke="black" d="M499.46,-272.78C539.85,-273.69 605.18,-277.21 660.12,-289.58 676.56,-293.28 694.07,-299.35 709.12,-305.27"/>
<text text-anchor="middle" x="608.02" y="-292.38" font-family="Times,serif" font-size="14.00">located_in</text>
</g>
<!-- Gene(9)&#45;&gt;Publication(2) -->
<g id="edge20" class="edge">
<title>Gene(9)&#45;&gt;Publication(2)</title>
<path fill="none" stroke="blue" d="M488.14,-259.95C503.86,-251.68 523.41,-239.78 537.92,-225.58 548.49,-215.23 544.48,-206.96 555.92,-197.58 594.39,-166.01 614.65,-176.81 660.12,-156.58 677.17,-148.99 695.71,-139.89 711.38,-131.94"/>
<text text-anchor="middle" x="608.02" y="-214.38" font-family="Times,serif" font-size="14.00">occ_in</text>
<text text-anchor="middle" x="608.02" y="-200.38" font-family="Times,serif" font-size="14.00">pub_in</text>
</g>
<!-- Gene(9)&#45;&gt;BioProc(4) -->
<g id="edge21" class="edge">
<title>Gene(9)&#45;&gt;BioProc(4)</title>
<path fill="none" stroke="black" d="M497.16,-266.32C537.27,-258.99 603.93,-245.75 660.12,-229.58 675.94,-225.02 693.02,-219.08 707.91,-213.56"/>
<text text-anchor="middle" x="608.02" y="-257.38" font-family="Times,serif" font-size="14.00">participates_in</text>
</g>
<!-- Enzyme(16)&#45;&gt;Reaction(19) -->
<g id="edge23" class="edge">
<title>Enzyme(16)&#45;&gt;Reaction(19)</title>
<path fill="none" stroke="blue" d="M510.28,-837.41C558.34,-844.1 631.83,-854.34 684.46,-861.67"/>
<text text-anchor="middle" x="608.02" y="-860.38" font-family="Times,serif" font-size="14.00">ca_by</text>
</g>
<!-- Reaction(18) -->
<g id="node18" class="node">
<title>Reaction(18)</title>
<ellipse fill="none" stroke="black" cx="749.41" cy="-812.58" rx="56.04" ry="18"/>
<text text-anchor="middle" x="749.41" y="-808.38" font-family="Times,serif" font-size="14.00">Reaction(18)</text>
</g>
<!-- Enzyme(16)&#45;&gt;Reaction(18) -->
<g id="edge22" class="edge">
<title>Enzyme(16)&#45;&gt;Reaction(18)</title>
<path fill="none" stroke="black" d="M513.24,-827.32C564.32,-824.12 641.93,-819.25 693.87,-816"/>
<text text-anchor="middle" x="608.02" y="-826.38" font-family="Times,serif" font-size="14.00">ca_by</text>
</g>
<!-- Reaction(18)&#45;&gt;Path(20) -->
<g id="edge24" class="edge">
<title>Reaction(18)&#45;&gt;Path(20)</title>
<path fill="none" stroke="black" d="M805.9,-812.58C834.73,-812.58 869.59,-812.58 897.07,-812.58"/>
<text text-anchor="middle" x="858.93" y="-815.38" font-family="Times,serif" font-size="14.00">part_of</text>
</g>
<!-- Phenotype(21) -->
<g id="node19" class="node">
<title>Phenotype(21)</title>
<ellipse fill="none" stroke="black" cx="460.24" cy="-41.58" rx="62.35" ry="18"/>
<text text-anchor="middle" x="460.24" y="-37.38" font-family="Times,serif" font-size="14.00">Phenotype(21)</text>
</g>
<!-- Phenotype(21)&#45;&gt;Publication(2) -->
<g id="edge25" class="edge">
<title>Phenotype(21)&#45;&gt;Publication(2)</title>
<path fill="none" stroke="blue" d="M508.01,-53.14C558.32,-65.58 638.29,-85.35 692.03,-98.64"/>
<text text-anchor="middle" x="608.02" y="-93.38" font-family="Times,serif" font-size="14.00">occ_in</text>
</g>
</g>
</svg>
