<svg width="1335px" height="1168px"
 viewBox="0.00 0.00 1000.95 876.11" xmlns="http://www.w3.org/2000/svg" xmlns:xlink="http://www.w3.org/1999/xlink">
<g id="graph0" class="graph" transform=" rotate(0) translate(4 872.11)">
<title>%3</title>
<polygon fill="white" stroke="transparent" points="-4,4 -4,-872.11 996.95,-872.11 996.95,4 -4,4"/>
<!-- Publication(2) -->
<g id="node1" class="node">
<title>Publication(2)</title>
<polygon fill="none" stroke="darkgreen" points="815.31,-796.66 815.31,-811.57 776.71,-822.11 722.12,-822.11 683.52,-811.57 683.52,-796.66 722.12,-786.11 776.71,-786.11 815.31,-796.66"/>
<polygon fill="none" stroke="darkgreen" points="819.32,-793.6 819.32,-814.62 777.25,-826.11 721.58,-826.11 679.51,-814.62 679.51,-793.6 721.58,-782.11 777.25,-782.11 819.32,-793.6"/>
<text text-anchor="middle" x="749.41" y="-799.91" font-family="Times,serif" font-size="14.00">Publication(2)</text>
</g>
<!-- Phenotype(13) -->
<g id="node2" class="node">
<title>Phenotype(13)</title>
<polygon fill="none" stroke="darkgreen" points="816.52,-530.66 816.52,-545.57 777.21,-556.11 721.62,-556.11 682.31,-545.57 682.31,-530.66 721.62,-520.11 777.21,-520.11 816.52,-530.66"/>
<polygon fill="none" stroke="darkgreen" points="820.51,-527.58 820.51,-548.64 777.74,-560.11 721.09,-560.11 678.32,-548.64 678.32,-527.58 721.09,-516.11 777.74,-516.11 820.51,-527.58"/>
<text text-anchor="middle" x="749.41" y="-533.91" font-family="Times,serif" font-size="14.00">Phenotype(13)</text>
</g>
<!-- MolFunc(3) -->
<g id="node3" class="node">
<title>MolFunc(3)</title>
<polygon fill="none" stroke="darkgreen" points="806.81,-419.66 806.81,-434.57 773.19,-445.11 725.64,-445.11 692.02,-434.57 692.02,-419.66 725.64,-409.11 773.19,-409.11 806.81,-419.66"/>
<polygon fill="none" stroke="darkgreen" points="810.82,-416.72 810.82,-437.5 773.8,-449.11 725.03,-449.11 688.01,-437.5 688.01,-416.72 725.03,-405.11 773.8,-405.11 810.82,-416.72"/>
<text text-anchor="middle" x="749.41" y="-422.91" font-family="Times,serif" font-size="14.00">MolFunc(3)</text>
</g>
<!-- CelComp(5) -->
<g id="node4" class="node">
<title>CelComp(5)</title>
<polygon fill="none" stroke="darkgreen" points="808.02,-355.66 808.02,-370.57 773.69,-381.11 725.14,-381.11 690.81,-370.57 690.81,-355.66 725.14,-345.11 773.69,-345.11 808.02,-355.66"/>
<polygon fill="none" stroke="darkgreen" points="812.01,-352.7 812.01,-373.53 774.29,-385.11 724.54,-385.11 686.82,-373.53 686.82,-352.7 724.54,-341.11 774.29,-341.11 812.01,-352.7"/>
<text text-anchor="middle" x="749.41" y="-358.91" font-family="Times,serif" font-size="14.00">CelComp(5)</text>
</g>
<!-- BioProc(4) -->
<g id="node5" class="node">
<title>BioProc(4)</title>
<polygon fill="none" stroke="darkgreen" points="802.87,-277.66 802.87,-292.57 771.56,-303.11 727.27,-303.11 695.96,-292.57 695.96,-277.66 727.27,-267.11 771.56,-267.11 802.87,-277.66"/>
<polygon fill="none" stroke="darkgreen" points="806.87,-274.78 806.87,-295.44 772.21,-307.11 726.62,-307.11 691.96,-295.44 691.96,-274.78 726.62,-263.11 772.21,-263.11 806.87,-274.78"/>
<text text-anchor="middle" x="749.41" y="-280.91" font-family="Times,serif" font-size="14.00">BioProc(4)</text>
</g>
<!-- Gene(8) -->
<g id="node6" class="node">
<title>Gene(8)</title>
<polygon fill="none" stroke="darkgreen" points="502.35,-214.66 502.35,-229.57 477.68,-240.11 442.79,-240.11 418.12,-229.57 418.12,-214.66 442.79,-204.11 477.68,-204.11 502.35,-214.66"/>
<polygon fill="none" stroke="darkgreen" points="506.33,-212.01 506.33,-232.21 478.49,-244.11 441.98,-244.11 414.14,-232.21 414.14,-212.01 441.98,-200.11 478.49,-200.11 506.33,-212.01"/>
<text text-anchor="middle" x="460.24" y="-217.91" font-family="Times,serif" font-size="14.00">Gene(8)</text>
</g>
<!-- Path(20) -->
<g id="node7" class="node">
<title>Path(20)</title>
<polygon fill="none" stroke="darkgreen" points="988.86,-738.66 988.86,-753.57 963.19,-764.11 926.89,-764.11 901.23,-753.57 901.23,-738.66 926.89,-728.11 963.19,-728.11 988.86,-738.66"/>
<polygon fill="none" stroke="darkgreen" points="992.85,-735.97 992.85,-756.25 963.98,-768.11 926.11,-768.11 897.23,-756.25 897.23,-735.97 926.11,-724.11 963.98,-724.11 992.85,-735.97"/>
<text text-anchor="middle" x="945.04" y="-741.91" font-family="Times,serif" font-size="14.00">Path(20)</text>
</g>
<!-- EC(15) -->
<g id="node8" class="node">
<title>EC(15)</title>
<polygon fill="none" stroke="darkgreen" points="499.46,-152.66 499.46,-167.57 476.48,-178.11 443.99,-178.11 421.01,-167.57 421.01,-152.66 443.99,-142.11 476.48,-142.11 499.46,-152.66"/>
<polygon fill="none" stroke="darkgreen" points="503.47,-150.09 503.47,-170.13 477.36,-182.11 443.11,-182.11 417,-170.13 417,-150.09 443.11,-138.11 477.36,-138.11 503.47,-150.09"/>
<text text-anchor="middle" x="460.24" y="-155.91" font-family="Times,serif" font-size="14.00">EC(15)</text>
</g>
<!-- Reaction(19) -->
<g id="node9" class="node">
<title>Reaction(19)</title>
<polygon fill="none" stroke="darkgreen" points="810.24,-680.66 810.24,-695.57 774.61,-706.11 724.22,-706.11 688.59,-695.57 688.59,-680.66 724.22,-670.11 774.61,-670.11 810.24,-680.66"/>
<polygon fill="none" stroke="darkgreen" points="814.23,-677.67 814.23,-698.56 775.19,-710.11 723.64,-710.11 684.6,-698.56 684.6,-677.67 723.64,-666.11 775.19,-666.11 814.23,-677.67"/>
<text text-anchor="middle" x="749.41" y="-683.91" font-family="Times,serif" font-size="14.00">Reaction(19)</text>
</g>
<!-- ProtDomain(14) -->
<g id="node10" class="node">
<title>ProtDomain(14)</title>
<polygon fill="none" stroke="darkgreen" points="534.09,-90.66 534.09,-105.57 490.83,-116.11 429.64,-116.11 386.38,-105.57 386.38,-90.66 429.64,-80.11 490.83,-80.11 534.09,-90.66"/>
<polygon fill="none" stroke="darkgreen" points="538.1,-87.52 538.1,-108.71 491.31,-120.11 429.16,-120.11 382.37,-108.71 382.37,-87.52 429.16,-76.11 491.31,-76.11 538.1,-87.52"/>
<text text-anchor="middle" x="460.24" y="-93.91" font-family="Times,serif" font-size="14.00">ProtDomain(14)</text>
</g>
<!-- Protein(7) -->
<g id="node11" class="node">
<title>Protein(7)</title>
<polygon fill="none" stroke="darkgreen" points="509.76,-26.66 509.76,-41.57 480.75,-52.11 439.72,-52.11 410.71,-41.57 410.71,-26.66 439.72,-16.11 480.75,-16.11 509.76,-26.66"/>
<polygon fill="none" stroke="darkgreen" points="513.74,-23.85 513.74,-44.37 481.45,-56.11 439.02,-56.11 406.73,-44.37 406.73,-23.85 439.02,-12.11 481.45,-12.11 513.74,-23.85"/>
<text text-anchor="middle" x="460.24" y="-29.91" font-family="Times,serif" font-size="14.00">Protein(7)</text>
</g>
<!-- Enzyme(17) -->
<g id="node12" class="node">
<title>Enzyme(17)</title>
<polygon fill="none" stroke="darkgreen" points="518.72,-598.66 518.72,-613.57 484.46,-624.11 436.01,-624.11 401.75,-613.57 401.75,-598.66 436.01,-588.11 484.46,-588.11 518.72,-598.66"/>
<polygon fill="none" stroke="darkgreen" points="522.73,-595.71 522.73,-616.52 485.07,-628.11 435.41,-628.11 397.74,-616.52 397.74,-595.71 435.41,-584.11 485.07,-584.11 522.73,-595.71"/>
<text text-anchor="middle" x="460.24" y="-601.91" font-family="Times,serif" font-size="14.00">Enzyme(17)</text>
</g>
<!-- Gene(1) -->
<g id="node13" class="node">
<title>Gene(1)</title>
<ellipse fill="none" stroke="red" cx="43.08" cy="-579.11" rx="39.15" ry="39.15"/>
<ellipse fill="none" stroke="red" cx="43.08" cy="-579.11" rx="43.15" ry="43.15"/>
<text text-anchor="middle" x="43.08" y="-574.91" font-family="Times,serif" font-size="14.00">Gene(1)</text>
</g>
<!-- Gene(1)&#45;&gt;Publication(2) -->
<g id="edge13" class="edge">
<title>Gene(1)&#45;&gt;Publication(2)</title>
<path fill="none" stroke="blue" d="M76.24,-607.04C133.24,-654.44 257.78,-748.72 382.55,-782.11 483.36,-809.09 605.16,-810.53 679.68,-808.08"/>
<text text-anchor="middle" x="312.45" y="-792.91" font-family="Times,serif" font-size="14.00">occ_in</text>
<text text-anchor="middle" x="312.45" y="-778.91" font-family="Times,serif" font-size="14.00">pub_in</text>
</g>
<!-- Gene(1)&#45;&gt;Phenotype(13) -->
<g id="edge10" class="edge">
<title>Gene(1)&#45;&gt;Phenotype(13)</title>
<path fill="none" stroke="black" d="M83.62,-593.94C168.46,-623.54 373.59,-683.35 537.92,-637.11 546.94,-634.57 547.64,-630.51 555.92,-626.11 606.05,-599.46 665.78,-572.92 705.27,-556.07"/>
<text text-anchor="middle" x="312.45" y="-668.91" font-family="Times,serif" font-size="14.00">cooc_wi</text>
<text text-anchor="middle" x="312.45" y="-654.91" font-family="Times,serif" font-size="14.00">has_observ_pheno</text>
</g>
<!-- Gene(1)&#45;&gt;Protein(7) -->
<g id="edge11" class="edge">
<title>Gene(1)&#45;&gt;Protein(7)</title>
<path fill="none" stroke="blue" d="M45.41,-536.08C51.38,-427.06 83.94,-140.09 260.35,-19.11 308.19,13.69 378.57,-2.85 421.51,-18.21"/>
<text text-anchor="middle" x="191.97" y="-153.91" font-family="Times,serif" font-size="14.00">enc</text>
</g>
<!-- Protein(10) -->
<g id="node18" class="node">
<title>Protein(10)</title>
<ellipse fill="none" stroke="black" cx="191.97" cy="-380.11" rx="50.27" ry="18"/>
<text text-anchor="middle" x="191.97" y="-375.91" font-family="Times,serif" font-size="14.00">Protein(10)</text>
</g>
<!-- Gene(1)&#45;&gt;Protein(10) -->
<g id="edge12" class="edge">
<title>Gene(1)&#45;&gt;Protein(10)</title>
<path fill="none" stroke="black" d="M69.33,-544.9C100.91,-502.12 153.77,-430.5 178.06,-397.6"/>
<text text-anchor="middle" x="113.87" y="-499.91" font-family="Times,serif" font-size="14.00">enc</text>
</g>
<!-- Gene(9) -->
<g id="node14" class="node">
<title>Gene(9)</title>
<ellipse fill="none" stroke="black" cx="460.24" cy="-430.11" rx="39.15" ry="18"/>
<text text-anchor="middle" x="460.24" y="-425.91" font-family="Times,serif" font-size="14.00">Gene(9)</text>
</g>
<!-- Gene(9)&#45;&gt;Publication(2) -->
<g id="edge4" class="edge">
<title>Gene(9)&#45;&gt;Publication(2)</title>
<path fill="none" stroke="blue" d="M497.79,-435.36C512.1,-439.17 527.54,-445.75 537.92,-457.11 559.87,-481.15 541.52,-498.92 555.92,-528.11 588.98,-595.14 630.11,-591.66 660.12,-660.11 680.53,-706.69 647.07,-732.83 678.12,-773.11 683.08,-779.56 689.68,-784.69 696.84,-788.77"/>
<text text-anchor="middle" x="608.02" y="-676.91" font-family="Times,serif" font-size="14.00">occ_in</text>
<text text-anchor="middle" x="608.02" y="-662.91" font-family="Times,serif" font-size="14.00">pub_in</text>
</g>
<!-- Gene(9)&#45;&gt;Phenotype(13) -->
<g id="edge1" class="edge">
<title>Gene(9)&#45;&gt;Phenotype(13)</title>
<path fill="none" stroke="black" d="M493.71,-439.54C533.46,-451.38 602.57,-472.98 660.12,-496.11 676.97,-502.89 695.16,-511.33 710.63,-518.87"/>
<text text-anchor="middle" x="608.02" y="-512.91" font-family="Times,serif" font-size="14.00">cooc_wi</text>
<text text-anchor="middle" x="608.02" y="-498.91" font-family="Times,serif" font-size="14.00">has_observ_pheno</text>
</g>
<!-- Gene(9)&#45;&gt;MolFunc(3) -->
<g id="edge2" class="edge">
<title>Gene(9)&#45;&gt;MolFunc(3)</title>
<path fill="none" stroke="blue" d="M499.37,-429.71C547.58,-429.21 631.15,-428.34 688.06,-427.74"/>
<text text-anchor="middle" x="608.02" y="-430.91" font-family="Times,serif" font-size="14.00">has_function</text>
</g>
<!-- Gene(9)&#45;&gt;CelComp(5) -->
<g id="edge3" class="edge">
<title>Gene(9)&#45;&gt;CelComp(5)</title>
<path fill="none" stroke="black" d="M495.31,-422.16C544.41,-410.71 635.59,-389.43 694.06,-375.79"/>
<text text-anchor="middle" x="608.02" y="-408.91" font-family="Times,serif" font-size="14.00">located_in</text>
</g>
<!-- Gene(9)&#45;&gt;BioProc(4) -->
<g id="edge5" class="edge">
<title>Gene(9)&#45;&gt;BioProc(4)</title>
<path fill="none" stroke="black" d="M494.88,-421.45C509.37,-416.45 525.74,-408.94 537.92,-398.11 550.11,-387.27 543.74,-376.97 555.92,-366.11 596.1,-330.27 654.44,-308.76 696.35,-297.01"/>
<text text-anchor="middle" x="608.02" y="-368.91" font-family="Times,serif" font-size="14.00">participates_in</text>
</g>
<!-- Phenotype(21) -->
<g id="node15" class="node">
<title>Phenotype(21)</title>
<ellipse fill="none" stroke="black" cx="460.24" cy="-850.11" rx="62.35" ry="18"/>
<text text-anchor="middle" x="460.24" y="-845.91" font-family="Times,serif" font-size="14.00">Phenotype(21)</text>
</g>
<!-- Phenotype(21)&#45;&gt;Publication(2) -->
<g id="edge6" class="edge">
<title>Phenotype(21)&#45;&gt;Publication(2)</title>
<path fill="none" stroke="blue" d="M514.91,-841.51C561.75,-834.01 629.94,-823.09 680.55,-814.98"/>
<text text-anchor="middle" x="608.02" y="-835.91" font-family="Times,serif" font-size="14.00">occ_in</text>
</g>
<!-- Enzyme(16) -->
<g id="node16" class="node">
<title>Enzyme(16)</title>
<ellipse fill="none" stroke="black" cx="460.24" cy="-702.11" rx="53.63" ry="18"/>
<text text-anchor="middle" x="460.24" y="-697.91" font-family="Times,serif" font-size="14.00">Enzyme(16)</text>
</g>
<!-- Enzyme(16)&#45;&gt;Reaction(19) -->
<g id="edge7" class="edge">
<title>Enzyme(16)&#45;&gt;Reaction(19)</title>
<path fill="none" stroke="black" d="M513.82,-699.28C527.52,-698.56 542.27,-697.79 555.92,-697.11 598.69,-694.98 646.81,-692.73 684.24,-691.01"/>
<text text-anchor="middle" x="608.02" y="-699.91" font-family="Times,serif" font-size="14.00">ca_by</text>
</g>
<!-- Reaction(18) -->
<g id="node17" class="node">
<title>Reaction(18)</title>
<ellipse fill="none" stroke="black" cx="749.41" cy="-746.11" rx="56.04" ry="18"/>
<text text-anchor="middle" x="749.41" y="-741.91" font-family="Times,serif" font-size="14.00">Reaction(18)</text>
</g>
<!-- Enzyme(16)&#45;&gt;Reaction(18) -->
<g id="edge8" class="edge">
<title>Enzyme(16)&#45;&gt;Reaction(18)</title>
<path fill="none" stroke="blue" d="M509.63,-709.53C562.06,-717.56 645.31,-730.31 698.38,-738.44"/>
<text text-anchor="middle" x="608.02" y="-733.91" font-family="Times,serif" font-size="14.00">ca_by</text>
</g>
<!-- Reaction(18)&#45;&gt;Path(20) -->
<g id="edge9" class="edge">
<title>Reaction(18)&#45;&gt;Path(20)</title>
<path fill="none" stroke="black" d="M805.9,-746.11C834.73,-746.11 869.59,-746.11 897.07,-746.11"/>
<text text-anchor="middle" x="858.93" y="-748.91" font-family="Times,serif" font-size="14.00">part_of</text>
</g>
<!-- Protein(10)&#45;&gt;Publication(2) -->
<g id="edge27" class="edge">
<title>Protein(10)&#45;&gt;Publication(2)</title>
<path fill="none" stroke="blue" d="M194.62,-398.32C200.33,-457.71 221.15,-644.41 260.35,-688.11 288.63,-719.63 555.67,-770.22 682.34,-792.7"/>
<text text-anchor="middle" x="460.24" y="-766.91" font-family="Times,serif" font-size="14.00">pub_in</text>
</g>
<!-- Protein(10)&#45;&gt;Phenotype(13) -->
<g id="edge16" class="edge">
<title>Protein(10)&#45;&gt;Phenotype(13)</title>
<path fill="none" stroke="black" d="M199.72,-398.1C209.45,-421.46 229.67,-461.74 260.35,-483.11 326.3,-529.04 559.75,-537.15 678.27,-538.24"/>
<text text-anchor="middle" x="460.24" y="-549.91" font-family="Times,serif" font-size="14.00">cooc_wi</text>
<text text-anchor="middle" x="460.24" y="-535.91" font-family="Times,serif" font-size="14.00">has_observ_pheno</text>
</g>
<!-- Protein(10)&#45;&gt;MolFunc(3) -->
<g id="edge22" class="edge">
<title>Protein(10)&#45;&gt;MolFunc(3)</title>
<path fill="none" stroke="black" d="M242.53,-379.04C309.67,-378.13 433.18,-378.35 537.92,-389.11 591.3,-394.59 651.48,-405.99 693.78,-414.88"/>
<text text-anchor="middle" x="460.24" y="-391.91" font-family="Times,serif" font-size="14.00">has_function</text>
</g>
<!-- Protein(10)&#45;&gt;CelComp(5) -->
<g id="edge25" class="edge">
<title>Protein(10)&#45;&gt;CelComp(5)</title>
<path fill="none" stroke="blue" d="M233.69,-369.97C271.86,-361.03 330.66,-348.75 382.55,-344.11 489.3,-334.58 614.03,-345.83 686.82,-354.63"/>
<text text-anchor="middle" x="460.24" y="-346.91" font-family="Times,serif" font-size="14.00">located_in</text>
</g>
<!-- Protein(10)&#45;&gt;BioProc(4) -->
<g id="edge26" class="edge">
<title>Protein(10)&#45;&gt;BioProc(4)</title>
<path fill="none" stroke="black" d="M216.32,-364.24C228.87,-356.43 244.89,-347.54 260.35,-342.11 409.66,-289.66 598.85,-283.29 691.73,-283.77"/>
<text text-anchor="middle" x="460.24" y="-311.91" font-family="Times,serif" font-size="14.00">participates_in</text>
</g>
<!-- Protein(10)&#45;&gt;Gene(8) -->
<g id="edge18" class="edge">
<title>Protein(10)&#45;&gt;Gene(8)</title>
<path fill="none" stroke="black" d="M197.02,-361.79C204.36,-333.3 222.69,-278.88 260.35,-252.11 305.32,-220.15 370.54,-216.21 413.88,-217.88"/>
<text text-anchor="middle" x="312.45" y="-254.91" font-family="Times,serif" font-size="14.00">enc</text>
</g>
<!-- Protein(10)&#45;&gt;EC(15) -->
<g id="edge14" class="edge">
<title>Protein(10)&#45;&gt;EC(15)</title>
<path fill="none" stroke="black" d="M194.26,-362.03C197.87,-325.79 211.3,-244.15 260.35,-202.11 283.47,-182.31 365.73,-170.12 416.94,-164.28"/>
<text text-anchor="middle" x="312.45" y="-204.91" font-family="Times,serif" font-size="14.00">cat_c</text>
</g>
<!-- Protein(10)&#45;&gt;ProtDomain(14) -->
<g id="edge21" class="edge">
<title>Protein(10)&#45;&gt;ProtDomain(14)</title>
<path fill="none" stroke="blue" d="M192.72,-361.81C193.17,-318.93 200.56,-211.25 260.35,-154.11 294.86,-121.13 318.63,-141.1 364.55,-128.11 378.66,-124.12 393.83,-119.47 407.81,-115.05"/>
<text text-anchor="middle" x="312.45" y="-156.91" font-family="Times,serif" font-size="14.00">has_domain</text>
</g>
<!-- Protein(10)&#45;&gt;Protein(7) -->
<g id="edge19" class="edge">
<title>Protein(10)&#45;&gt;Protein(7)</title>
<path fill="none" stroke="blue" d="M193.61,-361.92C196.33,-296.87 209.23,-77.43 260.35,-35.11 281.83,-17.33 355.36,-21.59 406.72,-27.15"/>
<text text-anchor="middle" x="312.45" y="-65.91" font-family="Times,serif" font-size="14.00">h_s_s(&lt;=4)</text>
<text text-anchor="middle" x="312.45" y="-51.91" font-family="Times,serif" font-size="14.00">ortho(&lt;=4)</text>
<text text-anchor="middle" x="312.45" y="-37.91" font-family="Times,serif" font-size="14.00">xref(&lt;=6)</text>
</g>
<!-- Protein(10)&#45;&gt;Protein(7) -->
<g id="edge28" class="edge">
<title>Protein(10)&#45;&gt;Protein(7)</title>
<path fill="none" stroke="black" d="M194.72,-361.91C200.55,-305.2 221.2,-133.26 260.35,-96.11 294.5,-63.71 320.23,-92.98 364.55,-77.11 373.17,-74.03 374.34,-71.15 382.55,-67.11 391.92,-62.51 402.08,-57.89 411.85,-53.62"/>
<polygon fill="black" stroke="black" points="413.26,-56.82 421.06,-49.65 410.49,-50.39 413.26,-56.82"/>
<text text-anchor="middle" x="312.45" y="-112.91" font-family="Times,serif" font-size="14.00">genetic(&lt;=6)</text>
<text text-anchor="middle" x="312.45" y="-98.91" font-family="Times,serif" font-size="14.00">physical(&lt;=6)</text>
</g>
<!-- Protein(10)&#45;&gt;Enzyme(17) -->
<g id="edge23" class="edge">
<title>Protein(10)&#45;&gt;Enzyme(17)</title>
<path fill="none" stroke="blue" d="M194.76,-398.18C199.22,-433.21 214.04,-510.56 260.35,-552.11 265.93,-557.11 349.35,-578.69 406.36,-593.01"/>
<text text-anchor="middle" x="312.45" y="-583.91" font-family="Times,serif" font-size="14.00">is_a</text>
</g>
<!-- Protein(10)&#45;&gt;Gene(9) -->
<g id="edge17" class="edge">
<title>Protein(10)&#45;&gt;Gene(9)</title>
<path fill="none" stroke="blue" d="M235.71,-389.16C243.88,-390.85 252.38,-392.56 260.35,-394.11 317.19,-405.16 383.38,-416.92 423.25,-423.89"/>
<text text-anchor="middle" x="312.45" y="-415.91" font-family="Times,serif" font-size="14.00">enc</text>
</g>
<!-- Protein(10)&#45;&gt;Enzyme(16) -->
<g id="edge24" class="edge">
<title>Protein(10)&#45;&gt;Enzyme(16)</title>
<path fill="none" stroke="black" d="M192.87,-398.11C193.69,-439.76 201.84,-543.31 260.35,-597.11 295.26,-629.21 322.64,-597.92 364.55,-620.11 374.28,-625.26 374.35,-629.77 382.55,-637.11 401.28,-653.87 423.2,-672.34 438.8,-685.3"/>
<text text-anchor="middle" x="312.45" y="-622.91" font-family="Times,serif" font-size="14.00">is_a</text>
</g>
<!-- Protein(10)&#45;&gt;Protein(10) -->
<g id="edge20" class="edge">
<title>Protein(10)&#45;&gt;Protein(10)</title>
<path fill="none" stroke="black" d="M184.91,-398.26C183.83,-407.65 186.18,-416.11 191.97,-416.11 197.76,-416.11 200.11,-407.65 199.02,-398.26"/>
<text text-anchor="middle" x="191.97" y="-446.91" font-family="Times,serif" font-size="14.00">h_s_s(&lt;=4)</text>
<text text-anchor="middle" x="191.97" y="-432.91" font-family="Times,serif" font-size="14.00">ortho(&lt;=4)</text>
<text text-anchor="middle" x="191.97" y="-418.91" font-family="Times,serif" font-size="14.00">xref(&lt;=6)</text>
</g>
<!-- Protein(10)&#45;&gt;Protein(10) -->
<g id="edge29" class="edge">
<title>Protein(10)&#45;&gt;Protein(10)</title>
<path fill="none" stroke="blue" d="M181.59,-398C173.5,-422.58 176.96,-458.11 191.97,-458.11 205.04,-458.11 209.35,-431.15 204.9,-407.95"/>
<polygon fill="blue" stroke="blue" points="208.22,-406.82 202.34,-398 201.44,-408.56 208.22,-406.82"/>
<text text-anchor="middle" x="191.97" y="-474.91" font-family="Times,serif" font-size="14.00">genetic(&lt;=6)</text>
<text text-anchor="middle" x="191.97" y="-460.91" font-family="Times,serif" font-size="14.00">physical(&lt;=6)</text>
</g>
<!-- EC(12) -->
<g id="node19" class="node">
<title>EC(12)</title>
<ellipse fill="none" stroke="black" cx="460.24" cy="-484.11" rx="36.28" ry="18"/>
<text text-anchor="middle" x="460.24" y="-479.91" font-family="Times,serif" font-size="14.00">EC(12)</text>
</g>
<!-- Protein(10)&#45;&gt;EC(12) -->
<g id="edge15" class="edge">
<title>Protein(10)&#45;&gt;EC(12)</title>
<path fill="none" stroke="blue" d="M211.12,-396.97C224,-408.1 242.16,-422.23 260.35,-431.11 314.78,-457.68 384.32,-472.3 425.1,-479.15"/>
<text text-anchor="middle" x="312.45" y="-467.91" font-family="Times,serif" font-size="14.00">cat_c</text>
</g>
</g>
</svg>
