<svg width="934px" height="407px"
 viewBox="0.00 0.00 700.59 305.00" xmlns="http://www.w3.org/2000/svg" xmlns:xlink="http://www.w3.org/1999/xlink">
<g id="graph0" class="graph" transform=" rotate(0) translate(4 301)">
<polygon fill="white" stroke="transparent" points="-4,4 -4,-301 696.59,-301 696.59,4 -4,4"/>
<!-- BioProc(8) -->
<g id="node1" class="node">
<title>BioProc(8)</title>
<polygon fill="none" stroke="darkgreen" points="676.78,-200.54 676.78,-215.46 644.96,-226 599.96,-226 568.13,-215.46 568.13,-200.54 599.96,-190 644.96,-190 676.78,-200.54"/>
<polygon fill="none" stroke="darkgreen" points="680.8,-197.66 680.8,-218.34 645.61,-230 599.31,-230 564.12,-218.34 564.12,-197.66 599.31,-186 645.61,-186 680.8,-197.66"/>
<text text-anchor="middle" x="622.46" y="-204.3" font-family="Times,serif" font-size="14.00">BioProc(8)</text>
</g>
<!-- Gene(1) -->
<g id="node2" class="node">
<title>Gene(1)</title>
<ellipse fill="none" stroke="red" cx="43.65" cy="-196" rx="39.78" ry="39.78"/>
<ellipse fill="none" stroke="red" cx="43.65" cy="-196" rx="43.79" ry="43.79"/>
<text text-anchor="middle" x="43.65" y="-192.3" font-family="Times,serif" font-size="14.00">Gene(1)</text>
</g>
<!-- Publication(6) -->
<g id="node6" class="node">
<title>Publication(6)</title>
<polygon fill="none" stroke="darkgreen" points="688.71,-265.54 688.71,-280.46 649.9,-291 595.02,-291 556.21,-280.46 556.21,-265.54 595.02,-255 649.9,-255 688.71,-265.54"/>
<polygon fill="none" stroke="darkgreen" points="692.71,-262.49 692.71,-283.51 650.43,-295 594.48,-295 552.2,-283.51 552.2,-262.49 594.48,-251 650.43,-251 692.71,-262.49"/>
<text text-anchor="middle" x="622.46" y="-269.3" font-family="Times,serif" font-size="14.00">Publication(6)</text>
</g>
<!-- Gene(1)&#45;&gt;Publication(6) -->
<g id="edge4" class="edge">
<title>Gene(1)&#45;&gt;Publication(6)</title>
<path fill="none" stroke="blue" d="M79.71,-220.65C99.93,-233.44 126.41,-247.84 152.29,-255 289.97,-293.08 459.02,-287.46 551.96,-280.12"/>
<text text-anchor="middle" x="307.04" y="-285.8" font-family="Times,serif" font-size="14.00">pub_in</text>
</g>
<!-- Protein(11) -->
<g id="node7" class="node">
<title>Protein(11)</title>
<polygon fill="none" stroke="darkgreen" points="265.92,-216.54 265.92,-231.46 233.85,-242 188.49,-242 156.41,-231.46 156.41,-216.54 188.49,-206 233.85,-206 265.92,-216.54"/>
<polygon fill="none" stroke="darkgreen" points="269.91,-213.65 269.91,-234.35 234.48,-246 187.85,-246 152.42,-234.35 152.42,-213.65 187.85,-202 234.48,-202 269.91,-213.65"/>
<text text-anchor="middle" x="211.17" y="-220.3" font-family="Times,serif" font-size="14.00">Protein(11)</text>
</g>
<!-- Gene(1)&#45;&gt;Protein(11) -->
<g id="edge2" class="edge">
<title>Gene(1)&#45;&gt;Protein(11)</title>
<path fill="none" stroke="blue" d="M86.84,-203.14C106.67,-206.49 130.62,-210.54 152.12,-214.18"/>
<text text-anchor="middle" x="119.79" y="-213.8" font-family="Times,serif" font-size="14.00">enc</text>
</g>
<!-- Protein(3) -->
<g id="node8" class="node">
<title>Protein(3)</title>
<ellipse fill="none" stroke="black" cx="390.18" cy="-146" rx="46.29" ry="18"/>
<text text-anchor="middle" x="390.18" y="-142.3" font-family="Times,serif" font-size="14.00">Protein(3)</text>
</g>
<!-- Gene(1)&#45;&gt;Protein(3) -->
<g id="edge1" class="edge">
<title>Gene(1)&#45;&gt;Protein(3)</title>
<path fill="none" stroke="black" d="M86.77,-188.64C106.63,-185.25 130.65,-181.27 152.29,-178 219.79,-167.8 298.36,-157.5 345.9,-151.43"/>
<text text-anchor="middle" x="211.17" y="-181.8" font-family="Times,serif" font-size="14.00">enc</text>
</g>
<!-- Gene(2) -->
<g id="node9" class="node">
<title>Gene(2)</title>
<ellipse fill="none" stroke="black" cx="211.17" cy="-115" rx="39.79" ry="18"/>
<text text-anchor="middle" x="211.17" y="-111.3" font-family="Times,serif" font-size="14.00">Gene(2)</text>
</g>
<!-- Gene(1)&#45;&gt;Gene(2) -->
<g id="edge3" class="edge">
<title>Gene(1)&#45;&gt;Gene(2)</title>
<path fill="none" stroke="black" d="M73.41,-163.84C82.8,-154.98 93.79,-146.14 105.29,-140 126.1,-128.91 151.83,-122.68 172.6,-119.21"/>
<text text-anchor="middle" x="119.79" y="-143.8" font-family="Times,serif" font-size="14.00">ortho</text>
</g>
<!-- EC(10) -->
<g id="node3" class="node">
<title>EC(10)</title>
<polygon fill="none" stroke="darkgreen" points="661.76,-138.54 661.76,-153.46 638.74,-164 606.18,-164 583.16,-153.46 583.16,-138.54 606.18,-128 638.74,-128 661.76,-138.54"/>
<polygon fill="none" stroke="darkgreen" points="665.75,-135.97 665.75,-156.03 639.61,-168 605.31,-168 579.17,-156.03 579.17,-135.97 605.31,-124 639.61,-124 665.75,-135.97"/>
<text text-anchor="middle" x="622.46" y="-142.3" font-family="Times,serif" font-size="14.00">EC(10)</text>
</g>
<!-- MolFunc(7) -->
<g id="node4" class="node">
<title>MolFunc(7)</title>
<polygon fill="none" stroke="darkgreen" points="680.74,-76.54 680.74,-91.46 646.6,-102 598.31,-102 564.17,-91.46 564.17,-76.54 598.31,-66 646.6,-66 680.74,-76.54"/>
<polygon fill="none" stroke="darkgreen" points="684.74,-73.59 684.74,-94.41 647.2,-106 597.71,-106 560.18,-94.41 560.18,-73.59 597.71,-62 647.2,-62 684.74,-73.59"/>
<text text-anchor="middle" x="622.46" y="-80.3" font-family="Times,serif" font-size="14.00">MolFunc(7)</text>
</g>
<!-- CelComp(9) -->
<g id="node5" class="node">
<title>CelComp(9)</title>
<polygon fill="none" stroke="darkgreen" points="682.06,-14.54 682.06,-29.46 647.15,-40 597.77,-40 562.85,-29.46 562.85,-14.54 597.77,-4 647.15,-4 682.06,-14.54"/>
<polygon fill="none" stroke="darkgreen" points="686.05,-11.57 686.05,-32.43 647.74,-44 597.18,-44 558.86,-32.43 558.86,-11.57 597.18,0 647.74,0 686.05,-11.57"/>
<text text-anchor="middle" x="622.46" y="-18.3" font-family="Times,serif" font-size="14.00">CelComp(9)</text>
</g>
<!-- Protein(3)&#45;&gt;BioProc(8) -->
<g id="edge9" class="edge">
<title>Protein(3)&#45;&gt;BioProc(8)</title>
<path fill="none" stroke="black" d="M426.84,-157C435.8,-159.69 445.4,-162.51 454.33,-165 493.14,-175.83 537.31,-187.15 570.48,-195.45"/>
<text text-anchor="middle" x="494.33" y="-188.8" font-family="Times,serif" font-size="14.00">participates_in</text>
</g>
<!-- Protein(3)&#45;&gt;EC(10) -->
<g id="edge5" class="edge">
<title>Protein(3)&#45;&gt;EC(10)</title>
<path fill="none" stroke="black" d="M436.4,-146C477.79,-146 538.58,-146 579.06,-146"/>
<text text-anchor="middle" x="494.33" y="-149.8" font-family="Times,serif" font-size="14.00">cat_c</text>
</g>
<!-- Protein(3)&#45;&gt;MolFunc(7) -->
<g id="edge6" class="edge">
<title>Protein(3)&#45;&gt;MolFunc(7)</title>
<path fill="none" stroke="blue" d="M426.84,-135C435.8,-132.31 445.4,-129.49 454.33,-127 492.28,-116.41 535.34,-105.36 568.25,-97.11"/>
<text text-anchor="middle" x="494.33" y="-130.8" font-family="Times,serif" font-size="14.00">has_function</text>
</g>
<!-- Protein(3)&#45;&gt;CelComp(9) -->
<g id="edge8" class="edge">
<title>Protein(3)&#45;&gt;CelComp(9)</title>
<path fill="none" stroke="blue" d="M406.44,-128.94C418.45,-116.31 436.16,-99.38 454.33,-88 491.08,-64.98 537.19,-47.5 571.67,-36.33"/>
<text text-anchor="middle" x="494.33" y="-91.8" font-family="Times,serif" font-size="14.00">located_in</text>
</g>
<!-- Protein(3)&#45;&gt;Publication(6) -->
<g id="edge10" class="edge">
<title>Protein(3)&#45;&gt;Publication(6)</title>
<path fill="none" stroke="blue" d="M406.49,-162.98C418.53,-175.57 436.25,-192.48 454.33,-204 490.86,-227.28 536.58,-245.51 570.95,-257.37"/>
<text text-anchor="middle" x="494.33" y="-246.8" font-family="Times,serif" font-size="14.00">pub_in</text>
</g>
<!-- Protein(3)&#45;&gt;Protein(3) -->
<g id="edge7" class="edge">
<title>Protein(3)&#45;&gt;Protein(3)</title>
<path fill="none" stroke="black" d="M375.54,-163.41C372.81,-173.09 377.69,-182 390.18,-182 402.68,-182 407.56,-173.09 404.82,-163.41"/>
<text text-anchor="middle" x="390.18" y="-185.8" font-family="Times,serif" font-size="14.00">it_wi(&lt;=7)</text>
</g>
<!-- Gene(2)&#45;&gt;Protein(3) -->
<g id="edge11" class="edge">
<title>Gene(2)&#45;&gt;Protein(3)</title>
<path fill="none" stroke="black" d="M248.41,-121.35C277.24,-126.4 317.59,-133.46 347.71,-138.74"/>
<text text-anchor="middle" x="307.04" y="-137.8" font-family="Times,serif" font-size="14.00">enc</text>
</g>
</g>
</svg>
