<svg width="1331px" height="1151px"
 viewBox="0.00 0.00 998.53 863.16" xmlns="http://www.w3.org/2000/svg" xmlns:xlink="http://www.w3.org/1999/xlink">
<g id="graph0" class="graph" transform=" rotate(0) translate(4 859.16)">
<polygon fill="white" stroke="transparent" points="-4,4 -4,-859.16 994.53,-859.16 994.53,4 -4,4"/>
<!-- Enzyme(17) -->
<g id="node1" class="node">
<title>Enzyme(17)</title>
<polygon fill="none" stroke="darkgreen" points="518.44,-530.7 518.44,-545.62 483.77,-556.16 434.74,-556.16 400.07,-545.62 400.07,-530.7 434.74,-520.16 483.77,-520.16 518.44,-530.7"/>
<polygon fill="none" stroke="darkgreen" points="522.44,-527.74 522.44,-548.58 484.36,-560.16 434.14,-560.16 396.07,-548.58 396.07,-527.74 434.14,-516.16 484.36,-516.16 522.44,-527.74"/>
<text text-anchor="middle" x="459.25" y="-534.46" font-family="Times,serif" font-size="14.00">Enzyme(17)</text>
</g>
<!-- Gene(8) -->
<g id="node2" class="node">
<title>Gene(8)</title>
<polygon fill="none" stroke="darkgreen" points="502.09,-468.7 502.09,-483.62 477,-494.16 441.51,-494.16 416.42,-483.62 416.42,-468.7 441.51,-458.16 477,-458.16 502.09,-468.7"/>
<polygon fill="none" stroke="darkgreen" points="506.08,-466.05 506.08,-486.28 477.8,-498.16 440.71,-498.16 412.43,-486.28 412.43,-466.05 440.71,-454.16 477.8,-454.16 506.08,-466.05"/>
<text text-anchor="middle" x="459.25" y="-472.46" font-family="Times,serif" font-size="14.00">Gene(8)</text>
</g>
<!-- ProtDomain(14) -->
<g id="node3" class="node">
<title>ProtDomain(14)</title>
<polygon fill="none" stroke="darkgreen" points="533.89,-406.7 533.89,-421.62 490.17,-432.16 428.34,-432.16 384.62,-421.62 384.62,-406.7 428.34,-396.16 490.17,-396.16 533.89,-406.7"/>
<polygon fill="none" stroke="darkgreen" points="537.89,-403.56 537.89,-424.77 490.65,-436.16 427.86,-436.16 380.61,-424.77 380.61,-403.56 427.86,-392.16 490.65,-392.16 537.89,-403.56"/>
<text text-anchor="middle" x="459.25" y="-410.46" font-family="Times,serif" font-size="14.00">ProtDomain(14)</text>
</g>
<!-- Gene(1) -->
<g id="node4" class="node">
<title>Gene(1)</title>
<ellipse fill="none" stroke="red" cx="43.65" cy="-193.16" rx="39.78" ry="39.78"/>
<ellipse fill="none" stroke="red" cx="43.65" cy="-193.16" rx="43.79" ry="43.79"/>
<text text-anchor="middle" x="43.65" y="-189.46" font-family="Times,serif" font-size="14.00">Gene(1)</text>
</g>
<!-- Phenotype(13) -->
<g id="node5" class="node">
<title>Phenotype(13)</title>
<polygon fill="none" stroke="darkgreen" points="813.93,-793.7 813.93,-808.62 774.35,-819.16 718.37,-819.16 678.79,-808.62 678.79,-793.7 718.37,-783.16 774.35,-783.16 813.93,-793.7"/>
<polygon fill="none" stroke="darkgreen" points="817.93,-790.63 817.93,-811.69 774.87,-823.16 717.85,-823.16 674.79,-811.69 674.79,-790.63 717.85,-779.16 774.87,-779.16 817.93,-790.63"/>
<text text-anchor="middle" x="746.36" y="-797.46" font-family="Times,serif" font-size="14.00">Phenotype(13)</text>
</g>
<!-- Gene(1)&#45;&gt;Phenotype(13) -->
<g id="edge1" class="edge">
<title>Gene(1)&#45;&gt;Phenotype(13)</title>
<path fill="none" stroke="black" d="M49.88,-236.58C64.57,-340.56 115.1,-606.85 261.68,-764.16 373.06,-883.69 593.4,-843.31 693.59,-816.73"/>
<text text-anchor="middle" x="312.18" y="-843.96" font-family="Times,serif" font-size="14.00">cooc_wi</text>
<text text-anchor="middle" x="312.18" y="-828.96" font-family="Times,serif" font-size="14.00">has_observ_pheno</text>
</g>
<!-- Protein(7) -->
<g id="node6" class="node">
<title>Protein(7)</title>
<polygon fill="none" stroke="darkgreen" points="509.15,-80.7 509.15,-95.62 479.92,-106.16 438.58,-106.16 409.35,-95.62 409.35,-80.7 438.58,-70.16 479.92,-70.16 509.15,-80.7"/>
<polygon fill="none" stroke="darkgreen" points="513.15,-77.89 513.15,-98.43 480.62,-110.16 437.89,-110.16 405.36,-98.43 405.36,-77.89 437.89,-66.16 480.62,-66.16 513.15,-77.89"/>
<text text-anchor="middle" x="459.25" y="-84.46" font-family="Times,serif" font-size="14.00">Protein(7)</text>
</g>
<!-- Gene(1)&#45;&gt;Protein(7) -->
<g id="edge2" class="edge">
<title>Gene(1)&#45;&gt;Protein(7)</title>
<path fill="none" stroke="blue" d="M78.76,-167.04C119.64,-137.54 191.44,-91.29 261.68,-73.16 311.39,-60.33 370.34,-67.69 410.63,-75.98"/>
<text text-anchor="middle" x="192.99" y="-127.96" font-family="Times,serif" font-size="14.00">enc</text>
</g>
<!-- Publication(2) -->
<g id="node10" class="node">
<title>Publication(2)</title>
<polygon fill="none" stroke="darkgreen" points="812.61,-119.7 812.61,-134.62 773.8,-145.16 718.92,-145.16 680.11,-134.62 680.11,-119.7 718.92,-109.16 773.8,-109.16 812.61,-119.7"/>
<polygon fill="none" stroke="darkgreen" points="816.62,-116.65 816.62,-137.67 774.34,-149.16 718.38,-149.16 676.1,-137.67 676.1,-116.65 718.38,-105.16 774.34,-105.16 816.62,-116.65"/>
<text text-anchor="middle" x="746.36" y="-123.46" font-family="Times,serif" font-size="14.00">Publication(2)</text>
</g>
<!-- Gene(1)&#45;&gt;Publication(2) -->
<g id="edge4" class="edge">
<title>Gene(1)&#45;&gt;Publication(2)</title>
<path fill="none" stroke="blue" d="M67.55,-156.49C85.21,-130.87 111.73,-97.55 142.29,-76.16 232.09,-13.34 271.47,-22.27 380.68,-13.16 503.53,-2.91 548.57,19.8 656.82,-39.16 686.7,-55.44 713.23,-84.85 729.28,-105.16"/>
<text text-anchor="middle" x="312.18" y="-41.96" font-family="Times,serif" font-size="14.00">occ_in</text>
<text text-anchor="middle" x="312.18" y="-26.96" font-family="Times,serif" font-size="14.00">pub_in</text>
</g>
<!-- Protein(10) -->
<g id="node14" class="node">
<title>Protein(10)</title>
<ellipse fill="none" stroke="black" cx="192.99" cy="-356.16" rx="50.89" ry="18"/>
<text text-anchor="middle" x="192.99" y="-352.46" font-family="Times,serif" font-size="14.00">Protein(10)</text>
</g>
<!-- Gene(1)&#45;&gt;Protein(10) -->
<g id="edge3" class="edge">
<title>Gene(1)&#45;&gt;Protein(10)</title>
<path fill="none" stroke="black" d="M73.76,-225.36C104.62,-259.51 152.2,-312.14 176.52,-339.04"/>
<text text-anchor="middle" x="114.79" y="-283.96" font-family="Times,serif" font-size="14.00">enc</text>
</g>
<!-- EC(15) -->
<g id="node7" class="node">
<title>EC(15)</title>
<polygon fill="none" stroke="darkgreen" points="498.56,-592.7 498.56,-607.62 475.53,-618.16 442.98,-618.16 419.95,-607.62 419.95,-592.7 442.98,-582.16 475.53,-582.16 498.56,-592.7"/>
<polygon fill="none" stroke="darkgreen" points="502.55,-590.13 502.55,-610.19 476.4,-622.16 442.11,-622.16 415.96,-610.19 415.96,-590.13 442.11,-578.16 476.4,-578.16 502.55,-590.13"/>
<text text-anchor="middle" x="459.25" y="-596.46" font-family="Times,serif" font-size="14.00">EC(15)</text>
</g>
<!-- MolFunc(3) -->
<g id="node8" class="node">
<title>MolFunc(3)</title>
<polygon fill="none" stroke="darkgreen" points="804.65,-195.7 804.65,-210.62 770.5,-221.16 722.22,-221.16 688.07,-210.62 688.07,-195.7 722.22,-185.16 770.5,-185.16 804.65,-195.7"/>
<polygon fill="none" stroke="darkgreen" points="808.64,-192.75 808.64,-213.57 771.1,-225.16 721.61,-225.16 684.08,-213.57 684.08,-192.75 721.61,-181.16 771.1,-181.16 808.64,-192.75"/>
<text text-anchor="middle" x="746.36" y="-199.46" font-family="Times,serif" font-size="14.00">MolFunc(3)</text>
</g>
<!-- CelComp(5) -->
<g id="node9" class="node">
<title>CelComp(5)</title>
<polygon fill="none" stroke="darkgreen" points="805.97,-284.7 805.97,-299.62 771.05,-310.16 721.67,-310.16 686.75,-299.62 686.75,-284.7 721.67,-274.16 771.05,-274.16 805.97,-284.7"/>
<polygon fill="none" stroke="darkgreen" points="809.95,-281.73 809.95,-302.59 771.64,-314.16 721.08,-314.16 682.77,-302.59 682.77,-281.73 721.08,-270.16 771.64,-270.16 809.95,-281.73"/>
<text text-anchor="middle" x="746.36" y="-288.46" font-family="Times,serif" font-size="14.00">CelComp(5)</text>
</g>
<!-- BioProc(4) -->
<g id="node11" class="node">
<title>BioProc(4)</title>
<polygon fill="none" stroke="darkgreen" points="800.69,-596.7 800.69,-611.62 768.86,-622.16 723.86,-622.16 692.03,-611.62 692.03,-596.7 723.86,-586.16 768.86,-586.16 800.69,-596.7"/>
<polygon fill="none" stroke="darkgreen" points="804.7,-593.82 804.7,-614.5 769.51,-626.16 723.21,-626.16 688.02,-614.5 688.02,-593.82 723.21,-582.16 769.51,-582.16 804.7,-593.82"/>
<text text-anchor="middle" x="746.36" y="-600.46" font-family="Times,serif" font-size="14.00">BioProc(4)</text>
</g>
<!-- Path(20) -->
<g id="node12" class="node">
<title>Path(20)</title>
<polygon fill="none" stroke="darkgreen" points="986.37,-735.7 986.37,-750.62 960.5,-761.16 923.93,-761.16 898.06,-750.62 898.06,-735.7 923.93,-725.16 960.5,-725.16 986.37,-735.7"/>
<polygon fill="none" stroke="darkgreen" points="990.36,-733.01 990.36,-753.31 961.28,-765.16 923.15,-765.16 894.07,-753.31 894.07,-733.01 923.15,-721.16 961.28,-721.16 990.36,-733.01"/>
<text text-anchor="middle" x="942.21" y="-739.46" font-family="Times,serif" font-size="14.00">Path(20)</text>
</g>
<!-- Reaction(19) -->
<g id="node13" class="node">
<title>Reaction(19)</title>
<polygon fill="none" stroke="darkgreen" points="807.76,-658.7 807.76,-673.62 771.79,-684.16 720.93,-684.16 684.96,-673.62 684.96,-658.7 720.93,-648.16 771.79,-648.16 807.76,-658.7"/>
<polygon fill="none" stroke="darkgreen" points="811.77,-655.71 811.77,-676.61 772.37,-688.16 720.35,-688.16 680.95,-676.61 680.95,-655.71 720.35,-644.16 772.37,-644.16 811.77,-655.71"/>
<text text-anchor="middle" x="746.36" y="-662.46" font-family="Times,serif" font-size="14.00">Reaction(19)</text>
</g>
<!-- Protein(10)&#45;&gt;Enzyme(17) -->
<g id="edge14" class="edge">
<title>Protein(10)&#45;&gt;Enzyme(17)</title>
<path fill="none" stroke="blue" d="M199.83,-374.35C208.98,-400.01 229.09,-446.66 261.68,-473.16 300.17,-504.46 354.28,-520.9 395.99,-529.41"/>
<text text-anchor="middle" x="312.18" y="-523.96" font-family="Times,serif" font-size="14.00">is_a</text>
</g>
<!-- Protein(10)&#45;&gt;Gene(8) -->
<g id="edge8" class="edge">
<title>Protein(10)&#45;&gt;Gene(8)</title>
<path fill="none" stroke="blue" d="M209.73,-373.34C222.58,-386.44 241.81,-404.07 261.68,-415.16 309.74,-441.97 371.11,-458.6 412.39,-467.59"/>
<text text-anchor="middle" x="312.18" y="-457.96" font-family="Times,serif" font-size="14.00">enc</text>
</g>
<!-- Protein(10)&#45;&gt;ProtDomain(14) -->
<g id="edge12" class="edge">
<title>Protein(10)&#45;&gt;ProtDomain(14)</title>
<path fill="none" stroke="blue" d="M232.52,-367.53C242.01,-370.18 252.19,-372.89 261.68,-375.16 303.47,-385.15 350.69,-394.58 388.37,-401.66"/>
<text text-anchor="middle" x="312.18" y="-399.96" font-family="Times,serif" font-size="14.00">has_domain</text>
</g>
<!-- Protein(10)&#45;&gt;Phenotype(13) -->
<g id="edge7" class="edge">
<title>Protein(10)&#45;&gt;Phenotype(13)</title>
<path fill="none" stroke="black" d="M194.57,-374.19C197.13,-441.94 209.75,-679.93 261.68,-730.16 319.26,-785.85 554.87,-798.01 674.68,-800.56"/>
<text text-anchor="middle" x="459.25" y="-811.96" font-family="Times,serif" font-size="14.00">cooc_wi</text>
<text text-anchor="middle" x="459.25" y="-796.96" font-family="Times,serif" font-size="14.00">has_observ_pheno</text>
</g>
<!-- Protein(10)&#45;&gt;Protein(7) -->
<g id="edge10" class="edge">
<title>Protein(10)&#45;&gt;Protein(7)</title>
<path fill="none" stroke="blue" d="M195.76,-337.98C201.53,-283 221.76,-120.39 261.68,-89.16 283.19,-72.34 354.6,-76.15 405.13,-81.38"/>
<text text-anchor="middle" x="312.18" y="-122.96" font-family="Times,serif" font-size="14.00">h_s_s(&lt;=4)</text>
<text text-anchor="middle" x="312.18" y="-107.96" font-family="Times,serif" font-size="14.00">ortho(&lt;=4)</text>
<text text-anchor="middle" x="312.18" y="-92.96" font-family="Times,serif" font-size="14.00">xref(&lt;=6)</text>
</g>
<!-- Protein(10)&#45;&gt;Protein(7) -->
<g id="edge20" class="edge">
<title>Protein(10)&#45;&gt;Protein(7)</title>
<path fill="none" stroke="blue" d="M194.56,-337.89C196.81,-298.59 207.87,-205.65 261.68,-157.16 295.89,-126.34 321.42,-154.57 362.68,-134.16 372.02,-129.54 371.74,-124.49 380.68,-119.16 388.64,-114.42 397.46,-110.11 406.21,-106.32"/>
<polygon fill="blue" stroke="blue" points="407.75,-109.47 415.64,-102.41 405.06,-103.01 407.75,-109.47"/>
<text text-anchor="middle" x="312.18" y="-175.96" font-family="Times,serif" font-size="14.00">genetic(&lt;=6)</text>
<text text-anchor="middle" x="312.18" y="-160.96" font-family="Times,serif" font-size="14.00">physical(&lt;=6)</text>
</g>
<!-- Protein(10)&#45;&gt;EC(15) -->
<g id="edge5" class="edge">
<title>Protein(10)&#45;&gt;EC(15)</title>
<path fill="none" stroke="black" d="M195.49,-374.36C199.49,-410.9 213.62,-493.6 261.68,-539.16 303.82,-579.11 371.67,-592.92 415.61,-597.68"/>
<text text-anchor="middle" x="312.18" y="-590.96" font-family="Times,serif" font-size="14.00">cat_c</text>
</g>
<!-- Protein(10)&#45;&gt;MolFunc(3) -->
<g id="edge13" class="edge">
<title>Protein(10)&#45;&gt;MolFunc(3)</title>
<path fill="none" stroke="black" d="M201.94,-338.12C212.44,-316.45 233.01,-280.58 261.68,-261.16 391.05,-173.54 585.6,-182.18 683.88,-193.78"/>
<text text-anchor="middle" x="459.25" y="-212.96" font-family="Times,serif" font-size="14.00">has_function</text>
</g>
<!-- Protein(10)&#45;&gt;CelComp(5) -->
<g id="edge16" class="edge">
<title>Protein(10)&#45;&gt;CelComp(5)</title>
<path fill="none" stroke="blue" d="M215.79,-340.05C249.21,-316.55 316.03,-274.14 380.68,-260.16 490.79,-236.35 623.25,-260.85 694.32,-278.18"/>
<text text-anchor="middle" x="459.25" y="-263.96" font-family="Times,serif" font-size="14.00">located_in</text>
</g>
<!-- Protein(10)&#45;&gt;Publication(2) -->
<g id="edge18" class="edge">
<title>Protein(10)&#45;&gt;Publication(2)</title>
<path fill="none" stroke="blue" d="M198.16,-338.2C212.53,-276.32 259.29,-75.6 261.68,-73.16 383.22,50.84 621.31,-59.03 710.51,-107.21"/>
<text text-anchor="middle" x="459.25" y="-37.96" font-family="Times,serif" font-size="14.00">pub_in</text>
</g>
<!-- Protein(10)&#45;&gt;BioProc(4) -->
<g id="edge17" class="edge">
<title>Protein(10)&#45;&gt;BioProc(4)</title>
<path fill="none" stroke="black" d="M196.43,-374.34C203.79,-426.28 227.35,-573.75 261.68,-606.16 321.52,-662.66 573.25,-631.47 687.97,-613.75"/>
<text text-anchor="middle" x="459.25" y="-641.96" font-family="Times,serif" font-size="14.00">participates_in</text>
</g>
<!-- Protein(10)&#45;&gt;Protein(10) -->
<g id="edge11" class="edge">
<title>Protein(10)&#45;&gt;Protein(10)</title>
<path fill="none" stroke="black" d="M185.93,-374.31C184.85,-383.7 187.2,-392.16 192.99,-392.16 198.78,-392.16 201.13,-383.7 200.04,-374.31"/>
<text text-anchor="middle" x="192.99" y="-425.96" font-family="Times,serif" font-size="14.00">h_s_s(&lt;=4)</text>
<text text-anchor="middle" x="192.99" y="-410.96" font-family="Times,serif" font-size="14.00">ortho(&lt;=4)</text>
<text text-anchor="middle" x="192.99" y="-395.96" font-family="Times,serif" font-size="14.00">xref(&lt;=6)</text>
</g>
<!-- Protein(10)&#45;&gt;Protein(10) -->
<g id="edge19" class="edge">
<title>Protein(10)&#45;&gt;Protein(10)</title>
<path fill="none" stroke="black" d="M182.74,-374.07C174.49,-399.47 177.91,-437.16 192.99,-437.16 206.19,-437.16 210.45,-408.31 205.79,-384.07"/>
<polygon fill="black" stroke="black" points="209.1,-382.9 203.24,-374.07 202.31,-384.62 209.1,-382.9"/>
<text text-anchor="middle" x="192.99" y="-455.96" font-family="Times,serif" font-size="14.00">genetic(&lt;=6)</text>
<text text-anchor="middle" x="192.99" y="-440.96" font-family="Times,serif" font-size="14.00">physical(&lt;=6)</text>
</g>
<!-- EC(12) -->
<g id="node15" class="node">
<title>EC(12)</title>
<ellipse fill="none" stroke="black" cx="459.25" cy="-356.16" rx="36.29" ry="18"/>
<text text-anchor="middle" x="459.25" y="-352.46" font-family="Times,serif" font-size="14.00">EC(12)</text>
</g>
<!-- Protein(10)&#45;&gt;EC(12) -->
<g id="edge6" class="edge">
<title>Protein(10)&#45;&gt;EC(12)</title>
<path fill="none" stroke="blue" d="M243.69,-356.16C295.88,-356.16 376.61,-356.16 422.73,-356.16"/>
<text text-anchor="middle" x="312.18" y="-359.96" font-family="Times,serif" font-size="14.00">cat_c</text>
</g>
<!-- Gene(9) -->
<g id="node16" class="node">
<title>Gene(9)</title>
<ellipse fill="none" stroke="black" cx="459.25" cy="-302.16" rx="39.79" ry="18"/>
<text text-anchor="middle" x="459.25" y="-298.46" font-family="Times,serif" font-size="14.00">Gene(9)</text>
</g>
<!-- Protein(10)&#45;&gt;Gene(9) -->
<g id="edge9" class="edge">
<title>Protein(10)&#45;&gt;Gene(9)</title>
<path fill="none" stroke="black" d="M232.48,-344.66C241.98,-342.01 252.16,-339.34 261.68,-337.16 316.93,-324.52 381.79,-313.75 421.45,-307.62"/>
<text text-anchor="middle" x="312.18" y="-340.96" font-family="Times,serif" font-size="14.00">enc</text>
</g>
<!-- Enzyme(16) -->
<g id="node17" class="node">
<title>Enzyme(16)</title>
<ellipse fill="none" stroke="black" cx="459.25" cy="-709.16" rx="54.69" ry="18"/>
<text text-anchor="middle" x="459.25" y="-705.46" font-family="Times,serif" font-size="14.00">Enzyme(16)</text>
</g>
<!-- Protein(10)&#45;&gt;Enzyme(16) -->
<g id="edge15" class="edge">
<title>Protein(10)&#45;&gt;Enzyme(16)</title>
<path fill="none" stroke="black" d="M195.29,-374.22C200.02,-434.88 218.41,-629.95 261.68,-672.16 299.6,-709.14 362.09,-715.19 406.43,-714.04"/>
<text text-anchor="middle" x="312.18" y="-714.96" font-family="Times,serif" font-size="14.00">is_a</text>
</g>
<!-- Gene(9)&#45;&gt;Phenotype(13) -->
<g id="edge21" class="edge">
<title>Gene(9)&#45;&gt;Phenotype(13)</title>
<path fill="none" stroke="black" d="M497.98,-306.24C512.77,-309.86 528.41,-316.61 537.82,-329.16 561.38,-360.58 529.99,-652.58 555.82,-682.16 585.87,-716.56 623.43,-670 656.82,-701.16 680,-722.78 654.26,-746.04 674.82,-770.16 680.12,-776.37 686.89,-781.38 694.14,-785.41"/>
<text text-anchor="middle" x="606.32" y="-719.96" font-family="Times,serif" font-size="14.00">cooc_wi</text>
<text text-anchor="middle" x="606.32" y="-704.96" font-family="Times,serif" font-size="14.00">has_observ_pheno</text>
</g>
<!-- Gene(9)&#45;&gt;MolFunc(3) -->
<g id="edge22" class="edge">
<title>Gene(9)&#45;&gt;MolFunc(3)</title>
<path fill="none" stroke="blue" d="M496.19,-295.25C536.21,-286.96 602.43,-271.47 656.82,-250.16 676.11,-242.61 696.59,-231.92 713,-222.65"/>
<text text-anchor="middle" x="606.32" y="-285.96" font-family="Times,serif" font-size="14.00">has_function</text>
</g>
<!-- Gene(9)&#45;&gt;CelComp(5) -->
<g id="edge23" class="edge">
<title>Gene(9)&#45;&gt;CelComp(5)</title>
<path fill="none" stroke="black" d="M497.67,-306.81C537.28,-311 601.6,-315.72 656.82,-310.16 667.9,-309.05 679.65,-307.16 690.84,-305.03"/>
<text text-anchor="middle" x="606.32" y="-316.96" font-family="Times,serif" font-size="14.00">located_in</text>
</g>
<!-- Gene(9)&#45;&gt;Publication(2) -->
<g id="edge24" class="edge">
<title>Gene(9)&#45;&gt;Publication(2)</title>
<path fill="none" stroke="blue" d="M495.31,-294.63C510.17,-289.84 526.6,-282.2 537.82,-270.16 555.08,-251.66 539.01,-235.07 555.82,-216.16 575.87,-193.61 649.62,-162.88 698.99,-144.07"/>
<text text-anchor="middle" x="606.32" y="-234.96" font-family="Times,serif" font-size="14.00">occ_in</text>
<text text-anchor="middle" x="606.32" y="-219.96" font-family="Times,serif" font-size="14.00">pub_in</text>
</g>
<!-- Gene(9)&#45;&gt;BioProc(4) -->
<g id="edge25" class="edge">
<title>Gene(9)&#45;&gt;BioProc(4)</title>
<path fill="none" stroke="black" d="M495.57,-309.71C509.63,-313.87 525.38,-320.09 537.82,-329.16 635.48,-400.31 708.24,-530.4 734.59,-582.11"/>
<text text-anchor="middle" x="606.32" y="-453.96" font-family="Times,serif" font-size="14.00">participates_in</text>
</g>
<!-- Enzyme(16)&#45;&gt;Reaction(19) -->
<g id="edge27" class="edge">
<title>Enzyme(16)&#45;&gt;Reaction(19)</title>
<path fill="none" stroke="blue" d="M495.77,-695.51C509.11,-690.13 524.31,-683.68 537.82,-677.16 546.07,-673.19 546.97,-669.48 555.82,-667.16 596.57,-656.49 643.95,-656.24 681.15,-658.66"/>
<text text-anchor="middle" x="606.32" y="-670.96" font-family="Times,serif" font-size="14.00">ca_by</text>
</g>
<!-- Reaction(18) -->
<g id="node18" class="node">
<title>Reaction(18)</title>
<ellipse fill="none" stroke="black" cx="746.36" cy="-743.16" rx="56.59" ry="18"/>
<text text-anchor="middle" x="746.36" y="-739.46" font-family="Times,serif" font-size="14.00">Reaction(18)</text>
</g>
<!-- Enzyme(16)&#45;&gt;Reaction(18) -->
<g id="edge26" class="edge">
<title>Enzyme(16)&#45;&gt;Reaction(18)</title>
<path fill="none" stroke="black" d="M498.89,-721.78C516.12,-726.86 536.79,-732.21 555.82,-735.16 600.41,-742.08 651.56,-743.88 689.47,-744.07"/>
<text text-anchor="middle" x="606.32" y="-746.96" font-family="Times,serif" font-size="14.00">ca_by</text>
</g>
<!-- Reaction(18)&#45;&gt;Path(20) -->
<g id="edge28" class="edge">
<title>Reaction(18)&#45;&gt;Path(20)</title>
<path fill="none" stroke="black" d="M802.91,-743.16C831.66,-743.16 866.4,-743.16 893.87,-743.16"/>
<text text-anchor="middle" x="855.89" y="-746.96" font-family="Times,serif" font-size="14.00">part_of</text>
</g>
<!-- Phenotype(21) -->
<g id="node19" class="node">
<title>Phenotype(21)</title>
<ellipse fill="none" stroke="black" cx="459.25" cy="-146.16" rx="62.29" ry="18"/>
<text text-anchor="middle" x="459.25" y="-142.46" font-family="Times,serif" font-size="14.00">Phenotype(21)</text>
</g>
<!-- Phenotype(21)&#45;&gt;Publication(2) -->
<g id="edge29" class="edge">
<title>Phenotype(21)&#45;&gt;Publication(2)</title>
<path fill="none" stroke="blue" d="M520.37,-142.15C565.87,-139.12 628.44,-134.95 676.05,-131.78"/>
<text text-anchor="middle" x="606.32" y="-143.96" font-family="Times,serif" font-size="14.00">occ_in</text>
</g>
</g>
</svg>
