<svg width="2017px" height="1668px"
 viewBox="0.00 0.00 1512.71 1251.00" xmlns="http://www.w3.org/2000/svg" xmlns:xlink="http://www.w3.org/1999/xlink">
<g id="graph0" class="graph" transform=" rotate(0) translate(4 1247)">
<polygon fill="white" stroke="transparent" points="-4,4 -4,-1247 1508.71,-1247 1508.71,4 -4,4"/>
<!-- PlantOntologyTerm(24) -->
<g id="node1" class="node">
<title>PlantOntologyTerm(24)</title>
<polygon fill="none" stroke="darkgreen" points="691.82,-14.54 691.82,-29.46 631.29,-40 545.69,-40 485.16,-29.46 485.16,-14.54 545.69,-4 631.29,-4 691.82,-14.54"/>
<polygon fill="none" stroke="darkgreen" points="695.82,-11.18 695.82,-32.82 631.64,-44 545.35,-44 481.17,-32.82 481.17,-11.18 545.35,0 631.64,0 695.82,-11.18"/>
<text text-anchor="middle" x="588.49" y="-18.3" font-family="Times,serif" font-size="14.00">PlantOntologyTerm(24)</text>
</g>
<!-- Trait(21) -->
<g id="node2" class="node">
<title>Trait(21)</title>
<polygon fill="none" stroke="darkgreen" points="1480.52,-233.54 1480.52,-248.46 1453.61,-259 1415.56,-259 1388.65,-248.46 1388.65,-233.54 1415.56,-223 1453.61,-223 1480.52,-233.54"/>
<polygon fill="none" stroke="darkgreen" points="1484.54,-230.82 1484.54,-251.18 1454.37,-263 1414.79,-263 1384.63,-251.18 1384.63,-230.82 1414.79,-219 1454.37,-219 1484.54,-230.82"/>
<text text-anchor="middle" x="1434.58" y="-237.3" font-family="Times,serif" font-size="14.00">Trait(21)</text>
</g>
<!-- Protein(7) -->
<g id="node3" class="node">
<title>Protein(7)</title>
<polygon fill="none" stroke="darkgreen" points="638.39,-989.54 638.39,-1004.46 609.16,-1015 567.82,-1015 538.59,-1004.46 538.59,-989.54 567.82,-979 609.16,-979 638.39,-989.54"/>
<polygon fill="none" stroke="darkgreen" points="642.39,-986.73 642.39,-1007.27 609.86,-1019 567.13,-1019 534.6,-1007.27 534.6,-986.73 567.13,-975 609.86,-975 642.39,-986.73"/>
<text text-anchor="middle" x="588.49" y="-993.3" font-family="Times,serif" font-size="14.00">Protein(7)</text>
</g>
<!-- EC(15) -->
<g id="node4" class="node">
<title>EC(15)</title>
<polygon fill="none" stroke="darkgreen" points="627.79,-838.54 627.79,-853.46 604.77,-864 572.21,-864 549.19,-853.46 549.19,-838.54 572.21,-828 604.77,-828 627.79,-838.54"/>
<polygon fill="none" stroke="darkgreen" points="631.78,-835.97 631.78,-856.03 605.64,-868 571.35,-868 545.2,-856.03 545.2,-835.97 571.35,-824 605.64,-824 631.78,-835.97"/>
<text text-anchor="middle" x="588.49" y="-842.3" font-family="Times,serif" font-size="14.00">EC(15)</text>
</g>
<!-- MolFunc(3) -->
<g id="node5" class="node">
<title>MolFunc(3)</title>
<polygon fill="none" stroke="darkgreen" points="992.73,-755.54 992.73,-770.46 958.58,-781 910.3,-781 876.15,-770.46 876.15,-755.54 910.3,-745 958.58,-745 992.73,-755.54"/>
<polygon fill="none" stroke="darkgreen" points="996.72,-752.59 996.72,-773.41 959.19,-785 909.7,-785 872.16,-773.41 872.16,-752.59 909.7,-741 959.19,-741 996.72,-752.59"/>
<text text-anchor="middle" x="934.44" y="-759.3" font-family="Times,serif" font-size="14.00">MolFunc(3)</text>
</g>
<!-- Gene(8) -->
<g id="node6" class="node">
<title>Gene(8)</title>
<polygon fill="none" stroke="darkgreen" points="977.28,-943.54 977.28,-958.46 952.18,-969 916.7,-969 891.61,-958.46 891.61,-943.54 916.7,-933 952.18,-933 977.28,-943.54"/>
<polygon fill="none" stroke="darkgreen" points="981.27,-940.88 981.27,-961.12 952.99,-973 915.9,-973 887.62,-961.12 887.62,-940.88 915.9,-929 952.99,-929 981.27,-940.88"/>
<text text-anchor="middle" x="934.44" y="-947.3" font-family="Times,serif" font-size="14.00">Gene(8)</text>
</g>
<!-- DGES(22) -->
<g id="node7" class="node">
<title>DGES(22)</title>
<polygon fill="none" stroke="darkgreen" points="986.55,-289.54 986.55,-304.46 956.03,-315 912.86,-315 882.33,-304.46 882.33,-289.54 912.86,-279 956.03,-279 986.55,-289.54"/>
<polygon fill="none" stroke="darkgreen" points="990.56,-286.69 990.56,-307.31 956.7,-319 912.18,-319 878.32,-307.31 878.32,-286.69 912.18,-275 956.7,-275 990.56,-286.69"/>
<text text-anchor="middle" x="934.44" y="-293.3" font-family="Times,serif" font-size="14.00">DGES(22)</text>
</g>
<!-- Phenotype(13) -->
<g id="node8" class="node">
<title>Phenotype(13)</title>
<polygon fill="none" stroke="darkgreen" points="1002.01,-389.54 1002.01,-404.46 962.43,-415 906.45,-415 866.87,-404.46 866.87,-389.54 906.45,-379 962.43,-379 1002.01,-389.54"/>
<polygon fill="none" stroke="darkgreen" points="1006.01,-386.47 1006.01,-407.53 962.95,-419 905.93,-419 862.87,-407.53 862.87,-386.47 905.93,-375 962.95,-375 1006.01,-386.47"/>
<text text-anchor="middle" x="934.44" y="-393.3" font-family="Times,serif" font-size="14.00">Phenotype(13)</text>
</g>
<!-- Publication(2) -->
<g id="node9" class="node">
<title>Publication(2)</title>
<polygon fill="none" stroke="darkgreen" points="1500.83,-659.54 1500.83,-674.46 1462.02,-685 1407.14,-685 1368.33,-674.46 1368.33,-659.54 1407.14,-649 1462.02,-649 1500.83,-659.54"/>
<polygon fill="none" stroke="darkgreen" points="1504.84,-656.49 1504.84,-677.51 1462.56,-689 1406.61,-689 1364.33,-677.51 1364.33,-656.49 1406.61,-645 1462.56,-645 1504.84,-656.49"/>
<text text-anchor="middle" x="1434.58" y="-663.3" font-family="Times,serif" font-size="14.00">Publication(2)</text>
</g>
<!-- SNPEffect(26) -->
<g id="node10" class="node">
<title>SNPEffect(26)</title>
<polygon fill="none" stroke="darkgreen" points="1269.68,-197.54 1269.68,-212.46 1229.57,-223 1172.86,-223 1132.75,-212.46 1132.75,-197.54 1172.86,-187 1229.57,-187 1269.68,-197.54"/>
<polygon fill="none" stroke="darkgreen" points="1273.69,-194.46 1273.69,-215.54 1230.1,-227 1172.34,-227 1128.74,-215.54 1128.74,-194.46 1172.34,-183 1230.1,-183 1273.69,-194.46"/>
<text text-anchor="middle" x="1201.22" y="-201.3" font-family="Times,serif" font-size="14.00">SNPEffect(26)</text>
</g>
<!-- CelComp(5) -->
<g id="node11" class="node">
<title>CelComp(5)</title>
<polygon fill="none" stroke="darkgreen" points="994.05,-612.54 994.05,-627.46 959.13,-638 909.75,-638 874.83,-627.46 874.83,-612.54 909.75,-602 959.13,-602 994.05,-612.54"/>
<polygon fill="none" stroke="darkgreen" points="998.04,-609.57 998.04,-630.43 959.72,-642 909.16,-642 870.85,-630.43 870.85,-609.57 909.16,-598 959.72,-598 998.04,-609.57"/>
<text text-anchor="middle" x="934.44" y="-616.3" font-family="Times,serif" font-size="14.00">CelComp(5)</text>
</g>
<!-- BioProc(4) -->
<g id="node12" class="node">
<title>BioProc(4)</title>
<polygon fill="none" stroke="darkgreen" points="988.77,-500.54 988.77,-515.46 956.94,-526 911.94,-526 880.11,-515.46 880.11,-500.54 911.94,-490 956.94,-490 988.77,-500.54"/>
<polygon fill="none" stroke="darkgreen" points="992.78,-497.66 992.78,-518.34 957.59,-530 911.29,-530 876.1,-518.34 876.1,-497.66 911.29,-486 957.59,-486 992.78,-497.66"/>
<text text-anchor="middle" x="934.44" y="-504.3" font-family="Times,serif" font-size="14.00">BioProc(4)</text>
</g>
<!-- ProtDomain(14) -->
<g id="node13" class="node">
<title>ProtDomain(14)</title>
<polygon fill="none" stroke="darkgreen" points="663.13,-566.54 663.13,-581.46 619.41,-592 557.58,-592 513.86,-581.46 513.86,-566.54 557.58,-556 619.41,-556 663.13,-566.54"/>
<polygon fill="none" stroke="darkgreen" points="667.13,-563.39 667.13,-584.61 619.88,-596 557.1,-596 509.85,-584.61 509.85,-563.39 557.1,-552 619.88,-552 667.13,-563.39"/>
<text text-anchor="middle" x="588.49" y="-570.3" font-family="Times,serif" font-size="14.00">ProtDomain(14)</text>
</g>
<!-- Enzyme(177) -->
<g id="node14" class="node">
<title>Enzyme(177)</title>
<polygon fill="none" stroke="darkgreen" points="652.53,-504.54 652.53,-519.46 615.02,-530 561.97,-530 524.46,-519.46 524.46,-504.54 561.97,-494 615.02,-494 652.53,-504.54"/>
<polygon fill="none" stroke="darkgreen" points="656.53,-501.51 656.53,-522.49 615.57,-534 561.42,-534 520.46,-522.49 520.46,-501.51 561.42,-490 615.57,-490 656.53,-501.51"/>
<text text-anchor="middle" x="588.49" y="-508.3" font-family="Times,serif" font-size="14.00">Enzyme(177)</text>
</g>
<!-- Path(19) -->
<g id="node15" class="node">
<title>Path(19)</title>
<polygon fill="none" stroke="darkgreen" points="1245.37,-1159.54 1245.37,-1174.46 1219.51,-1185 1182.93,-1185 1157.06,-1174.46 1157.06,-1159.54 1182.93,-1149 1219.51,-1149 1245.37,-1159.54"/>
<polygon fill="none" stroke="darkgreen" points="1249.36,-1156.85 1249.36,-1177.15 1220.28,-1189 1182.15,-1189 1153.07,-1177.15 1153.07,-1156.85 1182.15,-1145 1220.28,-1145 1249.36,-1156.85"/>
<text text-anchor="middle" x="1201.22" y="-1163.3" font-family="Times,serif" font-size="14.00">Path(19)</text>
</g>
<!-- Reaction(188) -->
<g id="node16" class="node">
<title>Reaction(188)</title>
<polygon fill="none" stroke="darkgreen" points="1000.69,-1126.54 1000.69,-1141.46 961.88,-1152 907,-1152 868.19,-1141.46 868.19,-1126.54 907,-1116 961.88,-1116 1000.69,-1126.54"/>
<polygon fill="none" stroke="darkgreen" points="1004.7,-1123.49 1004.7,-1144.51 962.42,-1156 906.46,-1156 864.18,-1144.51 864.18,-1123.49 906.46,-1112 962.42,-1112 1004.7,-1123.49"/>
<text text-anchor="middle" x="934.44" y="-1130.3" font-family="Times,serif" font-size="14.00">Reaction(188)</text>
</g>
<!-- CoExpStudy(25) -->
<g id="node17" class="node">
<title>CoExpStudy(25)</title>
<polygon fill="none" stroke="darkgreen" points="664.45,-76.54 664.45,-91.46 619.95,-102 557.03,-102 512.54,-91.46 512.54,-76.54 557.03,-66 619.95,-66 664.45,-76.54"/>
<polygon fill="none" stroke="darkgreen" points="668.45,-73.38 668.45,-94.62 620.42,-106 556.56,-106 508.54,-94.62 508.54,-73.38 556.56,-62 620.42,-62 668.45,-73.38"/>
<text text-anchor="middle" x="588.49" y="-80.3" font-family="Times,serif" font-size="14.00">CoExpStudy(25)</text>
</g>
<!-- Gene(1) -->
<g id="node18" class="node">
<title>Gene(1)</title>
<ellipse fill="none" stroke="red" cx="43.65" cy="-712" rx="39.78" ry="39.78"/>
<ellipse fill="none" stroke="red" cx="43.65" cy="-712" rx="43.79" ry="43.79"/>
<text text-anchor="middle" x="43.65" y="-708.3" font-family="Times,serif" font-size="14.00">Gene(1)</text>
</g>
<!-- Gene(1)&#45;&gt;Trait(21) -->
<g id="edge41" class="edge">
<title>Gene(1)&#45;&gt;Trait(21)</title>
<path fill="none" stroke="black" d="M46.57,-668.35C50.84,-596.79 64.24,-450.92 105.29,-335 122.57,-286.21 122.07,-265.31 163.29,-234 334.94,-103.65 913.46,-146.08 1128.98,-144 1225.89,-143.07 1260.59,-115.04 1346.45,-160 1374.27,-174.56 1399.77,-200.39 1415.9,-218.97"/>
<text text-anchor="middle" x="779.41" y="-142.8" font-family="Times,serif" font-size="14.00">cooc_wi</text>
</g>
<!-- Gene(1)&#45;&gt;Protein(7) -->
<g id="edge46" class="edge">
<title>Gene(1)&#45;&gt;Protein(7)</title>
<path fill="none" stroke="black" d="M66.42,-749.37C108,-816.51 205.89,-955.52 332.08,-1009 396.97,-1036.5 479.61,-1025.28 533.03,-1012.78"/>
<polygon fill="black" stroke="black" points="534.09,-1016.12 542.98,-1010.36 532.44,-1009.32 534.09,-1016.12"/>
<text text-anchor="middle" x="238.69" y="-1001.8" font-family="Times,serif" font-size="14.00">enc</text>
</g>
<!-- Gene(1)&#45;&gt;Gene(8) -->
<g id="edge42" class="edge">
<title>Gene(1)&#45;&gt;Gene(8)</title>
<path fill="none" stroke="blue" d="M47.61,-755.69C54.81,-823.9 79.41,-954.38 163.29,-1017 258.16,-1087.82 579.1,-1047.23 695.91,-1028 770.34,-1015.75 853.32,-984.58 898.85,-965.87"/>
<text text-anchor="middle" x="397.58" y="-1075.8" font-family="Times,serif" font-size="14.00">homoeolog(&lt;=2)</text>
<text text-anchor="middle" x="397.58" y="-1060.8" font-family="Times,serif" font-size="14.00">regulates(&lt;=2)</text>
</g>
<!-- Gene(1)&#45;&gt;DGES(22) -->
<g id="edge44" class="edge">
<title>Gene(1)&#45;&gt;DGES(22)</title>
<path fill="none" stroke="black" d="M49.19,-668.65C58.56,-600.84 86.06,-469.52 163.29,-393 256.54,-300.61 668.27,-271.8 713.91,-268 771.93,-263.17 787.41,-258.82 844.91,-268 857.89,-270.07 871.55,-273.75 884.15,-277.81"/>
<polygon fill="black" stroke="black" points="883.4,-281.25 894,-281.12 885.64,-274.61 883.4,-281.25"/>
<text text-anchor="middle" x="397.58" y="-323.8" font-family="Times,serif" font-size="14.00">differentially_expressed</text>
</g>
<!-- Gene(1)&#45;&gt;Publication(2) -->
<g id="edge49" class="edge">
<title>Gene(1)&#45;&gt;Publication(2)</title>
<path fill="none" stroke="blue" d="M45.98,-755.79C49.4,-827.9 61.62,-975.18 105.29,-1091 135.17,-1170.23 153.01,-1228 237.69,-1228 237.69,-1228 237.69,-1228 1202.22,-1228 1236.57,-1228 1250.48,-1223.54 1273.45,-1198 1407.89,-1048.55 1429.55,-789.73 1432.97,-699.3"/>
<polygon fill="blue" stroke="blue" points="1436.47,-699.23 1433.3,-689.13 1429.48,-699.01 1436.47,-699.23"/>
<text text-anchor="middle" x="779.41" y="-1231.8" font-family="Times,serif" font-size="14.00">occ_in</text>
</g>
<!-- Gene(1)&#45;&gt;Path(19) -->
<g id="edge51" class="edge">
<title>Gene(1)&#45;&gt;Path(19)</title>
<path fill="none" stroke="blue" d="M45.88,-755.75C49.19,-819.35 61.31,-939.71 105.29,-1031 144.47,-1112.31 147.43,-1185 237.69,-1185 237.69,-1185 237.69,-1185 935.44,-1185 1007.08,-1185 1089.36,-1178.36 1142.94,-1173.15"/>
<polygon fill="blue" stroke="blue" points="1143.32,-1176.63 1152.93,-1172.16 1142.63,-1169.66 1143.32,-1176.63"/>
<text text-anchor="middle" x="588.49" y="-1188.8" font-family="Times,serif" font-size="14.00">part_of</text>
</g>
<!-- Gene(1)&#45;&gt;Reaction(188) -->
<g id="edge48" class="edge">
<title>Gene(1)&#45;&gt;Reaction(188)</title>
<path fill="none" stroke="black" d="M43.84,-755.71C45.16,-832.89 60.88,-990.75 163.29,-1050 386.28,-1178.99 706.69,-1161.99 853.93,-1145.24"/>
<polygon fill="black" stroke="black" points="854.71,-1148.68 864.23,-1144.04 853.89,-1141.73 854.71,-1148.68"/>
<text text-anchor="middle" x="397.58" y="-1147.8" font-family="Times,serif" font-size="14.00">inv_in</text>
</g>
<!-- Protein(10) -->
<g id="node19" class="node">
<title>Protein(10)</title>
<ellipse fill="none" stroke="black" cx="238.69" cy="-712" rx="50.89" ry="18"/>
<text text-anchor="middle" x="238.69" y="-708.3" font-family="Times,serif" font-size="14.00">Protein(10)</text>
</g>
<!-- Gene(1)&#45;&gt;Protein(10) -->
<g id="edge45" class="edge">
<title>Gene(1)&#45;&gt;Protein(10)</title>
<path fill="none" stroke="blue" d="M87.49,-712C114.02,-712 148.48,-712 177.7,-712"/>
<polygon fill="blue" stroke="blue" points="177.8,-715.5 187.8,-712 177.8,-708.5 177.8,-715.5"/>
<text text-anchor="middle" x="125.29" y="-715.8" font-family="Times,serif" font-size="14.00">enc</text>
</g>
<!-- Gene(9) -->
<g id="node21" class="node">
<title>Gene(9)</title>
<ellipse fill="none" stroke="black" cx="588.49" cy="-355" rx="39.79" ry="18"/>
<text text-anchor="middle" x="588.49" y="-351.3" font-family="Times,serif" font-size="14.00">Gene(9)</text>
</g>
<!-- Gene(1)&#45;&gt;Gene(9) -->
<g id="edge43" class="edge">
<title>Gene(1)&#45;&gt;Gene(9)</title>
<path fill="none" stroke="black" d="M65.31,-673.83C105.89,-603.05 203.41,-452.53 332.08,-385 402.05,-348.28 497.37,-347.99 549.53,-351.32"/>
<text text-anchor="middle" x="238.69" y="-547.8" font-family="Times,serif" font-size="14.00">homoeolog(&lt;=2)</text>
<text text-anchor="middle" x="238.69" y="-532.8" font-family="Times,serif" font-size="14.00">regulates(&lt;=2)</text>
</g>
<!-- SNP(20) -->
<g id="node24" class="node">
<title>SNP(20)</title>
<ellipse fill="none" stroke="black" cx="934.44" cy="-188" rx="41.69" ry="18"/>
<text text-anchor="middle" x="934.44" y="-184.3" font-family="Times,serif" font-size="14.00">SNP(20)</text>
</g>
<!-- Gene(1)&#45;&gt;SNP(20) -->
<g id="edge47" class="edge">
<title>Gene(1)&#45;&gt;SNP(20)</title>
<path fill="none" stroke="blue" d="M47.93,-668.53C53.68,-608.24 68.66,-496.75 105.29,-409 123.05,-366.46 127.61,-352.19 163.29,-323 381.2,-144.77 751.47,-166.71 884.24,-181.47"/>
<polygon fill="blue" stroke="blue" points="884.16,-184.99 894.5,-182.65 884.96,-178.03 884.16,-184.99"/>
<text text-anchor="middle" x="397.58" y="-245.8" font-family="Times,serif" font-size="14.00">has_mutant</text>
<text text-anchor="middle" x="397.58" y="-230.8" font-family="Times,serif" font-size="14.00">has_variation</text>
</g>
<!-- CoExpCluster(23) -->
<g id="node27" class="node">
<title>CoExpCluster(23)</title>
<ellipse fill="none" stroke="black" cx="238.69" cy="-89" rx="75.29" ry="18"/>
<text text-anchor="middle" x="238.69" y="-85.3" font-family="Times,serif" font-size="14.00">CoExpCluster(23)</text>
</g>
<!-- Gene(1)&#45;&gt;CoExpCluster(23) -->
<g id="edge50" class="edge">
<title>Gene(1)&#45;&gt;CoExpCluster(23)</title>
<path fill="none" stroke="black" d="M46.02,-668.35C50.56,-536.76 67.06,-150.47 105.29,-110 118.49,-96.03 136.96,-88.88 155.92,-85.62"/>
<polygon fill="black" stroke="black" points="156.42,-89.08 165.85,-84.25 155.47,-82.15 156.42,-89.08"/>
<text text-anchor="middle" x="125.29" y="-113.8" font-family="Times,serif" font-size="14.00">part_of</text>
</g>
<!-- Protein(10)&#45;&gt;Trait(21) -->
<g id="edge1" class="edge">
<title>Protein(10)&#45;&gt;Trait(21)</title>
<path fill="none" stroke="blue" d="M251.06,-694.51C267.98,-667.52 299.38,-613.53 314.08,-563 324.94,-525.67 308.41,-419.84 332.08,-389 370.02,-339.56 407.14,-366.48 463.08,-339 471.49,-334.87 472.8,-332.39 481.08,-328 581.51,-274.7 602.79,-246.1 713.91,-222 770.81,-209.66 786.91,-216.82 844.91,-222 917.36,-228.47 936.95,-228.06 1005.98,-251 1014.46,-253.82 1015.64,-256.76 1023.98,-260 1069.21,-277.59 1081.02,-282.53 1128.98,-290 1200.36,-301.12 1219.22,-293.89 1291.45,-295 1315.9,-295.38 1322.94,-301.69 1346.45,-295 1369.73,-288.37 1392.87,-273.55 1409.44,-261.1"/>
<text text-anchor="middle" x="934.44" y="-254.8" font-family="Times,serif" font-size="14.00">cooc_wi</text>
</g>
<!-- Protein(10)&#45;&gt;Protein(7) -->
<g id="edge3" class="edge">
<title>Protein(10)&#45;&gt;Protein(7)</title>
<path fill="none" stroke="blue" d="M242.8,-730.2C250.44,-768.82 273.89,-859.03 332.08,-903 379.24,-938.63 415.48,-890.95 463.08,-926 477.16,-936.37 467.83,-949.58 481.08,-961 496.08,-973.92 515.91,-982.25 534.39,-987.61"/>
<text text-anchor="middle" x="397.58" y="-959.8" font-family="Times,serif" font-size="14.00">h_s_s(&lt;=4)</text>
<text text-anchor="middle" x="397.58" y="-944.8" font-family="Times,serif" font-size="14.00">ortho(&lt;=4)</text>
<text text-anchor="middle" x="397.58" y="-929.8" font-family="Times,serif" font-size="14.00">xref(&lt;=4)</text>
</g>
<!-- Protein(10)&#45;&gt;EC(15) -->
<g id="edge4" class="edge">
<title>Protein(10)&#45;&gt;EC(15)</title>
<path fill="none" stroke="blue" d="M251.75,-729.7C267.51,-751.29 297.25,-787.13 332.08,-805 366.57,-822.69 470.7,-835.17 534.86,-841.42"/>
<polygon fill="blue" stroke="blue" points="534.89,-844.94 545.18,-842.4 535.56,-837.97 534.89,-844.94"/>
<text text-anchor="middle" x="397.58" y="-835.8" font-family="Times,serif" font-size="14.00">cat_c</text>
</g>
<!-- Protein(10)&#45;&gt;MolFunc(3) -->
<g id="edge10" class="edge">
<title>Protein(10)&#45;&gt;MolFunc(3)</title>
<path fill="none" stroke="blue" d="M271.61,-725.84C289.15,-732.9 311.47,-741.04 332.08,-746 497.87,-785.94 543.52,-776.7 713.91,-784 772.08,-786.49 787.08,-790.76 844.91,-784 854.22,-782.91 863.98,-781.2 873.47,-779.21"/>
<polygon fill="blue" stroke="blue" points="874.23,-782.62 883.24,-777.05 872.72,-775.79 874.23,-782.62"/>
<text text-anchor="middle" x="588.49" y="-786.8" font-family="Times,serif" font-size="14.00">has_function</text>
</g>
<!-- Protein(10)&#45;&gt;Gene(8) -->
<g id="edge7" class="edge">
<title>Protein(10)&#45;&gt;Gene(8)</title>
<path fill="none" stroke="black" d="M244.34,-730.07C254.24,-764.63 280.76,-840.05 332.08,-878 379.95,-913.4 404.91,-893.32 463.08,-906 471.09,-907.75 472.98,-908.74 481.08,-910 622.78,-932.07 791.44,-943.48 877.25,-948.23"/>
<polygon fill="black" stroke="black" points="877.12,-951.73 887.29,-948.78 877.5,-944.74 877.12,-951.73"/>
<text text-anchor="middle" x="588.49" y="-938.8" font-family="Times,serif" font-size="14.00">enc</text>
</g>
<!-- Protein(10)&#45;&gt;Publication(2) -->
<g id="edge15" class="edge">
<title>Protein(10)&#45;&gt;Publication(2)</title>
<path fill="none" stroke="black" d="M246.12,-729.91C258.02,-760.21 286.47,-821.22 332.08,-851 388.37,-887.75 414.33,-869.07 481.08,-877 612.57,-892.63 645.99,-896 778.41,-896 778.41,-896 778.41,-896 1202.22,-896 1313,-896 1389.77,-761.75 1419.67,-698.83"/>
<polygon fill="black" stroke="black" points="1423.03,-699.92 1424.07,-689.37 1416.68,-696.97 1423.03,-699.92"/>
<text text-anchor="middle" x="934.44" y="-899.8" font-family="Times,serif" font-size="14.00">pub_in</text>
</g>
<!-- Protein(10)&#45;&gt;CelComp(5) -->
<g id="edge13" class="edge">
<title>Protein(10)&#45;&gt;CelComp(5)</title>
<path fill="none" stroke="black" d="M274.25,-698.97C320.57,-682.18 405.69,-653.65 481.08,-641 613.6,-618.77 770.8,-616.86 860.66,-618.05"/>
<polygon fill="black" stroke="black" points="860.69,-621.55 870.75,-618.2 860.8,-614.55 860.69,-621.55"/>
<text text-anchor="middle" x="588.49" y="-644.8" font-family="Times,serif" font-size="14.00">located_in</text>
</g>
<!-- Protein(10)&#45;&gt;BioProc(4) -->
<g id="edge14" class="edge">
<title>Protein(10)&#45;&gt;BioProc(4)</title>
<path fill="none" stroke="blue" d="M242.4,-693.93C249.43,-653.62 272.06,-555.92 332.08,-505 394.09,-452.4 627.41,-422.18 695.91,-466 711.99,-476.29 697.9,-494.6 713.91,-505 761.26,-535.76 827.32,-531.92 874.58,-523.23"/>
<polygon fill="blue" stroke="blue" points="875.52,-526.61 884.66,-521.25 874.18,-519.74 875.52,-526.61"/>
<text text-anchor="middle" x="588.49" y="-469.8" font-family="Times,serif" font-size="14.00">participates_in</text>
</g>
<!-- Protein(10)&#45;&gt;ProtDomain(14) -->
<g id="edge9" class="edge">
<title>Protein(10)&#45;&gt;ProtDomain(14)</title>
<path fill="none" stroke="black" d="M249.1,-694.02C263.34,-668.87 292.91,-623.91 332.08,-603 383.11,-575.76 447.93,-568.67 499.51,-568.31"/>
<polygon fill="black" stroke="black" points="499.63,-571.81 509.64,-568.32 499.64,-564.81 499.63,-571.81"/>
<text text-anchor="middle" x="397.58" y="-606.8" font-family="Times,serif" font-size="14.00">has_domain</text>
</g>
<!-- Protein(10)&#45;&gt;Enzyme(177) -->
<g id="edge11" class="edge">
<title>Protein(10)&#45;&gt;Enzyme(177)</title>
<path fill="none" stroke="black" d="M244.4,-693.93C254.31,-659.81 280.77,-586.15 332.08,-551 384.05,-515.39 455.87,-507.12 510.12,-506.9"/>
<polygon fill="black" stroke="black" points="510.37,-510.4 520.38,-506.95 510.4,-503.4 510.37,-510.4"/>
<text text-anchor="middle" x="397.58" y="-554.8" font-family="Times,serif" font-size="14.00">is_a</text>
</g>
<!-- Protein(10)&#45;&gt;Protein(10) -->
<g id="edge2" class="edge">
<title>Protein(10)&#45;&gt;Protein(10)</title>
<path fill="none" stroke="black" d="M219,-728.66C214.62,-738.62 221.19,-748 238.69,-748 256.19,-748 262.75,-738.62 258.37,-728.66"/>
<text text-anchor="middle" x="238.69" y="-781.8" font-family="Times,serif" font-size="14.00">h_s_s(&lt;=4)</text>
<text text-anchor="middle" x="238.69" y="-766.8" font-family="Times,serif" font-size="14.00">ortho(&lt;=4)</text>
<text text-anchor="middle" x="238.69" y="-751.8" font-family="Times,serif" font-size="14.00">xref(&lt;=4)</text>
</g>
<!-- EC(12) -->
<g id="node20" class="node">
<title>EC(12)</title>
<ellipse fill="none" stroke="black" cx="588.49" cy="-737" rx="36.29" ry="18"/>
<text text-anchor="middle" x="588.49" y="-733.3" font-family="Times,serif" font-size="14.00">EC(12)</text>
</g>
<!-- Protein(10)&#45;&gt;EC(12) -->
<g id="edge5" class="edge">
<title>Protein(10)&#45;&gt;EC(12)</title>
<path fill="none" stroke="black" d="M288.41,-715.5C355.85,-720.35 476.71,-729.04 542.25,-733.75"/>
<polygon fill="black" stroke="black" points="542.05,-737.24 552.27,-734.47 542.55,-730.26 542.05,-737.24"/>
<text text-anchor="middle" x="397.58" y="-730.8" font-family="Times,serif" font-size="14.00">cat_c</text>
</g>
<!-- Protein(10)&#45;&gt;Gene(9) -->
<g id="edge6" class="edge">
<title>Protein(10)&#45;&gt;Gene(9)</title>
<path fill="none" stroke="blue" d="M240.03,-693.69C241.98,-643.56 254.46,-502.87 332.08,-428 335.99,-424.23 472.81,-386.38 544.55,-366.72"/>
<polygon fill="blue" stroke="blue" points="545.5,-370.09 554.22,-364.07 543.65,-363.34 545.5,-370.09"/>
<text text-anchor="middle" x="397.58" y="-431.8" font-family="Times,serif" font-size="14.00">enc</text>
</g>
<!-- ProtDomain(11) -->
<g id="node22" class="node">
<title>ProtDomain(11)</title>
<ellipse fill="none" stroke="black" cx="588.49" cy="-683" rx="68.79" ry="18"/>
<text text-anchor="middle" x="588.49" y="-679.3" font-family="Times,serif" font-size="14.00">ProtDomain(11)</text>
</g>
<!-- Protein(10)&#45;&gt;ProtDomain(11) -->
<g id="edge8" class="edge">
<title>Protein(10)&#45;&gt;ProtDomain(11)</title>
<path fill="none" stroke="blue" d="M285.66,-704.82C300.45,-702.7 316.93,-700.54 332.08,-699 391.73,-692.94 459.47,-688.83 510.19,-686.29"/>
<polygon fill="blue" stroke="blue" points="510.61,-689.77 520.42,-685.78 510.27,-682.78 510.61,-689.77"/>
<text text-anchor="middle" x="397.58" y="-702.8" font-family="Times,serif" font-size="14.00">has_domain</text>
</g>
<!-- Enzyme(17) -->
<g id="node23" class="node">
<title>Enzyme(17)</title>
<ellipse fill="none" stroke="black" cx="588.49" cy="-1093" rx="54.69" ry="18"/>
<text text-anchor="middle" x="588.49" y="-1089.3" font-family="Times,serif" font-size="14.00">Enzyme(17)</text>
</g>
<!-- Protein(10)&#45;&gt;Enzyme(17) -->
<g id="edge12" class="edge">
<title>Protein(10)&#45;&gt;Enzyme(17)</title>
<path fill="none" stroke="blue" d="M240.99,-730.13C245.29,-776.62 263,-901.33 332.08,-971 375.74,-1015.03 407.08,-992.37 463.08,-1019 495.42,-1034.38 530.31,-1055.57 554.88,-1071.33"/>
<polygon fill="blue" stroke="blue" points="553.15,-1074.38 563.45,-1076.87 556.95,-1068.5 553.15,-1074.38"/>
<text text-anchor="middle" x="397.58" y="-1022.8" font-family="Times,serif" font-size="14.00">is_a</text>
</g>
<!-- EC(12)&#45;&gt;MolFunc(3) -->
<g id="edge16" class="edge">
<title>EC(12)&#45;&gt;MolFunc(3)</title>
<path fill="none" stroke="blue" d="M621.76,-744.52C646.75,-749.96 682.32,-756.89 713.91,-760 767.01,-765.23 827.69,-765.64 871.78,-764.93"/>
<text text-anchor="middle" x="779.41" y="-768.8" font-family="Times,serif" font-size="14.00">equ</text>
</g>
<!-- Gene(9)&#45;&gt;Trait(21) -->
<g id="edge17" class="edge">
<title>Gene(9)&#45;&gt;Trait(21)</title>
<path fill="none" stroke="black" d="M628.15,-356.88C763.53,-362.91 1215.08,-378.34 1346.45,-323 1376.32,-310.42 1402.14,-282.72 1417.76,-263"/>
<text text-anchor="middle" x="1067.48" y="-365.8" font-family="Times,serif" font-size="14.00">cooc_wi</text>
</g>
<!-- Gene(9)&#45;&gt;MolFunc(3) -->
<g id="edge21" class="edge">
<title>Gene(9)&#45;&gt;MolFunc(3)</title>
<path fill="none" stroke="black" d="M617.17,-367.85C642.14,-380.99 677.67,-403.9 695.91,-435 726.08,-486.46 676.54,-521.51 713.91,-568 752.75,-616.33 798.43,-574.95 844.91,-616 858.02,-627.58 854.24,-635.81 862.91,-651 878.89,-679.02 898.55,-709.98 913.05,-732.24"/>
<polygon fill="black" stroke="black" points="910.13,-734.16 918.53,-740.61 915.99,-730.33 910.13,-734.16"/>
<text text-anchor="middle" x="779.41" y="-619.8" font-family="Times,serif" font-size="14.00">has_function</text>
</g>
<!-- Gene(9)&#45;&gt;Gene(8) -->
<g id="edge18" class="edge">
<title>Gene(9)&#45;&gt;Gene(8)</title>
<path fill="none" stroke="blue" d="M617.48,-367.67C642.67,-380.69 678.34,-403.51 695.91,-435 717.22,-473.2 683.8,-599.27 713.91,-631 754.4,-673.68 804.92,-606.85 844.91,-650 885.02,-693.3 830.39,-865.74 862.91,-915 869.87,-925.56 880.94,-933.18 892.27,-938.6"/>
<text text-anchor="middle" x="779.41" y="-668.8" font-family="Times,serif" font-size="14.00">genetic(&lt;=8)</text>
<text text-anchor="middle" x="779.41" y="-653.8" font-family="Times,serif" font-size="14.00">physical(&lt;=8)</text>
</g>
<!-- Gene(9)&#45;&gt;DGES(22) -->
<g id="edge20" class="edge">
<title>Gene(9)&#45;&gt;DGES(22)</title>
<path fill="none" stroke="blue" d="M623.37,-346.16C648.28,-339.89 683.03,-331.62 713.91,-326 765.49,-316.6 824.41,-308.99 868.22,-303.92"/>
<polygon fill="blue" stroke="blue" points="868.64,-307.4 878.17,-302.79 867.84,-300.45 868.64,-307.4"/>
<text text-anchor="middle" x="779.41" y="-329.8" font-family="Times,serif" font-size="14.00">differentially_expressed</text>
</g>
<!-- Gene(9)&#45;&gt;Phenotype(13) -->
<g id="edge22" class="edge">
<title>Gene(9)&#45;&gt;Phenotype(13)</title>
<path fill="none" stroke="blue" d="M626.96,-359.57C680.72,-366.14 781.13,-378.4 852.35,-387.1"/>
<polygon fill="blue" stroke="blue" points="852.29,-390.62 862.64,-388.35 853.14,-383.67 852.29,-390.62"/>
<text text-anchor="middle" x="779.41" y="-388.8" font-family="Times,serif" font-size="14.00">has_observ_pheno</text>
</g>
<!-- Gene(9)&#45;&gt;Publication(2) -->
<g id="edge26" class="edge">
<title>Gene(9)&#45;&gt;Publication(2)</title>
<path fill="none" stroke="blue" d="M617.19,-367.43C642.1,-378.25 679.9,-393.75 713.91,-404 770.91,-421.19 787.1,-417.76 844.91,-432 917.08,-449.78 936.04,-451.84 1005.98,-477 1147.93,-528.06 1308.94,-605.02 1386.67,-643.44"/>
<polygon fill="blue" stroke="blue" points="1385.22,-646.62 1395.73,-647.93 1388.32,-640.35 1385.22,-646.62"/>
<text text-anchor="middle" x="1067.48" y="-519.8" font-family="Times,serif" font-size="14.00">pub_in</text>
</g>
<!-- Gene(9)&#45;&gt;CelComp(5) -->
<g id="edge24" class="edge">
<title>Gene(9)&#45;&gt;CelComp(5)</title>
<path fill="none" stroke="blue" d="M613.76,-369.12C636.95,-383.49 671.85,-407.53 695.91,-435 706.66,-447.28 701.33,-456.6 713.91,-467 761.23,-506.15 796.45,-473.26 844.91,-511 856.58,-520.09 854.03,-527.17 862.91,-539 876.16,-556.65 892.23,-575.3 905.69,-590.24"/>
<polygon fill="blue" stroke="blue" points="903.15,-592.65 912.46,-597.7 908.33,-587.94 903.15,-592.65"/>
<text text-anchor="middle" x="779.41" y="-514.8" font-family="Times,serif" font-size="14.00">located_in</text>
</g>
<!-- Gene(9)&#45;&gt;BioProc(4) -->
<g id="edge25" class="edge">
<title>Gene(9)&#45;&gt;BioProc(4)</title>
<path fill="none" stroke="black" d="M609.88,-370.32C633.6,-387.36 674.56,-414.4 713.91,-429 769.33,-449.56 789.77,-430.68 844.91,-452 855.5,-456.09 876.82,-469.52 895.89,-482.2"/>
<polygon fill="black" stroke="black" points="894.19,-485.27 904.44,-487.93 898.09,-479.46 894.19,-485.27"/>
<text text-anchor="middle" x="779.41" y="-455.8" font-family="Times,serif" font-size="14.00">participates_in</text>
</g>
<!-- Gene(9)&#45;&gt;Gene(9) -->
<g id="edge19" class="edge">
<title>Gene(9)&#45;&gt;Gene(9)</title>
<path fill="none" stroke="black" d="M559.21,-367.54C544.96,-378.87 554.72,-391 588.49,-391 622.26,-391 632.02,-378.87 617.78,-367.54"/>
<text text-anchor="middle" x="588.49" y="-409.8" font-family="Times,serif" font-size="14.00">genetic(&lt;=8)</text>
<text text-anchor="middle" x="588.49" y="-394.8" font-family="Times,serif" font-size="14.00">physical(&lt;=8)</text>
</g>
<!-- Gene(9)&#45;&gt;SNP(20) -->
<g id="edge23" class="edge">
<title>Gene(9)&#45;&gt;SNP(20)</title>
<path fill="none" stroke="black" d="M613.98,-340.89C638.86,-326.73 678.65,-304.55 713.91,-287 776.32,-255.93 850.58,-223.33 894.77,-204.37"/>
<polygon fill="black" stroke="black" points="896.17,-207.58 903.99,-200.43 893.42,-201.14 896.17,-207.58"/>
<text text-anchor="middle" x="779.41" y="-290.8" font-family="Times,serif" font-size="14.00">has_variation</text>
</g>
<!-- ProtDomain(11)&#45;&gt;MolFunc(3) -->
<g id="edge32" class="edge">
<title>ProtDomain(11)&#45;&gt;MolFunc(3)</title>
<path fill="none" stroke="blue" d="M641.97,-694.44C659.33,-698.72 678.62,-704.01 695.91,-710 704.18,-712.86 705.53,-715.45 713.91,-718 770.45,-735.24 787.08,-728.75 844.91,-741 853.57,-742.84 862.68,-744.92 871.62,-747.06"/>
<polygon fill="blue" stroke="blue" points="871.07,-750.52 881.62,-749.48 872.72,-743.72 871.07,-750.52"/>
<text text-anchor="middle" x="779.41" y="-744.8" font-family="Times,serif" font-size="14.00">has_function</text>
</g>
<!-- ProtDomain(11)&#45;&gt;CelComp(5) -->
<g id="edge33" class="edge">
<title>ProtDomain(11)&#45;&gt;CelComp(5)</title>
<path fill="none" stroke="black" d="M645.84,-693.09C698.64,-700.27 779.09,-705.3 844.91,-684 866.57,-676.99 887.39,-662.48 903.39,-649.04"/>
<polygon fill="black" stroke="black" points="906.05,-651.36 911.3,-642.16 901.46,-646.08 906.05,-651.36"/>
<text text-anchor="middle" x="779.41" y="-702.8" font-family="Times,serif" font-size="14.00">located_in</text>
</g>
<!-- ProtDomain(11)&#45;&gt;BioProc(4) -->
<g id="edge34" class="edge">
<title>ProtDomain(11)&#45;&gt;BioProc(4)</title>
<path fill="none" stroke="blue" d="M652.2,-676.09C668.47,-671.38 684.58,-663.65 695.91,-651 725.44,-618.01 682.47,-584.19 713.91,-553 755.87,-511.37 787.08,-542.25 844.91,-530 854.34,-528 864.29,-525.71 873.98,-523.38"/>
<polygon fill="blue" stroke="blue" points="875.06,-526.72 883.95,-520.95 873.4,-519.92 875.06,-526.72"/>
<text text-anchor="middle" x="779.41" y="-556.8" font-family="Times,serif" font-size="14.00">participates_in</text>
</g>
<!-- Enzyme(17)&#45;&gt;Reaction(188) -->
<g id="edge36" class="edge">
<title>Enzyme(17)&#45;&gt;Reaction(188)</title>
<path fill="none" stroke="black" d="M643.1,-1094.79C694.97,-1097.08 775.7,-1102.15 844.91,-1113 852.59,-1114.2 860.59,-1115.72 868.5,-1117.39"/>
<polygon fill="black" stroke="black" points="867.93,-1120.85 878.45,-1119.56 869.43,-1114.01 867.93,-1120.85"/>
<text text-anchor="middle" x="779.41" y="-1116.8" font-family="Times,serif" font-size="14.00">ca_by</text>
</g>
<!-- Reaction(18) -->
<g id="node26" class="node">
<title>Reaction(18)</title>
<ellipse fill="none" stroke="black" cx="934.44" cy="-1075" rx="56.59" ry="18"/>
<text text-anchor="middle" x="934.44" y="-1071.3" font-family="Times,serif" font-size="14.00">Reaction(18)</text>
</g>
<!-- Enzyme(17)&#45;&gt;Reaction(18) -->
<g id="edge35" class="edge">
<title>Enzyme(17)&#45;&gt;Reaction(18)</title>
<path fill="none" stroke="blue" d="M636.88,-1084.51C660.02,-1080.78 688.33,-1076.84 713.91,-1075 765.47,-1071.29 824.01,-1071.51 867.67,-1072.54"/>
<polygon fill="blue" stroke="blue" points="867.79,-1076.04 877.87,-1072.8 867.97,-1069.05 867.79,-1076.04"/>
<text text-anchor="middle" x="779.41" y="-1078.8" font-family="Times,serif" font-size="14.00">ca_by</text>
</g>
<!-- SNP(20)&#45;&gt;Trait(21) -->
<g id="edge27" class="edge">
<title>SNP(20)&#45;&gt;Trait(21)</title>
<path fill="none" stroke="black" d="M969.57,-177.98C1031.17,-161.45 1164.67,-132.77 1273.45,-159 1319.19,-170.03 1366.54,-196.47 1397.78,-216.37"/>
<polygon fill="black" stroke="black" points="1396.24,-219.54 1406.54,-222.05 1400.05,-213.67 1396.24,-219.54"/>
<text text-anchor="middle" x="1201.22" y="-162.8" font-family="Times,serif" font-size="14.00">associated_with</text>
</g>
<!-- SNP(20)&#45;&gt;SNPEffect(26) -->
<g id="edge29" class="edge">
<title>SNP(20)&#45;&gt;SNPEffect(26)</title>
<path fill="none" stroke="black" d="M975.66,-190.58C1013.46,-193.01 1071.17,-196.71 1118.62,-199.76"/>
<polygon fill="black" stroke="black" points="1118.69,-203.27 1128.89,-200.42 1119.14,-196.29 1118.69,-203.27"/>
<text text-anchor="middle" x="1067.48" y="-202.8" font-family="Times,serif" font-size="14.00">leads_to</text>
</g>
<!-- Trait(211) -->
<g id="node25" class="node">
<title>Trait(211)</title>
<ellipse fill="none" stroke="black" cx="1201.22" cy="-263" rx="46.59" ry="18"/>
<text text-anchor="middle" x="1201.22" y="-259.3" font-family="Times,serif" font-size="14.00">Trait(211)</text>
</g>
<!-- SNP(20)&#45;&gt;Trait(211) -->
<g id="edge28" class="edge">
<title>SNP(20)&#45;&gt;Trait(211)</title>
<path fill="none" stroke="blue" d="M967.22,-199.43C984,-205.29 1004.99,-212.37 1023.98,-218 1066.41,-230.59 1115.21,-242.88 1150.68,-251.43"/>
<polygon fill="blue" stroke="blue" points="1150.24,-254.92 1160.78,-253.85 1151.87,-248.11 1150.24,-254.92"/>
<text text-anchor="middle" x="1067.48" y="-244.8" font-family="Times,serif" font-size="14.00">associated_with</text>
</g>
<!-- Trait(211)&#45;&gt;Trait(21) -->
<g id="edge30" class="edge">
<title>Trait(211)&#45;&gt;Trait(21)</title>
<path fill="none" stroke="black" d="M1239.22,-252.33C1255.15,-248.25 1274.07,-244.08 1291.45,-242 1322.33,-238.31 1357.24,-238.01 1384.74,-238.65"/>
<text text-anchor="middle" x="1318.95" y="-245.8" font-family="Times,serif" font-size="14.00">is_part_of</text>
</g>
<!-- Trait(211)&#45;&gt;Publication(2) -->
<g id="edge31" class="edge">
<title>Trait(211)&#45;&gt;Publication(2)</title>
<path fill="none" stroke="blue" d="M1221.98,-279.36C1252.6,-305.65 1311.6,-360.25 1346.45,-418 1389.65,-489.57 1415.54,-585.65 1426.84,-634.92"/>
<polygon fill="blue" stroke="blue" points="1423.43,-635.7 1429.04,-644.7 1430.26,-634.17 1423.43,-635.7"/>
<text text-anchor="middle" x="1318.95" y="-421.8" font-family="Times,serif" font-size="14.00">pub_in</text>
</g>
<!-- Reaction(18)&#45;&gt;Path(19) -->
<g id="edge37" class="edge">
<title>Reaction(18)&#45;&gt;Path(19)</title>
<path fill="none" stroke="black" d="M973.38,-1088.18C1020.26,-1104.47 1100.12,-1132.22 1151.49,-1150.07"/>
<polygon fill="black" stroke="black" points="1150.46,-1153.42 1161.06,-1153.39 1152.76,-1146.81 1150.46,-1153.42"/>
<text text-anchor="middle" x="1067.48" y="-1137.8" font-family="Times,serif" font-size="14.00">part_of</text>
</g>
<!-- CoExpCluster(23)&#45;&gt;PlantOntologyTerm(24) -->
<g id="edge39" class="edge">
<title>CoExpCluster(23)&#45;&gt;PlantOntologyTerm(24)</title>
<path fill="none" stroke="blue" d="M287.41,-75.1C301.71,-71.2 317.46,-67.17 332.08,-64 381.69,-53.24 437.25,-43.8 483.85,-36.6"/>
<polygon fill="blue" stroke="blue" points="484.6,-40.03 493.95,-35.06 483.54,-33.11 484.6,-40.03"/>
<text text-anchor="middle" x="397.58" y="-67.8" font-family="Times,serif" font-size="14.00">enriched_for</text>
</g>
<!-- CoExpCluster(23)&#45;&gt;BioProc(4) -->
<g id="edge38" class="edge">
<title>CoExpCluster(23)&#45;&gt;BioProc(4)</title>
<path fill="none" stroke="black" d="M298.66,-100.03C443.73,-127.72 808.78,-200.91 844.91,-243 871.81,-274.34 846.45,-390.11 862.91,-428 871.45,-447.67 886.7,-465.91 900.84,-480"/>
<polygon fill="black" stroke="black" points="898.46,-482.56 908.09,-486.97 903.31,-477.52 898.46,-482.56"/>
<text text-anchor="middle" x="588.49" y="-189.8" font-family="Times,serif" font-size="14.00">enriched_for</text>
</g>
<!-- CoExpCluster(23)&#45;&gt;CoExpStudy(25) -->
<g id="edge40" class="edge">
<title>CoExpCluster(23)&#45;&gt;CoExpStudy(25)</title>
<path fill="none" stroke="black" d="M312.81,-85.57C319.32,-85.34 325.82,-85.15 332.08,-85 387.23,-83.7 449.09,-83.43 498.12,-83.49"/>
<polygon fill="black" stroke="black" points="498.38,-86.99 508.38,-83.51 498.39,-79.99 498.38,-86.99"/>
<text text-anchor="middle" x="397.58" y="-88.8" font-family="Times,serif" font-size="14.00">part_of</text>
</g>
</g>
</svg>
