<svg width="1414px" height="967px"
 viewBox="0.00 0.00 1060.51 725.21" xmlns="http://www.w3.org/2000/svg" xmlns:xlink="http://www.w3.org/1999/xlink">
<g id="graph0" class="graph" transform=" rotate(0) translate(4 721.21)">
<polygon fill="white" stroke="transparent" points="-4,4 -4,-721.21 1056.51,-721.21 1056.51,4 -4,4"/>
<!-- MolFunc(3) -->
<g id="node1" class="node">
<title>MolFunc(3)</title>
<polygon fill="none" stroke="darkgreen" points="539.1,-558.76 539.1,-573.67 504.96,-584.21 456.67,-584.21 422.53,-573.67 422.53,-558.76 456.67,-548.21 504.96,-548.21 539.1,-558.76"/>
<polygon fill="none" stroke="darkgreen" points="543.09,-555.8 543.09,-576.62 505.56,-588.21 456.07,-588.21 418.53,-576.62 418.53,-555.8 456.07,-544.21 505.56,-544.21 543.09,-555.8"/>
<text text-anchor="middle" x="480.81" y="-562.51" font-family="Times,serif" font-size="14.00">MolFunc(3)</text>
</g>
<!-- Gene(1) -->
<g id="node2" class="node">
<title>Gene(1)</title>
<ellipse fill="none" stroke="red" cx="43.65" cy="-600.21" rx="39.78" ry="39.78"/>
<ellipse fill="none" stroke="red" cx="43.65" cy="-600.21" rx="43.79" ry="43.79"/>
<text text-anchor="middle" x="43.65" y="-596.51" font-family="Times,serif" font-size="14.00">Gene(1)</text>
</g>
<!-- DGES(16) -->
<g id="node3" class="node">
<title>DGES(16)</title>
<polygon fill="none" stroke="darkgreen" points="826.11,-124.76 826.11,-139.67 795.58,-150.21 752.41,-150.21 721.89,-139.67 721.89,-124.76 752.41,-114.21 795.58,-114.21 826.11,-124.76"/>
<polygon fill="none" stroke="darkgreen" points="830.12,-121.91 830.12,-142.52 796.26,-154.21 751.74,-154.21 717.88,-142.52 717.88,-121.91 751.74,-110.21 796.26,-110.21 830.12,-121.91"/>
<text text-anchor="middle" x="774" y="-128.51" font-family="Times,serif" font-size="14.00">DGES(16)</text>
</g>
<!-- Gene(1)&#45;&gt;DGES(16) -->
<g id="edge1" class="edge">
<title>Gene(1)&#45;&gt;DGES(16)</title>
<path fill="none" stroke="black" d="M82.84,-620.18C172.88,-664.18 402.01,-758.07 550.94,-659.21 732.3,-538.83 765.89,-238.1 771.8,-154.23"/>
<text text-anchor="middle" x="327.18" y="-706.01" font-family="Times,serif" font-size="14.00">differentially_expressed</text>
</g>
<!-- Protein(7) -->
<g id="node9" class="node">
<title>Protein(7)</title>
<polygon fill="none" stroke="darkgreen" points="530.71,-620.76 530.71,-635.67 501.48,-646.21 460.14,-646.21 430.91,-635.67 430.91,-620.76 460.14,-610.21 501.48,-610.21 530.71,-620.76"/>
<polygon fill="none" stroke="darkgreen" points="534.71,-617.95 534.71,-638.48 502.18,-650.21 459.44,-650.21 426.92,-638.48 426.92,-617.95 459.44,-606.21 502.18,-606.21 534.71,-617.95"/>
<text text-anchor="middle" x="480.81" y="-624.51" font-family="Times,serif" font-size="14.00">Protein(7)</text>
</g>
<!-- Gene(1)&#45;&gt;Protein(7) -->
<g id="edge3" class="edge">
<title>Gene(1)&#45;&gt;Protein(7)</title>
<path fill="none" stroke="black" d="M87.41,-605.17C131.13,-610.05 201.05,-617.31 261.68,-621.21 318.02,-624.84 382.67,-626.62 426.87,-627.47"/>
<text text-anchor="middle" x="192.99" y="-623.01" font-family="Times,serif" font-size="14.00">enc</text>
</g>
<!-- Protein(10) -->
<g id="node12" class="node">
<title>Protein(10)</title>
<ellipse fill="none" stroke="black" cx="192.99" cy="-409.21" rx="50.89" ry="18"/>
<text text-anchor="middle" x="192.99" y="-405.51" font-family="Times,serif" font-size="14.00">Protein(10)</text>
</g>
<!-- Gene(1)&#45;&gt;Protein(10) -->
<g id="edge2" class="edge">
<title>Gene(1)&#45;&gt;Protein(10)</title>
<path fill="none" stroke="blue" d="M70.99,-566.07C102.61,-525.08 154.4,-457.94 178.66,-426.49"/>
<text text-anchor="middle" x="114.79" y="-519.01" font-family="Times,serif" font-size="14.00">enc</text>
</g>
<!-- SNP(13) -->
<g id="node13" class="node">
<title>SNP(13)</title>
<ellipse fill="none" stroke="black" cx="774" cy="-68.21" rx="41.69" ry="18"/>
<text text-anchor="middle" x="774" y="-64.51" font-family="Times,serif" font-size="14.00">SNP(13)</text>
</g>
<!-- Gene(1)&#45;&gt;SNP(13) -->
<g id="edge4" class="edge">
<title>Gene(1)&#45;&gt;SNP(13)</title>
<path fill="none" stroke="blue" d="M46.5,-556.56C53.73,-448.81 89.05,-170.44 261.68,-53.21 415.05,50.93 658.28,-24.74 742.85,-56.23"/>
<text text-anchor="middle" x="327.18" y="-57.01" font-family="Times,serif" font-size="14.00">has_variation</text>
</g>
<!-- EC(15) -->
<g id="node4" class="node">
<title>EC(15)</title>
<polygon fill="none" stroke="darkgreen" points="520.11,-496.76 520.11,-511.67 497.09,-522.21 464.53,-522.21 441.51,-511.67 441.51,-496.76 464.53,-486.21 497.09,-486.21 520.11,-496.76"/>
<polygon fill="none" stroke="darkgreen" points="524.1,-494.19 524.1,-514.24 497.96,-526.21 463.66,-526.21 437.52,-514.24 437.52,-494.19 463.66,-482.21 497.96,-482.21 524.1,-494.19"/>
<text text-anchor="middle" x="480.81" y="-500.51" font-family="Times,serif" font-size="14.00">EC(15)</text>
</g>
<!-- Drug(11) -->
<g id="node5" class="node">
<title>Drug(11)</title>
<polygon fill="none" stroke="darkgreen" points="528.07,-434.76 528.07,-449.67 500.39,-460.21 461.24,-460.21 433.55,-449.67 433.55,-434.76 461.24,-424.21 500.39,-424.21 528.07,-434.76"/>
<polygon fill="none" stroke="darkgreen" points="532.08,-432 532.08,-452.42 501.13,-464.21 460.5,-464.21 429.54,-452.42 429.54,-432 460.5,-420.21 501.13,-420.21 532.08,-432"/>
<text text-anchor="middle" x="480.81" y="-438.51" font-family="Times,serif" font-size="14.00">Drug(11)</text>
</g>
<!-- Trait(14) -->
<g id="node6" class="node">
<title>Trait(14)</title>
<polygon fill="none" stroke="darkgreen" points="1048.72,-60.76 1048.72,-75.67 1021.81,-86.21 983.76,-86.21 956.85,-75.67 956.85,-60.76 983.76,-50.21 1021.81,-50.21 1048.72,-60.76"/>
<polygon fill="none" stroke="darkgreen" points="1052.74,-58.03 1052.74,-78.39 1022.57,-90.21 982.99,-90.21 952.83,-78.39 952.83,-58.03 982.99,-46.21 1022.57,-46.21 1052.74,-58.03"/>
<text text-anchor="middle" x="1002.78" y="-64.51" font-family="Times,serif" font-size="14.00">Trait(14)</text>
</g>
<!-- Disease(6) -->
<g id="node7" class="node">
<title>Disease(6)</title>
<polygon fill="none" stroke="darkgreen" points="532.93,-372.76 532.93,-387.67 502.4,-398.21 459.23,-398.21 428.7,-387.67 428.7,-372.76 459.23,-362.21 502.4,-362.21 532.93,-372.76"/>
<polygon fill="none" stroke="darkgreen" points="536.93,-369.91 536.93,-390.52 503.07,-402.21 458.55,-402.21 424.7,-390.52 424.7,-369.91 458.55,-358.21 503.07,-358.21 536.93,-369.91"/>
<text text-anchor="middle" x="480.81" y="-376.51" font-family="Times,serif" font-size="14.00">Disease(6)</text>
</g>
<!-- CelComp(5) -->
<g id="node8" class="node">
<title>CelComp(5)</title>
<polygon fill="none" stroke="darkgreen" points="540.42,-310.76 540.42,-325.67 505.5,-336.21 456.12,-336.21 421.21,-325.67 421.21,-310.76 456.12,-300.21 505.5,-300.21 540.42,-310.76"/>
<polygon fill="none" stroke="darkgreen" points="544.41,-307.78 544.41,-328.64 506.09,-340.21 455.54,-340.21 417.22,-328.64 417.22,-307.78 455.54,-296.21 506.09,-296.21 544.41,-307.78"/>
<text text-anchor="middle" x="480.81" y="-314.51" font-family="Times,serif" font-size="14.00">CelComp(5)</text>
</g>
<!-- BioProc(4) -->
<g id="node10" class="node">
<title>BioProc(4)</title>
<polygon fill="none" stroke="darkgreen" points="535.14,-248.76 535.14,-263.67 503.32,-274.21 458.31,-274.21 426.49,-263.67 426.49,-248.76 458.31,-238.21 503.32,-238.21 535.14,-248.76"/>
<polygon fill="none" stroke="darkgreen" points="539.15,-245.87 539.15,-266.56 503.96,-278.21 457.66,-278.21 422.47,-266.56 422.47,-245.87 457.66,-234.21 503.96,-234.21 539.15,-245.87"/>
<text text-anchor="middle" x="480.81" y="-252.51" font-family="Times,serif" font-size="14.00">BioProc(4)</text>
</g>
<!-- Publication(2) -->
<g id="node11" class="node">
<title>Publication(2)</title>
<polygon fill="none" stroke="darkgreen" points="547.06,-186.76 547.06,-201.67 508.25,-212.21 453.37,-212.21 414.56,-201.67 414.56,-186.76 453.37,-176.21 508.25,-176.21 547.06,-186.76"/>
<polygon fill="none" stroke="darkgreen" points="551.07,-183.7 551.07,-204.73 508.79,-216.21 452.84,-216.21 410.56,-204.73 410.56,-183.7 452.84,-172.21 508.79,-172.21 551.07,-183.7"/>
<text text-anchor="middle" x="480.81" y="-190.51" font-family="Times,serif" font-size="14.00">Publication(2)</text>
</g>
<!-- Protein(10)&#45;&gt;MolFunc(3) -->
<g id="edge9" class="edge">
<title>Protein(10)&#45;&gt;MolFunc(3)</title>
<path fill="none" stroke="blue" d="M203.33,-426.99C214.5,-446.34 235.05,-476.6 261.68,-492.21 312.68,-522.11 340.98,-486.57 392.68,-515.21 403.14,-521.01 401.02,-528.17 410.68,-535.21 418.55,-540.95 427.64,-545.95 436.6,-550.18"/>
<text text-anchor="middle" x="327.18" y="-519.01" font-family="Times,serif" font-size="14.00">has_function</text>
</g>
<!-- Protein(10)&#45;&gt;EC(15) -->
<g id="edge5" class="edge">
<title>Protein(10)&#45;&gt;EC(15)</title>
<path fill="none" stroke="blue" d="M216.16,-425.3C228.92,-433.86 245.57,-443.89 261.68,-450.21 317.02,-471.93 335.11,-462.4 392.68,-477.21 409.09,-481.44 427.01,-486.85 442.3,-491.71"/>
<text text-anchor="middle" x="327.18" y="-481.01" font-family="Times,serif" font-size="14.00">cat_c</text>
</g>
<!-- Protein(10)&#45;&gt;Drug(11) -->
<g id="edge6" class="edge">
<title>Protein(10)&#45;&gt;Drug(11)</title>
<path fill="none" stroke="black" d="M241.51,-414.7C293.42,-420.69 376.22,-430.25 429.29,-436.38"/>
<text text-anchor="middle" x="327.18" y="-435.01" font-family="Times,serif" font-size="14.00">cooc_wi</text>
</g>
<!-- Protein(10)&#45;&gt;Disease(6) -->
<g id="edge10" class="edge">
<title>Protein(10)&#45;&gt;Disease(6)</title>
<path fill="none" stroke="black" d="M241.32,-403.49C248.15,-402.7 255.09,-401.92 261.68,-401.21 317.1,-395.27 380.53,-389.25 424.65,-385.19"/>
<text text-anchor="middle" x="327.18" y="-405.01" font-family="Times,serif" font-size="14.00">inv_in</text>
</g>
<!-- Protein(10)&#45;&gt;CelComp(5) -->
<g id="edge11" class="edge">
<title>Protein(10)&#45;&gt;CelComp(5)</title>
<path fill="none" stroke="blue" d="M216.89,-393.31C229.6,-385.1 245.97,-375.52 261.68,-369.21 312.21,-348.93 372.71,-335.58 417.16,-327.65"/>
<text text-anchor="middle" x="327.18" y="-373.01" font-family="Times,serif" font-size="14.00">located_in</text>
</g>
<!-- Protein(10)&#45;&gt;Protein(7) -->
<g id="edge13" class="edge">
<title>Protein(10)&#45;&gt;Protein(7)</title>
<path fill="none" stroke="blue" d="M196.11,-427.34C201.05,-460.87 216.57,-532.4 261.68,-568.21 307.98,-604.97 336,-574.44 392.68,-591.21 402.69,-594.17 424.21,-603.3 443.36,-611.75"/>
<text text-anchor="middle" x="327.18" y="-610.01" font-family="Times,serif" font-size="14.00">ortho(&lt;=5)</text>
<text text-anchor="middle" x="327.18" y="-595.01" font-family="Times,serif" font-size="14.00">xref</text>
</g>
<!-- Protein(10)&#45;&gt;Protein(7) -->
<g id="edge16" class="edge">
<title>Protein(10)&#45;&gt;Protein(7)</title>
<path fill="none" stroke="black" d="M198.64,-427.48C206.6,-454.71 225.59,-505.39 261.68,-530.21 310.16,-563.55 346.87,-512.31 392.68,-549.21 410.43,-563.5 395.09,-580.6 410.68,-597.21 415.28,-602.11 420.8,-606.29 426.68,-609.83"/>
<polygon fill="black" stroke="black" points="425.03,-612.92 435.49,-614.6 428.36,-606.76 425.03,-612.92"/>
<text text-anchor="middle" x="327.18" y="-553.01" font-family="Times,serif" font-size="14.00">it_wi(&lt;=5)</text>
</g>
<!-- Protein(10)&#45;&gt;BioProc(4) -->
<g id="edge14" class="edge">
<title>Protein(10)&#45;&gt;BioProc(4)</title>
<path fill="none" stroke="black" d="M201.76,-391.44C212.21,-369.66 232.86,-333.2 261.68,-313.21 309.62,-279.99 375.65,-266.13 422.47,-260.35"/>
<text text-anchor="middle" x="327.18" y="-317.01" font-family="Times,serif" font-size="14.00">participates_in</text>
</g>
<!-- Protein(10)&#45;&gt;Publication(2) -->
<g id="edge15" class="edge">
<title>Protein(10)&#45;&gt;Publication(2)</title>
<path fill="none" stroke="blue" d="M196.08,-391.04C200.99,-357 216.51,-283.62 261.68,-245.21 302.87,-210.2 363.64,-198.18 410.58,-194.5"/>
<text text-anchor="middle" x="327.18" y="-249.01" font-family="Times,serif" font-size="14.00">pub_in</text>
</g>
<!-- Protein(10)&#45;&gt;Protein(10) -->
<g id="edge12" class="edge">
<title>Protein(10)&#45;&gt;Protein(10)</title>
<path fill="none" stroke="black" d="M185.93,-427.37C184.85,-436.75 187.2,-445.21 192.99,-445.21 198.78,-445.21 201.13,-436.75 200.04,-427.37"/>
<text text-anchor="middle" x="192.99" y="-464.01" font-family="Times,serif" font-size="14.00">ortho(&lt;=5)</text>
<text text-anchor="middle" x="192.99" y="-449.01" font-family="Times,serif" font-size="14.00">xref</text>
</g>
<!-- Protein(10)&#45;&gt;Protein(10) -->
<g id="edge17" class="edge">
<title>Protein(10)&#45;&gt;Protein(10)</title>
<path fill="none" stroke="blue" d="M182.02,-427.12C174.71,-448.21 178.36,-475.21 192.99,-475.21 205.44,-475.21 209.94,-455.63 206.49,-436.8"/>
<polygon fill="blue" stroke="blue" points="209.87,-435.91 203.96,-427.12 203.1,-437.68 209.87,-435.91"/>
<text text-anchor="middle" x="192.99" y="-479.01" font-family="Times,serif" font-size="14.00">it_wi(&lt;=5)</text>
</g>
<!-- Drug(12) -->
<g id="node14" class="node">
<title>Drug(12)</title>
<ellipse fill="none" stroke="black" cx="480.81" cy="-136.21" rx="43.59" ry="18"/>
<text text-anchor="middle" x="480.81" y="-132.51" font-family="Times,serif" font-size="14.00">Drug(12)</text>
</g>
<!-- Protein(10)&#45;&gt;Drug(12) -->
<g id="edge7" class="edge">
<title>Protein(10)&#45;&gt;Drug(12)</title>
<path fill="none" stroke="blue" d="M193.38,-391.18C192.96,-347.33 198.42,-234.56 261.68,-177.21 309.93,-133.48 389.54,-129.62 438.08,-132.05"/>
<text text-anchor="middle" x="327.18" y="-181.01" font-family="Times,serif" font-size="14.00">cooc_wi</text>
</g>
<!-- Gene(17) -->
<g id="node15" class="node">
<title>Gene(17)</title>
<ellipse fill="none" stroke="black" cx="480.81" cy="-82.21" rx="44.39" ry="18"/>
<text text-anchor="middle" x="480.81" y="-78.51" font-family="Times,serif" font-size="14.00">Gene(17)</text>
</g>
<!-- Protein(10)&#45;&gt;Gene(17) -->
<g id="edge8" class="edge">
<title>Protein(10)&#45;&gt;Gene(17)</title>
<path fill="none" stroke="black" d="M195.49,-390.94C200.69,-332.3 219.96,-150.44 261.68,-112.21 309.88,-68.06 391.01,-69.5 439.58,-75.33"/>
<text text-anchor="middle" x="327.18" y="-116.01" font-family="Times,serif" font-size="14.00">enc</text>
</g>
<!-- SNP(13)&#45;&gt;Trait(14) -->
<g id="edge20" class="edge">
<title>SNP(13)&#45;&gt;Trait(14)</title>
<path fill="none" stroke="black" d="M815.81,-68.21C854.32,-68.21 912.1,-68.21 953.03,-68.21"/>
<text text-anchor="middle" x="891.56" y="-72.01" font-family="Times,serif" font-size="14.00">associated_with</text>
</g>
<!-- Gene(17)&#45;&gt;DGES(16) -->
<g id="edge18" class="edge">
<title>Gene(17)&#45;&gt;DGES(16)</title>
<path fill="none" stroke="black" d="M521.69,-89.06C572.47,-97.78 660.47,-112.89 717.7,-122.72"/>
<text text-anchor="middle" x="634.44" y="-122.01" font-family="Times,serif" font-size="14.00">differentially_expressed</text>
</g>
<!-- Gene(17)&#45;&gt;SNP(13) -->
<g id="edge19" class="edge">
<title>Gene(17)&#45;&gt;SNP(13)</title>
<path fill="none" stroke="blue" d="M524.78,-80.15C580.62,-77.46 677.45,-72.81 732.21,-70.17"/>
<text text-anchor="middle" x="634.44" y="-81.01" font-family="Times,serif" font-size="14.00">has_variation</text>
</g>
</g>
</svg>
