<svg width="1993px" height="1713px"
 viewBox="0.00 0.00 1494.90 1285.00" xmlns="http://www.w3.org/2000/svg" xmlns:xlink="http://www.w3.org/1999/xlink">
<g id="graph0" class="graph" transform=" rotate(0) translate(4 1281)">
<polygon fill="white" stroke="transparent" points="-4,4 -4,-1281 1490.9,-1281 1490.9,4 -4,4"/>
<!-- MolFunc(3) -->
<g id="node1" class="node">
<title>MolFunc(3)</title>
<polygon fill="none" stroke="darkgreen" points="991.32,-368.54 991.32,-383.46 957.18,-394 908.89,-394 874.75,-383.46 874.75,-368.54 908.89,-358 957.18,-358 991.32,-368.54"/>
<polygon fill="none" stroke="darkgreen" points="995.31,-365.59 995.31,-386.41 957.78,-398 908.29,-398 870.75,-386.41 870.75,-365.59 908.29,-354 957.78,-354 995.31,-365.59"/>
<text text-anchor="middle" x="933.03" y="-372.3" font-family="Times,serif" font-size="14.00">MolFunc(3)</text>
</g>
<!-- CelComp(5) -->
<g id="node2" class="node">
<title>CelComp(5)</title>
<polygon fill="none" stroke="darkgreen" points="992.64,-681.54 992.64,-696.46 957.72,-707 908.34,-707 873.43,-696.46 873.43,-681.54 908.34,-671 957.72,-671 992.64,-681.54"/>
<polygon fill="none" stroke="darkgreen" points="996.63,-678.57 996.63,-699.43 958.31,-711 907.76,-711 869.44,-699.43 869.44,-678.57 907.76,-667 958.31,-667 996.63,-678.57"/>
<text text-anchor="middle" x="933.03" y="-685.3" font-family="Times,serif" font-size="14.00">CelComp(5)</text>
</g>
<!-- BioProc(4) -->
<g id="node3" class="node">
<title>BioProc(4)</title>
<polygon fill="none" stroke="darkgreen" points="987.36,-491.54 987.36,-506.46 955.54,-517 910.53,-517 878.71,-506.46 878.71,-491.54 910.53,-481 955.54,-481 987.36,-491.54"/>
<polygon fill="none" stroke="darkgreen" points="991.37,-488.66 991.37,-509.34 956.19,-521 909.88,-521 874.7,-509.34 874.7,-488.66 909.88,-477 956.19,-477 991.37,-488.66"/>
<text text-anchor="middle" x="933.03" y="-495.3" font-family="Times,serif" font-size="14.00">BioProc(4)</text>
</g>
<!-- DGES(22) -->
<g id="node4" class="node">
<title>DGES(22)</title>
<polygon fill="none" stroke="darkgreen" points="985.15,-877.54 985.15,-892.46 954.62,-903 911.45,-903 880.92,-892.46 880.92,-877.54 911.45,-867 954.62,-867 985.15,-877.54"/>
<polygon fill="none" stroke="darkgreen" points="989.15,-874.69 989.15,-895.31 955.29,-907 910.78,-907 876.92,-895.31 876.92,-874.69 910.78,-863 955.29,-863 989.15,-874.69"/>
<text text-anchor="middle" x="933.03" y="-881.3" font-family="Times,serif" font-size="14.00">DGES(22)</text>
</g>
<!-- Gene(1) -->
<g id="node5" class="node">
<title>Gene(1)</title>
<ellipse fill="none" stroke="red" cx="43.65" cy="-973" rx="39.78" ry="39.78"/>
<ellipse fill="none" stroke="red" cx="43.65" cy="-973" rx="43.79" ry="43.79"/>
<text text-anchor="middle" x="43.65" y="-969.3" font-family="Times,serif" font-size="14.00">Gene(1)</text>
</g>
<!-- Gene(1)&#45;&gt;DGES(22) -->
<g id="edge5" class="edge">
<title>Gene(1)&#45;&gt;DGES(22)</title>
<path fill="none" stroke="black" d="M87.64,-974.46C223.26,-978.94 636.65,-991.47 695.91,-980 716.13,-976.08 832.21,-927.45 893.75,-901.34"/>
<text text-anchor="middle" x="397.58" y="-986.8" font-family="Times,serif" font-size="14.00">differentially_expressed</text>
</g>
<!-- Trait(21) -->
<g id="node6" class="node">
<title>Trait(21)</title>
<polygon fill="none" stroke="darkgreen" points="1462.71,-696.54 1462.71,-711.46 1435.8,-722 1397.74,-722 1370.83,-711.46 1370.83,-696.54 1397.74,-686 1435.8,-686 1462.71,-696.54"/>
<polygon fill="none" stroke="darkgreen" points="1466.72,-693.82 1466.72,-714.18 1436.56,-726 1396.98,-726 1366.81,-714.18 1366.81,-693.82 1396.98,-682 1436.56,-682 1466.72,-693.82"/>
<text text-anchor="middle" x="1416.77" y="-700.3" font-family="Times,serif" font-size="14.00">Trait(21)</text>
</g>
<!-- Gene(1)&#45;&gt;Trait(21) -->
<g id="edge4" class="edge">
<title>Gene(1)&#45;&gt;Trait(21)</title>
<path fill="none" stroke="blue" d="M51.56,-1015.95C59.63,-1056.94 75.78,-1119.21 105.29,-1166 144.07,-1227.47 165,-1262 237.69,-1262 237.69,-1262 237.69,-1262 1199.4,-1262 1316.42,-1262 1395.02,-830 1412.22,-726.22"/>
<text text-anchor="middle" x="779.41" y="-1265.8" font-family="Times,serif" font-size="14.00">cooc_wi</text>
</g>
<!-- Gene(8) -->
<g id="node8" class="node">
<title>Gene(8)</title>
<polygon fill="none" stroke="darkgreen" points="975.87,-939.54 975.87,-954.46 950.78,-965 915.29,-965 890.2,-954.46 890.2,-939.54 915.29,-929 950.78,-929 975.87,-939.54"/>
<polygon fill="none" stroke="darkgreen" points="979.86,-936.88 979.86,-957.12 951.58,-969 914.49,-969 886.21,-957.12 886.21,-936.88 914.49,-925 951.58,-925 979.86,-936.88"/>
<text text-anchor="middle" x="933.03" y="-943.3" font-family="Times,serif" font-size="14.00">Gene(8)</text>
</g>
<!-- Gene(1)&#45;&gt;Gene(8) -->
<g id="edge9" class="edge">
<title>Gene(1)&#45;&gt;Gene(8)</title>
<path fill="none" stroke="black" d="M82.39,-993.8C89.95,-997.89 97.85,-1002.12 105.29,-1006 130.84,-1019.33 136.01,-1025.71 163.29,-1035 235.65,-1059.65 256,-1060.63 332.08,-1068 560.24,-1090.1 633.39,-1101.35 844.91,-1013 870.12,-1002.47 894.54,-982.9 911.08,-967.8"/>
<text text-anchor="middle" x="397.58" y="-1127.8" font-family="Times,serif" font-size="14.00">genetic(&lt;=2)</text>
<text text-anchor="middle" x="397.58" y="-1112.8" font-family="Times,serif" font-size="14.00">homoeolog(&lt;=2)</text>
<text text-anchor="middle" x="397.58" y="-1097.8" font-family="Times,serif" font-size="14.00">physical(&lt;=2)</text>
<text text-anchor="middle" x="397.58" y="-1082.8" font-family="Times,serif" font-size="14.00">regulates(&lt;=2)</text>
</g>
<!-- Publication(2) -->
<g id="node10" class="node">
<title>Publication(2)</title>
<polygon fill="none" stroke="darkgreen" points="1483.02,-243.54 1483.02,-258.46 1444.21,-269 1389.33,-269 1350.52,-258.46 1350.52,-243.54 1389.33,-233 1444.21,-233 1483.02,-243.54"/>
<polygon fill="none" stroke="darkgreen" points="1487.03,-240.49 1487.03,-261.51 1444.75,-273 1388.79,-273 1346.51,-261.51 1346.51,-240.49 1388.79,-229 1444.75,-229 1487.03,-240.49"/>
<text text-anchor="middle" x="1416.77" y="-247.3" font-family="Times,serif" font-size="14.00">Publication(2)</text>
</g>
<!-- Gene(1)&#45;&gt;Publication(2) -->
<g id="edge12" class="edge">
<title>Gene(1)&#45;&gt;Publication(2)</title>
<path fill="none" stroke="blue" d="M46.13,-929.31C51.9,-781.76 77.01,-304.35 163.29,-182 185.97,-149.84 198.34,-134 237.69,-134 237.69,-134 237.69,-134 1199.4,-134 1278.4,-134 1356.22,-195.1 1393.3,-228.99"/>
<text text-anchor="middle" x="779.41" y="-137.8" font-family="Times,serif" font-size="14.00">occ_in</text>
</g>
<!-- Protein(7) -->
<g id="node12" class="node">
<title>Protein(7)</title>
<polygon fill="none" stroke="darkgreen" points="638.39,-941.54 638.39,-956.46 609.16,-967 567.82,-967 538.59,-956.46 538.59,-941.54 567.82,-931 609.16,-931 638.39,-941.54"/>
<polygon fill="none" stroke="darkgreen" points="642.39,-938.73 642.39,-959.27 609.86,-971 567.13,-971 534.6,-959.27 534.6,-938.73 567.13,-927 609.86,-927 642.39,-938.73"/>
<text text-anchor="middle" x="588.49" y="-945.3" font-family="Times,serif" font-size="14.00">Protein(7)</text>
</g>
<!-- Gene(1)&#45;&gt;Protein(7) -->
<g id="edge7" class="edge">
<title>Gene(1)&#45;&gt;Protein(7)</title>
<path fill="none" stroke="black" d="M86.16,-983.93C161.93,-1002.19 327.38,-1034.13 463.08,-1005 496.66,-997.79 532.11,-980.78 556.55,-967.39"/>
<text text-anchor="middle" x="238.69" y="-1019.8" font-family="Times,serif" font-size="14.00">enc</text>
</g>
<!-- Path(19) -->
<g id="node15" class="node">
<title>Path(19)</title>
<polygon fill="none" stroke="darkgreen" points="1242.56,-1153.54 1242.56,-1168.46 1216.69,-1179 1180.11,-1179 1154.25,-1168.46 1154.25,-1153.54 1180.11,-1143 1216.69,-1143 1242.56,-1153.54"/>
<polygon fill="none" stroke="darkgreen" points="1246.54,-1150.85 1246.54,-1171.15 1217.47,-1183 1179.33,-1183 1150.26,-1171.15 1150.26,-1150.85 1179.33,-1139 1217.47,-1139 1246.54,-1150.85"/>
<text text-anchor="middle" x="1198.4" y="-1157.3" font-family="Times,serif" font-size="14.00">Path(19)</text>
</g>
<!-- Gene(1)&#45;&gt;Path(19) -->
<g id="edge14" class="edge">
<title>Gene(1)&#45;&gt;Path(19)</title>
<path fill="none" stroke="blue" d="M56.4,-1015.01C78.91,-1085.27 135.22,-1219 237.69,-1219 237.69,-1219 237.69,-1219 934.03,-1219 1015.73,-1219 1108.42,-1192.05 1159.16,-1174.89"/>
<text text-anchor="middle" x="588.49" y="-1222.8" font-family="Times,serif" font-size="14.00">part_of</text>
</g>
<!-- Reaction(188) -->
<g id="node16" class="node">
<title>Reaction(188)</title>
<polygon fill="none" stroke="darkgreen" points="999.28,-1160.54 999.28,-1175.46 960.48,-1186 905.59,-1186 866.79,-1175.46 866.79,-1160.54 905.59,-1150 960.48,-1150 999.28,-1160.54"/>
<polygon fill="none" stroke="darkgreen" points="1003.29,-1157.49 1003.29,-1178.51 961.01,-1190 905.06,-1190 862.78,-1178.51 862.78,-1157.49 905.06,-1146 961.01,-1146 1003.29,-1157.49"/>
<text text-anchor="middle" x="933.03" y="-1164.3" font-family="Times,serif" font-size="14.00">Reaction(188)</text>
</g>
<!-- Gene(1)&#45;&gt;Reaction(188) -->
<g id="edge11" class="edge">
<title>Gene(1)&#45;&gt;Reaction(188)</title>
<path fill="none" stroke="black" d="M74.94,-1003.99C84.29,-1012.85 94.88,-1022.21 105.29,-1030 195.46,-1097.46 222.69,-1116.25 332.08,-1143 519.67,-1188.87 749.93,-1181.45 862.88,-1173.84"/>
<text text-anchor="middle" x="397.58" y="-1169.8" font-family="Times,serif" font-size="14.00">inv_in</text>
</g>
<!-- Protein(10) -->
<g id="node20" class="node">
<title>Protein(10)</title>
<ellipse fill="none" stroke="black" cx="238.69" cy="-689" rx="50.89" ry="18"/>
<text text-anchor="middle" x="238.69" y="-685.3" font-family="Times,serif" font-size="14.00">Protein(10)</text>
</g>
<!-- Gene(1)&#45;&gt;Protein(10) -->
<g id="edge6" class="edge">
<title>Gene(1)&#45;&gt;Protein(10)</title>
<path fill="none" stroke="blue" d="M68.9,-937.32C110.62,-875.94 194.49,-752.55 225.66,-706.69"/>
<text text-anchor="middle" x="125.29" y="-884.8" font-family="Times,serif" font-size="14.00">enc</text>
</g>
<!-- Gene(9) -->
<g id="node21" class="node">
<title>Gene(9)</title>
<ellipse fill="none" stroke="black" cx="588.49" cy="-412" rx="39.79" ry="18"/>
<text text-anchor="middle" x="588.49" y="-408.3" font-family="Times,serif" font-size="14.00">Gene(9)</text>
</g>
<!-- Gene(1)&#45;&gt;Gene(9) -->
<g id="edge8" class="edge">
<title>Gene(1)&#45;&gt;Gene(9)</title>
<path fill="none" stroke="blue" d="M51.29,-929.74C63.9,-857.34 96.29,-709.05 163.29,-602 218.3,-514.12 238.17,-484.92 332.08,-441 369.62,-423.44 487.15,-416.1 548.83,-413.39"/>
<text text-anchor="middle" x="238.69" y="-650.8" font-family="Times,serif" font-size="14.00">genetic(&lt;=2)</text>
<text text-anchor="middle" x="238.69" y="-635.8" font-family="Times,serif" font-size="14.00">homoeolog(&lt;=2)</text>
<text text-anchor="middle" x="238.69" y="-620.8" font-family="Times,serif" font-size="14.00">physical(&lt;=2)</text>
<text text-anchor="middle" x="238.69" y="-605.8" font-family="Times,serif" font-size="14.00">regulates(&lt;=2)</text>
</g>
<!-- SNP(20) -->
<g id="node22" class="node">
<title>SNP(20)</title>
<ellipse fill="none" stroke="black" cx="933.03" cy="-318" rx="41.69" ry="18"/>
<text text-anchor="middle" x="933.03" y="-314.3" font-family="Times,serif" font-size="14.00">SNP(20)</text>
</g>
<!-- Gene(1)&#45;&gt;SNP(20) -->
<g id="edge10" class="edge">
<title>Gene(1)&#45;&gt;SNP(20)</title>
<path fill="none" stroke="blue" d="M50.59,-929.7C59.9,-864.74 79.56,-738.43 105.29,-633 159.34,-411.56 133.07,-284.14 332.08,-173 382.4,-144.9 766.09,-191.19 844.91,-231 877.34,-247.38 905.12,-280.37 920.12,-300.69"/>
<text text-anchor="middle" x="397.58" y="-191.8" font-family="Times,serif" font-size="14.00">has_mutant</text>
<text text-anchor="middle" x="397.58" y="-176.8" font-family="Times,serif" font-size="14.00">has_variation</text>
</g>
<!-- CoExpCluster(23) -->
<g id="node23" class="node">
<title>CoExpCluster(23)</title>
<ellipse fill="none" stroke="black" cx="238.69" cy="-86" rx="75.29" ry="18"/>
<text text-anchor="middle" x="238.69" y="-82.3" font-family="Times,serif" font-size="14.00">CoExpCluster(23)</text>
</g>
<!-- Gene(1)&#45;&gt;CoExpCluster(23) -->
<g id="edge13" class="edge">
<title>Gene(1)&#45;&gt;CoExpCluster(23)</title>
<path fill="none" stroke="black" d="M44.55,-929.09C44.61,-761.12 48.82,-165.74 105.29,-105 121.18,-87.91 145,-81.31 168.07,-79.6"/>
<text text-anchor="middle" x="125.29" y="-108.8" font-family="Times,serif" font-size="14.00">part_of</text>
</g>
<!-- EC(15) -->
<g id="node7" class="node">
<title>EC(15)</title>
<polygon fill="none" stroke="darkgreen" points="627.79,-739.54 627.79,-754.46 604.77,-765 572.21,-765 549.19,-754.46 549.19,-739.54 572.21,-729 604.77,-729 627.79,-739.54"/>
<polygon fill="none" stroke="darkgreen" points="631.78,-736.97 631.78,-757.03 605.64,-769 571.35,-769 545.2,-757.03 545.2,-736.97 571.35,-725 605.64,-725 631.78,-736.97"/>
<text text-anchor="middle" x="588.49" y="-743.3" font-family="Times,serif" font-size="14.00">EC(15)</text>
</g>
<!-- Phenotype(13) -->
<g id="node9" class="node">
<title>Phenotype(13)</title>
<polygon fill="none" stroke="darkgreen" points="1265.97,-314.54 1265.97,-329.46 1226.39,-340 1170.41,-340 1130.83,-329.46 1130.83,-314.54 1170.41,-304 1226.39,-304 1265.97,-314.54"/>
<polygon fill="none" stroke="darkgreen" points="1269.97,-311.47 1269.97,-332.53 1226.91,-344 1169.89,-344 1126.83,-332.53 1126.83,-311.47 1169.89,-300 1226.91,-300 1269.97,-311.47"/>
<text text-anchor="middle" x="1198.4" y="-318.3" font-family="Times,serif" font-size="14.00">Phenotype(13)</text>
</g>
<!-- SNPEffect(26) -->
<g id="node11" class="node">
<title>SNPEffect(26)</title>
<polygon fill="none" stroke="darkgreen" points="1266.87,-252.54 1266.87,-267.46 1226.76,-278 1170.04,-278 1129.94,-267.46 1129.94,-252.54 1170.04,-242 1226.76,-242 1266.87,-252.54"/>
<polygon fill="none" stroke="darkgreen" points="1270.88,-249.46 1270.88,-270.54 1227.28,-282 1169.52,-282 1125.92,-270.54 1125.92,-249.46 1169.52,-238 1227.28,-238 1270.88,-249.46"/>
<text text-anchor="middle" x="1198.4" y="-256.3" font-family="Times,serif" font-size="14.00">SNPEffect(26)</text>
</g>
<!-- ProtDomain(14) -->
<g id="node13" class="node">
<title>ProtDomain(14)</title>
<polygon fill="none" stroke="darkgreen" points="663.13,-623.54 663.13,-638.46 619.41,-649 557.58,-649 513.86,-638.46 513.86,-623.54 557.58,-613 619.41,-613 663.13,-623.54"/>
<polygon fill="none" stroke="darkgreen" points="667.13,-620.39 667.13,-641.61 619.88,-653 557.1,-653 509.85,-641.61 509.85,-620.39 557.1,-609 619.88,-609 667.13,-620.39"/>
<text text-anchor="middle" x="588.49" y="-627.3" font-family="Times,serif" font-size="14.00">ProtDomain(14)</text>
</g>
<!-- Enzyme(177) -->
<g id="node14" class="node">
<title>Enzyme(177)</title>
<polygon fill="none" stroke="darkgreen" points="652.53,-561.54 652.53,-576.46 615.02,-587 561.97,-587 524.46,-576.46 524.46,-561.54 561.97,-551 615.02,-551 652.53,-561.54"/>
<polygon fill="none" stroke="darkgreen" points="656.53,-558.51 656.53,-579.49 615.57,-591 561.42,-591 520.46,-579.49 520.46,-558.51 561.42,-547 615.57,-547 656.53,-558.51"/>
<text text-anchor="middle" x="588.49" y="-565.3" font-family="Times,serif" font-size="14.00">Enzyme(177)</text>
</g>
<!-- PlantOntologyTerm(24) -->
<g id="node17" class="node">
<title>PlantOntologyTerm(24)</title>
<polygon fill="none" stroke="darkgreen" points="691.82,-76.54 691.82,-91.46 631.29,-102 545.69,-102 485.16,-91.46 485.16,-76.54 545.69,-66 631.29,-66 691.82,-76.54"/>
<polygon fill="none" stroke="darkgreen" points="695.82,-73.18 695.82,-94.82 631.64,-106 545.35,-106 481.17,-94.82 481.17,-73.18 545.35,-62 631.64,-62 695.82,-73.18"/>
<text text-anchor="middle" x="588.49" y="-80.3" font-family="Times,serif" font-size="14.00">PlantOntologyTerm(24)</text>
</g>
<!-- CoExpStudy(25) -->
<g id="node18" class="node">
<title>CoExpStudy(25)</title>
<polygon fill="none" stroke="darkgreen" points="664.45,-14.54 664.45,-29.46 619.95,-40 557.03,-40 512.54,-29.46 512.54,-14.54 557.03,-4 619.95,-4 664.45,-14.54"/>
<polygon fill="none" stroke="darkgreen" points="668.45,-11.38 668.45,-32.62 620.42,-44 556.56,-44 508.54,-32.62 508.54,-11.38 556.56,0 620.42,0 668.45,-11.38"/>
<text text-anchor="middle" x="588.49" y="-18.3" font-family="Times,serif" font-size="14.00">CoExpStudy(25)</text>
</g>
<!-- ProtDomain(11) -->
<g id="node19" class="node">
<title>ProtDomain(11)</title>
<ellipse fill="none" stroke="black" cx="588.49" cy="-689" rx="68.79" ry="18"/>
<text text-anchor="middle" x="588.49" y="-685.3" font-family="Times,serif" font-size="14.00">ProtDomain(11)</text>
</g>
<!-- ProtDomain(11)&#45;&gt;MolFunc(3) -->
<g id="edge1" class="edge">
<title>ProtDomain(11)&#45;&gt;MolFunc(3)</title>
<path fill="none" stroke="black" d="M655.23,-684.24C670.35,-680.17 685.14,-673.33 695.91,-662 724,-632.43 689.59,-604.75 713.91,-572 753.26,-519 798.32,-548.77 844.91,-502 856.97,-489.89 853.74,-482.43 862.91,-468 878.65,-443.21 899.1,-416.55 913.67,-398.35"/>
<text text-anchor="middle" x="779.41" y="-575.8" font-family="Times,serif" font-size="14.00">has_function</text>
</g>
<!-- ProtDomain(11)&#45;&gt;CelComp(5) -->
<g id="edge2" class="edge">
<title>ProtDomain(11)&#45;&gt;CelComp(5)</title>
<path fill="none" stroke="blue" d="M657.58,-689C719.23,-689 809.33,-689 869.27,-689"/>
<text text-anchor="middle" x="779.41" y="-692.8" font-family="Times,serif" font-size="14.00">located_in</text>
</g>
<!-- ProtDomain(11)&#45;&gt;BioProc(4) -->
<g id="edge3" class="edge">
<title>ProtDomain(11)&#45;&gt;BioProc(4)</title>
<path fill="none" stroke="black" d="M648.72,-680.23C713.88,-669.7 813.54,-650.71 844.91,-629 884.22,-601.78 910.66,-550.54 923.35,-521.18"/>
<text text-anchor="middle" x="779.41" y="-670.8" font-family="Times,serif" font-size="14.00">participates_in</text>
</g>
<!-- Protein(10)&#45;&gt;MolFunc(3) -->
<g id="edge24" class="edge">
<title>Protein(10)&#45;&gt;MolFunc(3)</title>
<path fill="none" stroke="black" d="M247.94,-671.14C263.39,-636.95 296.69,-559.52 314.08,-491 328.43,-434.46 300.11,-409.79 332.08,-361 374.61,-296.1 406.38,-291.01 481.08,-270 637.38,-226.04 719.88,-199.41 844.91,-303 860.54,-315.96 848.67,-330.52 862.91,-345 869.27,-351.47 877.23,-356.71 885.45,-360.9"/>
<text text-anchor="middle" x="588.49" y="-273.8" font-family="Times,serif" font-size="14.00">has_function</text>
</g>
<!-- Protein(10)&#45;&gt;CelComp(5) -->
<g id="edge27" class="edge">
<title>Protein(10)&#45;&gt;CelComp(5)</title>
<path fill="none" stroke="blue" d="M260.9,-705.4C278.9,-718.54 305.9,-736.46 332.08,-747 438.18,-789.73 741.03,-838.88 844.91,-791 880.44,-774.62 906.86,-735.81 920.82,-711.07"/>
<text text-anchor="middle" x="588.49" y="-813.8" font-family="Times,serif" font-size="14.00">located_in</text>
</g>
<!-- Protein(10)&#45;&gt;BioProc(4) -->
<g id="edge28" class="edge">
<title>Protein(10)&#45;&gt;BioProc(4)</title>
<path fill="none" stroke="black" d="M251.58,-671.54C267.6,-649.14 298.06,-610.28 332.08,-586 390.6,-544.23 411.02,-539.15 481.08,-523 554.23,-506.13 770.28,-501.07 874.51,-499.59"/>
<text text-anchor="middle" x="588.49" y="-526.8" font-family="Times,serif" font-size="14.00">participates_in</text>
</g>
<!-- Protein(10)&#45;&gt;Trait(21) -->
<g id="edge17" class="edge">
<title>Protein(10)&#45;&gt;Trait(21)</title>
<path fill="none" stroke="blue" d="M253.61,-706.41C270.33,-726.26 300.15,-758.5 332.08,-778 391.82,-814.48 412.03,-817.51 481.08,-829 826.28,-886.44 1246.65,-760.82 1376,-717.78"/>
<text text-anchor="middle" x="933.03" y="-835.8" font-family="Times,serif" font-size="14.00">cooc_wi</text>
</g>
<!-- Protein(10)&#45;&gt;EC(15) -->
<g id="edge15" class="edge">
<title>Protein(10)&#45;&gt;EC(15)</title>
<path fill="none" stroke="blue" d="M282.38,-698.26C297.98,-701.51 315.8,-705.08 332.08,-708 406.7,-721.36 494.11,-734.08 544.9,-741.18"/>
<text text-anchor="middle" x="397.58" y="-731.8" font-family="Times,serif" font-size="14.00">cat_c</text>
</g>
<!-- Protein(10)&#45;&gt;Gene(8) -->
<g id="edge19" class="edge">
<title>Protein(10)&#45;&gt;Gene(8)</title>
<path fill="none" stroke="blue" d="M243.69,-707.09C252.65,-742.82 277.89,-822.2 332.08,-859 365.76,-881.88 655.66,-896.82 695.91,-903 762.27,-913.18 838.55,-927.96 886.03,-937.53"/>
<text text-anchor="middle" x="588.49" y="-906.8" font-family="Times,serif" font-size="14.00">enc</text>
</g>
<!-- Protein(10)&#45;&gt;Publication(2) -->
<g id="edge29" class="edge">
<title>Protein(10)&#45;&gt;Publication(2)</title>
<path fill="none" stroke="blue" d="M287.06,-683.59C297.47,-680.15 307.38,-674.66 314.08,-666 340.96,-631.24 304.98,-305.58 332.08,-271 396.54,-188.73 743.18,-210 778.41,-210 778.41,-210 778.41,-210 1199.4,-210 1256.56,-210 1320.75,-223.98 1364.26,-235.62"/>
<text text-anchor="middle" x="933.03" y="-213.8" font-family="Times,serif" font-size="14.00">pub_in</text>
</g>
<!-- Protein(10)&#45;&gt;Protein(7) -->
<g id="edge21" class="edge">
<title>Protein(10)&#45;&gt;Protein(7)</title>
<path fill="none" stroke="blue" d="M242.57,-706.98C249.84,-746.05 272.78,-838.82 332.08,-884 379.1,-919.82 405.8,-892.39 463.08,-907 464.15,-907.27 509.83,-922.71 545.52,-934.79"/>
<text text-anchor="middle" x="397.58" y="-955.8" font-family="Times,serif" font-size="14.00">equivalent(&lt;=4)</text>
<text text-anchor="middle" x="397.58" y="-940.8" font-family="Times,serif" font-size="14.00">h_s_s(&lt;=4)</text>
<text text-anchor="middle" x="397.58" y="-925.8" font-family="Times,serif" font-size="14.00">ortho(&lt;=4)</text>
<text text-anchor="middle" x="397.58" y="-910.8" font-family="Times,serif" font-size="14.00">xref(&lt;=8)</text>
</g>
<!-- Protein(10)&#45;&gt;ProtDomain(14) -->
<g id="edge23" class="edge">
<title>Protein(10)&#45;&gt;ProtDomain(14)</title>
<path fill="none" stroke="blue" d="M282.38,-679.74C297.98,-676.49 315.8,-672.92 332.08,-670 391.69,-659.33 459.46,-649.07 510.2,-641.75"/>
<text text-anchor="middle" x="397.58" y="-673.8" font-family="Times,serif" font-size="14.00">has_domain</text>
</g>
<!-- Protein(10)&#45;&gt;Enzyme(177) -->
<g id="edge25" class="edge">
<title>Protein(10)&#45;&gt;Enzyme(177)</title>
<path fill="none" stroke="blue" d="M260.94,-672.5C278.96,-659.25 305.98,-641.08 332.08,-630 393.25,-604.04 467.55,-587.87 520.21,-578.75"/>
<text text-anchor="middle" x="397.58" y="-633.8" font-family="Times,serif" font-size="14.00">is_a</text>
</g>
<!-- Protein(10)&#45;&gt;ProtDomain(11) -->
<g id="edge22" class="edge">
<title>Protein(10)&#45;&gt;ProtDomain(11)</title>
<path fill="none" stroke="black" d="M289.52,-689C349.91,-689 451.95,-689 519.52,-689"/>
<text text-anchor="middle" x="397.58" y="-692.8" font-family="Times,serif" font-size="14.00">has_domain</text>
</g>
<!-- Protein(10)&#45;&gt;Protein(10) -->
<g id="edge20" class="edge">
<title>Protein(10)&#45;&gt;Protein(10)</title>
<path fill="none" stroke="black" d="M219,-705.66C214.62,-715.62 221.19,-725 238.69,-725 256.19,-725 262.75,-715.62 258.37,-705.66"/>
<text text-anchor="middle" x="238.69" y="-773.8" font-family="Times,serif" font-size="14.00">equivalent(&lt;=4)</text>
<text text-anchor="middle" x="238.69" y="-758.8" font-family="Times,serif" font-size="14.00">h_s_s(&lt;=4)</text>
<text text-anchor="middle" x="238.69" y="-743.8" font-family="Times,serif" font-size="14.00">ortho(&lt;=4)</text>
<text text-anchor="middle" x="238.69" y="-728.8" font-family="Times,serif" font-size="14.00">xref(&lt;=8)</text>
</g>
<!-- Protein(10)&#45;&gt;Gene(9) -->
<g id="edge18" class="edge">
<title>Protein(10)&#45;&gt;Gene(9)</title>
<path fill="none" stroke="black" d="M242.62,-670.98C250.05,-631.26 273.36,-535.67 332.08,-485 349.04,-470.37 487.32,-435.91 553.04,-420.14"/>
<text text-anchor="middle" x="397.58" y="-488.8" font-family="Times,serif" font-size="14.00">enc</text>
</g>
<!-- EC(12) -->
<g id="node24" class="node">
<title>EC(12)</title>
<ellipse fill="none" stroke="black" cx="588.49" cy="-358" rx="36.29" ry="18"/>
<text text-anchor="middle" x="588.49" y="-354.3" font-family="Times,serif" font-size="14.00">EC(12)</text>
</g>
<!-- Protein(10)&#45;&gt;EC(12) -->
<g id="edge16" class="edge">
<title>Protein(10)&#45;&gt;EC(12)</title>
<path fill="none" stroke="black" d="M247.05,-671.19C261.12,-636.75 292.4,-558.47 314.08,-491 323.51,-461.64 310.21,-445.73 332.08,-424 391.7,-364.77 497.08,-356.54 551.99,-356.63"/>
<text text-anchor="middle" x="397.58" y="-427.8" font-family="Times,serif" font-size="14.00">cat_c</text>
</g>
<!-- Enzyme(17) -->
<g id="node25" class="node">
<title>Enzyme(17)</title>
<ellipse fill="none" stroke="black" cx="588.49" cy="-1118" rx="54.69" ry="18"/>
<text text-anchor="middle" x="588.49" y="-1114.3" font-family="Times,serif" font-size="14.00">Enzyme(17)</text>
</g>
<!-- Protein(10)&#45;&gt;Enzyme(17) -->
<g id="edge26" class="edge">
<title>Protein(10)&#45;&gt;Enzyme(17)</title>
<path fill="none" stroke="black" d="M239.47,-707.32C239.86,-761.07 248.38,-920.1 332.08,-1008 374.53,-1052.58 406.53,-1028.68 463.08,-1053 497.56,-1067.83 535.58,-1088.34 560.4,-1102.33"/>
<text text-anchor="middle" x="397.58" y="-1056.8" font-family="Times,serif" font-size="14.00">is_a</text>
</g>
<!-- Gene(9)&#45;&gt;MolFunc(3) -->
<g id="edge35" class="edge">
<title>Gene(9)&#45;&gt;MolFunc(3)</title>
<path fill="none" stroke="black" d="M626.76,-407.27C651.46,-404.19 684.6,-400.18 713.91,-397 766.67,-391.28 826.7,-385.56 870.41,-381.54"/>
<text text-anchor="middle" x="779.41" y="-400.8" font-family="Times,serif" font-size="14.00">has_function</text>
</g>
<!-- Gene(9)&#45;&gt;CelComp(5) -->
<g id="edge37" class="edge">
<title>Gene(9)&#45;&gt;CelComp(5)</title>
<path fill="none" stroke="black" d="M616.85,-425.04C641.6,-438.32 676.97,-461.32 695.91,-492 719.4,-530.06 681.72,-559.95 713.91,-591 756.24,-631.85 791.69,-584.93 844.91,-610 872.8,-623.14 898.1,-648.26 914.16,-666.66"/>
<text text-anchor="middle" x="779.41" y="-613.8" font-family="Times,serif" font-size="14.00">located_in</text>
</g>
<!-- Gene(9)&#45;&gt;BioProc(4) -->
<g id="edge38" class="edge">
<title>Gene(9)&#45;&gt;BioProc(4)</title>
<path fill="none" stroke="blue" d="M616.58,-424.85C641.39,-436.15 679.41,-452.26 713.91,-462 721.65,-464.18 812.64,-479.35 874.63,-489.57"/>
<text text-anchor="middle" x="779.41" y="-486.8" font-family="Times,serif" font-size="14.00">participates_in</text>
</g>
<!-- Gene(9)&#45;&gt;DGES(22) -->
<g id="edge32" class="edge">
<title>Gene(9)&#45;&gt;DGES(22)</title>
<path fill="none" stroke="blue" d="M617.54,-424.64C642.77,-437.64 678.47,-460.44 695.91,-492 742.48,-576.32 671.11,-621.7 713.91,-708 748.72,-778.2 791.45,-768.71 844.91,-826 853.76,-835.49 852.92,-840.7 862.91,-849 872.06,-856.61 883.09,-863.24 893.63,-868.67"/>
<text text-anchor="middle" x="779.41" y="-829.8" font-family="Times,serif" font-size="14.00">differentially_expressed</text>
</g>
<!-- Gene(9)&#45;&gt;Trait(21) -->
<g id="edge31" class="edge">
<title>Gene(9)&#45;&gt;Trait(21)</title>
<path fill="none" stroke="black" d="M613.91,-425.98C638.24,-441.15 674.92,-467.61 695.91,-500 712.21,-525.16 691.93,-544.61 713.91,-565 716.96,-567.83 1208.22,-663.62 1366.93,-694.5"/>
<text text-anchor="middle" x="1064.66" y="-646.8" font-family="Times,serif" font-size="14.00">cooc_wi</text>
</g>
<!-- Gene(9)&#45;&gt;Gene(8) -->
<g id="edge34" class="edge">
<title>Gene(9)&#45;&gt;Gene(8)</title>
<path fill="none" stroke="blue" d="M617.77,-424.51C643.16,-437.42 678.97,-460.17 695.91,-492 714.14,-526.28 688.18,-811.92 713.91,-841 753.07,-885.27 799.91,-825.66 844.91,-864 863.52,-879.86 846.39,-897.96 862.91,-916 870.37,-924.15 880.37,-930.29 890.45,-934.86"/>
<text text-anchor="middle" x="779.41" y="-882.8" font-family="Times,serif" font-size="14.00">genetic(&lt;=8)</text>
<text text-anchor="middle" x="779.41" y="-867.8" font-family="Times,serif" font-size="14.00">physical(&lt;=8)</text>
</g>
<!-- Gene(9)&#45;&gt;Publication(2) -->
<g id="edge39" class="edge">
<title>Gene(9)&#45;&gt;Publication(2)</title>
<path fill="none" stroke="black" d="M626.94,-416.9C760.07,-433.6 1208.9,-483.35 1328.64,-412 1379.7,-381.58 1402.65,-309.69 1411.32,-273.15"/>
<text text-anchor="middle" x="1064.66" y="-452.8" font-family="Times,serif" font-size="14.00">pub_in</text>
</g>
<!-- Gene(9)&#45;&gt;Gene(9) -->
<g id="edge33" class="edge">
<title>Gene(9)&#45;&gt;Gene(9)</title>
<path fill="none" stroke="black" d="M559.21,-424.54C544.96,-435.87 554.72,-448 588.49,-448 622.26,-448 632.02,-435.87 617.78,-424.54"/>
<text text-anchor="middle" x="588.49" y="-466.8" font-family="Times,serif" font-size="14.00">genetic(&lt;=8)</text>
<text text-anchor="middle" x="588.49" y="-451.8" font-family="Times,serif" font-size="14.00">physical(&lt;=8)</text>
</g>
<!-- Gene(9)&#45;&gt;SNP(20) -->
<g id="edge36" class="edge">
<title>Gene(9)&#45;&gt;SNP(20)</title>
<path fill="none" stroke="blue" d="M627.29,-407.92C648.63,-404.31 675.1,-397.56 695.91,-385 706.14,-378.82 703.56,-370.99 713.91,-365 717.84,-362.72 833.64,-338.44 894.87,-325.7"/>
<text text-anchor="middle" x="779.41" y="-368.8" font-family="Times,serif" font-size="14.00">has_variation</text>
</g>
<!-- SNP(20)&#45;&gt;Phenotype(13) -->
<g id="edge40" class="edge">
<title>SNP(20)&#45;&gt;Phenotype(13)</title>
<path fill="none" stroke="black" d="M974.61,-318.62C1015.08,-319.23 1078.08,-320.19 1126.77,-320.93"/>
<text text-anchor="middle" x="1064.66" y="-323.8" font-family="Times,serif" font-size="14.00">associated_with</text>
</g>
<!-- SNP(20)&#45;&gt;SNPEffect(26) -->
<g id="edge42" class="edge">
<title>SNP(20)&#45;&gt;SNPEffect(26)</title>
<path fill="none" stroke="black" d="M970.38,-310C1013.28,-300.55 1085.27,-284.69 1136.68,-273.37"/>
<text text-anchor="middle" x="1064.66" y="-300.8" font-family="Times,serif" font-size="14.00">leads_to</text>
</g>
<!-- Phenotype(133) -->
<g id="node26" class="node">
<title>Phenotype(133)</title>
<ellipse fill="none" stroke="black" cx="1198.4" cy="-380" rx="66.89" ry="18"/>
<text text-anchor="middle" x="1198.4" y="-376.3" font-family="Times,serif" font-size="14.00">Phenotype(133)</text>
</g>
<!-- SNP(20)&#45;&gt;Phenotype(133) -->
<g id="edge41" class="edge">
<title>SNP(20)&#45;&gt;Phenotype(133)</title>
<path fill="none" stroke="blue" d="M969.63,-326.65C985.41,-330.46 1004.21,-334.98 1021.16,-339 1063.5,-349.03 1111.61,-360.2 1146.86,-368.35"/>
<text text-anchor="middle" x="1064.66" y="-362.8" font-family="Times,serif" font-size="14.00">associated_with</text>
</g>
<!-- CoExpCluster(23)&#45;&gt;BioProc(4) -->
<g id="edge48" class="edge">
<title>CoExpCluster(23)&#45;&gt;BioProc(4)</title>
<path fill="none" stroke="black" d="M249.97,-103.8C265.27,-129.07 296.12,-175.64 332.08,-206 389.36,-254.35 409.82,-261.75 481.08,-285 526.93,-299.96 661.21,-282.49 695.91,-316 728.39,-347.37 684.97,-381.33 713.91,-416 753.74,-463.72 786.84,-442.81 844.91,-465 860.07,-470.8 876.69,-477.25 891.3,-482.97"/>
<text text-anchor="middle" x="588.49" y="-319.8" font-family="Times,serif" font-size="14.00">enriched_for</text>
</g>
<!-- CoExpCluster(23)&#45;&gt;PlantOntologyTerm(24) -->
<g id="edge49" class="edge">
<title>CoExpCluster(23)&#45;&gt;PlantOntologyTerm(24)</title>
<path fill="none" stroke="blue" d="M314.3,-85.57C362.9,-85.29 427.07,-84.92 481,-84.61"/>
<text text-anchor="middle" x="397.58" y="-89.8" font-family="Times,serif" font-size="14.00">enriched_for</text>
</g>
<!-- CoExpCluster(23)&#45;&gt;CoExpStudy(25) -->
<g id="edge50" class="edge">
<title>CoExpCluster(23)&#45;&gt;CoExpStudy(25)</title>
<path fill="none" stroke="black" d="M294.33,-73.77C306.72,-71.11 319.84,-68.38 332.08,-66 393.03,-54.16 462.49,-42.3 513.57,-33.88"/>
<text text-anchor="middle" x="397.58" y="-69.8" font-family="Times,serif" font-size="14.00">part_of</text>
</g>
<!-- EC(12)&#45;&gt;MolFunc(3) -->
<g id="edge30" class="edge">
<title>EC(12)&#45;&gt;MolFunc(3)</title>
<path fill="none" stroke="blue" d="M620.11,-348.78C656.17,-337.93 711.51,-321.35 713.91,-321 771.52,-312.61 792.83,-294.96 844.91,-321 856.83,-326.96 852.49,-336.67 862.91,-345 870.3,-350.91 879.01,-355.95 887.7,-360.14"/>
<text text-anchor="middle" x="779.41" y="-324.8" font-family="Times,serif" font-size="14.00">equ</text>
</g>
<!-- Enzyme(17)&#45;&gt;Reaction(188) -->
<g id="edge46" class="edge">
<title>Enzyme(17)&#45;&gt;Reaction(188)</title>
<path fill="none" stroke="black" d="M642.69,-1120.81C694.62,-1124.17 775.69,-1131.04 844.91,-1144 856.78,-1146.22 869.39,-1149.28 881.23,-1152.47"/>
<text text-anchor="middle" x="779.41" y="-1147.8" font-family="Times,serif" font-size="14.00">ca_by</text>
</g>
<!-- Reaction(18) -->
<g id="node27" class="node">
<title>Reaction(18)</title>
<ellipse fill="none" stroke="black" cx="933.03" cy="-1107" rx="56.59" ry="18"/>
<text text-anchor="middle" x="933.03" y="-1103.3" font-family="Times,serif" font-size="14.00">Reaction(18)</text>
</g>
<!-- Enzyme(17)&#45;&gt;Reaction(18) -->
<g id="edge45" class="edge">
<title>Enzyme(17)&#45;&gt;Reaction(18)</title>
<path fill="none" stroke="blue" d="M640.26,-1111.99C662.78,-1109.61 689.63,-1107.17 713.91,-1106 772.06,-1103.2 786.69,-1105.67 844.91,-1106 855.04,-1106.06 865.84,-1106.15 876.26,-1106.26"/>
<text text-anchor="middle" x="779.41" y="-1109.8" font-family="Times,serif" font-size="14.00">ca_by</text>
</g>
<!-- Phenotype(133)&#45;&gt;Trait(21) -->
<g id="edge43" class="edge">
<title>Phenotype(133)&#45;&gt;Trait(21)</title>
<path fill="none" stroke="black" d="M1214.2,-397.77C1239.12,-428.08 1290.51,-492.1 1328.64,-550 1358.46,-595.28 1388.58,-651.33 1404.41,-681.77"/>
<text text-anchor="middle" x="1308.64" y="-553.8" font-family="Times,serif" font-size="14.00">part_of</text>
</g>
<!-- Phenotype(133)&#45;&gt;Publication(2) -->
<g id="edge44" class="edge">
<title>Phenotype(133)&#45;&gt;Publication(2)</title>
<path fill="none" stroke="blue" d="M1241.24,-366.15C1251.09,-362.34 1261.41,-357.89 1270.64,-353 1314.45,-329.78 1360.56,-295.42 1388.74,-273.12"/>
<text text-anchor="middle" x="1308.64" y="-344.8" font-family="Times,serif" font-size="14.00">pub_in</text>
</g>
<!-- Reaction(18)&#45;&gt;Path(19) -->
<g id="edge47" class="edge">
<title>Reaction(18)&#45;&gt;Path(19)</title>
<path fill="none" stroke="blue" d="M981.12,-1116.65C1028.76,-1126.42 1102.02,-1141.44 1149.84,-1151.25"/>
<text text-anchor="middle" x="1064.66" y="-1144.8" font-family="Times,serif" font-size="14.00">part_of</text>
</g>
</g>
</svg>
