<svg width="1385px" height="1023px"
 viewBox="0.00 0.00 1038.67 767.00" xmlns="http://www.w3.org/2000/svg" xmlns:xlink="http://www.w3.org/1999/xlink">
<g id="graph0" class="graph" transform=" rotate(0) translate(4 763)">
<title>%3</title>
<polygon fill="white" stroke="transparent" points="-4,4 -4,-763 1034.67,-763 1034.67,4 -4,4"/>
<!-- Gene(8) -->
<g id="node1" class="node">
<title>Gene(8)</title>
<polygon fill="none" stroke="darkgreen" points="777.75,-592.54 777.75,-607.46 753.08,-618 718.2,-618 693.53,-607.46 693.53,-592.54 718.2,-582 753.08,-582 777.75,-592.54"/>
<polygon fill="none" stroke="darkgreen" points="781.73,-589.9 781.73,-610.1 753.9,-622 717.38,-622 689.55,-610.1 689.55,-589.9 717.38,-578 753.9,-578 781.73,-589.9"/>
<text text-anchor="middle" x="735.64" y="-595.8" font-family="Times,serif" font-size="14.00">Gene(8)</text>
</g>
<!-- CelComp(5) -->
<g id="node2" class="node">
<title>CelComp(5)</title>
<polygon fill="none" stroke="darkgreen" points="794.24,-414.54 794.24,-429.46 759.91,-440 711.37,-440 677.04,-429.46 677.04,-414.54 711.37,-404 759.91,-404 794.24,-414.54"/>
<polygon fill="none" stroke="darkgreen" points="798.23,-411.59 798.23,-432.41 760.51,-444 710.77,-444 673.05,-432.41 673.05,-411.59 710.77,-400 760.51,-400 798.23,-411.59"/>
<text text-anchor="middle" x="735.64" y="-417.8" font-family="Times,serif" font-size="14.00">CelComp(5)</text>
</g>
<!-- TO(16) -->
<g id="node3" class="node">
<title>TO(16)</title>
<polygon fill="none" stroke="darkgreen" points="775.1,-352.54 775.1,-367.46 751.98,-378 719.3,-378 696.18,-367.46 696.18,-352.54 719.3,-342 751.98,-342 775.1,-352.54"/>
<polygon fill="none" stroke="darkgreen" points="779.1,-349.97 779.1,-370.03 752.85,-382 718.43,-382 692.18,-370.03 692.18,-349.97 718.43,-338 752.85,-338 779.1,-349.97"/>
<text text-anchor="middle" x="735.64" y="-355.8" font-family="Times,serif" font-size="14.00">TO(16)</text>
</g>
<!-- MolFunc(3) -->
<g id="node4" class="node">
<title>MolFunc(3)</title>
<polygon fill="none" stroke="darkgreen" points="793.03,-89.54 793.03,-104.46 759.41,-115 711.87,-115 678.25,-104.46 678.25,-89.54 711.87,-79 759.41,-79 793.03,-89.54"/>
<polygon fill="none" stroke="darkgreen" points="797.04,-86.61 797.04,-107.39 760.03,-119 711.25,-119 674.24,-107.39 674.24,-86.61 711.25,-75 760.03,-75 797.04,-86.61"/>
<text text-anchor="middle" x="735.64" y="-92.8" font-family="Times,serif" font-size="14.00">MolFunc(3)</text>
</g>
<!-- Phenotype(13) -->
<g id="node5" class="node">
<title>Phenotype(13)</title>
<polygon fill="none" stroke="darkgreen" points="802.75,-290.54 802.75,-305.46 763.44,-316 707.84,-316 668.53,-305.46 668.53,-290.54 707.84,-280 763.44,-280 802.75,-290.54"/>
<polygon fill="none" stroke="darkgreen" points="806.74,-287.47 806.74,-308.53 763.96,-320 707.32,-320 664.55,-308.53 664.55,-287.47 707.32,-276 763.96,-276 806.74,-287.47"/>
<text text-anchor="middle" x="735.64" y="-293.8" font-family="Times,serif" font-size="14.00">Phenotype(13)</text>
</g>
<!-- Trait(21) -->
<g id="node6" class="node">
<title>Trait(21)</title>
<polygon fill="none" stroke="darkgreen" points="1026.82,-472.54 1026.82,-487.46 1000.28,-498 962.75,-498 936.21,-487.46 936.21,-472.54 962.75,-462 1000.28,-462 1026.82,-472.54"/>
<polygon fill="none" stroke="darkgreen" points="1030.83,-469.83 1030.83,-490.17 1001.05,-502 961.98,-502 932.2,-490.17 932.2,-469.83 961.98,-458 1001.05,-458 1030.83,-469.83"/>
<text text-anchor="middle" x="981.52" y="-475.8" font-family="Times,serif" font-size="14.00">Trait(21)</text>
</g>
<!-- BioProc(4) -->
<g id="node7" class="node">
<title>BioProc(4)</title>
<polygon fill="none" stroke="darkgreen" points="789.09,-183.54 789.09,-198.46 757.78,-209 713.5,-209 682.19,-198.46 682.19,-183.54 713.5,-173 757.78,-173 789.09,-183.54"/>
<polygon fill="none" stroke="darkgreen" points="793.09,-180.67 793.09,-201.33 758.44,-213 712.84,-213 678.19,-201.33 678.19,-180.67 712.84,-169 758.44,-169 793.09,-180.67"/>
<text text-anchor="middle" x="735.64" y="-186.8" font-family="Times,serif" font-size="14.00">BioProc(4)</text>
</g>
<!-- Publication(2) -->
<g id="node8" class="node">
<title>Publication(2)</title>
<polygon fill="none" stroke="darkgreen" points="801.54,-530.54 801.54,-545.46 762.93,-556 708.35,-556 669.74,-545.46 669.74,-530.54 708.35,-520 762.93,-520 801.54,-530.54"/>
<polygon fill="none" stroke="darkgreen" points="805.55,-527.49 805.55,-548.51 763.47,-560 707.81,-560 665.73,-548.51 665.73,-527.49 707.81,-516 763.47,-516 805.55,-527.49"/>
<text text-anchor="middle" x="735.64" y="-533.8" font-family="Times,serif" font-size="14.00">Publication(2)</text>
</g>
<!-- EC(15) -->
<g id="node9" class="node">
<title>EC(15)</title>
<polygon fill="none" stroke="darkgreen" points="485.69,-296.54 485.69,-311.46 462.71,-322 430.21,-322 407.24,-311.46 407.24,-296.54 430.21,-286 462.71,-286 485.69,-296.54"/>
<polygon fill="none" stroke="darkgreen" points="489.7,-293.98 489.7,-314.02 463.59,-326 429.33,-326 403.22,-314.02 403.22,-293.98 429.33,-282 463.59,-282 489.7,-293.98"/>
<text text-anchor="middle" x="446.46" y="-299.8" font-family="Times,serif" font-size="14.00">EC(15)</text>
</g>
<!-- Gene(1) -->
<g id="node10" class="node">
<title>Gene(1)</title>
<ellipse fill="none" stroke="red" cx="43.08" cy="-570" rx="39.15" ry="39.15"/>
<ellipse fill="none" stroke="red" cx="43.08" cy="-570" rx="43.15" ry="43.15"/>
<text text-anchor="middle" x="43.08" y="-565.8" font-family="Times,serif" font-size="14.00">Gene(1)</text>
</g>
<!-- Protein(7) -->
<g id="node11" class="node">
<title>Protein(7)</title>
<polygon fill="none" stroke="darkgreen" points="495.98,-729.54 495.98,-744.46 466.97,-755 425.95,-755 396.94,-744.46 396.94,-729.54 425.95,-719 466.97,-719 495.98,-729.54"/>
<polygon fill="none" stroke="darkgreen" points="499.97,-726.74 499.97,-747.26 467.67,-759 425.25,-759 392.96,-747.26 392.96,-726.74 425.25,-715 467.67,-715 499.97,-726.74"/>
<text text-anchor="middle" x="446.46" y="-732.8" font-family="Times,serif" font-size="14.00">Protein(7)</text>
</g>
<!-- Gene(1)&#45;&gt;Protein(7) -->
<g id="edge12" class="edge">
<title>Gene(1)&#45;&gt;Protein(7)</title>
<path fill="none" stroke="blue" d="M71.93,-602.43C109.72,-643.66 181.59,-712.75 260.35,-740 303.18,-754.82 354.99,-752.4 392.89,-747.24"/>
<text text-anchor="middle" x="191.97" y="-734.8" font-family="Times,serif" font-size="14.00">enc</text>
</g>
<!-- Protein(10) -->
<g id="node18" class="node">
<title>Protein(10)</title>
<ellipse fill="none" stroke="black" cx="191.97" cy="-379" rx="50.27" ry="18"/>
<text text-anchor="middle" x="191.97" y="-374.8" font-family="Times,serif" font-size="14.00">Protein(10)</text>
</g>
<!-- Gene(1)&#45;&gt;Protein(10) -->
<g id="edge11" class="edge">
<title>Gene(1)&#45;&gt;Protein(10)</title>
<path fill="none" stroke="black" d="M70,-536.29C101.46,-495.38 153.31,-427.96 177.62,-396.36"/>
<text text-anchor="middle" x="113.87" y="-493.8" font-family="Times,serif" font-size="14.00">enc</text>
</g>
<!-- ProtDomain(14) -->
<g id="node12" class="node">
<title>ProtDomain(14)</title>
<polygon fill="none" stroke="darkgreen" points="520.32,-234.54 520.32,-249.46 477.05,-260 415.87,-260 372.61,-249.46 372.61,-234.54 415.87,-224 477.05,-224 520.32,-234.54"/>
<polygon fill="none" stroke="darkgreen" points="524.32,-231.4 524.32,-252.6 477.54,-264 415.39,-264 368.6,-252.6 368.6,-231.4 415.39,-220 477.54,-220 524.32,-231.4"/>
<text text-anchor="middle" x="446.46" y="-237.8" font-family="Times,serif" font-size="14.00">ProtDomain(14)</text>
</g>
<!-- Reaction(188) -->
<g id="node13" class="node">
<title>Reaction(188)</title>
<polygon fill="none" stroke="darkgreen" points="801.52,-654.54 801.52,-669.46 762.93,-680 708.35,-680 669.76,-669.46 669.76,-654.54 708.35,-644 762.93,-644 801.52,-654.54"/>
<polygon fill="none" stroke="darkgreen" points="805.53,-651.49 805.53,-672.51 763.47,-684 707.81,-684 665.75,-672.51 665.75,-651.49 707.81,-640 763.47,-640 805.53,-651.49"/>
<text text-anchor="middle" x="735.64" y="-657.8" font-family="Times,serif" font-size="14.00">Reaction(188)</text>
</g>
<!-- Path(19) -->
<g id="node14" class="node">
<title>Path(19)</title>
<polygon fill="none" stroke="darkgreen" points="1025.33,-712.54 1025.33,-727.46 999.66,-738 963.37,-738 937.7,-727.46 937.7,-712.54 963.37,-702 999.66,-702 1025.33,-712.54"/>
<polygon fill="none" stroke="darkgreen" points="1029.32,-709.86 1029.32,-730.14 1000.45,-742 962.58,-742 933.71,-730.14 933.71,-709.86 962.58,-698 1000.45,-698 1029.32,-709.86"/>
<text text-anchor="middle" x="981.52" y="-715.8" font-family="Times,serif" font-size="14.00">Path(19)</text>
</g>
<!-- Enzyme(177) -->
<g id="node15" class="node">
<title>Enzyme(177)</title>
<polygon fill="none" stroke="darkgreen" points="509.53,-172.54 509.53,-187.46 472.58,-198 420.34,-198 383.39,-187.46 383.39,-172.54 420.34,-162 472.58,-162 509.53,-172.54"/>
<polygon fill="none" stroke="darkgreen" points="513.53,-169.53 513.53,-190.47 473.14,-202 419.78,-202 379.39,-190.47 379.39,-169.53 419.78,-158 473.14,-158 513.53,-169.53"/>
<text text-anchor="middle" x="446.46" y="-175.8" font-family="Times,serif" font-size="14.00">Enzyme(177)</text>
</g>
<!-- Gene(9) -->
<g id="node16" class="node">
<title>Gene(9)</title>
<ellipse fill="none" stroke="black" cx="446.46" cy="-412" rx="39.15" ry="18"/>
<text text-anchor="middle" x="446.46" y="-407.8" font-family="Times,serif" font-size="14.00">Gene(9)</text>
</g>
<!-- Gene(9)&#45;&gt;Gene(8) -->
<g id="edge2" class="edge">
<title>Gene(9)&#45;&gt;Gene(8)</title>
<path fill="none" stroke="black" d="M465.59,-427.86C482.08,-442.84 506.46,-466.47 524.14,-490 533.95,-503.04 529.89,-511.22 542.14,-522 565.63,-542.67 645.7,-571.15 694.87,-587.36"/>
<text text-anchor="middle" x="594.24" y="-586.8" font-family="Times,serif" font-size="14.00">genetic(&lt;=8)</text>
<text text-anchor="middle" x="594.24" y="-572.8" font-family="Times,serif" font-size="14.00">physical(&lt;=8)</text>
</g>
<!-- Gene(9)&#45;&gt;CelComp(5) -->
<g id="edge7" class="edge">
<title>Gene(9)&#45;&gt;CelComp(5)</title>
<path fill="none" stroke="blue" d="M485.27,-409.88C525.31,-408.04 590.36,-406.21 646.34,-410 654.99,-410.58 664.07,-411.49 673,-412.54"/>
<text text-anchor="middle" x="594.24" y="-412.8" font-family="Times,serif" font-size="14.00">located_in</text>
</g>
<!-- Gene(9)&#45;&gt;TO(16) -->
<g id="edge1" class="edge">
<title>Gene(9)&#45;&gt;TO(16)</title>
<path fill="none" stroke="blue" d="M480.6,-403.19C498.7,-398.56 521.56,-393.04 542.14,-389 593.38,-378.94 652.89,-370.46 692.02,-365.32"/>
<text text-anchor="middle" x="594.24" y="-391.8" font-family="Times,serif" font-size="14.00">cooc_wi</text>
</g>
<!-- Gene(9)&#45;&gt;MolFunc(3) -->
<g id="edge4" class="edge">
<title>Gene(9)&#45;&gt;MolFunc(3)</title>
<path fill="none" stroke="black" d="M482.95,-405.52C497.98,-400.93 514.27,-393.15 524.14,-380 566.85,-323.13 498.62,-277.25 542.14,-221 572.5,-181.77 605.81,-209.59 646.34,-181 656.39,-173.91 655.75,-168.79 664.34,-160 678.55,-145.47 695.49,-130.24 709.18,-118.39"/>
<text text-anchor="middle" x="594.24" y="-223.8" font-family="Times,serif" font-size="14.00">has_function</text>
</g>
<!-- Gene(9)&#45;&gt;Phenotype(13) -->
<g id="edge5" class="edge">
<title>Gene(9)&#45;&gt;Phenotype(13)</title>
<path fill="none" stroke="blue" d="M482.72,-404.9C497.51,-400.2 513.68,-392.5 524.14,-380 547.82,-351.72 513.44,-322.15 542.14,-299 560.52,-284.18 617.22,-285.41 664.36,-289.49"/>
<text text-anchor="middle" x="594.24" y="-301.8" font-family="Times,serif" font-size="14.00">has_observ_pheno</text>
</g>
<!-- Gene(9)&#45;&gt;BioProc(4) -->
<g id="edge8" class="edge">
<title>Gene(9)&#45;&gt;BioProc(4)</title>
<path fill="none" stroke="black" d="M483.07,-405.19C497.93,-400.54 514.05,-392.8 524.14,-380 555.35,-340.4 508.55,-305.59 542.14,-268 574.18,-232.16 601.78,-257.04 646.34,-239 666.07,-231.01 687.05,-219.74 703.61,-210.12"/>
<text text-anchor="middle" x="594.24" y="-270.8" font-family="Times,serif" font-size="14.00">participates_in</text>
</g>
<!-- Gene(9)&#45;&gt;Publication(2) -->
<g id="edge9" class="edge">
<title>Gene(9)&#45;&gt;Publication(2)</title>
<path fill="none" stroke="blue" d="M472.45,-425.78C491.35,-435.99 518.07,-449.99 542.14,-461 591.4,-483.54 649.28,-506.19 688.61,-521.03"/>
<text text-anchor="middle" x="594.24" y="-506.8" font-family="Times,serif" font-size="14.00">pub_in</text>
</g>
<!-- Gene(9)&#45;&gt;Gene(9) -->
<g id="edge3" class="edge">
<title>Gene(9)&#45;&gt;Gene(9)</title>
<path fill="none" stroke="blue" d="M423.04,-426.79C415.41,-437.42 423.22,-448 446.46,-448 469.7,-448 477.51,-437.42 469.88,-426.79"/>
<text text-anchor="middle" x="446.46" y="-464.8" font-family="Times,serif" font-size="14.00">genetic(&lt;=8)</text>
<text text-anchor="middle" x="446.46" y="-450.8" font-family="Times,serif" font-size="14.00">physical(&lt;=8)</text>
</g>
<!-- SNP(20) -->
<g id="node17" class="node">
<title>SNP(20)</title>
<ellipse fill="none" stroke="black" cx="735.64" cy="-480" rx="41.13" ry="18"/>
<text text-anchor="middle" x="735.64" y="-475.8" font-family="Times,serif" font-size="14.00">SNP(20)</text>
</g>
<!-- Gene(9)&#45;&gt;SNP(20) -->
<g id="edge6" class="edge">
<title>Gene(9)&#45;&gt;SNP(20)</title>
<path fill="none" stroke="black" d="M484.56,-416.46C524.85,-421.78 590.87,-431.89 646.34,-447 652.19,-448.59 680.78,-459.37 703.87,-468.19"/>
<text text-anchor="middle" x="594.24" y="-449.8" font-family="Times,serif" font-size="14.00">has_variation</text>
</g>
<!-- SNP(20)&#45;&gt;Trait(21) -->
<g id="edge10" class="edge">
<title>SNP(20)&#45;&gt;Trait(21)</title>
<path fill="none" stroke="black" d="M776.91,-480C819.53,-480 886.77,-480 932.21,-480"/>
<text text-anchor="middle" x="869.65" y="-482.8" font-family="Times,serif" font-size="14.00">associated_with</text>
</g>
<!-- Protein(10)&#45;&gt;Gene(8) -->
<g id="edge15" class="edge">
<title>Protein(10)&#45;&gt;Gene(8)</title>
<path fill="none" stroke="blue" d="M199.24,-396.93C209.16,-423.51 230.48,-474.01 260.35,-509 299.24,-554.55 312.18,-569.43 368.78,-589 478.84,-627.05 618.8,-616.26 689.46,-607.06"/>
<text text-anchor="middle" x="446.46" y="-617.8" font-family="Times,serif" font-size="14.00">enc</text>
</g>
<!-- Protein(10)&#45;&gt;CelComp(5) -->
<g id="edge24" class="edge">
<title>Protein(10)&#45;&gt;CelComp(5)</title>
<path fill="none" stroke="black" d="M213.05,-395.51C244.19,-420.03 306.98,-465.29 368.78,-485 427.61,-503.76 595.21,-532.62 646.34,-498 664.18,-485.92 649.38,-468.49 664.34,-453 670.74,-446.38 678.79,-441.08 687.15,-436.86"/>
<text text-anchor="middle" x="446.46" y="-514.8" font-family="Times,serif" font-size="14.00">located_in</text>
</g>
<!-- Protein(10)&#45;&gt;MolFunc(3) -->
<g id="edge21" class="edge">
<title>Protein(10)&#45;&gt;MolFunc(3)</title>
<path fill="none" stroke="blue" d="M192.85,-360.96C193.5,-316.38 201.13,-199.56 260.35,-130 294.64,-89.74 317.08,-92.14 368.78,-81 475.84,-57.93 604.46,-73.15 677.16,-85.58"/>
<text text-anchor="middle" x="446.46" y="-83.8" font-family="Times,serif" font-size="14.00">has_function</text>
</g>
<!-- Protein(10)&#45;&gt;BioProc(4) -->
<g id="edge25" class="edge">
<title>Protein(10)&#45;&gt;BioProc(4)</title>
<path fill="none" stroke="blue" d="M241.69,-375.76C328.9,-369.49 504.45,-354.58 524.14,-335 565.5,-293.87 499.58,-244.88 542.14,-205 561.15,-187.19 628.09,-185.85 677.72,-187.54"/>
<text text-anchor="middle" x="446.46" y="-366.8" font-family="Times,serif" font-size="14.00">participates_in</text>
</g>
<!-- Protein(10)&#45;&gt;Publication(2) -->
<g id="edge26" class="edge">
<title>Protein(10)&#45;&gt;Publication(2)</title>
<path fill="none" stroke="black" d="M203.35,-396.74C215.28,-416.02 236.34,-446.89 260.35,-468 302.05,-504.65 317.31,-509.2 368.78,-530 442.48,-559.78 463.26,-564.15 542.14,-574 588.1,-579.74 600.9,-582.91 646.34,-574 655.93,-572.12 675.44,-564.33 693.68,-556.47"/>
<text text-anchor="middle" x="446.46" y="-573.8" font-family="Times,serif" font-size="14.00">pub_in</text>
</g>
<!-- Protein(10)&#45;&gt;EC(15) -->
<g id="edge13" class="edge">
<title>Protein(10)&#45;&gt;EC(15)</title>
<path fill="none" stroke="blue" d="M212.63,-362.56C225.43,-352.73 242.94,-340.85 260.35,-334 307.16,-315.59 364.89,-308.47 403.31,-305.73"/>
<text text-anchor="middle" x="305.57" y="-336.8" font-family="Times,serif" font-size="14.00">cat_c</text>
</g>
<!-- Protein(10)&#45;&gt;Protein(7) -->
<g id="edge18" class="edge">
<title>Protein(10)&#45;&gt;Protein(7)</title>
<path fill="none" stroke="black" d="M194.89,-397.36C201.16,-453.75 222.81,-622.91 260.35,-661 289.46,-690.53 312.26,-668.63 350.78,-684 373.7,-693.15 397.96,-706.81 416.18,-717.97"/>
<text text-anchor="middle" x="305.57" y="-728.8" font-family="Times,serif" font-size="14.00">equivalent(&lt;=4)</text>
<text text-anchor="middle" x="305.57" y="-714.8" font-family="Times,serif" font-size="14.00">h_s_s(&lt;=4)</text>
<text text-anchor="middle" x="305.57" y="-700.8" font-family="Times,serif" font-size="14.00">ortho(&lt;=4)</text>
<text text-anchor="middle" x="305.57" y="-686.8" font-family="Times,serif" font-size="14.00">xref(&lt;=6)</text>
</g>
<!-- Protein(10)&#45;&gt;ProtDomain(14) -->
<g id="edge19" class="edge">
<title>Protein(10)&#45;&gt;ProtDomain(14)</title>
<path fill="none" stroke="blue" d="M202.38,-361.06C213.59,-341.43 234.15,-310.45 260.35,-293 292.4,-271.66 333.21,-259.19 368.35,-251.94"/>
<text text-anchor="middle" x="305.57" y="-295.8" font-family="Times,serif" font-size="14.00">has_domain</text>
</g>
<!-- Protein(10)&#45;&gt;Enzyme(177) -->
<g id="edge23" class="edge">
<title>Protein(10)&#45;&gt;Enzyme(177)</title>
<path fill="none" stroke="blue" d="M196.83,-360.7C204.07,-330.9 222.48,-271.91 260.35,-239 293.45,-210.24 340.67,-195.47 379.13,-187.91"/>
<text text-anchor="middle" x="305.57" y="-241.8" font-family="Times,serif" font-size="14.00">is_a</text>
</g>
<!-- Protein(10)&#45;&gt;Gene(9) -->
<g id="edge16" class="edge">
<title>Protein(10)&#45;&gt;Gene(9)</title>
<path fill="none" stroke="black" d="M239.57,-385.09C288.31,-391.46 363.8,-401.33 408.56,-407.18"/>
<text text-anchor="middle" x="305.57" y="-401.8" font-family="Times,serif" font-size="14.00">enc</text>
</g>
<!-- Protein(10)&#45;&gt;Protein(10) -->
<g id="edge17" class="edge">
<title>Protein(10)&#45;&gt;Protein(10)</title>
<path fill="none" stroke="blue" d="M178.04,-396.41C175.44,-406.09 180.08,-415 191.97,-415 203.85,-415 208.49,-406.09 205.89,-396.41"/>
<text text-anchor="middle" x="191.97" y="-459.8" font-family="Times,serif" font-size="14.00">equivalent(&lt;=4)</text>
<text text-anchor="middle" x="191.97" y="-445.8" font-family="Times,serif" font-size="14.00">h_s_s(&lt;=4)</text>
<text text-anchor="middle" x="191.97" y="-431.8" font-family="Times,serif" font-size="14.00">ortho(&lt;=4)</text>
<text text-anchor="middle" x="191.97" y="-417.8" font-family="Times,serif" font-size="14.00">xref(&lt;=6)</text>
</g>
<!-- EC(12) -->
<g id="node19" class="node">
<title>EC(12)</title>
<ellipse fill="none" stroke="black" cx="446.46" cy="-18" rx="36.28" ry="18"/>
<text text-anchor="middle" x="446.46" y="-13.8" font-family="Times,serif" font-size="14.00">EC(12)</text>
</g>
<!-- Protein(10)&#45;&gt;EC(12) -->
<g id="edge14" class="edge">
<title>Protein(10)&#45;&gt;EC(12)</title>
<path fill="none" stroke="black" d="M193.95,-360.68C197.74,-297.19 213.63,-88.05 260.35,-44 300.97,-5.71 370.57,-7.14 411.87,-12.19"/>
<text text-anchor="middle" x="305.57" y="-46.8" font-family="Times,serif" font-size="14.00">cat_c</text>
</g>
<!-- ProtDomain(11) -->
<g id="node20" class="node">
<title>ProtDomain(11)</title>
<ellipse fill="none" stroke="black" cx="446.46" cy="-122" rx="68" ry="18"/>
<text text-anchor="middle" x="446.46" y="-117.8" font-family="Times,serif" font-size="14.00">ProtDomain(11)</text>
</g>
<!-- Protein(10)&#45;&gt;ProtDomain(11) -->
<g id="edge20" class="edge">
<title>Protein(10)&#45;&gt;ProtDomain(11)</title>
<path fill="none" stroke="black" d="M193.66,-360.73C196.15,-321.37 207.61,-228.02 260.35,-177 292.4,-146 341.11,-132.36 380.52,-126.42"/>
<text text-anchor="middle" x="305.57" y="-179.8" font-family="Times,serif" font-size="14.00">has_domain</text>
</g>
<!-- Enzyme(17) -->
<g id="node21" class="node">
<title>Enzyme(17)</title>
<ellipse fill="none" stroke="black" cx="446.46" cy="-663" rx="53.63" ry="18"/>
<text text-anchor="middle" x="446.46" y="-658.8" font-family="Times,serif" font-size="14.00">Enzyme(17)</text>
</g>
<!-- Protein(10)&#45;&gt;Enzyme(17) -->
<g id="edge22" class="edge">
<title>Protein(10)&#45;&gt;Enzyme(17)</title>
<path fill="none" stroke="black" d="M195.5,-397.18C203,-448.42 226.7,-592.33 260.35,-624 265.45,-628.8 345.87,-644.5 399.02,-654.46"/>
<text text-anchor="middle" x="305.57" y="-647.8" font-family="Times,serif" font-size="14.00">is_a</text>
</g>
<!-- EC(12)&#45;&gt;MolFunc(3) -->
<g id="edge27" class="edge">
<title>EC(12)&#45;&gt;MolFunc(3)</title>
<path fill="none" stroke="black" d="M482.95,-18.3C523.53,-19.63 591.43,-24.86 646.34,-44 667.95,-51.53 690.03,-64.78 706.7,-76.15"/>
<text text-anchor="middle" x="594.24" y="-46.8" font-family="Times,serif" font-size="14.00">equ</text>
</g>
<!-- ProtDomain(11)&#45;&gt;CelComp(5) -->
<g id="edge29" class="edge">
<title>ProtDomain(11)&#45;&gt;CelComp(5)</title>
<path fill="none" stroke="black" d="M501.91,-132.48C510.45,-136.37 518.35,-141.7 524.14,-149 569.72,-206.44 497.61,-254.74 542.14,-313 572.37,-352.54 609.81,-320.21 646.34,-354 659.77,-366.42 651.17,-378.31 664.34,-391 671.07,-397.48 679.37,-402.73 687.89,-406.94"/>
<text text-anchor="middle" x="594.24" y="-356.8" font-family="Times,serif" font-size="14.00">located_in</text>
</g>
<!-- ProtDomain(11)&#45;&gt;MolFunc(3) -->
<g id="edge28" class="edge">
<title>ProtDomain(11)&#45;&gt;MolFunc(3)</title>
<path fill="none" stroke="blue" d="M511.2,-116.45C559.78,-112.22 626.24,-106.44 674.03,-102.28"/>
<text text-anchor="middle" x="594.24" y="-116.8" font-family="Times,serif" font-size="14.00">has_function</text>
</g>
<!-- ProtDomain(11)&#45;&gt;BioProc(4) -->
<g id="edge30" class="edge">
<title>ProtDomain(11)&#45;&gt;BioProc(4)</title>
<path fill="none" stroke="blue" d="M503.54,-131.95C543.58,-139.45 598.59,-150.54 646.34,-163 660.97,-166.82 676.76,-171.6 690.89,-176.14"/>
<text text-anchor="middle" x="594.24" y="-165.8" font-family="Times,serif" font-size="14.00">participates_in</text>
</g>
<!-- Enzyme(17)&#45;&gt;Reaction(188) -->
<g id="edge31" class="edge">
<title>Enzyme(17)&#45;&gt;Reaction(188)</title>
<path fill="none" stroke="blue" d="M500.47,-662.82C547.06,-662.65 615.17,-662.42 665.93,-662.24"/>
<text text-anchor="middle" x="594.24" y="-664.8" font-family="Times,serif" font-size="14.00">ca_by</text>
</g>
<!-- Reaction(18) -->
<g id="node22" class="node">
<title>Reaction(18)</title>
<ellipse fill="none" stroke="black" cx="735.64" cy="-720" rx="56.04" ry="18"/>
<text text-anchor="middle" x="735.64" y="-715.8" font-family="Times,serif" font-size="14.00">Reaction(18)</text>
</g>
<!-- Enzyme(17)&#45;&gt;Reaction(18) -->
<g id="edge32" class="edge">
<title>Enzyme(17)&#45;&gt;Reaction(18)</title>
<path fill="none" stroke="black" d="M493.28,-672.09C546.33,-682.62 633.29,-699.88 687.07,-710.56"/>
<text text-anchor="middle" x="594.24" y="-703.8" font-family="Times,serif" font-size="14.00">ca_by</text>
</g>
<!-- Reaction(18)&#45;&gt;Path(19) -->
<g id="edge33" class="edge">
<title>Reaction(18)&#45;&gt;Path(19)</title>
<path fill="none" stroke="black" d="M791.98,-720C834.7,-720 893.16,-720 933.6,-720"/>
<text text-anchor="middle" x="869.65" y="-722.8" font-family="Times,serif" font-size="14.00">part_of</text>
</g>
</g>
</svg>
