<svg width="1039pt" height="879pt"
 viewBox="0.00 0.00 1038.67 879.00" xmlns="http://www.w3.org/2000/svg" xmlns:xlink="http://www.w3.org/1999/xlink">
<g id="graph0" class="graph" transform="scale(1 1) rotate(0) translate(4 875)">
<title>%3</title>
<polygon fill="white" stroke="transparent" points="-4,4 -4,-875 1034.67,-875 1034.67,4 -4,4"/>
<!-- BioProc(4) -->
<g id="node1" class="node">
<title>BioProc(4)</title>
<polygon fill="none" stroke="darkgreen" points="789.09,-392.54 789.09,-407.46 757.78,-418 713.5,-418 682.19,-407.46 682.19,-392.54 713.5,-382 757.78,-382 789.09,-392.54"/>
<polygon fill="none" stroke="darkgreen" points="793.09,-389.67 793.09,-410.33 758.44,-422 712.84,-422 678.19,-410.33 678.19,-389.67 712.84,-378 758.44,-378 793.09,-389.67"/>
<text text-anchor="middle" x="735.64" y="-395.8" font-family="Times,serif" font-size="14.00">BioProc(4)</text>
</g>
<!-- Reaction(188) -->
<g id="node2" class="node">
<title>Reaction(188)</title>
<polygon fill="none" stroke="darkgreen" points="801.52,-829.54 801.52,-844.46 762.93,-855 708.35,-855 669.76,-844.46 669.76,-829.54 708.35,-819 762.93,-819 801.52,-829.54"/>
<polygon fill="none" stroke="darkgreen" points="805.53,-826.49 805.53,-847.51 763.47,-859 707.81,-859 665.75,-847.51 665.75,-826.49 707.81,-815 763.47,-815 805.53,-826.49"/>
<text text-anchor="middle" x="735.64" y="-832.8" font-family="Times,serif" font-size="14.00">Reaction(188)</text>
</g>
<!-- Gene(1) -->
<g id="node3" class="node">
<title>Gene(1)</title>
<ellipse fill="none" stroke="red" cx="43.08" cy="-631" rx="39.15" ry="39.15"/>
<ellipse fill="none" stroke="red" cx="43.08" cy="-631" rx="43.15" ry="43.15"/>
<text text-anchor="middle" x="43.08" y="-626.8" font-family="Times,serif" font-size="14.00">Gene(1)</text>
</g>
<!-- Protein(7) -->
<g id="node5" class="node">
<title>Protein(7)</title>
<polygon fill="none" stroke="darkgreen" points="495.98,-841.54 495.98,-856.46 466.97,-867 425.95,-867 396.94,-856.46 396.94,-841.54 425.95,-831 466.97,-831 495.98,-841.54"/>
<polygon fill="none" stroke="darkgreen" points="499.97,-838.74 499.97,-859.26 467.67,-871 425.25,-871 392.96,-859.26 392.96,-838.74 425.25,-827 467.67,-827 499.97,-838.74"/>
<text text-anchor="middle" x="446.46" y="-844.8" font-family="Times,serif" font-size="14.00">Protein(7)</text>
</g>
<!-- Gene(1)&#45;&gt;Protein(7) -->
<g id="edge2" class="edge">
<title>Gene(1)&#45;&gt;Protein(7)</title>
<path fill="none" stroke="black" d="M66.48,-667.64C100.74,-719.71 171.61,-812.91 260.35,-850 299.11,-866.2 346.55,-865.59 383.7,-861.12"/>
<polygon fill="black" stroke="black" points="384.43,-864.56 393.89,-859.77 383.51,-857.62 384.43,-864.56"/>
<text text-anchor="middle" x="191.97" y="-842.8" font-family="Times,serif" font-size="14.00">enc</text>
</g>
<!-- Protein(10) -->
<g id="node16" class="node">
<title>Protein(10)</title>
<ellipse fill="none" stroke="black" cx="191.97" cy="-398" rx="50.27" ry="18"/>
<text text-anchor="middle" x="191.97" y="-393.8" font-family="Times,serif" font-size="14.00">Protein(10)</text>
</g>
<!-- Gene(1)&#45;&gt;Protein(10) -->
<g id="edge1" class="edge">
<title>Gene(1)&#45;&gt;Protein(10)</title>
<path fill="none" stroke="blue" d="M66.87,-594.85C96.67,-547.57 148.18,-465.88 174.48,-424.16"/>
<polygon fill="blue" stroke="blue" points="177.47,-425.98 179.84,-415.65 171.55,-422.24 177.47,-425.98"/>
<text text-anchor="middle" x="113.87" y="-537.8" font-family="Times,serif" font-size="14.00">enc</text>
</g>
<!-- Path(19) -->
<g id="node4" class="node">
<title>Path(19)</title>
<polygon fill="none" stroke="darkgreen" points="1025.33,-771.54 1025.33,-786.46 999.66,-797 963.37,-797 937.7,-786.46 937.7,-771.54 963.37,-761 999.66,-761 1025.33,-771.54"/>
<polygon fill="none" stroke="darkgreen" points="1029.32,-768.86 1029.32,-789.14 1000.45,-801 962.58,-801 933.71,-789.14 933.71,-768.86 962.58,-757 1000.45,-757 1029.32,-768.86"/>
<text text-anchor="middle" x="981.52" y="-774.8" font-family="Times,serif" font-size="14.00">Path(19)</text>
</g>
<!-- MolFunc(3) -->
<g id="node6" class="node">
<title>MolFunc(3)</title>
<polygon fill="none" stroke="darkgreen" points="793.03,-136.54 793.03,-151.46 759.41,-162 711.87,-162 678.25,-151.46 678.25,-136.54 711.87,-126 759.41,-126 793.03,-136.54"/>
<polygon fill="none" stroke="darkgreen" points="797.04,-133.61 797.04,-154.39 760.03,-166 711.25,-166 674.24,-154.39 674.24,-133.61 711.25,-122 760.03,-122 797.04,-133.61"/>
<text text-anchor="middle" x="735.64" y="-139.8" font-family="Times,serif" font-size="14.00">MolFunc(3)</text>
</g>
<!-- CelComp(5) -->
<g id="node7" class="node">
<title>CelComp(5)</title>
<polygon fill="none" stroke="darkgreen" points="794.24,-289.54 794.24,-304.46 759.91,-315 711.37,-315 677.04,-304.46 677.04,-289.54 711.37,-279 759.91,-279 794.24,-289.54"/>
<polygon fill="none" stroke="darkgreen" points="798.23,-286.59 798.23,-307.41 760.51,-319 710.77,-319 673.05,-307.41 673.05,-286.59 710.77,-275 760.51,-275 798.23,-286.59"/>
<text text-anchor="middle" x="735.64" y="-292.8" font-family="Times,serif" font-size="14.00">CelComp(5)</text>
</g>
<!-- Publication(2) -->
<g id="node8" class="node">
<title>Publication(2)</title>
<polygon fill="none" stroke="darkgreen" points="801.54,-713.54 801.54,-728.46 762.93,-739 708.35,-739 669.74,-728.46 669.74,-713.54 708.35,-703 762.93,-703 801.54,-713.54"/>
<polygon fill="none" stroke="darkgreen" points="805.55,-710.49 805.55,-731.51 763.47,-743 707.81,-743 665.73,-731.51 665.73,-710.49 707.81,-699 763.47,-699 805.55,-710.49"/>
<text text-anchor="middle" x="735.64" y="-716.8" font-family="Times,serif" font-size="14.00">Publication(2)</text>
</g>
<!-- EC(15) -->
<g id="node9" class="node">
<title>EC(15)</title>
<polygon fill="none" stroke="darkgreen" points="485.69,-292.54 485.69,-307.46 462.71,-318 430.21,-318 407.24,-307.46 407.24,-292.54 430.21,-282 462.71,-282 485.69,-292.54"/>
<polygon fill="none" stroke="darkgreen" points="489.7,-289.98 489.7,-310.02 463.59,-322 429.33,-322 403.22,-310.02 403.22,-289.98 429.33,-278 463.59,-278 489.7,-289.98"/>
<text text-anchor="middle" x="446.46" y="-295.8" font-family="Times,serif" font-size="14.00">EC(15)</text>
</g>
<!-- Gene(8) -->
<g id="node10" class="node">
<title>Gene(8)</title>
<polygon fill="none" stroke="darkgreen" points="777.75,-463.54 777.75,-478.46 753.08,-489 718.2,-489 693.53,-478.46 693.53,-463.54 718.2,-453 753.08,-453 777.75,-463.54"/>
<polygon fill="none" stroke="darkgreen" points="781.73,-460.9 781.73,-481.1 753.9,-493 717.38,-493 689.55,-481.1 689.55,-460.9 717.38,-449 753.9,-449 781.73,-460.9"/>
<text text-anchor="middle" x="735.64" y="-466.8" font-family="Times,serif" font-size="14.00">Gene(8)</text>
</g>
<!-- TO(16) -->
<g id="node11" class="node">
<title>TO(16)</title>
<polygon fill="none" stroke="darkgreen" points="775.1,-651.54 775.1,-666.46 751.98,-677 719.3,-677 696.18,-666.46 696.18,-651.54 719.3,-641 751.98,-641 775.1,-651.54"/>
<polygon fill="none" stroke="darkgreen" points="779.1,-648.97 779.1,-669.03 752.85,-681 718.43,-681 692.18,-669.03 692.18,-648.97 718.43,-637 752.85,-637 779.1,-648.97"/>
<text text-anchor="middle" x="735.64" y="-654.8" font-family="Times,serif" font-size="14.00">TO(16)</text>
</g>
<!-- Phenotype(13) -->
<g id="node12" class="node">
<title>Phenotype(13)</title>
<polygon fill="none" stroke="darkgreen" points="802.75,-589.54 802.75,-604.46 763.44,-615 707.84,-615 668.53,-604.46 668.53,-589.54 707.84,-579 763.44,-579 802.75,-589.54"/>
<polygon fill="none" stroke="darkgreen" points="806.74,-586.47 806.74,-607.53 763.96,-619 707.32,-619 664.55,-607.53 664.55,-586.47 707.32,-575 763.96,-575 806.74,-586.47"/>
<text text-anchor="middle" x="735.64" y="-592.8" font-family="Times,serif" font-size="14.00">Phenotype(13)</text>
</g>
<!-- Trait(21) -->
<g id="node13" class="node">
<title>Trait(21)</title>
<polygon fill="none" stroke="darkgreen" points="1026.82,-531.54 1026.82,-546.46 1000.28,-557 962.75,-557 936.21,-546.46 936.21,-531.54 962.75,-521 1000.28,-521 1026.82,-531.54"/>
<polygon fill="none" stroke="darkgreen" points="1030.83,-528.83 1030.83,-549.17 1001.05,-561 961.98,-561 932.2,-549.17 932.2,-528.83 961.98,-517 1001.05,-517 1030.83,-528.83"/>
<text text-anchor="middle" x="981.52" y="-534.8" font-family="Times,serif" font-size="14.00">Trait(21)</text>
</g>
<!-- Enzyme(177) -->
<g id="node14" class="node">
<title>Enzyme(177)</title>
<polygon fill="none" stroke="darkgreen" points="509.53,-180.54 509.53,-195.46 472.58,-206 420.34,-206 383.39,-195.46 383.39,-180.54 420.34,-170 472.58,-170 509.53,-180.54"/>
<polygon fill="none" stroke="darkgreen" points="513.53,-177.53 513.53,-198.47 473.14,-210 419.78,-210 379.39,-198.47 379.39,-177.53 419.78,-166 473.14,-166 513.53,-177.53"/>
<text text-anchor="middle" x="446.46" y="-183.8" font-family="Times,serif" font-size="14.00">Enzyme(177)</text>
</g>
<!-- ProtDomain(14) -->
<g id="node15" class="node">
<title>ProtDomain(14)</title>
<polygon fill="none" stroke="darkgreen" points="520.32,-118.54 520.32,-133.46 477.05,-144 415.87,-144 372.61,-133.46 372.61,-118.54 415.87,-108 477.05,-108 520.32,-118.54"/>
<polygon fill="none" stroke="darkgreen" points="524.32,-115.4 524.32,-136.6 477.54,-148 415.39,-148 368.6,-136.6 368.6,-115.4 415.39,-104 477.54,-104 524.32,-115.4"/>
<text text-anchor="middle" x="446.46" y="-121.8" font-family="Times,serif" font-size="14.00">ProtDomain(14)</text>
</g>
<!-- Protein(10)&#45;&gt;BioProc(4) -->
<g id="edge7" class="edge">
<title>Protein(10)&#45;&gt;BioProc(4)</title>
<path fill="none" stroke="black" d="M242.47,-398.18C340.11,-398.54 557.54,-399.35 667.79,-399.75"/>
<polygon fill="black" stroke="black" points="667.78,-403.25 677.79,-399.79 667.81,-396.25 667.78,-403.25"/>
<text text-anchor="middle" x="446.46" y="-402.8" font-family="Times,serif" font-size="14.00">participates_in</text>
</g>
<!-- Protein(10)&#45;&gt;Protein(7) -->
<g id="edge4" class="edge">
<title>Protein(10)&#45;&gt;Protein(7)</title>
<path fill="none" stroke="blue" d="M193.73,-416.28C196.9,-483.87 211.34,-718.41 260.35,-771 288.63,-801.34 312.89,-777.15 350.78,-794 359.56,-797.91 360.58,-800.98 368.78,-806 379.97,-812.86 392.3,-819.96 403.74,-826.37"/>
<polygon fill="blue" stroke="blue" points="402.24,-829.54 412.68,-831.34 405.64,-823.42 402.24,-829.54"/>
<text text-anchor="middle" x="305.57" y="-838.8" font-family="Times,serif" font-size="14.00">equivalent(&lt;=4)</text>
<text text-anchor="middle" x="305.57" y="-824.8" font-family="Times,serif" font-size="14.00">h_s_s(&lt;=4)</text>
<text text-anchor="middle" x="305.57" y="-810.8" font-family="Times,serif" font-size="14.00">xref(&lt;=6)</text>
<text text-anchor="middle" x="305.57" y="-796.8" font-family="Times,serif" font-size="14.00">ortho(&lt;=4)</text>
</g>
<!-- Protein(10)&#45;&gt;MolFunc(3) -->
<g id="edge16" class="edge">
<title>Protein(10)&#45;&gt;MolFunc(3)</title>
<path fill="none" stroke="blue" d="M192.21,-379.97C191.18,-332.44 194.86,-202.18 260.35,-126 366.41,-2.64 590.96,-80.26 688.17,-122.23"/>
<polygon fill="blue" stroke="blue" points="686.88,-125.49 697.45,-126.3 689.69,-119.08 686.88,-125.49"/>
<text text-anchor="middle" x="446.46" y="-72.8" font-family="Times,serif" font-size="14.00">has_function</text>
</g>
<!-- Protein(10)&#45;&gt;CelComp(5) -->
<g id="edge10" class="edge">
<title>Protein(10)&#45;&gt;CelComp(5)</title>
<path fill="none" stroke="blue" d="M204.9,-380.57C217.34,-363.26 238.1,-336.69 260.35,-318 303.03,-282.16 314.97,-269.5 368.78,-255 476.68,-225.93 607.78,-256.13 680.11,-278.22"/>
<polygon fill="blue" stroke="blue" points="679.33,-281.64 689.92,-281.28 681.41,-274.96 679.33,-281.64"/>
<text text-anchor="middle" x="446.46" y="-257.8" font-family="Times,serif" font-size="14.00">located_in</text>
</g>
<!-- Protein(10)&#45;&gt;Publication(2) -->
<g id="edge9" class="edge">
<title>Protein(10)&#45;&gt;Publication(2)</title>
<path fill="none" stroke="black" d="M198.81,-416.04C208.33,-443.31 229.27,-495.6 260.35,-531 294.8,-570.24 539.44,-708.16 542.14,-709 578.23,-720.21 619.91,-723.87 655.24,-724.46"/>
<polygon fill="black" stroke="black" points="655.48,-727.96 665.51,-724.55 655.54,-720.96 655.48,-727.96"/>
<text text-anchor="middle" x="446.46" y="-700.8" font-family="Times,serif" font-size="14.00">pub_in</text>
</g>
<!-- Protein(10)&#45;&gt;EC(15) -->
<g id="edge11" class="edge">
<title>Protein(10)&#45;&gt;EC(15)</title>
<path fill="none" stroke="black" d="M213.81,-381.61C226.64,-372.17 243.76,-360.69 260.35,-353 303.37,-333.07 355.54,-318.96 393.52,-310.33"/>
<polygon fill="black" stroke="black" points="394.34,-313.73 403.34,-308.15 392.82,-306.9 394.34,-313.73"/>
<text text-anchor="middle" x="305.57" y="-355.8" font-family="Times,serif" font-size="14.00">cat_c</text>
</g>
<!-- Protein(10)&#45;&gt;Gene(8) -->
<g id="edge12" class="edge">
<title>Protein(10)&#45;&gt;Gene(8)</title>
<path fill="none" stroke="blue" d="M234.18,-407.83C242.8,-409.7 251.85,-411.53 260.35,-413 410.93,-439.05 590.37,-457.64 679.18,-466.02"/>
<polygon fill="blue" stroke="blue" points="679.02,-469.52 689.3,-466.97 679.67,-462.55 679.02,-469.52"/>
<text text-anchor="middle" x="446.46" y="-452.8" font-family="Times,serif" font-size="14.00">enc</text>
</g>
<!-- Protein(10)&#45;&gt;Enzyme(177) -->
<g id="edge14" class="edge">
<title>Protein(10)&#45;&gt;Enzyme(177)</title>
<path fill="none" stroke="blue" d="M194,-379.8C197.14,-342.95 209.77,-259.46 260.35,-218 290.39,-193.38 332.62,-185.19 369.17,-183.47"/>
<polygon fill="blue" stroke="blue" points="369.43,-186.96 379.31,-183.14 369.2,-179.96 369.43,-186.96"/>
<text text-anchor="middle" x="305.57" y="-220.8" font-family="Times,serif" font-size="14.00">is_a</text>
</g>
<!-- Protein(10)&#45;&gt;ProtDomain(14) -->
<g id="edge15" class="edge">
<title>Protein(10)&#45;&gt;ProtDomain(14)</title>
<path fill="none" stroke="black" d="M192.52,-379.95C192.5,-336.58 198.81,-225.85 260.35,-168 286.58,-143.35 324.12,-132.09 358.55,-127.28"/>
<polygon fill="black" stroke="black" points="359.14,-130.73 368.64,-126.04 358.29,-123.78 359.14,-130.73"/>
<text text-anchor="middle" x="305.57" y="-170.8" font-family="Times,serif" font-size="14.00">has_domain</text>
</g>
<!-- Protein(10)&#45;&gt;Protein(10) -->
<g id="edge8" class="edge">
<title>Protein(10)&#45;&gt;Protein(10)</title>
<path fill="none" stroke="blue" d="M178.04,-415.41C175.44,-425.09 180.08,-434 191.97,-434 199.39,-434 203.99,-430.52 205.76,-425.54"/>
<polygon fill="blue" stroke="blue" points="209.26,-425.45 205.89,-415.41 202.26,-425.36 209.26,-425.45"/>
<text text-anchor="middle" x="191.97" y="-478.8" font-family="Times,serif" font-size="14.00">xref(&lt;=6)</text>
<text text-anchor="middle" x="191.97" y="-464.8" font-family="Times,serif" font-size="14.00">h_s_s(&lt;=4)</text>
<text text-anchor="middle" x="191.97" y="-450.8" font-family="Times,serif" font-size="14.00">ortho(&lt;=4)</text>
<text text-anchor="middle" x="191.97" y="-436.8" font-family="Times,serif" font-size="14.00">equivalent(&lt;=4)</text>
</g>
<!-- Enzyme(17) -->
<g id="node17" class="node">
<title>Enzyme(17)</title>
<ellipse fill="none" stroke="black" cx="446.46" cy="-779" rx="53.63" ry="18"/>
<text text-anchor="middle" x="446.46" y="-774.8" font-family="Times,serif" font-size="14.00">Enzyme(17)</text>
</g>
<!-- Protein(10)&#45;&gt;Enzyme(17) -->
<g id="edge3" class="edge">
<title>Protein(10)&#45;&gt;Enzyme(17)</title>
<path fill="none" stroke="black" d="M194.1,-416.21C198.39,-479.35 215.75,-687.55 260.35,-734 261.53,-735.23 337.86,-753.51 392.12,-766.39"/>
<polygon fill="black" stroke="black" points="391.43,-769.83 401.97,-768.73 393.05,-763.01 391.43,-769.83"/>
<text text-anchor="middle" x="305.57" y="-757.8" font-family="Times,serif" font-size="14.00">is_a</text>
</g>
<!-- EC(12) -->
<g id="node18" class="node">
<title>EC(12)</title>
<ellipse fill="none" stroke="black" cx="446.46" cy="-18" rx="36.28" ry="18"/>
<text text-anchor="middle" x="446.46" y="-13.8" font-family="Times,serif" font-size="14.00">EC(12)</text>
</g>
<!-- Protein(10)&#45;&gt;EC(12) -->
<g id="edge5" class="edge">
<title>Protein(10)&#45;&gt;EC(12)</title>
<path fill="none" stroke="black" d="M193.74,-379.57C196.89,-313.64 211.09,-90.93 260.35,-44 297.72,-8.41 360.09,-7 401.98,-11.04"/>
<polygon fill="black" stroke="black" points="401.84,-14.55 412.16,-12.17 402.61,-7.59 401.84,-14.55"/>
<text text-anchor="middle" x="305.57" y="-46.8" font-family="Times,serif" font-size="14.00">cat_c</text>
</g>
<!-- ProtDomain(11) -->
<g id="node19" class="node">
<title>ProtDomain(11)</title>
<ellipse fill="none" stroke="black" cx="446.46" cy="-358" rx="68" ry="18"/>
<text text-anchor="middle" x="446.46" y="-353.8" font-family="Times,serif" font-size="14.00">ProtDomain(11)</text>
</g>
<!-- Protein(10)&#45;&gt;ProtDomain(11) -->
<g id="edge6" class="edge">
<title>Protein(10)&#45;&gt;ProtDomain(11)</title>
<path fill="none" stroke="blue" d="M235.3,-388.76C243.59,-387.08 252.23,-385.41 260.35,-384 298.04,-377.45 340.26,-371.42 374.85,-366.82"/>
<polygon fill="blue" stroke="blue" points="375.41,-370.27 384.86,-365.5 374.49,-363.33 375.41,-370.27"/>
<text text-anchor="middle" x="305.57" y="-386.8" font-family="Times,serif" font-size="14.00">has_domain</text>
</g>
<!-- Gene(9) -->
<g id="node20" class="node">
<title>Gene(9)</title>
<ellipse fill="none" stroke="black" cx="446.46" cy="-532" rx="39.15" ry="18"/>
<text text-anchor="middle" x="446.46" y="-527.8" font-family="Times,serif" font-size="14.00">Gene(9)</text>
</g>
<!-- Protein(10)&#45;&gt;Gene(9) -->
<g id="edge13" class="edge">
<title>Protein(10)&#45;&gt;Gene(9)</title>
<path fill="none" stroke="black" d="M203.94,-415.77C215.77,-433.5 236.19,-460.31 260.35,-476 302.83,-503.59 359.53,-518.11 398.94,-525.38"/>
<polygon fill="black" stroke="black" points="398.36,-528.84 408.82,-527.12 399.57,-521.94 398.36,-528.84"/>
<text text-anchor="middle" x="305.57" y="-515.8" font-family="Times,serif" font-size="14.00">enc</text>
</g>
<!-- Enzyme(17)&#45;&gt;Reaction(188) -->
<g id="edge17" class="edge">
<title>Enzyme(17)&#45;&gt;Reaction(188)</title>
<path fill="none" stroke="blue" d="M492.97,-788.19C538.58,-797.4 609.49,-811.72 662.73,-822.48"/>
<polygon fill="blue" stroke="blue" points="662.29,-825.96 672.79,-824.51 663.68,-819.1 662.29,-825.96"/>
<text text-anchor="middle" x="594.24" y="-820.8" font-family="Times,serif" font-size="14.00">ca_by</text>
</g>
<!-- Reaction(18) -->
<g id="node21" class="node">
<title>Reaction(18)</title>
<ellipse fill="none" stroke="black" cx="735.64" cy="-779" rx="56.04" ry="18"/>
<text text-anchor="middle" x="735.64" y="-774.8" font-family="Times,serif" font-size="14.00">Reaction(18)</text>
</g>
<!-- Enzyme(17)&#45;&gt;Reaction(18) -->
<g id="edge18" class="edge">
<title>Enzyme(17)&#45;&gt;Reaction(18)</title>
<path fill="none" stroke="black" d="M500.47,-779C547.93,-779 617.7,-779 668.73,-779"/>
<polygon fill="black" stroke="black" points="669,-782.5 679,-779 669,-775.5 669,-782.5"/>
<text text-anchor="middle" x="594.24" y="-781.8" font-family="Times,serif" font-size="14.00">ca_by</text>
</g>
<!-- EC(12)&#45;&gt;MolFunc(3) -->
<g id="edge20" class="edge">
<title>EC(12)&#45;&gt;MolFunc(3)</title>
<path fill="none" stroke="blue" d="M482.39,-15.41C523.94,-13.87 594.23,-16.29 646.34,-44 676.26,-59.91 700.82,-90.3 716.38,-113.42"/>
<polygon fill="blue" stroke="blue" points="713.5,-115.41 721.89,-121.88 719.36,-111.59 713.5,-115.41"/>
<text text-anchor="middle" x="594.24" y="-46.8" font-family="Times,serif" font-size="14.00">equ</text>
</g>
<!-- ProtDomain(11)&#45;&gt;BioProc(4) -->
<g id="edge22" class="edge">
<title>ProtDomain(11)&#45;&gt;BioProc(4)</title>
<path fill="none" stroke="blue" d="M514.26,-358.77C553.1,-360.19 602.82,-363.69 646.34,-372 658.44,-374.31 671.19,-377.74 683.14,-381.42"/>
<polygon fill="blue" stroke="blue" points="682.35,-384.84 692.95,-384.55 684.48,-378.17 682.35,-384.84"/>
<text text-anchor="middle" x="594.24" y="-374.8" font-family="Times,serif" font-size="14.00">participates_in</text>
</g>
<!-- ProtDomain(11)&#45;&gt;MolFunc(3) -->
<g id="edge23" class="edge">
<title>ProtDomain(11)&#45;&gt;MolFunc(3)</title>
<path fill="none" stroke="black" d="M500.69,-346.98C509.46,-343.14 517.75,-337.97 524.14,-331 545.85,-307.32 523.01,-286.8 542.14,-261 577.09,-213.88 637.17,-181.82 680.93,-163.33"/>
<polygon fill="black" stroke="black" points="682.37,-166.53 690.28,-159.49 679.7,-160.05 682.37,-166.53"/>
<text text-anchor="middle" x="594.24" y="-263.8" font-family="Times,serif" font-size="14.00">has_function</text>
</g>
<!-- ProtDomain(11)&#45;&gt;CelComp(5) -->
<g id="edge21" class="edge">
<title>ProtDomain(11)&#45;&gt;CelComp(5)</title>
<path fill="none" stroke="black" d="M498.16,-346.09C507.48,-342.32 516.62,-337.4 524.14,-331 536.87,-320.17 527.8,-306.57 542.14,-298 580.89,-274.86 632.33,-275.86 672.29,-281.96"/>
<polygon fill="black" stroke="black" points="671.75,-285.42 682.18,-283.61 672.9,-278.52 671.75,-285.42"/>
<text text-anchor="middle" x="594.24" y="-300.8" font-family="Times,serif" font-size="14.00">located_in</text>
</g>
<!-- Gene(9)&#45;&gt;BioProc(4) -->
<g id="edge29" class="edge">
<title>Gene(9)&#45;&gt;BioProc(4)</title>
<path fill="none" stroke="blue" d="M475.56,-519.91C494.35,-511.88 519.67,-501.17 542.14,-492 588.22,-473.2 601.79,-473.17 646.34,-451 654.74,-446.82 656.27,-444.76 664.34,-440 673.51,-434.59 683.41,-428.88 692.8,-423.52"/>
<polygon fill="blue" stroke="blue" points="694.65,-426.5 701.62,-418.51 691.19,-420.41 694.65,-426.5"/>
<text text-anchor="middle" x="594.24" y="-494.8" font-family="Times,serif" font-size="14.00">participates_in</text>
</g>
<!-- Gene(9)&#45;&gt;MolFunc(3) -->
<g id="edge30" class="edge">
<title>Gene(9)&#45;&gt;MolFunc(3)</title>
<path fill="none" stroke="black" d="M476.16,-519.94C492.96,-511.33 512.99,-498.07 524.14,-480 556.39,-427.73 502.29,-389.73 542.14,-343 573.5,-306.24 610.78,-344.7 646.34,-312 662.5,-297.14 654.84,-285.79 664.34,-266 679.64,-234.15 700.07,-199.38 714.97,-175.13"/>
<polygon fill="black" stroke="black" points="718.09,-176.73 720.38,-166.38 712.14,-173.05 718.09,-176.73"/>
<text text-anchor="middle" x="594.24" y="-345.8" font-family="Times,serif" font-size="14.00">has_function</text>
</g>
<!-- Gene(9)&#45;&gt;CelComp(5) -->
<g id="edge26" class="edge">
<title>Gene(9)&#45;&gt;CelComp(5)</title>
<path fill="none" stroke="black" d="M474.35,-519.13C490.67,-510.14 510.85,-496.76 524.14,-480 538.04,-462.47 526.53,-449.02 542.14,-433 577.11,-397.12 605.77,-419.39 646.34,-390 656.3,-382.79 656.04,-378.07 664.34,-369 677.45,-354.67 692.44,-339.21 705.19,-326.3"/>
<polygon fill="black" stroke="black" points="707.85,-328.58 712.41,-319.02 702.88,-323.65 707.85,-328.58"/>
<text text-anchor="middle" x="594.24" y="-435.8" font-family="Times,serif" font-size="14.00">located_in</text>
</g>
<!-- Gene(9)&#45;&gt;Publication(2) -->
<g id="edge31" class="edge">
<title>Gene(9)&#45;&gt;Publication(2)</title>
<path fill="none" stroke="blue" d="M455.11,-549.74C468.47,-578.58 498.82,-635.49 542.14,-666 581.45,-693.68 600.13,-681.77 646.34,-695 655.03,-697.49 664.19,-700.14 673.18,-702.78"/>
<polygon fill="blue" stroke="blue" points="672.27,-706.16 682.85,-705.61 674.24,-699.44 672.27,-706.16"/>
<text text-anchor="middle" x="594.24" y="-697.8" font-family="Times,serif" font-size="14.00">pub_in</text>
</g>
<!-- Gene(9)&#45;&gt;Gene(8) -->
<g id="edge28" class="edge">
<title>Gene(9)&#45;&gt;Gene(8)</title>
<path fill="none" stroke="black" d="M485.86,-531.21C526.39,-529.59 591.83,-524.68 646.34,-510 662.67,-505.6 679.84,-498.61 694.66,-491.76"/>
<polygon fill="black" stroke="black" points="696.5,-494.76 704.02,-487.3 693.49,-488.44 696.5,-494.76"/>
<text text-anchor="middle" x="594.24" y="-543.8" font-family="Times,serif" font-size="14.00">physical(&lt;=8)</text>
<text text-anchor="middle" x="594.24" y="-529.8" font-family="Times,serif" font-size="14.00">genetic(&lt;=8)</text>
</g>
<!-- Gene(9)&#45;&gt;TO(16) -->
<g id="edge24" class="edge">
<title>Gene(9)&#45;&gt;TO(16)</title>
<path fill="none" stroke="black" d="M461.38,-548.65C478.41,-567.9 509.08,-599.09 542.14,-616 586.18,-638.52 641.79,-649.31 681.91,-654.45"/>
<polygon fill="black" stroke="black" points="681.67,-657.94 692.02,-655.66 682.51,-650.99 681.67,-657.94"/>
<text text-anchor="middle" x="594.24" y="-650.8" font-family="Times,serif" font-size="14.00">cooc_wi</text>
</g>
<!-- Gene(9)&#45;&gt;Phenotype(13) -->
<g id="edge25" class="edge">
<title>Gene(9)&#45;&gt;Phenotype(13)</title>
<path fill="none" stroke="blue" d="M468.89,-546.96C487.37,-559.01 515.25,-575.17 542.14,-583 578.01,-593.44 619.15,-597.45 654.17,-598.64"/>
<polygon fill="blue" stroke="blue" points="654.25,-602.14 664.34,-598.91 654.44,-595.14 654.25,-602.14"/>
<text text-anchor="middle" x="594.24" y="-600.8" font-family="Times,serif" font-size="14.00">has_observ_pheno</text>
</g>
<!-- Gene(9)&#45;&gt;Gene(9) -->
<g id="edge27" class="edge">
<title>Gene(9)&#45;&gt;Gene(9)</title>
<path fill="none" stroke="blue" d="M423.04,-546.79C415.41,-557.42 423.22,-568 446.46,-568 462.08,-568 470.73,-563.22 472.41,-556.86"/>
<polygon fill="blue" stroke="blue" points="475.71,-555.64 469.88,-546.79 468.92,-557.34 475.71,-555.64"/>
<text text-anchor="middle" x="446.46" y="-584.8" font-family="Times,serif" font-size="14.00">physical(&lt;=8)</text>
<text text-anchor="middle" x="446.46" y="-570.8" font-family="Times,serif" font-size="14.00">genetic(&lt;=8)</text>
</g>
<!-- SNP(20) -->
<g id="node22" class="node">
<title>SNP(20)</title>
<ellipse fill="none" stroke="black" cx="735.64" cy="-539" rx="41.13" ry="18"/>
<text text-anchor="middle" x="735.64" y="-534.8" font-family="Times,serif" font-size="14.00">SNP(20)</text>
</g>
<!-- Gene(9)&#45;&gt;SNP(20) -->
<g id="edge32" class="edge">
<title>Gene(9)&#45;&gt;SNP(20)</title>
<path fill="none" stroke="black" d="M476.79,-543.46C495.23,-550.03 519.7,-557.64 542.14,-561 587.94,-567.86 600.38,-566.64 646.34,-561 661.23,-559.17 677.22,-555.67 691.45,-552"/>
<polygon fill="black" stroke="black" points="692.71,-555.28 701.46,-549.31 690.89,-548.52 692.71,-555.28"/>
<text text-anchor="middle" x="594.24" y="-567.8" font-family="Times,serif" font-size="14.00">has_variation</text>
</g>
<!-- Reaction(18)&#45;&gt;Path(19) -->
<g id="edge19" class="edge">
<title>Reaction(18)&#45;&gt;Path(19)</title>
<path fill="none" stroke="blue" d="M791.98,-779C831.28,-779 883.9,-779 923.56,-779"/>
<polygon fill="blue" stroke="blue" points="923.6,-782.5 933.6,-779 923.6,-775.5 923.6,-782.5"/>
<text text-anchor="middle" x="869.65" y="-781.8" font-family="Times,serif" font-size="14.00">part_of</text>
</g>
<!-- SNP(20)&#45;&gt;Trait(21) -->
<g id="edge33" class="edge">
<title>SNP(20)&#45;&gt;Trait(21)</title>
<path fill="none" stroke="black" d="M776.91,-539C816.45,-539 877.18,-539 922.04,-539"/>
<polygon fill="black" stroke="black" points="922.21,-542.5 932.21,-539 922.21,-535.5 922.21,-542.5"/>
<text text-anchor="middle" x="869.65" y="-541.8" font-family="Times,serif" font-size="14.00">associated_with</text>
</g>
</g>
</svg>
