<svg width="1993px" height="1685px"
 viewBox="0.00 0.00 1494.90 1264.00" xmlns="http://www.w3.org/2000/svg" xmlns:xlink="http://www.w3.org/1999/xlink">
<g id="graph0" class="graph" transform=" rotate(0) translate(4 1260)">
<polygon fill="white" stroke="transparent" points="-4,4 -4,-1260 1490.9,-1260 1490.9,4 -4,4"/>
<!-- EC(15) -->
<g id="node1" class="node">
<title>EC(15)</title>
<polygon fill="none" stroke="darkgreen" points="627.79,-416.54 627.79,-431.46 604.77,-442 572.21,-442 549.19,-431.46 549.19,-416.54 572.21,-406 604.77,-406 627.79,-416.54"/>
<polygon fill="none" stroke="darkgreen" points="631.78,-413.97 631.78,-434.03 605.64,-446 571.35,-446 545.2,-434.03 545.2,-413.97 571.35,-402 605.64,-402 631.78,-413.97"/>
<text text-anchor="middle" x="588.49" y="-420.3" font-family="Times,serif" font-size="14.00">EC(15)</text>
</g>
<!-- Trait(21) -->
<g id="node2" class="node">
<title>Trait(21)</title>
<polygon fill="none" stroke="darkgreen" points="1462.71,-1028.54 1462.71,-1043.46 1435.8,-1054 1397.74,-1054 1370.83,-1043.46 1370.83,-1028.54 1397.74,-1018 1435.8,-1018 1462.71,-1028.54"/>
<polygon fill="none" stroke="darkgreen" points="1466.72,-1025.82 1466.72,-1046.18 1436.56,-1058 1396.98,-1058 1366.81,-1046.18 1366.81,-1025.82 1396.98,-1014 1436.56,-1014 1466.72,-1025.82"/>
<text text-anchor="middle" x="1416.77" y="-1032.3" font-family="Times,serif" font-size="14.00">Trait(21)</text>
</g>
<!-- Publication(2) -->
<g id="node3" class="node">
<title>Publication(2)</title>
<polygon fill="none" stroke="darkgreen" points="1483.02,-309.54 1483.02,-324.46 1444.21,-335 1389.33,-335 1350.52,-324.46 1350.52,-309.54 1389.33,-299 1444.21,-299 1483.02,-309.54"/>
<polygon fill="none" stroke="darkgreen" points="1487.03,-306.49 1487.03,-327.51 1444.75,-339 1388.79,-339 1346.51,-327.51 1346.51,-306.49 1388.79,-295 1444.75,-295 1487.03,-306.49"/>
<text text-anchor="middle" x="1416.77" y="-313.3" font-family="Times,serif" font-size="14.00">Publication(2)</text>
</g>
<!-- Phenotype(13) -->
<g id="node4" class="node">
<title>Phenotype(13)</title>
<polygon fill="none" stroke="darkgreen" points="1265.97,-546.54 1265.97,-561.46 1226.39,-572 1170.41,-572 1130.83,-561.46 1130.83,-546.54 1170.41,-536 1226.39,-536 1265.97,-546.54"/>
<polygon fill="none" stroke="darkgreen" points="1269.97,-543.47 1269.97,-564.53 1226.91,-576 1169.89,-576 1126.83,-564.53 1126.83,-543.47 1169.89,-532 1226.91,-532 1269.97,-543.47"/>
<text text-anchor="middle" x="1198.4" y="-550.3" font-family="Times,serif" font-size="14.00">Phenotype(13)</text>
</g>
<!-- SNPEffect(26) -->
<g id="node5" class="node">
<title>SNPEffect(26)</title>
<polygon fill="none" stroke="darkgreen" points="1266.87,-484.54 1266.87,-499.46 1226.76,-510 1170.04,-510 1129.94,-499.46 1129.94,-484.54 1170.04,-474 1226.76,-474 1266.87,-484.54"/>
<polygon fill="none" stroke="darkgreen" points="1270.88,-481.46 1270.88,-502.54 1227.28,-514 1169.52,-514 1125.92,-502.54 1125.92,-481.46 1169.52,-470 1227.28,-470 1270.88,-481.46"/>
<text text-anchor="middle" x="1198.4" y="-488.3" font-family="Times,serif" font-size="14.00">SNPEffect(26)</text>
</g>
<!-- Path(19) -->
<g id="node6" class="node">
<title>Path(19)</title>
<polygon fill="none" stroke="darkgreen" points="1242.56,-1077.54 1242.56,-1092.46 1216.69,-1103 1180.11,-1103 1154.25,-1092.46 1154.25,-1077.54 1180.11,-1067 1216.69,-1067 1242.56,-1077.54"/>
<polygon fill="none" stroke="darkgreen" points="1246.54,-1074.85 1246.54,-1095.15 1217.47,-1107 1179.33,-1107 1150.26,-1095.15 1150.26,-1074.85 1179.33,-1063 1217.47,-1063 1246.54,-1074.85"/>
<text text-anchor="middle" x="1198.4" y="-1081.3" font-family="Times,serif" font-size="14.00">Path(19)</text>
</g>
<!-- CoExpStudy(25) -->
<g id="node7" class="node">
<title>CoExpStudy(25)</title>
<polygon fill="none" stroke="darkgreen" points="664.45,-14.54 664.45,-29.46 619.95,-40 557.03,-40 512.54,-29.46 512.54,-14.54 557.03,-4 619.95,-4 664.45,-14.54"/>
<polygon fill="none" stroke="darkgreen" points="668.45,-11.38 668.45,-32.62 620.42,-44 556.56,-44 508.54,-32.62 508.54,-11.38 556.56,0 620.42,0 668.45,-11.38"/>
<text text-anchor="middle" x="588.49" y="-18.3" font-family="Times,serif" font-size="14.00">CoExpStudy(25)</text>
</g>
<!-- MolFunc(3) -->
<g id="node8" class="node">
<title>MolFunc(3)</title>
<polygon fill="none" stroke="darkgreen" points="991.32,-719.54 991.32,-734.46 957.18,-745 908.89,-745 874.75,-734.46 874.75,-719.54 908.89,-709 957.18,-709 991.32,-719.54"/>
<polygon fill="none" stroke="darkgreen" points="995.31,-716.59 995.31,-737.41 957.78,-749 908.29,-749 870.75,-737.41 870.75,-716.59 908.29,-705 957.78,-705 995.31,-716.59"/>
<text text-anchor="middle" x="933.03" y="-723.3" font-family="Times,serif" font-size="14.00">MolFunc(3)</text>
</g>
<!-- Gene(1) -->
<g id="node9" class="node">
<title>Gene(1)</title>
<ellipse fill="none" stroke="red" cx="43.65" cy="-816" rx="39.78" ry="39.78"/>
<ellipse fill="none" stroke="red" cx="43.65" cy="-816" rx="43.79" ry="43.79"/>
<text text-anchor="middle" x="43.65" y="-812.3" font-family="Times,serif" font-size="14.00">Gene(1)</text>
</g>
<!-- Gene(1)&#45;&gt;Trait(21) -->
<g id="edge8" class="edge">
<title>Gene(1)&#45;&gt;Trait(21)</title>
<path fill="none" stroke="blue" d="M44.8,-859.88C47.71,-968.47 71.56,-1241 237.69,-1241 237.69,-1241 237.69,-1241 1199.4,-1241 1304.71,-1241 1379.32,-1111.46 1405.49,-1058.33"/>
<text text-anchor="middle" x="779.41" y="-1244.8" font-family="Times,serif" font-size="14.00">cooc_wi</text>
</g>
<!-- Gene(1)&#45;&gt;Publication(2) -->
<g id="edge16" class="edge">
<title>Gene(1)&#45;&gt;Publication(2)</title>
<path fill="none" stroke="blue" d="M43.94,-772.26C43.88,-686.23 50.42,-490.08 105.29,-337 121.6,-291.5 136.95,-285.52 163.29,-245 195.66,-195.21 178.3,-134 237.69,-134 237.69,-134 237.69,-134 1199.4,-134 1298.04,-134 1374.89,-246.25 1403.58,-294.93"/>
<text text-anchor="middle" x="779.41" y="-137.8" font-family="Times,serif" font-size="14.00">occ_in</text>
</g>
<!-- Gene(1)&#45;&gt;Path(19) -->
<g id="edge18" class="edge">
<title>Gene(1)&#45;&gt;Path(19)</title>
<path fill="none" stroke="blue" d="M48.09,-859.61C54.74,-932.76 71.75,-1075.77 105.29,-1112 176.52,-1188.94 228.25,-1162.41 332.08,-1177 504.74,-1201.26 776.84,-1169.94 1003.16,-1133 1056.3,-1124.33 1116.3,-1108.56 1155.37,-1097.47"/>
<text text-anchor="middle" x="588.49" y="-1188.8" font-family="Times,serif" font-size="14.00">part_of</text>
</g>
<!-- DGES(22) -->
<g id="node10" class="node">
<title>DGES(22)</title>
<polygon fill="none" stroke="darkgreen" points="985.15,-970.54 985.15,-985.46 954.62,-996 911.45,-996 880.92,-985.46 880.92,-970.54 911.45,-960 954.62,-960 985.15,-970.54"/>
<polygon fill="none" stroke="darkgreen" points="989.15,-967.69 989.15,-988.31 955.29,-1000 910.78,-1000 876.92,-988.31 876.92,-967.69 910.78,-956 955.29,-956 989.15,-967.69"/>
<text text-anchor="middle" x="933.03" y="-974.3" font-family="Times,serif" font-size="14.00">DGES(22)</text>
</g>
<!-- Gene(1)&#45;&gt;DGES(22) -->
<g id="edge9" class="edge">
<title>Gene(1)&#45;&gt;DGES(22)</title>
<path fill="none" stroke="black" d="M81.41,-838.22C154.39,-880.77 324.06,-972.12 481.08,-1001 574.98,-1018.27 604.52,-1028.67 695.91,-1001 705.11,-998.21 704.78,-992.02 713.91,-989 767.19,-971.39 831.77,-970.47 876.77,-972.82"/>
<text text-anchor="middle" x="397.58" y="-1000.8" font-family="Times,serif" font-size="14.00">differentially_expressed</text>
</g>
<!-- Gene(8) -->
<g id="node11" class="node">
<title>Gene(8)</title>
<polygon fill="none" stroke="darkgreen" points="975.87,-1032.54 975.87,-1047.46 950.78,-1058 915.29,-1058 890.2,-1047.46 890.2,-1032.54 915.29,-1022 950.78,-1022 975.87,-1032.54"/>
<polygon fill="none" stroke="darkgreen" points="979.86,-1029.88 979.86,-1050.12 951.58,-1062 914.49,-1062 886.21,-1050.12 886.21,-1029.88 914.49,-1018 951.58,-1018 979.86,-1029.88"/>
<text text-anchor="middle" x="933.03" y="-1036.3" font-family="Times,serif" font-size="14.00">Gene(8)</text>
</g>
<!-- Gene(1)&#45;&gt;Gene(8) -->
<g id="edge13" class="edge">
<title>Gene(1)&#45;&gt;Gene(8)</title>
<path fill="none" stroke="black" d="M47.8,-859.58C53.88,-929.79 69.88,-1063.04 105.29,-1092 157.65,-1134.81 646.28,-1101.44 713.91,-1102 772.13,-1102.48 794.45,-1131.05 844.91,-1102 858.71,-1094.05 851.07,-1081.66 862.91,-1071 871.31,-1063.43 881.87,-1057.45 892.19,-1052.84"/>
<text text-anchor="middle" x="397.58" y="-1161.8" font-family="Times,serif" font-size="14.00">genetic(&lt;=2)</text>
<text text-anchor="middle" x="397.58" y="-1146.8" font-family="Times,serif" font-size="14.00">homoeolog(&lt;=2)</text>
<text text-anchor="middle" x="397.58" y="-1131.8" font-family="Times,serif" font-size="14.00">physical(&lt;=2)</text>
<text text-anchor="middle" x="397.58" y="-1116.8" font-family="Times,serif" font-size="14.00">regulates(&lt;=2)</text>
</g>
<!-- Protein(7) -->
<g id="node14" class="node">
<title>Protein(7)</title>
<polygon fill="none" stroke="darkgreen" points="638.39,-303.54 638.39,-318.46 609.16,-329 567.82,-329 538.59,-318.46 538.59,-303.54 567.82,-293 609.16,-293 638.39,-303.54"/>
<polygon fill="none" stroke="darkgreen" points="642.39,-300.73 642.39,-321.27 609.86,-333 567.13,-333 534.6,-321.27 534.6,-300.73 567.13,-289 609.86,-289 642.39,-300.73"/>
<text text-anchor="middle" x="588.49" y="-307.3" font-family="Times,serif" font-size="14.00">Protein(7)</text>
</g>
<!-- Gene(1)&#45;&gt;Protein(7) -->
<g id="edge11" class="edge">
<title>Gene(1)&#45;&gt;Protein(7)</title>
<path fill="none" stroke="black" d="M53.45,-773.08C77.21,-669.88 153.28,-408.67 332.08,-304 398.12,-265.34 491.13,-281.96 544.78,-296.91"/>
<text text-anchor="middle" x="238.69" y="-483.8" font-family="Times,serif" font-size="14.00">enc</text>
</g>
<!-- Reaction(188) -->
<g id="node17" class="node">
<title>Reaction(188)</title>
<polygon fill="none" stroke="darkgreen" points="999.28,-1094.54 999.28,-1109.46 960.48,-1120 905.59,-1120 866.79,-1109.46 866.79,-1094.54 905.59,-1084 960.48,-1084 999.28,-1094.54"/>
<polygon fill="none" stroke="darkgreen" points="1003.29,-1091.49 1003.29,-1112.51 961.01,-1124 905.06,-1124 862.78,-1112.51 862.78,-1091.49 905.06,-1080 961.01,-1080 1003.29,-1091.49"/>
<text text-anchor="middle" x="933.03" y="-1098.3" font-family="Times,serif" font-size="14.00">Reaction(188)</text>
</g>
<!-- Gene(1)&#45;&gt;Reaction(188) -->
<g id="edge15" class="edge">
<title>Gene(1)&#45;&gt;Reaction(188)</title>
<path fill="none" stroke="black" d="M72.74,-848.67C95.41,-873.66 129.05,-907.82 163.29,-932 374.18,-1080.91 457.9,-1083.71 713.91,-1117 771.64,-1124.51 786.9,-1121.96 844.91,-1117 852.55,-1116.35 860.54,-1115.38 868.43,-1114.24"/>
<text text-anchor="middle" x="397.58" y="-1081.8" font-family="Times,serif" font-size="14.00">inv_in</text>
</g>
<!-- SNP(20) -->
<g id="node19" class="node">
<title>SNP(20)</title>
<ellipse fill="none" stroke="black" cx="933.03" cy="-492" rx="41.69" ry="18"/>
<text text-anchor="middle" x="933.03" y="-488.3" font-family="Times,serif" font-size="14.00">SNP(20)</text>
</g>
<!-- Gene(1)&#45;&gt;SNP(20) -->
<g id="edge14" class="edge">
<title>Gene(1)&#45;&gt;SNP(20)</title>
<path fill="none" stroke="blue" d="M49.49,-772.57C62.49,-663.37 101.42,-381.19 163.29,-313 217.53,-253.23 252.81,-261.16 332.08,-246 491.59,-215.5 548.75,-211.29 695.91,-280 722.18,-292.27 864.9,-427.7 914.8,-475.45"/>
<text text-anchor="middle" x="397.58" y="-264.8" font-family="Times,serif" font-size="14.00">has_mutant</text>
<text text-anchor="middle" x="397.58" y="-249.8" font-family="Times,serif" font-size="14.00">has_variation</text>
</g>
<!-- Protein(10) -->
<g id="node23" class="node">
<title>Protein(10)</title>
<ellipse fill="none" stroke="black" cx="238.69" cy="-660" rx="50.89" ry="18"/>
<text text-anchor="middle" x="238.69" y="-656.3" font-family="Times,serif" font-size="14.00">Protein(10)</text>
</g>
<!-- Gene(1)&#45;&gt;Protein(10) -->
<g id="edge10" class="edge">
<title>Gene(1)&#45;&gt;Protein(10)</title>
<path fill="none" stroke="blue" d="M78.27,-788.83C118.35,-756.44 184.05,-703.35 217.19,-676.56"/>
<text text-anchor="middle" x="125.29" y="-768.8" font-family="Times,serif" font-size="14.00">enc</text>
</g>
<!-- Gene(9) -->
<g id="node24" class="node">
<title>Gene(9)</title>
<ellipse fill="none" stroke="black" cx="588.49" cy="-816" rx="39.79" ry="18"/>
<text text-anchor="middle" x="588.49" y="-812.3" font-family="Times,serif" font-size="14.00">Gene(9)</text>
</g>
<!-- Gene(1)&#45;&gt;Gene(9) -->
<g id="edge12" class="edge">
<title>Gene(1)&#45;&gt;Gene(9)</title>
<path fill="none" stroke="blue" d="M87.7,-816C190.64,-816 449.79,-816 548.49,-816"/>
<text text-anchor="middle" x="238.69" y="-864.8" font-family="Times,serif" font-size="14.00">genetic(&lt;=2)</text>
<text text-anchor="middle" x="238.69" y="-849.8" font-family="Times,serif" font-size="14.00">homoeolog(&lt;=2)</text>
<text text-anchor="middle" x="238.69" y="-834.8" font-family="Times,serif" font-size="14.00">physical(&lt;=2)</text>
<text text-anchor="middle" x="238.69" y="-819.8" font-family="Times,serif" font-size="14.00">regulates(&lt;=2)</text>
</g>
<!-- CoExpCluster(23) -->
<g id="node25" class="node">
<title>CoExpCluster(23)</title>
<ellipse fill="none" stroke="black" cx="238.69" cy="-86" rx="75.29" ry="18"/>
<text text-anchor="middle" x="238.69" y="-82.3" font-family="Times,serif" font-size="14.00">CoExpCluster(23)</text>
</g>
<!-- Gene(1)&#45;&gt;CoExpCluster(23) -->
<g id="edge17" class="edge">
<title>Gene(1)&#45;&gt;CoExpCluster(23)</title>
<path fill="none" stroke="black" d="M45.28,-772.15C47.81,-624.73 59.45,-153.56 105.29,-105 121.23,-88.12 144.92,-81.52 167.87,-79.76"/>
<text text-anchor="middle" x="125.29" y="-108.8" font-family="Times,serif" font-size="14.00">part_of</text>
</g>
<!-- CelComp(5) -->
<g id="node12" class="node">
<title>CelComp(5)</title>
<polygon fill="none" stroke="darkgreen" points="992.64,-563.54 992.64,-578.46 957.72,-589 908.34,-589 873.43,-578.46 873.43,-563.54 908.34,-553 957.72,-553 992.64,-563.54"/>
<polygon fill="none" stroke="darkgreen" points="996.63,-560.57 996.63,-581.43 958.31,-593 907.76,-593 869.44,-581.43 869.44,-560.57 907.76,-549 958.31,-549 996.63,-560.57"/>
<text text-anchor="middle" x="933.03" y="-567.3" font-family="Times,serif" font-size="14.00">CelComp(5)</text>
</g>
<!-- BioProc(4) -->
<g id="node13" class="node">
<title>BioProc(4)</title>
<polygon fill="none" stroke="darkgreen" points="987.36,-383.54 987.36,-398.46 955.54,-409 910.53,-409 878.71,-398.46 878.71,-383.54 910.53,-373 955.54,-373 987.36,-383.54"/>
<polygon fill="none" stroke="darkgreen" points="991.37,-380.66 991.37,-401.34 956.19,-413 909.88,-413 874.7,-401.34 874.7,-380.66 909.88,-369 956.19,-369 991.37,-380.66"/>
<text text-anchor="middle" x="933.03" y="-387.3" font-family="Times,serif" font-size="14.00">BioProc(4)</text>
</g>
<!-- ProtDomain(14) -->
<g id="node15" class="node">
<title>ProtDomain(14)</title>
<polygon fill="none" stroke="darkgreen" points="663.13,-540.54 663.13,-555.46 619.41,-566 557.58,-566 513.86,-555.46 513.86,-540.54 557.58,-530 619.41,-530 663.13,-540.54"/>
<polygon fill="none" stroke="darkgreen" points="667.13,-537.39 667.13,-558.61 619.88,-570 557.1,-570 509.85,-558.61 509.85,-537.39 557.1,-526 619.88,-526 667.13,-537.39"/>
<text text-anchor="middle" x="588.49" y="-544.3" font-family="Times,serif" font-size="14.00">ProtDomain(14)</text>
</g>
<!-- Enzyme(177) -->
<g id="node16" class="node">
<title>Enzyme(177)</title>
<polygon fill="none" stroke="darkgreen" points="652.53,-478.54 652.53,-493.46 615.02,-504 561.97,-504 524.46,-493.46 524.46,-478.54 561.97,-468 615.02,-468 652.53,-478.54"/>
<polygon fill="none" stroke="darkgreen" points="656.53,-475.51 656.53,-496.49 615.57,-508 561.42,-508 520.46,-496.49 520.46,-475.51 561.42,-464 615.57,-464 656.53,-475.51"/>
<text text-anchor="middle" x="588.49" y="-482.3" font-family="Times,serif" font-size="14.00">Enzyme(177)</text>
</g>
<!-- PlantOntologyTerm(24) -->
<g id="node18" class="node">
<title>PlantOntologyTerm(24)</title>
<polygon fill="none" stroke="darkgreen" points="691.82,-76.54 691.82,-91.46 631.29,-102 545.69,-102 485.16,-91.46 485.16,-76.54 545.69,-66 631.29,-66 691.82,-76.54"/>
<polygon fill="none" stroke="darkgreen" points="695.82,-73.18 695.82,-94.82 631.64,-106 545.35,-106 481.17,-94.82 481.17,-73.18 545.35,-62 631.64,-62 695.82,-73.18"/>
<text text-anchor="middle" x="588.49" y="-80.3" font-family="Times,serif" font-size="14.00">PlantOntologyTerm(24)</text>
</g>
<!-- SNP(20)&#45;&gt;Phenotype(13) -->
<g id="edge2" class="edge">
<title>SNP(20)&#45;&gt;Phenotype(13)</title>
<path fill="none" stroke="blue" d="M969.83,-500.43C1013.29,-510.66 1087.18,-528.05 1138.94,-540.24"/>
<text text-anchor="middle" x="1064.66" y="-535.8" font-family="Times,serif" font-size="14.00">associated_with</text>
</g>
<!-- SNP(20)&#45;&gt;SNPEffect(26) -->
<g id="edge3" class="edge">
<title>SNP(20)&#45;&gt;SNPEffect(26)</title>
<path fill="none" stroke="black" d="M974.9,-492C1015.21,-492 1077.66,-492 1126.15,-492"/>
<text text-anchor="middle" x="1064.66" y="-495.8" font-family="Times,serif" font-size="14.00">leads_to</text>
</g>
<!-- Phenotype(133) -->
<g id="node20" class="node">
<title>Phenotype(133)</title>
<ellipse fill="none" stroke="black" cx="1198.4" cy="-434" rx="66.89" ry="18"/>
<text text-anchor="middle" x="1198.4" y="-430.3" font-family="Times,serif" font-size="14.00">Phenotype(133)</text>
</g>
<!-- SNP(20)&#45;&gt;Phenotype(133) -->
<g id="edge1" class="edge">
<title>SNP(20)&#45;&gt;Phenotype(133)</title>
<path fill="none" stroke="black" d="M970.38,-484C1015.96,-473.96 1094.38,-456.69 1146.07,-445.31"/>
<text text-anchor="middle" x="1064.66" y="-474.8" font-family="Times,serif" font-size="14.00">associated_with</text>
</g>
<!-- Phenotype(133)&#45;&gt;Trait(21) -->
<g id="edge4" class="edge">
<title>Phenotype(133)&#45;&gt;Trait(21)</title>
<path fill="none" stroke="black" d="M1249.28,-445.77C1257.28,-449.53 1264.83,-454.48 1270.64,-461 1346.93,-546.61 1400.33,-918.57 1412.92,-1013.75"/>
<text text-anchor="middle" x="1308.64" y="-588.8" font-family="Times,serif" font-size="14.00">part_of</text>
</g>
<!-- Phenotype(133)&#45;&gt;Publication(2) -->
<g id="edge5" class="edge">
<title>Phenotype(133)&#45;&gt;Publication(2)</title>
<path fill="none" stroke="blue" d="M1229.03,-417.98C1268.27,-396.76 1337.41,-359.37 1379.66,-336.53"/>
<text text-anchor="middle" x="1308.64" y="-385.8" font-family="Times,serif" font-size="14.00">pub_in</text>
</g>
<!-- Reaction(18) -->
<g id="node21" class="node">
<title>Reaction(18)</title>
<ellipse fill="none" stroke="black" cx="933.03" cy="-920" rx="56.59" ry="18"/>
<text text-anchor="middle" x="933.03" y="-916.3" font-family="Times,serif" font-size="14.00">Reaction(18)</text>
</g>
<!-- Reaction(18)&#45;&gt;Path(19) -->
<g id="edge6" class="edge">
<title>Reaction(18)&#45;&gt;Path(19)</title>
<path fill="none" stroke="blue" d="M972.46,-933.08C982.67,-937.07 993.53,-941.8 1003.16,-947 1068.68,-982.37 1138.09,-1036.23 1173.53,-1065.09"/>
<text text-anchor="middle" x="1064.66" y="-1016.8" font-family="Times,serif" font-size="14.00">part_of</text>
</g>
<!-- EC(12) -->
<g id="node22" class="node">
<title>EC(12)</title>
<ellipse fill="none" stroke="black" cx="588.49" cy="-762" rx="36.29" ry="18"/>
<text text-anchor="middle" x="588.49" y="-758.3" font-family="Times,serif" font-size="14.00">EC(12)</text>
</g>
<!-- EC(12)&#45;&gt;MolFunc(3) -->
<g id="edge7" class="edge">
<title>EC(12)&#45;&gt;MolFunc(3)</title>
<path fill="none" stroke="blue" d="M623.21,-756.51C648.2,-752.59 683.11,-747.42 713.91,-744 766.57,-738.14 826.61,-733.62 870.35,-730.72"/>
<text text-anchor="middle" x="779.41" y="-747.8" font-family="Times,serif" font-size="14.00">equ</text>
</g>
<!-- Protein(10)&#45;&gt;EC(15) -->
<g id="edge19" class="edge">
<title>Protein(10)&#45;&gt;EC(15)</title>
<path fill="none" stroke="blue" d="M243.24,-642C251.59,-604.69 276.15,-518.79 332.08,-476 394.61,-428.15 490.13,-421.32 544.91,-421.86"/>
<text text-anchor="middle" x="397.58" y="-479.8" font-family="Times,serif" font-size="14.00">cat_c</text>
</g>
<!-- Protein(10)&#45;&gt;Trait(21) -->
<g id="edge21" class="edge">
<title>Protein(10)&#45;&gt;Trait(21)</title>
<path fill="none" stroke="blue" d="M251.15,-677.85C268.19,-705.39 299.74,-760.49 314.08,-812 326.29,-855.84 302.76,-981.2 332.08,-1016 346.22,-1032.78 692.33,-1113.01 713.91,-1117 779.4,-1129.11 796.4,-1129.44 862.91,-1133 925.15,-1136.33 940.86,-1134.98 1003.16,-1133 1122.22,-1129.22 1156.28,-1149.33 1270.64,-1116 1315.39,-1102.96 1361.62,-1074.39 1389.54,-1055.16"/>
<text text-anchor="middle" x="933.03" y="-1138.8" font-family="Times,serif" font-size="14.00">cooc_wi</text>
</g>
<!-- Protein(10)&#45;&gt;Publication(2) -->
<g id="edge33" class="edge">
<title>Protein(10)&#45;&gt;Publication(2)</title>
<path fill="none" stroke="blue" d="M250.28,-642.42C267.07,-613.6 299.36,-554.03 314.08,-499 325.61,-455.89 301.12,-331.13 332.08,-299 358.26,-271.84 638.8,-261 778.41,-261 778.41,-261 778.41,-261 1199.4,-261 1261.29,-261 1330.05,-282.74 1373.1,-299.13"/>
<text text-anchor="middle" x="933.03" y="-264.8" font-family="Times,serif" font-size="14.00">pub_in</text>
</g>
<!-- Protein(10)&#45;&gt;MolFunc(3) -->
<g id="edge28" class="edge">
<title>Protein(10)&#45;&gt;MolFunc(3)</title>
<path fill="none" stroke="black" d="M285.19,-667.47C300.11,-669.77 316.78,-672.17 332.08,-674 528.3,-697.51 761.8,-715.19 870.58,-722.84"/>
<text text-anchor="middle" x="588.49" y="-712.8" font-family="Times,serif" font-size="14.00">has_function</text>
</g>
<!-- Protein(10)&#45;&gt;Gene(8) -->
<g id="edge23" class="edge">
<title>Protein(10)&#45;&gt;Gene(8)</title>
<path fill="none" stroke="blue" d="M250.18,-677.61C266.24,-705.28 296.85,-761.07 314.08,-812 327.15,-850.64 305.29,-871.24 332.08,-902 391.09,-969.76 625.49,-1019 713.91,-1035 772.61,-1045.63 841.65,-1045.07 886.08,-1043.07"/>
<text text-anchor="middle" x="588.49" y="-1034.8" font-family="Times,serif" font-size="14.00">enc</text>
</g>
<!-- Protein(10)&#45;&gt;CelComp(5) -->
<g id="edge31" class="edge">
<title>Protein(10)&#45;&gt;CelComp(5)</title>
<path fill="none" stroke="blue" d="M288.41,-663.58C392.54,-670.21 632.46,-679.81 695.91,-633 714.24,-619.47 695.61,-598.57 713.91,-585 737.72,-567.34 813.72,-566.02 869.34,-567.68"/>
<text text-anchor="middle" x="588.49" y="-671.8" font-family="Times,serif" font-size="14.00">located_in</text>
</g>
<!-- Protein(10)&#45;&gt;BioProc(4) -->
<g id="edge32" class="edge">
<title>Protein(10)&#45;&gt;BioProc(4)</title>
<path fill="none" stroke="black" d="M241.41,-641.87C246.58,-597.73 265.97,-483.88 332.08,-423 376.77,-381.85 405.15,-402.27 463.08,-384 471.12,-381.46 472.76,-379.35 481.08,-378 575.33,-362.71 600.46,-375.37 695.91,-378 757.06,-379.68 827.02,-383.81 874.81,-386.97"/>
<text text-anchor="middle" x="588.49" y="-381.8" font-family="Times,serif" font-size="14.00">participates_in</text>
</g>
<!-- Protein(10)&#45;&gt;Protein(7) -->
<g id="edge25" class="edge">
<title>Protein(10)&#45;&gt;Protein(7)</title>
<path fill="none" stroke="blue" d="M241.9,-641.84C250.1,-577.95 280.9,-365.1 332.08,-324 362.11,-299.88 468.75,-302.48 534.37,-306.67"/>
<text text-anchor="middle" x="397.58" y="-372.8" font-family="Times,serif" font-size="14.00">equivalent(&lt;=4)</text>
<text text-anchor="middle" x="397.58" y="-357.8" font-family="Times,serif" font-size="14.00">h_s_s(&lt;=4)</text>
<text text-anchor="middle" x="397.58" y="-342.8" font-family="Times,serif" font-size="14.00">ortho(&lt;=4)</text>
<text text-anchor="middle" x="397.58" y="-327.8" font-family="Times,serif" font-size="14.00">xref(&lt;=8)</text>
</g>
<!-- Protein(10)&#45;&gt;ProtDomain(14) -->
<g id="edge27" class="edge">
<title>Protein(10)&#45;&gt;ProtDomain(14)</title>
<path fill="none" stroke="blue" d="M258,-643.13C275.63,-627.85 303.75,-605.95 332.08,-594 388.85,-570.05 457.85,-558.56 509.82,-553.05"/>
<text text-anchor="middle" x="397.58" y="-597.8" font-family="Times,serif" font-size="14.00">has_domain</text>
</g>
<!-- Protein(10)&#45;&gt;Enzyme(177) -->
<g id="edge29" class="edge">
<title>Protein(10)&#45;&gt;Enzyme(177)</title>
<path fill="none" stroke="blue" d="M248.23,-642.1C261.96,-615.38 291.57,-565.48 332.08,-540 389.05,-504.16 465.87,-491.73 520.34,-487.61"/>
<text text-anchor="middle" x="397.58" y="-543.8" font-family="Times,serif" font-size="14.00">is_a</text>
</g>
<!-- Protein(10)&#45;&gt;EC(12) -->
<g id="edge20" class="edge">
<title>Protein(10)&#45;&gt;EC(12)</title>
<path fill="none" stroke="black" d="M258.75,-676.82C276.47,-691.48 304.26,-712.05 332.08,-723 352.3,-730.96 488.21,-749.21 553.12,-757.62"/>
<text text-anchor="middle" x="397.58" y="-748.8" font-family="Times,serif" font-size="14.00">cat_c</text>
</g>
<!-- Protein(10)&#45;&gt;Protein(10) -->
<g id="edge24" class="edge">
<title>Protein(10)&#45;&gt;Protein(10)</title>
<path fill="none" stroke="black" d="M219,-676.66C214.62,-686.62 221.19,-696 238.69,-696 256.19,-696 262.75,-686.62 258.37,-676.66"/>
<text text-anchor="middle" x="238.69" y="-744.8" font-family="Times,serif" font-size="14.00">equivalent(&lt;=4)</text>
<text text-anchor="middle" x="238.69" y="-729.8" font-family="Times,serif" font-size="14.00">h_s_s(&lt;=4)</text>
<text text-anchor="middle" x="238.69" y="-714.8" font-family="Times,serif" font-size="14.00">ortho(&lt;=4)</text>
<text text-anchor="middle" x="238.69" y="-699.8" font-family="Times,serif" font-size="14.00">xref(&lt;=8)</text>
</g>
<!-- Protein(10)&#45;&gt;Gene(9) -->
<g id="edge22" class="edge">
<title>Protein(10)&#45;&gt;Gene(9)</title>
<path fill="none" stroke="black" d="M250.31,-677.84C265.35,-701.41 295.19,-742.35 332.08,-763 383.73,-791.92 405.13,-774.94 463.08,-787 493.7,-793.37 528.33,-801.52 553.27,-807.56"/>
<text text-anchor="middle" x="397.58" y="-790.8" font-family="Times,serif" font-size="14.00">enc</text>
</g>
<!-- ProtDomain(11) -->
<g id="node26" class="node">
<title>ProtDomain(11)</title>
<ellipse fill="none" stroke="black" cx="588.49" cy="-606" rx="68.79" ry="18"/>
<text text-anchor="middle" x="588.49" y="-602.3" font-family="Times,serif" font-size="14.00">ProtDomain(11)</text>
</g>
<!-- Protein(10)&#45;&gt;ProtDomain(11) -->
<g id="edge26" class="edge">
<title>Protein(10)&#45;&gt;ProtDomain(11)</title>
<path fill="none" stroke="black" d="M274.78,-647.11C291.85,-641.32 312.8,-634.92 332.08,-631 395.17,-618.16 468.41,-611.85 520.25,-608.79"/>
<text text-anchor="middle" x="397.58" y="-634.8" font-family="Times,serif" font-size="14.00">has_domain</text>
</g>
<!-- Enzyme(17) -->
<g id="node27" class="node">
<title>Enzyme(17)</title>
<ellipse fill="none" stroke="black" cx="588.49" cy="-918" rx="54.69" ry="18"/>
<text text-anchor="middle" x="588.49" y="-914.3" font-family="Times,serif" font-size="14.00">Enzyme(17)</text>
</g>
<!-- Protein(10)&#45;&gt;Enzyme(17) -->
<g id="edge30" class="edge">
<title>Protein(10)&#45;&gt;Enzyme(17)</title>
<path fill="none" stroke="black" d="M247.58,-678.13C261.24,-707.85 291.74,-767.46 332.08,-806 387.21,-858.66 410.38,-862.48 481.08,-891 500.17,-898.7 522.09,-904.71 541.06,-909.08"/>
<text text-anchor="middle" x="397.58" y="-886.8" font-family="Times,serif" font-size="14.00">is_a</text>
</g>
<!-- Gene(9)&#45;&gt;Trait(21) -->
<g id="edge34" class="edge">
<title>Gene(9)&#45;&gt;Trait(21)</title>
<path fill="none" stroke="black" d="M618.1,-828.21C642.97,-838.31 680.2,-852.22 713.91,-860 839.99,-889.09 876.99,-864.31 1003.16,-893 1146.39,-925.57 1309.16,-990.75 1379.85,-1020.52"/>
<text text-anchor="middle" x="1064.66" y="-923.8" font-family="Times,serif" font-size="14.00">cooc_wi</text>
</g>
<!-- Gene(9)&#45;&gt;Publication(2) -->
<g id="edge42" class="edge">
<title>Gene(9)&#45;&gt;Publication(2)</title>
<path fill="none" stroke="black" d="M623.84,-824.15C673.33,-834.56 767.27,-849.25 844.91,-832 928.56,-813.41 1271.53,-670.21 1328.64,-604 1397.35,-524.36 1411.87,-391.71 1414.95,-339.29"/>
<text text-anchor="middle" x="1064.66" y="-769.8" font-family="Times,serif" font-size="14.00">pub_in</text>
</g>
<!-- Gene(9)&#45;&gt;MolFunc(3) -->
<g id="edge38" class="edge">
<title>Gene(9)&#45;&gt;MolFunc(3)</title>
<path fill="none" stroke="black" d="M628.21,-815.91C689.67,-815.31 806.54,-812.13 844.91,-797 871.08,-786.68 895.56,-765.59 911.86,-749.25"/>
<text text-anchor="middle" x="779.41" y="-816.8" font-family="Times,serif" font-size="14.00">has_function</text>
</g>
<!-- Gene(9)&#45;&gt;DGES(22) -->
<g id="edge35" class="edge">
<title>Gene(9)&#45;&gt;DGES(22)</title>
<path fill="none" stroke="blue" d="M610.84,-831.02C634.77,-847.08 675.29,-871.98 713.91,-885 769.65,-903.8 798.4,-867.97 844.91,-904 861.28,-916.69 848.44,-932.17 862.91,-947 869.79,-954.06 878.58,-959.65 887.56,-964.01"/>
<text text-anchor="middle" x="779.41" y="-907.8" font-family="Times,serif" font-size="14.00">differentially_expressed</text>
</g>
<!-- Gene(9)&#45;&gt;Gene(8) -->
<g id="edge37" class="edge">
<title>Gene(9)&#45;&gt;Gene(8)</title>
<path fill="none" stroke="blue" d="M616.7,-829.02C640.65,-841.75 674.89,-863.25 695.91,-891 710.42,-910.16 697.63,-924.31 713.91,-942 763.07,-995.44 796.67,-979.26 862.91,-1009 874.31,-1014.12 886.76,-1019.71 897.93,-1024.71"/>
<text text-anchor="middle" x="779.41" y="-1019.8" font-family="Times,serif" font-size="14.00">genetic(&lt;=8)</text>
<text text-anchor="middle" x="779.41" y="-1004.8" font-family="Times,serif" font-size="14.00">physical(&lt;=8)</text>
</g>
<!-- Gene(9)&#45;&gt;CelComp(5) -->
<g id="edge40" class="edge">
<title>Gene(9)&#45;&gt;CelComp(5)</title>
<path fill="none" stroke="black" d="M625.84,-809.6C646.82,-805.22 673.42,-798.47 695.91,-789 704.55,-785.36 705.09,-781.18 713.91,-778 769.25,-758.03 800.61,-797.72 844.91,-759 866.83,-739.84 851.79,-722.91 862.91,-696 878.43,-658.41 902.44,-617.68 917.68,-593.26"/>
<text text-anchor="middle" x="779.41" y="-781.8" font-family="Times,serif" font-size="14.00">located_in</text>
</g>
<!-- Gene(9)&#45;&gt;BioProc(4) -->
<g id="edge41" class="edge">
<title>Gene(9)&#45;&gt;BioProc(4)</title>
<path fill="none" stroke="blue" d="M628.26,-816.46C651.32,-814.54 679.24,-807.97 695.91,-789 740.22,-738.56 667.02,-687.06 713.91,-639 754.99,-596.89 803.9,-662.19 844.91,-620 869.08,-595.13 848.34,-496.47 862.91,-465 872.58,-444.1 890.46,-425.21 905.6,-411.75"/>
<text text-anchor="middle" x="779.41" y="-642.8" font-family="Times,serif" font-size="14.00">participates_in</text>
</g>
<!-- Gene(9)&#45;&gt;SNP(20) -->
<g id="edge39" class="edge">
<title>Gene(9)&#45;&gt;SNP(20)</title>
<path fill="none" stroke="blue" d="M628.3,-815.7C650.94,-813.45 678.39,-806.8 695.91,-789 720.26,-764.26 691.47,-739.48 713.91,-713 754.73,-664.82 806.07,-707.79 844.91,-658 877.53,-616.17 834.83,-585.01 862.91,-540 872.49,-524.63 889.01,-512.88 903.5,-504.86"/>
<text text-anchor="middle" x="779.41" y="-716.8" font-family="Times,serif" font-size="14.00">has_variation</text>
</g>
<!-- Gene(9)&#45;&gt;Gene(9) -->
<g id="edge36" class="edge">
<title>Gene(9)&#45;&gt;Gene(9)</title>
<path fill="none" stroke="black" d="M559.21,-828.54C544.96,-839.87 554.72,-852 588.49,-852 622.26,-852 632.02,-839.87 617.78,-828.54"/>
<text text-anchor="middle" x="588.49" y="-870.8" font-family="Times,serif" font-size="14.00">genetic(&lt;=8)</text>
<text text-anchor="middle" x="588.49" y="-855.8" font-family="Times,serif" font-size="14.00">physical(&lt;=8)</text>
</g>
<!-- CoExpCluster(23)&#45;&gt;CoExpStudy(25) -->
<g id="edge50" class="edge">
<title>CoExpCluster(23)&#45;&gt;CoExpStudy(25)</title>
<path fill="none" stroke="black" d="M294.33,-73.77C306.72,-71.11 319.84,-68.38 332.08,-66 393.03,-54.16 462.49,-42.3 513.57,-33.88"/>
<text text-anchor="middle" x="397.58" y="-69.8" font-family="Times,serif" font-size="14.00">part_of</text>
</g>
<!-- CoExpCluster(23)&#45;&gt;BioProc(4) -->
<g id="edge48" class="edge">
<title>CoExpCluster(23)&#45;&gt;BioProc(4)</title>
<path fill="none" stroke="black" d="M295.94,-97.8C409.85,-121.92 660.1,-176.09 695.91,-194 787.58,-239.86 874.56,-327.74 912.33,-368.82"/>
<text text-anchor="middle" x="588.49" y="-197.8" font-family="Times,serif" font-size="14.00">enriched_for</text>
</g>
<!-- CoExpCluster(23)&#45;&gt;PlantOntologyTerm(24) -->
<g id="edge49" class="edge">
<title>CoExpCluster(23)&#45;&gt;PlantOntologyTerm(24)</title>
<path fill="none" stroke="blue" d="M314.3,-85.57C362.9,-85.29 427.07,-84.92 481,-84.61"/>
<text text-anchor="middle" x="397.58" y="-89.8" font-family="Times,serif" font-size="14.00">enriched_for</text>
</g>
<!-- ProtDomain(11)&#45;&gt;MolFunc(3) -->
<g id="edge43" class="edge">
<title>ProtDomain(11)&#45;&gt;MolFunc(3)</title>
<path fill="none" stroke="black" d="M637.73,-593.23C691.49,-581.74 779.46,-571.32 844.91,-605 885.64,-625.96 911.54,-675.77 923.76,-704.85"/>
<text text-anchor="middle" x="779.41" y="-608.8" font-family="Times,serif" font-size="14.00">has_function</text>
</g>
<!-- ProtDomain(11)&#45;&gt;CelComp(5) -->
<g id="edge44" class="edge">
<title>ProtDomain(11)&#45;&gt;CelComp(5)</title>
<path fill="none" stroke="blue" d="M652.79,-599.36C668.14,-595.34 683.64,-588.99 695.91,-579 710.09,-567.46 698.4,-551.7 713.91,-542 769.77,-507.05 849.39,-532.37 895.39,-552.6"/>
<text text-anchor="middle" x="779.41" y="-545.8" font-family="Times,serif" font-size="14.00">located_in</text>
</g>
<!-- ProtDomain(11)&#45;&gt;BioProc(4) -->
<g id="edge45" class="edge">
<title>ProtDomain(11)&#45;&gt;BioProc(4)</title>
<path fill="none" stroke="black" d="M654.91,-600.93C670.04,-596.87 684.91,-590.11 695.91,-579 719.72,-554.95 693.05,-531.66 713.91,-505 756.43,-450.65 832.11,-419.5 882.19,-403.92"/>
<text text-anchor="middle" x="779.41" y="-508.8" font-family="Times,serif" font-size="14.00">participates_in</text>
</g>
<!-- Enzyme(17)&#45;&gt;Reaction(188) -->
<g id="edge47" class="edge">
<title>Enzyme(17)&#45;&gt;Reaction(188)</title>
<path fill="none" stroke="black" d="M641.59,-922.35C661.19,-926.6 682.05,-934.7 695.91,-950 723.88,-980.88 685.57,-1011.45 713.91,-1042 751.7,-1082.75 814.35,-1096.78 862.84,-1101.18"/>
<text text-anchor="middle" x="779.41" y="-1101.8" font-family="Times,serif" font-size="14.00">ca_by</text>
</g>
<!-- Enzyme(17)&#45;&gt;Reaction(18) -->
<g id="edge46" class="edge">
<title>Enzyme(17)&#45;&gt;Reaction(18)</title>
<path fill="none" stroke="blue" d="M642.76,-920.61C664.77,-921.57 690.56,-922.53 713.91,-923 772.12,-924.17 786.69,-924 844.91,-923 855.2,-922.82 866.17,-922.53 876.73,-922.19"/>
<text text-anchor="middle" x="779.41" y="-926.8" font-family="Times,serif" font-size="14.00">ca_by</text>
</g>
</g>
</svg>
