<svg width="1993px" height="1700px"
 viewBox="0.00 0.00 1494.90 1275.00" xmlns="http://www.w3.org/2000/svg" xmlns:xlink="http://www.w3.org/1999/xlink">
<g id="graph0" class="graph" transform=" rotate(0) translate(4 1271)">
<polygon fill="white" stroke="transparent" points="-4,4 -4,-1271 1490.9,-1271 1490.9,4 -4,4"/>
<!-- DGES(22) -->
<g id="node1" class="node">
<title>DGES(22)</title>
<polygon fill="none" stroke="darkgreen" points="985.15,-1194.54 985.15,-1209.46 954.62,-1220 911.45,-1220 880.92,-1209.46 880.92,-1194.54 911.45,-1184 954.62,-1184 985.15,-1194.54"/>
<polygon fill="none" stroke="darkgreen" points="989.15,-1191.69 989.15,-1212.31 955.29,-1224 910.78,-1224 876.92,-1212.31 876.92,-1191.69 910.78,-1180 955.29,-1180 989.15,-1191.69"/>
<text text-anchor="middle" x="933.03" y="-1198.3" font-family="Times,serif" font-size="14.00">DGES(22)</text>
</g>
<!-- CoExpStudy(25) -->
<g id="node2" class="node">
<title>CoExpStudy(25)</title>
<polygon fill="none" stroke="darkgreen" points="664.45,-42.54 664.45,-57.46 619.95,-68 557.03,-68 512.54,-57.46 512.54,-42.54 557.03,-32 619.95,-32 664.45,-42.54"/>
<polygon fill="none" stroke="darkgreen" points="668.45,-39.38 668.45,-60.62 620.42,-72 556.56,-72 508.54,-60.62 508.54,-39.38 556.56,-28 620.42,-28 668.45,-39.38"/>
<text text-anchor="middle" x="588.49" y="-46.3" font-family="Times,serif" font-size="14.00">CoExpStudy(25)</text>
</g>
<!-- Phenotype(13) -->
<g id="node3" class="node">
<title>Phenotype(13)</title>
<polygon fill="none" stroke="darkgreen" points="1265.97,-1090.54 1265.97,-1105.46 1226.39,-1116 1170.41,-1116 1130.83,-1105.46 1130.83,-1090.54 1170.41,-1080 1226.39,-1080 1265.97,-1090.54"/>
<polygon fill="none" stroke="darkgreen" points="1269.97,-1087.47 1269.97,-1108.53 1226.91,-1120 1169.89,-1120 1126.83,-1108.53 1126.83,-1087.47 1169.89,-1076 1226.91,-1076 1269.97,-1087.47"/>
<text text-anchor="middle" x="1198.4" y="-1094.3" font-family="Times,serif" font-size="14.00">Phenotype(13)</text>
</g>
<!-- PlantOntologyTerm(24) -->
<g id="node4" class="node">
<title>PlantOntologyTerm(24)</title>
<polygon fill="none" stroke="darkgreen" points="691.82,-104.54 691.82,-119.46 631.29,-130 545.69,-130 485.16,-119.46 485.16,-104.54 545.69,-94 631.29,-94 691.82,-104.54"/>
<polygon fill="none" stroke="darkgreen" points="695.82,-101.18 695.82,-122.82 631.64,-134 545.35,-134 481.17,-122.82 481.17,-101.18 545.35,-90 631.64,-90 695.82,-101.18"/>
<text text-anchor="middle" x="588.49" y="-108.3" font-family="Times,serif" font-size="14.00">PlantOntologyTerm(24)</text>
</g>
<!-- Trait(21) -->
<g id="node5" class="node">
<title>Trait(21)</title>
<polygon fill="none" stroke="darkgreen" points="1462.71,-694.54 1462.71,-709.46 1435.8,-720 1397.74,-720 1370.83,-709.46 1370.83,-694.54 1397.74,-684 1435.8,-684 1462.71,-694.54"/>
<polygon fill="none" stroke="darkgreen" points="1466.72,-691.82 1466.72,-712.18 1436.56,-724 1396.98,-724 1366.81,-712.18 1366.81,-691.82 1396.98,-680 1436.56,-680 1466.72,-691.82"/>
<text text-anchor="middle" x="1416.77" y="-698.3" font-family="Times,serif" font-size="14.00">Trait(21)</text>
</g>
<!-- Publication(2) -->
<g id="node6" class="node">
<title>Publication(2)</title>
<polygon fill="none" stroke="darkgreen" points="1483.02,-1159.54 1483.02,-1174.46 1444.21,-1185 1389.33,-1185 1350.52,-1174.46 1350.52,-1159.54 1389.33,-1149 1444.21,-1149 1483.02,-1159.54"/>
<polygon fill="none" stroke="darkgreen" points="1487.03,-1156.49 1487.03,-1177.51 1444.75,-1189 1388.79,-1189 1346.51,-1177.51 1346.51,-1156.49 1388.79,-1145 1444.75,-1145 1487.03,-1156.49"/>
<text text-anchor="middle" x="1416.77" y="-1163.3" font-family="Times,serif" font-size="14.00">Publication(2)</text>
</g>
<!-- SNPEffect(26) -->
<g id="node7" class="node">
<title>SNPEffect(26)</title>
<polygon fill="none" stroke="darkgreen" points="1266.87,-1152.54 1266.87,-1167.46 1226.76,-1178 1170.04,-1178 1129.94,-1167.46 1129.94,-1152.54 1170.04,-1142 1226.76,-1142 1266.87,-1152.54"/>
<polygon fill="none" stroke="darkgreen" points="1270.88,-1149.46 1270.88,-1170.54 1227.28,-1182 1169.52,-1182 1125.92,-1170.54 1125.92,-1149.46 1169.52,-1138 1227.28,-1138 1270.88,-1149.46"/>
<text text-anchor="middle" x="1198.4" y="-1156.3" font-family="Times,serif" font-size="14.00">SNPEffect(26)</text>
</g>
<!-- EC(15) -->
<g id="node8" class="node">
<title>EC(15)</title>
<polygon fill="none" stroke="darkgreen" points="627.79,-883.54 627.79,-898.46 604.77,-909 572.21,-909 549.19,-898.46 549.19,-883.54 572.21,-873 604.77,-873 627.79,-883.54"/>
<polygon fill="none" stroke="darkgreen" points="631.78,-880.97 631.78,-901.03 605.64,-913 571.35,-913 545.2,-901.03 545.2,-880.97 571.35,-869 605.64,-869 631.78,-880.97"/>
<text text-anchor="middle" x="588.49" y="-887.3" font-family="Times,serif" font-size="14.00">EC(15)</text>
</g>
<!-- Path(19) -->
<g id="node9" class="node">
<title>Path(19)</title>
<polygon fill="none" stroke="darkgreen" points="1242.56,-195.54 1242.56,-210.46 1216.69,-221 1180.11,-221 1154.25,-210.46 1154.25,-195.54 1180.11,-185 1216.69,-185 1242.56,-195.54"/>
<polygon fill="none" stroke="darkgreen" points="1246.54,-192.85 1246.54,-213.15 1217.47,-225 1179.33,-225 1150.26,-213.15 1150.26,-192.85 1179.33,-181 1217.47,-181 1246.54,-192.85"/>
<text text-anchor="middle" x="1198.4" y="-199.3" font-family="Times,serif" font-size="14.00">Path(19)</text>
</g>
<!-- Gene(1) -->
<g id="node10" class="node">
<title>Gene(1)</title>
<ellipse fill="none" stroke="red" cx="43.65" cy="-366" rx="39.78" ry="39.78"/>
<ellipse fill="none" stroke="red" cx="43.65" cy="-366" rx="43.79" ry="43.79"/>
<text text-anchor="middle" x="43.65" y="-362.3" font-family="Times,serif" font-size="14.00">Gene(1)</text>
</g>
<!-- Gene(1)&#45;&gt;DGES(22) -->
<g id="edge8" class="edge">
<title>Gene(1)&#45;&gt;DGES(22)</title>
<path fill="none" stroke="blue" d="M46.16,-409.68C50.93,-534.94 67.59,-893.43 105.29,-1004 120.89,-1049.75 124.76,-1066.82 163.29,-1096 382.4,-1261.92 740.46,-1230.72 876.89,-1211.19"/>
<text text-anchor="middle" x="397.58" y="-1215.8" font-family="Times,serif" font-size="14.00">differentially_expressed</text>
</g>
<!-- Gene(1)&#45;&gt;Trait(21) -->
<g id="edge7" class="edge">
<title>Gene(1)&#45;&gt;Trait(21)</title>
<path fill="none" stroke="black" d="M47.59,-322.22C56.73,-225.07 93.47,0 237.69,0 237.69,0 237.69,0 1199.4,0 1345.27,0 1403.21,-560.5 1413.89,-679.83"/>
<text text-anchor="middle" x="779.41" y="-3.8" font-family="Times,serif" font-size="14.00">cooc_wi</text>
</g>
<!-- Gene(1)&#45;&gt;Publication(2) -->
<g id="edge15" class="edge">
<title>Gene(1)&#45;&gt;Publication(2)</title>
<path fill="none" stroke="black" d="M45.84,-409.9C49.84,-542.18 64.92,-935.25 105.29,-1056 138.63,-1155.7 132.56,-1252 237.69,-1252 237.69,-1252 237.69,-1252 1199.4,-1252 1269.22,-1252 1343.49,-1213.18 1384.3,-1188.01"/>
<text text-anchor="middle" x="779.41" y="-1255.8" font-family="Times,serif" font-size="14.00">occ_in</text>
</g>
<!-- Gene(1)&#45;&gt;Path(19) -->
<g id="edge16" class="edge">
<title>Gene(1)&#45;&gt;Path(19)</title>
<path fill="none" stroke="blue" d="M61.92,-326.34C89.86,-269.06 150.76,-170 237.69,-170 237.69,-170 237.69,-170 934.03,-170 1010.07,-170 1097.5,-183.71 1150.05,-193.46"/>
<text text-anchor="middle" x="588.49" y="-173.8" font-family="Times,serif" font-size="14.00">part_of</text>
</g>
<!-- Gene(8) -->
<g id="node12" class="node">
<title>Gene(8)</title>
<polygon fill="none" stroke="darkgreen" points="975.87,-488.54 975.87,-503.46 950.78,-514 915.29,-514 890.2,-503.46 890.2,-488.54 915.29,-478 950.78,-478 975.87,-488.54"/>
<polygon fill="none" stroke="darkgreen" points="979.86,-485.88 979.86,-506.12 951.58,-518 914.49,-518 886.21,-506.12 886.21,-485.88 914.49,-474 951.58,-474 979.86,-485.88"/>
<text text-anchor="middle" x="933.03" y="-492.3" font-family="Times,serif" font-size="14.00">Gene(8)</text>
</g>
<!-- Gene(1)&#45;&gt;Gene(8) -->
<g id="edge11" class="edge">
<title>Gene(1)&#45;&gt;Gene(8)</title>
<path fill="none" stroke="black" d="M86.1,-354.34C141.58,-339.4 243.29,-314.32 332.08,-305 412.55,-296.56 620.79,-288.94 695.91,-319 786.09,-355.09 782.22,-405.9 862.91,-460 874.03,-467.46 886.89,-474.53 898.48,-480.41"/>
<text text-anchor="middle" x="397.58" y="-353.8" font-family="Times,serif" font-size="14.00">genetic(&lt;=2)</text>
<text text-anchor="middle" x="397.58" y="-338.8" font-family="Times,serif" font-size="14.00">homoeolog(&lt;=2)</text>
<text text-anchor="middle" x="397.58" y="-323.8" font-family="Times,serif" font-size="14.00">physical(&lt;=2)</text>
<text text-anchor="middle" x="397.58" y="-308.8" font-family="Times,serif" font-size="14.00">regulates(&lt;=2)</text>
</g>
<!-- Protein(7) -->
<g id="node15" class="node">
<title>Protein(7)</title>
<polygon fill="none" stroke="darkgreen" points="638.39,-398.54 638.39,-413.46 609.16,-424 567.82,-424 538.59,-413.46 538.59,-398.54 567.82,-388 609.16,-388 638.39,-398.54"/>
<polygon fill="none" stroke="darkgreen" points="642.39,-395.73 642.39,-416.27 609.86,-428 567.13,-428 534.6,-416.27 534.6,-395.73 567.13,-384 609.86,-384 642.39,-395.73"/>
<text text-anchor="middle" x="588.49" y="-402.3" font-family="Times,serif" font-size="14.00">Protein(7)</text>
</g>
<!-- Gene(1)&#45;&gt;Protein(7) -->
<g id="edge10" class="edge">
<title>Gene(1)&#45;&gt;Protein(7)</title>
<path fill="none" stroke="blue" d="M87.3,-365.01C163.18,-363.78 326.51,-363.57 463.08,-380 488.49,-383.06 516.42,-388.68 539.37,-393.92"/>
<text text-anchor="middle" x="238.69" y="-370.8" font-family="Times,serif" font-size="14.00">enc</text>
</g>
<!-- Reaction(188) -->
<g id="node17" class="node">
<title>Reaction(188)</title>
<polygon fill="none" stroke="darkgreen" points="999.28,-213.54 999.28,-228.46 960.48,-239 905.59,-239 866.79,-228.46 866.79,-213.54 905.59,-203 960.48,-203 999.28,-213.54"/>
<polygon fill="none" stroke="darkgreen" points="1003.29,-210.49 1003.29,-231.51 961.01,-243 905.06,-243 862.78,-231.51 862.78,-210.49 905.06,-199 961.01,-199 1003.29,-210.49"/>
<text text-anchor="middle" x="933.03" y="-217.3" font-family="Times,serif" font-size="14.00">Reaction(188)</text>
</g>
<!-- Gene(1)&#45;&gt;Reaction(188) -->
<g id="edge14" class="edge">
<title>Gene(1)&#45;&gt;Reaction(188)</title>
<path fill="none" stroke="blue" d="M81.44,-343.6C104.32,-330.49 134.72,-314.5 163.29,-304 299.22,-254.05 337.37,-249.85 481.08,-232 615.34,-215.32 773.75,-216.14 862.58,-218.44"/>
<text text-anchor="middle" x="397.58" y="-257.8" font-family="Times,serif" font-size="14.00">inv_in</text>
</g>
<!-- SNP(20) -->
<g id="node19" class="node">
<title>SNP(20)</title>
<ellipse fill="none" stroke="black" cx="933.03" cy="-1093" rx="41.69" ry="18"/>
<text text-anchor="middle" x="933.03" y="-1089.3" font-family="Times,serif" font-size="14.00">SNP(20)</text>
</g>
<!-- Gene(1)&#45;&gt;SNP(20) -->
<g id="edge13" class="edge">
<title>Gene(1)&#45;&gt;SNP(20)</title>
<path fill="none" stroke="black" d="M45.36,-409.75C48.6,-548.07 66.4,-971.87 163.29,-1059 254.64,-1141.14 591.19,-1102.55 713.91,-1108 772.07,-1110.58 786.9,-1112.96 844.91,-1108 861.58,-1106.58 879.85,-1103.64 895.33,-1100.75"/>
<text text-anchor="middle" x="397.58" y="-1130.8" font-family="Times,serif" font-size="14.00">has_mutant</text>
<text text-anchor="middle" x="397.58" y="-1115.8" font-family="Times,serif" font-size="14.00">has_variation</text>
</g>
<!-- Protein(10) -->
<g id="node22" class="node">
<title>Protein(10)</title>
<ellipse fill="none" stroke="black" cx="238.69" cy="-659" rx="50.89" ry="18"/>
<text text-anchor="middle" x="238.69" y="-655.3" font-family="Times,serif" font-size="14.00">Protein(10)</text>
</g>
<!-- Gene(1)&#45;&gt;Protein(10) -->
<g id="edge9" class="edge">
<title>Gene(1)&#45;&gt;Protein(10)</title>
<path fill="none" stroke="black" d="M68.51,-402.22C110.27,-465.61 195.11,-594.37 226.06,-641.35"/>
<text text-anchor="middle" x="125.29" y="-515.8" font-family="Times,serif" font-size="14.00">enc</text>
</g>
<!-- Gene(9) -->
<g id="node23" class="node">
<title>Gene(9)</title>
<ellipse fill="none" stroke="black" cx="588.49" cy="-1000" rx="39.79" ry="18"/>
<text text-anchor="middle" x="588.49" y="-996.3" font-family="Times,serif" font-size="14.00">Gene(9)</text>
</g>
<!-- Gene(1)&#45;&gt;Gene(9) -->
<g id="edge12" class="edge">
<title>Gene(1)&#45;&gt;Gene(9)</title>
<path fill="none" stroke="blue" d="M47.22,-409.55C57.28,-533.66 105.57,-887.82 332.08,-1006 404.44,-1043.75 504.73,-1024.14 555.42,-1010.12"/>
<text text-anchor="middle" x="238.69" y="-1043.8" font-family="Times,serif" font-size="14.00">genetic(&lt;=2)</text>
<text text-anchor="middle" x="238.69" y="-1028.8" font-family="Times,serif" font-size="14.00">homoeolog(&lt;=2)</text>
<text text-anchor="middle" x="238.69" y="-1013.8" font-family="Times,serif" font-size="14.00">physical(&lt;=2)</text>
<text text-anchor="middle" x="238.69" y="-998.8" font-family="Times,serif" font-size="14.00">regulates(&lt;=2)</text>
</g>
<!-- CoExpCluster(23) -->
<g id="node24" class="node">
<title>CoExpCluster(23)</title>
<ellipse fill="none" stroke="black" cx="238.69" cy="-118" rx="75.29" ry="18"/>
<text text-anchor="middle" x="238.69" y="-114.3" font-family="Times,serif" font-size="14.00">CoExpCluster(23)</text>
</g>
<!-- Gene(1)&#45;&gt;CoExpCluster(23) -->
<g id="edge17" class="edge">
<title>Gene(1)&#45;&gt;CoExpCluster(23)</title>
<path fill="none" stroke="black" d="M50.7,-322.83C59.77,-264.57 78.7,-165.27 105.29,-141 121.06,-126.61 142.47,-119.57 163.47,-116.46"/>
<text text-anchor="middle" x="125.29" y="-144.8" font-family="Times,serif" font-size="14.00">part_of</text>
</g>
<!-- MolFunc(3) -->
<g id="node11" class="node">
<title>MolFunc(3)</title>
<polygon fill="none" stroke="darkgreen" points="991.32,-845.54 991.32,-860.46 957.18,-871 908.89,-871 874.75,-860.46 874.75,-845.54 908.89,-835 957.18,-835 991.32,-845.54"/>
<polygon fill="none" stroke="darkgreen" points="995.31,-842.59 995.31,-863.41 957.78,-875 908.29,-875 870.75,-863.41 870.75,-842.59 908.29,-831 957.78,-831 995.31,-842.59"/>
<text text-anchor="middle" x="933.03" y="-849.3" font-family="Times,serif" font-size="14.00">MolFunc(3)</text>
</g>
<!-- CelComp(5) -->
<g id="node13" class="node">
<title>CelComp(5)</title>
<polygon fill="none" stroke="darkgreen" points="992.64,-716.54 992.64,-731.46 957.72,-742 908.34,-742 873.43,-731.46 873.43,-716.54 908.34,-706 957.72,-706 992.64,-716.54"/>
<polygon fill="none" stroke="darkgreen" points="996.63,-713.57 996.63,-734.43 958.31,-746 907.76,-746 869.44,-734.43 869.44,-713.57 907.76,-702 958.31,-702 996.63,-713.57"/>
<text text-anchor="middle" x="933.03" y="-720.3" font-family="Times,serif" font-size="14.00">CelComp(5)</text>
</g>
<!-- BioProc(4) -->
<g id="node14" class="node">
<title>BioProc(4)</title>
<polygon fill="none" stroke="darkgreen" points="987.36,-578.54 987.36,-593.46 955.54,-604 910.53,-604 878.71,-593.46 878.71,-578.54 910.53,-568 955.54,-568 987.36,-578.54"/>
<polygon fill="none" stroke="darkgreen" points="991.37,-575.66 991.37,-596.34 956.19,-608 909.88,-608 874.7,-596.34 874.7,-575.66 909.88,-564 956.19,-564 991.37,-575.66"/>
<text text-anchor="middle" x="933.03" y="-582.3" font-family="Times,serif" font-size="14.00">BioProc(4)</text>
</g>
<!-- ProtDomain(14) -->
<g id="node16" class="node">
<title>ProtDomain(14)</title>
<polygon fill="none" stroke="darkgreen" points="663.13,-713.54 663.13,-728.46 619.41,-739 557.58,-739 513.86,-728.46 513.86,-713.54 557.58,-703 619.41,-703 663.13,-713.54"/>
<polygon fill="none" stroke="darkgreen" points="667.13,-710.39 667.13,-731.61 619.88,-743 557.1,-743 509.85,-731.61 509.85,-710.39 557.1,-699 619.88,-699 667.13,-710.39"/>
<text text-anchor="middle" x="588.49" y="-717.3" font-family="Times,serif" font-size="14.00">ProtDomain(14)</text>
</g>
<!-- Enzyme(177) -->
<g id="node18" class="node">
<title>Enzyme(177)</title>
<polygon fill="none" stroke="darkgreen" points="652.53,-651.54 652.53,-666.46 615.02,-677 561.97,-677 524.46,-666.46 524.46,-651.54 561.97,-641 615.02,-641 652.53,-651.54"/>
<polygon fill="none" stroke="darkgreen" points="656.53,-648.51 656.53,-669.49 615.57,-681 561.42,-681 520.46,-669.49 520.46,-648.51 561.42,-637 615.57,-637 656.53,-648.51"/>
<text text-anchor="middle" x="588.49" y="-655.3" font-family="Times,serif" font-size="14.00">Enzyme(177)</text>
</g>
<!-- SNP(20)&#45;&gt;Phenotype(13) -->
<g id="edge2" class="edge">
<title>SNP(20)&#45;&gt;Phenotype(13)</title>
<path fill="none" stroke="blue" d="M974.61,-1093.77C1015.08,-1094.54 1078.08,-1095.73 1126.77,-1096.66"/>
<text text-anchor="middle" x="1064.66" y="-1099.8" font-family="Times,serif" font-size="14.00">associated_with</text>
</g>
<!-- SNP(20)&#45;&gt;SNPEffect(26) -->
<g id="edge3" class="edge">
<title>SNP(20)&#45;&gt;SNPEffect(26)</title>
<path fill="none" stroke="black" d="M969.28,-1101.97C1013.15,-1113.13 1088.64,-1132.33 1140.69,-1145.57"/>
<text text-anchor="middle" x="1064.66" y="-1139.8" font-family="Times,serif" font-size="14.00">leads_to</text>
</g>
<!-- Phenotype(133) -->
<g id="node20" class="node">
<title>Phenotype(133)</title>
<ellipse fill="none" stroke="black" cx="1198.4" cy="-1040" rx="66.89" ry="18"/>
<text text-anchor="middle" x="1198.4" y="-1036.3" font-family="Times,serif" font-size="14.00">Phenotype(133)</text>
</g>
<!-- SNP(20)&#45;&gt;Phenotype(133) -->
<g id="edge1" class="edge">
<title>SNP(20)&#45;&gt;Phenotype(133)</title>
<path fill="none" stroke="black" d="M970.91,-1085.32C986.42,-1082.1 1004.66,-1078.34 1021.16,-1075 1062.28,-1066.67 1108.84,-1057.43 1143.78,-1050.54"/>
<text text-anchor="middle" x="1064.66" y="-1078.8" font-family="Times,serif" font-size="14.00">associated_with</text>
</g>
<!-- Phenotype(133)&#45;&gt;Trait(21) -->
<g id="edge4" class="edge">
<title>Phenotype(133)&#45;&gt;Trait(21)</title>
<path fill="none" stroke="black" d="M1231.87,-1024.25C1260.98,-1008.62 1302.93,-982.08 1328.64,-948 1382.26,-876.92 1404.9,-770.02 1412.53,-724.17"/>
<text text-anchor="middle" x="1308.64" y="-990.8" font-family="Times,serif" font-size="14.00">part_of</text>
</g>
<!-- Phenotype(133)&#45;&gt;Publication(2) -->
<g id="edge5" class="edge">
<title>Phenotype(133)&#45;&gt;Publication(2)</title>
<path fill="none" stroke="blue" d="M1241.2,-1053.92C1251.06,-1057.72 1261.39,-1062.15 1270.64,-1067 1314,-1089.73 1359.85,-1123.11 1388.14,-1144.95"/>
<text text-anchor="middle" x="1308.64" y="-1104.8" font-family="Times,serif" font-size="14.00">pub_in</text>
</g>
<!-- Reaction(18) -->
<g id="node21" class="node">
<title>Reaction(18)</title>
<ellipse fill="none" stroke="black" cx="933.03" cy="-280" rx="56.59" ry="18"/>
<text text-anchor="middle" x="933.03" y="-276.3" font-family="Times,serif" font-size="14.00">Reaction(18)</text>
</g>
<!-- Reaction(18)&#45;&gt;Path(19) -->
<g id="edge6" class="edge">
<title>Reaction(18)&#45;&gt;Path(19)</title>
<path fill="none" stroke="blue" d="M975.19,-267.97C1024.23,-253.63 1105.75,-229.8 1155.23,-215.33"/>
<text text-anchor="middle" x="1064.66" y="-256.8" font-family="Times,serif" font-size="14.00">part_of</text>
</g>
<!-- Protein(10)&#45;&gt;Trait(21) -->
<g id="edge20" class="edge">
<title>Protein(10)&#45;&gt;Trait(21)</title>
<path fill="none" stroke="blue" d="M247.96,-641.14C261.54,-613.88 291.17,-562.21 332.08,-535 394.66,-493.38 930.81,-429.65 1003.16,-450 1168.81,-496.58 1333.75,-630.16 1392.89,-681.53"/>
<text text-anchor="middle" x="933.03" y="-453.8" font-family="Times,serif" font-size="14.00">cooc_wi</text>
</g>
<!-- Protein(10)&#45;&gt;Publication(2) -->
<g id="edge32" class="edge">
<title>Protein(10)&#45;&gt;Publication(2)</title>
<path fill="none" stroke="blue" d="M249.34,-676.99C265.66,-708.3 298.45,-775.31 314.08,-836 323.5,-872.58 310.17,-974.24 332.08,-1005 374.52,-1064.6 412.14,-1050.48 481.08,-1075 581.56,-1110.73 608.66,-1115.83 713.91,-1133 841.19,-1153.77 876.24,-1133.13 1003.16,-1156 1059.1,-1166.08 1069.87,-1183.15 1126.16,-1191 1204.74,-1201.96 1296.05,-1190.4 1354.81,-1179.85"/>
<text text-anchor="middle" x="933.03" y="-1159.8" font-family="Times,serif" font-size="14.00">pub_in</text>
</g>
<!-- Protein(10)&#45;&gt;EC(15) -->
<g id="edge19" class="edge">
<title>Protein(10)&#45;&gt;EC(15)</title>
<path fill="none" stroke="black" d="M243.34,-677.12C251.82,-714.25 276.53,-799.02 332.08,-841 394.8,-888.4 490.26,-894.47 544.97,-893.49"/>
<text text-anchor="middle" x="397.58" y="-891.8" font-family="Times,serif" font-size="14.00">cat_c</text>
</g>
<!-- Protein(10)&#45;&gt;MolFunc(3) -->
<g id="edge27" class="edge">
<title>Protein(10)&#45;&gt;MolFunc(3)</title>
<path fill="none" stroke="black" d="M240.31,-677.07C242.98,-723.83 257.15,-849.17 332.08,-907 374.62,-939.83 688.66,-926.69 695.91,-922 712.28,-911.41 698.27,-893.64 713.91,-882 738.04,-864.03 815.04,-857.2 870.72,-854.6"/>
<text text-anchor="middle" x="588.49" y="-931.8" font-family="Times,serif" font-size="14.00">has_function</text>
</g>
<!-- Protein(10)&#45;&gt;Gene(8) -->
<g id="edge22" class="edge">
<title>Protein(10)&#45;&gt;Gene(8)</title>
<path fill="none" stroke="blue" d="M252.22,-641.5C268.24,-620.52 298.02,-585.95 332.08,-568 361.15,-552.68 666.96,-504.34 713.91,-500 773.12,-494.53 841.74,-494.26 885.97,-494.88"/>
<text text-anchor="middle" x="588.49" y="-538.8" font-family="Times,serif" font-size="14.00">enc</text>
</g>
<!-- Protein(10)&#45;&gt;CelComp(5) -->
<g id="edge30" class="edge">
<title>Protein(10)&#45;&gt;CelComp(5)</title>
<path fill="none" stroke="blue" d="M277.12,-647.26C355.67,-624.37 543.05,-578.86 695.91,-613 736.8,-622.13 841.9,-676.03 897.06,-705.23"/>
<text text-anchor="middle" x="588.49" y="-616.8" font-family="Times,serif" font-size="14.00">located_in</text>
</g>
<!-- Protein(10)&#45;&gt;BioProc(4) -->
<g id="edge31" class="edge">
<title>Protein(10)&#45;&gt;BioProc(4)</title>
<path fill="none" stroke="black" d="M261.26,-642.88C279.26,-630.27 306.08,-613.34 332.08,-604 520.85,-536.15 764.96,-560.16 874.45,-576.25"/>
<text text-anchor="middle" x="588.49" y="-571.8" font-family="Times,serif" font-size="14.00">participates_in</text>
</g>
<!-- Protein(10)&#45;&gt;Protein(7) -->
<g id="edge24" class="edge">
<title>Protein(10)&#45;&gt;Protein(7)</title>
<path fill="none" stroke="blue" d="M241.32,-640.75C246.24,-597.57 265.03,-488.95 332.08,-438 347.85,-426.02 464.22,-415.29 534.33,-409.82"/>
<text text-anchor="middle" x="397.58" y="-486.8" font-family="Times,serif" font-size="14.00">equivalent(&lt;=4)</text>
<text text-anchor="middle" x="397.58" y="-471.8" font-family="Times,serif" font-size="14.00">h_s_s(&lt;=4)</text>
<text text-anchor="middle" x="397.58" y="-456.8" font-family="Times,serif" font-size="14.00">ortho(&lt;=4)</text>
<text text-anchor="middle" x="397.58" y="-441.8" font-family="Times,serif" font-size="14.00">xref(&lt;=8)</text>
</g>
<!-- Protein(10)&#45;&gt;ProtDomain(14) -->
<g id="edge26" class="edge">
<title>Protein(10)&#45;&gt;ProtDomain(14)</title>
<path fill="none" stroke="blue" d="M282.4,-668.12C298.01,-671.36 315.82,-674.96 332.08,-678 393.19,-689.42 462.78,-701.05 513.88,-709.33"/>
<text text-anchor="middle" x="397.58" y="-703.8" font-family="Times,serif" font-size="14.00">has_domain</text>
</g>
<!-- Protein(10)&#45;&gt;Enzyme(177) -->
<g id="edge29" class="edge">
<title>Protein(10)&#45;&gt;Enzyme(177)</title>
<path fill="none" stroke="black" d="M289.52,-659C350.19,-659 452.9,-659 520.46,-659"/>
<text text-anchor="middle" x="397.58" y="-662.8" font-family="Times,serif" font-size="14.00">is_a</text>
</g>
<!-- Protein(10)&#45;&gt;Protein(10) -->
<g id="edge23" class="edge">
<title>Protein(10)&#45;&gt;Protein(10)</title>
<path fill="none" stroke="black" d="M219,-675.66C214.62,-685.62 221.19,-695 238.69,-695 256.19,-695 262.75,-685.62 258.37,-675.66"/>
<text text-anchor="middle" x="238.69" y="-743.8" font-family="Times,serif" font-size="14.00">equivalent(&lt;=4)</text>
<text text-anchor="middle" x="238.69" y="-728.8" font-family="Times,serif" font-size="14.00">h_s_s(&lt;=4)</text>
<text text-anchor="middle" x="238.69" y="-713.8" font-family="Times,serif" font-size="14.00">ortho(&lt;=4)</text>
<text text-anchor="middle" x="238.69" y="-698.8" font-family="Times,serif" font-size="14.00">xref(&lt;=8)</text>
</g>
<!-- Protein(10)&#45;&gt;Gene(9) -->
<g id="edge21" class="edge">
<title>Protein(10)&#45;&gt;Gene(9)</title>
<path fill="none" stroke="black" d="M239.06,-677.22C238.3,-730.56 244.01,-887.33 332.08,-963 348.29,-976.92 482.15,-990.64 549.33,-996.73"/>
<text text-anchor="middle" x="397.58" y="-990.8" font-family="Times,serif" font-size="14.00">enc</text>
</g>
<!-- EC(12) -->
<g id="node25" class="node">
<title>EC(12)</title>
<ellipse fill="none" stroke="black" cx="588.49" cy="-833" rx="36.29" ry="18"/>
<text text-anchor="middle" x="588.49" y="-829.3" font-family="Times,serif" font-size="14.00">EC(12)</text>
</g>
<!-- Protein(10)&#45;&gt;EC(12) -->
<g id="edge18" class="edge">
<title>Protein(10)&#45;&gt;EC(12)</title>
<path fill="none" stroke="blue" d="M248.56,-677C262.53,-703.33 292.21,-751.94 332.08,-777 401.45,-820.61 499.97,-830.56 552.05,-832.64"/>
<text text-anchor="middle" x="397.58" y="-825.8" font-family="Times,serif" font-size="14.00">cat_c</text>
</g>
<!-- ProtDomain(11) -->
<g id="node26" class="node">
<title>ProtDomain(11)</title>
<ellipse fill="none" stroke="black" cx="588.49" cy="-779" rx="68.79" ry="18"/>
<text text-anchor="middle" x="588.49" y="-775.3" font-family="Times,serif" font-size="14.00">ProtDomain(11)</text>
</g>
<!-- Protein(10)&#45;&gt;ProtDomain(11) -->
<g id="edge25" class="edge">
<title>Protein(10)&#45;&gt;ProtDomain(11)</title>
<path fill="none" stroke="black" d="M260.52,-675.55C278.51,-689.08 305.69,-707.74 332.08,-719 395.86,-746.22 474.12,-762.28 527.07,-770.84"/>
<text text-anchor="middle" x="397.58" y="-761.8" font-family="Times,serif" font-size="14.00">has_domain</text>
</g>
<!-- Enzyme(17) -->
<g id="node27" class="node">
<title>Enzyme(17)</title>
<ellipse fill="none" stroke="black" cx="588.49" cy="-259" rx="54.69" ry="18"/>
<text text-anchor="middle" x="588.49" y="-255.3" font-family="Times,serif" font-size="14.00">Enzyme(17)</text>
</g>
<!-- Protein(10)&#45;&gt;Enzyme(17) -->
<g id="edge28" class="edge">
<title>Protein(10)&#45;&gt;Enzyme(17)</title>
<path fill="none" stroke="blue" d="M241.48,-640.81C246.9,-594.66 266.99,-471.43 332.08,-397 375.13,-347.77 405.55,-361.1 463.08,-330 497.21,-311.55 535.94,-289.22 560.99,-274.59"/>
<text text-anchor="middle" x="397.58" y="-400.8" font-family="Times,serif" font-size="14.00">is_a</text>
</g>
<!-- Gene(9)&#45;&gt;DGES(22) -->
<g id="edge35" class="edge">
<title>Gene(9)&#45;&gt;DGES(22)</title>
<path fill="none" stroke="black" d="M612.24,-1014.51C658.74,-1044.01 768.31,-1112.73 862.91,-1166 873.99,-1172.24 886.25,-1178.75 897.34,-1184.49"/>
<text text-anchor="middle" x="779.41" y="-1156.8" font-family="Times,serif" font-size="14.00">differentially_expressed</text>
</g>
<!-- Gene(9)&#45;&gt;Trait(21) -->
<g id="edge34" class="edge">
<title>Gene(9)&#45;&gt;Trait(21)</title>
<path fill="none" stroke="blue" d="M626.38,-994.63C686.91,-985.63 804.64,-967.27 844.91,-955 1059.3,-889.67 1299.74,-764.84 1384.32,-719.23"/>
<text text-anchor="middle" x="1064.66" y="-893.8" font-family="Times,serif" font-size="14.00">cooc_wi</text>
</g>
<!-- Gene(9)&#45;&gt;Publication(2) -->
<g id="edge42" class="edge">
<title>Gene(9)&#45;&gt;Publication(2)</title>
<path fill="none" stroke="blue" d="M627.8,-996.92C753.86,-987.36 1154.41,-961.81 1270.64,-1013 1333.18,-1040.54 1381.45,-1109.36 1403.18,-1144.93"/>
<text text-anchor="middle" x="1064.66" y="-988.8" font-family="Times,serif" font-size="14.00">pub_in</text>
</g>
<!-- Gene(9)&#45;&gt;MolFunc(3) -->
<g id="edge38" class="edge">
<title>Gene(9)&#45;&gt;MolFunc(3)</title>
<path fill="none" stroke="blue" d="M626.9,-995.34C648.75,-991.11 675.88,-983.09 695.91,-968 707.72,-959.1 701.59,-948.19 713.91,-940 763.14,-907.28 790.54,-940.22 844.91,-917 868.55,-906.9 891.84,-889.28 908.39,-875.08"/>
<text text-anchor="middle" x="779.41" y="-943.8" font-family="Times,serif" font-size="14.00">has_function</text>
</g>
<!-- Gene(9)&#45;&gt;Gene(8) -->
<g id="edge37" class="edge">
<title>Gene(9)&#45;&gt;Gene(8)</title>
<path fill="none" stroke="black" d="M628.13,-999.02C651.6,-996.2 680.01,-988.39 695.91,-968 722.98,-933.26 687.59,-607.32 713.91,-572 753.93,-518.3 834.56,-502.32 885.78,-497.7"/>
<text text-anchor="middle" x="779.41" y="-590.8" font-family="Times,serif" font-size="14.00">genetic(&lt;=8)</text>
<text text-anchor="middle" x="779.41" y="-575.8" font-family="Times,serif" font-size="14.00">physical(&lt;=8)</text>
</g>
<!-- Gene(9)&#45;&gt;CelComp(5) -->
<g id="edge40" class="edge">
<title>Gene(9)&#45;&gt;CelComp(5)</title>
<path fill="none" stroke="blue" d="M628.05,-997.64C650.74,-994.24 678.33,-986.3 695.91,-968 718.16,-944.83 691.7,-921.22 713.91,-898 755.98,-854 798.41,-897.3 844.91,-858 858.57,-846.45 853.72,-837.35 862.91,-822 879.04,-795.02 900.19,-765.77 914.83,-746.32"/>
<text text-anchor="middle" x="779.41" y="-901.8" font-family="Times,serif" font-size="14.00">located_in</text>
</g>
<!-- Gene(9)&#45;&gt;BioProc(4) -->
<g id="edge41" class="edge">
<title>Gene(9)&#45;&gt;BioProc(4)</title>
<path fill="none" stroke="black" d="M628.09,-998.74C651.38,-995.8 679.62,-987.95 695.91,-968 723.98,-933.6 684.58,-802.34 713.91,-769 753.3,-724.23 799.74,-778.94 844.91,-740 861.85,-725.39 852.78,-712.95 862.91,-693 878.52,-662.23 900.78,-629.23 915.78,-608.14"/>
<text text-anchor="middle" x="779.41" y="-772.8" font-family="Times,serif" font-size="14.00">participates_in</text>
</g>
<!-- Gene(9)&#45;&gt;SNP(20) -->
<g id="edge39" class="edge">
<title>Gene(9)&#45;&gt;SNP(20)</title>
<path fill="none" stroke="black" d="M627.6,-1003.66C678.3,-1009.32 770.24,-1022.32 844.91,-1048 867.45,-1055.75 891.39,-1068.48 908.46,-1078.43"/>
<text text-anchor="middle" x="779.41" y="-1051.8" font-family="Times,serif" font-size="14.00">has_variation</text>
</g>
<!-- Gene(9)&#45;&gt;Gene(9) -->
<g id="edge36" class="edge">
<title>Gene(9)&#45;&gt;Gene(9)</title>
<path fill="none" stroke="blue" d="M559.21,-1012.54C544.96,-1023.87 554.72,-1036 588.49,-1036 622.26,-1036 632.02,-1023.87 617.78,-1012.54"/>
<text text-anchor="middle" x="588.49" y="-1054.8" font-family="Times,serif" font-size="14.00">genetic(&lt;=8)</text>
<text text-anchor="middle" x="588.49" y="-1039.8" font-family="Times,serif" font-size="14.00">physical(&lt;=8)</text>
</g>
<!-- CoExpCluster(23)&#45;&gt;CoExpStudy(25) -->
<g id="edge50" class="edge">
<title>CoExpCluster(23)&#45;&gt;CoExpStudy(25)</title>
<path fill="none" stroke="black" d="M291.86,-105.04C304.96,-101.94 319.01,-98.73 332.08,-96 393.27,-83.21 463.16,-70.78 514.35,-62.06"/>
<text text-anchor="middle" x="397.58" y="-99.8" font-family="Times,serif" font-size="14.00">part_of</text>
</g>
<!-- CoExpCluster(23)&#45;&gt;PlantOntologyTerm(24) -->
<g id="edge48" class="edge">
<title>CoExpCluster(23)&#45;&gt;PlantOntologyTerm(24)</title>
<path fill="none" stroke="black" d="M314.3,-116.71C362.9,-115.87 427.07,-114.77 481,-113.84"/>
<text text-anchor="middle" x="397.58" y="-120.8" font-family="Times,serif" font-size="14.00">enriched_for</text>
</g>
<!-- CoExpCluster(23)&#45;&gt;BioProc(4) -->
<g id="edge49" class="edge">
<title>CoExpCluster(23)&#45;&gt;BioProc(4)</title>
<path fill="none" stroke="blue" d="M241.64,-136.05C247.19,-177.67 267.14,-280.39 332.08,-327 463.99,-421.67 580.24,-246.06 695.91,-360 722.97,-386.66 688.49,-501.76 713.91,-530 753.74,-574.25 787.38,-542.65 844.91,-558 859.18,-561.81 874.59,-566.55 888.41,-571.03"/>
<text text-anchor="middle" x="588.49" y="-363.8" font-family="Times,serif" font-size="14.00">enriched_for</text>
</g>
<!-- EC(12)&#45;&gt;MolFunc(3) -->
<g id="edge33" class="edge">
<title>EC(12)&#45;&gt;MolFunc(3)</title>
<path fill="none" stroke="blue" d="M625.11,-832.31C674.56,-831.71 766.73,-831.83 844.91,-839 853.6,-839.8 862.75,-840.93 871.71,-842.22"/>
<text text-anchor="middle" x="779.41" y="-842.8" font-family="Times,serif" font-size="14.00">equ</text>
</g>
<!-- ProtDomain(11)&#45;&gt;MolFunc(3) -->
<g id="edge43" class="edge">
<title>ProtDomain(11)&#45;&gt;MolFunc(3)</title>
<path fill="none" stroke="black" d="M656.22,-782.43C708.42,-786.42 782.38,-794.93 844.91,-813 862.82,-818.18 881.73,-826.48 897.34,-834.18"/>
<text text-anchor="middle" x="779.41" y="-816.8" font-family="Times,serif" font-size="14.00">has_function</text>
</g>
<!-- ProtDomain(11)&#45;&gt;CelComp(5) -->
<g id="edge44" class="edge">
<title>ProtDomain(11)&#45;&gt;CelComp(5)</title>
<path fill="none" stroke="blue" d="M651.08,-771.41C666.7,-767.4 682.76,-761.3 695.91,-752 707.68,-743.67 701.21,-731.83 713.91,-725 764.6,-697.72 831.99,-702.48 878.38,-710.86"/>
<text text-anchor="middle" x="779.41" y="-728.8" font-family="Times,serif" font-size="14.00">located_in</text>
</g>
<!-- ProtDomain(11)&#45;&gt;BioProc(4) -->
<g id="edge45" class="edge">
<title>ProtDomain(11)&#45;&gt;BioProc(4)</title>
<path fill="none" stroke="black" d="M654.72,-773.75C669.86,-769.69 684.78,-762.97 695.91,-752 717.86,-730.35 693.96,-708.51 713.91,-685 755.61,-635.85 826.78,-609.92 876.44,-597.12"/>
<text text-anchor="middle" x="779.41" y="-688.8" font-family="Times,serif" font-size="14.00">participates_in</text>
</g>
<!-- Enzyme(17)&#45;&gt;Reaction(188) -->
<g id="edge46" class="edge">
<title>Enzyme(17)&#45;&gt;Reaction(188)</title>
<path fill="none" stroke="blue" d="M640.41,-253.35C699.39,-246.81 796.89,-235.99 862.75,-228.69"/>
<text text-anchor="middle" x="779.41" y="-248.8" font-family="Times,serif" font-size="14.00">ca_by</text>
</g>
<!-- Enzyme(17)&#45;&gt;Reaction(18) -->
<g id="edge47" class="edge">
<title>Enzyme(17)&#45;&gt;Reaction(18)</title>
<path fill="none" stroke="black" d="M642.26,-262.24C705.98,-266.14 812.6,-272.68 877.22,-276.64"/>
<text text-anchor="middle" x="779.41" y="-278.8" font-family="Times,serif" font-size="14.00">ca_by</text>
</g>
</g>
</svg>
