<svg width="2217px" height="1419px"
 viewBox="0.00 0.00 1663.10 1064.24" xmlns="http://www.w3.org/2000/svg" xmlns:xlink="http://www.w3.org/1999/xlink">
<g id="graph0" class="graph" transform=" rotate(0) translate(4 1060.24)">
<title>%3</title>
<polygon fill="white" stroke="transparent" points="-4,4 -4,-1060.24 1659.1,-1060.24 1659.1,4 -4,4"/>
<!-- MolFunc(3) -->
<g id="node1" class="node">
<title>MolFunc(3)</title>
<polygon fill="none" stroke="darkgreen" points="1470.56,-707.54 1470.56,-722.46 1436.95,-733 1389.4,-733 1355.78,-722.46 1355.78,-707.54 1389.4,-697 1436.95,-697 1470.56,-707.54"/>
<polygon fill="none" stroke="darkgreen" points="1474.58,-704.61 1474.58,-725.39 1437.56,-737 1388.79,-737 1351.77,-725.39 1351.77,-704.61 1388.79,-693 1437.56,-693 1474.58,-704.61"/>
<text text-anchor="middle" x="1413.17" y="-710.8" font-family="Times,serif" font-size="14.00">MolFunc(3)</text>
</g>
<!-- Protein(7) -->
<g id="node2" class="node">
<title>Protein(7)</title>
<polygon fill="none" stroke="darkgreen" points="1196.91,-1003.54 1196.91,-1018.46 1167.9,-1029 1126.87,-1029 1097.86,-1018.46 1097.86,-1003.54 1126.87,-993 1167.9,-993 1196.91,-1003.54"/>
<polygon fill="none" stroke="darkgreen" points="1200.89,-1000.74 1200.89,-1021.26 1168.6,-1033 1126.17,-1033 1093.88,-1021.26 1093.88,-1000.74 1126.17,-989 1168.6,-989 1200.89,-1000.74"/>
<text text-anchor="middle" x="1147.38" y="-1006.8" font-family="Times,serif" font-size="14.00">Protein(7)</text>
</g>
<!-- DGES(22) -->
<g id="node3" class="node">
<title>DGES(22)</title>
<polygon fill="none" stroke="darkgreen" points="684.29,-330.54 684.29,-345.46 653.97,-356 611.07,-356 580.75,-345.46 580.75,-330.54 611.07,-320 653.97,-320 684.29,-330.54"/>
<polygon fill="none" stroke="darkgreen" points="688.29,-327.7 688.29,-348.3 654.64,-360 610.4,-360 576.75,-348.3 576.75,-327.7 610.4,-316 654.64,-316 688.29,-327.7"/>
<text text-anchor="middle" x="632.52" y="-333.8" font-family="Times,serif" font-size="14.00">DGES(22)</text>
</g>
<!-- Path(19) -->
<g id="node4" class="node">
<title>Path(19)</title>
<polygon fill="none" stroke="darkgreen" points="1651.02,-474.54 1651.02,-489.46 1625.35,-500 1589.05,-500 1563.38,-489.46 1563.38,-474.54 1589.05,-464 1625.35,-464 1651.02,-474.54"/>
<polygon fill="none" stroke="darkgreen" points="1655.01,-471.86 1655.01,-492.14 1626.14,-504 1588.26,-504 1559.39,-492.14 1559.39,-471.86 1588.26,-460 1626.14,-460 1655.01,-471.86"/>
<text text-anchor="middle" x="1607.2" y="-477.8" font-family="Times,serif" font-size="14.00">Path(19)</text>
</g>
<!-- BioProc(4) -->
<g id="node5" class="node">
<title>BioProc(4)</title>
<polygon fill="none" stroke="darkgreen" points="1466.63,-386.54 1466.63,-401.46 1435.32,-412 1391.03,-412 1359.72,-401.46 1359.72,-386.54 1391.03,-376 1435.32,-376 1466.63,-386.54"/>
<polygon fill="none" stroke="darkgreen" points="1470.63,-383.67 1470.63,-404.33 1435.97,-416 1390.38,-416 1355.72,-404.33 1355.72,-383.67 1390.38,-372 1435.97,-372 1470.63,-383.67"/>
<text text-anchor="middle" x="1413.17" y="-389.8" font-family="Times,serif" font-size="14.00">BioProc(4)</text>
</g>
<!-- PlantOntologyTerm(24) -->
<g id="node6" class="node">
<title>PlantOntologyTerm(24)</title>
<polygon fill="none" stroke="darkgreen" points="735.1,-14.54 735.1,-29.46 675.01,-40 590.03,-40 529.94,-29.46 529.94,-14.54 590.03,-4 675.01,-4 735.1,-14.54"/>
<polygon fill="none" stroke="darkgreen" points="739.09,-11.18 739.09,-32.82 675.36,-44 589.68,-44 525.95,-32.82 525.95,-11.18 589.68,0 675.36,0 739.09,-11.18"/>
<text text-anchor="middle" x="632.52" y="-17.8" font-family="Times,serif" font-size="14.00">PlantOntologyTerm(24)</text>
</g>
<!-- CoExpStudy(25) -->
<g id="node7" class="node">
<title>CoExpStudy(25)</title>
<polygon fill="none" stroke="darkgreen" points="708.16,-76.54 708.16,-91.46 663.85,-102 601.19,-102 556.88,-91.46 556.88,-76.54 601.19,-66 663.85,-66 708.16,-76.54"/>
<polygon fill="none" stroke="darkgreen" points="712.16,-73.38 712.16,-94.62 664.32,-106 600.72,-106 552.88,-94.62 552.88,-73.38 600.72,-62 664.32,-62 712.16,-73.38"/>
<text text-anchor="middle" x="632.52" y="-79.8" font-family="Times,serif" font-size="14.00">CoExpStudy(25)</text>
</g>
<!-- Publication(2) -->
<g id="node8" class="node">
<title>Publication(2)</title>
<polygon fill="none" stroke="darkgreen" points="1213.28,-405.54 1213.28,-420.46 1174.68,-431 1120.09,-431 1081.49,-420.46 1081.49,-405.54 1120.09,-395 1174.68,-395 1213.28,-405.54"/>
<polygon fill="none" stroke="darkgreen" points="1217.29,-402.49 1217.29,-423.51 1175.22,-435 1119.55,-435 1077.48,-423.51 1077.48,-402.49 1119.55,-391 1175.22,-391 1217.29,-402.49"/>
<text text-anchor="middle" x="1147.38" y="-408.8" font-family="Times,serif" font-size="14.00">Publication(2)</text>
</g>
<!-- Trait(21) -->
<g id="node9" class="node">
<title>Trait(21)</title>
<polygon fill="none" stroke="darkgreen" points="1192.69,-264.54 1192.69,-279.46 1166.15,-290 1128.62,-290 1102.08,-279.46 1102.08,-264.54 1128.62,-254 1166.15,-254 1192.69,-264.54"/>
<polygon fill="none" stroke="darkgreen" points="1196.7,-261.83 1196.7,-282.17 1166.92,-294 1127.85,-294 1098.07,-282.17 1098.07,-261.83 1127.85,-250 1166.92,-250 1196.7,-261.83"/>
<text text-anchor="middle" x="1147.38" y="-267.8" font-family="Times,serif" font-size="14.00">Trait(21)</text>
</g>
<!-- ProtDomain(14) -->
<g id="node10" class="node">
<title>ProtDomain(14)</title>
<polygon fill="none" stroke="darkgreen" points="1221.24,-829.54 1221.24,-844.46 1177.98,-855 1116.79,-855 1073.53,-844.46 1073.53,-829.54 1116.79,-819 1177.98,-819 1221.24,-829.54"/>
<polygon fill="none" stroke="darkgreen" points="1225.25,-826.4 1225.25,-847.6 1178.46,-859 1116.31,-859 1069.52,-847.6 1069.52,-826.4 1116.31,-815 1178.46,-815 1225.25,-826.4"/>
<text text-anchor="middle" x="1147.38" y="-832.8" font-family="Times,serif" font-size="14.00">ProtDomain(14)</text>
</g>
<!-- SNPEffect(26) -->
<g id="node11" class="node">
<title>SNPEffect(26)</title>
<polygon fill="none" stroke="darkgreen" points="962.2,-276.54 962.2,-291.46 922.48,-302 866.3,-302 826.58,-291.46 826.58,-276.54 866.3,-266 922.48,-266 962.2,-276.54"/>
<polygon fill="none" stroke="darkgreen" points="966.21,-273.47 966.21,-294.53 923,-306 865.78,-306 822.58,-294.53 822.58,-273.47 865.78,-262 923,-262 966.21,-273.47"/>
<text text-anchor="middle" x="894.39" y="-279.8" font-family="Times,serif" font-size="14.00">SNPEffect(26)</text>
</g>
<!-- Reaction(188) -->
<g id="node12" class="node">
<title>Reaction(188)</title>
<polygon fill="none" stroke="darkgreen" points="1479.05,-532.54 1479.05,-547.46 1440.46,-558 1385.89,-558 1347.3,-547.46 1347.3,-532.54 1385.89,-522 1440.46,-522 1479.05,-532.54"/>
<polygon fill="none" stroke="darkgreen" points="1483.06,-529.49 1483.06,-550.51 1441,-562 1385.35,-562 1343.29,-550.51 1343.29,-529.49 1385.35,-518 1441,-518 1483.06,-529.49"/>
<text text-anchor="middle" x="1413.17" y="-535.8" font-family="Times,serif" font-size="14.00">Reaction(188)</text>
</g>
<!-- Enzyme(177) -->
<g id="node13" class="node">
<title>Enzyme(177)</title>
<polygon fill="none" stroke="darkgreen" points="1210.45,-663.54 1210.45,-678.46 1173.51,-689 1121.26,-689 1084.32,-678.46 1084.32,-663.54 1121.26,-653 1173.51,-653 1210.45,-663.54"/>
<polygon fill="none" stroke="darkgreen" points="1214.45,-660.53 1214.45,-681.47 1174.07,-693 1120.7,-693 1080.32,-681.47 1080.32,-660.53 1120.7,-649 1174.07,-649 1214.45,-660.53"/>
<text text-anchor="middle" x="1147.38" y="-666.8" font-family="Times,serif" font-size="14.00">Enzyme(177)</text>
</g>
<!-- CelComp(5) -->
<g id="node14" class="node">
<title>CelComp(5)</title>
<polygon fill="none" stroke="darkgreen" points="1471.78,-887.54 1471.78,-902.46 1437.45,-913 1388.9,-913 1354.57,-902.46 1354.57,-887.54 1388.9,-877 1437.45,-877 1471.78,-887.54"/>
<polygon fill="none" stroke="darkgreen" points="1475.77,-884.59 1475.77,-905.41 1438.05,-917 1388.3,-917 1350.58,-905.41 1350.58,-884.59 1388.3,-873 1438.05,-873 1475.77,-884.59"/>
<text text-anchor="middle" x="1413.17" y="-890.8" font-family="Times,serif" font-size="14.00">CelComp(5)</text>
</g>
<!-- EC(15) -->
<g id="node15" class="node">
<title>EC(15)</title>
<polygon fill="none" stroke="darkgreen" points="1186.61,-941.54 1186.61,-956.46 1163.63,-967 1131.14,-967 1108.16,-956.46 1108.16,-941.54 1131.14,-931 1163.63,-931 1186.61,-941.54"/>
<polygon fill="none" stroke="darkgreen" points="1190.62,-938.98 1190.62,-959.02 1164.51,-971 1130.26,-971 1104.15,-959.02 1104.15,-938.98 1130.26,-927 1164.51,-927 1190.62,-938.98"/>
<text text-anchor="middle" x="1147.38" y="-944.8" font-family="Times,serif" font-size="14.00">EC(15)</text>
</g>
<!-- Gene(8) -->
<g id="node16" class="node">
<title>Gene(8)</title>
<polygon fill="none" stroke="darkgreen" points="674.63,-761.54 674.63,-776.46 649.96,-787 615.08,-787 590.41,-776.46 590.41,-761.54 615.08,-751 649.96,-751 674.63,-761.54"/>
<polygon fill="none" stroke="darkgreen" points="678.61,-758.9 678.61,-779.1 650.78,-791 614.26,-791 586.43,-779.1 586.43,-758.9 614.26,-747 650.78,-747 678.61,-758.9"/>
<text text-anchor="middle" x="632.52" y="-764.8" font-family="Times,serif" font-size="14.00">Gene(8)</text>
</g>
<!-- Protein(10) -->
<g id="node23" class="node">
<title>Protein(10)</title>
<ellipse fill="none" stroke="black" cx="894.39" cy="-719" rx="50.27" ry="18"/>
<text text-anchor="middle" x="894.39" y="-714.8" font-family="Times,serif" font-size="14.00">Protein(10)</text>
</g>
<!-- Gene(8)&#45;&gt;Protein(10) -->
<g id="edge37" class="edge">
<title>Gene(8)&#45;&gt;Protein(10)</title>
<path fill="none" stroke="black" d="M678.79,-760.29C723.49,-751.69 791.89,-738.53 839.4,-729.39"/>
<polygon fill="black" stroke="black" points="840.35,-732.77 849.51,-727.44 839.03,-725.9 840.35,-732.77"/>
<text text-anchor="middle" x="781.02" y="-746.8" font-family="Times,serif" font-size="14.00">enc</text>
</g>
<!-- Phenotype(13) -->
<g id="node17" class="node">
<title>Phenotype(13)</title>
<polygon fill="none" stroke="darkgreen" points="699.63,-506.54 699.63,-521.46 660.32,-532 604.72,-532 565.41,-521.46 565.41,-506.54 604.72,-496 660.32,-496 699.63,-506.54"/>
<polygon fill="none" stroke="darkgreen" points="703.61,-503.47 703.61,-524.53 660.84,-536 604.2,-536 561.43,-524.53 561.43,-503.47 604.2,-492 660.84,-492 703.61,-503.47"/>
<text text-anchor="middle" x="632.52" y="-509.8" font-family="Times,serif" font-size="14.00">Phenotype(13)</text>
</g>
<!-- Gene(1) -->
<g id="node18" class="node">
<title>Gene(1)</title>
<ellipse fill="none" stroke="red" cx="43.08" cy="-427" rx="39.15" ry="39.15"/>
<ellipse fill="none" stroke="red" cx="43.08" cy="-427" rx="43.15" ry="43.15"/>
<text text-anchor="middle" x="43.08" y="-422.8" font-family="Times,serif" font-size="14.00">Gene(1)</text>
</g>
<!-- Gene(1)&#45;&gt;Protein(7) -->
<g id="edge43" class="edge">
<title>Gene(1)&#45;&gt;Protein(7)</title>
<path fill="none" stroke="black" d="M43.09,-470.29C43.04,-544.44 50.15,-698.98 104.15,-815 153.95,-921.97 160.76,-1015 278.75,-1015 278.75,-1015 278.75,-1015 895.39,-1015 959.4,-1015 1032.59,-1013.68 1083.34,-1012.56"/>
<polygon fill="black" stroke="black" points="1083.59,-1016.06 1093.51,-1012.33 1083.43,-1009.06 1083.59,-1016.06"/>
<text text-anchor="middle" x="632.52" y="-1017.8" font-family="Times,serif" font-size="14.00">enc</text>
</g>
<!-- Gene(1)&#45;&gt;DGES(22) -->
<g id="edge41" class="edge">
<title>Gene(1)&#45;&gt;DGES(22)</title>
<path fill="none" stroke="black" d="M56.14,-385.95C65.3,-362.77 80.44,-335.75 104.15,-322 180.84,-277.53 443.04,-309.45 566.39,-327.67"/>
<polygon fill="black" stroke="black" points="566.05,-331.16 576.45,-329.17 567.08,-324.24 566.05,-331.16"/>
<text text-anchor="middle" x="279.75" y="-306.8" font-family="Times,serif" font-size="14.00">differentially_expressed</text>
</g>
<!-- Gene(1)&#45;&gt;Publication(2) -->
<g id="edge45" class="edge">
<title>Gene(1)&#45;&gt;Publication(2)</title>
<path fill="none" stroke="black" d="M84.61,-414.95C146.45,-396.76 268.21,-361.66 372.7,-336 432.31,-321.36 452.1,-332.94 507.73,-307 516.92,-302.72 516.15,-296.29 525.73,-293 615.52,-262.19 646.68,-272.24 739.31,-293 848.04,-317.37 867.98,-347.09 966.05,-400 974.3,-404.45 975.04,-408.41 984.05,-411 1010.59,-418.64 1040.59,-420.73 1067.52,-420.39"/>
<polygon fill="black" stroke="black" points="1067.76,-423.89 1077.68,-420.15 1067.6,-416.89 1067.76,-423.89"/>
<text text-anchor="middle" x="632.52" y="-295.8" font-family="Times,serif" font-size="14.00">occ_in</text>
</g>
<!-- Gene(1)&#45;&gt;Trait(21) -->
<g id="edge38" class="edge">
<title>Gene(1)&#45;&gt;Trait(21)</title>
<path fill="none" stroke="black" d="M48.09,-384.14C54,-343.81 68.52,-284.08 104.15,-246 160.84,-185.43 195.79,-180 278.75,-180 278.75,-180 278.75,-180 895.39,-180 980.32,-180 1072.09,-227.01 1117.51,-253.82"/>
<text text-anchor="middle" x="632.52" y="-182.8" font-family="Times,serif" font-size="14.00">cooc_wi</text>
</g>
<!-- Gene(1)&#45;&gt;Gene(8) -->
<g id="edge39" class="edge">
<title>Gene(1)&#45;&gt;Gene(8)</title>
<path fill="none" stroke="blue" d="M44.94,-470.31C47.63,-555.28 58.68,-739.06 104.15,-779 246.57,-904.1 503.48,-820.35 596.61,-783.71"/>
<text text-anchor="middle" x="279.75" y="-847.8" font-family="Times,serif" font-size="14.00">homoeolog</text>
</g>
<!-- Gene(1)&#45;&gt;Gene(8) -->
<g id="edge48" class="edge">
<title>Gene(1)&#45;&gt;Gene(8)</title>
<path fill="none" stroke="blue" d="M46.27,-470.15C51.09,-546.1 65.47,-698.9 104.15,-733 172.88,-793.59 455.24,-781.56 576.16,-773.34"/>
<polygon fill="blue" stroke="blue" points="576.58,-776.82 586.31,-772.63 576.09,-769.83 576.58,-776.82"/>
<text text-anchor="middle" x="279.75" y="-781.8" font-family="Times,serif" font-size="14.00">regulates(&lt;=1)</text>
</g>
<!-- CoExpCluster(23) -->
<g id="node20" class="node">
<title>CoExpCluster(23)</title>
<ellipse fill="none" stroke="black" cx="279.75" cy="-109" rx="74.9" ry="18"/>
<text text-anchor="middle" x="279.75" y="-104.8" font-family="Times,serif" font-size="14.00">CoExpCluster(23)</text>
</g>
<!-- Gene(1)&#45;&gt;CoExpCluster(23) -->
<g id="edge46" class="edge">
<title>Gene(1)&#45;&gt;CoExpCluster(23)</title>
<path fill="none" stroke="blue" d="M47.95,-384.14C55.05,-315.33 72.4,-184.6 104.15,-152 127.64,-127.88 162.33,-116.45 194.61,-111.3"/>
<polygon fill="blue" stroke="blue" points="195.12,-114.76 204.53,-109.9 194.14,-107.83 195.12,-114.76"/>
<text text-anchor="middle" x="145.48" y="-154.8" font-family="Times,serif" font-size="14.00">part_of</text>
</g>
<!-- SNP(20) -->
<g id="node21" class="node">
<title>SNP(20)</title>
<ellipse fill="none" stroke="black" cx="632.52" cy="-230" rx="41.13" ry="18"/>
<text text-anchor="middle" x="632.52" y="-225.8" font-family="Times,serif" font-size="14.00">SNP(20)</text>
</g>
<!-- Gene(1)&#45;&gt;SNP(20) -->
<g id="edge44" class="edge">
<title>Gene(1)&#45;&gt;SNP(20)</title>
<path fill="none" stroke="blue" d="M54.11,-385.25C62.9,-357.19 78.4,-321.38 104.15,-299 242.8,-178.53 484.39,-203.62 585.23,-220.79"/>
<polygon fill="blue" stroke="blue" points="584.66,-224.25 595.12,-222.53 585.87,-217.35 584.66,-224.25"/>
<text text-anchor="middle" x="279.75" y="-257.8" font-family="Times,serif" font-size="14.00">has_mutant</text>
<text text-anchor="middle" x="279.75" y="-243.8" font-family="Times,serif" font-size="14.00">has_variation</text>
</g>
<!-- Gene(1)&#45;&gt;Protein(10) -->
<g id="edge42" class="edge">
<title>Gene(1)&#45;&gt;Protein(10)</title>
<path fill="none" stroke="blue" d="M70.99,-460.17C122.25,-520.48 240.62,-646.53 372.7,-697 455.36,-728.58 715.67,-724.75 833.91,-721.18"/>
<polygon fill="blue" stroke="blue" points="834.33,-724.67 844.22,-720.86 834.12,-717.67 834.33,-724.67"/>
<text text-anchor="middle" x="440.22" y="-720.8" font-family="Times,serif" font-size="14.00">enc</text>
</g>
<!-- Gene(9) -->
<g id="node26" class="node">
<title>Gene(9)</title>
<ellipse fill="none" stroke="black" cx="279.75" cy="-464" rx="39.15" ry="18"/>
<text text-anchor="middle" x="279.75" y="-459.8" font-family="Times,serif" font-size="14.00">Gene(9)</text>
</g>
<!-- Gene(1)&#45;&gt;Gene(9) -->
<g id="edge40" class="edge">
<title>Gene(1)&#45;&gt;Gene(9)</title>
<path fill="none" stroke="black" d="M84.98,-437.9C91.37,-439.41 97.92,-440.83 104.15,-442 151,-450.77 205.59,-457.02 241.09,-460.57"/>
<text text-anchor="middle" x="145.48" y="-457.8" font-family="Times,serif" font-size="14.00">homoeolog</text>
</g>
<!-- Gene(1)&#45;&gt;Gene(9) -->
<g id="edge47" class="edge">
<title>Gene(1)&#45;&gt;Gene(9)</title>
<path fill="none" stroke="black" d="M86.06,-421.2C114.74,-418.44 153.44,-417.06 186.8,-424 207.08,-428.22 228.37,-437.16 245.35,-445.51"/>
<polygon fill="black" stroke="black" points="243.8,-448.66 254.3,-450.06 246.97,-442.41 243.8,-448.66"/>
<text text-anchor="middle" x="145.48" y="-426.8" font-family="Times,serif" font-size="14.00">regulates(&lt;=1)</text>
</g>
<!-- Reaction(18) -->
<g id="node19" class="node">
<title>Reaction(18)</title>
<ellipse fill="none" stroke="black" cx="1413.17" cy="-482" rx="56.04" ry="18"/>
<text text-anchor="middle" x="1413.17" y="-477.8" font-family="Times,serif" font-size="14.00">Reaction(18)</text>
</g>
<!-- Reaction(18)&#45;&gt;Path(19) -->
<g id="edge1" class="edge">
<title>Reaction(18)&#45;&gt;Path(19)</title>
<path fill="none" stroke="blue" d="M1469.46,-482C1494.39,-482 1523.81,-482 1548.97,-482"/>
<polygon fill="blue" stroke="blue" points="1549.1,-485.5 1559.1,-482 1549.1,-478.5 1549.1,-485.5"/>
<text text-anchor="middle" x="1521.08" y="-484.8" font-family="Times,serif" font-size="14.00">part_of</text>
</g>
<!-- CoExpCluster(23)&#45;&gt;BioProc(4) -->
<g id="edge2" class="edge">
<title>CoExpCluster(23)&#45;&gt;BioProc(4)</title>
<path fill="none" stroke="blue" d="M346.5,-117.39C355.3,-118.36 364.21,-119.26 372.7,-120 487.47,-129.96 516.32,-134 631.52,-134 631.52,-134 631.52,-134 1148.38,-134 1277.35,-134 1366.16,-293.59 1398.57,-362.71"/>
<polygon fill="blue" stroke="blue" points="1395.41,-364.21 1402.76,-371.83 1401.76,-361.28 1395.41,-364.21"/>
<text text-anchor="middle" x="894.39" y="-136.8" font-family="Times,serif" font-size="14.00">enriched_for</text>
</g>
<!-- CoExpCluster(23)&#45;&gt;PlantOntologyTerm(24) -->
<g id="edge3" class="edge">
<title>CoExpCluster(23)&#45;&gt;PlantOntologyTerm(24)</title>
<path fill="none" stroke="black" d="M319.74,-93.65C335.96,-87.63 355.08,-80.98 372.7,-76 426.43,-60.83 487.52,-47.89 536.86,-38.48"/>
<polygon fill="black" stroke="black" points="537.7,-41.88 546.88,-36.59 536.4,-35 537.7,-41.88"/>
<text text-anchor="middle" x="440.22" y="-78.8" font-family="Times,serif" font-size="14.00">enriched_for</text>
</g>
<!-- CoExpCluster(23)&#45;&gt;CoExpStudy(25) -->
<g id="edge4" class="edge">
<title>CoExpCluster(23)&#45;&gt;CoExpStudy(25)</title>
<path fill="none" stroke="blue" d="M351.74,-103.94C406.8,-100.02 483.46,-94.55 542.62,-90.34"/>
<polygon fill="blue" stroke="blue" points="542.97,-93.82 552.7,-89.62 542.47,-86.84 542.97,-93.82"/>
<text text-anchor="middle" x="440.22" y="-105.8" font-family="Times,serif" font-size="14.00">part_of</text>
</g>
<!-- SNP(20)&#45;&gt;Trait(21) -->
<g id="edge5" class="edge">
<title>SNP(20)&#45;&gt;Trait(21)</title>
<path fill="none" stroke="black" d="M673.57,-229.1C736.18,-228.14 860.93,-228.03 966.05,-239 1007.54,-243.33 1053.81,-251.88 1089.1,-259.19"/>
<polygon fill="black" stroke="black" points="1088.7,-262.68 1099.21,-261.31 1090.14,-255.83 1088.7,-262.68"/>
<text text-anchor="middle" x="894.39" y="-241.8" font-family="Times,serif" font-size="14.00">associated_with</text>
</g>
<!-- SNP(20)&#45;&gt;SNPEffect(26) -->
<g id="edge6" class="edge">
<title>SNP(20)&#45;&gt;SNPEffect(26)</title>
<path fill="none" stroke="blue" d="M669.93,-237.57C709,-245.68 772.08,-258.79 821.27,-269.01"/>
<polygon fill="blue" stroke="blue" points="820.73,-272.48 831.23,-271.08 822.15,-265.62 820.73,-272.48"/>
<text text-anchor="middle" x="781.02" y="-267.8" font-family="Times,serif" font-size="14.00">leads_to</text>
</g>
<!-- Enzyme(17) -->
<g id="node22" class="node">
<title>Enzyme(17)</title>
<ellipse fill="none" stroke="black" cx="1147.38" cy="-521" rx="53.63" ry="18"/>
<text text-anchor="middle" x="1147.38" y="-516.8" font-family="Times,serif" font-size="14.00">Enzyme(17)</text>
</g>
<!-- Enzyme(17)&#45;&gt;Reaction(188) -->
<g id="edge8" class="edge">
<title>Enzyme(17)&#45;&gt;Reaction(188)</title>
<path fill="none" stroke="blue" d="M1200.19,-524.73C1237.97,-527.45 1289.86,-531.19 1332.85,-534.29"/>
<polygon fill="blue" stroke="blue" points="1332.78,-537.79 1343.01,-535.02 1333.28,-530.81 1332.78,-537.79"/>
<text text-anchor="middle" x="1284.27" y="-536.8" font-family="Times,serif" font-size="14.00">ca_by</text>
</g>
<!-- Enzyme(17)&#45;&gt;Reaction(18) -->
<g id="edge7" class="edge">
<title>Enzyme(17)&#45;&gt;Reaction(18)</title>
<path fill="none" stroke="black" d="M1196.77,-513.85C1240.42,-507.39 1304.8,-497.88 1351.8,-490.93"/>
<polygon fill="black" stroke="black" points="1352.47,-494.36 1361.85,-489.44 1351.45,-487.44 1352.47,-494.36"/>
<text text-anchor="middle" x="1284.27" y="-509.8" font-family="Times,serif" font-size="14.00">ca_by</text>
</g>
<!-- Protein(10)&#45;&gt;MolFunc(3) -->
<g id="edge16" class="edge">
<title>Protein(10)&#45;&gt;MolFunc(3)</title>
<path fill="none" stroke="black" d="M944.94,-718.62C1037.11,-717.9 1235.18,-716.37 1341.42,-715.55"/>
<polygon fill="black" stroke="black" points="1341.75,-719.05 1351.72,-715.47 1341.69,-712.05 1341.75,-719.05"/>
<text text-anchor="middle" x="1147.38" y="-719.8" font-family="Times,serif" font-size="14.00">has_function</text>
</g>
<!-- Protein(10)&#45;&gt;Protein(7) -->
<g id="edge11" class="edge">
<title>Protein(10)&#45;&gt;Protein(7)</title>
<path fill="none" stroke="blue" d="M897.66,-736.98C903.8,-778.13 924.49,-879.92 984.05,-936 1007.17,-957.77 1025.4,-941.2 1051.7,-959 1061.88,-965.89 1059.72,-972.83 1069.7,-980 1079.61,-987.12 1091.4,-992.93 1102.72,-997.52"/>
<text text-anchor="middle" x="1017.88" y="-989.8" font-family="Times,serif" font-size="14.00">h_s_s</text>
<text text-anchor="middle" x="1017.88" y="-975.8" font-family="Times,serif" font-size="14.00">ortho(&lt;=2)</text>
<text text-anchor="middle" x="1017.88" y="-961.8" font-family="Times,serif" font-size="14.00">xref(&lt;=4)</text>
</g>
<!-- Protein(10)&#45;&gt;BioProc(4) -->
<g id="edge20" class="edge">
<title>Protein(10)&#45;&gt;BioProc(4)</title>
<path fill="none" stroke="black" d="M905.5,-701.14C920.05,-676.87 949.02,-633.45 984.05,-607 1010.02,-587.39 1031.26,-604.32 1051.7,-579 1079.79,-544.2 1038.85,-512.37 1069.7,-480 1118.61,-428.7 1156.29,-461.15 1225.07,-444 1268.46,-433.18 1317.26,-420.11 1354.15,-410.04"/>
<polygon fill="black" stroke="black" points="1355.5,-413.3 1364.22,-407.29 1353.65,-406.55 1355.5,-413.3"/>
<text text-anchor="middle" x="1147.38" y="-482.8" font-family="Times,serif" font-size="14.00">participates_in</text>
</g>
<!-- Protein(10)&#45;&gt;Publication(2) -->
<g id="edge21" class="edge">
<title>Protein(10)&#45;&gt;Publication(2)</title>
<path fill="none" stroke="blue" d="M904.72,-700.97C920.09,-671.7 952.22,-612.37 984.05,-565 1011.37,-524.34 1023.71,-518.2 1051.7,-478 1060.37,-465.55 1058.37,-459.08 1069.7,-449 1075.94,-443.45 1083.19,-438.59 1090.68,-434.39"/>
<polygon fill="blue" stroke="blue" points="1092.31,-437.49 1099.55,-429.76 1089.07,-431.28 1092.31,-437.49"/>
<text text-anchor="middle" x="1017.88" y="-567.8" font-family="Times,serif" font-size="14.00">pub_in</text>
</g>
<!-- Protein(10)&#45;&gt;Trait(21) -->
<g id="edge9" class="edge">
<title>Protein(10)&#45;&gt;Trait(21)</title>
<path fill="none" stroke="blue" d="M904.86,-701.18C919.96,-672.03 949.49,-611.99 966.05,-558 979.03,-515.66 964.91,-499.93 984.05,-460 1018.06,-389.03 1086.08,-323.7 1122.34,-292.04"/>
<text text-anchor="middle" x="1017.88" y="-462.8" font-family="Times,serif" font-size="14.00">cooc_wi</text>
</g>
<!-- Protein(10)&#45;&gt;ProtDomain(14) -->
<g id="edge15" class="edge">
<title>Protein(10)&#45;&gt;ProtDomain(14)</title>
<path fill="none" stroke="blue" d="M917.57,-735.14C935.04,-747.39 960.34,-764.09 984.05,-776 1015.97,-792.03 1053.18,-806.31 1083.91,-817.01"/>
<polygon fill="blue" stroke="blue" points="1083.05,-820.42 1093.65,-820.36 1085.33,-813.8 1083.05,-820.42"/>
<text text-anchor="middle" x="1017.88" y="-806.8" font-family="Times,serif" font-size="14.00">has_domain</text>
</g>
<!-- Protein(10)&#45;&gt;Enzyme(177) -->
<g id="edge17" class="edge">
<title>Protein(10)&#45;&gt;Enzyme(177)</title>
<path fill="none" stroke="blue" d="M938.65,-710.06C953.08,-707.12 969.25,-703.87 984.05,-701 1013.12,-695.36 1045.16,-689.39 1073.05,-684.27"/>
<polygon fill="blue" stroke="blue" points="1073.91,-687.67 1083.12,-682.43 1072.65,-680.78 1073.91,-687.67"/>
<text text-anchor="middle" x="1017.88" y="-703.8" font-family="Times,serif" font-size="14.00">is_a</text>
</g>
<!-- Protein(10)&#45;&gt;CelComp(5) -->
<g id="edge19" class="edge">
<title>Protein(10)&#45;&gt;CelComp(5)</title>
<path fill="none" stroke="blue" d="M907.27,-736.4C922.92,-758.39 952.22,-796.45 984.05,-822 1017.74,-849.05 1028.24,-855.82 1069.7,-868 1160.38,-894.64 1270.01,-898.65 1340.39,-897.83"/>
<polygon fill="blue" stroke="blue" points="1340.54,-901.33 1350.49,-897.68 1340.44,-894.33 1340.54,-901.33"/>
<text text-anchor="middle" x="1147.38" y="-896.8" font-family="Times,serif" font-size="14.00">located_in</text>
</g>
<!-- Protein(10)&#45;&gt;EC(15) -->
<g id="edge13" class="edge">
<title>Protein(10)&#45;&gt;EC(15)</title>
<path fill="none" stroke="blue" d="M899.22,-737C907.85,-773.14 932.22,-854.82 984.05,-899 988.53,-902.82 1050.65,-921.35 1096.72,-934.74"/>
<polygon fill="blue" stroke="blue" points="1095.99,-938.17 1106.57,-937.59 1097.94,-931.45 1095.99,-938.17"/>
<text text-anchor="middle" x="1017.88" y="-922.8" font-family="Times,serif" font-size="14.00">cat_c</text>
</g>
<!-- Protein(10)&#45;&gt;Enzyme(17) -->
<g id="edge18" class="edge">
<title>Protein(10)&#45;&gt;Enzyme(17)</title>
<path fill="none" stroke="black" d="M907.46,-701.51C922.88,-680.42 951.5,-645.31 984.05,-625 1010.76,-608.33 1024.75,-620.27 1051.7,-604 1061.39,-598.15 1061.38,-593.66 1069.7,-586 1085.3,-571.64 1103.37,-556.26 1118.04,-544.08"/>
<polygon fill="black" stroke="black" points="1120.33,-546.73 1125.81,-537.66 1115.87,-541.33 1120.33,-546.73"/>
<text text-anchor="middle" x="1017.88" y="-627.8" font-family="Times,serif" font-size="14.00">is_a</text>
</g>
<!-- Protein(10)&#45;&gt;Protein(10) -->
<g id="edge10" class="edge">
<title>Protein(10)&#45;&gt;Protein(10)</title>
<path fill="none" stroke="black" d="M874.7,-735.66C870.33,-745.62 876.89,-755 894.39,-755 911.89,-755 918.45,-745.62 914.08,-735.66"/>
<text text-anchor="middle" x="894.39" y="-785.8" font-family="Times,serif" font-size="14.00">h_s_s</text>
<text text-anchor="middle" x="894.39" y="-771.8" font-family="Times,serif" font-size="14.00">ortho(&lt;=2)</text>
<text text-anchor="middle" x="894.39" y="-757.8" font-family="Times,serif" font-size="14.00">xref(&lt;=4)</text>
</g>
<!-- EC(12) -->
<g id="node24" class="node">
<title>EC(12)</title>
<ellipse fill="none" stroke="black" cx="1147.38" cy="-613" rx="36.28" ry="18"/>
<text text-anchor="middle" x="1147.38" y="-608.8" font-family="Times,serif" font-size="14.00">EC(12)</text>
</g>
<!-- Protein(10)&#45;&gt;EC(12) -->
<g id="edge12" class="edge">
<title>Protein(10)&#45;&gt;EC(12)</title>
<path fill="none" stroke="black" d="M920.8,-703.47C938.22,-693.19 962.06,-679.85 984.05,-670 1024.56,-651.85 1072.75,-635.56 1106.05,-625.09"/>
<polygon fill="black" stroke="black" points="1107.37,-628.34 1115.88,-622.03 1105.29,-621.66 1107.37,-628.34"/>
<text text-anchor="middle" x="1017.88" y="-672.8" font-family="Times,serif" font-size="14.00">cat_c</text>
</g>
<!-- ProtDomain(11) -->
<g id="node25" class="node">
<title>ProtDomain(11)</title>
<ellipse fill="none" stroke="black" cx="1147.38" cy="-779" rx="68" ry="18"/>
<text text-anchor="middle" x="1147.38" y="-774.8" font-family="Times,serif" font-size="14.00">ProtDomain(11)</text>
</g>
<!-- Protein(10)&#45;&gt;ProtDomain(11) -->
<g id="edge14" class="edge">
<title>Protein(10)&#45;&gt;ProtDomain(11)</title>
<path fill="none" stroke="black" d="M934.57,-730.02C949.95,-734.24 967.79,-739 984.05,-743 1016.79,-751.06 1053.44,-759.26 1083.63,-765.79"/>
<polygon fill="black" stroke="black" points="1083.09,-769.25 1093.6,-767.94 1084.56,-762.41 1083.09,-769.25"/>
<text text-anchor="middle" x="1017.88" y="-760.8" font-family="Times,serif" font-size="14.00">has_domain</text>
</g>
<!-- EC(12)&#45;&gt;MolFunc(3) -->
<g id="edge22" class="edge">
<title>EC(12)&#45;&gt;MolFunc(3)</title>
<path fill="none" stroke="blue" d="M1177.62,-622.97C1191.97,-627.94 1209.48,-634.13 1225.07,-640 1276,-659.16 1334.09,-682.72 1371.85,-698.26"/>
<text text-anchor="middle" x="1284.27" y="-680.8" font-family="Times,serif" font-size="14.00">equ</text>
</g>
<!-- ProtDomain(11)&#45;&gt;MolFunc(3) -->
<g id="edge23" class="edge">
<title>ProtDomain(11)&#45;&gt;MolFunc(3)</title>
<path fill="none" stroke="black" d="M1204.59,-769.24C1239.59,-762.75 1285.42,-753.51 1325.48,-743 1336.02,-740.24 1347.17,-736.93 1357.83,-733.58"/>
<polygon fill="black" stroke="black" points="1359,-736.88 1367.46,-730.5 1356.87,-730.21 1359,-736.88"/>
<text text-anchor="middle" x="1284.27" y="-763.8" font-family="Times,serif" font-size="14.00">has_function</text>
</g>
<!-- ProtDomain(11)&#45;&gt;BioProc(4) -->
<g id="edge25" class="edge">
<title>ProtDomain(11)&#45;&gt;BioProc(4)</title>
<path fill="none" stroke="black" d="M1198,-766.96C1208.31,-762.3 1218.14,-755.87 1225.07,-747 1257.74,-705.2 1218.32,-675.92 1243.07,-629 1266.45,-584.66 1301.39,-595.96 1325.48,-552 1346.56,-513.55 1321.92,-493.18 1343.48,-455 1351.06,-441.57 1362.72,-429.59 1374.29,-419.87"/>
<polygon fill="black" stroke="black" points="1376.61,-422.49 1382.23,-413.51 1372.23,-417.03 1376.61,-422.49"/>
<text text-anchor="middle" x="1284.27" y="-631.8" font-family="Times,serif" font-size="14.00">participates_in</text>
</g>
<!-- ProtDomain(11)&#45;&gt;CelComp(5) -->
<g id="edge24" class="edge">
<title>ProtDomain(11)&#45;&gt;CelComp(5)</title>
<path fill="none" stroke="blue" d="M1190.47,-792.92C1201.8,-796.91 1213.98,-801.42 1225.07,-806 1274.57,-826.42 1329.78,-853.19 1367.32,-872.02"/>
<polygon fill="blue" stroke="blue" points="1365.96,-875.26 1376.46,-876.63 1369.11,-869 1365.96,-875.26"/>
<text text-anchor="middle" x="1284.27" y="-852.8" font-family="Times,serif" font-size="14.00">located_in</text>
</g>
<!-- Gene(9)&#45;&gt;MolFunc(3) -->
<g id="edge31" class="edge">
<title>Gene(9)&#45;&gt;MolFunc(3)</title>
<path fill="none" stroke="black" d="M302.86,-478.86C320.92,-490.35 347.5,-505.8 372.7,-515 437.81,-538.77 456.75,-538.3 525.73,-545 758.4,-567.59 818.74,-525.72 1051.7,-545 1059.79,-545.67 1061.68,-546.78 1069.7,-548 1126.42,-556.61 1276.96,-552.39 1325.48,-583 1362.72,-606.5 1387.36,-652.47 1400.55,-683.47"/>
<polygon fill="black" stroke="black" points="1397.4,-685.03 1404.43,-692.96 1403.88,-682.38 1397.4,-685.03"/>
<text text-anchor="middle" x="894.39" y="-546.8" font-family="Times,serif" font-size="14.00">has_function</text>
</g>
<!-- Gene(9)&#45;&gt;DGES(22) -->
<g id="edge29" class="edge">
<title>Gene(9)&#45;&gt;DGES(22)</title>
<path fill="none" stroke="black" d="M290.48,-446.29C304.89,-422.02 334.37,-379.27 372.7,-360 405.45,-343.54 500.96,-339.11 566.33,-338.07"/>
<polygon fill="black" stroke="black" points="566.6,-341.57 576.55,-337.93 566.5,-334.57 566.6,-341.57"/>
<text text-anchor="middle" x="440.22" y="-362.8" font-family="Times,serif" font-size="14.00">differentially_expressed</text>
</g>
<!-- Gene(9)&#45;&gt;BioProc(4) -->
<g id="edge35" class="edge">
<title>Gene(9)&#45;&gt;BioProc(4)</title>
<path fill="none" stroke="black" d="M316.84,-457.94C420.32,-440.91 727.09,-392.83 984.05,-377 1014.06,-375.15 1021.64,-376.57 1051.7,-377 1128.78,-378.11 1148.07,-378.42 1225.07,-382 1265.02,-383.86 1309.72,-386.7 1345.41,-389.15"/>
<polygon fill="black" stroke="black" points="1345.49,-392.66 1355.71,-389.86 1345.97,-385.68 1345.49,-392.66"/>
<text text-anchor="middle" x="894.39" y="-392.8" font-family="Times,serif" font-size="14.00">participates_in</text>
</g>
<!-- Gene(9)&#45;&gt;Publication(2) -->
<g id="edge36" class="edge">
<title>Gene(9)&#45;&gt;Publication(2)</title>
<path fill="none" stroke="blue" d="M318.74,-465.91C431.37,-470.9 772.98,-481.18 1051.7,-439 1063.17,-437.26 1075.24,-434.61 1086.77,-431.66"/>
<polygon fill="blue" stroke="blue" points="1087.98,-434.96 1096.74,-429 1086.17,-428.19 1087.98,-434.96"/>
<text text-anchor="middle" x="781.02" y="-468.8" font-family="Times,serif" font-size="14.00">pub_in</text>
</g>
<!-- Gene(9)&#45;&gt;Trait(21) -->
<g id="edge26" class="edge">
<title>Gene(9)&#45;&gt;Trait(21)</title>
<path fill="none" stroke="black" d="M301.54,-449.03C319.48,-436.93 346.55,-420.54 372.7,-412 528.65,-361.06 577.77,-397.61 739.31,-369 841.31,-350.94 865.28,-339.01 966.05,-315 1011.6,-304.14 1063.63,-291.74 1100.06,-283.05"/>
<text text-anchor="middle" x="781.02" y="-368.8" font-family="Times,serif" font-size="14.00">cooc_wi</text>
</g>
<!-- Gene(9)&#45;&gt;CelComp(5) -->
<g id="edge34" class="edge">
<title>Gene(9)&#45;&gt;CelComp(5)</title>
<path fill="none" stroke="blue" d="M290.6,-481.41C311.77,-518.56 360.64,-603 372.7,-612 422.57,-649.22 447.76,-632.4 507.73,-649 639.83,-685.55 709.48,-633.46 804.73,-732 828.26,-756.34 807.71,-775.67 822.73,-806 873.27,-908.02 893.32,-936.22 984.05,-1005 1017.09,-1030.05 1029.09,-1033.6 1069.7,-1042 1137.32,-1055.98 1159.81,-1064.57 1225.07,-1042 1292.03,-1018.84 1353.26,-960.72 1386.38,-924.89"/>
<polygon fill="blue" stroke="blue" points="1389.26,-926.92 1393.4,-917.17 1384.08,-922.21 1389.26,-926.92"/>
<text text-anchor="middle" x="894.39" y="-993.8" font-family="Times,serif" font-size="14.00">located_in</text>
</g>
<!-- Gene(9)&#45;&gt;Gene(8) -->
<g id="edge28" class="edge">
<title>Gene(9)&#45;&gt;Gene(8)</title>
<path fill="none" stroke="black" d="M284.21,-481.95C292.39,-519.13 316.59,-604.58 372.7,-646 421.68,-682.15 452.25,-643.95 507.73,-669 519.1,-674.13 575.97,-721.74 608.54,-749.38"/>
<text text-anchor="middle" x="440.22" y="-685.8" font-family="Times,serif" font-size="14.00">genetic(&lt;=4)</text>
<text text-anchor="middle" x="440.22" y="-671.8" font-family="Times,serif" font-size="14.00">physical(&lt;=4)</text>
</g>
<!-- Gene(9)&#45;&gt;Phenotype(13) -->
<g id="edge32" class="edge">
<title>Gene(9)&#45;&gt;Phenotype(13)</title>
<path fill="none" stroke="blue" d="M316.98,-469.63C333.91,-472.23 354.33,-475.32 372.7,-478 432.47,-486.71 500.06,-496.09 551.18,-503.1"/>
<polygon fill="blue" stroke="blue" points="550.8,-506.58 561.18,-504.47 551.75,-499.64 550.8,-506.58"/>
<text text-anchor="middle" x="440.22" y="-499.8" font-family="Times,serif" font-size="14.00">has_observ_pheno</text>
</g>
<!-- Gene(9)&#45;&gt;SNP(20) -->
<g id="edge33" class="edge">
<title>Gene(9)&#45;&gt;SNP(20)</title>
<path fill="none" stroke="black" d="M287.92,-446.19C300.71,-416.5 330.17,-356.74 372.7,-322 434.77,-271.31 526.87,-247.52 582.83,-237.17"/>
<polygon fill="black" stroke="black" points="583.62,-240.58 592.85,-235.38 582.39,-233.69 583.62,-240.58"/>
<text text-anchor="middle" x="440.22" y="-324.8" font-family="Times,serif" font-size="14.00">has_variation</text>
</g>
<!-- Gene(9)&#45;&gt;Protein(10) -->
<g id="edge30" class="edge">
<title>Gene(9)&#45;&gt;Protein(10)</title>
<path fill="none" stroke="blue" d="M289.57,-481.65C303.45,-507.42 332.96,-554.79 372.7,-578 515.35,-661.28 582.61,-586.75 739.31,-639 783.23,-653.65 829.92,-679.52 860.24,-697.87"/>
<polygon fill="blue" stroke="blue" points="858.75,-701.06 869.1,-703.31 862.41,-695.1 858.75,-701.06"/>
<text text-anchor="middle" x="632.52" y="-641.8" font-family="Times,serif" font-size="14.00">enc</text>
</g>
<!-- Gene(9)&#45;&gt;Gene(9) -->
<g id="edge27" class="edge">
<title>Gene(9)&#45;&gt;Gene(9)</title>
<path fill="none" stroke="blue" d="M257.33,-478.79C250.03,-489.42 257.51,-500 279.75,-500 302,-500 309.47,-489.42 302.17,-478.79"/>
<text text-anchor="middle" x="279.75" y="-516.8" font-family="Times,serif" font-size="14.00">genetic(&lt;=4)</text>
<text text-anchor="middle" x="279.75" y="-502.8" font-family="Times,serif" font-size="14.00">physical(&lt;=4)</text>
</g>
</g>
</svg>
