<svg width="2217px" height="1517px"
 viewBox="0.00 0.00 1663.10 1138.00" xmlns="http://www.w3.org/2000/svg" xmlns:xlink="http://www.w3.org/1999/xlink">
<g id="graph0" class="graph" transform=" rotate(0) translate(4 1134)">
<title>%3</title>
<polygon fill="white" stroke="transparent" points="-4,4 -4,-1134 1659.1,-1134 1659.1,4 -4,4"/>
<!-- Trait(21) -->
<g id="node1" class="node">
<title>Trait(21)</title>
<polygon fill="none" stroke="darkgreen" points="1192.69,-318.54 1192.69,-333.46 1166.15,-344 1128.62,-344 1102.08,-333.46 1102.08,-318.54 1128.62,-308 1166.15,-308 1192.69,-318.54"/>
<polygon fill="none" stroke="darkgreen" points="1196.7,-315.83 1196.7,-336.17 1166.92,-348 1127.85,-348 1098.07,-336.17 1098.07,-315.83 1127.85,-304 1166.92,-304 1196.7,-315.83"/>
<text text-anchor="middle" x="1147.38" y="-321.8" font-family="Times,serif" font-size="14.00">Trait(21)</text>
</g>
<!-- SNPEffect(26) -->
<g id="node2" class="node">
<title>SNPEffect(26)</title>
<polygon fill="none" stroke="darkgreen" points="962.2,-320.54 962.2,-335.46 922.48,-346 866.3,-346 826.58,-335.46 826.58,-320.54 866.3,-310 922.48,-310 962.2,-320.54"/>
<polygon fill="none" stroke="darkgreen" points="966.21,-317.47 966.21,-338.53 923,-350 865.78,-350 822.58,-338.53 822.58,-317.47 865.78,-306 923,-306 966.21,-317.47"/>
<text text-anchor="middle" x="894.39" y="-323.8" font-family="Times,serif" font-size="14.00">SNPEffect(26)</text>
</g>
<!-- MolFunc(3) -->
<g id="node3" class="node">
<title>MolFunc(3)</title>
<polygon fill="none" stroke="darkgreen" points="1470.56,-859.54 1470.56,-874.46 1436.95,-885 1389.4,-885 1355.78,-874.46 1355.78,-859.54 1389.4,-849 1436.95,-849 1470.56,-859.54"/>
<polygon fill="none" stroke="darkgreen" points="1474.58,-856.61 1474.58,-877.39 1437.56,-889 1388.79,-889 1351.77,-877.39 1351.77,-856.61 1388.79,-845 1437.56,-845 1474.58,-856.61"/>
<text text-anchor="middle" x="1413.17" y="-862.8" font-family="Times,serif" font-size="14.00">MolFunc(3)</text>
</g>
<!-- CelComp(5) -->
<g id="node4" class="node">
<title>CelComp(5)</title>
<polygon fill="none" stroke="darkgreen" points="1471.78,-692.54 1471.78,-707.46 1437.45,-718 1388.9,-718 1354.57,-707.46 1354.57,-692.54 1388.9,-682 1437.45,-682 1471.78,-692.54"/>
<polygon fill="none" stroke="darkgreen" points="1475.77,-689.59 1475.77,-710.41 1438.05,-722 1388.3,-722 1350.58,-710.41 1350.58,-689.59 1388.3,-678 1438.05,-678 1475.77,-689.59"/>
<text text-anchor="middle" x="1413.17" y="-695.8" font-family="Times,serif" font-size="14.00">CelComp(5)</text>
</g>
<!-- BioProc(4) -->
<g id="node5" class="node">
<title>BioProc(4)</title>
<polygon fill="none" stroke="darkgreen" points="1466.63,-405.54 1466.63,-420.46 1435.32,-431 1391.03,-431 1359.72,-420.46 1359.72,-405.54 1391.03,-395 1435.32,-395 1466.63,-405.54"/>
<polygon fill="none" stroke="darkgreen" points="1470.63,-402.67 1470.63,-423.33 1435.97,-435 1390.38,-435 1355.72,-423.33 1355.72,-402.67 1390.38,-391 1435.97,-391 1470.63,-402.67"/>
<text text-anchor="middle" x="1413.17" y="-408.8" font-family="Times,serif" font-size="14.00">BioProc(4)</text>
</g>
<!-- Reaction(188) -->
<g id="node6" class="node">
<title>Reaction(188)</title>
<polygon fill="none" stroke="darkgreen" points="1479.05,-1035.54 1479.05,-1050.46 1440.46,-1061 1385.89,-1061 1347.3,-1050.46 1347.3,-1035.54 1385.89,-1025 1440.46,-1025 1479.05,-1035.54"/>
<polygon fill="none" stroke="darkgreen" points="1483.06,-1032.49 1483.06,-1053.51 1441,-1065 1385.35,-1065 1343.29,-1053.51 1343.29,-1032.49 1385.35,-1021 1441,-1021 1483.06,-1032.49"/>
<text text-anchor="middle" x="1413.17" y="-1038.8" font-family="Times,serif" font-size="14.00">Reaction(188)</text>
</g>
<!-- PlantOntologyTerm(24) -->
<g id="node7" class="node">
<title>PlantOntologyTerm(24)</title>
<polygon fill="none" stroke="darkgreen" points="735.1,-14.54 735.1,-29.46 675.01,-40 590.03,-40 529.94,-29.46 529.94,-14.54 590.03,-4 675.01,-4 735.1,-14.54"/>
<polygon fill="none" stroke="darkgreen" points="739.09,-11.18 739.09,-32.82 675.36,-44 589.68,-44 525.95,-32.82 525.95,-11.18 589.68,0 675.36,0 739.09,-11.18"/>
<text text-anchor="middle" x="632.52" y="-17.8" font-family="Times,serif" font-size="14.00">PlantOntologyTerm(24)</text>
</g>
<!-- CoExpStudy(25) -->
<g id="node8" class="node">
<title>CoExpStudy(25)</title>
<polygon fill="none" stroke="darkgreen" points="708.16,-76.54 708.16,-91.46 663.85,-102 601.19,-102 556.88,-91.46 556.88,-76.54 601.19,-66 663.85,-66 708.16,-76.54"/>
<polygon fill="none" stroke="darkgreen" points="712.16,-73.38 712.16,-94.62 664.32,-106 600.72,-106 552.88,-94.62 552.88,-73.38 600.72,-62 664.32,-62 712.16,-73.38"/>
<text text-anchor="middle" x="632.52" y="-79.8" font-family="Times,serif" font-size="14.00">CoExpStudy(25)</text>
</g>
<!-- Enzyme(177) -->
<g id="node9" class="node">
<title>Enzyme(177)</title>
<polygon fill="none" stroke="darkgreen" points="1210.45,-780.54 1210.45,-795.46 1173.51,-806 1121.26,-806 1084.32,-795.46 1084.32,-780.54 1121.26,-770 1173.51,-770 1210.45,-780.54"/>
<polygon fill="none" stroke="darkgreen" points="1214.45,-777.53 1214.45,-798.47 1174.07,-810 1120.7,-810 1080.32,-798.47 1080.32,-777.53 1120.7,-766 1174.07,-766 1214.45,-777.53"/>
<text text-anchor="middle" x="1147.38" y="-783.8" font-family="Times,serif" font-size="14.00">Enzyme(177)</text>
</g>
<!-- Protein(7) -->
<g id="node10" class="node">
<title>Protein(7)</title>
<polygon fill="none" stroke="darkgreen" points="1196.91,-564.54 1196.91,-579.46 1167.9,-590 1126.87,-590 1097.86,-579.46 1097.86,-564.54 1126.87,-554 1167.9,-554 1196.91,-564.54"/>
<polygon fill="none" stroke="darkgreen" points="1200.89,-561.74 1200.89,-582.26 1168.6,-594 1126.17,-594 1093.88,-582.26 1093.88,-561.74 1126.17,-550 1168.6,-550 1200.89,-561.74"/>
<text text-anchor="middle" x="1147.38" y="-567.8" font-family="Times,serif" font-size="14.00">Protein(7)</text>
</g>
<!-- EC(15) -->
<g id="node11" class="node">
<title>EC(15)</title>
<polygon fill="none" stroke="darkgreen" points="1186.61,-1100.54 1186.61,-1115.46 1163.63,-1126 1131.14,-1126 1108.16,-1115.46 1108.16,-1100.54 1131.14,-1090 1163.63,-1090 1186.61,-1100.54"/>
<polygon fill="none" stroke="darkgreen" points="1190.62,-1097.98 1190.62,-1118.02 1164.51,-1130 1130.26,-1130 1104.15,-1118.02 1104.15,-1097.98 1130.26,-1086 1164.51,-1086 1190.62,-1097.98"/>
<text text-anchor="middle" x="1147.38" y="-1103.8" font-family="Times,serif" font-size="14.00">EC(15)</text>
</g>
<!-- ProtDomain(14) -->
<g id="node12" class="node">
<title>ProtDomain(14)</title>
<polygon fill="none" stroke="darkgreen" points="1221.24,-946.54 1221.24,-961.46 1177.98,-972 1116.79,-972 1073.53,-961.46 1073.53,-946.54 1116.79,-936 1177.98,-936 1221.24,-946.54"/>
<polygon fill="none" stroke="darkgreen" points="1225.25,-943.4 1225.25,-964.6 1178.46,-976 1116.31,-976 1069.52,-964.6 1069.52,-943.4 1116.31,-932 1178.46,-932 1225.25,-943.4"/>
<text text-anchor="middle" x="1147.38" y="-949.8" font-family="Times,serif" font-size="14.00">ProtDomain(14)</text>
</g>
<!-- Path(19) -->
<g id="node13" class="node">
<title>Path(19)</title>
<polygon fill="none" stroke="darkgreen" points="1651.02,-1093.54 1651.02,-1108.46 1625.35,-1119 1589.05,-1119 1563.38,-1108.46 1563.38,-1093.54 1589.05,-1083 1625.35,-1083 1651.02,-1093.54"/>
<polygon fill="none" stroke="darkgreen" points="1655.01,-1090.86 1655.01,-1111.14 1626.14,-1123 1588.26,-1123 1559.39,-1111.14 1559.39,-1090.86 1588.26,-1079 1626.14,-1079 1655.01,-1090.86"/>
<text text-anchor="middle" x="1607.2" y="-1096.8" font-family="Times,serif" font-size="14.00">Path(19)</text>
</g>
<!-- Publication(2) -->
<g id="node14" class="node">
<title>Publication(2)</title>
<polygon fill="none" stroke="darkgreen" points="1213.28,-439.54 1213.28,-454.46 1174.68,-465 1120.09,-465 1081.49,-454.46 1081.49,-439.54 1120.09,-429 1174.68,-429 1213.28,-439.54"/>
<polygon fill="none" stroke="darkgreen" points="1217.29,-436.49 1217.29,-457.51 1175.22,-469 1119.55,-469 1077.48,-457.51 1077.48,-436.49 1119.55,-425 1175.22,-425 1217.29,-436.49"/>
<text text-anchor="middle" x="1147.38" y="-442.8" font-family="Times,serif" font-size="14.00">Publication(2)</text>
</g>
<!-- DGES(22) -->
<g id="node15" class="node">
<title>DGES(22)</title>
<polygon fill="none" stroke="darkgreen" points="684.29,-226.54 684.29,-241.46 653.97,-252 611.07,-252 580.75,-241.46 580.75,-226.54 611.07,-216 653.97,-216 684.29,-226.54"/>
<polygon fill="none" stroke="darkgreen" points="688.29,-223.7 688.29,-244.3 654.64,-256 610.4,-256 576.75,-244.3 576.75,-223.7 610.4,-212 654.64,-212 688.29,-223.7"/>
<text text-anchor="middle" x="632.52" y="-229.8" font-family="Times,serif" font-size="14.00">DGES(22)</text>
</g>
<!-- Gene(8) -->
<g id="node16" class="node">
<title>Gene(8)</title>
<polygon fill="none" stroke="darkgreen" points="674.63,-815.54 674.63,-830.46 649.96,-841 615.08,-841 590.41,-830.46 590.41,-815.54 615.08,-805 649.96,-805 674.63,-815.54"/>
<polygon fill="none" stroke="darkgreen" points="678.61,-812.9 678.61,-833.1 650.78,-845 614.26,-845 586.43,-833.1 586.43,-812.9 614.26,-801 650.78,-801 678.61,-812.9"/>
<text text-anchor="middle" x="632.52" y="-818.8" font-family="Times,serif" font-size="14.00">Gene(8)</text>
</g>
<!-- Protein(10) -->
<g id="node23" class="node">
<title>Protein(10)</title>
<ellipse fill="none" stroke="black" cx="894.39" cy="-769" rx="50.27" ry="18"/>
<text text-anchor="middle" x="894.39" y="-764.8" font-family="Times,serif" font-size="14.00">Protein(10)</text>
</g>
<!-- Gene(8)&#45;&gt;Protein(10) -->
<g id="edge26" class="edge">
<title>Gene(8)&#45;&gt;Protein(10)</title>
<path fill="none" stroke="black" d="M678.79,-813.59C723.86,-804.23 793.01,-789.86 840.57,-779.98"/>
<polygon fill="black" stroke="black" points="841.29,-783.4 850.37,-777.94 839.87,-776.55 841.29,-783.4"/>
<text text-anchor="middle" x="781.02" y="-798.8" font-family="Times,serif" font-size="14.00">enc</text>
</g>
<!-- Gene(1) -->
<g id="node17" class="node">
<title>Gene(1)</title>
<ellipse fill="none" stroke="red" cx="43.08" cy="-427" rx="39.15" ry="39.15"/>
<ellipse fill="none" stroke="red" cx="43.08" cy="-427" rx="43.15" ry="43.15"/>
<text text-anchor="middle" x="43.08" y="-422.8" font-family="Times,serif" font-size="14.00">Gene(1)</text>
</g>
<!-- Gene(1)&#45;&gt;Trait(21) -->
<g id="edge27" class="edge">
<title>Gene(1)&#45;&gt;Trait(21)</title>
<path fill="none" stroke="blue" d="M52.69,-384.9C61.09,-353.18 76.72,-310.44 104.15,-282 197.51,-185.24 498.28,-191 525.73,-189 620.4,-182.1 645.39,-175.23 739.31,-189 777.6,-194.61 785.64,-202.93 822.73,-214 924.46,-244.35 952.42,-244.42 1051.7,-282 1072.72,-289.96 1095.59,-300.53 1113.59,-309.32"/>
<text text-anchor="middle" x="632.52" y="-191.8" font-family="Times,serif" font-size="14.00">cooc_wi</text>
</g>
<!-- Gene(1)&#45;&gt;Protein(7) -->
<g id="edge32" class="edge">
<title>Gene(1)&#45;&gt;Protein(7)</title>
<path fill="none" stroke="black" d="M75.57,-455.55C106.19,-481.51 155.22,-518.5 204.8,-537 428.19,-620.35 500.89,-586.22 739.31,-583 861.09,-581.35 1003.3,-576.94 1083.31,-574.23"/>
<polygon fill="black" stroke="black" points="1083.82,-577.72 1093.7,-573.88 1083.58,-570.72 1083.82,-577.72"/>
<text text-anchor="middle" x="632.52" y="-594.8" font-family="Times,serif" font-size="14.00">enc</text>
</g>
<!-- Gene(1)&#45;&gt;Publication(2) -->
<g id="edge34" class="edge">
<title>Gene(1)&#45;&gt;Publication(2)</title>
<path fill="none" stroke="black" d="M85.34,-418.15C91.63,-416.98 98.05,-415.88 104.15,-415 222.76,-397.91 252.99,-396.34 372.7,-391 627.01,-379.66 927.57,-415.6 1067.44,-435.18"/>
<polygon fill="black" stroke="black" points="1067.24,-438.68 1077.63,-436.61 1068.22,-431.75 1067.24,-438.68"/>
<text text-anchor="middle" x="632.52" y="-402.8" font-family="Times,serif" font-size="14.00">occ_in</text>
</g>
<!-- Gene(1)&#45;&gt;DGES(22) -->
<g id="edge30" class="edge">
<title>Gene(1)&#45;&gt;DGES(22)</title>
<path fill="none" stroke="black" d="M61.4,-387.99C71.47,-369.3 85.82,-347.99 104.15,-334 242.3,-228.57 459.02,-223.68 566.54,-228.79"/>
<polygon fill="black" stroke="black" points="566.43,-232.29 576.6,-229.32 566.79,-225.3 566.43,-232.29"/>
<text text-anchor="middle" x="279.75" y="-279.8" font-family="Times,serif" font-size="14.00">differentially_expressed</text>
</g>
<!-- Gene(1)&#45;&gt;Gene(8) -->
<g id="edge28" class="edge">
<title>Gene(1)&#45;&gt;Gene(8)</title>
<path fill="none" stroke="black" d="M43.91,-470.23C44.54,-564.12 51.75,-782 104.15,-829 245.25,-955.55 502.97,-873.52 596.46,-837.48"/>
<text text-anchor="middle" x="279.75" y="-899.8" font-family="Times,serif" font-size="14.00">homoeolog</text>
</g>
<!-- Gene(1)&#45;&gt;Gene(8) -->
<g id="edge37" class="edge">
<title>Gene(1)&#45;&gt;Gene(8)</title>
<path fill="none" stroke="blue" d="M44.97,-470.33C47.73,-555.86 58.89,-741.7 104.15,-783 171.87,-844.79 454.8,-834.52 576.01,-827.02"/>
<polygon fill="blue" stroke="blue" points="576.43,-830.5 586.19,-826.37 575.98,-823.51 576.43,-830.5"/>
<text text-anchor="middle" x="279.75" y="-834.8" font-family="Times,serif" font-size="14.00">regulates(&lt;=1)</text>
</g>
<!-- SNP(20) -->
<g id="node19" class="node">
<title>SNP(20)</title>
<ellipse fill="none" stroke="black" cx="632.52" cy="-330" rx="41.13" ry="18"/>
<text text-anchor="middle" x="632.52" y="-325.8" font-family="Times,serif" font-size="14.00">SNP(20)</text>
</g>
<!-- Gene(1)&#45;&gt;SNP(20) -->
<g id="edge33" class="edge">
<title>Gene(1)&#45;&gt;SNP(20)</title>
<path fill="none" stroke="blue" d="M69.88,-392.79C79.58,-381.92 91.38,-370.73 104.15,-363 143.88,-338.96 158.83,-341.55 204.8,-335 339.93,-315.75 501.56,-321.62 581.57,-326.42"/>
<polygon fill="blue" stroke="blue" points="581.64,-329.93 591.84,-327.06 582.08,-322.94 581.64,-329.93"/>
<text text-anchor="middle" x="279.75" y="-351.8" font-family="Times,serif" font-size="14.00">has_mutant</text>
<text text-anchor="middle" x="279.75" y="-337.8" font-family="Times,serif" font-size="14.00">has_variation</text>
</g>
<!-- CoExpCluster(23) -->
<g id="node21" class="node">
<title>CoExpCluster(23)</title>
<ellipse fill="none" stroke="black" cx="279.75" cy="-109" rx="74.9" ry="18"/>
<text text-anchor="middle" x="279.75" y="-104.8" font-family="Times,serif" font-size="14.00">CoExpCluster(23)</text>
</g>
<!-- Gene(1)&#45;&gt;CoExpCluster(23) -->
<g id="edge35" class="edge">
<title>Gene(1)&#45;&gt;CoExpCluster(23)</title>
<path fill="none" stroke="blue" d="M47.95,-384.14C55.05,-315.33 72.4,-184.6 104.15,-152 127.64,-127.88 162.33,-116.45 194.61,-111.3"/>
<polygon fill="blue" stroke="blue" points="195.12,-114.76 204.53,-109.9 194.14,-107.83 195.12,-114.76"/>
<text text-anchor="middle" x="145.48" y="-154.8" font-family="Times,serif" font-size="14.00">part_of</text>
</g>
<!-- Gene(1)&#45;&gt;Protein(10) -->
<g id="edge31" class="edge">
<title>Gene(1)&#45;&gt;Protein(10)</title>
<path fill="none" stroke="blue" d="M47.05,-469.95C52.18,-513.51 66.14,-580.53 104.15,-624 190.58,-722.81 245.06,-716.32 372.7,-747 536.52,-786.37 737.52,-780.11 834.93,-773.76"/>
<polygon fill="blue" stroke="blue" points="835.42,-777.24 845.16,-773.07 834.94,-770.25 835.42,-777.24"/>
<text text-anchor="middle" x="440.22" y="-770.8" font-family="Times,serif" font-size="14.00">enc</text>
</g>
<!-- Gene(9) -->
<g id="node26" class="node">
<title>Gene(9)</title>
<ellipse fill="none" stroke="black" cx="279.75" cy="-464" rx="39.15" ry="18"/>
<text text-anchor="middle" x="279.75" y="-459.8" font-family="Times,serif" font-size="14.00">Gene(9)</text>
</g>
<!-- Gene(1)&#45;&gt;Gene(9) -->
<g id="edge29" class="edge">
<title>Gene(1)&#45;&gt;Gene(9)</title>
<path fill="none" stroke="blue" d="M84.98,-437.9C91.37,-439.41 97.92,-440.83 104.15,-442 151,-450.77 205.59,-457.02 241.09,-460.57"/>
<text text-anchor="middle" x="145.48" y="-457.8" font-family="Times,serif" font-size="14.00">homoeolog</text>
</g>
<!-- Gene(1)&#45;&gt;Gene(9) -->
<g id="edge36" class="edge">
<title>Gene(1)&#45;&gt;Gene(9)</title>
<path fill="none" stroke="black" d="M86.06,-421.2C114.74,-418.44 153.44,-417.06 186.8,-424 207.08,-428.22 228.37,-437.16 245.35,-445.51"/>
<polygon fill="black" stroke="black" points="243.8,-448.66 254.3,-450.06 246.97,-442.41 243.8,-448.66"/>
<text text-anchor="middle" x="145.48" y="-426.8" font-family="Times,serif" font-size="14.00">regulates(&lt;=1)</text>
</g>
<!-- Phenotype(13) -->
<g id="node18" class="node">
<title>Phenotype(13)</title>
<polygon fill="none" stroke="darkgreen" points="699.63,-544.54 699.63,-559.46 660.32,-570 604.72,-570 565.41,-559.46 565.41,-544.54 604.72,-534 660.32,-534 699.63,-544.54"/>
<polygon fill="none" stroke="darkgreen" points="703.61,-541.47 703.61,-562.53 660.84,-574 604.2,-574 561.43,-562.53 561.43,-541.47 604.2,-530 660.84,-530 703.61,-541.47"/>
<text text-anchor="middle" x="632.52" y="-547.8" font-family="Times,serif" font-size="14.00">Phenotype(13)</text>
</g>
<!-- SNP(20)&#45;&gt;Trait(21) -->
<g id="edge1" class="edge">
<title>SNP(20)&#45;&gt;Trait(21)</title>
<path fill="none" stroke="black" d="M665.88,-319.4C703.2,-307.77 766.63,-289.86 822.73,-283 885.96,-275.27 902.79,-275.56 966.05,-283 1010.17,-288.19 1059.13,-300.28 1094.9,-310.33"/>
<polygon fill="black" stroke="black" points="1094.04,-313.72 1104.62,-313.1 1095.96,-306.99 1094.04,-313.72"/>
<text text-anchor="middle" x="894.39" y="-285.8" font-family="Times,serif" font-size="14.00">associated_with</text>
</g>
<!-- SNP(20)&#45;&gt;SNPEffect(26) -->
<g id="edge2" class="edge">
<title>SNP(20)&#45;&gt;SNPEffect(26)</title>
<path fill="none" stroke="blue" d="M673.84,-329.69C710.69,-329.41 766.28,-328.98 812.3,-328.62"/>
<polygon fill="blue" stroke="blue" points="812.59,-332.12 822.57,-328.55 812.54,-325.12 812.59,-332.12"/>
<text text-anchor="middle" x="781.02" y="-331.8" font-family="Times,serif" font-size="14.00">leads_to</text>
</g>
<!-- ProtDomain(11) -->
<g id="node20" class="node">
<title>ProtDomain(11)</title>
<ellipse fill="none" stroke="black" cx="1147.38" cy="-680" rx="68" ry="18"/>
<text text-anchor="middle" x="1147.38" y="-675.8" font-family="Times,serif" font-size="14.00">ProtDomain(11)</text>
</g>
<!-- ProtDomain(11)&#45;&gt;MolFunc(3) -->
<g id="edge3" class="edge">
<title>ProtDomain(11)&#45;&gt;MolFunc(3)</title>
<path fill="none" stroke="black" d="M1188.88,-694.28C1200.89,-699.2 1213.83,-705.21 1225.07,-712 1285.65,-748.61 1347.2,-803.83 1382.43,-837.52"/>
<polygon fill="black" stroke="black" points="1380.33,-840.36 1389.95,-844.78 1385.19,-835.32 1380.33,-840.36"/>
<text text-anchor="middle" x="1284.27" y="-784.8" font-family="Times,serif" font-size="14.00">has_function</text>
</g>
<!-- ProtDomain(11)&#45;&gt;CelComp(5) -->
<g id="edge4" class="edge">
<title>ProtDomain(11)&#45;&gt;CelComp(5)</title>
<path fill="none" stroke="blue" d="M1212.91,-684.89C1251.5,-687.82 1300.6,-691.54 1340.41,-694.56"/>
<polygon fill="blue" stroke="blue" points="1340.34,-698.06 1350.58,-695.33 1340.87,-691.08 1340.34,-698.06"/>
<text text-anchor="middle" x="1284.27" y="-694.8" font-family="Times,serif" font-size="14.00">located_in</text>
</g>
<!-- ProtDomain(11)&#45;&gt;BioProc(4) -->
<g id="edge5" class="edge">
<title>ProtDomain(11)&#45;&gt;BioProc(4)</title>
<path fill="none" stroke="black" d="M1209.65,-672.77C1253.68,-666.45 1308.2,-655.91 1325.48,-641 1384.32,-590.21 1403.35,-495.06 1409.41,-445.26"/>
<polygon fill="black" stroke="black" points="1412.92,-445.39 1410.55,-435.06 1405.96,-444.61 1412.92,-445.39"/>
<text text-anchor="middle" x="1284.27" y="-669.8" font-family="Times,serif" font-size="14.00">participates_in</text>
</g>
<!-- CoExpCluster(23)&#45;&gt;BioProc(4) -->
<g id="edge7" class="edge">
<title>CoExpCluster(23)&#45;&gt;BioProc(4)</title>
<path fill="none" stroke="black" d="M346.5,-117.39C355.3,-118.36 364.21,-119.26 372.7,-120 487.47,-129.96 516.32,-134 631.52,-134 631.52,-134 631.52,-134 1148.38,-134 1283.04,-134 1369.43,-307.71 1399.89,-380.99"/>
<polygon fill="black" stroke="black" points="1396.8,-382.7 1403.81,-390.64 1403.29,-380.06 1396.8,-382.7"/>
<text text-anchor="middle" x="894.39" y="-136.8" font-family="Times,serif" font-size="14.00">enriched_for</text>
</g>
<!-- CoExpCluster(23)&#45;&gt;PlantOntologyTerm(24) -->
<g id="edge6" class="edge">
<title>CoExpCluster(23)&#45;&gt;PlantOntologyTerm(24)</title>
<path fill="none" stroke="blue" d="M319.74,-93.65C335.96,-87.63 355.08,-80.98 372.7,-76 426.43,-60.83 487.52,-47.89 536.86,-38.48"/>
<polygon fill="blue" stroke="blue" points="537.7,-41.88 546.88,-36.59 536.4,-35 537.7,-41.88"/>
<text text-anchor="middle" x="440.22" y="-78.8" font-family="Times,serif" font-size="14.00">enriched_for</text>
</g>
<!-- CoExpCluster(23)&#45;&gt;CoExpStudy(25) -->
<g id="edge8" class="edge">
<title>CoExpCluster(23)&#45;&gt;CoExpStudy(25)</title>
<path fill="none" stroke="blue" d="M351.74,-103.94C406.8,-100.02 483.46,-94.55 542.62,-90.34"/>
<polygon fill="blue" stroke="blue" points="542.97,-93.82 552.7,-89.62 542.47,-86.84 542.97,-93.82"/>
<text text-anchor="middle" x="440.22" y="-105.8" font-family="Times,serif" font-size="14.00">part_of</text>
</g>
<!-- EC(12) -->
<g id="node22" class="node">
<title>EC(12)</title>
<ellipse fill="none" stroke="black" cx="1147.38" cy="-896" rx="36.28" ry="18"/>
<text text-anchor="middle" x="1147.38" y="-891.8" font-family="Times,serif" font-size="14.00">EC(12)</text>
</g>
<!-- EC(12)&#45;&gt;MolFunc(3) -->
<g id="edge9" class="edge">
<title>EC(12)&#45;&gt;MolFunc(3)</title>
<path fill="none" stroke="blue" d="M1182.87,-892.21C1225.74,-887.5 1299.65,-879.37 1351.95,-873.62"/>
<text text-anchor="middle" x="1284.27" y="-886.8" font-family="Times,serif" font-size="14.00">equ</text>
</g>
<!-- Protein(10)&#45;&gt;Trait(21) -->
<g id="edge10" class="edge">
<title>Protein(10)&#45;&gt;Trait(21)</title>
<path fill="none" stroke="black" d="M901.08,-750.77C920.11,-689.85 980.52,-496.84 984.05,-491 1021.11,-429.59 1085.41,-373.6 1120.95,-345.32"/>
<text text-anchor="middle" x="1017.88" y="-493.8" font-family="Times,serif" font-size="14.00">cooc_wi</text>
</g>
<!-- Protein(10)&#45;&gt;MolFunc(3) -->
<g id="edge17" class="edge">
<title>Protein(10)&#45;&gt;MolFunc(3)</title>
<path fill="none" stroke="black" d="M931.43,-781.48C947.46,-786.84 966.61,-793.02 984.05,-798 1107.17,-833.18 1255.68,-852.07 1341.48,-860.79"/>
<polygon fill="black" stroke="black" points="1341.33,-864.29 1351.63,-861.8 1342.03,-857.32 1341.33,-864.29"/>
<text text-anchor="middle" x="1147.38" y="-848.8" font-family="Times,serif" font-size="14.00">has_function</text>
</g>
<!-- Protein(10)&#45;&gt;CelComp(5) -->
<g id="edge20" class="edge">
<title>Protein(10)&#45;&gt;CelComp(5)</title>
<path fill="none" stroke="blue" d="M940.86,-761.92C976.01,-756.52 1025.9,-749.02 1069.7,-743 1163.21,-730.16 1271.29,-716.84 1340.62,-708.5"/>
<polygon fill="blue" stroke="blue" points="1341.05,-711.97 1350.56,-707.3 1340.21,-705.02 1341.05,-711.97"/>
<text text-anchor="middle" x="1147.38" y="-745.8" font-family="Times,serif" font-size="14.00">located_in</text>
</g>
<!-- Protein(10)&#45;&gt;BioProc(4) -->
<g id="edge21" class="edge">
<title>Protein(10)&#45;&gt;BioProc(4)</title>
<path fill="none" stroke="black" d="M910.4,-751.71C927.05,-733.26 955.37,-704.01 984.05,-684 1011.49,-664.86 1022.68,-667.65 1051.7,-651 1060.04,-646.22 1060.88,-642.81 1069.7,-639 1134.77,-610.89 1163.22,-637.63 1225.07,-603 1297.25,-562.59 1359.83,-486.02 1391.04,-443.46"/>
<polygon fill="black" stroke="black" points="1394.01,-445.33 1397.03,-435.17 1388.34,-441.22 1394.01,-445.33"/>
<text text-anchor="middle" x="1147.38" y="-641.8" font-family="Times,serif" font-size="14.00">participates_in</text>
</g>
<!-- Protein(10)&#45;&gt;Enzyme(177) -->
<g id="edge18" class="edge">
<title>Protein(10)&#45;&gt;Enzyme(177)</title>
<path fill="none" stroke="blue" d="M943.78,-772.66C979.58,-775.37 1029.04,-779.12 1070.13,-782.23"/>
<polygon fill="blue" stroke="blue" points="1069.87,-785.72 1080.11,-782.98 1070.4,-778.74 1069.87,-785.72"/>
<text text-anchor="middle" x="1017.88" y="-782.8" font-family="Times,serif" font-size="14.00">is_a</text>
</g>
<!-- Protein(10)&#45;&gt;Protein(7) -->
<g id="edge12" class="edge">
<title>Protein(10)&#45;&gt;Protein(7)</title>
<path fill="none" stroke="black" d="M900.1,-750.87C909.81,-717.32 935.3,-645.63 984.05,-609 1001.21,-596.11 1053.08,-585.72 1093.63,-579.27"/>
<text text-anchor="middle" x="1017.88" y="-639.8" font-family="Times,serif" font-size="14.00">h_s_s</text>
<text text-anchor="middle" x="1017.88" y="-625.8" font-family="Times,serif" font-size="14.00">ortho(&lt;=2)</text>
<text text-anchor="middle" x="1017.88" y="-611.8" font-family="Times,serif" font-size="14.00">xref(&lt;=4)</text>
</g>
<!-- Protein(10)&#45;&gt;EC(15) -->
<g id="edge13" class="edge">
<title>Protein(10)&#45;&gt;EC(15)</title>
<path fill="none" stroke="black" d="M902.94,-786.98C917.24,-820.46 949.91,-894.3 984.05,-953 1017.72,-1010.9 1017.42,-1035.13 1069.7,-1077 1077.69,-1083.4 1087.17,-1088.63 1096.69,-1092.86"/>
<polygon fill="black" stroke="black" points="1095.6,-1096.19 1106.18,-1096.76 1098.26,-1089.72 1095.6,-1096.19"/>
<text text-anchor="middle" x="1017.88" y="-1062.8" font-family="Times,serif" font-size="14.00">cat_c</text>
</g>
<!-- Protein(10)&#45;&gt;ProtDomain(14) -->
<g id="edge16" class="edge">
<title>Protein(10)&#45;&gt;ProtDomain(14)</title>
<path fill="none" stroke="blue" d="M905.34,-786.85C919.7,-811.06 948.46,-854.13 984.05,-879 1010.08,-897.2 1025.4,-884.2 1051.7,-902 1061.88,-908.89 1059.72,-915.83 1069.7,-923 1074.56,-926.49 1079.86,-929.66 1085.34,-932.53"/>
<polygon fill="blue" stroke="blue" points="1084.16,-935.85 1094.68,-937.08 1087.22,-929.55 1084.16,-935.85"/>
<text text-anchor="middle" x="1017.88" y="-904.8" font-family="Times,serif" font-size="14.00">has_domain</text>
</g>
<!-- Protein(10)&#45;&gt;Publication(2) -->
<g id="edge22" class="edge">
<title>Protein(10)&#45;&gt;Publication(2)</title>
<path fill="none" stroke="blue" d="M900.12,-750.9C910.48,-713.87 937.97,-628.07 984.05,-570 1016.67,-528.89 1066.03,-494.1 1101.76,-472.13"/>
<polygon fill="blue" stroke="blue" points="1103.79,-474.99 1110.53,-466.82 1100.16,-469 1103.79,-474.99"/>
<text text-anchor="middle" x="1017.88" y="-572.8" font-family="Times,serif" font-size="14.00">pub_in</text>
</g>
<!-- Protein(10)&#45;&gt;ProtDomain(11) -->
<g id="edge15" class="edge">
<title>Protein(10)&#45;&gt;ProtDomain(11)</title>
<path fill="none" stroke="black" d="M913.58,-752.21C930.52,-737.57 957.13,-717.01 984.05,-706 1011.22,-694.88 1042.77,-688.5 1070.79,-684.85"/>
<polygon fill="black" stroke="black" points="1071.43,-688.29 1080.94,-683.62 1070.59,-681.35 1071.43,-688.29"/>
<text text-anchor="middle" x="1017.88" y="-708.8" font-family="Times,serif" font-size="14.00">has_domain</text>
</g>
<!-- Protein(10)&#45;&gt;EC(12) -->
<g id="edge14" class="edge">
<title>Protein(10)&#45;&gt;EC(12)</title>
<path fill="none" stroke="blue" d="M911.98,-785.89C928.82,-802.22 956.3,-826.66 984.05,-842 986.85,-843.55 1059.77,-867.59 1106.91,-883.07"/>
<polygon fill="blue" stroke="blue" points="1105.95,-886.43 1116.54,-886.23 1108.13,-879.78 1105.95,-886.43"/>
<text text-anchor="middle" x="1017.88" y="-865.8" font-family="Times,serif" font-size="14.00">cat_c</text>
</g>
<!-- Protein(10)&#45;&gt;Protein(10) -->
<g id="edge11" class="edge">
<title>Protein(10)&#45;&gt;Protein(10)</title>
<path fill="none" stroke="blue" d="M874.7,-785.66C870.33,-795.62 876.89,-805 894.39,-805 911.89,-805 918.45,-795.62 914.08,-785.66"/>
<text text-anchor="middle" x="894.39" y="-835.8" font-family="Times,serif" font-size="14.00">h_s_s</text>
<text text-anchor="middle" x="894.39" y="-821.8" font-family="Times,serif" font-size="14.00">ortho(&lt;=2)</text>
<text text-anchor="middle" x="894.39" y="-807.8" font-family="Times,serif" font-size="14.00">xref(&lt;=4)</text>
</g>
<!-- Enzyme(17) -->
<g id="node24" class="node">
<title>Enzyme(17)</title>
<ellipse fill="none" stroke="black" cx="1147.38" cy="-1050" rx="53.63" ry="18"/>
<text text-anchor="middle" x="1147.38" y="-1045.8" font-family="Times,serif" font-size="14.00">Enzyme(17)</text>
</g>
<!-- Protein(10)&#45;&gt;Enzyme(17) -->
<g id="edge19" class="edge">
<title>Protein(10)&#45;&gt;Enzyme(17)</title>
<path fill="none" stroke="black" d="M901.6,-787.17C913.05,-818.05 940.41,-880.86 984.05,-916 1008.78,-935.92 1028.74,-917.06 1051.7,-939 1067.57,-954.17 1056.94,-967.14 1069.7,-985 1081.6,-1001.65 1098.69,-1016.69 1113.72,-1028.1"/>
<polygon fill="black" stroke="black" points="1111.68,-1030.94 1121.81,-1034.05 1115.83,-1025.3 1111.68,-1030.94"/>
<text text-anchor="middle" x="1017.88" y="-941.8" font-family="Times,serif" font-size="14.00">is_a</text>
</g>
<!-- Enzyme(17)&#45;&gt;Reaction(188) -->
<g id="edge24" class="edge">
<title>Enzyme(17)&#45;&gt;Reaction(188)</title>
<path fill="none" stroke="blue" d="M1201.13,-1048.6C1238.85,-1047.6 1290.28,-1046.23 1332.92,-1045.1"/>
<polygon fill="blue" stroke="blue" points="1333.1,-1048.6 1343,-1044.84 1332.91,-1041.6 1333.1,-1048.6"/>
<text text-anchor="middle" x="1284.27" y="-1049.8" font-family="Times,serif" font-size="14.00">ca_by</text>
</g>
<!-- Reaction(18) -->
<g id="node25" class="node">
<title>Reaction(18)</title>
<ellipse fill="none" stroke="black" cx="1413.17" cy="-1101" rx="56.04" ry="18"/>
<text text-anchor="middle" x="1413.17" y="-1096.8" font-family="Times,serif" font-size="14.00">Reaction(18)</text>
</g>
<!-- Enzyme(17)&#45;&gt;Reaction(18) -->
<g id="edge23" class="edge">
<title>Enzyme(17)&#45;&gt;Reaction(18)</title>
<path fill="none" stroke="black" d="M1194.33,-1058.88C1238.85,-1067.49 1306.49,-1080.57 1354.58,-1089.86"/>
<polygon fill="black" stroke="black" points="1354.05,-1093.33 1364.53,-1091.79 1355.37,-1086.45 1354.05,-1093.33"/>
<text text-anchor="middle" x="1284.27" y="-1085.8" font-family="Times,serif" font-size="14.00">ca_by</text>
</g>
<!-- Reaction(18)&#45;&gt;Path(19) -->
<g id="edge25" class="edge">
<title>Reaction(18)&#45;&gt;Path(19)</title>
<path fill="none" stroke="blue" d="M1469.46,-1101C1494.39,-1101 1523.81,-1101 1548.97,-1101"/>
<polygon fill="blue" stroke="blue" points="1549.1,-1104.5 1559.1,-1101 1549.1,-1097.5 1549.1,-1104.5"/>
<text text-anchor="middle" x="1521.08" y="-1103.8" font-family="Times,serif" font-size="14.00">part_of</text>
</g>
<!-- Gene(9)&#45;&gt;Trait(21) -->
<g id="edge38" class="edge">
<title>Gene(9)&#45;&gt;Trait(21)</title>
<path fill="none" stroke="black" d="M318.49,-460.98C374.61,-455.92 476.79,-444.33 507.73,-425 519.35,-417.75 513.85,-406.8 525.73,-400 611.02,-351.19 868.7,-372.41 966.05,-359 1010.98,-352.81 1061.77,-343.29 1097.97,-336.06"/>
<text text-anchor="middle" x="781.02" y="-368.8" font-family="Times,serif" font-size="14.00">cooc_wi</text>
</g>
<!-- Gene(9)&#45;&gt;MolFunc(3) -->
<g id="edge43" class="edge">
<title>Gene(9)&#45;&gt;MolFunc(3)</title>
<path fill="none" stroke="black" d="M288.71,-482.01C302.45,-511.55 332.99,-570.92 372.7,-610 429.43,-665.83 454.17,-668.17 525.73,-703 644.86,-760.99 711.1,-714.26 804.73,-808 820.83,-824.12 809.53,-837.43 822.73,-856 876.75,-931.95 896.39,-958.34 984.05,-990 1018.39,-1002.4 1145.45,-1009.26 1225.07,-985 1284.75,-966.81 1344.05,-924.18 1379.4,-895.46"/>
<polygon fill="black" stroke="black" points="1381.94,-897.9 1387.43,-888.84 1377.49,-892.5 1381.94,-897.9"/>
<text text-anchor="middle" x="894.39" y="-984.8" font-family="Times,serif" font-size="14.00">has_function</text>
</g>
<!-- Gene(9)&#45;&gt;CelComp(5) -->
<g id="edge46" class="edge">
<title>Gene(9)&#45;&gt;CelComp(5)</title>
<path fill="none" stroke="blue" d="M317.86,-468.66C334.61,-470.71 354.64,-473.08 372.7,-475 644.06,-503.88 711.74,-514.24 984.05,-532 1010.79,-533.74 1200.09,-531.29 1225.07,-541 1294.43,-567.97 1356.2,-632.1 1388.48,-670.17"/>
<polygon fill="blue" stroke="blue" points="1385.82,-672.44 1394.92,-677.87 1391.19,-667.95 1385.82,-672.44"/>
<text text-anchor="middle" x="894.39" y="-533.8" font-family="Times,serif" font-size="14.00">located_in</text>
</g>
<!-- Gene(9)&#45;&gt;BioProc(4) -->
<g id="edge47" class="edge">
<title>Gene(9)&#45;&gt;BioProc(4)</title>
<path fill="none" stroke="black" d="M292.1,-446.52C307.73,-423.71 337.93,-383.87 372.7,-360 432.54,-318.92 455.71,-322.1 525.73,-303 618.75,-277.63 644.64,-283.28 739.31,-265 848.4,-243.93 873.52,-225.39 984.05,-214 1013.96,-210.92 1022.35,-207.48 1051.7,-214 1184,-243.38 1318.04,-338.38 1378.69,-385.7"/>
<polygon fill="black" stroke="black" points="1376.73,-388.61 1386.75,-392.05 1381.06,-383.11 1376.73,-388.61"/>
<text text-anchor="middle" x="894.39" y="-248.8" font-family="Times,serif" font-size="14.00">participates_in</text>
</g>
<!-- Gene(9)&#45;&gt;Publication(2) -->
<g id="edge48" class="edge">
<title>Gene(9)&#45;&gt;Publication(2)</title>
<path fill="none" stroke="blue" d="M319.06,-463.25C450.82,-460.66 887.08,-452.09 1067.36,-448.55"/>
<polygon fill="blue" stroke="blue" points="1067.64,-452.05 1077.57,-448.35 1067.5,-445.05 1067.64,-452.05"/>
<text text-anchor="middle" x="781.02" y="-457.8" font-family="Times,serif" font-size="14.00">pub_in</text>
</g>
<!-- Gene(9)&#45;&gt;DGES(22) -->
<g id="edge41" class="edge">
<title>Gene(9)&#45;&gt;DGES(22)</title>
<path fill="none" stroke="black" d="M290.45,-446.46C304.71,-420.63 332.08,-370.76 354.7,-328 362.88,-312.54 358.88,-303.72 372.7,-293 402.53,-269.85 500.19,-252.17 566.64,-242.43"/>
<polygon fill="black" stroke="black" points="567.21,-245.89 576.61,-241 566.22,-238.96 567.21,-245.89"/>
<text text-anchor="middle" x="440.22" y="-295.8" font-family="Times,serif" font-size="14.00">differentially_expressed</text>
</g>
<!-- Gene(9)&#45;&gt;Gene(8) -->
<g id="edge39" class="edge">
<title>Gene(9)&#45;&gt;Gene(8)</title>
<path fill="none" stroke="blue" d="M282.13,-482.27C286.5,-526.63 304.21,-640.49 372.7,-696 420,-734.33 452.49,-693.42 507.73,-719 519.29,-724.35 576.68,-774.39 609.11,-803.06"/>
<text text-anchor="middle" x="440.22" y="-735.8" font-family="Times,serif" font-size="14.00">genetic(&lt;=4)</text>
<text text-anchor="middle" x="440.22" y="-721.8" font-family="Times,serif" font-size="14.00">physical(&lt;=4)</text>
</g>
<!-- Gene(9)&#45;&gt;Phenotype(13) -->
<g id="edge44" class="edge">
<title>Gene(9)&#45;&gt;Phenotype(13)</title>
<path fill="none" stroke="blue" d="M301.95,-479.07C319.92,-491.06 346.82,-507.24 372.7,-516 430.51,-535.57 499.04,-544.51 551.05,-548.6"/>
<polygon fill="blue" stroke="blue" points="551,-552.1 561.23,-549.35 551.51,-545.12 551,-552.1"/>
<text text-anchor="middle" x="440.22" y="-546.8" font-family="Times,serif" font-size="14.00">has_observ_pheno</text>
</g>
<!-- Gene(9)&#45;&gt;SNP(20) -->
<g id="edge45" class="edge">
<title>Gene(9)&#45;&gt;SNP(20)</title>
<path fill="none" stroke="black" d="M303.09,-449.32C321.29,-437.8 347.93,-421.95 372.7,-411 444.91,-379.07 533.58,-354.21 586.15,-340.87"/>
<polygon fill="black" stroke="black" points="587.01,-344.26 595.85,-338.43 585.3,-337.47 587.01,-344.26"/>
<text text-anchor="middle" x="440.22" y="-413.8" font-family="Times,serif" font-size="14.00">has_variation</text>
</g>
<!-- Gene(9)&#45;&gt;Protein(10) -->
<g id="edge42" class="edge">
<title>Gene(9)&#45;&gt;Protein(10)</title>
<path fill="none" stroke="blue" d="M293.35,-481.28C309.64,-502.63 339.86,-538.94 372.7,-562 513.82,-661.09 579.08,-625.27 739.31,-689 781.82,-705.91 828.09,-730.89 858.72,-748.43"/>
<polygon fill="blue" stroke="blue" points="857.29,-751.65 867.7,-753.62 860.79,-745.59 857.29,-751.65"/>
<text text-anchor="middle" x="632.52" y="-691.8" font-family="Times,serif" font-size="14.00">enc</text>
</g>
<!-- Gene(9)&#45;&gt;Gene(9) -->
<g id="edge40" class="edge">
<title>Gene(9)&#45;&gt;Gene(9)</title>
<path fill="none" stroke="black" d="M257.33,-478.79C250.03,-489.42 257.51,-500 279.75,-500 302,-500 309.47,-489.42 302.17,-478.79"/>
<text text-anchor="middle" x="279.75" y="-516.8" font-family="Times,serif" font-size="14.00">genetic(&lt;=4)</text>
<text text-anchor="middle" x="279.75" y="-502.8" font-family="Times,serif" font-size="14.00">physical(&lt;=4)</text>
</g>
</g>
</svg>
