<svg width="2234px" height="1319px"
 viewBox="0.00 0.00 1675.57 989.07" xmlns="http://www.w3.org/2000/svg" xmlns:xlink="http://www.w3.org/1999/xlink">
<g id="graph0" class="graph" transform=" rotate(0) translate(4 985.07)">
<title>%3</title>
<polygon fill="white" stroke="transparent" points="-4,4 -4,-985.07 1671.57,-985.07 1671.57,4 -4,4"/>
<!-- MolFunc(3) -->
<g id="node1" class="node">
<title>MolFunc(3)</title>
<polygon fill="none" stroke="darkgreen" points="1483.03,-277.61 1483.03,-292.52 1449.41,-303.07 1401.86,-303.07 1368.25,-292.52 1368.25,-277.61 1401.86,-267.07 1449.41,-267.07 1483.03,-277.61"/>
<polygon fill="none" stroke="darkgreen" points="1487.04,-274.68 1487.04,-295.46 1450.02,-307.07 1401.25,-307.07 1364.23,-295.46 1364.23,-274.68 1401.25,-263.07 1450.02,-263.07 1487.04,-274.68"/>
<text text-anchor="middle" x="1425.64" y="-280.87" font-family="Times,serif" font-size="14.00">MolFunc(3)</text>
</g>
<!-- Protein(7) -->
<g id="node2" class="node">
<title>Protein(7)</title>
<polygon fill="none" stroke="darkgreen" points="1209.37,-667.61 1209.37,-682.52 1180.36,-693.07 1139.33,-693.07 1110.32,-682.52 1110.32,-667.61 1139.33,-657.07 1180.36,-657.07 1209.37,-667.61"/>
<polygon fill="none" stroke="darkgreen" points="1213.35,-664.81 1213.35,-685.33 1181.06,-697.07 1138.64,-697.07 1106.34,-685.33 1106.34,-664.81 1138.64,-653.07 1181.06,-653.07 1213.35,-664.81"/>
<text text-anchor="middle" x="1159.85" y="-670.87" font-family="Times,serif" font-size="14.00">Protein(7)</text>
</g>
<!-- DGES(22) -->
<g id="node3" class="node">
<title>DGES(22)</title>
<polygon fill="none" stroke="darkgreen" points="696.76,-627.61 696.76,-642.52 666.43,-653.07 623.54,-653.07 593.21,-642.52 593.21,-627.61 623.54,-617.07 666.43,-617.07 696.76,-627.61"/>
<polygon fill="none" stroke="darkgreen" points="700.75,-624.77 700.75,-645.37 667.1,-657.07 622.86,-657.07 589.22,-645.37 589.22,-624.77 622.86,-613.07 667.1,-613.07 700.75,-624.77"/>
<text text-anchor="middle" x="644.98" y="-630.87" font-family="Times,serif" font-size="14.00">DGES(22)</text>
</g>
<!-- Path(19) -->
<g id="node4" class="node">
<title>Path(19)</title>
<polygon fill="none" stroke="darkgreen" points="1663.48,-664.61 1663.48,-679.52 1637.81,-690.07 1601.51,-690.07 1575.85,-679.52 1575.85,-664.61 1601.51,-654.07 1637.81,-654.07 1663.48,-664.61"/>
<polygon fill="none" stroke="darkgreen" points="1667.47,-661.93 1667.47,-682.21 1638.6,-694.07 1600.73,-694.07 1571.85,-682.21 1571.85,-661.93 1600.73,-650.07 1638.6,-650.07 1667.47,-661.93"/>
<text text-anchor="middle" x="1619.66" y="-667.87" font-family="Times,serif" font-size="14.00">Path(19)</text>
</g>
<!-- BioProc(4) -->
<g id="node5" class="node">
<title>BioProc(4)</title>
<polygon fill="none" stroke="darkgreen" points="1479.09,-541.61 1479.09,-556.52 1447.78,-567.07 1403.49,-567.07 1372.18,-556.52 1372.18,-541.61 1403.49,-531.07 1447.78,-531.07 1479.09,-541.61"/>
<polygon fill="none" stroke="darkgreen" points="1483.09,-538.74 1483.09,-559.4 1448.43,-571.07 1402.84,-571.07 1368.18,-559.4 1368.18,-538.74 1402.84,-527.07 1448.43,-527.07 1483.09,-538.74"/>
<text text-anchor="middle" x="1425.64" y="-544.87" font-family="Times,serif" font-size="14.00">BioProc(4)</text>
</g>
<!-- PlantOntologyTerm(24) -->
<g id="node6" class="node">
<title>PlantOntologyTerm(24)</title>
<polygon fill="none" stroke="darkgreen" points="747.56,-889.61 747.56,-904.52 687.47,-915.07 602.49,-915.07 542.4,-904.52 542.4,-889.61 602.49,-879.07 687.47,-879.07 747.56,-889.61"/>
<polygon fill="none" stroke="darkgreen" points="751.55,-886.25 751.55,-907.89 687.82,-919.07 602.14,-919.07 538.41,-907.89 538.41,-886.25 602.14,-875.07 687.82,-875.07 751.55,-886.25"/>
<text text-anchor="middle" x="644.98" y="-892.87" font-family="Times,serif" font-size="14.00">PlantOntologyTerm(24)</text>
</g>
<!-- CoExpStudy(25) -->
<g id="node7" class="node">
<title>CoExpStudy(25)</title>
<polygon fill="none" stroke="darkgreen" points="720.63,-951.61 720.63,-966.52 676.31,-977.07 613.65,-977.07 569.34,-966.52 569.34,-951.61 613.65,-941.07 676.31,-941.07 720.63,-951.61"/>
<polygon fill="none" stroke="darkgreen" points="724.62,-948.45 724.62,-969.69 676.78,-981.07 613.18,-981.07 565.35,-969.69 565.35,-948.45 613.18,-937.07 676.78,-937.07 724.62,-948.45"/>
<text text-anchor="middle" x="644.98" y="-954.87" font-family="Times,serif" font-size="14.00">CoExpStudy(25)</text>
</g>
<!-- Publication(2) -->
<g id="node8" class="node">
<title>Publication(2)</title>
<polygon fill="none" stroke="darkgreen" points="1225.74,-31.61 1225.74,-46.52 1187.14,-57.07 1132.55,-57.07 1093.95,-46.52 1093.95,-31.61 1132.55,-21.07 1187.14,-21.07 1225.74,-31.61"/>
<polygon fill="none" stroke="darkgreen" points="1229.75,-28.56 1229.75,-49.58 1187.68,-61.07 1132.01,-61.07 1089.94,-49.58 1089.94,-28.56 1132.01,-17.07 1187.68,-17.07 1229.75,-28.56"/>
<text text-anchor="middle" x="1159.85" y="-34.87" font-family="Times,serif" font-size="14.00">Publication(2)</text>
</g>
<!-- Trait(21) -->
<g id="node9" class="node">
<title>Trait(21)</title>
<polygon fill="none" stroke="darkgreen" points="1205.15,-734.61 1205.15,-749.52 1178.61,-760.07 1141.08,-760.07 1114.54,-749.52 1114.54,-734.61 1141.08,-724.07 1178.61,-724.07 1205.15,-734.61"/>
<polygon fill="none" stroke="darkgreen" points="1209.16,-731.9 1209.16,-752.24 1179.38,-764.07 1140.31,-764.07 1110.53,-752.24 1110.53,-731.9 1140.31,-720.07 1179.38,-720.07 1209.16,-731.9"/>
<text text-anchor="middle" x="1159.85" y="-737.87" font-family="Times,serif" font-size="14.00">Trait(21)</text>
</g>
<!-- ProtDomain(14) -->
<g id="node10" class="node">
<title>ProtDomain(14)</title>
<polygon fill="none" stroke="darkgreen" points="1233.7,-143.61 1233.7,-158.52 1190.44,-169.07 1129.26,-169.07 1085.99,-158.52 1085.99,-143.61 1129.26,-133.07 1190.44,-133.07 1233.7,-143.61"/>
<polygon fill="none" stroke="darkgreen" points="1237.71,-140.47 1237.71,-161.67 1190.92,-173.07 1128.77,-173.07 1081.98,-161.67 1081.98,-140.47 1128.77,-129.07 1190.92,-129.07 1237.71,-140.47"/>
<text text-anchor="middle" x="1159.85" y="-146.87" font-family="Times,serif" font-size="14.00">ProtDomain(14)</text>
</g>
<!-- SNPEffect(26) -->
<g id="node11" class="node">
<title>SNPEffect(26)</title>
<polygon fill="none" stroke="darkgreen" points="974.66,-643.61 974.66,-658.52 934.94,-669.07 878.77,-669.07 839.05,-658.52 839.05,-643.61 878.77,-633.07 934.94,-633.07 974.66,-643.61"/>
<polygon fill="none" stroke="darkgreen" points="978.67,-640.54 978.67,-661.6 935.46,-673.07 878.24,-673.07 835.04,-661.6 835.04,-640.54 878.24,-629.07 935.46,-629.07 978.67,-640.54"/>
<text text-anchor="middle" x="906.85" y="-646.87" font-family="Times,serif" font-size="14.00">SNPEffect(26)</text>
</g>
<!-- Reaction(188) -->
<g id="node12" class="node">
<title>Reaction(188)</title>
<polygon fill="none" stroke="darkgreen" points="1491.51,-606.61 1491.51,-621.52 1452.92,-632.07 1398.35,-632.07 1359.76,-621.52 1359.76,-606.61 1398.35,-596.07 1452.92,-596.07 1491.51,-606.61"/>
<polygon fill="none" stroke="darkgreen" points="1495.52,-603.56 1495.52,-624.58 1453.46,-636.07 1397.81,-636.07 1355.75,-624.58 1355.75,-603.56 1397.81,-592.07 1453.46,-592.07 1495.52,-603.56"/>
<text text-anchor="middle" x="1425.64" y="-609.87" font-family="Times,serif" font-size="14.00">Reaction(188)</text>
</g>
<!-- Enzyme(177) -->
<g id="node13" class="node">
<title>Enzyme(177)</title>
<polygon fill="none" stroke="darkgreen" points="1222.91,-475.61 1222.91,-490.52 1185.97,-501.07 1133.72,-501.07 1096.78,-490.52 1096.78,-475.61 1133.72,-465.07 1185.97,-465.07 1222.91,-475.61"/>
<polygon fill="none" stroke="darkgreen" points="1226.92,-472.6 1226.92,-493.54 1186.53,-505.07 1133.16,-505.07 1092.78,-493.54 1092.78,-472.6 1133.16,-461.07 1186.53,-461.07 1226.92,-472.6"/>
<text text-anchor="middle" x="1159.85" y="-478.87" font-family="Times,serif" font-size="14.00">Enzyme(177)</text>
</g>
<!-- CelComp(5) -->
<g id="node14" class="node">
<title>CelComp(5)</title>
<polygon fill="none" stroke="darkgreen" points="1484.24,-89.61 1484.24,-104.52 1449.91,-115.07 1401.36,-115.07 1367.03,-104.52 1367.03,-89.61 1401.36,-79.07 1449.91,-79.07 1484.24,-89.61"/>
<polygon fill="none" stroke="darkgreen" points="1488.23,-86.65 1488.23,-107.48 1450.51,-119.07 1400.76,-119.07 1363.04,-107.48 1363.04,-86.65 1400.76,-75.07 1450.51,-75.07 1488.23,-86.65"/>
<text text-anchor="middle" x="1425.64" y="-92.87" font-family="Times,serif" font-size="14.00">CelComp(5)</text>
</g>
<!-- EC(15) -->
<g id="node15" class="node">
<title>EC(15)</title>
<polygon fill="none" stroke="darkgreen" points="1199.07,-413.61 1199.07,-428.52 1176.09,-439.07 1143.6,-439.07 1120.62,-428.52 1120.62,-413.61 1143.6,-403.07 1176.09,-403.07 1199.07,-413.61"/>
<polygon fill="none" stroke="darkgreen" points="1203.08,-411.05 1203.08,-431.09 1176.97,-443.07 1142.72,-443.07 1116.61,-431.09 1116.61,-411.05 1142.72,-399.07 1176.97,-399.07 1203.08,-411.05"/>
<text text-anchor="middle" x="1159.85" y="-416.87" font-family="Times,serif" font-size="14.00">EC(15)</text>
</g>
<!-- Gene(8) -->
<g id="node16" class="node">
<title>Gene(8)</title>
<polygon fill="none" stroke="darkgreen" points="687.09,-330.61 687.09,-345.52 662.43,-356.07 627.54,-356.07 602.87,-345.52 602.87,-330.61 627.54,-320.07 662.43,-320.07 687.09,-330.61"/>
<polygon fill="none" stroke="darkgreen" points="691.08,-327.97 691.08,-348.17 663.24,-360.07 626.73,-360.07 598.89,-348.17 598.89,-327.97 626.73,-316.07 663.24,-316.07 691.08,-327.97"/>
<text text-anchor="middle" x="644.98" y="-333.87" font-family="Times,serif" font-size="14.00">Gene(8)</text>
</g>
<!-- Protein(10) -->
<g id="node23" class="node">
<title>Protein(10)</title>
<ellipse fill="none" stroke="black" cx="906.85" cy="-338.07" rx="50.27" ry="18"/>
<text text-anchor="middle" x="906.85" y="-333.87" font-family="Times,serif" font-size="14.00">Protein(10)</text>
</g>
<!-- Gene(8)&#45;&gt;Protein(10) -->
<g id="edge37" class="edge">
<title>Gene(8)&#45;&gt;Protein(10)</title>
<path fill="none" stroke="blue" d="M691.25,-338.07C734.19,-338.07 799,-338.07 846.16,-338.07"/>
<polygon fill="blue" stroke="blue" points="846.24,-341.57 856.24,-338.07 846.24,-334.57 846.24,-341.57"/>
<text text-anchor="middle" x="793.48" y="-340.87" font-family="Times,serif" font-size="14.00">enc</text>
</g>
<!-- Phenotype(13) -->
<g id="node17" class="node">
<title>Phenotype(13)</title>
<polygon fill="none" stroke="darkgreen" points="712.09,-451.61 712.09,-466.52 672.78,-477.07 617.19,-477.07 577.88,-466.52 577.88,-451.61 617.19,-441.07 672.78,-441.07 712.09,-451.61"/>
<polygon fill="none" stroke="darkgreen" points="716.08,-448.54 716.08,-469.6 673.3,-481.07 616.66,-481.07 573.89,-469.6 573.89,-448.54 616.66,-437.07 673.3,-437.07 716.08,-448.54"/>
<text text-anchor="middle" x="644.98" y="-454.87" font-family="Times,serif" font-size="14.00">Phenotype(13)</text>
</g>
<!-- Gene(1) -->
<g id="node18" class="node">
<title>Gene(1)</title>
<ellipse fill="none" stroke="red" cx="43.08" cy="-634.07" rx="39.15" ry="39.15"/>
<ellipse fill="none" stroke="red" cx="43.08" cy="-634.07" rx="43.15" ry="43.15"/>
<text text-anchor="middle" x="43.08" y="-629.87" font-family="Times,serif" font-size="14.00">Gene(1)</text>
</g>
<!-- Gene(1)&#45;&gt;Protein(7) -->
<g id="edge43" class="edge">
<title>Gene(1)&#45;&gt;Protein(7)</title>
<path fill="none" stroke="black" d="M76.92,-661.21C122.18,-695.77 207.66,-751.07 291.21,-751.07 291.21,-751.07 291.21,-751.07 794.48,-751.07 876.51,-751.07 914.84,-788.78 978.51,-737.07 1000.78,-718.98 973.57,-692.3 996.51,-675.07 1026.87,-652.27 1070.22,-653.47 1104.49,-659.71"/>
<polygon fill="black" stroke="black" points="1103.86,-663.16 1114.36,-661.7 1105.24,-656.29 1103.86,-663.16"/>
<text text-anchor="middle" x="644.98" y="-753.87" font-family="Times,serif" font-size="14.00">enc</text>
</g>
<!-- Gene(1)&#45;&gt;DGES(22) -->
<g id="edge41" class="edge">
<title>Gene(1)&#45;&gt;DGES(22)</title>
<path fill="none" stroke="black" d="M86.26,-634.14C189.51,-634.31 455.46,-634.75 579.05,-634.96"/>
<polygon fill="black" stroke="black" points="579.13,-638.46 589.13,-634.98 579.14,-631.46 579.13,-638.46"/>
<text text-anchor="middle" x="292.21" y="-636.87" font-family="Times,serif" font-size="14.00">differentially_expressed</text>
</g>
<!-- Gene(1)&#45;&gt;Publication(2) -->
<g id="edge45" class="edge">
<title>Gene(1)&#45;&gt;Publication(2)</title>
<path fill="none" stroke="black" d="M48.89,-591.3C56.19,-534.97 72.67,-433.55 104.15,-352.07 163.68,-198.05 126.09,-31.07 291.21,-31.07 291.21,-31.07 291.21,-31.07 907.85,-31.07 965.34,-31.07 1030.21,-33.19 1079.59,-35.25"/>
<polygon fill="black" stroke="black" points="1079.75,-38.76 1089.89,-35.69 1080.04,-31.77 1079.75,-38.76"/>
<text text-anchor="middle" x="644.98" y="-33.87" font-family="Times,serif" font-size="14.00">occ_in</text>
</g>
<!-- Gene(1)&#45;&gt;Trait(21) -->
<g id="edge40" class="edge">
<title>Gene(1)&#45;&gt;Trait(21)</title>
<path fill="none" stroke="blue" d="M64.18,-671.97C74.4,-688.45 88.07,-706.94 104.15,-720.07 174.32,-777.38 200.62,-801.07 291.21,-801.07 291.21,-801.07 291.21,-801.07 907.85,-801.07 980.45,-801.07 1061.81,-777.39 1111.68,-760.03"/>
<polygon fill="blue" stroke="blue" points="1112.97,-763.29 1121.22,-756.65 1110.63,-756.69 1112.97,-763.29"/>
<text text-anchor="middle" x="644.98" y="-803.87" font-family="Times,serif" font-size="14.00">cooc_wi</text>
</g>
<!-- Gene(1)&#45;&gt;Gene(8) -->
<g id="edge38" class="edge">
<title>Gene(1)&#45;&gt;Gene(8)</title>
<path fill="none" stroke="blue" d="M64.99,-596.69C75.56,-579.43 89.28,-559.23 104.15,-543.07 207.95,-430.26 238.79,-388.62 385.17,-343.07 457.26,-320.63 546.19,-325.49 598.82,-331.48"/>
<text text-anchor="middle" x="292.21" y="-443.87" font-family="Times,serif" font-size="14.00">homoeolog(&lt;=2)</text>
<text text-anchor="middle" x="292.21" y="-429.87" font-family="Times,serif" font-size="14.00">regulates(&lt;=2)</text>
</g>
<!-- CoExpCluster(23) -->
<g id="node20" class="node">
<title>CoExpCluster(23)</title>
<ellipse fill="none" stroke="black" cx="292.21" cy="-872.07" rx="74.9" ry="18"/>
<text text-anchor="middle" x="292.21" y="-867.87" font-family="Times,serif" font-size="14.00">CoExpCluster(23)</text>
</g>
<!-- Gene(1)&#45;&gt;CoExpCluster(23) -->
<g id="edge46" class="edge">
<title>Gene(1)&#45;&gt;CoExpCluster(23)</title>
<path fill="none" stroke="blue" d="M47.29,-677.27C52.6,-718.15 66.71,-778.54 104.15,-815.07 132.59,-842.81 174.1,-857.1 210.8,-864.44"/>
<polygon fill="blue" stroke="blue" points="210.54,-867.95 221.01,-866.33 211.82,-861.07 210.54,-867.95"/>
<text text-anchor="middle" x="151.71" y="-863.87" font-family="Times,serif" font-size="14.00">part_of</text>
</g>
<!-- SNP(20) -->
<g id="node21" class="node">
<title>SNP(20)</title>
<ellipse fill="none" stroke="black" cx="644.98" cy="-695.07" rx="41.13" ry="18"/>
<text text-anchor="middle" x="644.98" y="-690.87" font-family="Times,serif" font-size="14.00">SNP(20)</text>
</g>
<!-- Gene(1)&#45;&gt;SNP(20) -->
<g id="edge44" class="edge">
<title>Gene(1)&#45;&gt;SNP(20)</title>
<path fill="none" stroke="blue" d="M84.99,-644.25C91.38,-645.65 97.93,-646.98 104.15,-648.07 282.53,-679.23 497.86,-690.1 593.72,-693.58"/>
<polygon fill="blue" stroke="blue" points="593.6,-697.08 603.72,-693.93 593.85,-690.08 593.6,-697.08"/>
<text text-anchor="middle" x="292.21" y="-695.87" font-family="Times,serif" font-size="14.00">has_mutant</text>
<text text-anchor="middle" x="292.21" y="-681.87" font-family="Times,serif" font-size="14.00">has_variation</text>
</g>
<!-- Gene(1)&#45;&gt;Protein(10) -->
<g id="edge42" class="edge">
<title>Gene(1)&#45;&gt;Protein(10)</title>
<path fill="none" stroke="blue" d="M50.08,-591.31C57.48,-549.83 73.11,-486.54 104.15,-440.07 140.46,-385.71 158.55,-374.8 217.26,-346.07 434.56,-239.72 738.56,-296.5 856.43,-324.96"/>
<polygon fill="blue" stroke="blue" points="855.71,-328.39 866.26,-327.38 857.38,-321.59 855.71,-328.39"/>
<text text-anchor="middle" x="452.68" y="-297.87" font-family="Times,serif" font-size="14.00">enc</text>
</g>
<!-- Gene(9) -->
<g id="node26" class="node">
<title>Gene(9)</title>
<ellipse fill="none" stroke="black" cx="292.21" cy="-509.07" rx="39.15" ry="18"/>
<text text-anchor="middle" x="292.21" y="-504.87" font-family="Times,serif" font-size="14.00">Gene(9)</text>
</g>
<!-- Gene(1)&#45;&gt;Gene(9) -->
<g id="edge39" class="edge">
<title>Gene(1)&#45;&gt;Gene(9)</title>
<path fill="none" stroke="black" d="M77.97,-608.69C86.33,-602.9 95.4,-597.01 104.15,-592.07 157.37,-562.03 223.52,-534.89 261.2,-520.31"/>
<text text-anchor="middle" x="151.71" y="-608.87" font-family="Times,serif" font-size="14.00">homoeolog(&lt;=2)</text>
<text text-anchor="middle" x="151.71" y="-594.87" font-family="Times,serif" font-size="14.00">regulates(&lt;=2)</text>
</g>
<!-- Reaction(18) -->
<g id="node19" class="node">
<title>Reaction(18)</title>
<ellipse fill="none" stroke="black" cx="1425.64" cy="-672.07" rx="56.04" ry="18"/>
<text text-anchor="middle" x="1425.64" y="-667.87" font-family="Times,serif" font-size="14.00">Reaction(18)</text>
</g>
<!-- Reaction(18)&#45;&gt;Path(19) -->
<g id="edge1" class="edge">
<title>Reaction(18)&#45;&gt;Path(19)</title>
<path fill="none" stroke="black" d="M1481.92,-672.07C1506.85,-672.07 1536.28,-672.07 1561.43,-672.07"/>
<polygon fill="black" stroke="black" points="1561.56,-675.57 1571.56,-672.07 1561.56,-668.57 1561.56,-675.57"/>
<text text-anchor="middle" x="1533.54" y="-674.87" font-family="Times,serif" font-size="14.00">part_of</text>
</g>
<!-- CoExpCluster(23)&#45;&gt;BioProc(4) -->
<g id="edge2" class="edge">
<title>CoExpCluster(23)&#45;&gt;BioProc(4)</title>
<path fill="none" stroke="black" d="M360.36,-864.43C430.88,-857.08 545.08,-847.07 643.98,-847.07 643.98,-847.07 643.98,-847.07 1160.85,-847.07 1176.81,-847.07 1326.33,-691.94 1337.94,-670.07 1356.47,-635.2 1331.81,-614.32 1355.94,-583.07 1360.2,-577.55 1365.6,-572.87 1371.49,-568.91"/>
<polygon fill="black" stroke="black" points="1373.58,-571.73 1380.39,-563.61 1370.01,-565.71 1373.58,-571.73"/>
<text text-anchor="middle" x="906.85" y="-849.87" font-family="Times,serif" font-size="14.00">enriched_for</text>
</g>
<!-- CoExpCluster(23)&#45;&gt;PlantOntologyTerm(24) -->
<g id="edge3" class="edge">
<title>CoExpCluster(23)&#45;&gt;PlantOntologyTerm(24)</title>
<path fill="none" stroke="blue" d="M364.2,-877.13C411.22,-880.48 473.98,-884.95 528.14,-888.81"/>
<polygon fill="blue" stroke="blue" points="527.93,-892.31 538.15,-889.53 528.42,-885.32 527.93,-892.31"/>
<text text-anchor="middle" x="452.68" y="-889.87" font-family="Times,serif" font-size="14.00">enriched_for</text>
</g>
<!-- CoExpCluster(23)&#45;&gt;CoExpStudy(25) -->
<g id="edge4" class="edge">
<title>CoExpCluster(23)&#45;&gt;CoExpStudy(25)</title>
<path fill="none" stroke="black" d="M332.2,-887.41C348.42,-893.44 367.54,-900.09 385.17,-905.07 443.56,-921.55 510.66,-935.41 561.9,-944.96"/>
<polygon fill="black" stroke="black" points="561.46,-948.44 571.93,-946.81 562.73,-941.55 561.46,-948.44"/>
<text text-anchor="middle" x="452.68" y="-938.87" font-family="Times,serif" font-size="14.00">part_of</text>
</g>
<!-- SNP(20)&#45;&gt;Trait(21) -->
<g id="edge5" class="edge">
<title>SNP(20)&#45;&gt;Trait(21)</title>
<path fill="none" stroke="black" d="M684.55,-700.15C749.03,-708.46 882.83,-724.95 996.51,-734.07 1030.88,-736.83 1069.42,-738.77 1100.32,-740.06"/>
<polygon fill="black" stroke="black" points="1100.36,-743.56 1110.49,-740.47 1100.64,-736.57 1100.36,-743.56"/>
<text text-anchor="middle" x="906.85" y="-734.87" font-family="Times,serif" font-size="14.00">associated_with</text>
</g>
<!-- SNP(20)&#45;&gt;SNPEffect(26) -->
<g id="edge6" class="edge">
<title>SNP(20)&#45;&gt;SNPEffect(26)</title>
<path fill="none" stroke="blue" d="M683.49,-688.72C721.15,-682.34 780.29,-672.33 828.12,-664.23"/>
<polygon fill="blue" stroke="blue" points="828.86,-667.65 838.14,-662.53 827.7,-660.75 828.86,-667.65"/>
<text text-anchor="middle" x="793.48" y="-675.87" font-family="Times,serif" font-size="14.00">leads_to</text>
</g>
<!-- Enzyme(17) -->
<g id="node22" class="node">
<title>Enzyme(17)</title>
<ellipse fill="none" stroke="black" cx="1159.85" cy="-617.07" rx="53.63" ry="18"/>
<text text-anchor="middle" x="1159.85" y="-612.87" font-family="Times,serif" font-size="14.00">Enzyme(17)</text>
</g>
<!-- Enzyme(17)&#45;&gt;Reaction(188) -->
<g id="edge8" class="edge">
<title>Enzyme(17)&#45;&gt;Reaction(188)</title>
<path fill="none" stroke="blue" d="M1213.91,-616.47C1251.66,-616.04 1303.01,-615.45 1345.57,-614.97"/>
<polygon fill="blue" stroke="blue" points="1345.66,-618.47 1355.62,-614.85 1345.58,-611.47 1345.66,-618.47"/>
<text text-anchor="middle" x="1296.74" y="-617.87" font-family="Times,serif" font-size="14.00">ca_by</text>
</g>
<!-- Enzyme(17)&#45;&gt;Reaction(18) -->
<g id="edge7" class="edge">
<title>Enzyme(17)&#45;&gt;Reaction(18)</title>
<path fill="none" stroke="black" d="M1205.89,-626.46C1250.68,-635.8 1319.51,-650.15 1367.98,-660.26"/>
<polygon fill="black" stroke="black" points="1367.5,-663.73 1378,-662.35 1368.92,-656.88 1367.5,-663.73"/>
<text text-anchor="middle" x="1296.74" y="-654.87" font-family="Times,serif" font-size="14.00">ca_by</text>
</g>
<!-- Protein(10)&#45;&gt;MolFunc(3) -->
<g id="edge16" class="edge">
<title>Protein(10)&#45;&gt;MolFunc(3)</title>
<path fill="none" stroke="blue" d="M924.72,-321.06C953.79,-293.1 1016.56,-238.47 1082.16,-218.07 1186.38,-185.67 1313.51,-232.04 1379.7,-262.37"/>
<polygon fill="blue" stroke="blue" points="1378.47,-265.66 1389.01,-266.72 1381.43,-259.32 1378.47,-265.66"/>
<text text-anchor="middle" x="1159.85" y="-220.87" font-family="Times,serif" font-size="14.00">has_function</text>
</g>
<!-- Protein(10)&#45;&gt;Protein(7) -->
<g id="edge10" class="edge">
<title>Protein(10)&#45;&gt;Protein(7)</title>
<path fill="none" stroke="black" d="M917.66,-355.96C932.45,-383.47 960.6,-438.14 978.51,-487.07 989.25,-516.43 978.95,-529.21 996.51,-555.07 1017.51,-586 1040.56,-576.08 1064.16,-605.07 1076.22,-619.87 1068.34,-630.9 1082.16,-644.07 1090.59,-652.09 1101.35,-658.14 1112.14,-662.66"/>
<text text-anchor="middle" x="1030.34" y="-635.87" font-family="Times,serif" font-size="14.00">h_s_s(&lt;=4)</text>
<text text-anchor="middle" x="1030.34" y="-621.87" font-family="Times,serif" font-size="14.00">ortho(&lt;=4)</text>
<text text-anchor="middle" x="1030.34" y="-607.87" font-family="Times,serif" font-size="14.00">xref(&lt;=8)</text>
</g>
<!-- Protein(10)&#45;&gt;BioProc(4) -->
<g id="edge20" class="edge">
<title>Protein(10)&#45;&gt;BioProc(4)</title>
<path fill="none" stroke="blue" d="M955.34,-343.19C1045.97,-353.01 1234.92,-373.74 1237.53,-376.07 1264.05,-399.78 1234.2,-425.59 1255.53,-454.07 1283.7,-491.68 1331.4,-516.51 1368.97,-531.32"/>
<polygon fill="blue" stroke="blue" points="1368.19,-534.77 1378.78,-535.06 1370.68,-528.23 1368.19,-534.77"/>
<text text-anchor="middle" x="1159.85" y="-378.87" font-family="Times,serif" font-size="14.00">participates_in</text>
</g>
<!-- Protein(10)&#45;&gt;Publication(2) -->
<g id="edge21" class="edge">
<title>Protein(10)&#45;&gt;Publication(2)</title>
<path fill="none" stroke="black" d="M908.99,-319.87C912.82,-274.4 929.12,-154.89 996.51,-90.07 998.48,-88.17 1052.52,-71.4 1097.72,-57.59"/>
<polygon fill="black" stroke="black" points="1098.96,-60.87 1107.5,-54.61 1096.91,-54.18 1098.96,-60.87"/>
<text text-anchor="middle" x="1030.34" y="-92.87" font-family="Times,serif" font-size="14.00">pub_in</text>
</g>
<!-- Protein(10)&#45;&gt;Trait(21) -->
<g id="edge13" class="edge">
<title>Protein(10)&#45;&gt;Trait(21)</title>
<path fill="none" stroke="black" d="M918.59,-355.65C934.59,-382.78 964.31,-436.94 978.51,-487.07 998.5,-557.62 957.89,-588.74 996.51,-651.07 998,-653.47 1079.69,-704.7 1082.16,-706.07 1092.32,-711.68 1103.5,-717.25 1114.1,-722.28"/>
<polygon fill="black" stroke="black" points="1112.7,-725.48 1123.24,-726.54 1115.66,-719.14 1112.7,-725.48"/>
<text text-anchor="middle" x="1030.34" y="-695.87" font-family="Times,serif" font-size="14.00">cooc_wi</text>
</g>
<!-- Protein(10)&#45;&gt;ProtDomain(14) -->
<g id="edge15" class="edge">
<title>Protein(10)&#45;&gt;ProtDomain(14)</title>
<path fill="none" stroke="black" d="M912.53,-320.08C922.18,-286.84 947.59,-215.98 996.51,-181.07 1018.34,-165.5 1045.89,-157.3 1072.07,-153.17"/>
<polygon fill="black" stroke="black" points="1072.6,-156.63 1082.02,-151.77 1071.63,-149.69 1072.6,-156.63"/>
<text text-anchor="middle" x="1030.34" y="-183.87" font-family="Times,serif" font-size="14.00">has_domain</text>
</g>
<!-- Protein(10)&#45;&gt;Enzyme(177) -->
<g id="edge17" class="edge">
<title>Protein(10)&#45;&gt;Enzyme(177)</title>
<path fill="none" stroke="black" d="M923.04,-355.25C939.62,-373.16 967.68,-401.08 996.51,-419.07 1027.95,-438.69 1066.42,-454.18 1098.01,-465"/>
<polygon fill="black" stroke="black" points="1096.99,-468.34 1107.58,-468.2 1099.21,-461.71 1096.99,-468.34"/>
<text text-anchor="middle" x="1030.34" y="-453.87" font-family="Times,serif" font-size="14.00">is_a</text>
</g>
<!-- Protein(10)&#45;&gt;CelComp(5) -->
<g id="edge19" class="edge">
<title>Protein(10)&#45;&gt;CelComp(5)</title>
<path fill="none" stroke="black" d="M912.22,-320.16C921.82,-284.08 947.87,-201.75 996.51,-151.07 1026.29,-120.04 1040.55,-116.92 1082.16,-106.07 1173.23,-82.33 1282.54,-84.5 1352.77,-89.62"/>
<polygon fill="black" stroke="black" points="1352.6,-93.11 1362.84,-90.39 1353.14,-86.13 1352.6,-93.11"/>
<text text-anchor="middle" x="1159.85" y="-108.87" font-family="Times,serif" font-size="14.00">located_in</text>
</g>
<!-- Protein(10)&#45;&gt;EC(15) -->
<g id="edge12" class="edge">
<title>Protein(10)&#45;&gt;EC(15)</title>
<path fill="none" stroke="blue" d="M935.16,-353.16C952.36,-362.21 975.27,-373.4 996.51,-381.07 1032.35,-394.01 1074.13,-404.2 1106.33,-411.06"/>
<polygon fill="blue" stroke="blue" points="1105.92,-414.55 1116.42,-413.16 1107.35,-407.69 1105.92,-414.55"/>
<text text-anchor="middle" x="1030.34" y="-403.87" font-family="Times,serif" font-size="14.00">cat_c</text>
</g>
<!-- Protein(10)&#45;&gt;Enzyme(17) -->
<g id="edge18" class="edge">
<title>Protein(10)&#45;&gt;Enzyme(17)</title>
<path fill="none" stroke="blue" d="M918.1,-355.97C933.48,-382.11 964.17,-431.69 996.51,-469.07 1038.49,-517.59 1095.41,-566.26 1129.5,-593.92"/>
<polygon fill="blue" stroke="blue" points="1127.66,-596.94 1137.65,-600.49 1132.06,-591.49 1127.66,-596.94"/>
<text text-anchor="middle" x="1030.34" y="-539.87" font-family="Times,serif" font-size="14.00">is_a</text>
</g>
<!-- Protein(10)&#45;&gt;Protein(10) -->
<g id="edge9" class="edge">
<title>Protein(10)&#45;&gt;Protein(10)</title>
<path fill="none" stroke="blue" d="M887.17,-354.73C882.79,-364.69 889.35,-374.07 906.85,-374.07 924.35,-374.07 930.92,-364.69 926.54,-354.73"/>
<text text-anchor="middle" x="906.85" y="-404.87" font-family="Times,serif" font-size="14.00">h_s_s(&lt;=4)</text>
<text text-anchor="middle" x="906.85" y="-390.87" font-family="Times,serif" font-size="14.00">ortho(&lt;=4)</text>
<text text-anchor="middle" x="906.85" y="-376.87" font-family="Times,serif" font-size="14.00">xref(&lt;=8)</text>
</g>
<!-- EC(12) -->
<g id="node24" class="node">
<title>EC(12)</title>
<ellipse fill="none" stroke="black" cx="1159.85" cy="-313.07" rx="36.28" ry="18"/>
<text text-anchor="middle" x="1159.85" y="-308.87" font-family="Times,serif" font-size="14.00">EC(12)</text>
</g>
<!-- Protein(10)&#45;&gt;EC(12) -->
<g id="edge11" class="edge">
<title>Protein(10)&#45;&gt;EC(12)</title>
<path fill="none" stroke="black" d="M955.65,-333.31C1001.31,-328.76 1069.59,-321.96 1114.17,-317.52"/>
<polygon fill="black" stroke="black" points="1114.53,-321 1124.14,-316.53 1113.84,-314.03 1114.53,-321"/>
<text text-anchor="middle" x="1030.34" y="-331.87" font-family="Times,serif" font-size="14.00">cat_c</text>
</g>
<!-- ProtDomain(11) -->
<g id="node25" class="node">
<title>ProtDomain(11)</title>
<ellipse fill="none" stroke="black" cx="1159.85" cy="-259.07" rx="68" ry="18"/>
<text text-anchor="middle" x="1159.85" y="-254.87" font-family="Times,serif" font-size="14.00">ProtDomain(11)</text>
</g>
<!-- Protein(10)&#45;&gt;ProtDomain(11) -->
<g id="edge14" class="edge">
<title>Protein(10)&#45;&gt;ProtDomain(11)</title>
<path fill="none" stroke="blue" d="M941.31,-324.89C957.82,-318.58 978.09,-311.1 996.51,-305.07 1030.93,-293.81 1069.96,-282.7 1101.12,-274.21"/>
<polygon fill="blue" stroke="blue" points="1102.21,-277.55 1110.95,-271.56 1100.38,-270.79 1102.21,-277.55"/>
<text text-anchor="middle" x="1030.34" y="-307.87" font-family="Times,serif" font-size="14.00">has_domain</text>
</g>
<!-- EC(12)&#45;&gt;MolFunc(3) -->
<g id="edge22" class="edge">
<title>EC(12)&#45;&gt;MolFunc(3)</title>
<path fill="none" stroke="black" d="M1195.33,-309.41C1238.21,-304.86 1312.11,-297.01 1364.41,-291.46"/>
<text text-anchor="middle" x="1296.74" y="-305.87" font-family="Times,serif" font-size="14.00">equ</text>
</g>
<!-- ProtDomain(11)&#45;&gt;MolFunc(3) -->
<g id="edge23" class="edge">
<title>ProtDomain(11)&#45;&gt;MolFunc(3)</title>
<path fill="none" stroke="blue" d="M1227.46,-260.84C1260.73,-262.23 1301.56,-264.7 1337.94,-269.07 1344.22,-269.82 1350.74,-270.75 1357.25,-271.78"/>
<polygon fill="blue" stroke="blue" points="1357,-275.28 1367.43,-273.46 1358.14,-268.38 1357,-275.28"/>
<text text-anchor="middle" x="1296.74" y="-271.87" font-family="Times,serif" font-size="14.00">has_function</text>
</g>
<!-- ProtDomain(11)&#45;&gt;BioProc(4) -->
<g id="edge25" class="edge">
<title>ProtDomain(11)&#45;&gt;BioProc(4)</title>
<path fill="none" stroke="blue" d="M1211.67,-270.83C1220.97,-274.61 1230.08,-279.58 1237.53,-286.07 1250.71,-297.57 1246.29,-306.22 1255.53,-321.07 1301.78,-395.41 1365.28,-476.37 1399.81,-518.97"/>
<polygon fill="blue" stroke="blue" points="1397.29,-521.41 1406.32,-526.96 1402.72,-516.99 1397.29,-521.41"/>
<text text-anchor="middle" x="1296.74" y="-438.87" font-family="Times,serif" font-size="14.00">participates_in</text>
</g>
<!-- ProtDomain(11)&#45;&gt;CelComp(5) -->
<g id="edge24" class="edge">
<title>ProtDomain(11)&#45;&gt;CelComp(5)</title>
<path fill="none" stroke="black" d="M1200.21,-244.51C1212.43,-239.5 1225.76,-233.52 1237.53,-227.07 1293.41,-196.45 1353.05,-152.89 1389.59,-124.8"/>
<polygon fill="black" stroke="black" points="1392.15,-127.24 1397.92,-118.36 1387.87,-121.71 1392.15,-127.24"/>
<text text-anchor="middle" x="1296.74" y="-217.87" font-family="Times,serif" font-size="14.00">located_in</text>
</g>
<!-- Gene(9)&#45;&gt;MolFunc(3) -->
<g id="edge31" class="edge">
<title>Gene(9)&#45;&gt;MolFunc(3)</title>
<path fill="none" stroke="blue" d="M331.27,-510.19C502.62,-515.12 1196.01,-533.76 1237.53,-514.07 1248.94,-508.66 1353.33,-376.3 1401.04,-315.33"/>
<polygon fill="blue" stroke="blue" points="1403.98,-317.25 1407.38,-307.22 1398.46,-312.94 1403.98,-317.25"/>
<text text-anchor="middle" x="906.85" y="-524.87" font-family="Times,serif" font-size="14.00">has_function</text>
</g>
<!-- Gene(9)&#45;&gt;DGES(22) -->
<g id="edge29" class="edge">
<title>Gene(9)&#45;&gt;DGES(22)</title>
<path fill="none" stroke="blue" d="M308.43,-525.52C325.41,-542.78 354.52,-569.27 385.17,-583.07 440.67,-608.07 460.52,-594.01 520.2,-606.07 541.39,-610.35 564.49,-615.6 584.94,-620.46"/>
<polygon fill="blue" stroke="blue" points="584.2,-623.88 594.74,-622.8 585.83,-617.07 584.2,-623.88"/>
<text text-anchor="middle" x="452.68" y="-608.87" font-family="Times,serif" font-size="14.00">differentially_expressed</text>
</g>
<!-- Gene(9)&#45;&gt;BioProc(4) -->
<g id="edge35" class="edge">
<title>Gene(9)&#45;&gt;BioProc(4)</title>
<path fill="none" stroke="blue" d="M328.92,-515.34C345.9,-518.11 366.53,-521.17 385.17,-523.07 685.72,-553.74 762.06,-557.58 1064.16,-555.07 1166.62,-554.22 1285.44,-552 1357.8,-550.51"/>
<polygon fill="blue" stroke="blue" points="1358.21,-554.01 1368.14,-550.3 1358.07,-547.01 1358.21,-554.01"/>
<text text-anchor="middle" x="906.85" y="-557.87" font-family="Times,serif" font-size="14.00">participates_in</text>
</g>
<!-- Gene(9)&#45;&gt;Publication(2) -->
<g id="edge36" class="edge">
<title>Gene(9)&#45;&gt;Publication(2)</title>
<path fill="none" stroke="black" d="M321.49,-497.03C337.49,-488.72 356.39,-476.09 367.17,-459.07 395.31,-414.62 353.22,-383.88 385.17,-342.07 556.88,-117.32 919.4,-59.1 1079.73,-44.16"/>
<polygon fill="black" stroke="black" points="1080.35,-47.62 1089.99,-43.24 1079.72,-40.65 1080.35,-47.62"/>
<text text-anchor="middle" x="793.48" y="-106.87" font-family="Times,serif" font-size="14.00">pub_in</text>
</g>
<!-- Gene(9)&#45;&gt;Trait(21) -->
<g id="edge28" class="edge">
<title>Gene(9)&#45;&gt;Trait(21)</title>
<path fill="none" stroke="black" d="M315.2,-523.92C333.19,-535.29 359.74,-550.29 385.17,-558.07 448.55,-577.46 929.46,-575.49 978.51,-620.07 1008.37,-647.21 967.99,-680.52 996.51,-709.07 1011.03,-723.61 1059.92,-732.2 1100.28,-736.95"/>
<polygon fill="black" stroke="black" points="1100.01,-740.44 1110.34,-738.08 1100.79,-733.48 1100.01,-740.44"/>
<text text-anchor="middle" x="793.48" y="-590.87" font-family="Times,serif" font-size="14.00">cooc_wi</text>
</g>
<!-- Gene(9)&#45;&gt;CelComp(5) -->
<g id="edge34" class="edge">
<title>Gene(9)&#45;&gt;CelComp(5)</title>
<path fill="none" stroke="black" d="M321.81,-497.22C337.92,-488.99 356.83,-476.36 367.17,-459.07 407.95,-390.81 353.29,-353.91 385.17,-281.07 426.32,-187.03 450.01,-160.62 538.2,-108.07 654.61,-38.7 701.79,-62.87 835.2,-39.07 944.1,-19.64 971.75,-14.97 1082.16,-8.07 1151.08,-3.76 1170.17,7.13 1237.53,-8.07 1291.55,-20.26 1348.26,-49.98 1384.9,-71.73"/>
<polygon fill="black" stroke="black" points="1383.39,-74.91 1393.76,-77.07 1387.01,-68.91 1383.39,-74.91"/>
<text text-anchor="middle" x="906.85" y="-41.87" font-family="Times,serif" font-size="14.00">located_in</text>
</g>
<!-- Gene(9)&#45;&gt;Gene(8) -->
<g id="edge27" class="edge">
<title>Gene(9)&#45;&gt;Gene(8)</title>
<path fill="none" stroke="black" d="M298.65,-491.17C309.39,-459.24 336.59,-393.02 385.17,-363.07 402.89,-352.14 529.5,-343.98 598.84,-340.27"/>
<text text-anchor="middle" x="452.68" y="-379.87" font-family="Times,serif" font-size="14.00">genetic(&lt;=8)</text>
<text text-anchor="middle" x="452.68" y="-365.87" font-family="Times,serif" font-size="14.00">physical(&lt;=8)</text>
</g>
<!-- Gene(9)&#45;&gt;Phenotype(13) -->
<g id="edge32" class="edge">
<title>Gene(9)&#45;&gt;Phenotype(13)</title>
<path fill="none" stroke="black" d="M323.46,-498.1C341.2,-492.11 364.19,-485.11 385.17,-481.07 444.32,-469.68 512.22,-464.19 563.63,-461.54"/>
<polygon fill="black" stroke="black" points="563.86,-465.03 573.68,-461.04 563.52,-458.04 563.86,-465.03"/>
<text text-anchor="middle" x="452.68" y="-483.87" font-family="Times,serif" font-size="14.00">has_observ_pheno</text>
</g>
<!-- Gene(9)&#45;&gt;SNP(20) -->
<g id="edge33" class="edge">
<title>Gene(9)&#45;&gt;SNP(20)</title>
<path fill="none" stroke="blue" d="M302.55,-526.77C316.89,-552.19 346.73,-598.77 385.17,-624.07 403.11,-635.88 529.53,-667.52 598.81,-684.29"/>
<polygon fill="blue" stroke="blue" points="598.06,-687.71 608.6,-686.66 599.7,-680.91 598.06,-687.71"/>
<text text-anchor="middle" x="452.68" y="-665.87" font-family="Times,serif" font-size="14.00">has_variation</text>
</g>
<!-- Gene(9)&#45;&gt;Protein(10) -->
<g id="edge30" class="edge">
<title>Gene(9)&#45;&gt;Protein(10)</title>
<path fill="none" stroke="black" d="M317.22,-494.98C335.44,-484.68 361.34,-470.85 385.17,-461.07 450.98,-434.05 469.27,-431.73 538.2,-414.07 553.42,-410.17 754.5,-368.98 852.66,-348.93"/>
<polygon fill="black" stroke="black" points="853.59,-352.31 862.69,-346.88 852.19,-345.45 853.59,-352.31"/>
<text text-anchor="middle" x="644.98" y="-416.87" font-family="Times,serif" font-size="14.00">enc</text>
</g>
<!-- Gene(9)&#45;&gt;Gene(9) -->
<g id="edge26" class="edge">
<title>Gene(9)&#45;&gt;Gene(9)</title>
<path fill="none" stroke="blue" d="M268.79,-523.86C261.16,-534.49 268.97,-545.07 292.21,-545.07 315.46,-545.07 323.26,-534.49 315.64,-523.86"/>
<text text-anchor="middle" x="292.21" y="-561.87" font-family="Times,serif" font-size="14.00">genetic(&lt;=8)</text>
<text text-anchor="middle" x="292.21" y="-547.87" font-family="Times,serif" font-size="14.00">physical(&lt;=8)</text>
</g>
</g>
</svg>
