<svg width="1961px" height="1815px"
 viewBox="0.00 0.00 1470.61 1361.00" xmlns="http://www.w3.org/2000/svg" xmlns:xlink="http://www.w3.org/1999/xlink">
<g id="graph0" class="graph" transform=" rotate(0) translate(4 1357)">
<title>%3</title>
<polygon fill="white" stroke="transparent" points="-4,4 -4,-1357 1466.61,-1357 1466.61,4 -4,4"/>
<!-- Gene(8) -->
<g id="node1" class="node">
<title>Gene(8)</title>
<polygon fill="none" stroke="darkgreen" points="996.98,-381.54 996.98,-396.46 972.31,-407 937.43,-407 912.76,-396.46 912.76,-381.54 937.43,-371 972.31,-371 996.98,-381.54"/>
<polygon fill="none" stroke="darkgreen" points="1000.96,-378.9 1000.96,-399.1 973.13,-411 936.61,-411 908.78,-399.1 908.78,-378.9 936.61,-367 973.13,-367 1000.96,-378.9"/>
<text text-anchor="middle" x="954.87" y="-384.8" font-family="Times,serif" font-size="14.00">Gene(8)</text>
</g>
<!-- CoExpStudy(25) -->
<g id="node2" class="node">
<title>CoExpStudy(25)</title>
<polygon fill="none" stroke="darkgreen" points="720.63,-136.54 720.63,-151.46 676.31,-162 613.65,-162 569.34,-151.46 569.34,-136.54 613.65,-126 676.31,-126 720.63,-136.54"/>
<polygon fill="none" stroke="darkgreen" points="724.62,-133.38 724.62,-154.62 676.78,-166 613.18,-166 565.35,-154.62 565.35,-133.38 613.18,-122 676.78,-122 724.62,-133.38"/>
<text text-anchor="middle" x="644.98" y="-139.8" font-family="Times,serif" font-size="14.00">CoExpStudy(25)</text>
</g>
<!-- Trait(21) -->
<g id="node3" class="node">
<title>Trait(21)</title>
<polygon fill="none" stroke="darkgreen" points="1265.97,-1197.54 1265.97,-1212.46 1239.43,-1223 1201.9,-1223 1175.37,-1212.46 1175.37,-1197.54 1201.9,-1187 1239.43,-1187 1265.97,-1197.54"/>
<polygon fill="none" stroke="darkgreen" points="1269.98,-1194.83 1269.98,-1215.17 1240.2,-1227 1201.13,-1227 1171.35,-1215.17 1171.35,-1194.83 1201.13,-1183 1240.2,-1183 1269.98,-1194.83"/>
<text text-anchor="middle" x="1220.67" y="-1200.8" font-family="Times,serif" font-size="14.00">Trait(21)</text>
</g>
<!-- Publication(2) -->
<g id="node4" class="node">
<title>Publication(2)</title>
<polygon fill="none" stroke="darkgreen" points="1286.56,-1070.54 1286.56,-1085.46 1247.96,-1096 1193.37,-1096 1154.77,-1085.46 1154.77,-1070.54 1193.37,-1060 1247.96,-1060 1286.56,-1070.54"/>
<polygon fill="none" stroke="darkgreen" points="1290.58,-1067.49 1290.58,-1088.51 1248.5,-1100 1192.83,-1100 1150.76,-1088.51 1150.76,-1067.49 1192.83,-1056 1248.5,-1056 1290.58,-1067.49"/>
<text text-anchor="middle" x="1220.67" y="-1073.8" font-family="Times,serif" font-size="14.00">Publication(2)</text>
</g>
<!-- BioProc(4) -->
<g id="node5" class="node">
<title>BioProc(4)</title>
<polygon fill="none" stroke="darkgreen" points="1274.12,-337.54 1274.12,-352.46 1242.81,-363 1198.53,-363 1167.21,-352.46 1167.21,-337.54 1198.53,-327 1242.81,-327 1274.12,-337.54"/>
<polygon fill="none" stroke="darkgreen" points="1278.12,-334.67 1278.12,-355.33 1243.47,-367 1197.87,-367 1163.22,-355.33 1163.22,-334.67 1197.87,-323 1243.47,-323 1278.12,-334.67"/>
<text text-anchor="middle" x="1220.67" y="-340.8" font-family="Times,serif" font-size="14.00">BioProc(4)</text>
</g>
<!-- PlantOntologyTerm(24) -->
<g id="node6" class="node">
<title>PlantOntologyTerm(24)</title>
<polygon fill="none" stroke="darkgreen" points="747.56,-198.54 747.56,-213.46 687.47,-224 602.49,-224 542.4,-213.46 542.4,-198.54 602.49,-188 687.47,-188 747.56,-198.54"/>
<polygon fill="none" stroke="darkgreen" points="751.55,-195.18 751.55,-216.82 687.82,-228 602.14,-228 538.41,-216.82 538.41,-195.18 602.14,-184 687.82,-184 751.55,-195.18"/>
<text text-anchor="middle" x="644.98" y="-201.8" font-family="Times,serif" font-size="14.00">PlantOntologyTerm(24)</text>
</g>
<!-- DGES(22) -->
<g id="node7" class="node">
<title>DGES(22)</title>
<polygon fill="none" stroke="darkgreen" points="696.76,-342.54 696.76,-357.46 666.43,-368 623.54,-368 593.21,-357.46 593.21,-342.54 623.54,-332 666.43,-332 696.76,-342.54"/>
<polygon fill="none" stroke="darkgreen" points="700.75,-339.7 700.75,-360.3 667.1,-372 622.86,-372 589.22,-360.3 589.22,-339.7 622.86,-328 667.1,-328 700.75,-339.7"/>
<text text-anchor="middle" x="644.98" y="-345.8" font-family="Times,serif" font-size="14.00">DGES(22)</text>
</g>
<!-- CelComp(5) -->
<g id="node8" class="node">
<title>CelComp(5)</title>
<polygon fill="none" stroke="darkgreen" points="1279.27,-729.54 1279.27,-744.46 1244.94,-755 1196.39,-755 1162.06,-744.46 1162.06,-729.54 1196.39,-719 1244.94,-719 1279.27,-729.54"/>
<polygon fill="none" stroke="darkgreen" points="1283.26,-726.59 1283.26,-747.41 1245.54,-759 1195.8,-759 1158.08,-747.41 1158.08,-726.59 1195.8,-715 1245.54,-715 1283.26,-726.59"/>
<text text-anchor="middle" x="1220.67" y="-732.8" font-family="Times,serif" font-size="14.00">CelComp(5)</text>
</g>
<!-- Path(19) -->
<g id="node9" class="node">
<title>Path(19)</title>
<polygon fill="none" stroke="darkgreen" points="1458.52,-14.54 1458.52,-29.46 1432.85,-40 1396.56,-40 1370.89,-29.46 1370.89,-14.54 1396.56,-4 1432.85,-4 1458.52,-14.54"/>
<polygon fill="none" stroke="darkgreen" points="1462.51,-11.86 1462.51,-32.14 1433.64,-44 1395.77,-44 1366.9,-32.14 1366.9,-11.86 1395.77,0 1433.64,0 1462.51,-11.86"/>
<text text-anchor="middle" x="1414.7" y="-17.8" font-family="Times,serif" font-size="14.00">Path(19)</text>
</g>
<!-- SNPEffect(26) -->
<g id="node10" class="node">
<title>SNPEffect(26)</title>
<polygon fill="none" stroke="darkgreen" points="1022.68,-1231.54 1022.68,-1246.46 982.96,-1257 926.78,-1257 887.06,-1246.46 887.06,-1231.54 926.78,-1221 982.96,-1221 1022.68,-1231.54"/>
<polygon fill="none" stroke="darkgreen" points="1026.68,-1228.47 1026.68,-1249.53 983.48,-1261 926.26,-1261 883.06,-1249.53 883.06,-1228.47 926.26,-1217 983.48,-1217 1026.68,-1228.47"/>
<text text-anchor="middle" x="954.87" y="-1234.8" font-family="Times,serif" font-size="14.00">SNPEffect(26)</text>
</g>
<!-- Reaction(188) -->
<g id="node11" class="node">
<title>Reaction(188)</title>
<polygon fill="none" stroke="darkgreen" points="1286.55,-63.54 1286.55,-78.46 1247.96,-89 1193.38,-89 1154.79,-78.46 1154.79,-63.54 1193.38,-53 1247.96,-53 1286.55,-63.54"/>
<polygon fill="none" stroke="darkgreen" points="1290.56,-60.49 1290.56,-81.51 1248.5,-93 1192.84,-93 1150.78,-81.51 1150.78,-60.49 1192.84,-49 1248.5,-49 1290.56,-60.49"/>
<text text-anchor="middle" x="1220.67" y="-66.8" font-family="Times,serif" font-size="14.00">Reaction(188)</text>
</g>
<!-- Protein(7) -->
<g id="node12" class="node">
<title>Protein(7)</title>
<polygon fill="none" stroke="darkgreen" points="1004.39,-227.54 1004.39,-242.46 975.38,-253 934.36,-253 905.35,-242.46 905.35,-227.54 934.36,-217 975.38,-217 1004.39,-227.54"/>
<polygon fill="none" stroke="darkgreen" points="1008.37,-224.74 1008.37,-245.26 976.08,-257 933.66,-257 901.37,-245.26 901.37,-224.74 933.66,-213 976.08,-213 1008.37,-224.74"/>
<text text-anchor="middle" x="954.87" y="-230.8" font-family="Times,serif" font-size="14.00">Protein(7)</text>
</g>
<!-- MolFunc(3) -->
<g id="node13" class="node">
<title>MolFunc(3)</title>
<polygon fill="none" stroke="darkgreen" points="1278.06,-622.54 1278.06,-637.46 1244.44,-648 1196.9,-648 1163.28,-637.46 1163.28,-622.54 1196.9,-612 1244.44,-612 1278.06,-622.54"/>
<polygon fill="none" stroke="darkgreen" points="1282.07,-619.61 1282.07,-640.39 1245.06,-652 1196.28,-652 1159.27,-640.39 1159.27,-619.61 1196.28,-608 1245.06,-608 1282.07,-619.61"/>
<text text-anchor="middle" x="1220.67" y="-625.8" font-family="Times,serif" font-size="14.00">MolFunc(3)</text>
</g>
<!-- EC(15) -->
<g id="node14" class="node">
<title>EC(15)</title>
<polygon fill="none" stroke="darkgreen" points="994.1,-547.54 994.1,-562.46 971.12,-573 938.62,-573 915.64,-562.46 915.64,-547.54 938.62,-537 971.12,-537 994.1,-547.54"/>
<polygon fill="none" stroke="darkgreen" points="998.11,-544.98 998.11,-565.02 972,-577 937.74,-577 911.63,-565.02 911.63,-544.98 937.74,-533 972,-533 998.11,-544.98"/>
<text text-anchor="middle" x="954.87" y="-550.8" font-family="Times,serif" font-size="14.00">EC(15)</text>
</g>
<!-- ProtDomain(14) -->
<g id="node15" class="node">
<title>ProtDomain(14)</title>
<polygon fill="none" stroke="darkgreen" points="1028.72,-825.54 1028.72,-840.46 985.46,-851 924.28,-851 881.02,-840.46 881.02,-825.54 924.28,-815 985.46,-815 1028.72,-825.54"/>
<polygon fill="none" stroke="darkgreen" points="1032.73,-822.4 1032.73,-843.6 985.94,-855 923.8,-855 877.01,-843.6 877.01,-822.4 923.8,-811 985.94,-811 1032.73,-822.4"/>
<text text-anchor="middle" x="954.87" y="-828.8" font-family="Times,serif" font-size="14.00">ProtDomain(14)</text>
</g>
<!-- Enzyme(177) -->
<g id="node16" class="node">
<title>Enzyme(177)</title>
<polygon fill="none" stroke="darkgreen" points="1017.94,-763.54 1017.94,-778.46 980.99,-789 928.75,-789 891.8,-778.46 891.8,-763.54 928.75,-753 980.99,-753 1017.94,-763.54"/>
<polygon fill="none" stroke="darkgreen" points="1021.94,-760.53 1021.94,-781.47 981.55,-793 928.19,-793 887.8,-781.47 887.8,-760.53 928.19,-749 981.55,-749 1021.94,-760.53"/>
<text text-anchor="middle" x="954.87" y="-766.8" font-family="Times,serif" font-size="14.00">Enzyme(177)</text>
</g>
<!-- Phenotype(13) -->
<g id="node17" class="node">
<title>Phenotype(13)</title>
<polygon fill="none" stroke="darkgreen" points="712.09,-774.54 712.09,-789.46 672.78,-800 617.19,-800 577.88,-789.46 577.88,-774.54 617.19,-764 672.78,-764 712.09,-774.54"/>
<polygon fill="none" stroke="darkgreen" points="716.08,-771.47 716.08,-792.53 673.3,-804 616.66,-804 573.89,-792.53 573.89,-771.47 616.66,-760 673.3,-760 716.08,-771.47"/>
<text text-anchor="middle" x="644.98" y="-777.8" font-family="Times,serif" font-size="14.00">Phenotype(13)</text>
</g>
<!-- Gene(1) -->
<g id="node18" class="node">
<title>Gene(1)</title>
<ellipse fill="none" stroke="red" cx="43.08" cy="-340" rx="39.15" ry="39.15"/>
<ellipse fill="none" stroke="red" cx="43.08" cy="-340" rx="43.15" ry="43.15"/>
<text text-anchor="middle" x="43.08" y="-335.8" font-family="Times,serif" font-size="14.00">Gene(1)</text>
</g>
<!-- Gene(1)&#45;&gt;Gene(8) -->
<g id="edge42" class="edge">
<title>Gene(1)&#45;&gt;Gene(8)</title>
<path fill="none" stroke="blue" d="M86.05,-336.19C150.37,-330.49 277.23,-319.79 385.17,-314 555.94,-304.83 598.77,-304.67 769.77,-302 809.51,-301.38 822.47,-286.79 859.19,-302 869.64,-306.33 868.98,-312.21 877.19,-320 894.99,-336.89 915.7,-355.46 931.11,-369.08"/>
<text text-anchor="middle" x="452.68" y="-330.8" font-family="Times,serif" font-size="14.00">homoeolog(&lt;=2)</text>
<text text-anchor="middle" x="452.68" y="-316.8" font-family="Times,serif" font-size="14.00">regulates(&lt;=2)</text>
</g>
<!-- Gene(1)&#45;&gt;Trait(21) -->
<g id="edge41" class="edge">
<title>Gene(1)&#45;&gt;Trait(21)</title>
<path fill="none" stroke="black" d="M45.06,-383.3C49.06,-546.96 65.75,-1122.15 104.15,-1194 153.73,-1286.77 186.02,-1339 291.21,-1339 291.21,-1339 291.21,-1339 955.87,-1339 1054.75,-1339 1154.09,-1263.23 1197.28,-1225.64"/>
<text text-anchor="middle" x="644.98" y="-1341.8" font-family="Times,serif" font-size="14.00">cooc_wi</text>
</g>
<!-- Gene(1)&#45;&gt;Publication(2) -->
<g id="edge49" class="edge">
<title>Gene(1)&#45;&gt;Publication(2)</title>
<path fill="none" stroke="blue" d="M46.16,-383.41C55.6,-524.39 107.23,-969.15 385.17,-1123 450.13,-1158.96 944.82,-1108.63 1140.43,-1087.02"/>
<polygon fill="blue" stroke="blue" points="1141.08,-1090.47 1150.64,-1085.89 1140.31,-1083.52 1141.08,-1090.47"/>
<text text-anchor="middle" x="644.98" y="-1137.8" font-family="Times,serif" font-size="14.00">occ_in</text>
</g>
<!-- Gene(1)&#45;&gt;DGES(22) -->
<g id="edge44" class="edge">
<title>Gene(1)&#45;&gt;DGES(22)</title>
<path fill="none" stroke="black" d="M86.26,-340.7C189.51,-342.42 455.46,-346.86 579.05,-348.92"/>
<polygon fill="black" stroke="black" points="579.08,-352.42 589.13,-349.09 579.19,-345.42 579.08,-352.42"/>
<text text-anchor="middle" x="292.21" y="-348.8" font-family="Times,serif" font-size="14.00">differentially_expressed</text>
</g>
<!-- Gene(1)&#45;&gt;Path(19) -->
<g id="edge51" class="edge">
<title>Gene(1)&#45;&gt;Path(19)</title>
<path fill="none" stroke="blue" d="M48.73,-297.28C56.77,-230.81 75.25,-106.82 104.15,-74 162.62,-7.62 202.75,-6 291.21,-6 291.21,-6 291.21,-6 1221.67,-6 1267.08,-6 1318.32,-10.5 1356.45,-14.72"/>
<polygon fill="blue" stroke="blue" points="1356.51,-18.25 1366.84,-15.91 1357.3,-11.3 1356.51,-18.25"/>
<text text-anchor="middle" x="814.48" y="-8.8" font-family="Times,serif" font-size="14.00">part_of</text>
</g>
<!-- Gene(1)&#45;&gt;Reaction(188) -->
<g id="edge48" class="edge">
<title>Gene(1)&#45;&gt;Reaction(188)</title>
<path fill="none" stroke="black" d="M52.76,-297.98C61.4,-264 77.32,-216.34 104.15,-182 166.5,-102.23 189.97,-52 291.21,-52 291.21,-52 291.21,-52 955.87,-52 1018.07,-52 1088.31,-57.32 1140.67,-62.33"/>
<polygon fill="black" stroke="black" points="1140.6,-65.84 1150.89,-63.33 1141.28,-58.87 1140.6,-65.84"/>
<text text-anchor="middle" x="644.98" y="-54.8" font-family="Times,serif" font-size="14.00">inv_in</text>
</g>
<!-- Gene(1)&#45;&gt;Protein(7) -->
<g id="edge45" class="edge">
<title>Gene(1)&#45;&gt;Protein(7)</title>
<path fill="none" stroke="blue" d="M84.58,-327.59C91.09,-325.88 97.78,-324.27 104.15,-323 227.49,-298.47 260.13,-303.39 385.17,-290 568.91,-270.33 786.4,-250.16 891.21,-240.64"/>
<polygon fill="blue" stroke="blue" points="891.66,-244.11 901.3,-239.72 891.03,-237.14 891.66,-244.11"/>
<text text-anchor="middle" x="452.68" y="-292.8" font-family="Times,serif" font-size="14.00">enc</text>
</g>
<!-- CoExpCluster(23) -->
<g id="node20" class="node">
<title>CoExpCluster(23)</title>
<ellipse fill="none" stroke="black" cx="292.21" cy="-175" rx="74.9" ry="18"/>
<text text-anchor="middle" x="292.21" y="-170.8" font-family="Times,serif" font-size="14.00">CoExpCluster(23)</text>
</g>
<!-- Gene(1)&#45;&gt;CoExpCluster(23) -->
<g id="edge50" class="edge">
<title>Gene(1)&#45;&gt;CoExpCluster(23)</title>
<path fill="none" stroke="black" d="M56.95,-298.92C66.42,-275.02 81.63,-246.11 104.15,-228 134.69,-203.44 176,-190.26 212.03,-183.18"/>
<polygon fill="black" stroke="black" points="212.83,-186.6 222.04,-181.35 211.57,-179.71 212.83,-186.6"/>
<text text-anchor="middle" x="151.71" y="-230.8" font-family="Times,serif" font-size="14.00">part_of</text>
</g>
<!-- SNP(20) -->
<g id="node22" class="node">
<title>SNP(20)</title>
<ellipse fill="none" stroke="black" cx="644.98" cy="-1184" rx="41.13" ry="18"/>
<text text-anchor="middle" x="644.98" y="-1179.8" font-family="Times,serif" font-size="14.00">SNP(20)</text>
</g>
<!-- Gene(1)&#45;&gt;SNP(20) -->
<g id="edge47" class="edge">
<title>Gene(1)&#45;&gt;SNP(20)</title>
<path fill="none" stroke="blue" d="M44.03,-383.07C44.3,-543.06 49.21,-1096.76 104.15,-1151 239.95,-1285.06 500.36,-1227.06 601.94,-1197.46"/>
<polygon fill="blue" stroke="blue" points="602.96,-1200.81 611.55,-1194.6 600.97,-1194.1 602.96,-1200.81"/>
<text text-anchor="middle" x="292.21" y="-1251.8" font-family="Times,serif" font-size="14.00">has_mutant</text>
<text text-anchor="middle" x="292.21" y="-1237.8" font-family="Times,serif" font-size="14.00">has_variation</text>
</g>
<!-- Gene(9) -->
<g id="node23" class="node">
<title>Gene(9)</title>
<ellipse fill="none" stroke="black" cx="292.21" cy="-782" rx="39.15" ry="18"/>
<text text-anchor="middle" x="292.21" y="-777.8" font-family="Times,serif" font-size="14.00">Gene(9)</text>
</g>
<!-- Gene(1)&#45;&gt;Gene(9) -->
<g id="edge43" class="edge">
<title>Gene(1)&#45;&gt;Gene(9)</title>
<path fill="none" stroke="black" d="M64.93,-377.3C115.79,-468.25 244.68,-698.77 281.34,-764.35"/>
<text text-anchor="middle" x="151.71" y="-629.8" font-family="Times,serif" font-size="14.00">homoeolog(&lt;=2)</text>
<text text-anchor="middle" x="151.71" y="-615.8" font-family="Times,serif" font-size="14.00">regulates(&lt;=2)</text>
</g>
<!-- Protein(10) -->
<g id="node24" class="node">
<title>Protein(10)</title>
<ellipse fill="none" stroke="black" cx="644.98" cy="-613" rx="50.27" ry="18"/>
<text text-anchor="middle" x="644.98" y="-608.8" font-family="Times,serif" font-size="14.00">Protein(10)</text>
</g>
<!-- Gene(1)&#45;&gt;Protein(10) -->
<g id="edge46" class="edge">
<title>Gene(1)&#45;&gt;Protein(10)</title>
<path fill="none" stroke="black" d="M82.52,-357.49C190.21,-406.5 494.14,-544.81 603.85,-594.74"/>
<polygon fill="black" stroke="black" points="602.7,-598.06 613.25,-599.01 605.59,-591.69 602.7,-598.06"/>
<text text-anchor="middle" x="292.21" y="-487.8" font-family="Times,serif" font-size="14.00">enc</text>
</g>
<!-- Trait(211) -->
<g id="node19" class="node">
<title>Trait(211)</title>
<ellipse fill="none" stroke="black" cx="954.87" cy="-1181" rx="45.64" ry="18"/>
<text text-anchor="middle" x="954.87" y="-1176.8" font-family="Times,serif" font-size="14.00">Trait(211)</text>
</g>
<!-- Trait(211)&#45;&gt;Trait(21) -->
<g id="edge1" class="edge">
<title>Trait(211)&#45;&gt;Trait(21)</title>
<path fill="none" stroke="black" d="M999.73,-1184.99C1047.05,-1189.3 1122.2,-1196.13 1171.23,-1200.59"/>
<text text-anchor="middle" x="1091.76" y="-1198.8" font-family="Times,serif" font-size="14.00">is_part_of</text>
</g>
<!-- Trait(211)&#45;&gt;Publication(2) -->
<g id="edge2" class="edge">
<title>Trait(211)&#45;&gt;Publication(2)</title>
<path fill="none" stroke="blue" d="M987.95,-1168.47C1032.12,-1151.23 1112.26,-1119.94 1165.73,-1099.06"/>
<polygon fill="blue" stroke="blue" points="1167.02,-1102.31 1175.06,-1095.42 1164.47,-1095.79 1167.02,-1102.31"/>
<text text-anchor="middle" x="1091.76" y="-1143.8" font-family="Times,serif" font-size="14.00">pub_in</text>
</g>
<!-- CoExpCluster(23)&#45;&gt;CoExpStudy(25) -->
<g id="edge5" class="edge">
<title>CoExpCluster(23)&#45;&gt;CoExpStudy(25)</title>
<path fill="none" stroke="black" d="M361.99,-168.17C369.81,-167.42 377.66,-166.69 385.17,-166 441.67,-160.83 505.16,-155.43 555.11,-151.27"/>
<polygon fill="black" stroke="black" points="555.56,-154.75 565.24,-150.43 554.98,-147.77 555.56,-154.75"/>
<text text-anchor="middle" x="452.68" y="-168.8" font-family="Times,serif" font-size="14.00">part_of</text>
</g>
<!-- CoExpCluster(23)&#45;&gt;BioProc(4) -->
<g id="edge3" class="edge">
<title>CoExpCluster(23)&#45;&gt;BioProc(4)</title>
<path fill="none" stroke="black" d="M343.29,-161.81C356.87,-158.27 371.58,-154.46 385.17,-151 543.91,-110.58 589.97,-87.44 751.77,-113 928.86,-140.98 987.26,-140.52 1132.97,-245 1159.51,-264.03 1183.3,-292.76 1199.22,-314.54"/>
<polygon fill="black" stroke="black" points="1196.47,-316.71 1205.13,-322.81 1202.17,-312.64 1196.47,-316.71"/>
<text text-anchor="middle" x="814.48" y="-132.8" font-family="Times,serif" font-size="14.00">enriched_for</text>
</g>
<!-- CoExpCluster(23)&#45;&gt;PlantOntologyTerm(24) -->
<g id="edge4" class="edge">
<title>CoExpCluster(23)&#45;&gt;PlantOntologyTerm(24)</title>
<path fill="none" stroke="blue" d="M362.93,-181.16C410.05,-185.33 473.39,-190.92 528.01,-195.75"/>
<polygon fill="blue" stroke="blue" points="527.83,-199.25 538.1,-196.64 528.44,-192.28 527.83,-199.25"/>
<text text-anchor="middle" x="452.68" y="-197.8" font-family="Times,serif" font-size="14.00">enriched_for</text>
</g>
<!-- Reaction(18) -->
<g id="node21" class="node">
<title>Reaction(18)</title>
<ellipse fill="none" stroke="black" cx="1220.67" cy="-224" rx="56.04" ry="18"/>
<text text-anchor="middle" x="1220.67" y="-219.8" font-family="Times,serif" font-size="14.00">Reaction(18)</text>
</g>
<!-- Reaction(18)&#45;&gt;Path(19) -->
<g id="edge6" class="edge">
<title>Reaction(18)&#45;&gt;Path(19)</title>
<path fill="none" stroke="black" d="M1238.04,-206.78C1271.07,-172.04 1345.97,-93.25 1386.48,-50.64"/>
<polygon fill="black" stroke="black" points="1389.03,-53.03 1393.39,-43.37 1383.96,-48.21 1389.03,-53.03"/>
<text text-anchor="middle" x="1328.59" y="-132.8" font-family="Times,serif" font-size="14.00">part_of</text>
</g>
<!-- SNP(20)&#45;&gt;Trait(21) -->
<g id="edge8" class="edge">
<title>SNP(20)&#45;&gt;Trait(21)</title>
<path fill="none" stroke="blue" d="M673.07,-1197.33C697.86,-1209.21 735.74,-1226.6 769.77,-1239 880.26,-1279.27 916.59,-1289.57 1032.55,-1270 1083.29,-1261.44 1138.64,-1240.68 1175.88,-1224.91"/>
<polygon fill="blue" stroke="blue" points="1177.61,-1227.97 1185.41,-1220.81 1174.84,-1221.54 1177.61,-1227.97"/>
<text text-anchor="middle" x="954.87" y="-1281.8" font-family="Times,serif" font-size="14.00">associated_with</text>
</g>
<!-- SNP(20)&#45;&gt;SNPEffect(26) -->
<g id="edge9" class="edge">
<title>SNP(20)&#45;&gt;SNPEffect(26)</title>
<path fill="none" stroke="black" d="M683.43,-1190.69C731.4,-1199.26 815.72,-1214.32 877.49,-1225.35"/>
<polygon fill="black" stroke="black" points="877.12,-1228.85 887.58,-1227.16 878.35,-1221.95 877.12,-1228.85"/>
<text text-anchor="middle" x="814.48" y="-1223.8" font-family="Times,serif" font-size="14.00">leads_to</text>
</g>
<!-- SNP(20)&#45;&gt;Trait(211) -->
<g id="edge7" class="edge">
<title>SNP(20)&#45;&gt;Trait(211)</title>
<path fill="none" stroke="black" d="M686.23,-1183.61C740.55,-1183.08 837.53,-1182.13 898.63,-1181.54"/>
<polygon fill="black" stroke="black" points="898.9,-1185.04 908.86,-1181.44 898.83,-1178.04 898.9,-1185.04"/>
<text text-anchor="middle" x="814.48" y="-1184.8" font-family="Times,serif" font-size="14.00">associated_with</text>
</g>
<!-- Gene(9)&#45;&gt;Gene(8) -->
<g id="edge12" class="edge">
<title>Gene(9)&#45;&gt;Gene(8)</title>
<path fill="none" stroke="blue" d="M305.84,-764.72C322.63,-742.31 353.86,-702.59 385.17,-673 526.24,-539.66 586.81,-530.88 769.77,-466 809.02,-452.08 824.68,-461.32 859.19,-438 869.66,-430.93 866.85,-423.26 877.19,-416 887.01,-409.11 898.76,-403.82 910.08,-399.82"/>
<text text-anchor="middle" x="644.98" y="-571.8" font-family="Times,serif" font-size="14.00">genetic(&lt;=8)</text>
<text text-anchor="middle" x="644.98" y="-557.8" font-family="Times,serif" font-size="14.00">physical(&lt;=8)</text>
</g>
<!-- Gene(9)&#45;&gt;Trait(21) -->
<g id="edge10" class="edge">
<title>Gene(9)&#45;&gt;Trait(21)</title>
<path fill="none" stroke="blue" d="M299.48,-799.81C312.16,-834.3 343.24,-911.69 385.17,-967 434.03,-1031.45 466.26,-1028.73 520.2,-1089 529.33,-1099.2 526.2,-1107.4 538.2,-1114 654.21,-1177.8 1007.13,-1107.84 1132.97,-1149 1156.3,-1156.63 1179.49,-1172.13 1196.01,-1184.9"/>
<text text-anchor="middle" x="814.48" y="-1143.8" font-family="Times,serif" font-size="14.00">cooc_wi</text>
</g>
<!-- Gene(9)&#45;&gt;Publication(2) -->
<g id="edge20" class="edge">
<title>Gene(9)&#45;&gt;Publication(2)</title>
<path fill="none" stroke="blue" d="M299.39,-799.87C311.05,-830.82 339.33,-894.24 385.17,-927 506.25,-1013.54 956.58,-1057.57 1140.58,-1072.26"/>
<polygon fill="blue" stroke="blue" points="1140.48,-1075.76 1150.72,-1073.06 1141.03,-1068.78 1140.48,-1075.76"/>
<text text-anchor="middle" x="814.48" y="-1044.8" font-family="Times,serif" font-size="14.00">pub_in</text>
</g>
<!-- Gene(9)&#45;&gt;BioProc(4) -->
<g id="edge19" class="edge">
<title>Gene(9)&#45;&gt;BioProc(4)</title>
<path fill="none" stroke="black" d="M296.76,-764.12C305.49,-724 331.34,-625.48 385.17,-563 437.11,-502.7 466.63,-504.81 538.2,-470 637.06,-421.91 664.24,-413.85 769.77,-383 808.77,-371.6 819.98,-374.66 859.19,-364 867.33,-361.79 868.89,-359.51 877.19,-358 971.71,-340.81 1083.24,-340.14 1152.72,-341.98"/>
<polygon fill="black" stroke="black" points="1152.98,-345.49 1163.08,-342.28 1153.19,-338.49 1152.98,-345.49"/>
<text text-anchor="middle" x="814.48" y="-385.8" font-family="Times,serif" font-size="14.00">participates_in</text>
</g>
<!-- Gene(9)&#45;&gt;DGES(22) -->
<g id="edge13" class="edge">
<title>Gene(9)&#45;&gt;DGES(22)</title>
<path fill="none" stroke="black" d="M294.97,-764.02C302.07,-695.33 330.83,-450.77 385.17,-399 412.41,-373.05 511.56,-360.21 578.93,-354.36"/>
<polygon fill="black" stroke="black" points="579.36,-357.83 589.04,-353.51 578.78,-350.86 579.36,-357.83"/>
<text text-anchor="middle" x="452.68" y="-401.8" font-family="Times,serif" font-size="14.00">differentially_expressed</text>
</g>
<!-- Gene(9)&#45;&gt;CelComp(5) -->
<g id="edge18" class="edge">
<title>Gene(9)&#45;&gt;CelComp(5)</title>
<path fill="none" stroke="blue" d="M301.12,-799.72C314.19,-826.55 343.11,-876.51 385.17,-897 514.5,-960.01 898.18,-948.39 1032.55,-897 1102.44,-870.28 1164.24,-805.29 1196.34,-766.86"/>
<polygon fill="blue" stroke="blue" points="1199.08,-769.04 1202.73,-759.09 1193.67,-764.59 1199.08,-769.04"/>
<text text-anchor="middle" x="814.48" y="-939.8" font-family="Times,serif" font-size="14.00">located_in</text>
</g>
<!-- Gene(9)&#45;&gt;MolFunc(3) -->
<g id="edge15" class="edge">
<title>Gene(9)&#45;&gt;MolFunc(3)</title>
<path fill="none" stroke="black" d="M328.05,-789.36C345.2,-792.85 366.22,-796.92 385.17,-800 456.51,-811.61 978.89,-912.43 1032.55,-864 1061.58,-837.81 1026.19,-719.57 1050.55,-689 1074.66,-658.75 1096.44,-673.73 1132.97,-661 1143.82,-657.21 1155.42,-653.11 1166.49,-649.16"/>
<polygon fill="black" stroke="black" points="1167.81,-652.41 1176.05,-645.75 1165.46,-645.82 1167.81,-652.41"/>
<text text-anchor="middle" x="814.48" y="-873.8" font-family="Times,serif" font-size="14.00">has_function</text>
</g>
<!-- Gene(9)&#45;&gt;Phenotype(13) -->
<g id="edge16" class="edge">
<title>Gene(9)&#45;&gt;Phenotype(13)</title>
<path fill="none" stroke="blue" d="M331.42,-782C386.87,-782 490.97,-782 563.74,-782"/>
<polygon fill="blue" stroke="blue" points="563.79,-785.5 573.79,-782 563.79,-778.5 563.79,-785.5"/>
<text text-anchor="middle" x="452.68" y="-784.8" font-family="Times,serif" font-size="14.00">has_observ_pheno</text>
</g>
<!-- Gene(9)&#45;&gt;SNP(20) -->
<g id="edge17" class="edge">
<title>Gene(9)&#45;&gt;SNP(20)</title>
<path fill="none" stroke="black" d="M293.61,-800.28C295.7,-851.81 308.43,-1000.02 385.17,-1086 414.3,-1118.65 533.01,-1154.45 599.07,-1172.39"/>
<polygon fill="black" stroke="black" points="598.24,-1175.79 608.81,-1175.01 600.06,-1169.03 598.24,-1175.79"/>
<text text-anchor="middle" x="452.68" y="-1149.8" font-family="Times,serif" font-size="14.00">has_variation</text>
</g>
<!-- Gene(9)&#45;&gt;Gene(9) -->
<g id="edge11" class="edge">
<title>Gene(9)&#45;&gt;Gene(9)</title>
<path fill="none" stroke="black" d="M268.79,-796.79C261.16,-807.42 268.97,-818 292.21,-818 315.46,-818 323.26,-807.42 315.64,-796.79"/>
<text text-anchor="middle" x="292.21" y="-834.8" font-family="Times,serif" font-size="14.00">genetic(&lt;=8)</text>
<text text-anchor="middle" x="292.21" y="-820.8" font-family="Times,serif" font-size="14.00">physical(&lt;=8)</text>
</g>
<!-- Gene(9)&#45;&gt;Protein(10) -->
<g id="edge14" class="edge">
<title>Gene(9)&#45;&gt;Protein(10)</title>
<path fill="none" stroke="blue" d="M319.87,-769.16C381.3,-739.56 533.07,-666.44 604.99,-631.79"/>
<polygon fill="blue" stroke="blue" points="606.69,-634.85 614.18,-627.36 603.65,-628.55 606.69,-634.85"/>
<text text-anchor="middle" x="452.68" y="-738.8" font-family="Times,serif" font-size="14.00">enc</text>
</g>
<!-- Protein(10)&#45;&gt;Gene(8) -->
<g id="edge26" class="edge">
<title>Protein(10)&#45;&gt;Gene(8)</title>
<path fill="none" stroke="blue" d="M658.22,-595.25C678.24,-567.58 720.74,-514.39 769.77,-486 805.28,-465.43 827.54,-489.12 859.19,-463 873.6,-451.1 863.95,-438.19 877.19,-425 885,-417.21 894.83,-410.89 904.81,-405.86"/>
<polygon fill="blue" stroke="blue" points="906.38,-408.99 913.96,-401.59 903.42,-402.64 906.38,-408.99"/>
<text text-anchor="middle" x="814.48" y="-488.8" font-family="Times,serif" font-size="14.00">enc</text>
</g>
<!-- Protein(10)&#45;&gt;Trait(21) -->
<g id="edge21" class="edge">
<title>Protein(10)&#45;&gt;Trait(21)</title>
<path fill="none" stroke="black" d="M663.8,-629.77C688.24,-653.97 731.44,-701.26 751.77,-751 776.67,-811.93 727.64,-847.43 769.77,-898 796.42,-930 826.83,-899.78 859.19,-926 871.87,-936.27 865.97,-946.15 877.19,-958 969.85,-1055.9 1027.18,-1037.45 1132.97,-1121 1157.47,-1140.35 1182.82,-1165.64 1199.73,-1183.39"/>
<text text-anchor="middle" x="954.87" y="-1061.8" font-family="Times,serif" font-size="14.00">cooc_wi</text>
</g>
<!-- Protein(10)&#45;&gt;Publication(2) -->
<g id="edge34" class="edge">
<title>Protein(10)&#45;&gt;Publication(2)</title>
<path fill="none" stroke="blue" d="M663.17,-630.05C686.86,-654.57 729.18,-702.24 751.77,-751 767.63,-785.25 744.59,-805.88 769.77,-834 797.73,-865.23 820.53,-847.8 859.19,-864 985.05,-916.73 1019.69,-926.91 1132.97,-1003 1152.99,-1016.45 1173.48,-1033.97 1189.51,-1048.69"/>
<polygon fill="blue" stroke="blue" points="1187.3,-1051.41 1197,-1055.67 1192.07,-1046.29 1187.3,-1051.41"/>
<text text-anchor="middle" x="954.87" y="-942.8" font-family="Times,serif" font-size="14.00">pub_in</text>
</g>
<!-- Protein(10)&#45;&gt;BioProc(4) -->
<g id="edge33" class="edge">
<title>Protein(10)&#45;&gt;BioProc(4)</title>
<path fill="none" stroke="black" d="M665.84,-596.56C689.38,-577.77 730.38,-547.15 769.77,-528 807.22,-509.79 828.52,-528.17 859.19,-500 874.75,-485.71 861.1,-469.69 877.19,-456 931.17,-410.06 964.93,-441.25 1032.55,-420 1081.28,-404.69 1135.27,-382.46 1172.68,-366.17"/>
<polygon fill="black" stroke="black" points="1174.55,-369.18 1182.3,-361.96 1171.74,-362.77 1174.55,-369.18"/>
<text text-anchor="middle" x="954.87" y="-458.8" font-family="Times,serif" font-size="14.00">participates_in</text>
</g>
<!-- Protein(10)&#45;&gt;CelComp(5) -->
<g id="edge32" class="edge">
<title>Protein(10)&#45;&gt;CelComp(5)</title>
<path fill="none" stroke="blue" d="M676.52,-627.12C701.28,-638.19 737.27,-653.44 769.77,-664 891.05,-703.4 924.2,-705.79 1050.55,-723 1082.42,-727.34 1117.86,-730.52 1148.03,-732.75"/>
<polygon fill="blue" stroke="blue" points="1147.82,-736.24 1158.05,-733.47 1148.32,-729.26 1147.82,-736.24"/>
<text text-anchor="middle" x="954.87" y="-722.8" font-family="Times,serif" font-size="14.00">located_in</text>
</g>
<!-- Protein(10)&#45;&gt;Protein(7) -->
<g id="edge22" class="edge">
<title>Protein(10)&#45;&gt;Protein(7)</title>
<path fill="none" stroke="blue" d="M665.14,-596.46C689.88,-573.84 732.09,-530.71 751.77,-484 779.9,-417.24 728.84,-381.77 769.77,-322 800.19,-277.58 828.3,-288.56 877.19,-266 889.05,-260.52 902.17,-255.02 914.15,-250.21"/>
<text text-anchor="middle" x="814.48" y="-352.8" font-family="Times,serif" font-size="14.00">h_s_s(&lt;=4)</text>
<text text-anchor="middle" x="814.48" y="-338.8" font-family="Times,serif" font-size="14.00">ortho(&lt;=4)</text>
<text text-anchor="middle" x="814.48" y="-324.8" font-family="Times,serif" font-size="14.00">xref(&lt;=4)</text>
</g>
<!-- Protein(10)&#45;&gt;MolFunc(3) -->
<g id="edge29" class="edge">
<title>Protein(10)&#45;&gt;MolFunc(3)</title>
<path fill="none" stroke="black" d="M695.42,-613.84C768.94,-615.17 911.45,-618 1032.55,-622 1071.15,-623.27 1114.21,-625.09 1149.29,-626.67"/>
<polygon fill="black" stroke="black" points="1149.28,-630.17 1159.43,-627.13 1149.6,-623.18 1149.28,-630.17"/>
<text text-anchor="middle" x="954.87" y="-624.8" font-family="Times,serif" font-size="14.00">has_function</text>
</g>
<!-- Protein(10)&#45;&gt;EC(15) -->
<g id="edge25" class="edge">
<title>Protein(10)&#45;&gt;EC(15)</title>
<path fill="none" stroke="black" d="M687.11,-603.04C711.14,-597.38 742.08,-590.38 769.77,-585 814.08,-576.39 864.72,-568.26 901.66,-562.64"/>
<polygon fill="black" stroke="black" points="902.33,-566.08 911.7,-561.12 901.29,-559.16 902.33,-566.08"/>
<text text-anchor="middle" x="814.48" y="-587.8" font-family="Times,serif" font-size="14.00">cat_c</text>
</g>
<!-- Protein(10)&#45;&gt;ProtDomain(14) -->
<g id="edge27" class="edge">
<title>Protein(10)&#45;&gt;ProtDomain(14)</title>
<path fill="none" stroke="black" d="M660.06,-630.58C680.7,-656.54 720.15,-706.81 751.77,-751 760.16,-762.73 758.17,-769.43 769.77,-778 797.97,-798.85 834.05,-811.84 866.79,-819.93"/>
<polygon fill="black" stroke="black" points="866.3,-823.41 876.83,-822.28 867.89,-816.59 866.3,-823.41"/>
<text text-anchor="middle" x="814.48" y="-818.8" font-family="Times,serif" font-size="14.00">has_domain</text>
</g>
<!-- Protein(10)&#45;&gt;Enzyme(177) -->
<g id="edge30" class="edge">
<title>Protein(10)&#45;&gt;Enzyme(177)</title>
<path fill="none" stroke="blue" d="M659.07,-630.53C679.6,-656.72 722.03,-705.68 769.77,-731 802.9,-748.58 843.3,-758.43 877.8,-763.96"/>
<polygon fill="blue" stroke="blue" points="877.42,-767.44 887.83,-765.47 878.46,-760.52 877.42,-767.44"/>
<text text-anchor="middle" x="814.48" y="-762.8" font-family="Times,serif" font-size="14.00">is_a</text>
</g>
<!-- Protein(10)&#45;&gt;Protein(10) -->
<g id="edge23" class="edge">
<title>Protein(10)&#45;&gt;Protein(10)</title>
<path fill="none" stroke="black" d="M616.56,-628.17C607.94,-638.66 617.42,-649 644.98,-649 672.54,-649 682.02,-638.66 673.41,-628.17"/>
<text text-anchor="middle" x="644.98" y="-679.8" font-family="Times,serif" font-size="14.00">h_s_s(&lt;=4)</text>
<text text-anchor="middle" x="644.98" y="-665.8" font-family="Times,serif" font-size="14.00">ortho(&lt;=4)</text>
<text text-anchor="middle" x="644.98" y="-651.8" font-family="Times,serif" font-size="14.00">xref(&lt;=4)</text>
</g>
<!-- EC(12) -->
<g id="node25" class="node">
<title>EC(12)</title>
<ellipse fill="none" stroke="black" cx="954.87" cy="-497" rx="36.28" ry="18"/>
<text text-anchor="middle" x="954.87" y="-492.8" font-family="Times,serif" font-size="14.00">EC(12)</text>
</g>
<!-- Protein(10)&#45;&gt;EC(12) -->
<g id="edge24" class="edge">
<title>Protein(10)&#45;&gt;EC(12)</title>
<path fill="none" stroke="blue" d="M672.86,-597.75C697.51,-584.2 735.31,-564.51 769.77,-551 808.3,-535.89 819.47,-536.65 859.19,-525 876.9,-519.81 896.46,-514.03 913.18,-509.08"/>
<polygon fill="blue" stroke="blue" points="914.59,-512.31 923.18,-506.11 912.6,-505.6 914.59,-512.31"/>
<text text-anchor="middle" x="814.48" y="-553.8" font-family="Times,serif" font-size="14.00">cat_c</text>
</g>
<!-- ProtDomain(11) -->
<g id="node26" class="node">
<title>ProtDomain(11)</title>
<ellipse fill="none" stroke="black" cx="954.87" cy="-663" rx="68" ry="18"/>
<text text-anchor="middle" x="954.87" y="-658.8" font-family="Times,serif" font-size="14.00">ProtDomain(11)</text>
</g>
<!-- Protein(10)&#45;&gt;ProtDomain(11) -->
<g id="edge28" class="edge">
<title>Protein(10)&#45;&gt;ProtDomain(11)</title>
<path fill="none" stroke="blue" d="M691.08,-620.32C742.55,-628.68 827.27,-642.44 886.56,-652.07"/>
<polygon fill="blue" stroke="blue" points="886.15,-655.55 896.58,-653.7 887.27,-648.64 886.15,-655.55"/>
<text text-anchor="middle" x="814.48" y="-648.8" font-family="Times,serif" font-size="14.00">has_domain</text>
</g>
<!-- Enzyme(17) -->
<g id="node27" class="node">
<title>Enzyme(17)</title>
<ellipse fill="none" stroke="black" cx="954.87" cy="-293" rx="53.63" ry="18"/>
<text text-anchor="middle" x="954.87" y="-288.8" font-family="Times,serif" font-size="14.00">Enzyme(17)</text>
</g>
<!-- Protein(10)&#45;&gt;Enzyme(17) -->
<g id="edge31" class="edge">
<title>Protein(10)&#45;&gt;Enzyme(17)</title>
<path fill="none" stroke="black" d="M662.59,-595.74C684.85,-571.97 724.71,-527.2 751.77,-484 761.9,-467.82 756.44,-458.67 769.77,-445 800.7,-413.29 828.84,-433.26 859.19,-401 873.39,-385.91 864.95,-374.72 877.19,-358 889.28,-341.49 906.39,-326.46 921.38,-315.03"/>
<polygon fill="black" stroke="black" points="923.49,-317.82 929.44,-309.06 919.32,-312.19 923.49,-317.82"/>
<text text-anchor="middle" x="814.48" y="-447.8" font-family="Times,serif" font-size="14.00">is_a</text>
</g>
<!-- EC(12)&#45;&gt;MolFunc(3) -->
<g id="edge35" class="edge">
<title>EC(12)&#45;&gt;MolFunc(3)</title>
<path fill="none" stroke="blue" d="M986.22,-506.31C1000.51,-511.04 1017.65,-517.22 1032.55,-524 1089.65,-549.98 1152.39,-587.51 1188.78,-610.24"/>
<text text-anchor="middle" x="1091.76" y="-577.8" font-family="Times,serif" font-size="14.00">equ</text>
</g>
<!-- ProtDomain(11)&#45;&gt;BioProc(4) -->
<g id="edge38" class="edge">
<title>ProtDomain(11)&#45;&gt;BioProc(4)</title>
<path fill="none" stroke="blue" d="M1005.47,-650.95C1015.78,-646.29 1025.61,-639.86 1032.55,-631 1064.73,-589.93 1022.29,-558.86 1050.55,-515 1074.27,-478.19 1101.06,-490.99 1132.97,-461 1160.05,-435.54 1184.77,-400.8 1200.82,-375.99"/>
<polygon fill="blue" stroke="blue" points="1203.91,-377.65 1206.33,-367.33 1198.01,-373.89 1203.91,-377.65"/>
<text text-anchor="middle" x="1091.76" y="-517.8" font-family="Times,serif" font-size="14.00">participates_in</text>
</g>
<!-- ProtDomain(11)&#45;&gt;CelComp(5) -->
<g id="edge37" class="edge">
<title>ProtDomain(11)&#45;&gt;CelComp(5)</title>
<path fill="none" stroke="black" d="M1005.32,-675.02C1040.95,-683.89 1090.11,-696.53 1132.97,-709 1143.09,-711.95 1153.83,-715.26 1164.17,-718.55"/>
<polygon fill="black" stroke="black" points="1163.33,-721.96 1173.93,-721.68 1165.47,-715.29 1163.33,-721.96"/>
<text text-anchor="middle" x="1091.76" y="-711.8" font-family="Times,serif" font-size="14.00">located_in</text>
</g>
<!-- ProtDomain(11)&#45;&gt;MolFunc(3) -->
<g id="edge36" class="edge">
<title>ProtDomain(11)&#45;&gt;MolFunc(3)</title>
<path fill="none" stroke="blue" d="M1011.35,-652.98C1024.2,-650.84 1037.83,-648.71 1050.55,-647 1082.87,-642.65 1118.8,-638.89 1149.2,-636.02"/>
<polygon fill="blue" stroke="blue" points="1149.65,-639.49 1159.29,-635.08 1149,-632.52 1149.65,-639.49"/>
<text text-anchor="middle" x="1091.76" y="-649.8" font-family="Times,serif" font-size="14.00">has_function</text>
</g>
<!-- Enzyme(17)&#45;&gt;Reaction(188) -->
<g id="edge39" class="edge">
<title>Enzyme(17)&#45;&gt;Reaction(188)</title>
<path fill="none" stroke="blue" d="M1000.7,-283.51C1012.02,-279.51 1023.51,-273.88 1032.55,-266 1045.74,-254.5 1040.05,-244.99 1050.55,-231 1089.7,-178.87 1146.65,-128.91 1183.43,-99.08"/>
<polygon fill="blue" stroke="blue" points="1185.81,-101.66 1191.42,-92.67 1181.43,-96.2 1185.81,-101.66"/>
<text text-anchor="middle" x="1091.76" y="-233.8" font-family="Times,serif" font-size="14.00">ca_by</text>
</g>
<!-- Enzyme(17)&#45;&gt;Reaction(18) -->
<g id="edge40" class="edge">
<title>Enzyme(17)&#45;&gt;Reaction(18)</title>
<path fill="none" stroke="black" d="M997.67,-282.07C1043.34,-270.12 1116.61,-250.96 1166.38,-237.94"/>
<polygon fill="black" stroke="black" points="1167.52,-241.26 1176.31,-235.34 1165.75,-234.49 1167.52,-241.26"/>
<text text-anchor="middle" x="1091.76" y="-269.8" font-family="Times,serif" font-size="14.00">ca_by</text>
</g>
</g>
</svg>
