<svg width="2217px" height="1468px"
 viewBox="0.00 0.00 1663.10 1101.00" xmlns="http://www.w3.org/2000/svg" xmlns:xlink="http://www.w3.org/1999/xlink">
<g id="graph0" class="graph" transform=" rotate(0) translate(4 1097)">
<title>%3</title>
<polygon fill="white" stroke="transparent" points="-4,4 -4,-1097 1659.1,-1097 1659.1,4 -4,4"/>
<!-- Publication(2) -->
<g id="node1" class="node">
<title>Publication(2)</title>
<polygon fill="none" stroke="darkgreen" points="1213.28,-974.54 1213.28,-989.46 1174.68,-1000 1120.09,-1000 1081.49,-989.46 1081.49,-974.54 1120.09,-964 1174.68,-964 1213.28,-974.54"/>
<polygon fill="none" stroke="darkgreen" points="1217.29,-971.49 1217.29,-992.51 1175.22,-1004 1119.55,-1004 1077.48,-992.51 1077.48,-971.49 1119.55,-960 1175.22,-960 1217.29,-971.49"/>
<text text-anchor="middle" x="1147.38" y="-977.8" font-family="Times,serif" font-size="14.00">Publication(2)</text>
</g>
<!-- Trait(21) -->
<g id="node2" class="node">
<title>Trait(21)</title>
<polygon fill="none" stroke="darkgreen" points="1192.69,-887.54 1192.69,-902.46 1166.15,-913 1128.62,-913 1102.08,-902.46 1102.08,-887.54 1128.62,-877 1166.15,-877 1192.69,-887.54"/>
<polygon fill="none" stroke="darkgreen" points="1196.7,-884.83 1196.7,-905.17 1166.92,-917 1127.85,-917 1098.07,-905.17 1098.07,-884.83 1127.85,-873 1166.92,-873 1196.7,-884.83"/>
<text text-anchor="middle" x="1147.38" y="-890.8" font-family="Times,serif" font-size="14.00">Trait(21)</text>
</g>
<!-- Gene(8) -->
<g id="node3" class="node">
<title>Gene(8)</title>
<polygon fill="none" stroke="darkgreen" points="674.63,-527.54 674.63,-542.46 649.96,-553 615.08,-553 590.41,-542.46 590.41,-527.54 615.08,-517 649.96,-517 674.63,-527.54"/>
<polygon fill="none" stroke="darkgreen" points="678.61,-524.9 678.61,-545.1 650.78,-557 614.26,-557 586.43,-545.1 586.43,-524.9 614.26,-513 650.78,-513 678.61,-524.9"/>
<text text-anchor="middle" x="632.52" y="-530.8" font-family="Times,serif" font-size="14.00">Gene(8)</text>
</g>
<!-- Protein(10) -->
<g id="node20" class="node">
<title>Protein(10)</title>
<ellipse fill="none" stroke="black" cx="894.39" cy="-535" rx="50.27" ry="18"/>
<text text-anchor="middle" x="894.39" y="-530.8" font-family="Times,serif" font-size="14.00">Protein(10)</text>
</g>
<!-- Gene(8)&#45;&gt;Protein(10) -->
<g id="edge12" class="edge">
<title>Gene(8)&#45;&gt;Protein(10)</title>
<path fill="none" stroke="black" d="M678.79,-535C721.73,-535 786.54,-535 833.69,-535"/>
<polygon fill="black" stroke="black" points="833.77,-538.5 843.77,-535 833.77,-531.5 833.77,-538.5"/>
<text text-anchor="middle" x="781.02" y="-537.8" font-family="Times,serif" font-size="14.00">enc</text>
</g>
<!-- Protein(7) -->
<g id="node4" class="node">
<title>Protein(7)</title>
<polygon fill="none" stroke="darkgreen" points="1196.91,-214.54 1196.91,-229.46 1167.9,-240 1126.87,-240 1097.86,-229.46 1097.86,-214.54 1126.87,-204 1167.9,-204 1196.91,-214.54"/>
<polygon fill="none" stroke="darkgreen" points="1200.89,-211.74 1200.89,-232.26 1168.6,-244 1126.17,-244 1093.88,-232.26 1093.88,-211.74 1126.17,-200 1168.6,-200 1200.89,-211.74"/>
<text text-anchor="middle" x="1147.38" y="-217.8" font-family="Times,serif" font-size="14.00">Protein(7)</text>
</g>
<!-- MolFunc(3) -->
<g id="node5" class="node">
<title>MolFunc(3)</title>
<polygon fill="none" stroke="darkgreen" points="1470.56,-708.54 1470.56,-723.46 1436.95,-734 1389.4,-734 1355.78,-723.46 1355.78,-708.54 1389.4,-698 1436.95,-698 1470.56,-708.54"/>
<polygon fill="none" stroke="darkgreen" points="1474.58,-705.61 1474.58,-726.39 1437.56,-738 1388.79,-738 1351.77,-726.39 1351.77,-705.61 1388.79,-694 1437.56,-694 1474.58,-705.61"/>
<text text-anchor="middle" x="1413.17" y="-711.8" font-family="Times,serif" font-size="14.00">MolFunc(3)</text>
</g>
<!-- EC(15) -->
<g id="node6" class="node">
<title>EC(15)</title>
<polygon fill="none" stroke="darkgreen" points="1186.61,-450.54 1186.61,-465.46 1163.63,-476 1131.14,-476 1108.16,-465.46 1108.16,-450.54 1131.14,-440 1163.63,-440 1186.61,-450.54"/>
<polygon fill="none" stroke="darkgreen" points="1190.62,-447.98 1190.62,-468.02 1164.51,-480 1130.26,-480 1104.15,-468.02 1104.15,-447.98 1130.26,-436 1164.51,-436 1190.62,-447.98"/>
<text text-anchor="middle" x="1147.38" y="-453.8" font-family="Times,serif" font-size="14.00">EC(15)</text>
</g>
<!-- CelComp(5) -->
<g id="node7" class="node">
<title>CelComp(5)</title>
<polygon fill="none" stroke="darkgreen" points="1471.78,-595.54 1471.78,-610.46 1437.45,-621 1388.9,-621 1354.57,-610.46 1354.57,-595.54 1388.9,-585 1437.45,-585 1471.78,-595.54"/>
<polygon fill="none" stroke="darkgreen" points="1475.77,-592.59 1475.77,-613.41 1438.05,-625 1388.3,-625 1350.58,-613.41 1350.58,-592.59 1388.3,-581 1438.05,-581 1475.77,-592.59"/>
<text text-anchor="middle" x="1413.17" y="-598.8" font-family="Times,serif" font-size="14.00">CelComp(5)</text>
</g>
<!-- BioProc(4) -->
<g id="node8" class="node">
<title>BioProc(4)</title>
<polygon fill="none" stroke="darkgreen" points="1466.63,-218.54 1466.63,-233.46 1435.32,-244 1391.03,-244 1359.72,-233.46 1359.72,-218.54 1391.03,-208 1435.32,-208 1466.63,-218.54"/>
<polygon fill="none" stroke="darkgreen" points="1470.63,-215.67 1470.63,-236.33 1435.97,-248 1390.38,-248 1355.72,-236.33 1355.72,-215.67 1390.38,-204 1435.97,-204 1470.63,-215.67"/>
<text text-anchor="middle" x="1413.17" y="-221.8" font-family="Times,serif" font-size="14.00">BioProc(4)</text>
</g>
<!-- ProtDomain(14) -->
<g id="node9" class="node">
<title>ProtDomain(14)</title>
<polygon fill="none" stroke="darkgreen" points="1221.24,-388.54 1221.24,-403.46 1177.98,-414 1116.79,-414 1073.53,-403.46 1073.53,-388.54 1116.79,-378 1177.98,-378 1221.24,-388.54"/>
<polygon fill="none" stroke="darkgreen" points="1225.25,-385.4 1225.25,-406.6 1178.46,-418 1116.31,-418 1069.52,-406.6 1069.52,-385.4 1116.31,-374 1178.46,-374 1225.25,-385.4"/>
<text text-anchor="middle" x="1147.38" y="-391.8" font-family="Times,serif" font-size="14.00">ProtDomain(14)</text>
</g>
<!-- Enzyme(177) -->
<g id="node10" class="node">
<title>Enzyme(177)</title>
<polygon fill="none" stroke="darkgreen" points="1210.45,-326.54 1210.45,-341.46 1173.51,-352 1121.26,-352 1084.32,-341.46 1084.32,-326.54 1121.26,-316 1173.51,-316 1210.45,-326.54"/>
<polygon fill="none" stroke="darkgreen" points="1214.45,-323.53 1214.45,-344.47 1174.07,-356 1120.7,-356 1080.32,-344.47 1080.32,-323.53 1120.7,-312 1174.07,-312 1214.45,-323.53"/>
<text text-anchor="middle" x="1147.38" y="-329.8" font-family="Times,serif" font-size="14.00">Enzyme(177)</text>
</g>
<!-- Path(19) -->
<g id="node11" class="node">
<title>Path(19)</title>
<polygon fill="none" stroke="darkgreen" points="1651.02,-507.54 1651.02,-522.46 1625.35,-533 1589.05,-533 1563.38,-522.46 1563.38,-507.54 1589.05,-497 1625.35,-497 1651.02,-507.54"/>
<polygon fill="none" stroke="darkgreen" points="1655.01,-504.86 1655.01,-525.14 1626.14,-537 1588.26,-537 1559.39,-525.14 1559.39,-504.86 1588.26,-493 1626.14,-493 1655.01,-504.86"/>
<text text-anchor="middle" x="1607.2" y="-510.8" font-family="Times,serif" font-size="14.00">Path(19)</text>
</g>
<!-- Reaction(188) -->
<g id="node12" class="node">
<title>Reaction(188)</title>
<polygon fill="none" stroke="darkgreen" points="1479.05,-449.54 1479.05,-464.46 1440.46,-475 1385.89,-475 1347.3,-464.46 1347.3,-449.54 1385.89,-439 1440.46,-439 1479.05,-449.54"/>
<polygon fill="none" stroke="darkgreen" points="1483.06,-446.49 1483.06,-467.51 1441,-479 1385.35,-479 1343.29,-467.51 1343.29,-446.49 1385.35,-435 1441,-435 1483.06,-446.49"/>
<text text-anchor="middle" x="1413.17" y="-452.8" font-family="Times,serif" font-size="14.00">Reaction(188)</text>
</g>
<!-- DGES(22) -->
<g id="node13" class="node">
<title>DGES(22)</title>
<polygon fill="none" stroke="darkgreen" points="684.29,-963.54 684.29,-978.46 653.97,-989 611.07,-989 580.75,-978.46 580.75,-963.54 611.07,-953 653.97,-953 684.29,-963.54"/>
<polygon fill="none" stroke="darkgreen" points="688.29,-960.7 688.29,-981.3 654.64,-993 610.4,-993 576.75,-981.3 576.75,-960.7 610.4,-949 654.64,-949 688.29,-960.7"/>
<text text-anchor="middle" x="632.52" y="-966.8" font-family="Times,serif" font-size="14.00">DGES(22)</text>
</g>
<!-- Phenotype(13) -->
<g id="node14" class="node">
<title>Phenotype(13)</title>
<polygon fill="none" stroke="darkgreen" points="699.63,-682.54 699.63,-697.46 660.32,-708 604.72,-708 565.41,-697.46 565.41,-682.54 604.72,-672 660.32,-672 699.63,-682.54"/>
<polygon fill="none" stroke="darkgreen" points="703.61,-679.47 703.61,-700.53 660.84,-712 604.2,-712 561.43,-700.53 561.43,-679.47 604.2,-668 660.84,-668 703.61,-679.47"/>
<text text-anchor="middle" x="632.52" y="-685.8" font-family="Times,serif" font-size="14.00">Phenotype(13)</text>
</g>
<!-- SNPEffect(26) -->
<g id="node15" class="node">
<title>SNPEffect(26)</title>
<polygon fill="none" stroke="darkgreen" points="962.2,-874.54 962.2,-889.46 922.48,-900 866.3,-900 826.58,-889.46 826.58,-874.54 866.3,-864 922.48,-864 962.2,-874.54"/>
<polygon fill="none" stroke="darkgreen" points="966.21,-871.47 966.21,-892.53 923,-904 865.78,-904 822.58,-892.53 822.58,-871.47 865.78,-860 923,-860 966.21,-871.47"/>
<text text-anchor="middle" x="894.39" y="-877.8" font-family="Times,serif" font-size="14.00">SNPEffect(26)</text>
</g>
<!-- PlantOntologyTerm(24) -->
<g id="node16" class="node">
<title>PlantOntologyTerm(24)</title>
<polygon fill="none" stroke="darkgreen" points="735.1,-76.54 735.1,-91.46 675.01,-102 590.03,-102 529.94,-91.46 529.94,-76.54 590.03,-66 675.01,-66 735.1,-76.54"/>
<polygon fill="none" stroke="darkgreen" points="739.09,-73.18 739.09,-94.82 675.36,-106 589.68,-106 525.95,-94.82 525.95,-73.18 589.68,-62 675.36,-62 739.09,-73.18"/>
<text text-anchor="middle" x="632.52" y="-79.8" font-family="Times,serif" font-size="14.00">PlantOntologyTerm(24)</text>
</g>
<!-- CoExpStudy(25) -->
<g id="node17" class="node">
<title>CoExpStudy(25)</title>
<polygon fill="none" stroke="darkgreen" points="708.16,-14.54 708.16,-29.46 663.85,-40 601.19,-40 556.88,-29.46 556.88,-14.54 601.19,-4 663.85,-4 708.16,-14.54"/>
<polygon fill="none" stroke="darkgreen" points="712.16,-11.38 712.16,-32.62 664.32,-44 600.72,-44 552.88,-32.62 552.88,-11.38 600.72,0 664.32,0 712.16,-11.38"/>
<text text-anchor="middle" x="632.52" y="-17.8" font-family="Times,serif" font-size="14.00">CoExpStudy(25)</text>
</g>
<!-- Gene(1) -->
<g id="node18" class="node">
<title>Gene(1)</title>
<ellipse fill="none" stroke="red" cx="43.08" cy="-703" rx="39.15" ry="39.15"/>
<ellipse fill="none" stroke="red" cx="43.08" cy="-703" rx="43.15" ry="43.15"/>
<text text-anchor="middle" x="43.08" y="-698.8" font-family="Times,serif" font-size="14.00">Gene(1)</text>
</g>
<!-- Gene(1)&#45;&gt;Publication(2) -->
<g id="edge45" class="edge">
<title>Gene(1)&#45;&gt;Publication(2)</title>
<path fill="none" stroke="black" d="M43.33,-746.18C44.44,-804.03 54.04,-907.47 104.15,-977 156.7,-1049.91 188.88,-1079 278.75,-1079 278.75,-1079 278.75,-1079 895.39,-1079 974.17,-1079 1058.07,-1036.91 1106.16,-1008.18"/>
<polygon fill="black" stroke="black" points="1108.28,-1010.99 1115,-1002.81 1104.64,-1005.01 1108.28,-1010.99"/>
<text text-anchor="middle" x="632.52" y="-1081.8" font-family="Times,serif" font-size="14.00">occ_in</text>
</g>
<!-- Gene(1)&#45;&gt;Trait(21) -->
<g id="edge38" class="edge">
<title>Gene(1)&#45;&gt;Trait(21)</title>
<path fill="none" stroke="black" d="M48.46,-746.08C54.79,-791.85 69.75,-864.79 104.15,-918 154.08,-995.22 186.8,-1029 278.75,-1029 278.75,-1029 278.75,-1029 895.39,-1029 943.68,-1029 1064.59,-950.85 1119.05,-913.91"/>
<text text-anchor="middle" x="632.52" y="-1031.8" font-family="Times,serif" font-size="14.00">cooc_wi</text>
</g>
<!-- Gene(1)&#45;&gt;Gene(8) -->
<g id="edge39" class="edge">
<title>Gene(1)&#45;&gt;Gene(8)</title>
<path fill="none" stroke="blue" d="M49.18,-660.29C55.75,-624.52 70.63,-574.83 104.15,-546 175.5,-484.65 472.13,-514.71 586.38,-528.95"/>
<text text-anchor="middle" x="279.75" y="-516.8" font-family="Times,serif" font-size="14.00">homoeolog</text>
</g>
<!-- Gene(1)&#45;&gt;Gene(8) -->
<g id="edge48" class="edge">
<title>Gene(1)&#45;&gt;Gene(8)</title>
<path fill="none" stroke="blue" d="M80.28,-680.3C139.03,-644.81 259.96,-577.32 372.7,-549 441.24,-531.78 523.08,-530.42 576.11,-531.94"/>
<polygon fill="blue" stroke="blue" points="576.21,-535.44 586.32,-532.28 576.44,-528.45 576.21,-535.44"/>
<text text-anchor="middle" x="279.75" y="-613.8" font-family="Times,serif" font-size="14.00">regulates(&lt;=2)</text>
</g>
<!-- Gene(1)&#45;&gt;Protein(7) -->
<g id="edge43" class="edge">
<title>Gene(1)&#45;&gt;Protein(7)</title>
<path fill="none" stroke="black" d="M44.39,-659.86C47.76,-537.49 75.4,-197 278.75,-197 278.75,-197 278.75,-197 895.39,-197 959.71,-197 1032.85,-205.23 1083.51,-212.25"/>
<polygon fill="black" stroke="black" points="1083.26,-215.75 1093.65,-213.68 1084.24,-208.81 1083.26,-215.75"/>
<text text-anchor="middle" x="632.52" y="-199.8" font-family="Times,serif" font-size="14.00">enc</text>
</g>
<!-- Gene(1)&#45;&gt;DGES(22) -->
<g id="edge41" class="edge">
<title>Gene(1)&#45;&gt;DGES(22)</title>
<path fill="none" stroke="black" d="M55.56,-744.36C74.92,-805.06 120.46,-916.04 204.8,-962 265.25,-994.94 462.76,-984.8 566.51,-976.77"/>
<polygon fill="black" stroke="black" points="566.86,-980.25 576.56,-975.98 566.31,-973.27 566.86,-980.25"/>
<text text-anchor="middle" x="279.75" y="-986.8" font-family="Times,serif" font-size="14.00">differentially_expressed</text>
</g>
<!-- Gene(9) -->
<g id="node19" class="node">
<title>Gene(9)</title>
<ellipse fill="none" stroke="black" cx="279.75" cy="-740" rx="39.15" ry="18"/>
<text text-anchor="middle" x="279.75" y="-735.8" font-family="Times,serif" font-size="14.00">Gene(9)</text>
</g>
<!-- Gene(1)&#45;&gt;Gene(9) -->
<g id="edge40" class="edge">
<title>Gene(1)&#45;&gt;Gene(9)</title>
<path fill="none" stroke="black" d="M86,-699.31C114.65,-697.75 153.34,-697.56 186.8,-704 209.86,-708.44 234.58,-718.44 252.57,-726.77"/>
<text text-anchor="middle" x="145.48" y="-706.8" font-family="Times,serif" font-size="14.00">homoeolog</text>
</g>
<!-- Gene(1)&#45;&gt;Gene(9) -->
<g id="edge47" class="edge">
<title>Gene(1)&#45;&gt;Gene(9)</title>
<path fill="none" stroke="black" d="M84.98,-713.9C91.37,-715.41 97.92,-716.83 104.15,-718 146.79,-725.98 195.84,-731.88 231.08,-735.54"/>
<polygon fill="black" stroke="black" points="230.78,-739.03 241.09,-736.57 231.49,-732.07 230.78,-739.03"/>
<text text-anchor="middle" x="145.48" y="-732.8" font-family="Times,serif" font-size="14.00">regulates(&lt;=2)</text>
</g>
<!-- Gene(1)&#45;&gt;Protein(10) -->
<g id="edge42" class="edge">
<title>Gene(1)&#45;&gt;Protein(10)</title>
<path fill="none" stroke="blue" d="M44.63,-659.89C47.73,-615.53 60.02,-548.1 104.15,-513 331.82,-331.92 724.4,-466.18 852.02,-517.4"/>
<polygon fill="blue" stroke="blue" points="850.86,-520.71 861.44,-521.23 853.49,-514.22 850.86,-520.71"/>
<text text-anchor="middle" x="440.22" y="-429.8" font-family="Times,serif" font-size="14.00">enc</text>
</g>
<!-- SNP(20) -->
<g id="node21" class="node">
<title>SNP(20)</title>
<ellipse fill="none" stroke="black" cx="632.52" cy="-875" rx="41.13" ry="18"/>
<text text-anchor="middle" x="632.52" y="-870.8" font-family="Times,serif" font-size="14.00">SNP(20)</text>
</g>
<!-- Gene(1)&#45;&gt;SNP(20) -->
<g id="edge44" class="edge">
<title>Gene(1)&#45;&gt;SNP(20)</title>
<path fill="none" stroke="blue" d="M73.41,-734.3C126.76,-788.65 245.91,-898.51 372.7,-939 429.87,-957.26 449.42,-953.18 507.73,-939 541.92,-930.69 577.21,-911.17 601.32,-895.85"/>
<polygon fill="blue" stroke="blue" points="603.51,-898.61 609.99,-890.22 599.69,-892.74 603.51,-898.61"/>
<text text-anchor="middle" x="279.75" y="-946.8" font-family="Times,serif" font-size="14.00">has_mutant</text>
<text text-anchor="middle" x="279.75" y="-932.8" font-family="Times,serif" font-size="14.00">has_variation</text>
</g>
<!-- CoExpCluster(23) -->
<g id="node26" class="node">
<title>CoExpCluster(23)</title>
<ellipse fill="none" stroke="black" cx="279.75" cy="-109" rx="74.9" ry="18"/>
<text text-anchor="middle" x="279.75" y="-104.8" font-family="Times,serif" font-size="14.00">CoExpCluster(23)</text>
</g>
<!-- Gene(1)&#45;&gt;CoExpCluster(23) -->
<g id="edge46" class="edge">
<title>Gene(1)&#45;&gt;CoExpCluster(23)</title>
<path fill="none" stroke="blue" d="M46.3,-659.89C52.86,-539.68 73.62,-207.07 104.15,-169 127.24,-140.21 164.88,-125.18 199.31,-117.36"/>
<polygon fill="blue" stroke="blue" points="200.32,-120.72 209.39,-115.24 198.89,-113.87 200.32,-120.72"/>
<text text-anchor="middle" x="145.48" y="-171.8" font-family="Times,serif" font-size="14.00">part_of</text>
</g>
<!-- Gene(9)&#45;&gt;Publication(2) -->
<g id="edge11" class="edge">
<title>Gene(9)&#45;&gt;Publication(2)</title>
<path fill="none" stroke="blue" d="M293.6,-757.1C308.81,-777.58 334.59,-813.13 354.7,-845 363.41,-858.8 359.33,-867.65 372.7,-877 401.05,-896.82 875.96,-951.78 1067.37,-973.25"/>
<polygon fill="blue" stroke="blue" points="1067.04,-976.73 1077.37,-974.37 1067.82,-969.77 1067.04,-976.73"/>
<text text-anchor="middle" x="781.02" y="-944.8" font-family="Times,serif" font-size="14.00">pub_in</text>
</g>
<!-- Gene(9)&#45;&gt;Trait(21) -->
<g id="edge1" class="edge">
<title>Gene(9)&#45;&gt;Trait(21)</title>
<path fill="none" stroke="black" d="M297.81,-756.12C315.17,-771.42 343.59,-793.58 372.7,-804 621.78,-893.1 704.86,-809.07 966.05,-851 1013.78,-858.66 1067.49,-872.45 1103.78,-882.56"/>
<text text-anchor="middle" x="781.02" y="-841.8" font-family="Times,serif" font-size="14.00">cooc_wi</text>
</g>
<!-- Gene(9)&#45;&gt;Gene(8) -->
<g id="edge2" class="edge">
<title>Gene(9)&#45;&gt;Gene(8)</title>
<path fill="none" stroke="blue" d="M284.64,-722.13C293.44,-686.42 318.47,-606.43 372.7,-569 389.91,-557.13 516.75,-544.71 586.26,-538.7"/>
<text text-anchor="middle" x="440.22" y="-585.8" font-family="Times,serif" font-size="14.00">genetic(&lt;=8)</text>
<text text-anchor="middle" x="440.22" y="-571.8" font-family="Times,serif" font-size="14.00">physical(&lt;=8)</text>
</g>
<!-- Gene(9)&#45;&gt;MolFunc(3) -->
<g id="edge6" class="edge">
<title>Gene(9)&#45;&gt;MolFunc(3)</title>
<path fill="none" stroke="black" d="M315.82,-747.08C440.65,-771.14 874.59,-844.93 1225.07,-784 1274.77,-775.36 1328.62,-754.47 1365.73,-738.1"/>
<polygon fill="black" stroke="black" points="1367.56,-741.12 1375.26,-733.84 1364.7,-734.73 1367.56,-741.12"/>
<text text-anchor="middle" x="894.39" y="-809.8" font-family="Times,serif" font-size="14.00">has_function</text>
</g>
<!-- Gene(9)&#45;&gt;CelComp(5) -->
<g id="edge9" class="edge">
<title>Gene(9)&#45;&gt;CelComp(5)</title>
<path fill="none" stroke="blue" d="M318.82,-742C491.01,-750.85 1190.09,-784.85 1225.07,-755 1262.42,-723.13 1209.86,-682.17 1243.07,-646 1250.26,-638.17 1300.41,-626 1344.25,-616.6"/>
<polygon fill="blue" stroke="blue" points="1345.01,-620.01 1354.07,-614.52 1343.56,-613.17 1345.01,-620.01"/>
<text text-anchor="middle" x="894.39" y="-768.8" font-family="Times,serif" font-size="14.00">located_in</text>
</g>
<!-- Gene(9)&#45;&gt;BioProc(4) -->
<g id="edge10" class="edge">
<title>Gene(9)&#45;&gt;BioProc(4)</title>
<path fill="none" stroke="black" d="M293.07,-722.78C309.07,-701.64 338.99,-666.13 372.7,-646 433.47,-609.72 456.72,-617.68 525.73,-602 619.6,-580.67 661.6,-622.82 739.31,-566 753.43,-555.67 748.19,-545.93 757.31,-531 847.54,-383.14 841.68,-312.68 984.05,-214 1098.94,-134.36 1275.98,-178.17 1361.93,-207.06"/>
<polygon fill="black" stroke="black" points="1360.85,-210.39 1371.45,-210.32 1363.12,-203.77 1360.85,-210.39"/>
<text text-anchor="middle" x="894.39" y="-411.8" font-family="Times,serif" font-size="14.00">participates_in</text>
</g>
<!-- Gene(9)&#45;&gt;DGES(22) -->
<g id="edge4" class="edge">
<title>Gene(9)&#45;&gt;DGES(22)</title>
<path fill="none" stroke="black" d="M285.82,-757.93C296.27,-791.52 323.43,-863.95 372.7,-902 428.84,-945.34 509.94,-961.53 566.35,-967.54"/>
<polygon fill="black" stroke="black" points="566.28,-971.05 576.58,-968.55 566.97,-964.08 566.28,-971.05"/>
<text text-anchor="middle" x="440.22" y="-959.8" font-family="Times,serif" font-size="14.00">differentially_expressed</text>
</g>
<!-- Gene(9)&#45;&gt;Phenotype(13) -->
<g id="edge7" class="edge">
<title>Gene(9)&#45;&gt;Phenotype(13)</title>
<path fill="none" stroke="blue" d="M311,-729.03C328.74,-723.04 351.73,-716.04 372.7,-712 431.86,-700.61 499.76,-695.12 551.16,-692.47"/>
<polygon fill="blue" stroke="blue" points="551.4,-695.96 561.22,-691.97 551.06,-688.97 551.4,-695.96"/>
<text text-anchor="middle" x="440.22" y="-714.8" font-family="Times,serif" font-size="14.00">has_observ_pheno</text>
</g>
<!-- Gene(9)&#45;&gt;Gene(9) -->
<g id="edge3" class="edge">
<title>Gene(9)&#45;&gt;Gene(9)</title>
<path fill="none" stroke="black" d="M257.33,-754.79C250.03,-765.42 257.51,-776 279.75,-776 302,-776 309.47,-765.42 302.17,-754.79"/>
<text text-anchor="middle" x="279.75" y="-792.8" font-family="Times,serif" font-size="14.00">genetic(&lt;=8)</text>
<text text-anchor="middle" x="279.75" y="-778.8" font-family="Times,serif" font-size="14.00">physical(&lt;=8)</text>
</g>
<!-- Gene(9)&#45;&gt;Protein(10) -->
<g id="edge5" class="edge">
<title>Gene(9)&#45;&gt;Protein(10)</title>
<path fill="none" stroke="blue" d="M304.32,-725.77C322.54,-715.19 348.62,-700.92 372.7,-691 438.37,-663.95 456.84,-662.25 525.73,-645 619.66,-621.48 646.93,-631.02 739.31,-602 780.29,-589.12 825.11,-568.89 855.79,-554.02"/>
<polygon fill="blue" stroke="blue" points="857.4,-557.14 864.84,-549.6 854.32,-550.85 857.4,-557.14"/>
<text text-anchor="middle" x="632.52" y="-647.8" font-family="Times,serif" font-size="14.00">enc</text>
</g>
<!-- Gene(9)&#45;&gt;SNP(20) -->
<g id="edge8" class="edge">
<title>Gene(9)&#45;&gt;SNP(20)</title>
<path fill="none" stroke="black" d="M291.3,-757.57C306.24,-780.73 335.9,-820.8 372.7,-840 390.84,-849.46 512.05,-862.98 581.98,-870.13"/>
<polygon fill="black" stroke="black" points="582.02,-873.65 592.32,-871.18 582.73,-866.69 582.02,-873.65"/>
<text text-anchor="middle" x="440.22" y="-863.8" font-family="Times,serif" font-size="14.00">has_variation</text>
</g>
<!-- Protein(10)&#45;&gt;Publication(2) -->
<g id="edge25" class="edge">
<title>Protein(10)&#45;&gt;Publication(2)</title>
<path fill="none" stroke="blue" d="M903.58,-552.79C918.12,-585.07 948.58,-655.69 966.05,-718 978.24,-761.48 965.46,-776.85 984.05,-818 1009.27,-873.83 1025.53,-883.55 1069.7,-926 1080.62,-936.49 1093.56,-946.66 1105.68,-955.38"/>
<polygon fill="blue" stroke="blue" points="1103.72,-958.28 1113.91,-961.18 1107.75,-952.56 1103.72,-958.28"/>
<text text-anchor="middle" x="1017.88" y="-909.8" font-family="Times,serif" font-size="14.00">pub_in</text>
</g>
<!-- Protein(10)&#45;&gt;Trait(21) -->
<g id="edge13" class="edge">
<title>Protein(10)&#45;&gt;Trait(21)</title>
<path fill="none" stroke="blue" d="M901.97,-552.93C914.88,-586.96 945.67,-662.55 984.05,-719 1026.35,-781.22 1089.98,-843.44 1123.64,-874.55"/>
<text text-anchor="middle" x="1017.88" y="-802.8" font-family="Times,serif" font-size="14.00">cooc_wi</text>
</g>
<!-- Protein(10)&#45;&gt;Protein(7) -->
<g id="edge15" class="edge">
<title>Protein(10)&#45;&gt;Protein(7)</title>
<path fill="none" stroke="blue" d="M901.73,-517.04C914.85,-479.48 945.45,-389.76 966.05,-313 975.72,-276.96 955.63,-255.18 984.05,-231 1000.12,-217.33 1052.78,-216.55 1093.82,-218.28"/>
<text text-anchor="middle" x="1017.88" y="-261.8" font-family="Times,serif" font-size="14.00">h_s_s</text>
<text text-anchor="middle" x="1017.88" y="-247.8" font-family="Times,serif" font-size="14.00">ortho(&lt;=4)</text>
<text text-anchor="middle" x="1017.88" y="-233.8" font-family="Times,serif" font-size="14.00">xref(&lt;=8)</text>
</g>
<!-- Protein(10)&#45;&gt;MolFunc(3) -->
<g id="edge20" class="edge">
<title>Protein(10)&#45;&gt;MolFunc(3)</title>
<path fill="none" stroke="black" d="M902.75,-552.79C915.35,-581.2 943.66,-636.88 984.05,-669 1087.55,-751.33 1252.4,-742.33 1344.41,-728.9"/>
<polygon fill="black" stroke="black" points="1345.09,-732.34 1354.45,-727.38 1344.04,-725.42 1345.09,-732.34"/>
<text text-anchor="middle" x="1147.38" y="-739.8" font-family="Times,serif" font-size="14.00">has_function</text>
</g>
<!-- Protein(10)&#45;&gt;EC(15) -->
<g id="edge17" class="edge">
<title>Protein(10)&#45;&gt;EC(15)</title>
<path fill="none" stroke="blue" d="M931.98,-522.77C947.94,-517.51 966.88,-511.34 984.05,-506 1021.94,-494.2 1065.02,-481.5 1097.28,-472.12"/>
<polygon fill="blue" stroke="blue" points="1098.3,-475.47 1106.92,-469.32 1096.35,-468.75 1098.3,-475.47"/>
<text text-anchor="middle" x="1017.88" y="-508.8" font-family="Times,serif" font-size="14.00">cat_c</text>
</g>
<!-- Protein(10)&#45;&gt;CelComp(5) -->
<g id="edge23" class="edge">
<title>Protein(10)&#45;&gt;CelComp(5)</title>
<path fill="none" stroke="blue" d="M942.16,-541.15C1032.78,-553.08 1232.81,-579.4 1340.38,-593.55"/>
<polygon fill="blue" stroke="blue" points="1340.13,-597.05 1350.5,-594.88 1341.04,-590.11 1340.13,-597.05"/>
<text text-anchor="middle" x="1147.38" y="-580.8" font-family="Times,serif" font-size="14.00">located_in</text>
</g>
<!-- Protein(10)&#45;&gt;BioProc(4) -->
<g id="edge24" class="edge">
<title>Protein(10)&#45;&gt;BioProc(4)</title>
<path fill="none" stroke="black" d="M901.34,-517.12C918.43,-469.13 972.7,-337.86 1069.7,-289 1093.93,-276.79 1252.59,-250.73 1345.23,-236.24"/>
<polygon fill="black" stroke="black" points="1346.02,-239.66 1355.36,-234.66 1344.94,-232.74 1346.02,-239.66"/>
<text text-anchor="middle" x="1147.38" y="-291.8" font-family="Times,serif" font-size="14.00">participates_in</text>
</g>
<!-- Protein(10)&#45;&gt;ProtDomain(14) -->
<g id="edge19" class="edge">
<title>Protein(10)&#45;&gt;ProtDomain(14)</title>
<path fill="none" stroke="blue" d="M915,-518.36C932.44,-504.01 959,-483.25 984.05,-468 1020.1,-446.06 1031.09,-444.03 1069.7,-427 1076.39,-424.05 1083.44,-421.05 1090.46,-418.14"/>
<polygon fill="blue" stroke="blue" points="1092.05,-421.27 1099.96,-414.23 1089.38,-414.79 1092.05,-421.27"/>
<text text-anchor="middle" x="1017.88" y="-470.8" font-family="Times,serif" font-size="14.00">has_domain</text>
</g>
<!-- Protein(10)&#45;&gt;Enzyme(177) -->
<g id="edge21" class="edge">
<title>Protein(10)&#45;&gt;Enzyme(177)</title>
<path fill="none" stroke="blue" d="M905.65,-517.34C920.59,-492.71 950.24,-447.62 984.05,-417 1014.79,-389.15 1056.61,-368.06 1090.1,-354.11"/>
<polygon fill="blue" stroke="blue" points="1091.81,-357.19 1099.75,-350.19 1089.17,-350.71 1091.81,-357.19"/>
<text text-anchor="middle" x="1017.88" y="-419.8" font-family="Times,serif" font-size="14.00">is_a</text>
</g>
<!-- Protein(10)&#45;&gt;Protein(10) -->
<g id="edge14" class="edge">
<title>Protein(10)&#45;&gt;Protein(10)</title>
<path fill="none" stroke="black" d="M874.7,-551.66C870.33,-561.62 876.89,-571 894.39,-571 911.89,-571 918.45,-561.62 914.08,-551.66"/>
<text text-anchor="middle" x="894.39" y="-601.8" font-family="Times,serif" font-size="14.00">h_s_s</text>
<text text-anchor="middle" x="894.39" y="-587.8" font-family="Times,serif" font-size="14.00">ortho(&lt;=4)</text>
<text text-anchor="middle" x="894.39" y="-573.8" font-family="Times,serif" font-size="14.00">xref(&lt;=8)</text>
</g>
<!-- EC(12) -->
<g id="node22" class="node">
<title>EC(12)</title>
<ellipse fill="none" stroke="black" cx="1147.38" cy="-674" rx="36.28" ry="18"/>
<text text-anchor="middle" x="1147.38" y="-669.8" font-family="Times,serif" font-size="14.00">EC(12)</text>
</g>
<!-- Protein(10)&#45;&gt;EC(12) -->
<g id="edge16" class="edge">
<title>Protein(10)&#45;&gt;EC(12)</title>
<path fill="none" stroke="black" d="M908.91,-552.49C924.88,-572.04 953.21,-603.39 984.05,-622 1021.13,-644.38 1068.87,-658.17 1102.97,-665.87"/>
<polygon fill="black" stroke="black" points="1102.57,-669.37 1113.08,-668.07 1104.05,-662.53 1102.57,-669.37"/>
<text text-anchor="middle" x="1017.88" y="-653.8" font-family="Times,serif" font-size="14.00">cat_c</text>
</g>
<!-- ProtDomain(11) -->
<g id="node23" class="node">
<title>ProtDomain(11)</title>
<ellipse fill="none" stroke="black" cx="1147.38" cy="-620" rx="68" ry="18"/>
<text text-anchor="middle" x="1147.38" y="-615.8" font-family="Times,serif" font-size="14.00">ProtDomain(11)</text>
</g>
<!-- Protein(10)&#45;&gt;ProtDomain(11) -->
<g id="edge18" class="edge">
<title>Protein(10)&#45;&gt;ProtDomain(11)</title>
<path fill="none" stroke="black" d="M919.32,-550.7C936.66,-561.45 961.02,-575.29 984.05,-584 1014,-595.33 1048.47,-603.6 1077.93,-609.33"/>
<polygon fill="black" stroke="black" points="1077.64,-612.84 1088.12,-611.26 1078.94,-605.96 1077.64,-612.84"/>
<text text-anchor="middle" x="1017.88" y="-606.8" font-family="Times,serif" font-size="14.00">has_domain</text>
</g>
<!-- Enzyme(17) -->
<g id="node24" class="node">
<title>Enzyme(17)</title>
<ellipse fill="none" stroke="black" cx="1147.38" cy="-516" rx="53.63" ry="18"/>
<text text-anchor="middle" x="1147.38" y="-511.8" font-family="Times,serif" font-size="14.00">Enzyme(17)</text>
</g>
<!-- Protein(10)&#45;&gt;Enzyme(17) -->
<g id="edge22" class="edge">
<title>Protein(10)&#45;&gt;Enzyme(17)</title>
<path fill="none" stroke="black" d="M943.78,-531.34C983.88,-528.3 1041.11,-523.97 1084.52,-520.68"/>
<polygon fill="black" stroke="black" points="1084.98,-524.16 1094.68,-519.91 1084.45,-517.18 1084.98,-524.16"/>
<text text-anchor="middle" x="1017.88" y="-530.8" font-family="Times,serif" font-size="14.00">is_a</text>
</g>
<!-- SNP(20)&#45;&gt;Trait(21) -->
<g id="edge33" class="edge">
<title>SNP(20)&#45;&gt;Trait(21)</title>
<path fill="none" stroke="black" d="M668.08,-884.09C705.78,-893.5 768.05,-907.56 822.73,-913 886.12,-919.3 902.43,-916.17 966.05,-913 1006.81,-910.97 1052.55,-906.38 1087.77,-902.34"/>
<polygon fill="black" stroke="black" points="1088.35,-905.8 1097.88,-901.16 1087.54,-898.84 1088.35,-905.8"/>
<text text-anchor="middle" x="894.39" y="-918.8" font-family="Times,serif" font-size="14.00">associated_with</text>
</g>
<!-- SNP(20)&#45;&gt;SNPEffect(26) -->
<g id="edge34" class="edge">
<title>SNP(20)&#45;&gt;SNPEffect(26)</title>
<path fill="none" stroke="blue" d="M673.56,-876.08C710.5,-877.07 766.45,-878.58 812.66,-879.83"/>
<polygon fill="blue" stroke="blue" points="812.58,-883.32 822.67,-880.09 812.77,-876.33 812.58,-883.32"/>
<text text-anchor="middle" x="781.02" y="-881.8" font-family="Times,serif" font-size="14.00">leads_to</text>
</g>
<!-- EC(12)&#45;&gt;MolFunc(3) -->
<g id="edge26" class="edge">
<title>EC(12)&#45;&gt;MolFunc(3)</title>
<path fill="none" stroke="blue" d="M1182.06,-679.36C1224.77,-686.16 1299.18,-698.01 1351.81,-706.39"/>
<text text-anchor="middle" x="1284.27" y="-703.8" font-family="Times,serif" font-size="14.00">equ</text>
</g>
<!-- ProtDomain(11)&#45;&gt;MolFunc(3) -->
<g id="edge27" class="edge">
<title>ProtDomain(11)&#45;&gt;MolFunc(3)</title>
<path fill="none" stroke="black" d="M1198.06,-631.97C1234.02,-641.26 1283.48,-655.34 1325.48,-672 1340.14,-677.81 1355.65,-685.25 1369.43,-692.34"/>
<polygon fill="black" stroke="black" points="1368.18,-695.64 1378.67,-697.17 1371.43,-689.44 1368.18,-695.64"/>
<text text-anchor="middle" x="1284.27" y="-674.8" font-family="Times,serif" font-size="14.00">has_function</text>
</g>
<!-- ProtDomain(11)&#45;&gt;CelComp(5) -->
<g id="edge28" class="edge">
<title>ProtDomain(11)&#45;&gt;CelComp(5)</title>
<path fill="none" stroke="blue" d="M1202.27,-609.35C1215.55,-607.15 1229.78,-605.15 1243.07,-604 1274.73,-601.25 1309.84,-600.65 1339.84,-600.87"/>
<polygon fill="blue" stroke="blue" points="1340.18,-604.37 1350.22,-600.98 1340.26,-597.37 1340.18,-604.37"/>
<text text-anchor="middle" x="1284.27" y="-606.8" font-family="Times,serif" font-size="14.00">located_in</text>
</g>
<!-- ProtDomain(11)&#45;&gt;BioProc(4) -->
<g id="edge29" class="edge">
<title>ProtDomain(11)&#45;&gt;BioProc(4)</title>
<path fill="none" stroke="black" d="M1187.73,-605.4C1199.94,-600.39 1213.28,-594.42 1225.07,-588 1272.62,-562.1 1295.81,-564.29 1325.48,-519 1348.55,-483.78 1332.62,-466.67 1343.48,-426 1359.65,-365.47 1384.78,-296.77 1399.75,-257.69"/>
<polygon fill="black" stroke="black" points="1403.08,-258.77 1403.41,-248.18 1396.55,-256.25 1403.08,-258.77"/>
<text text-anchor="middle" x="1284.27" y="-581.8" font-family="Times,serif" font-size="14.00">participates_in</text>
</g>
<!-- Enzyme(17)&#45;&gt;Reaction(188) -->
<g id="edge31" class="edge">
<title>Enzyme(17)&#45;&gt;Reaction(188)</title>
<path fill="none" stroke="blue" d="M1185.38,-502.98C1202.73,-497.21 1223.8,-490.68 1243.07,-486 1272.32,-478.89 1304.84,-472.88 1333.49,-468.2"/>
<polygon fill="blue" stroke="blue" points="1334.12,-471.64 1343.44,-466.6 1333.01,-464.73 1334.12,-471.64"/>
<text text-anchor="middle" x="1284.27" y="-488.8" font-family="Times,serif" font-size="14.00">ca_by</text>
</g>
<!-- Reaction(18) -->
<g id="node25" class="node">
<title>Reaction(18)</title>
<ellipse fill="none" stroke="black" cx="1413.17" cy="-515" rx="56.04" ry="18"/>
<text text-anchor="middle" x="1413.17" y="-510.8" font-family="Times,serif" font-size="14.00">Reaction(18)</text>
</g>
<!-- Enzyme(17)&#45;&gt;Reaction(18) -->
<g id="edge30" class="edge">
<title>Enzyme(17)&#45;&gt;Reaction(18)</title>
<path fill="none" stroke="black" d="M1197.43,-509.21C1212.08,-507.48 1228.2,-505.86 1243.07,-505 1279.63,-502.88 1288.91,-502.9 1325.48,-505 1333.65,-505.47 1342.24,-506.19 1350.7,-507.03"/>
<polygon fill="black" stroke="black" points="1350.6,-510.54 1360.92,-508.1 1351.34,-503.57 1350.6,-510.54"/>
<text text-anchor="middle" x="1284.27" y="-507.8" font-family="Times,serif" font-size="14.00">ca_by</text>
</g>
<!-- Reaction(18)&#45;&gt;Path(19) -->
<g id="edge32" class="edge">
<title>Reaction(18)&#45;&gt;Path(19)</title>
<path fill="none" stroke="blue" d="M1469.46,-515C1494.39,-515 1523.81,-515 1548.97,-515"/>
<polygon fill="blue" stroke="blue" points="1549.1,-518.5 1559.1,-515 1549.1,-511.5 1549.1,-518.5"/>
<text text-anchor="middle" x="1521.08" y="-517.8" font-family="Times,serif" font-size="14.00">part_of</text>
</g>
<!-- CoExpCluster(23)&#45;&gt;BioProc(4) -->
<g id="edge35" class="edge">
<title>CoExpCluster(23)&#45;&gt;BioProc(4)</title>
<path fill="none" stroke="blue" d="M346.5,-117.39C355.3,-118.36 364.21,-119.26 372.7,-120 487.47,-129.96 516.32,-134 631.52,-134 631.52,-134 631.52,-134 1148.38,-134 1227.81,-134 1252.32,-127.08 1325.48,-158 1346.79,-167.01 1367.31,-182.68 1383.03,-196.7"/>
<polygon fill="blue" stroke="blue" points="1381.07,-199.65 1390.79,-203.85 1385.81,-194.5 1381.07,-199.65"/>
<text text-anchor="middle" x="894.39" y="-136.8" font-family="Times,serif" font-size="14.00">enriched_for</text>
</g>
<!-- CoExpCluster(23)&#45;&gt;PlantOntologyTerm(24) -->
<g id="edge36" class="edge">
<title>CoExpCluster(23)&#45;&gt;PlantOntologyTerm(24)</title>
<path fill="none" stroke="black" d="M351.74,-103.94C398.76,-100.59 461.52,-96.12 515.68,-92.26"/>
<polygon fill="black" stroke="black" points="515.96,-95.75 525.69,-91.54 515.46,-88.76 515.96,-95.75"/>
<text text-anchor="middle" x="440.22" y="-105.8" font-family="Times,serif" font-size="14.00">enriched_for</text>
</g>
<!-- CoExpCluster(23)&#45;&gt;CoExpStudy(25) -->
<g id="edge37" class="edge">
<title>CoExpCluster(23)&#45;&gt;CoExpStudy(25)</title>
<path fill="none" stroke="blue" d="M319.74,-93.65C335.96,-87.63 355.08,-80.98 372.7,-76 431.1,-59.52 498.19,-45.66 549.44,-36.11"/>
<polygon fill="blue" stroke="blue" points="550.27,-39.51 559.47,-34.26 549,-32.63 550.27,-39.51"/>
<text text-anchor="middle" x="440.22" y="-78.8" font-family="Times,serif" font-size="14.00">part_of</text>
</g>
</g>
</svg>
