<?xml version="1.0" encoding="UTF-8"?><!DOCTYPE svg PUBLIC "-//W3C//DTD SVG 1.1//EN" "http://www.w3.org/Graphics/SVG/1.1/DTD/svg11.dtd"><svg xmlns="http://www.w3.org/2000/svg" xmlns:xlink="http://www.w3.org/1999/xlink"><symbol shape-rendering="geometricPrecision" text-rendering="geometricPrecision" image-rendering="optimizeQuality" fill-rule="evenodd" clip-rule="evenodd" viewBox="0 0 10240 10240" id="information"><title>information icon</title><desc>information icon from the IconExperience.com O-Collection. Copyright by INCORS GmbH (www.incors.com).</desc><path fill="#A1C057" d="M5120 1920c530 0 960 430 960 960s-430 960-960 960-960-430-960-960 430-960 960-960zm-640 3520c0-176-144-320-320-320v-640h1280c176 0 320 144 320 320v2560c0 176 144 320 320 320h320v640H3840v-640h320c176 0 320-144 320-320V5440z"/><path fill="#252525" d="M5120 640c2474 0 4480 2006 4480 4480S7594 9600 5120 9600 640 7594 640 5120 2646 640 5120 640zm0 640c2121 0 3840 1719 3840 3840S7241 8960 5120 8960 1280 7241 1280 5120s1719-3840 3840-3840z"/></symbol><symbol viewBox="0 0 100 100" shape-rendering="geometricPrecision" fill-rule="evenodd" image-rendering="optimizeQuality" clip-rule="evenodd" id="network"><ellipse cx="50" cy="50" rx="48" ry="48" fill="#FFF" fill-rule="nonzero" stroke="#000" stroke-linecap="square" stroke-width="4"/><g fill="#252525"><path d="M46.28 71.61l16.234-4.055c.078 1.727.5 3.368 1.21 4.844l-16.233 4.053a12.43 12.43 0 0 0-1.21-4.843M69.23 55.906L65.957 44.46a12.43 12.43 0 0 0 4.805-1.374l3.273 11.445c-1.72.13-3.344.61-4.805 1.376M39.71 65.42l16.415-24.618a12.52 12.52 0 0 0 4.156 2.774L43.868 68.193a12.502 12.502 0 0 0-4.156-2.773M37.46 26.04L53.15 28a12.544 12.544 0 0 0-.62 4.962l-15.688-1.96a12.55 12.55 0 0 0 .62-4.962"/></g><g fill="#a1c057"><path d="M35 67c5.523 0 10 4.476 10 10s-4.477 10-10 10-10-4.476-10-10 4.477-10 10-10m0 5c2.758 0 5 2.242 5 5s-2.242 5-5 5-5-2.242-5-5 2.242-5 5-5M75 57c5.523 0 10 4.477 10 10 0 5.524-4.477 10-10 10s-10-4.476-10-10c0-5.523 4.477-10 10-10m0 5c2.758 0 5 2.242 5 5s-2.242 5-5 5-5-2.242-5-5 2.242-5 5-5M65 22c5.523 0 10 4.476 10 10s-4.477 10-10 10-10-4.476-10-10 4.477-10 10-10m0 5c2.758 0 5 2.242 5 5s-2.242 5-5 5-5-2.243-5-5c0-2.758 2.242-5 5-5M25 17c5.523 0 10 4.476 10 10 0 5.523-4.477 10-10 10s-10-4.477-10-10c0-5.524 4.477-10 10-10m0 5c2.758 0 5 2.242 5 5s-2.242 5-5 5-5-2.242-5-5 2.242-5 5-5"/></g></symbol></svg>