<svg width="1067pt" height="691pt"
 viewBox="0.00 0.00 1067.32 690.58" xmlns="http://www.w3.org/2000/svg" xmlns:xlink="http://www.w3.org/1999/xlink">
<g id="graph0" class="graph" transform="scale(1 1) rotate(0) translate(4 686.58)">
<title>%3</title>
<polygon fill="white" stroke="transparent" points="-4,4 -4,-686.58 1063.32,-686.58 1063.32,4 -4,4"/>
<!-- Trait(14) -->
<g id="node1" class="node">
<title>Trait(14)</title>
<polygon fill="none" stroke="darkgreen" points="1055.47,-569.13 1055.47,-584.04 1028.93,-594.58 991.4,-594.58 964.86,-584.04 964.86,-569.13 991.4,-558.58 1028.93,-558.58 1055.47,-569.13"/>
<polygon fill="none" stroke="darkgreen" points="1059.48,-566.42 1059.48,-586.75 1029.7,-598.58 990.63,-598.58 960.85,-586.75 960.85,-566.42 990.63,-554.58 1029.7,-554.58 1059.48,-566.42"/>
<text text-anchor="middle" x="1010.16" y="-572.38" font-family="Times,serif" font-size="14.00">Trait(14)</text>
</g>
<!-- EC(15) -->
<g id="node2" class="node">
<title>EC(15)</title>
<polygon fill="none" stroke="darkgreen" points="522.31,-316.13 522.31,-331.04 499.34,-341.58 466.84,-341.58 443.86,-331.04 443.86,-316.13 466.84,-305.58 499.34,-305.58 522.31,-316.13"/>
<polygon fill="none" stroke="darkgreen" points="526.32,-313.56 526.32,-333.6 500.21,-345.58 465.96,-345.58 439.85,-333.6 439.85,-313.56 465.96,-301.58 500.21,-301.58 526.32,-313.56"/>
<text text-anchor="middle" x="483.09" y="-319.38" font-family="Times,serif" font-size="14.00">EC(15)</text>
</g>
<!-- BioProc(4) -->
<g id="node3" class="node">
<title>BioProc(4)</title>
<polygon fill="none" stroke="darkgreen" points="536.54,-254.13 536.54,-269.04 505.23,-279.58 460.95,-279.58 429.63,-269.04 429.63,-254.13 460.95,-243.58 505.23,-243.58 536.54,-254.13"/>
<polygon fill="none" stroke="darkgreen" points="540.54,-251.25 540.54,-271.91 505.88,-283.58 460.29,-283.58 425.63,-271.91 425.63,-251.25 460.29,-239.58 505.88,-239.58 540.54,-251.25"/>
<text text-anchor="middle" x="483.09" y="-257.38" font-family="Times,serif" font-size="14.00">BioProc(4)</text>
</g>
<!-- CelComp(5) -->
<g id="node4" class="node">
<title>CelComp(5)</title>
<polygon fill="none" stroke="darkgreen" points="541.69,-192.13 541.69,-207.04 507.36,-217.58 458.81,-217.58 424.48,-207.04 424.48,-192.13 458.81,-181.58 507.36,-181.58 541.69,-192.13"/>
<polygon fill="none" stroke="darkgreen" points="545.68,-189.17 545.68,-210 507.96,-221.58 458.22,-221.58 420.5,-210 420.5,-189.17 458.22,-177.58 507.96,-177.58 545.68,-189.17"/>
<text text-anchor="middle" x="483.09" y="-195.38" font-family="Times,serif" font-size="14.00">CelComp(5)</text>
</g>
<!-- Disease(6) -->
<g id="node5" class="node">
<title>Disease(6)</title>
<polygon fill="none" stroke="darkgreen" points="534.83,-130.13 534.83,-145.04 504.52,-155.58 461.65,-155.58 431.34,-145.04 431.34,-130.13 461.65,-119.58 504.52,-119.58 534.83,-130.13"/>
<polygon fill="none" stroke="darkgreen" points="538.82,-127.28 538.82,-147.88 505.19,-159.58 460.98,-159.58 427.35,-147.88 427.35,-127.28 460.98,-115.58 505.19,-115.58 538.82,-127.28"/>
<text text-anchor="middle" x="483.09" y="-133.38" font-family="Times,serif" font-size="14.00">Disease(6)</text>
</g>
<!-- Protein(7) -->
<g id="node6" class="node">
<title>Protein(7)</title>
<polygon fill="none" stroke="darkgreen" points="532.61,-610.13 532.61,-625.04 503.6,-635.58 462.57,-635.58 433.56,-625.04 433.56,-610.13 462.57,-599.58 503.6,-599.58 532.61,-610.13"/>
<polygon fill="none" stroke="darkgreen" points="536.59,-607.32 536.59,-627.85 504.3,-639.58 461.88,-639.58 429.58,-627.85 429.58,-607.32 461.88,-595.58 504.3,-595.58 536.59,-607.32"/>
<text text-anchor="middle" x="483.09" y="-613.38" font-family="Times,serif" font-size="14.00">Protein(7)</text>
</g>
<!-- Drug(11) -->
<g id="node7" class="node">
<title>Drug(11)</title>
<polygon fill="none" stroke="darkgreen" points="529.49,-68.13 529.49,-83.04 502.31,-93.58 463.87,-93.58 436.69,-83.04 436.69,-68.13 463.87,-57.58 502.31,-57.58 529.49,-68.13"/>
<polygon fill="none" stroke="darkgreen" points="533.51,-65.39 533.51,-85.77 503.06,-97.58 463.11,-97.58 432.67,-85.77 432.67,-65.39 463.11,-53.58 503.06,-53.58 533.51,-65.39"/>
<text text-anchor="middle" x="483.09" y="-71.38" font-family="Times,serif" font-size="14.00">Drug(11)</text>
</g>
<!-- MolFunc(3) -->
<g id="node8" class="node">
<title>MolFunc(3)</title>
<polygon fill="none" stroke="darkgreen" points="540.48,-548.13 540.48,-563.04 506.86,-573.58 459.32,-573.58 425.7,-563.04 425.7,-548.13 459.32,-537.58 506.86,-537.58 540.48,-548.13"/>
<polygon fill="none" stroke="darkgreen" points="544.49,-545.19 544.49,-565.97 507.48,-577.58 458.7,-577.58 421.68,-565.97 421.68,-545.19 458.7,-533.58 507.48,-533.58 544.49,-545.19"/>
<text text-anchor="middle" x="483.09" y="-551.38" font-family="Times,serif" font-size="14.00">MolFunc(3)</text>
</g>
<!-- Publication(2) -->
<g id="node9" class="node">
<title>Publication(2)</title>
<polygon fill="none" stroke="darkgreen" points="548.98,-486.13 548.98,-501.04 510.38,-511.58 455.79,-511.58 417.19,-501.04 417.19,-486.13 455.79,-475.58 510.38,-475.58 548.98,-486.13"/>
<polygon fill="none" stroke="darkgreen" points="552.99,-483.08 552.99,-504.09 510.92,-515.58 455.25,-515.58 413.18,-504.09 413.18,-483.08 455.25,-471.58 510.92,-471.58 552.99,-483.08"/>
<text text-anchor="middle" x="483.09" y="-489.38" font-family="Times,serif" font-size="14.00">Publication(2)</text>
</g>
<!-- DGES(16) -->
<g id="node10" class="node">
<title>DGES(16)</title>
<polygon fill="none" stroke="darkgreen" points="831.48,-335.13 831.48,-350.04 801.15,-360.58 758.26,-360.58 727.93,-350.04 727.93,-335.13 758.26,-324.58 801.15,-324.58 831.48,-335.13"/>
<polygon fill="none" stroke="darkgreen" points="835.47,-332.28 835.47,-352.88 801.82,-364.58 757.59,-364.58 723.94,-352.88 723.94,-332.28 757.59,-320.58 801.82,-320.58 835.47,-332.28"/>
<text text-anchor="middle" x="779.7" y="-338.38" font-family="Times,serif" font-size="14.00">DGES(16)</text>
</g>
<!-- Gene(1) -->
<g id="node11" class="node">
<title>Gene(1)</title>
<ellipse fill="none" stroke="red" cx="43.08" cy="-556.58" rx="39.15" ry="39.15"/>
<ellipse fill="none" stroke="red" cx="43.08" cy="-556.58" rx="43.15" ry="43.15"/>
<text text-anchor="middle" x="43.08" y="-552.38" font-family="Times,serif" font-size="14.00">Gene(1)</text>
</g>
<!-- Gene(1)&#45;&gt;Protein(7) -->
<g id="edge17" class="edge">
<title>Gene(1)&#45;&gt;Protein(7)</title>
<path fill="none" stroke="black" d="M84.71,-568.56C127.85,-580.72 198.26,-598.94 260.35,-607.58 313.64,-615 374.76,-617.3 419.32,-617.86"/>
<polygon fill="black" stroke="black" points="419.38,-621.36 429.42,-617.96 419.45,-614.36 419.38,-621.36"/>
<text text-anchor="middle" x="191.97" y="-606.38" font-family="Times,serif" font-size="14.00">enc</text>
</g>
<!-- Gene(1)&#45;&gt;DGES(16) -->
<g id="edge16" class="edge">
<title>Gene(1)&#45;&gt;DGES(16)</title>
<path fill="none" stroke="blue" d="M48.1,-513.53C59.98,-413.65 104.52,-166.25 260.35,-55.58 366.4,19.73 436.31,13.28 552.79,-44.58 667.03,-101.34 738.99,-246.52 766.28,-310.96"/>
<polygon fill="blue" stroke="blue" points="763.2,-312.69 770.27,-320.58 769.67,-310 763.2,-312.69"/>
<text text-anchor="middle" x="327.87" y="-58.38" font-family="Times,serif" font-size="14.00">differentially_expressed</text>
</g>
<!-- SNP(13) -->
<g id="node12" class="node">
<title>SNP(13)</title>
<ellipse fill="none" stroke="black" cx="779.7" cy="-576.58" rx="41.13" ry="18"/>
<text text-anchor="middle" x="779.7" y="-572.38" font-family="Times,serif" font-size="14.00">SNP(13)</text>
</g>
<!-- Gene(1)&#45;&gt;SNP(13) -->
<g id="edge15" class="edge">
<title>Gene(1)&#45;&gt;SNP(13)</title>
<path fill="none" stroke="black" d="M76.61,-584.16C94.59,-597.82 118.02,-613.16 141.58,-621.58 314.04,-683.27 371.81,-676.72 552.79,-648.58 620.67,-638.03 696.05,-610.64 740.31,-592.85"/>
<polygon fill="black" stroke="black" points="741.86,-596 749.8,-588.99 739.22,-589.51 741.86,-596"/>
<text text-anchor="middle" x="327.87" y="-671.38" font-family="Times,serif" font-size="14.00">has_variation</text>
</g>
<!-- Protein(10) -->
<g id="node13" class="node">
<title>Protein(10)</title>
<ellipse fill="none" stroke="black" cx="191.97" cy="-381.58" rx="50.27" ry="18"/>
<text text-anchor="middle" x="191.97" y="-377.38" font-family="Times,serif" font-size="14.00">Protein(10)</text>
</g>
<!-- Gene(1)&#45;&gt;Protein(10) -->
<g id="edge18" class="edge">
<title>Gene(1)&#45;&gt;Protein(10)</title>
<path fill="none" stroke="blue" d="M71.36,-524.08C99.85,-490.14 143.91,-437.65 169.85,-406.74"/>
<polygon fill="blue" stroke="blue" points="172.6,-408.91 176.35,-399 167.24,-404.41 172.6,-408.91"/>
<text text-anchor="middle" x="113.87" y="-487.38" font-family="Times,serif" font-size="14.00">enc</text>
</g>
<!-- SNP(13)&#45;&gt;Trait(14) -->
<g id="edge1" class="edge">
<title>SNP(13)&#45;&gt;Trait(14)</title>
<path fill="none" stroke="blue" d="M821.02,-576.58C857.04,-576.58 910.24,-576.58 950.89,-576.58"/>
<polygon fill="blue" stroke="blue" points="950.93,-580.08 960.93,-576.58 950.93,-573.08 950.93,-580.08"/>
<text text-anchor="middle" x="898.3" y="-579.38" font-family="Times,serif" font-size="14.00">associated_with</text>
</g>
<!-- Protein(10)&#45;&gt;EC(15) -->
<g id="edge12" class="edge">
<title>Protein(10)&#45;&gt;EC(15)</title>
<path fill="none" stroke="black" d="M232.03,-370.56C241.28,-368.12 251.14,-365.64 260.35,-363.58 317.91,-350.73 384.57,-339.14 429.66,-331.79"/>
<polygon fill="black" stroke="black" points="430.47,-335.2 439.78,-330.15 429.35,-328.29 430.47,-335.2"/>
<text text-anchor="middle" x="327.87" y="-366.38" font-family="Times,serif" font-size="14.00">cat_c</text>
</g>
<!-- Protein(10)&#45;&gt;BioProc(4) -->
<g id="edge2" class="edge">
<title>Protein(10)&#45;&gt;BioProc(4)</title>
<path fill="none" stroke="black" d="M207.62,-364.41C220.26,-350.63 239.7,-331.81 260.35,-320.58 308.84,-294.23 369.77,-279.12 415.49,-270.81"/>
<polygon fill="black" stroke="black" points="416.35,-274.21 425.59,-269.03 415.14,-267.31 416.35,-274.21"/>
<text text-anchor="middle" x="327.87" y="-323.38" font-family="Times,serif" font-size="14.00">participates_in</text>
</g>
<!-- Protein(10)&#45;&gt;CelComp(5) -->
<g id="edge3" class="edge">
<title>Protein(10)&#45;&gt;CelComp(5)</title>
<path fill="none" stroke="blue" d="M197.8,-363.38C206,-336.15 225.25,-285.08 260.35,-257.58 303.11,-224.1 363.3,-209.83 410.18,-203.81"/>
<polygon fill="blue" stroke="blue" points="410.76,-207.26 420.28,-202.61 409.94,-200.31 410.76,-207.26"/>
<text text-anchor="middle" x="327.87" y="-260.38" font-family="Times,serif" font-size="14.00">located_in</text>
</g>
<!-- Protein(10)&#45;&gt;Disease(6) -->
<g id="edge4" class="edge">
<title>Protein(10)&#45;&gt;Disease(6)</title>
<path fill="none" stroke="black" d="M193.78,-363.39C196.52,-325.17 208.45,-236.2 260.35,-189.58 302.92,-151.35 368.21,-139.72 416.94,-136.84"/>
<polygon fill="black" stroke="black" points="417.25,-140.33 427.07,-136.35 416.91,-133.34 417.25,-140.33"/>
<text text-anchor="middle" x="327.87" y="-192.38" font-family="Times,serif" font-size="14.00">inv_in</text>
</g>
<!-- Protein(10)&#45;&gt;Protein(7) -->
<g id="edge6" class="edge">
<title>Protein(10)&#45;&gt;Protein(7)</title>
<path fill="none" stroke="black" d="M194.92,-399.69C199.6,-433.54 214.69,-506.29 260.35,-542.58 308.01,-580.46 342.42,-535.57 395.38,-565.58 406.08,-571.64 403.55,-579.21 413.38,-586.58 419.22,-590.95 425.76,-594.89 432.43,-598.37"/>
<polygon fill="black" stroke="black" points="431.04,-601.58 441.56,-602.84 434.12,-595.3 431.04,-601.58"/>
<text text-anchor="middle" x="327.87" y="-596.38" font-family="Times,serif" font-size="14.00">it_wi(&lt;=5)</text>
<text text-anchor="middle" x="327.87" y="-582.38" font-family="Times,serif" font-size="14.00">ortho(&lt;=5)</text>
<text text-anchor="middle" x="327.87" y="-568.38" font-family="Times,serif" font-size="14.00">xref</text>
</g>
<!-- Protein(10)&#45;&gt;Drug(11) -->
<g id="edge7" class="edge">
<title>Protein(10)&#45;&gt;Drug(11)</title>
<path fill="none" stroke="blue" d="M195.18,-363.45C202.05,-310.14 224.73,-155.51 260.35,-121.58 303.28,-80.71 372.56,-72.02 422.26,-71.79"/>
<polygon fill="blue" stroke="blue" points="422.53,-75.29 432.55,-71.86 422.57,-68.29 422.53,-75.29"/>
<text text-anchor="middle" x="327.87" y="-124.38" font-family="Times,serif" font-size="14.00">cooc_wi</text>
</g>
<!-- Protein(10)&#45;&gt;MolFunc(3) -->
<g id="edge8" class="edge">
<title>Protein(10)&#45;&gt;MolFunc(3)</title>
<path fill="none" stroke="black" d="M197.99,-399.72C206.32,-426.26 225.63,-475.27 260.35,-500.58 309.88,-536.69 336.05,-513.23 395.38,-528.58 405.56,-531.22 416.32,-534.31 426.67,-537.45"/>
<polygon fill="black" stroke="black" points="425.84,-540.85 436.43,-540.45 427.9,-534.16 425.84,-540.85"/>
<text text-anchor="middle" x="327.87" y="-531.38" font-family="Times,serif" font-size="14.00">has_function</text>
</g>
<!-- Protein(10)&#45;&gt;Publication(2) -->
<g id="edge10" class="edge">
<title>Protein(10)&#45;&gt;Publication(2)</title>
<path fill="none" stroke="black" d="M208.17,-398.86C220.84,-412.19 240.05,-430.09 260.35,-440.58 304.72,-463.51 359.22,-476.71 403.08,-484.2"/>
<polygon fill="black" stroke="black" points="402.69,-487.68 413.12,-485.85 403.82,-480.78 402.69,-487.68"/>
<text text-anchor="middle" x="327.87" y="-485.38" font-family="Times,serif" font-size="14.00">pub_in</text>
</g>
<!-- Protein(10)&#45;&gt;Protein(10) -->
<g id="edge5" class="edge">
<title>Protein(10)&#45;&gt;Protein(10)</title>
<path fill="none" stroke="blue" d="M178.04,-398.99C175.44,-408.67 180.08,-417.58 191.97,-417.58 199.39,-417.58 203.99,-414.1 205.76,-409.13"/>
<polygon fill="blue" stroke="blue" points="209.26,-409.04 205.89,-398.99 202.26,-408.95 209.26,-409.04"/>
<text text-anchor="middle" x="191.97" y="-448.38" font-family="Times,serif" font-size="14.00">xref</text>
<text text-anchor="middle" x="191.97" y="-434.38" font-family="Times,serif" font-size="14.00">ortho(&lt;=5)</text>
<text text-anchor="middle" x="191.97" y="-420.38" font-family="Times,serif" font-size="14.00">it_wi(&lt;=5)</text>
</g>
<!-- Drug(12) -->
<g id="node14" class="node">
<title>Drug(12)</title>
<ellipse fill="none" stroke="black" cx="483.09" cy="-381.58" rx="43.03" ry="18"/>
<text text-anchor="middle" x="483.09" y="-377.38" font-family="Times,serif" font-size="14.00">Drug(12)</text>
</g>
<!-- Protein(10)&#45;&gt;Drug(12) -->
<g id="edge9" class="edge">
<title>Protein(10)&#45;&gt;Drug(12)</title>
<path fill="none" stroke="blue" d="M242.67,-381.58C294.89,-381.58 376.68,-381.58 429.83,-381.58"/>
<polygon fill="blue" stroke="blue" points="430.07,-385.08 440.07,-381.58 430.07,-378.08 430.07,-385.08"/>
<text text-anchor="middle" x="327.87" y="-384.38" font-family="Times,serif" font-size="14.00">cooc_wi</text>
</g>
<!-- Gene(17) -->
<g id="node15" class="node">
<title>Gene(17)</title>
<ellipse fill="none" stroke="black" cx="483.09" cy="-435.58" rx="43.5" ry="18"/>
<text text-anchor="middle" x="483.09" y="-431.38" font-family="Times,serif" font-size="14.00">Gene(17)</text>
</g>
<!-- Protein(10)&#45;&gt;Gene(17) -->
<g id="edge11" class="edge">
<title>Protein(10)&#45;&gt;Gene(17)</title>
<path fill="none" stroke="blue" d="M232,-392.72C241.25,-395.16 251.12,-397.6 260.35,-399.58 318.55,-412.05 386.16,-422.44 431.28,-428.81"/>
<polygon fill="blue" stroke="blue" points="431.01,-432.31 441.4,-430.22 431.98,-425.37 431.01,-432.31"/>
<text text-anchor="middle" x="327.87" y="-425.38" font-family="Times,serif" font-size="14.00">enc</text>
</g>
<!-- Gene(17)&#45;&gt;DGES(16) -->
<g id="edge13" class="edge">
<title>Gene(17)&#45;&gt;DGES(16)</title>
<path fill="none" stroke="black" d="M518.17,-424.82C568.82,-408.84 664.44,-378.65 724.68,-359.64"/>
<polygon fill="black" stroke="black" points="725.92,-362.92 734.4,-356.57 723.81,-356.24 725.92,-362.92"/>
<text text-anchor="middle" x="638.31" y="-410.38" font-family="Times,serif" font-size="14.00">differentially_expressed</text>
</g>
<!-- Gene(17)&#45;&gt;SNP(13) -->
<g id="edge14" class="edge">
<title>Gene(17)&#45;&gt;SNP(13)</title>
<path fill="none" stroke="blue" d="M516.15,-447.47C527.79,-451.98 540.98,-457.29 552.79,-462.58 621.86,-493.5 700.26,-534.42 744.16,-557.89"/>
<polygon fill="blue" stroke="blue" points="742.52,-560.98 752.99,-562.62 745.83,-554.81 742.52,-560.98"/>
<text text-anchor="middle" x="638.31" y="-539.38" font-family="Times,serif" font-size="14.00">has_variation</text>
</g>
</g>
</svg>
