<svg width="1067pt" height="664pt"
 viewBox="0.00 0.00 1067.32 664.00" xmlns="http://www.w3.org/2000/svg" xmlns:xlink="http://www.w3.org/1999/xlink">
<g id="graph0" class="graph" transform="scale(1 1) rotate(0) translate(4 660)">
<title>%3</title>
<polygon fill="white" stroke="transparent" points="-4,4 -4,-660 1063.32,-660 1063.32,4 -4,4"/>
<!-- Disease(6) -->
<g id="node1" class="node">
<title>Disease(6)</title>
<polygon fill="none" stroke="darkgreen" points="534.83,-440.54 534.83,-455.46 504.52,-466 461.65,-466 431.34,-455.46 431.34,-440.54 461.65,-430 504.52,-430 534.83,-440.54"/>
<polygon fill="none" stroke="darkgreen" points="538.82,-437.7 538.82,-458.3 505.19,-470 460.98,-470 427.35,-458.3 427.35,-437.7 460.98,-426 505.19,-426 538.82,-437.7"/>
<text text-anchor="middle" x="483.09" y="-443.8" font-family="Times,serif" font-size="14.00">Disease(6)</text>
</g>
<!-- Trait(14) -->
<g id="node2" class="node">
<title>Trait(14)</title>
<polygon fill="none" stroke="darkgreen" points="1055.47,-550.54 1055.47,-565.46 1028.93,-576 991.4,-576 964.86,-565.46 964.86,-550.54 991.4,-540 1028.93,-540 1055.47,-550.54"/>
<polygon fill="none" stroke="darkgreen" points="1059.48,-547.83 1059.48,-568.17 1029.7,-580 990.63,-580 960.85,-568.17 960.85,-547.83 990.63,-536 1029.7,-536 1059.48,-547.83"/>
<text text-anchor="middle" x="1010.16" y="-553.8" font-family="Times,serif" font-size="14.00">Trait(14)</text>
</g>
<!-- DGES(16) -->
<g id="node3" class="node">
<title>DGES(16)</title>
<polygon fill="none" stroke="darkgreen" points="831.48,-626.54 831.48,-641.46 801.15,-652 758.26,-652 727.93,-641.46 727.93,-626.54 758.26,-616 801.15,-616 831.48,-626.54"/>
<polygon fill="none" stroke="darkgreen" points="835.47,-623.7 835.47,-644.3 801.82,-656 757.59,-656 723.94,-644.3 723.94,-623.7 757.59,-612 801.82,-612 835.47,-623.7"/>
<text text-anchor="middle" x="779.7" y="-629.8" font-family="Times,serif" font-size="14.00">DGES(16)</text>
</g>
<!-- BioProc(4) -->
<g id="node4" class="node">
<title>BioProc(4)</title>
<polygon fill="none" stroke="darkgreen" points="536.54,-378.54 536.54,-393.46 505.23,-404 460.95,-404 429.63,-393.46 429.63,-378.54 460.95,-368 505.23,-368 536.54,-378.54"/>
<polygon fill="none" stroke="darkgreen" points="540.54,-375.67 540.54,-396.33 505.88,-408 460.29,-408 425.63,-396.33 425.63,-375.67 460.29,-364 505.88,-364 540.54,-375.67"/>
<text text-anchor="middle" x="483.09" y="-381.8" font-family="Times,serif" font-size="14.00">BioProc(4)</text>
</g>
<!-- Publication(2) -->
<g id="node5" class="node">
<title>Publication(2)</title>
<polygon fill="none" stroke="darkgreen" points="548.98,-316.54 548.98,-331.46 510.38,-342 455.79,-342 417.19,-331.46 417.19,-316.54 455.79,-306 510.38,-306 548.98,-316.54"/>
<polygon fill="none" stroke="darkgreen" points="552.99,-313.49 552.99,-334.51 510.92,-346 455.25,-346 413.18,-334.51 413.18,-313.49 455.25,-302 510.92,-302 552.99,-313.49"/>
<text text-anchor="middle" x="483.09" y="-319.8" font-family="Times,serif" font-size="14.00">Publication(2)</text>
</g>
<!-- EC(15) -->
<g id="node6" class="node">
<title>EC(15)</title>
<polygon fill="none" stroke="darkgreen" points="522.31,-254.54 522.31,-269.46 499.34,-280 466.84,-280 443.86,-269.46 443.86,-254.54 466.84,-244 499.34,-244 522.31,-254.54"/>
<polygon fill="none" stroke="darkgreen" points="526.32,-251.98 526.32,-272.02 500.21,-284 465.96,-284 439.85,-272.02 439.85,-251.98 465.96,-240 500.21,-240 526.32,-251.98"/>
<text text-anchor="middle" x="483.09" y="-257.8" font-family="Times,serif" font-size="14.00">EC(15)</text>
</g>
<!-- Protein(7) -->
<g id="node7" class="node">
<title>Protein(7)</title>
<polygon fill="none" stroke="darkgreen" points="532.61,-556.54 532.61,-571.46 503.6,-582 462.57,-582 433.56,-571.46 433.56,-556.54 462.57,-546 503.6,-546 532.61,-556.54"/>
<polygon fill="none" stroke="darkgreen" points="536.59,-553.74 536.59,-574.26 504.3,-586 461.88,-586 429.58,-574.26 429.58,-553.74 461.88,-542 504.3,-542 536.59,-553.74"/>
<text text-anchor="middle" x="483.09" y="-559.8" font-family="Times,serif" font-size="14.00">Protein(7)</text>
</g>
<!-- MolFunc(3) -->
<g id="node8" class="node">
<title>MolFunc(3)</title>
<polygon fill="none" stroke="darkgreen" points="540.48,-192.54 540.48,-207.46 506.86,-218 459.32,-218 425.7,-207.46 425.7,-192.54 459.32,-182 506.86,-182 540.48,-192.54"/>
<polygon fill="none" stroke="darkgreen" points="544.49,-189.61 544.49,-210.39 507.48,-222 458.7,-222 421.68,-210.39 421.68,-189.61 458.7,-178 507.48,-178 544.49,-189.61"/>
<text text-anchor="middle" x="483.09" y="-195.8" font-family="Times,serif" font-size="14.00">MolFunc(3)</text>
</g>
<!-- CelComp(5) -->
<g id="node9" class="node">
<title>CelComp(5)</title>
<polygon fill="none" stroke="darkgreen" points="541.69,-130.54 541.69,-145.46 507.36,-156 458.81,-156 424.48,-145.46 424.48,-130.54 458.81,-120 507.36,-120 541.69,-130.54"/>
<polygon fill="none" stroke="darkgreen" points="545.68,-127.59 545.68,-148.41 507.96,-160 458.22,-160 420.5,-148.41 420.5,-127.59 458.22,-116 507.96,-116 545.68,-127.59"/>
<text text-anchor="middle" x="483.09" y="-133.8" font-family="Times,serif" font-size="14.00">CelComp(5)</text>
</g>
<!-- Drug(11) -->
<g id="node10" class="node">
<title>Drug(11)</title>
<polygon fill="none" stroke="darkgreen" points="529.49,-68.54 529.49,-83.46 502.31,-94 463.87,-94 436.69,-83.46 436.69,-68.54 463.87,-58 502.31,-58 529.49,-68.54"/>
<polygon fill="none" stroke="darkgreen" points="533.51,-65.81 533.51,-86.19 503.06,-98 463.11,-98 432.67,-86.19 432.67,-65.81 463.11,-54 503.06,-54 533.51,-65.81"/>
<text text-anchor="middle" x="483.09" y="-71.8" font-family="Times,serif" font-size="14.00">Drug(11)</text>
</g>
<!-- Gene(1) -->
<g id="node11" class="node">
<title>Gene(1)</title>
<ellipse fill="none" stroke="red" cx="43.08" cy="-593" rx="39.15" ry="39.15"/>
<ellipse fill="none" stroke="red" cx="43.08" cy="-593" rx="43.15" ry="43.15"/>
<text text-anchor="middle" x="43.08" y="-588.8" font-family="Times,serif" font-size="14.00">Gene(1)</text>
</g>
<!-- Gene(1)&#45;&gt;DGES(16) -->
<g id="edge16" class="edge">
<title>Gene(1)&#45;&gt;DGES(16)</title>
<path fill="none" stroke="black" d="M83.49,-608.05C90.31,-610.29 97.38,-612.38 104.15,-614 136.97,-621.84 215.47,-627.75 260.35,-630 423.34,-638.16 615.5,-636.77 713.73,-635.26"/>
<polygon fill="black" stroke="black" points="713.86,-638.76 723.8,-635.1 713.75,-631.76 713.86,-638.76"/>
<text text-anchor="middle" x="327.87" y="-636.8" font-family="Times,serif" font-size="14.00">differentially_expressed</text>
</g>
<!-- Gene(1)&#45;&gt;Protein(7) -->
<g id="edge17" class="edge">
<title>Gene(1)&#45;&gt;Protein(7)</title>
<path fill="none" stroke="blue" d="M86.31,-589.9C103.46,-588.66 123.46,-587.24 141.58,-586 238.55,-579.39 351.1,-572.21 419.42,-567.91"/>
<polygon fill="blue" stroke="blue" points="419.82,-571.4 429.58,-567.28 419.38,-564.41 419.82,-571.4"/>
<text text-anchor="middle" x="191.97" y="-588.8" font-family="Times,serif" font-size="14.00">enc</text>
</g>
<!-- SNP(13) -->
<g id="node13" class="node">
<title>SNP(13)</title>
<ellipse fill="none" stroke="black" cx="779.7" cy="-558" rx="41.13" ry="18"/>
<text text-anchor="middle" x="779.7" y="-553.8" font-family="Times,serif" font-size="14.00">SNP(13)</text>
</g>
<!-- Gene(1)&#45;&gt;SNP(13) -->
<g id="edge15" class="edge">
<title>Gene(1)&#45;&gt;SNP(13)</title>
<path fill="none" stroke="blue" d="M86.04,-598.52C92.11,-599.13 98.28,-599.66 104.15,-600 237.63,-607.75 576.66,-634.55 705.82,-600 721.41,-595.83 737.12,-587.43 749.94,-579.24"/>
<polygon fill="blue" stroke="blue" points="751.94,-582.11 758.32,-573.65 748.06,-576.29 751.94,-582.11"/>
<text text-anchor="middle" x="327.87" y="-617.8" font-family="Times,serif" font-size="14.00">has_variation</text>
</g>
<!-- Protein(10) -->
<g id="node14" class="node">
<title>Protein(10)</title>
<ellipse fill="none" stroke="black" cx="191.97" cy="-324" rx="50.27" ry="18"/>
<text text-anchor="middle" x="191.97" y="-319.8" font-family="Times,serif" font-size="14.00">Protein(10)</text>
</g>
<!-- Gene(1)&#45;&gt;Protein(10) -->
<g id="edge18" class="edge">
<title>Gene(1)&#45;&gt;Protein(10)</title>
<path fill="none" stroke="black" d="M64.5,-555.6C94.58,-500.51 150.06,-398.91 176.38,-350.71"/>
<polygon fill="black" stroke="black" points="179.52,-352.27 181.24,-341.81 173.38,-348.91 179.52,-352.27"/>
<text text-anchor="middle" x="113.87" y="-484.8" font-family="Times,serif" font-size="14.00">enc</text>
</g>
<!-- Gene(17) -->
<g id="node12" class="node">
<title>Gene(17)</title>
<ellipse fill="none" stroke="black" cx="483.09" cy="-506" rx="43.5" ry="18"/>
<text text-anchor="middle" x="483.09" y="-501.8" font-family="Times,serif" font-size="14.00">Gene(17)</text>
</g>
<!-- Gene(17)&#45;&gt;DGES(16) -->
<g id="edge2" class="edge">
<title>Gene(17)&#45;&gt;DGES(16)</title>
<path fill="none" stroke="black" d="M517.82,-517.06C529.25,-521.37 541.88,-526.78 552.79,-533 561.6,-538.02 562.04,-541.89 570.79,-547 620.89,-576.27 682.71,-600.82 725.86,-616.3"/>
<polygon fill="black" stroke="black" points="724.72,-619.61 735.32,-619.65 727.06,-613.01 724.72,-619.61"/>
<text text-anchor="middle" x="638.31" y="-609.8" font-family="Times,serif" font-size="14.00">differentially_expressed</text>
</g>
<!-- Gene(17)&#45;&gt;SNP(13) -->
<g id="edge1" class="edge">
<title>Gene(17)&#45;&gt;SNP(13)</title>
<path fill="none" stroke="blue" d="M526.22,-508.5C571.17,-511.77 644.21,-518.85 705.82,-533 716.8,-535.52 728.44,-539.09 739.13,-542.74"/>
<polygon fill="blue" stroke="blue" points="738.02,-546.07 748.62,-546.1 740.36,-539.47 738.02,-546.07"/>
<text text-anchor="middle" x="638.31" y="-535.8" font-family="Times,serif" font-size="14.00">has_variation</text>
</g>
<!-- SNP(13)&#45;&gt;Trait(14) -->
<g id="edge3" class="edge">
<title>SNP(13)&#45;&gt;Trait(14)</title>
<path fill="none" stroke="blue" d="M821.02,-558C857.04,-558 910.24,-558 950.89,-558"/>
<polygon fill="blue" stroke="blue" points="950.93,-561.5 960.93,-558 950.93,-554.5 950.93,-561.5"/>
<text text-anchor="middle" x="898.3" y="-560.8" font-family="Times,serif" font-size="14.00">associated_with</text>
</g>
<!-- Protein(10)&#45;&gt;Disease(6) -->
<g id="edge5" class="edge">
<title>Protein(10)&#45;&gt;Disease(6)</title>
<path fill="none" stroke="blue" d="M206.96,-341.44C219.49,-355.94 239.11,-376.07 260.35,-388 309.26,-415.48 371.38,-430.88 417.41,-439.17"/>
<polygon fill="blue" stroke="blue" points="416.82,-442.62 427.28,-440.89 418.02,-435.73 416.82,-442.62"/>
<text text-anchor="middle" x="327.87" y="-437.8" font-family="Times,serif" font-size="14.00">inv_in</text>
</g>
<!-- Protein(10)&#45;&gt;BioProc(4) -->
<g id="edge7" class="edge">
<title>Protein(10)&#45;&gt;BioProc(4)</title>
<path fill="none" stroke="blue" d="M232.41,-335C241.56,-337.42 251.27,-339.89 260.35,-342 312.13,-354.04 371.19,-365.66 415.33,-373.93"/>
<polygon fill="blue" stroke="blue" points="414.89,-377.41 425.37,-375.8 416.18,-370.52 414.89,-377.41"/>
<text text-anchor="middle" x="327.87" y="-372.8" font-family="Times,serif" font-size="14.00">participates_in</text>
</g>
<!-- Protein(10)&#45;&gt;Publication(2) -->
<g id="edge4" class="edge">
<title>Protein(10)&#45;&gt;Publication(2)</title>
<path fill="none" stroke="black" d="M242.67,-324C286.79,-324 352.02,-324 403.26,-324"/>
<polygon fill="black" stroke="black" points="403.31,-327.5 413.31,-324 403.31,-320.5 403.31,-327.5"/>
<text text-anchor="middle" x="327.87" y="-326.8" font-family="Times,serif" font-size="14.00">pub_in</text>
</g>
<!-- Protein(10)&#45;&gt;EC(15) -->
<g id="edge6" class="edge">
<title>Protein(10)&#45;&gt;EC(15)</title>
<path fill="none" stroke="black" d="M232.41,-313C241.56,-310.58 251.27,-308.11 260.35,-306 318.1,-292.57 384.91,-279.67 429.98,-271.35"/>
<polygon fill="black" stroke="black" points="430.61,-274.79 439.82,-269.54 429.35,-267.91 430.61,-274.79"/>
<text text-anchor="middle" x="327.87" y="-308.8" font-family="Times,serif" font-size="14.00">cat_c</text>
</g>
<!-- Protein(10)&#45;&gt;Protein(7) -->
<g id="edge9" class="edge">
<title>Protein(10)&#45;&gt;Protein(7)</title>
<path fill="none" stroke="blue" d="M194.53,-342.16C198.58,-377.28 212.71,-454.47 260.35,-493 307.69,-531.28 340.91,-488.82 395.38,-516 405.23,-520.91 404.24,-526.87 413.38,-533 419.59,-537.16 426.44,-541 433.34,-544.46"/>
<polygon fill="blue" stroke="blue" points="432.2,-547.8 442.73,-548.95 435.21,-541.48 432.2,-547.8"/>
<text text-anchor="middle" x="327.87" y="-546.8" font-family="Times,serif" font-size="14.00">xref</text>
<text text-anchor="middle" x="327.87" y="-532.8" font-family="Times,serif" font-size="14.00">it_wi(&lt;=5)</text>
<text text-anchor="middle" x="327.87" y="-518.8" font-family="Times,serif" font-size="14.00">ortho(&lt;=5)</text>
</g>
<!-- Protein(10)&#45;&gt;MolFunc(3) -->
<g id="edge11" class="edge">
<title>Protein(10)&#45;&gt;MolFunc(3)</title>
<path fill="none" stroke="blue" d="M207.28,-306.57C219.86,-292.34 239.39,-272.73 260.35,-261 307.32,-234.72 366.31,-219.2 411.63,-210.4"/>
<polygon fill="blue" stroke="blue" points="412.49,-213.8 421.67,-208.52 411.2,-206.92 412.49,-213.8"/>
<text text-anchor="middle" x="327.87" y="-263.8" font-family="Times,serif" font-size="14.00">has_function</text>
</g>
<!-- Protein(10)&#45;&gt;CelComp(5) -->
<g id="edge12" class="edge">
<title>Protein(10)&#45;&gt;CelComp(5)</title>
<path fill="none" stroke="black" d="M197.56,-305.84C205.53,-278.1 224.59,-225.42 260.35,-197 302.92,-163.17 363.12,-148.65 410.06,-142.45"/>
<polygon fill="black" stroke="black" points="410.66,-145.91 420.17,-141.22 409.81,-138.96 410.66,-145.91"/>
<text text-anchor="middle" x="327.87" y="-199.8" font-family="Times,serif" font-size="14.00">located_in</text>
</g>
<!-- Protein(10)&#45;&gt;Drug(11) -->
<g id="edge14" class="edge">
<title>Protein(10)&#45;&gt;Drug(11)</title>
<path fill="none" stroke="black" d="M193.64,-305.73C196.09,-266.9 207.5,-175.78 260.35,-128 304.44,-88.15 373.2,-77.17 422.46,-74.89"/>
<polygon fill="black" stroke="black" points="422.78,-78.38 432.65,-74.53 422.54,-71.39 422.78,-78.38"/>
<text text-anchor="middle" x="327.87" y="-130.8" font-family="Times,serif" font-size="14.00">cooc_wi</text>
</g>
<!-- Protein(10)&#45;&gt;Gene(17) -->
<g id="edge13" class="edge">
<title>Protein(10)&#45;&gt;Gene(17)</title>
<path fill="none" stroke="blue" d="M197.11,-342.29C204.56,-370.74 223.06,-425.24 260.35,-453 309.38,-489.49 336.11,-464.11 395.38,-479 409.78,-482.62 425.31,-487.22 439.2,-491.6"/>
<polygon fill="blue" stroke="blue" points="438.39,-495.02 448.98,-494.74 440.53,-488.35 438.39,-495.02"/>
<text text-anchor="middle" x="327.87" y="-481.8" font-family="Times,serif" font-size="14.00">enc</text>
</g>
<!-- Protein(10)&#45;&gt;Protein(10) -->
<g id="edge8" class="edge">
<title>Protein(10)&#45;&gt;Protein(10)</title>
<path fill="none" stroke="black" d="M178.04,-341.41C175.44,-351.09 180.08,-360 191.97,-360 199.39,-360 203.99,-356.52 205.76,-351.54"/>
<polygon fill="black" stroke="black" points="209.26,-351.45 205.89,-341.41 202.26,-351.36 209.26,-351.45"/>
<text text-anchor="middle" x="191.97" y="-390.8" font-family="Times,serif" font-size="14.00">ortho(&lt;=5)</text>
<text text-anchor="middle" x="191.97" y="-376.8" font-family="Times,serif" font-size="14.00">it_wi(&lt;=5)</text>
<text text-anchor="middle" x="191.97" y="-362.8" font-family="Times,serif" font-size="14.00">xref</text>
</g>
<!-- Drug(12) -->
<g id="node15" class="node">
<title>Drug(12)</title>
<ellipse fill="none" stroke="black" cx="483.09" cy="-18" rx="43.03" ry="18"/>
<text text-anchor="middle" x="483.09" y="-13.8" font-family="Times,serif" font-size="14.00">Drug(12)</text>
</g>
<!-- Protein(10)&#45;&gt;Drug(12) -->
<g id="edge10" class="edge">
<title>Protein(10)&#45;&gt;Drug(12)</title>
<path fill="none" stroke="black" d="M195.06,-305.95C201.68,-252.1 223.89,-94.25 260.35,-60 305.95,-17.18 380.91,-11.43 430.87,-13.17"/>
<polygon fill="black" stroke="black" points="430.99,-16.68 441.14,-13.65 431.31,-9.69 430.99,-16.68"/>
<text text-anchor="middle" x="327.87" y="-62.8" font-family="Times,serif" font-size="14.00">cooc_wi</text>
</g>
</g>
</svg>
