<svg width="1993px" height="1652px"
 viewBox="0.00 0.00 1494.90 1239.00" xmlns="http://www.w3.org/2000/svg" xmlns:xlink="http://www.w3.org/1999/xlink">
<g id="graph0" class="graph" transform=" rotate(0) translate(4 1235)">
<polygon fill="white" stroke="transparent" points="-4,4 -4,-1235 1490.9,-1235 1490.9,4 -4,4"/>
<!-- Phenotype(13) -->
<g id="node1" class="node">
<title>Phenotype(13)</title>
<polygon fill="none" stroke="darkgreen" points="1265.97,-1120.54 1265.97,-1135.46 1226.39,-1146 1170.41,-1146 1130.83,-1135.46 1130.83,-1120.54 1170.41,-1110 1226.39,-1110 1265.97,-1120.54"/>
<polygon fill="none" stroke="darkgreen" points="1269.97,-1117.47 1269.97,-1138.53 1226.91,-1150 1169.89,-1150 1126.83,-1138.53 1126.83,-1117.47 1169.89,-1106 1226.91,-1106 1269.97,-1117.47"/>
<text text-anchor="middle" x="1198.4" y="-1124.3" font-family="Times,serif" font-size="14.00">Phenotype(13)</text>
</g>
<!-- Enzyme(177) -->
<g id="node2" class="node">
<title>Enzyme(177)</title>
<polygon fill="none" stroke="darkgreen" points="652.53,-880.54 652.53,-895.46 615.02,-906 561.97,-906 524.46,-895.46 524.46,-880.54 561.97,-870 615.02,-870 652.53,-880.54"/>
<polygon fill="none" stroke="darkgreen" points="656.53,-877.51 656.53,-898.49 615.57,-910 561.42,-910 520.46,-898.49 520.46,-877.51 561.42,-866 615.57,-866 656.53,-877.51"/>
<text text-anchor="middle" x="588.49" y="-884.3" font-family="Times,serif" font-size="14.00">Enzyme(177)</text>
</g>
<!-- Trait(21) -->
<g id="node3" class="node">
<title>Trait(21)</title>
<polygon fill="none" stroke="darkgreen" points="1462.71,-1136.54 1462.71,-1151.46 1435.8,-1162 1397.74,-1162 1370.83,-1151.46 1370.83,-1136.54 1397.74,-1126 1435.8,-1126 1462.71,-1136.54"/>
<polygon fill="none" stroke="darkgreen" points="1466.72,-1133.82 1466.72,-1154.18 1436.56,-1166 1396.98,-1166 1366.81,-1154.18 1366.81,-1133.82 1396.98,-1122 1436.56,-1122 1466.72,-1133.82"/>
<text text-anchor="middle" x="1416.77" y="-1140.3" font-family="Times,serif" font-size="14.00">Trait(21)</text>
</g>
<!-- Publication(2) -->
<g id="node4" class="node">
<title>Publication(2)</title>
<polygon fill="none" stroke="darkgreen" points="1483.02,-680.54 1483.02,-695.46 1444.21,-706 1389.33,-706 1350.52,-695.46 1350.52,-680.54 1389.33,-670 1444.21,-670 1483.02,-680.54"/>
<polygon fill="none" stroke="darkgreen" points="1487.03,-677.49 1487.03,-698.51 1444.75,-710 1388.79,-710 1346.51,-698.51 1346.51,-677.49 1388.79,-666 1444.75,-666 1487.03,-677.49"/>
<text text-anchor="middle" x="1416.77" y="-684.3" font-family="Times,serif" font-size="14.00">Publication(2)</text>
</g>
<!-- SNPEffect(26) -->
<g id="node5" class="node">
<title>SNPEffect(26)</title>
<polygon fill="none" stroke="darkgreen" points="1266.87,-1058.54 1266.87,-1073.46 1226.76,-1084 1170.04,-1084 1129.94,-1073.46 1129.94,-1058.54 1170.04,-1048 1226.76,-1048 1266.87,-1058.54"/>
<polygon fill="none" stroke="darkgreen" points="1270.88,-1055.46 1270.88,-1076.54 1227.28,-1088 1169.52,-1088 1125.92,-1076.54 1125.92,-1055.46 1169.52,-1044 1227.28,-1044 1270.88,-1055.46"/>
<text text-anchor="middle" x="1198.4" y="-1062.3" font-family="Times,serif" font-size="14.00">SNPEffect(26)</text>
</g>
<!-- EC(15) -->
<g id="node6" class="node">
<title>EC(15)</title>
<polygon fill="none" stroke="darkgreen" points="627.79,-818.54 627.79,-833.46 604.77,-844 572.21,-844 549.19,-833.46 549.19,-818.54 572.21,-808 604.77,-808 627.79,-818.54"/>
<polygon fill="none" stroke="darkgreen" points="631.78,-815.97 631.78,-836.03 605.64,-848 571.35,-848 545.2,-836.03 545.2,-815.97 571.35,-804 605.64,-804 631.78,-815.97"/>
<text text-anchor="middle" x="588.49" y="-822.3" font-family="Times,serif" font-size="14.00">EC(15)</text>
</g>
<!-- MolFunc(3) -->
<g id="node7" class="node">
<title>MolFunc(3)</title>
<polygon fill="none" stroke="darkgreen" points="991.32,-826.54 991.32,-841.46 957.18,-852 908.89,-852 874.75,-841.46 874.75,-826.54 908.89,-816 957.18,-816 991.32,-826.54"/>
<polygon fill="none" stroke="darkgreen" points="995.31,-823.59 995.31,-844.41 957.78,-856 908.29,-856 870.75,-844.41 870.75,-823.59 908.29,-812 957.78,-812 995.31,-823.59"/>
<text text-anchor="middle" x="933.03" y="-830.3" font-family="Times,serif" font-size="14.00">MolFunc(3)</text>
</g>
<!-- Protein(7) -->
<g id="node8" class="node">
<title>Protein(7)</title>
<polygon fill="none" stroke="darkgreen" points="638.39,-398.54 638.39,-413.46 609.16,-424 567.82,-424 538.59,-413.46 538.59,-398.54 567.82,-388 609.16,-388 638.39,-398.54"/>
<polygon fill="none" stroke="darkgreen" points="642.39,-395.73 642.39,-416.27 609.86,-428 567.13,-428 534.6,-416.27 534.6,-395.73 567.13,-384 609.86,-384 642.39,-395.73"/>
<text text-anchor="middle" x="588.49" y="-402.3" font-family="Times,serif" font-size="14.00">Protein(7)</text>
</g>
<!-- Gene(8) -->
<g id="node9" class="node">
<title>Gene(8)</title>
<polygon fill="none" stroke="darkgreen" points="975.87,-573.54 975.87,-588.46 950.78,-599 915.29,-599 890.2,-588.46 890.2,-573.54 915.29,-563 950.78,-563 975.87,-573.54"/>
<polygon fill="none" stroke="darkgreen" points="979.86,-570.88 979.86,-591.12 951.58,-603 914.49,-603 886.21,-591.12 886.21,-570.88 914.49,-559 951.58,-559 979.86,-570.88"/>
<text text-anchor="middle" x="933.03" y="-577.3" font-family="Times,serif" font-size="14.00">Gene(8)</text>
</g>
<!-- Gene(1) -->
<g id="node10" class="node">
<title>Gene(1)</title>
<ellipse fill="none" stroke="red" cx="43.65" cy="-341" rx="39.78" ry="39.78"/>
<ellipse fill="none" stroke="red" cx="43.65" cy="-341" rx="43.79" ry="43.79"/>
<text text-anchor="middle" x="43.65" y="-337.3" font-family="Times,serif" font-size="14.00">Gene(1)</text>
</g>
<!-- Gene(1)&#45;&gt;Trait(21) -->
<g id="edge7" class="edge">
<title>Gene(1)&#45;&gt;Trait(21)</title>
<path fill="none" stroke="blue" d="M45.88,-384.6C49.99,-515.06 65.29,-900.6 105.29,-1019 139.06,-1118.94 132.2,-1216 237.69,-1216 237.69,-1216 237.69,-1216 1199.4,-1216 1268.29,-1216 1343.49,-1182.74 1384.6,-1161.43"/>
<text text-anchor="middle" x="779.41" y="-1219.8" font-family="Times,serif" font-size="14.00">cooc_wi</text>
</g>
<!-- Gene(1)&#45;&gt;Publication(2) -->
<g id="edge15" class="edge">
<title>Gene(1)&#45;&gt;Publication(2)</title>
<path fill="none" stroke="blue" d="M49.01,-297.47C60.86,-205.54 102.48,0 237.69,0 237.69,0 237.69,0 1199.4,0 1342.46,0 1402.51,-548.13 1413.77,-665.89"/>
<text text-anchor="middle" x="779.41" y="-3.8" font-family="Times,serif" font-size="14.00">occ_in</text>
</g>
<!-- Gene(1)&#45;&gt;Protein(7) -->
<g id="edge9" class="edge">
<title>Gene(1)&#45;&gt;Protein(7)</title>
<path fill="none" stroke="blue" d="M86.01,-329.27C162.58,-309.63 330.7,-276.2 463.08,-319 472.47,-322.04 473.03,-326.29 481.08,-332 507.52,-350.74 537.88,-371.81 559.39,-386.66"/>
<text text-anchor="middle" x="238.69" y="-316.8" font-family="Times,serif" font-size="14.00">enc</text>
</g>
<!-- Gene(1)&#45;&gt;Gene(8) -->
<g id="edge12" class="edge">
<title>Gene(1)&#45;&gt;Gene(8)</title>
<path fill="none" stroke="black" d="M87.5,-340.61C143.67,-340.12 245.25,-339.3 332.08,-339 390.3,-338.8 405.06,-334.2 463.08,-339 471.16,-339.67 473.07,-340.72 481.08,-342 576.46,-357.27 617.84,-318.11 695.91,-375 710.36,-385.54 702.63,-397.11 713.91,-411 760.75,-468.72 795.46,-459.49 844.91,-515 855,-526.33 851.84,-533.62 862.91,-544 872.54,-553.03 884.79,-560.53 896.31,-566.36"/>
<text text-anchor="middle" x="397.58" y="-387.8" font-family="Times,serif" font-size="14.00">genetic(&lt;=2)</text>
<text text-anchor="middle" x="397.58" y="-372.8" font-family="Times,serif" font-size="14.00">homoeolog(&lt;=2)</text>
<text text-anchor="middle" x="397.58" y="-357.8" font-family="Times,serif" font-size="14.00">physical(&lt;=2)</text>
<text text-anchor="middle" x="397.58" y="-342.8" font-family="Times,serif" font-size="14.00">regulates(&lt;=2)</text>
</g>
<!-- DGES(22) -->
<g id="node11" class="node">
<title>DGES(22)</title>
<polygon fill="none" stroke="darkgreen" points="985.15,-1004.54 985.15,-1019.46 954.62,-1030 911.45,-1030 880.92,-1019.46 880.92,-1004.54 911.45,-994 954.62,-994 985.15,-1004.54"/>
<polygon fill="none" stroke="darkgreen" points="989.15,-1001.69 989.15,-1022.31 955.29,-1034 910.78,-1034 876.92,-1022.31 876.92,-1001.69 910.78,-990 955.29,-990 989.15,-1001.69"/>
<text text-anchor="middle" x="933.03" y="-1008.3" font-family="Times,serif" font-size="14.00">DGES(22)</text>
</g>
<!-- Gene(1)&#45;&gt;DGES(22) -->
<g id="edge8" class="edge">
<title>Gene(1)&#45;&gt;DGES(22)</title>
<path fill="none" stroke="black" d="M45.84,-384.72C50.48,-520.96 71.99,-934.04 163.29,-1024 247.99,-1107.45 577.02,-1076.6 695.91,-1075 762.15,-1074.11 787.19,-1103.52 844.91,-1071 857.8,-1063.74 851.69,-1052.65 862.91,-1043 870.58,-1036.39 879.9,-1030.96 889.17,-1026.59"/>
<text text-anchor="middle" x="397.58" y="-1084.8" font-family="Times,serif" font-size="14.00">differentially_expressed</text>
</g>
<!-- Reaction(188) -->
<g id="node15" class="node">
<title>Reaction(188)</title>
<polygon fill="none" stroke="darkgreen" points="999.28,-213.54 999.28,-228.46 960.48,-239 905.59,-239 866.79,-228.46 866.79,-213.54 905.59,-203 960.48,-203 999.28,-213.54"/>
<polygon fill="none" stroke="darkgreen" points="1003.29,-210.49 1003.29,-231.51 961.01,-243 905.06,-243 862.78,-231.51 862.78,-210.49 905.06,-199 961.01,-199 1003.29,-210.49"/>
<text text-anchor="middle" x="933.03" y="-217.3" font-family="Times,serif" font-size="14.00">Reaction(188)</text>
</g>
<!-- Gene(1)&#45;&gt;Reaction(188) -->
<g id="edge14" class="edge">
<title>Gene(1)&#45;&gt;Reaction(188)</title>
<path fill="none" stroke="black" d="M83.42,-321.91C137.54,-296.42 239.52,-252.56 332.08,-236 521.56,-202.09 750.02,-209.31 862.52,-215.96"/>
<text text-anchor="middle" x="397.58" y="-239.8" font-family="Times,serif" font-size="14.00">inv_in</text>
</g>
<!-- Path(19) -->
<g id="node16" class="node">
<title>Path(19)</title>
<polygon fill="none" stroke="darkgreen" points="1242.56,-198.54 1242.56,-213.46 1216.69,-224 1180.11,-224 1154.25,-213.46 1154.25,-198.54 1180.11,-188 1216.69,-188 1242.56,-198.54"/>
<polygon fill="none" stroke="darkgreen" points="1246.54,-195.85 1246.54,-216.15 1217.47,-228 1179.33,-228 1150.26,-216.15 1150.26,-195.85 1179.33,-184 1217.47,-184 1246.54,-195.85"/>
<text text-anchor="middle" x="1198.4" y="-202.3" font-family="Times,serif" font-size="14.00">Path(19)</text>
</g>
<!-- Gene(1)&#45;&gt;Path(19) -->
<g id="edge17" class="edge">
<title>Gene(1)&#45;&gt;Path(19)</title>
<path fill="none" stroke="blue" d="M65.29,-303.05C95.8,-252.67 157.99,-170 237.69,-170 237.69,-170 237.69,-170 934.03,-170 1010.41,-170 1098.11,-185.05 1150.57,-195.68"/>
<text text-anchor="middle" x="588.49" y="-173.8" font-family="Times,serif" font-size="14.00">part_of</text>
</g>
<!-- SNP(20) -->
<g id="node19" class="node">
<title>SNP(20)</title>
<ellipse fill="none" stroke="black" cx="933.03" cy="-1070" rx="41.69" ry="18"/>
<text text-anchor="middle" x="933.03" y="-1066.3" font-family="Times,serif" font-size="14.00">SNP(20)</text>
</g>
<!-- Gene(1)&#45;&gt;SNP(20) -->
<g id="edge13" class="edge">
<title>Gene(1)&#45;&gt;SNP(20)</title>
<path fill="none" stroke="blue" d="M44.31,-384.68C44.29,-528.49 53.06,-982.54 163.29,-1063 397.5,-1233.95 787.83,-1119.79 900.63,-1081.32"/>
<text text-anchor="middle" x="397.58" y="-1171.8" font-family="Times,serif" font-size="14.00">has_mutant</text>
<text text-anchor="middle" x="397.58" y="-1156.8" font-family="Times,serif" font-size="14.00">has_variation</text>
</g>
<!-- Protein(10) -->
<g id="node22" class="node">
<title>Protein(10)</title>
<ellipse fill="none" stroke="black" cx="238.69" cy="-666" rx="50.89" ry="18"/>
<text text-anchor="middle" x="238.69" y="-662.3" font-family="Times,serif" font-size="14.00">Protein(10)</text>
</g>
<!-- Gene(1)&#45;&gt;Protein(10) -->
<g id="edge10" class="edge">
<title>Gene(1)&#45;&gt;Protein(10)</title>
<path fill="none" stroke="black" d="M66.79,-378.28C108.38,-448.31 196.74,-597.06 227.14,-648.25"/>
<text text-anchor="middle" x="125.29" y="-506.8" font-family="Times,serif" font-size="14.00">enc</text>
</g>
<!-- Gene(9) -->
<g id="node23" class="node">
<title>Gene(9)</title>
<ellipse fill="none" stroke="black" cx="588.49" cy="-1000" rx="39.79" ry="18"/>
<text text-anchor="middle" x="588.49" y="-996.3" font-family="Times,serif" font-size="14.00">Gene(9)</text>
</g>
<!-- Gene(1)&#45;&gt;Gene(9) -->
<g id="edge11" class="edge">
<title>Gene(1)&#45;&gt;Gene(9)</title>
<path fill="none" stroke="blue" d="M50.28,-384.15C62.06,-464.27 94.14,-639.81 163.29,-771 217.53,-873.89 229.53,-916.11 332.08,-971 401.72,-1008.28 497.16,-1007.87 549.43,-1004.07"/>
<text text-anchor="middle" x="238.69" y="-1008.8" font-family="Times,serif" font-size="14.00">genetic(&lt;=2)</text>
<text text-anchor="middle" x="238.69" y="-993.8" font-family="Times,serif" font-size="14.00">homoeolog(&lt;=2)</text>
<text text-anchor="middle" x="238.69" y="-978.8" font-family="Times,serif" font-size="14.00">physical(&lt;=2)</text>
<text text-anchor="middle" x="238.69" y="-963.8" font-family="Times,serif" font-size="14.00">regulates(&lt;=2)</text>
</g>
<!-- CoExpCluster(23) -->
<g id="node24" class="node">
<title>CoExpCluster(23)</title>
<ellipse fill="none" stroke="black" cx="238.69" cy="-118" rx="75.29" ry="18"/>
<text text-anchor="middle" x="238.69" y="-114.3" font-family="Times,serif" font-size="14.00">CoExpCluster(23)</text>
</g>
<!-- Gene(1)&#45;&gt;CoExpCluster(23) -->
<g id="edge16" class="edge">
<title>Gene(1)&#45;&gt;CoExpCluster(23)</title>
<path fill="none" stroke="black" d="M45.25,-297.35C48.37,-251.42 60.72,-180.42 105.29,-141 121.19,-126.93 142.52,-119.96 163.4,-116.82"/>
<text text-anchor="middle" x="125.29" y="-144.8" font-family="Times,serif" font-size="14.00">part_of</text>
</g>
<!-- CelComp(5) -->
<g id="node12" class="node">
<title>CelComp(5)</title>
<polygon fill="none" stroke="darkgreen" points="992.64,-712.54 992.64,-727.46 957.72,-738 908.34,-738 873.43,-727.46 873.43,-712.54 908.34,-702 957.72,-702 992.64,-712.54"/>
<polygon fill="none" stroke="darkgreen" points="996.63,-709.57 996.63,-730.43 958.31,-742 907.76,-742 869.44,-730.43 869.44,-709.57 907.76,-698 958.31,-698 996.63,-709.57"/>
<text text-anchor="middle" x="933.03" y="-716.3" font-family="Times,serif" font-size="14.00">CelComp(5)</text>
</g>
<!-- BioProc(4) -->
<g id="node13" class="node">
<title>BioProc(4)</title>
<polygon fill="none" stroke="darkgreen" points="987.36,-505.54 987.36,-520.46 955.54,-531 910.53,-531 878.71,-520.46 878.71,-505.54 910.53,-495 955.54,-495 987.36,-505.54"/>
<polygon fill="none" stroke="darkgreen" points="991.37,-502.66 991.37,-523.34 956.19,-535 909.88,-535 874.7,-523.34 874.7,-502.66 909.88,-491 956.19,-491 991.37,-502.66"/>
<text text-anchor="middle" x="933.03" y="-509.3" font-family="Times,serif" font-size="14.00">BioProc(4)</text>
</g>
<!-- ProtDomain(14) -->
<g id="node14" class="node">
<title>ProtDomain(14)</title>
<polygon fill="none" stroke="darkgreen" points="663.13,-549.54 663.13,-564.46 619.41,-575 557.58,-575 513.86,-564.46 513.86,-549.54 557.58,-539 619.41,-539 663.13,-549.54"/>
<polygon fill="none" stroke="darkgreen" points="667.13,-546.39 667.13,-567.61 619.88,-579 557.1,-579 509.85,-567.61 509.85,-546.39 557.1,-535 619.88,-535 667.13,-546.39"/>
<text text-anchor="middle" x="588.49" y="-553.3" font-family="Times,serif" font-size="14.00">ProtDomain(14)</text>
</g>
<!-- PlantOntologyTerm(24) -->
<g id="node17" class="node">
<title>PlantOntologyTerm(24)</title>
<polygon fill="none" stroke="darkgreen" points="691.82,-104.54 691.82,-119.46 631.29,-130 545.69,-130 485.16,-119.46 485.16,-104.54 545.69,-94 631.29,-94 691.82,-104.54"/>
<polygon fill="none" stroke="darkgreen" points="695.82,-101.18 695.82,-122.82 631.64,-134 545.35,-134 481.17,-122.82 481.17,-101.18 545.35,-90 631.64,-90 695.82,-101.18"/>
<text text-anchor="middle" x="588.49" y="-108.3" font-family="Times,serif" font-size="14.00">PlantOntologyTerm(24)</text>
</g>
<!-- CoExpStudy(25) -->
<g id="node18" class="node">
<title>CoExpStudy(25)</title>
<polygon fill="none" stroke="darkgreen" points="664.45,-42.54 664.45,-57.46 619.95,-68 557.03,-68 512.54,-57.46 512.54,-42.54 557.03,-32 619.95,-32 664.45,-42.54"/>
<polygon fill="none" stroke="darkgreen" points="668.45,-39.38 668.45,-60.62 620.42,-72 556.56,-72 508.54,-60.62 508.54,-39.38 556.56,-28 620.42,-28 668.45,-39.38"/>
<text text-anchor="middle" x="588.49" y="-46.3" font-family="Times,serif" font-size="14.00">CoExpStudy(25)</text>
</g>
<!-- SNP(20)&#45;&gt;Phenotype(13) -->
<g id="edge1" class="edge">
<title>SNP(20)&#45;&gt;Phenotype(13)</title>
<path fill="none" stroke="black" d="M970.38,-1078C1013.35,-1087.47 1085.5,-1103.36 1136.93,-1114.68"/>
<text text-anchor="middle" x="1064.66" y="-1110.8" font-family="Times,serif" font-size="14.00">associated_with</text>
</g>
<!-- SNP(20)&#45;&gt;SNPEffect(26) -->
<g id="edge3" class="edge">
<title>SNP(20)&#45;&gt;SNPEffect(26)</title>
<path fill="none" stroke="black" d="M974.61,-1069.38C1014.87,-1068.77 1077.4,-1067.82 1125.99,-1067.08"/>
<text text-anchor="middle" x="1064.66" y="-1071.8" font-family="Times,serif" font-size="14.00">leads_to</text>
</g>
<!-- Phenotype(133) -->
<g id="node20" class="node">
<title>Phenotype(133)</title>
<ellipse fill="none" stroke="black" cx="1198.4" cy="-1008" rx="66.89" ry="18"/>
<text text-anchor="middle" x="1198.4" y="-1004.3" font-family="Times,serif" font-size="14.00">Phenotype(133)</text>
</g>
<!-- SNP(20)&#45;&gt;Phenotype(133) -->
<g id="edge2" class="edge">
<title>SNP(20)&#45;&gt;Phenotype(133)</title>
<path fill="none" stroke="blue" d="M969.17,-1060.92C985.03,-1056.88 1004.02,-1052.11 1021.16,-1048 1063.12,-1037.94 1110.84,-1027.15 1146.04,-1019.31"/>
<text text-anchor="middle" x="1064.66" y="-1051.8" font-family="Times,serif" font-size="14.00">associated_with</text>
</g>
<!-- Phenotype(133)&#45;&gt;Trait(21) -->
<g id="edge4" class="edge">
<title>Phenotype(133)&#45;&gt;Trait(21)</title>
<path fill="none" stroke="black" d="M1241.72,-1021.79C1251.46,-1025.57 1261.6,-1030.02 1270.64,-1035 1317.02,-1060.53 1365.03,-1099.49 1392.55,-1123.27"/>
<text text-anchor="middle" x="1308.64" y="-1072.8" font-family="Times,serif" font-size="14.00">part_of</text>
</g>
<!-- Phenotype(133)&#45;&gt;Publication(2) -->
<g id="edge5" class="edge">
<title>Phenotype(133)&#45;&gt;Publication(2)</title>
<path fill="none" stroke="blue" d="M1241.92,-994.19C1270.05,-983.07 1305.82,-964.82 1328.64,-938 1387.61,-868.68 1407.48,-757.04 1413.46,-710.01"/>
<text text-anchor="middle" x="1308.64" y="-973.8" font-family="Times,serif" font-size="14.00">pub_in</text>
</g>
<!-- EC(12) -->
<g id="node21" class="node">
<title>EC(12)</title>
<ellipse fill="none" stroke="black" cx="588.49" cy="-946" rx="36.29" ry="18"/>
<text text-anchor="middle" x="588.49" y="-942.3" font-family="Times,serif" font-size="14.00">EC(12)</text>
</g>
<!-- EC(12)&#45;&gt;MolFunc(3) -->
<g id="edge6" class="edge">
<title>EC(12)&#45;&gt;MolFunc(3)</title>
<path fill="none" stroke="blue" d="M625.03,-945.2C647.82,-942.89 676.65,-936.36 695.91,-919 713.14,-903.47 696.03,-884.79 713.91,-870 716.97,-867.47 807.23,-853.16 870.67,-843.37"/>
<text text-anchor="middle" x="779.41" y="-873.8" font-family="Times,serif" font-size="14.00">equ</text>
</g>
<!-- Protein(10)&#45;&gt;Enzyme(177) -->
<g id="edge29" class="edge">
<title>Protein(10)&#45;&gt;Enzyme(177)</title>
<path fill="none" stroke="black" d="M243.61,-684.16C252.48,-720.5 277.68,-802.1 332.08,-842 361.37,-863.48 455.1,-876.15 520.47,-882.59"/>
<text text-anchor="middle" x="397.58" y="-877.8" font-family="Times,serif" font-size="14.00">is_a</text>
</g>
<!-- Protein(10)&#45;&gt;Trait(21) -->
<g id="edge20" class="edge">
<title>Protein(10)&#45;&gt;Trait(21)</title>
<path fill="none" stroke="blue" d="M257.03,-683.16C274.78,-701.94 301.5,-733.81 314.08,-767 345.71,-850.45 287.99,-889.4 332.08,-967 372.48,-1038.11 405.08,-1044.79 481.08,-1075 798.61,-1201.22 1224.16,-1166.79 1366.83,-1150.34"/>
<text text-anchor="middle" x="933.03" y="-1169.8" font-family="Times,serif" font-size="14.00">cooc_wi</text>
</g>
<!-- Protein(10)&#45;&gt;Publication(2) -->
<g id="edge32" class="edge">
<title>Protein(10)&#45;&gt;Publication(2)</title>
<path fill="none" stroke="blue" d="M244.64,-648C254.82,-614.81 281.51,-544.49 332.08,-513 395.52,-473.49 930.67,-448.81 1003.16,-467 1160.4,-506.46 1323.15,-618.63 1387.32,-666.22"/>
<text text-anchor="middle" x="933.03" y="-470.8" font-family="Times,serif" font-size="14.00">pub_in</text>
</g>
<!-- Protein(10)&#45;&gt;EC(15) -->
<g id="edge18" class="edge">
<title>Protein(10)&#45;&gt;EC(15)</title>
<path fill="none" stroke="blue" d="M248.12,-684C261.7,-710.83 291.13,-760.73 332.08,-785 398.73,-824.49 491.53,-829.38 544.97,-828.36"/>
<text text-anchor="middle" x="397.58" y="-826.8" font-family="Times,serif" font-size="14.00">cat_c</text>
</g>
<!-- Protein(10)&#45;&gt;MolFunc(3) -->
<g id="edge27" class="edge">
<title>Protein(10)&#45;&gt;MolFunc(3)</title>
<path fill="none" stroke="black" d="M269.51,-680.35C287.34,-688.48 310.63,-698.33 332.08,-705 489.74,-754 534.47,-745.42 695.91,-780 703.92,-781.72 705.9,-782.25 713.91,-784 772.08,-796.68 786.92,-798.49 844.91,-812 856.3,-814.66 868.5,-817.64 880.05,-820.54"/>
<text text-anchor="middle" x="588.49" y="-783.8" font-family="Times,serif" font-size="14.00">has_function</text>
</g>
<!-- Protein(10)&#45;&gt;Protein(7) -->
<g id="edge24" class="edge">
<title>Protein(10)&#45;&gt;Protein(7)</title>
<path fill="none" stroke="blue" d="M240.43,-647.98C243.39,-601.98 258.19,-479.95 332.08,-425 362.99,-402.01 469.04,-401.44 534.37,-403.47"/>
<text text-anchor="middle" x="397.58" y="-473.8" font-family="Times,serif" font-size="14.00">equivalent(&lt;=4)</text>
<text text-anchor="middle" x="397.58" y="-458.8" font-family="Times,serif" font-size="14.00">h_s_s(&lt;=4)</text>
<text text-anchor="middle" x="397.58" y="-443.8" font-family="Times,serif" font-size="14.00">ortho(&lt;=4)</text>
<text text-anchor="middle" x="397.58" y="-428.8" font-family="Times,serif" font-size="14.00">xref(&lt;=8)</text>
</g>
<!-- Protein(10)&#45;&gt;Gene(8) -->
<g id="edge21" class="edge">
<title>Protein(10)&#45;&gt;Gene(8)</title>
<path fill="none" stroke="black" d="M284.07,-657.61C332.42,-648.64 412.08,-634.29 481.08,-624 584.22,-608.61 610.09,-604.79 713.91,-595 773.22,-589.41 841.82,-585.41 886.01,-583.15"/>
<text text-anchor="middle" x="588.49" y="-627.8" font-family="Times,serif" font-size="14.00">enc</text>
</g>
<!-- Protein(10)&#45;&gt;CelComp(5) -->
<g id="edge30" class="edge">
<title>Protein(10)&#45;&gt;CelComp(5)</title>
<path fill="none" stroke="blue" d="M281.32,-675.89C297.13,-679.3 315.36,-682.8 332.08,-685 526.82,-710.57 759.58,-717.46 869.13,-719.32"/>
<text text-anchor="middle" x="588.49" y="-716.8" font-family="Times,serif" font-size="14.00">located_in</text>
</g>
<!-- Protein(10)&#45;&gt;BioProc(4) -->
<g id="edge31" class="edge">
<title>Protein(10)&#45;&gt;BioProc(4)</title>
<path fill="none" stroke="black" d="M249.38,-648.04C263.95,-622.75 293.91,-576.96 332.08,-552 389.56,-514.41 413.01,-520.19 481.08,-511 575.7,-498.22 600.43,-510.6 695.91,-511 756.99,-511.26 826.96,-511.89 874.78,-512.38"/>
<text text-anchor="middle" x="588.49" y="-514.8" font-family="Times,serif" font-size="14.00">participates_in</text>
</g>
<!-- Protein(10)&#45;&gt;ProtDomain(14) -->
<g id="edge26" class="edge">
<title>Protein(10)&#45;&gt;ProtDomain(14)</title>
<path fill="none" stroke="blue" d="M253.96,-648.53C270.55,-629.59 299.82,-600.15 332.08,-586 388.17,-561.4 457.53,-554.84 509.81,-554.05"/>
<text text-anchor="middle" x="397.58" y="-589.8" font-family="Times,serif" font-size="14.00">has_domain</text>
</g>
<!-- Protein(10)&#45;&gt;EC(12) -->
<g id="edge19" class="edge">
<title>Protein(10)&#45;&gt;EC(12)</title>
<path fill="none" stroke="black" d="M241.34,-684.03C246.33,-727.27 265.29,-837.27 332.08,-891 378.14,-928.05 405.42,-900.96 463.08,-914 471.18,-915.83 473.06,-916.87 481.08,-919 505.95,-925.61 534.18,-932.75 555.31,-938.03"/>
<text text-anchor="middle" x="397.58" y="-917.8" font-family="Times,serif" font-size="14.00">cat_c</text>
</g>
<!-- Protein(10)&#45;&gt;Protein(10) -->
<g id="edge23" class="edge">
<title>Protein(10)&#45;&gt;Protein(10)</title>
<path fill="none" stroke="black" d="M219,-682.66C214.62,-692.62 221.19,-702 238.69,-702 256.19,-702 262.75,-692.62 258.37,-682.66"/>
<text text-anchor="middle" x="238.69" y="-750.8" font-family="Times,serif" font-size="14.00">equivalent(&lt;=4)</text>
<text text-anchor="middle" x="238.69" y="-735.8" font-family="Times,serif" font-size="14.00">h_s_s(&lt;=4)</text>
<text text-anchor="middle" x="238.69" y="-720.8" font-family="Times,serif" font-size="14.00">ortho(&lt;=4)</text>
<text text-anchor="middle" x="238.69" y="-705.8" font-family="Times,serif" font-size="14.00">xref(&lt;=8)</text>
</g>
<!-- Protein(10)&#45;&gt;Gene(9) -->
<g id="edge22" class="edge">
<title>Protein(10)&#45;&gt;Gene(9)</title>
<path fill="none" stroke="blue" d="M240.15,-684.1C242.42,-732.24 255.68,-864.2 332.08,-929 377.16,-967.23 411.72,-922.73 463.08,-952 473.76,-958.09 470.63,-966.52 481.08,-973 501.73,-985.81 528.21,-992.56 549.58,-996.11"/>
<text text-anchor="middle" x="397.58" y="-955.8" font-family="Times,serif" font-size="14.00">enc</text>
</g>
<!-- ProtDomain(11) -->
<g id="node25" class="node">
<title>ProtDomain(11)</title>
<ellipse fill="none" stroke="black" cx="588.49" cy="-666" rx="68.79" ry="18"/>
<text text-anchor="middle" x="588.49" y="-662.3" font-family="Times,serif" font-size="14.00">ProtDomain(11)</text>
</g>
<!-- Protein(10)&#45;&gt;ProtDomain(11) -->
<g id="edge25" class="edge">
<title>Protein(10)&#45;&gt;ProtDomain(11)</title>
<path fill="none" stroke="black" d="M289.52,-666C349.91,-666 451.95,-666 519.52,-666"/>
<text text-anchor="middle" x="397.58" y="-669.8" font-family="Times,serif" font-size="14.00">has_domain</text>
</g>
<!-- Enzyme(17) -->
<g id="node26" class="node">
<title>Enzyme(17)</title>
<ellipse fill="none" stroke="black" cx="588.49" cy="-259" rx="54.69" ry="18"/>
<text text-anchor="middle" x="588.49" y="-255.3" font-family="Times,serif" font-size="14.00">Enzyme(17)</text>
</g>
<!-- Protein(10)&#45;&gt;Enzyme(17) -->
<g id="edge28" class="edge">
<title>Protein(10)&#45;&gt;Enzyme(17)</title>
<path fill="none" stroke="blue" d="M241.76,-647.62C249.69,-580.78 280.24,-352.07 332.08,-304 387.38,-252.72 479.66,-249.28 536.85,-253.03"/>
<text text-anchor="middle" x="397.58" y="-307.8" font-family="Times,serif" font-size="14.00">is_a</text>
</g>
<!-- Gene(9)&#45;&gt;Trait(21) -->
<g id="edge33" class="edge">
<title>Gene(9)&#45;&gt;Trait(21)</title>
<path fill="none" stroke="black" d="M626.07,-993.69C758.17,-971.67 1209.19,-903.39 1328.64,-976 1381.56,-1008.17 1403.79,-1084.05 1411.83,-1121.83"/>
<text text-anchor="middle" x="1064.66" y="-949.8" font-family="Times,serif" font-size="14.00">cooc_wi</text>
</g>
<!-- Gene(9)&#45;&gt;Publication(2) -->
<g id="edge41" class="edge">
<title>Gene(9)&#45;&gt;Publication(2)</title>
<path fill="none" stroke="black" d="M626.76,-994.44C647.8,-990.36 674.16,-983.63 695.91,-973 705.01,-968.55 704.85,-963.54 713.91,-959 767.89,-931.94 787.4,-941.4 844.91,-923 1050.08,-857.34 1284.99,-749.91 1376.45,-706.79"/>
<text text-anchor="middle" x="1064.66" y="-862.8" font-family="Times,serif" font-size="14.00">pub_in</text>
</g>
<!-- Gene(9)&#45;&gt;MolFunc(3) -->
<g id="edge37" class="edge">
<title>Gene(9)&#45;&gt;MolFunc(3)</title>
<path fill="none" stroke="black" d="M628.32,-999.44C650.82,-997.07 678.13,-990.4 695.91,-973 717.33,-952.03 691.71,-928.15 713.91,-908 757.67,-868.26 789.41,-905.36 844.91,-885 865.47,-877.45 886.73,-865.12 903.1,-854.47"/>
<text text-anchor="middle" x="779.41" y="-911.8" font-family="Times,serif" font-size="14.00">has_function</text>
</g>
<!-- Gene(9)&#45;&gt;Gene(8) -->
<g id="edge35" class="edge">
<title>Gene(9)&#45;&gt;Gene(8)</title>
<path fill="none" stroke="black" d="M628.25,-1000.7C651.45,-998.89 679.54,-992.36 695.91,-973 727.58,-935.55 680.72,-789.12 713.91,-753 753.85,-709.52 798.49,-767.48 844.91,-731 860.87,-718.45 853.4,-706.95 862.91,-689 879.27,-658.11 901.56,-624.49 916.36,-603.11"/>
<text text-anchor="middle" x="779.41" y="-771.8" font-family="Times,serif" font-size="14.00">genetic(&lt;=8)</text>
<text text-anchor="middle" x="779.41" y="-756.8" font-family="Times,serif" font-size="14.00">physical(&lt;=8)</text>
</g>
<!-- Gene(9)&#45;&gt;DGES(22) -->
<g id="edge34" class="edge">
<title>Gene(9)&#45;&gt;DGES(22)</title>
<path fill="none" stroke="blue" d="M628.12,-1001.35C688.92,-1003.48 807.19,-1007.63 876.91,-1010.07"/>
<text text-anchor="middle" x="779.41" y="-1011.8" font-family="Times,serif" font-size="14.00">differentially_expressed</text>
</g>
<!-- Gene(9)&#45;&gt;CelComp(5) -->
<g id="edge39" class="edge">
<title>Gene(9)&#45;&gt;CelComp(5)</title>
<path fill="none" stroke="black" d="M628.23,-1000.43C651.28,-998.51 679.2,-991.94 695.91,-973 738.87,-924.3 672.3,-877.86 713.91,-828 753,-781.16 790.78,-815.14 844.91,-787 868.1,-774.94 891.42,-756.6 908.09,-742.16"/>
<text text-anchor="middle" x="779.41" y="-831.8" font-family="Times,serif" font-size="14.00">located_in</text>
</g>
<!-- Gene(9)&#45;&gt;BioProc(4) -->
<g id="edge40" class="edge">
<title>Gene(9)&#45;&gt;BioProc(4)</title>
<path fill="none" stroke="blue" d="M628.16,-1000.86C651.49,-999.14 679.73,-992.64 695.91,-973 741.75,-917.33 665.22,-702.2 713.91,-649 753.62,-605.6 801.73,-669.96 844.91,-630 871.65,-605.24 840.84,-579.01 862.91,-550 869.83,-540.9 879.65,-533.79 889.73,-528.34"/>
<text text-anchor="middle" x="779.41" y="-652.8" font-family="Times,serif" font-size="14.00">participates_in</text>
</g>
<!-- Gene(9)&#45;&gt;SNP(20) -->
<g id="edge38" class="edge">
<title>Gene(9)&#45;&gt;SNP(20)</title>
<path fill="none" stroke="blue" d="M624.31,-1007.74C649.24,-1013.24 683.61,-1020.73 713.91,-1027 777.22,-1040.11 851.06,-1054.47 894.55,-1062.84"/>
<text text-anchor="middle" x="779.41" y="-1055.8" font-family="Times,serif" font-size="14.00">has_variation</text>
</g>
<!-- Gene(9)&#45;&gt;Gene(9) -->
<g id="edge36" class="edge">
<title>Gene(9)&#45;&gt;Gene(9)</title>
<path fill="none" stroke="blue" d="M559.21,-1012.54C544.96,-1023.87 554.72,-1036 588.49,-1036 622.26,-1036 632.02,-1023.87 617.78,-1012.54"/>
<text text-anchor="middle" x="588.49" y="-1054.8" font-family="Times,serif" font-size="14.00">genetic(&lt;=8)</text>
<text text-anchor="middle" x="588.49" y="-1039.8" font-family="Times,serif" font-size="14.00">physical(&lt;=8)</text>
</g>
<!-- CoExpCluster(23)&#45;&gt;BioProc(4) -->
<g id="edge48" class="edge">
<title>CoExpCluster(23)&#45;&gt;BioProc(4)</title>
<path fill="none" stroke="black" d="M286.98,-131.88C345.25,-149.9 439.46,-182.32 463.08,-210 485.61,-236.41 456,-262 481.08,-286 551.31,-353.2 608.38,-284.71 695.91,-327 784.15,-369.64 783.64,-413.36 862.91,-471 874.26,-479.26 887.3,-487.47 898.96,-494.42"/>
<text text-anchor="middle" x="588.49" y="-330.8" font-family="Times,serif" font-size="14.00">enriched_for</text>
</g>
<!-- CoExpCluster(23)&#45;&gt;PlantOntologyTerm(24) -->
<g id="edge49" class="edge">
<title>CoExpCluster(23)&#45;&gt;PlantOntologyTerm(24)</title>
<path fill="none" stroke="blue" d="M314.3,-116.71C362.9,-115.87 427.07,-114.77 481,-113.84"/>
<text text-anchor="middle" x="397.58" y="-120.8" font-family="Times,serif" font-size="14.00">enriched_for</text>
</g>
<!-- CoExpCluster(23)&#45;&gt;CoExpStudy(25) -->
<g id="edge50" class="edge">
<title>CoExpCluster(23)&#45;&gt;CoExpStudy(25)</title>
<path fill="none" stroke="black" d="M291.86,-105.04C304.96,-101.94 319.01,-98.73 332.08,-96 393.27,-83.21 463.16,-70.78 514.35,-62.06"/>
<text text-anchor="middle" x="397.58" y="-99.8" font-family="Times,serif" font-size="14.00">part_of</text>
</g>
<!-- ProtDomain(11)&#45;&gt;MolFunc(3) -->
<g id="edge42" class="edge">
<title>ProtDomain(11)&#45;&gt;MolFunc(3)</title>
<path fill="none" stroke="black" d="M657.01,-663.68C712.61,-665.14 790.82,-675.35 844.91,-716 858.89,-726.51 853.25,-736.41 862.91,-751 877.4,-772.89 896.71,-795.66 911.24,-811.8"/>
<text text-anchor="middle" x="779.41" y="-719.8" font-family="Times,serif" font-size="14.00">has_function</text>
</g>
<!-- ProtDomain(11)&#45;&gt;CelComp(5) -->
<g id="edge43" class="edge">
<title>ProtDomain(11)&#45;&gt;CelComp(5)</title>
<path fill="none" stroke="blue" d="M644.31,-655.36C661.63,-650.5 680.3,-643.61 695.91,-634 705.81,-627.9 703.22,-619.6 713.91,-615 767.39,-591.99 792.21,-590.25 844.91,-615 881.14,-632.02 907.51,-672.33 921.24,-697.76"/>
<text text-anchor="middle" x="779.41" y="-618.8" font-family="Times,serif" font-size="14.00">located_in</text>
</g>
<!-- ProtDomain(11)&#45;&gt;BioProc(4) -->
<g id="edge44" class="edge">
<title>ProtDomain(11)&#45;&gt;BioProc(4)</title>
<path fill="none" stroke="black" d="M650.9,-658.19C667.24,-653.47 683.72,-645.96 695.91,-634 714.57,-615.69 695.22,-596.29 713.91,-578 756.83,-535.99 825.68,-520.95 874.54,-515.66"/>
<text text-anchor="middle" x="779.41" y="-581.8" font-family="Times,serif" font-size="14.00">participates_in</text>
</g>
<!-- Enzyme(17)&#45;&gt;Reaction(188) -->
<g id="edge45" class="edge">
<title>Enzyme(17)&#45;&gt;Reaction(188)</title>
<path fill="none" stroke="blue" d="M640.41,-253.35C699.39,-246.81 796.89,-235.99 862.75,-228.69"/>
<text text-anchor="middle" x="779.41" y="-248.8" font-family="Times,serif" font-size="14.00">ca_by</text>
</g>
<!-- Reaction(18) -->
<g id="node27" class="node">
<title>Reaction(18)</title>
<ellipse fill="none" stroke="black" cx="933.03" cy="-281" rx="56.59" ry="18"/>
<text text-anchor="middle" x="933.03" y="-277.3" font-family="Times,serif" font-size="14.00">Reaction(18)</text>
</g>
<!-- Enzyme(17)&#45;&gt;Reaction(18) -->
<g id="edge46" class="edge">
<title>Enzyme(17)&#45;&gt;Reaction(18)</title>
<path fill="none" stroke="black" d="M642.26,-262.39C706.07,-266.49 812.92,-273.35 877.5,-277.5"/>
<text text-anchor="middle" x="779.41" y="-279.8" font-family="Times,serif" font-size="14.00">ca_by</text>
</g>
<!-- Reaction(18)&#45;&gt;Path(19) -->
<g id="edge47" class="edge">
<title>Reaction(18)&#45;&gt;Path(19)</title>
<path fill="none" stroke="blue" d="M975.77,-269.12C1024.65,-255.2 1105.2,-232.26 1154.56,-218.2"/>
<text text-anchor="middle" x="1064.66" y="-258.8" font-family="Times,serif" font-size="14.00">part_of</text>
</g>
</g>
</svg>
