<svg width="457" height="110" viewBox="0 0 457 110" fill="none" xmlns="http://www.w3.org/2000/svg">
<g clip-path="url(#clip0)">
<path d="M30.4648 109.828C30.4648 109.828 30.6367 109.828 30.8086 110H4.16797C4.16797 108.109 2.62109 106.563 0.730469 106.563V87.1407C2.10547 87.1407 3.30859 86.9688 4.68359 86.6251C9.32422 94.8751 17.5742 105.188 30.4648 109.828ZM74.1211 80.0938C70.3398 80.0938 67.2461 77.0001 67.2461 73.2188C67.2461 73.0469 67.2461 72.7032 67.2461 72.5313C61.2305 71.6719 56.0742 73.0469 51.4336 74.4219C50.0586 74.7657 48.8555 75.1094 47.4805 75.4532C46.4492 80.0938 42.3242 83.5313 37.3398 83.5313C31.668 83.5313 27.0273 78.8907 27.0273 73.2188C27.0273 71.8438 27.1992 70.6407 27.7148 69.4376C20.668 61.5313 12.9336 45.2032 2.96484 13.5782C2.27734 13.7501 1.58984 13.7501 0.730469 13.7501V33.1719C2.62109 33.1719 4.16797 34.7188 4.16797 36.6094C4.16797 38.5001 2.62109 40.0469 0.730469 40.0469V59.4688C8.29297 59.4688 14.4805 65.6563 14.4805 73.2188C14.4805 78.2032 11.9023 82.5001 7.94922 84.9063C12.418 92.6407 19.9805 102.094 31.4961 106.391C32.6992 104.328 34.9336 102.953 37.5117 102.953C41.293 102.953 44.3867 106.047 44.3867 109.828H63.8086C63.8086 104.156 68.4492 99.5157 74.1211 99.5157C74.293 99.5157 74.293 99.5157 74.4648 99.5157C75.4961 91.7813 75.4961 85.4219 74.4648 79.9219C74.293 80.0938 74.1211 80.0938 74.1211 80.0938ZM79.4492 77.5157C78.9336 78.2032 78.2461 78.7188 77.5586 79.2344C78.5898 85.0782 78.7617 92.1251 77.5586 100.375C81.5117 101.922 84.0898 105.703 84.0898 110H96.9805C96.9805 105.875 98.6992 102.266 101.449 99.8594C93.0273 88.5157 85.8086 81.6407 79.4492 77.5157ZM37.3398 63.0782C42.4961 63.0782 46.9648 67.0313 47.4805 72.0157C48.3398 71.8438 49.3711 71.5001 50.2305 71.1563C55.5586 69.6094 61.4023 67.8907 68.2773 69.0938C68.6211 68.5782 69.1367 68.0626 69.6523 67.7188C64.668 59.1251 56.5898 54.3126 49.543 50.0157C45.5898 47.7813 42.1523 45.5469 39.4023 42.9688C38.7148 43.3126 37.8555 43.3126 37.168 43.3126C33.3867 43.3126 30.293 40.2188 30.293 36.4376C30.293 34.0313 31.4961 31.9688 33.3867 30.7657C31.668 23.3751 32.1836 15.8126 33.043 9.96881C29.4336 8.42194 26.8555 4.81256 26.8555 0.515686C26.8555 0.171936 26.8555 6.10352e-05 26.8555 -0.171814H14.4805C14.4805 5.50006 11.043 10.3126 6.40234 12.3751C16.0273 42.9688 23.2461 58.7813 29.7773 66.3438C31.668 64.4532 34.2461 63.0782 37.3398 63.0782ZM107.293 6.10352e-05H80.9961C80.9961 0.171936 80.9961 0.515686 80.9961 0.687561C80.9961 4.46881 77.9023 7.56256 74.1211 7.56256C73.9492 7.56256 73.7773 7.56256 73.4336 7.56256C71.1992 15.4688 70.3398 21.8282 71.0273 26.8126C72.0586 26.4688 73.0898 26.2969 74.1211 26.2969C79.793 26.2969 84.4336 30.9376 84.4336 36.6094C84.4336 37.8126 84.2617 39.0157 83.918 40.0469C88.2148 40.5626 93.0273 40.0469 97.3242 39.0157C96.9805 38.3282 96.9805 37.4688 96.9805 36.6094C96.9805 29.0469 103.168 22.8594 110.73 22.8594V3.43756C108.84 3.43756 107.293 1.89069 107.293 6.10352e-05ZM98.1836 42.4532C94.7461 43.1407 90.9648 43.8282 87.3555 43.8282C85.4648 43.8282 83.7461 43.6563 82.0273 43.3126C80.1367 45.5469 77.2148 46.9219 74.1211 46.9219C68.4492 46.9219 63.8086 42.2813 63.8086 36.6094C63.8086 33.3438 65.3555 30.2501 67.7617 28.3594C66.9023 22.5157 67.5898 15.2969 70.168 6.35944C68.2773 5.15631 67.0742 3.09381 67.0742 0.687561C67.0742 0.343811 67.0742 0.171936 67.0742 6.10352e-05H47.6523C47.6523 0.171936 47.6523 0.515686 47.6523 0.687561C47.6523 6.35944 43.0117 11.0001 37.3398 11.0001C36.9961 11.0001 36.8242 11.0001 36.4805 11.0001C35.6211 16.3282 35.2773 23.2032 36.6523 29.7344C36.8242 29.7344 36.9961 29.7344 37.168 29.7344C40.9492 29.7344 44.043 32.8282 44.043 36.6094C44.043 38.3282 43.3555 39.8751 42.3242 41.0782C44.7305 43.1407 47.9961 45.0313 51.4336 47.0938C58.9961 51.5626 67.7617 56.7188 73.2617 66.5157C73.6055 66.5157 73.7773 66.5157 74.1211 66.5157C77.9023 66.5157 80.9961 69.6094 80.9961 73.3907C80.9961 73.7344 80.9961 74.0782 80.9961 74.2501C87.6992 78.5469 95.4336 85.9376 104.371 97.9688C106.262 96.9376 108.496 96.4219 110.73 96.4219V76.8282C108.84 76.8282 107.293 75.2813 107.293 73.3907C107.293 71.5001 108.84 69.9532 110.73 69.9532V50.3594C105.23 50.3594 100.418 47.0938 98.1836 42.4532Z" fill="#51CE7B"/>
<path d="M175.184 55.1719L195.98 77.0001V77.5157H185.84L167.793 58.2657V77.5157H159.543V34.2032H167.793V52.5938L184.293 34.2032H194.434V34.3751L175.184 55.1719Z" fill="white"/>
<path d="M220.559 61.5313C220.559 56.8907 217.98 53.2813 213.168 53.2813C208.527 53.2813 205.434 57.2344 205.434 61.8751V77.5157H197.871V46.9219H204.574L205.09 51.0469C208.184 47.9532 211.277 46.4063 215.059 46.4063C222.277 46.4063 227.949 51.7344 227.949 61.3594V77.3438H220.387V61.5313H220.559Z" fill="white"/>
<path d="M249.777 71.5001C252.527 71.5001 256.137 70.4688 258.027 68.5782L262.84 73.3907C259.574 76.6563 254.418 78.3751 249.777 78.3751C239.293 78.3751 232.934 71.8438 232.934 62.0469C232.934 52.7657 239.293 46.0626 249.09 46.0626C258.543 46.0626 264.559 51.3907 264.559 62.0469C264.559 62.9063 264.559 63.9376 264.387 64.9688H240.496C241.184 68.7501 244.449 71.5001 249.777 71.5001ZM249.262 52.7657C245.137 52.7657 241.871 54.8282 240.668 58.7813H257.168C256.824 54.8282 253.73 52.7657 249.262 52.7657Z" fill="white"/>
<path d="M279.34 47.0938H287.762V53.6251H279.34V66.8594C279.34 69.7813 280.887 71.1563 283.293 71.1563C284.496 71.1563 285.871 70.8126 286.902 70.2969L288.965 76.6563C286.559 77.5157 284.668 78.0313 282.09 78.0313C275.902 78.0313 271.777 74.2501 271.777 66.8594V53.6251H266.105V47.0938H271.777V39.1876L279.34 38.3282V47.0938Z" fill="white"/>
<path d="M317.324 64.9688H315.777L302.027 46.0626V77.5157H293.777V34.2032H303.23L316.809 52.7657L330.387 34.2032H339.668V77.5157H331.418V46.2344L317.324 64.9688Z" fill="white"/>
<path d="M350.152 34.0313C352.387 34.0313 354.621 35.4063 354.621 38.5001C354.621 41.4219 352.387 42.9688 350.152 42.9688C347.918 42.9688 345.684 41.4219 345.684 38.5001C345.684 35.4063 347.918 34.0313 350.152 34.0313ZM346.371 77.5157H353.934V46.9219H346.371V77.5157Z" fill="white"/>
<path d="M382.809 61.5313C382.809 56.8907 380.23 53.2813 375.418 53.2813C370.777 53.2813 367.684 57.2344 367.684 61.8751V77.5157H360.121V46.9219H366.824L367.34 51.0469C370.434 47.9532 373.527 46.4063 377.309 46.4063C384.527 46.4063 390.199 51.7344 390.199 61.3594V77.3438H382.637V61.5313H382.809Z" fill="white"/>
<path d="M412.027 71.5001C414.777 71.5001 418.387 70.4688 420.277 68.5782L425.09 73.3907C421.824 76.6563 416.668 78.3751 412.027 78.3751C401.543 78.3751 395.184 71.8438 395.184 62.0469C395.184 52.7657 401.543 46.0626 411.34 46.0626C420.793 46.0626 426.809 51.3907 426.809 62.0469C426.809 62.9063 426.809 63.9376 426.637 64.9688H402.746C403.434 68.7501 406.871 71.5001 412.027 71.5001ZM411.684 52.7657C407.559 52.7657 404.293 54.8282 403.09 58.7813H419.59C419.074 54.8282 415.98 52.7657 411.684 52.7657Z" fill="white"/>
<path d="M439.871 50.5313C442.277 46.7501 445.371 46.2344 448.465 46.2344C451.559 46.2344 454.652 47.4376 456.371 49.1563L452.934 55.6876C451.387 54.3126 450.012 53.6251 447.434 53.6251C443.48 53.6251 439.871 55.6876 439.871 61.3594V77.5157H432.309V47.0938H439.355L439.871 50.5313Z" fill="white"/>
</g>
<defs>
<clipPath id="clip0">
<rect x="0.730469" width="455.641" height="110" fill="white"/>
</clipPath>
</defs>
</svg>
