<svg width="1385px" height="1209px"
 viewBox="0.00 0.00 1038.67 907.00" xmlns="http://www.w3.org/2000/svg" xmlns:xlink="http://www.w3.org/1999/xlink">
<g id="graph0" class="graph" transform=" rotate(0) translate(4 903)">
<title>%3</title>
<polygon fill="white" stroke="transparent" points="-4,4 -4,-903 1034.67,-903 1034.67,4 -4,4"/>
<!-- Enzyme(177) -->
<g id="node1" class="node">
<title>Enzyme(177)</title>
<polygon fill="none" stroke="darkgreen" points="509.53,-538.54 509.53,-553.46 472.58,-564 420.34,-564 383.39,-553.46 383.39,-538.54 420.34,-528 472.58,-528 509.53,-538.54"/>
<polygon fill="none" stroke="darkgreen" points="513.53,-535.53 513.53,-556.47 473.14,-568 419.78,-568 379.39,-556.47 379.39,-535.53 419.78,-524 473.14,-524 513.53,-535.53"/>
<text text-anchor="middle" x="446.46" y="-541.8" font-family="Times,serif" font-size="14.00">Enzyme(177)</text>
</g>
<!-- MolFunc(3) -->
<g id="node2" class="node">
<title>MolFunc(3)</title>
<polygon fill="none" stroke="darkgreen" points="793.03,-235.54 793.03,-250.46 759.41,-261 711.87,-261 678.25,-250.46 678.25,-235.54 711.87,-225 759.41,-225 793.03,-235.54"/>
<polygon fill="none" stroke="darkgreen" points="797.04,-232.61 797.04,-253.39 760.03,-265 711.25,-265 674.24,-253.39 674.24,-232.61 711.25,-221 760.03,-221 797.04,-232.61"/>
<text text-anchor="middle" x="735.64" y="-238.8" font-family="Times,serif" font-size="14.00">MolFunc(3)</text>
</g>
<!-- EC(15) -->
<g id="node3" class="node">
<title>EC(15)</title>
<polygon fill="none" stroke="darkgreen" points="485.69,-426.54 485.69,-441.46 462.71,-452 430.21,-452 407.24,-441.46 407.24,-426.54 430.21,-416 462.71,-416 485.69,-426.54"/>
<polygon fill="none" stroke="darkgreen" points="489.7,-423.98 489.7,-444.02 463.59,-456 429.33,-456 403.22,-444.02 403.22,-423.98 429.33,-412 463.59,-412 489.7,-423.98"/>
<text text-anchor="middle" x="446.46" y="-429.8" font-family="Times,serif" font-size="14.00">EC(15)</text>
</g>
<!-- Reaction(188) -->
<g id="node4" class="node">
<title>Reaction(188)</title>
<polygon fill="none" stroke="darkgreen" points="801.52,-72.54 801.52,-87.46 762.93,-98 708.35,-98 669.76,-87.46 669.76,-72.54 708.35,-62 762.93,-62 801.52,-72.54"/>
<polygon fill="none" stroke="darkgreen" points="805.53,-69.49 805.53,-90.51 763.47,-102 707.81,-102 665.75,-90.51 665.75,-69.49 707.81,-58 763.47,-58 805.53,-69.49"/>
<text text-anchor="middle" x="735.64" y="-75.8" font-family="Times,serif" font-size="14.00">Reaction(188)</text>
</g>
<!-- Publication(2) -->
<g id="node5" class="node">
<title>Publication(2)</title>
<polygon fill="none" stroke="darkgreen" points="801.54,-846.54 801.54,-861.46 762.93,-872 708.35,-872 669.74,-861.46 669.74,-846.54 708.35,-836 762.93,-836 801.54,-846.54"/>
<polygon fill="none" stroke="darkgreen" points="805.55,-843.49 805.55,-864.51 763.47,-876 707.81,-876 665.73,-864.51 665.73,-843.49 707.81,-832 763.47,-832 805.55,-843.49"/>
<text text-anchor="middle" x="735.64" y="-849.8" font-family="Times,serif" font-size="14.00">Publication(2)</text>
</g>
<!-- Trait(21) -->
<g id="node6" class="node">
<title>Trait(21)</title>
<polygon fill="none" stroke="darkgreen" points="1026.82,-578.54 1026.82,-593.46 1000.28,-604 962.75,-604 936.21,-593.46 936.21,-578.54 962.75,-568 1000.28,-568 1026.82,-578.54"/>
<polygon fill="none" stroke="darkgreen" points="1030.83,-575.83 1030.83,-596.17 1001.05,-608 961.98,-608 932.2,-596.17 932.2,-575.83 961.98,-564 1001.05,-564 1030.83,-575.83"/>
<text text-anchor="middle" x="981.52" y="-581.8" font-family="Times,serif" font-size="14.00">Trait(21)</text>
</g>
<!-- Path(19) -->
<g id="node7" class="node">
<title>Path(19)</title>
<polygon fill="none" stroke="darkgreen" points="1025.33,-14.54 1025.33,-29.46 999.66,-40 963.37,-40 937.7,-29.46 937.7,-14.54 963.37,-4 999.66,-4 1025.33,-14.54"/>
<polygon fill="none" stroke="darkgreen" points="1029.32,-11.86 1029.32,-32.14 1000.45,-44 962.58,-44 933.71,-32.14 933.71,-11.86 962.58,0 1000.45,0 1029.32,-11.86"/>
<text text-anchor="middle" x="981.52" y="-17.8" font-family="Times,serif" font-size="14.00">Path(19)</text>
</g>
<!-- CelComp(5) -->
<g id="node8" class="node">
<title>CelComp(5)</title>
<polygon fill="none" stroke="darkgreen" points="794.24,-416.54 794.24,-431.46 759.91,-442 711.37,-442 677.04,-431.46 677.04,-416.54 711.37,-406 759.91,-406 794.24,-416.54"/>
<polygon fill="none" stroke="darkgreen" points="798.23,-413.59 798.23,-434.41 760.51,-446 710.77,-446 673.05,-434.41 673.05,-413.59 710.77,-402 760.51,-402 798.23,-413.59"/>
<text text-anchor="middle" x="735.64" y="-419.8" font-family="Times,serif" font-size="14.00">CelComp(5)</text>
</g>
<!-- TO(16) -->
<g id="node9" class="node">
<title>TO(16)</title>
<polygon fill="none" stroke="darkgreen" points="775.1,-702.54 775.1,-717.46 751.98,-728 719.3,-728 696.18,-717.46 696.18,-702.54 719.3,-692 751.98,-692 775.1,-702.54"/>
<polygon fill="none" stroke="darkgreen" points="779.1,-699.97 779.1,-720.03 752.85,-732 718.43,-732 692.18,-720.03 692.18,-699.97 718.43,-688 752.85,-688 779.1,-699.97"/>
<text text-anchor="middle" x="735.64" y="-705.8" font-family="Times,serif" font-size="14.00">TO(16)</text>
</g>
<!-- Gene(8) -->
<g id="node10" class="node">
<title>Gene(8)</title>
<polygon fill="none" stroke="darkgreen" points="777.75,-499.54 777.75,-514.46 753.08,-525 718.2,-525 693.53,-514.46 693.53,-499.54 718.2,-489 753.08,-489 777.75,-499.54"/>
<polygon fill="none" stroke="darkgreen" points="781.73,-496.9 781.73,-517.1 753.9,-529 717.38,-529 689.55,-517.1 689.55,-496.9 717.38,-485 753.9,-485 781.73,-496.9"/>
<text text-anchor="middle" x="735.64" y="-502.8" font-family="Times,serif" font-size="14.00">Gene(8)</text>
</g>
<!-- Phenotype(13) -->
<g id="node11" class="node">
<title>Phenotype(13)</title>
<polygon fill="none" stroke="darkgreen" points="802.75,-636.54 802.75,-651.46 763.44,-662 707.84,-662 668.53,-651.46 668.53,-636.54 707.84,-626 763.44,-626 802.75,-636.54"/>
<polygon fill="none" stroke="darkgreen" points="806.74,-633.47 806.74,-654.53 763.96,-666 707.32,-666 664.55,-654.53 664.55,-633.47 707.32,-622 763.96,-622 806.74,-633.47"/>
<text text-anchor="middle" x="735.64" y="-639.8" font-family="Times,serif" font-size="14.00">Phenotype(13)</text>
</g>
<!-- BioProc(4) -->
<g id="node12" class="node">
<title>BioProc(4)</title>
<polygon fill="none" stroke="darkgreen" points="789.09,-317.54 789.09,-332.46 757.78,-343 713.5,-343 682.19,-332.46 682.19,-317.54 713.5,-307 757.78,-307 789.09,-317.54"/>
<polygon fill="none" stroke="darkgreen" points="793.09,-314.67 793.09,-335.33 758.44,-347 712.84,-347 678.19,-335.33 678.19,-314.67 712.84,-303 758.44,-303 793.09,-314.67"/>
<text text-anchor="middle" x="735.64" y="-320.8" font-family="Times,serif" font-size="14.00">BioProc(4)</text>
</g>
<!-- Protein(7) -->
<g id="node13" class="node">
<title>Protein(7)</title>
<polygon fill="none" stroke="darkgreen" points="495.98,-750.54 495.98,-765.46 466.97,-776 425.95,-776 396.94,-765.46 396.94,-750.54 425.95,-740 466.97,-740 495.98,-750.54"/>
<polygon fill="none" stroke="darkgreen" points="499.97,-747.74 499.97,-768.26 467.67,-780 425.25,-780 392.96,-768.26 392.96,-747.74 425.25,-736 467.67,-736 499.97,-747.74"/>
<text text-anchor="middle" x="446.46" y="-753.8" font-family="Times,serif" font-size="14.00">Protein(7)</text>
</g>
<!-- ProtDomain(14) -->
<g id="node14" class="node">
<title>ProtDomain(14)</title>
<polygon fill="none" stroke="darkgreen" points="520.32,-106.54 520.32,-121.46 477.05,-132 415.87,-132 372.61,-121.46 372.61,-106.54 415.87,-96 477.05,-96 520.32,-106.54"/>
<polygon fill="none" stroke="darkgreen" points="524.32,-103.4 524.32,-124.6 477.54,-136 415.39,-136 368.6,-124.6 368.6,-103.4 415.39,-92 477.54,-92 524.32,-103.4"/>
<text text-anchor="middle" x="446.46" y="-109.8" font-family="Times,serif" font-size="14.00">ProtDomain(14)</text>
</g>
<!-- Gene(1) -->
<g id="node15" class="node">
<title>Gene(1)</title>
<ellipse fill="none" stroke="red" cx="43.08" cy="-835" rx="39.15" ry="39.15"/>
<ellipse fill="none" stroke="red" cx="43.08" cy="-835" rx="43.15" ry="43.15"/>
<text text-anchor="middle" x="43.08" y="-830.8" font-family="Times,serif" font-size="14.00">Gene(1)</text>
</g>
<!-- Gene(1)&#45;&gt;Publication(2) -->
<g id="edge36" class="edge">
<title>Gene(1)&#45;&gt;Publication(2)</title>
<path fill="none" stroke="black" d="M83.2,-850.98C90.12,-853.52 97.3,-855.97 104.15,-858 120.46,-862.83 124.74,-863.58 141.58,-866 310.05,-890.19 354.02,-887.87 524.14,-883 578.52,-881.44 592.56,-884.17 646.34,-876 657.9,-874.24 670.15,-871.67 681.74,-868.89"/>
<text text-anchor="middle" x="305.57" y="-887.8" font-family="Times,serif" font-size="14.00">occ_in</text>
</g>
<!-- Gene(1)&#45;&gt;TO(16) -->
<g id="edge33" class="edge">
<title>Gene(1)&#45;&gt;TO(16)</title>
<path fill="none" stroke="blue" d="M86.52,-835.81C206.49,-837.51 545.85,-838.18 646.34,-794 676.56,-780.72 702.74,-752.43 718.58,-732.36"/>
<text text-anchor="middle" x="305.57" y="-837.8" font-family="Times,serif" font-size="14.00">cooc_wi</text>
</g>
<!-- Gene(1)&#45;&gt;Protein(7) -->
<g id="edge35" class="edge">
<title>Gene(1)&#45;&gt;Protein(7)</title>
<path fill="none" stroke="blue" d="M85.86,-841.31C146.17,-848.75 260.32,-856.59 350.78,-826 378.77,-816.53 405.63,-795.75 423.54,-779.63"/>
<text text-anchor="middle" x="191.97" y="-850.8" font-family="Times,serif" font-size="14.00">enc</text>
</g>
<!-- Protein(10) -->
<g id="node16" class="node">
<title>Protein(10)</title>
<ellipse fill="none" stroke="black" cx="191.97" cy="-434" rx="50.27" ry="18"/>
<text text-anchor="middle" x="191.97" y="-429.8" font-family="Times,serif" font-size="14.00">Protein(10)</text>
</g>
<!-- Gene(1)&#45;&gt;Protein(10) -->
<g id="edge34" class="edge">
<title>Gene(1)&#45;&gt;Protein(10)</title>
<path fill="none" stroke="black" d="M58.83,-794.71C90.19,-709.11 162.39,-512.02 184.45,-451.8"/>
<text text-anchor="middle" x="113.87" y="-672.8" font-family="Times,serif" font-size="14.00">enc</text>
</g>
<!-- Protein(10)&#45;&gt;Enzyme(177) -->
<g id="edge11" class="edge">
<title>Protein(10)&#45;&gt;Enzyme(177)</title>
<path fill="none" stroke="blue" d="M204.69,-451.71C216.67,-468.36 236.82,-492.66 260.35,-506 296.54,-526.51 342.16,-536.52 379.06,-541.39"/>
<text text-anchor="middle" x="305.57" y="-538.8" font-family="Times,serif" font-size="14.00">is_a</text>
</g>
<!-- Protein(10)&#45;&gt;MolFunc(3) -->
<g id="edge10" class="edge">
<title>Protein(10)&#45;&gt;MolFunc(3)</title>
<path fill="none" stroke="black" d="M195.19,-415.88C200.32,-381.9 216.15,-308.39 260.35,-268 319.25,-214.19 560.08,-227.44 674.17,-237.12"/>
<text text-anchor="middle" x="446.46" y="-235.8" font-family="Times,serif" font-size="14.00">has_function</text>
</g>
<!-- Protein(10)&#45;&gt;EC(15) -->
<g id="edge1" class="edge">
<title>Protein(10)&#45;&gt;EC(15)</title>
<path fill="none" stroke="blue" d="M242.55,-434C289.37,-434 358.83,-434 403.12,-434"/>
<text text-anchor="middle" x="305.57" y="-436.8" font-family="Times,serif" font-size="14.00">cat_c</text>
</g>
<!-- Protein(10)&#45;&gt;Publication(2) -->
<g id="edge15" class="edge">
<title>Protein(10)&#45;&gt;Publication(2)</title>
<path fill="none" stroke="blue" d="M193.28,-452.4C194.86,-522.68 204.41,-772.71 260.35,-823 318.27,-875.06 548.61,-867.21 665.64,-859.48"/>
<text text-anchor="middle" x="446.46" y="-867.8" font-family="Times,serif" font-size="14.00">pub_in</text>
</g>
<!-- Protein(10)&#45;&gt;CelComp(5) -->
<g id="edge13" class="edge">
<title>Protein(10)&#45;&gt;CelComp(5)</title>
<path fill="none" stroke="blue" d="M229.49,-421.79C264.7,-410.71 319.7,-395.18 368.78,-389 437.29,-380.37 461.41,-360.15 524.14,-389 535.31,-394.14 531.17,-404.46 542.14,-410 582.38,-430.31 633.47,-433.14 672.91,-431.25"/>
<text text-anchor="middle" x="446.46" y="-391.8" font-family="Times,serif" font-size="14.00">located_in</text>
</g>
<!-- Protein(10)&#45;&gt;TO(16) -->
<g id="edge3" class="edge">
<title>Protein(10)&#45;&gt;TO(16)</title>
<path fill="none" stroke="blue" d="M195.83,-452.02C202.08,-486.39 219.77,-562.21 260.35,-611 296.43,-654.37 315.37,-658.83 368.78,-677 480.78,-715.11 622.56,-715.32 692.16,-712.54"/>
<text text-anchor="middle" x="446.46" y="-709.8" font-family="Times,serif" font-size="14.00">cooc_wi</text>
</g>
<!-- Protein(10)&#45;&gt;Gene(8) -->
<g id="edge5" class="edge">
<title>Protein(10)&#45;&gt;Gene(8)</title>
<path fill="none" stroke="blue" d="M231.59,-445.32C240.95,-447.79 250.96,-450.19 260.35,-452 342.06,-467.73 587.28,-492.61 689.32,-502.62"/>
<text text-anchor="middle" x="446.46" y="-487.8" font-family="Times,serif" font-size="14.00">enc</text>
</g>
<!-- Protein(10)&#45;&gt;BioProc(4) -->
<g id="edge14" class="edge">
<title>Protein(10)&#45;&gt;BioProc(4)</title>
<path fill="none" stroke="black" d="M212.82,-417.52C225.7,-407.51 243.22,-395.14 260.35,-387 399.29,-320.95 585.51,-318.03 677.82,-321.46"/>
<text text-anchor="middle" x="446.46" y="-350.8" font-family="Times,serif" font-size="14.00">participates_in</text>
</g>
<!-- Protein(10)&#45;&gt;Protein(7) -->
<g id="edge6" class="edge">
<title>Protein(10)&#45;&gt;Protein(7)</title>
<path fill="none" stroke="black" d="M195.02,-452.17C201.61,-507.16 223.89,-670.28 260.35,-707 289.57,-736.43 310.79,-719.01 350.78,-730 367.31,-734.54 385.37,-739.81 401.25,-744.54"/>
<text text-anchor="middle" x="305.57" y="-774.8" font-family="Times,serif" font-size="14.00">equivalent(&lt;=4)</text>
<text text-anchor="middle" x="305.57" y="-760.8" font-family="Times,serif" font-size="14.00">h_s_s(&lt;=4)</text>
<text text-anchor="middle" x="305.57" y="-746.8" font-family="Times,serif" font-size="14.00">ortho(&lt;=4)</text>
<text text-anchor="middle" x="305.57" y="-732.8" font-family="Times,serif" font-size="14.00">xref(&lt;=6)</text>
</g>
<!-- Protein(10)&#45;&gt;ProtDomain(14) -->
<g id="edge9" class="edge">
<title>Protein(10)&#45;&gt;ProtDomain(14)</title>
<path fill="none" stroke="blue" d="M194.64,-416C200.31,-359.09 220.69,-184.57 260.35,-147 288.79,-120.06 331.24,-111.13 368.32,-109.24"/>
<text text-anchor="middle" x="305.57" y="-149.8" font-family="Times,serif" font-size="14.00">has_domain</text>
</g>
<!-- Protein(10)&#45;&gt;Protein(10) -->
<g id="edge7" class="edge">
<title>Protein(10)&#45;&gt;Protein(10)</title>
<path fill="none" stroke="blue" d="M178.04,-451.41C175.44,-461.09 180.08,-470 191.97,-470 203.85,-470 208.49,-461.09 205.89,-451.41"/>
<text text-anchor="middle" x="191.97" y="-514.8" font-family="Times,serif" font-size="14.00">equivalent(&lt;=4)</text>
<text text-anchor="middle" x="191.97" y="-500.8" font-family="Times,serif" font-size="14.00">h_s_s(&lt;=4)</text>
<text text-anchor="middle" x="191.97" y="-486.8" font-family="Times,serif" font-size="14.00">ortho(&lt;=4)</text>
<text text-anchor="middle" x="191.97" y="-472.8" font-family="Times,serif" font-size="14.00">xref(&lt;=6)</text>
</g>
<!-- EC(12) -->
<g id="node17" class="node">
<title>EC(12)</title>
<ellipse fill="none" stroke="black" cx="446.46" cy="-172" rx="36.28" ry="18"/>
<text text-anchor="middle" x="446.46" y="-167.8" font-family="Times,serif" font-size="14.00">EC(12)</text>
</g>
<!-- Protein(10)&#45;&gt;EC(12) -->
<g id="edge2" class="edge">
<title>Protein(10)&#45;&gt;EC(12)</title>
<path fill="none" stroke="black" d="M195.55,-416.01C203.11,-366.03 226.76,-227.23 260.35,-198 302.22,-161.57 370.74,-162.21 411.64,-166.65"/>
<text text-anchor="middle" x="305.57" y="-200.8" font-family="Times,serif" font-size="14.00">cat_c</text>
</g>
<!-- Gene(9) -->
<g id="node18" class="node">
<title>Gene(9)</title>
<ellipse fill="none" stroke="black" cx="446.46" cy="-604" rx="39.15" ry="18"/>
<text text-anchor="middle" x="446.46" y="-599.8" font-family="Times,serif" font-size="14.00">Gene(9)</text>
</g>
<!-- Protein(10)&#45;&gt;Gene(9) -->
<g id="edge4" class="edge">
<title>Protein(10)&#45;&gt;Gene(9)</title>
<path fill="none" stroke="black" d="M198.14,-452.02C206.67,-478.45 226.23,-527.43 260.35,-554 303.3,-587.43 366.9,-598.56 407.25,-602.23"/>
<text text-anchor="middle" x="305.57" y="-595.8" font-family="Times,serif" font-size="14.00">enc</text>
</g>
<!-- ProtDomain(11) -->
<g id="node19" class="node">
<title>ProtDomain(11)</title>
<ellipse fill="none" stroke="black" cx="446.46" cy="-276" rx="68" ry="18"/>
<text text-anchor="middle" x="446.46" y="-271.8" font-family="Times,serif" font-size="14.00">ProtDomain(11)</text>
</g>
<!-- Protein(10)&#45;&gt;ProtDomain(11) -->
<g id="edge8" class="edge">
<title>Protein(10)&#45;&gt;ProtDomain(11)</title>
<path fill="none" stroke="black" d="M196.59,-416.02C203.47,-386.87 221.38,-329.77 260.35,-302 295.11,-277.23 343,-271.05 381.36,-270.89"/>
<text text-anchor="middle" x="305.57" y="-304.8" font-family="Times,serif" font-size="14.00">has_domain</text>
</g>
<!-- Enzyme(17) -->
<g id="node20" class="node">
<title>Enzyme(17)</title>
<ellipse fill="none" stroke="black" cx="446.46" cy="-56" rx="53.63" ry="18"/>
<text text-anchor="middle" x="446.46" y="-51.8" font-family="Times,serif" font-size="14.00">Enzyme(17)</text>
</g>
<!-- Protein(10)&#45;&gt;Enzyme(17) -->
<g id="edge12" class="edge">
<title>Protein(10)&#45;&gt;Enzyme(17)</title>
<path fill="none" stroke="black" d="M193.96,-415.9C197.84,-352.14 214.11,-139.35 260.35,-93 294.96,-58.32 352.28,-51.52 393.98,-51.88"/>
<text text-anchor="middle" x="305.57" y="-95.8" font-family="Times,serif" font-size="14.00">is_a</text>
</g>
<!-- EC(12)&#45;&gt;MolFunc(3) -->
<g id="edge16" class="edge">
<title>EC(12)&#45;&gt;MolFunc(3)</title>
<path fill="none" stroke="blue" d="M482.72,-173C523.09,-174.96 590.8,-180.78 646.34,-198 666.06,-204.11 686.7,-214.38 703.05,-223.57"/>
<text text-anchor="middle" x="594.24" y="-200.8" font-family="Times,serif" font-size="14.00">equ</text>
</g>
<!-- Gene(9)&#45;&gt;MolFunc(3) -->
<g id="edge20" class="edge">
<title>Gene(9)&#45;&gt;MolFunc(3)</title>
<path fill="none" stroke="blue" d="M484.59,-599.67C499.18,-596.01 514.67,-589.3 524.14,-577 554.36,-537.8 512.48,-394.62 542.14,-355 571.87,-315.29 605.81,-343.59 646.34,-315 656.39,-307.91 655.31,-302.33 664.34,-294 676.54,-282.76 691.23,-271.76 704.02,-262.87"/>
<text text-anchor="middle" x="594.24" y="-357.8" font-family="Times,serif" font-size="14.00">has_function</text>
</g>
<!-- Gene(9)&#45;&gt;Publication(2) -->
<g id="edge25" class="edge">
<title>Gene(9)&#45;&gt;Publication(2)</title>
<path fill="none" stroke="black" d="M463.5,-620.36C489.43,-646.8 538.08,-696.34 542.14,-700 597.78,-750.14 667.3,-803.7 705.73,-832.56"/>
<text text-anchor="middle" x="594.24" y="-787.8" font-family="Times,serif" font-size="14.00">pub_in</text>
</g>
<!-- Gene(9)&#45;&gt;CelComp(5) -->
<g id="edge23" class="edge">
<title>Gene(9)&#45;&gt;CelComp(5)</title>
<path fill="none" stroke="black" d="M483.8,-598.55C498.07,-594.71 513.55,-588.16 524.14,-577 543.61,-556.5 523.05,-536.85 542.14,-516 575.75,-479.3 601.52,-496.62 646.34,-475 665.64,-465.7 686.42,-453.79 702.97,-443.83"/>
<text text-anchor="middle" x="594.24" y="-518.8" font-family="Times,serif" font-size="14.00">located_in</text>
</g>
<!-- Gene(9)&#45;&gt;TO(16) -->
<g id="edge17" class="edge">
<title>Gene(9)&#45;&gt;TO(16)</title>
<path fill="none" stroke="black" d="M473.16,-617.39C491.97,-626.9 518.27,-639.6 542.14,-649 587.34,-666.8 600.03,-667.32 646.34,-682 662.75,-687.2 680.86,-692.94 696.39,-697.87"/>
<text text-anchor="middle" x="594.24" y="-684.8" font-family="Times,serif" font-size="14.00">cooc_wi</text>
</g>
<!-- Gene(9)&#45;&gt;Gene(8) -->
<g id="edge19" class="edge">
<title>Gene(9)&#45;&gt;Gene(8)</title>
<path fill="none" stroke="black" d="M481.4,-595.63C495.29,-591.31 511.12,-585.2 524.14,-577 533.72,-570.97 532.27,-564.53 542.14,-559 583.7,-535.73 600.39,-546.52 646.34,-534 662.43,-529.62 680.02,-524.34 695.23,-519.62"/>
<text text-anchor="middle" x="594.24" y="-575.8" font-family="Times,serif" font-size="14.00">genetic(&lt;=8)</text>
<text text-anchor="middle" x="594.24" y="-561.8" font-family="Times,serif" font-size="14.00">physical(&lt;=8)</text>
</g>
<!-- Gene(9)&#45;&gt;Phenotype(13) -->
<g id="edge21" class="edge">
<title>Gene(9)&#45;&gt;Phenotype(13)</title>
<path fill="none" stroke="black" d="M484.12,-609.11C529.41,-615.41 607.44,-626.28 664.4,-634.22"/>
<text text-anchor="middle" x="594.24" y="-633.8" font-family="Times,serif" font-size="14.00">has_observ_pheno</text>
</g>
<!-- Gene(9)&#45;&gt;BioProc(4) -->
<g id="edge24" class="edge">
<title>Gene(9)&#45;&gt;BioProc(4)</title>
<path fill="none" stroke="blue" d="M484.58,-599.25C498.99,-595.51 514.34,-588.86 524.14,-577 558.49,-535.43 508.9,-499.47 542.14,-457 573.02,-417.55 605.77,-443.39 646.34,-414 656.3,-406.79 655.92,-401.95 664.34,-393 679.48,-376.93 697.37,-359.64 711.31,-346.52"/>
<text text-anchor="middle" x="594.24" y="-459.8" font-family="Times,serif" font-size="14.00">participates_in</text>
</g>
<!-- Gene(9)&#45;&gt;Gene(9) -->
<g id="edge18" class="edge">
<title>Gene(9)&#45;&gt;Gene(9)</title>
<path fill="none" stroke="blue" d="M423.04,-618.79C415.41,-629.42 423.22,-640 446.46,-640 469.7,-640 477.51,-629.42 469.88,-618.79"/>
<text text-anchor="middle" x="446.46" y="-656.8" font-family="Times,serif" font-size="14.00">genetic(&lt;=8)</text>
<text text-anchor="middle" x="446.46" y="-642.8" font-family="Times,serif" font-size="14.00">physical(&lt;=8)</text>
</g>
<!-- SNP(20) -->
<g id="node21" class="node">
<title>SNP(20)</title>
<ellipse fill="none" stroke="black" cx="735.64" cy="-586" rx="41.13" ry="18"/>
<text text-anchor="middle" x="735.64" y="-581.8" font-family="Times,serif" font-size="14.00">SNP(20)</text>
</g>
<!-- Gene(9)&#45;&gt;SNP(20) -->
<g id="edge22" class="edge">
<title>Gene(9)&#45;&gt;SNP(20)</title>
<path fill="none" stroke="blue" d="M485.3,-601.63C539.67,-598.22 639.45,-591.97 694.87,-588.49"/>
<text text-anchor="middle" x="594.24" y="-599.8" font-family="Times,serif" font-size="14.00">has_variation</text>
</g>
<!-- ProtDomain(11)&#45;&gt;MolFunc(3) -->
<g id="edge27" class="edge">
<title>ProtDomain(11)&#45;&gt;MolFunc(3)</title>
<path fill="none" stroke="black" d="M502.67,-265.91C515.6,-263.76 529.33,-261.65 542.14,-260 586.23,-254.34 636.25,-249.98 674.25,-247.1"/>
<text text-anchor="middle" x="594.24" y="-262.8" font-family="Times,serif" font-size="14.00">has_function</text>
</g>
<!-- ProtDomain(11)&#45;&gt;CelComp(5) -->
<g id="edge28" class="edge">
<title>ProtDomain(11)&#45;&gt;CelComp(5)</title>
<path fill="none" stroke="blue" d="M495.93,-288.48C506.42,-293.13 516.6,-299.45 524.14,-308 543.97,-330.48 520.39,-352.37 542.14,-373 576.55,-405.64 600.54,-383.71 646.34,-396 660.17,-399.71 675.05,-404.22 688.59,-408.54"/>
<text text-anchor="middle" x="594.24" y="-398.8" font-family="Times,serif" font-size="14.00">located_in</text>
</g>
<!-- ProtDomain(11)&#45;&gt;BioProc(4) -->
<g id="edge29" class="edge">
<title>ProtDomain(11)&#45;&gt;BioProc(4)</title>
<path fill="none" stroke="black" d="M512.92,-279.57C551.96,-282.53 602.33,-287.8 646.34,-297 661.61,-300.19 677.99,-304.99 692.44,-309.71"/>
<text text-anchor="middle" x="594.24" y="-299.8" font-family="Times,serif" font-size="14.00">participates_in</text>
</g>
<!-- Enzyme(17)&#45;&gt;Reaction(188) -->
<g id="edge31" class="edge">
<title>Enzyme(17)&#45;&gt;Reaction(188)</title>
<path fill="none" stroke="black" d="M498.8,-60.29C545.43,-64.19 614.56,-69.96 665.93,-74.26"/>
<text text-anchor="middle" x="594.24" y="-74.8" font-family="Times,serif" font-size="14.00">ca_by</text>
</g>
<!-- Reaction(18) -->
<g id="node22" class="node">
<title>Reaction(18)</title>
<ellipse fill="none" stroke="black" cx="735.64" cy="-22" rx="56.04" ry="18"/>
<text text-anchor="middle" x="735.64" y="-17.8" font-family="Times,serif" font-size="14.00">Reaction(18)</text>
</g>
<!-- Enzyme(17)&#45;&gt;Reaction(18) -->
<g id="edge30" class="edge">
<title>Enzyme(17)&#45;&gt;Reaction(18)</title>
<path fill="none" stroke="blue" d="M497.48,-50.08C549.23,-43.95 629.69,-34.43 682.28,-28.2"/>
<text text-anchor="middle" x="594.24" y="-46.8" font-family="Times,serif" font-size="14.00">ca_by</text>
</g>
<!-- SNP(20)&#45;&gt;Trait(21) -->
<g id="edge26" class="edge">
<title>SNP(20)&#45;&gt;Trait(21)</title>
<path fill="none" stroke="black" d="M776.91,-586C819.53,-586 886.77,-586 932.21,-586"/>
<text text-anchor="middle" x="869.65" y="-588.8" font-family="Times,serif" font-size="14.00">associated_with</text>
</g>
<!-- Reaction(18)&#45;&gt;Path(19) -->
<g id="edge32" class="edge">
<title>Reaction(18)&#45;&gt;Path(19)</title>
<path fill="none" stroke="blue" d="M791.98,-22C834.7,-22 893.16,-22 933.6,-22"/>
<text text-anchor="middle" x="869.65" y="-24.8" font-family="Times,serif" font-size="14.00">part_of</text>
</g>
</g>
</svg>
