<svg width="1286px" height="1207px"
 viewBox="0.00 0.00 964.53 905.00" xmlns="http://www.w3.org/2000/svg" xmlns:xlink="http://www.w3.org/1999/xlink">
<g id="graph0" class="graph" transform=" rotate(0) translate(4 901)">
<polygon fill="white" stroke="transparent" points="-4,4 -4,-901 960.53,-901 960.53,4 -4,4"/>
<!-- Publication(2) -->
<g id="node1" class="node">
<title>Publication(2)</title>
<polygon fill="none" stroke="darkgreen" points="778.61,-109.54 778.61,-124.46 739.8,-135 684.92,-135 646.11,-124.46 646.11,-109.54 684.92,-99 739.8,-99 778.61,-109.54"/>
<polygon fill="none" stroke="darkgreen" points="782.62,-106.49 782.62,-127.51 740.34,-139 684.38,-139 642.1,-127.51 642.1,-106.49 684.38,-95 740.34,-95 782.62,-106.49"/>
<text text-anchor="middle" x="712.36" y="-113.3" font-family="Times,serif" font-size="14.00">Publication(2)</text>
</g>
<!-- Phenotype(13) -->
<g id="node2" class="node">
<title>Phenotype(13)</title>
<polygon fill="none" stroke="darkgreen" points="779.93,-222.54 779.93,-237.46 740.35,-248 684.37,-248 644.79,-237.46 644.79,-222.54 684.37,-212 740.35,-212 779.93,-222.54"/>
<polygon fill="none" stroke="darkgreen" points="783.93,-219.47 783.93,-240.53 740.87,-252 683.85,-252 640.79,-240.53 640.79,-219.47 683.85,-208 740.87,-208 783.93,-219.47"/>
<text text-anchor="middle" x="712.36" y="-226.3" font-family="Times,serif" font-size="14.00">Phenotype(13)</text>
</g>
<!-- Path(19) -->
<g id="node3" class="node">
<title>Path(19)</title>
<polygon fill="none" stroke="darkgreen" points="952.37,-809.54 952.37,-824.46 926.5,-835 889.93,-835 864.06,-824.46 864.06,-809.54 889.93,-799 926.5,-799 952.37,-809.54"/>
<polygon fill="none" stroke="darkgreen" points="956.36,-806.85 956.36,-827.15 927.28,-839 889.15,-839 860.07,-827.15 860.07,-806.85 889.15,-795 927.28,-795 956.36,-806.85"/>
<text text-anchor="middle" x="908.21" y="-813.3" font-family="Times,serif" font-size="14.00">Path(19)</text>
</g>
<!-- MolFunc(3) -->
<g id="node4" class="node">
<title>MolFunc(3)</title>
<polygon fill="none" stroke="darkgreen" points="770.65,-544.54 770.65,-559.46 736.5,-570 688.22,-570 654.07,-559.46 654.07,-544.54 688.22,-534 736.5,-534 770.65,-544.54"/>
<polygon fill="none" stroke="darkgreen" points="774.64,-541.59 774.64,-562.41 737.1,-574 687.61,-574 650.08,-562.41 650.08,-541.59 687.61,-530 737.1,-530 774.64,-541.59"/>
<text text-anchor="middle" x="712.36" y="-548.3" font-family="Times,serif" font-size="14.00">MolFunc(3)</text>
</g>
<!-- CelComp(5) -->
<g id="node5" class="node">
<title>CelComp(5)</title>
<polygon fill="none" stroke="darkgreen" points="771.97,-374.54 771.97,-389.46 737.05,-400 687.67,-400 652.75,-389.46 652.75,-374.54 687.67,-364 737.05,-364 771.97,-374.54"/>
<polygon fill="none" stroke="darkgreen" points="775.95,-371.57 775.95,-392.43 737.64,-404 687.08,-404 648.77,-392.43 648.77,-371.57 687.08,-360 737.64,-360 775.95,-371.57"/>
<text text-anchor="middle" x="712.36" y="-378.3" font-family="Times,serif" font-size="14.00">CelComp(5)</text>
</g>
<!-- BioProc(4) -->
<g id="node6" class="node">
<title>BioProc(4)</title>
<polygon fill="none" stroke="darkgreen" points="766.69,-284.54 766.69,-299.46 734.86,-310 689.86,-310 658.03,-299.46 658.03,-284.54 689.86,-274 734.86,-274 766.69,-284.54"/>
<polygon fill="none" stroke="darkgreen" points="770.7,-281.66 770.7,-302.34 735.51,-314 689.21,-314 654.02,-302.34 654.02,-281.66 689.21,-270 735.51,-270 770.7,-281.66"/>
<text text-anchor="middle" x="712.36" y="-288.3" font-family="Times,serif" font-size="14.00">BioProc(4)</text>
</g>
<!-- Reaction(188) -->
<g id="node7" class="node">
<title>Reaction(188)</title>
<polygon fill="none" stroke="darkgreen" points="778.61,-867.54 778.61,-882.46 739.8,-893 684.92,-893 646.11,-882.46 646.11,-867.54 684.92,-857 739.8,-857 778.61,-867.54"/>
<polygon fill="none" stroke="darkgreen" points="782.62,-864.49 782.62,-885.51 740.34,-897 684.38,-897 642.1,-885.51 642.1,-864.49 684.38,-853 740.34,-853 782.62,-864.49"/>
<text text-anchor="middle" x="712.36" y="-871.3" font-family="Times,serif" font-size="14.00">Reaction(188)</text>
</g>
<!-- EC(15) -->
<g id="node8" class="node">
<title>EC(15)</title>
<polygon fill="none" stroke="darkgreen" points="464.56,-785.54 464.56,-800.46 441.53,-811 408.98,-811 385.95,-800.46 385.95,-785.54 408.98,-775 441.53,-775 464.56,-785.54"/>
<polygon fill="none" stroke="darkgreen" points="468.55,-782.97 468.55,-803.03 442.4,-815 408.11,-815 381.96,-803.03 381.96,-782.97 408.11,-771 442.4,-771 468.55,-782.97"/>
<text text-anchor="middle" x="425.25" y="-789.3" font-family="Times,serif" font-size="14.00">EC(15)</text>
</g>
<!-- TO(16) -->
<g id="node9" class="node">
<title>TO(16)</title>
<polygon fill="none" stroke="darkgreen" points="752.55,-14.54 752.55,-29.46 729.01,-40 695.71,-40 672.17,-29.46 672.17,-14.54 695.71,-4 729.01,-4 752.55,-14.54"/>
<polygon fill="none" stroke="darkgreen" points="756.56,-11.96 756.56,-32.04 729.87,-44 694.85,-44 668.16,-32.04 668.16,-11.96 694.85,0 729.87,0 756.56,-11.96"/>
<text text-anchor="middle" x="712.36" y="-18.3" font-family="Times,serif" font-size="14.00">TO(16)</text>
</g>
<!-- Gene(8) -->
<g id="node10" class="node">
<title>Gene(8)</title>
<polygon fill="none" stroke="darkgreen" points="755.19,-443.54 755.19,-458.46 730.1,-469 694.62,-469 669.53,-458.46 669.53,-443.54 694.62,-433 730.1,-433 755.19,-443.54"/>
<polygon fill="none" stroke="darkgreen" points="759.19,-440.88 759.19,-461.12 730.91,-473 693.81,-473 665.53,-461.12 665.53,-440.88 693.81,-429 730.91,-429 759.19,-440.88"/>
<text text-anchor="middle" x="712.36" y="-447.3" font-family="Times,serif" font-size="14.00">Gene(8)</text>
</g>
<!-- Protein(7) -->
<g id="node11" class="node">
<title>Protein(7)</title>
<polygon fill="none" stroke="darkgreen" points="475.15,-55.54 475.15,-70.46 445.92,-81 404.58,-81 375.35,-70.46 375.35,-55.54 404.58,-45 445.92,-45 475.15,-55.54"/>
<polygon fill="none" stroke="darkgreen" points="479.15,-52.73 479.15,-73.27 446.62,-85 403.89,-85 371.36,-73.27 371.36,-52.73 403.89,-41 446.62,-41 479.15,-52.73"/>
<text text-anchor="middle" x="425.25" y="-59.3" font-family="Times,serif" font-size="14.00">Protein(7)</text>
</g>
<!-- ProtDomain(14) -->
<g id="node12" class="node">
<title>ProtDomain(14)</title>
<polygon fill="none" stroke="darkgreen" points="499.89,-723.54 499.89,-738.46 456.17,-749 394.34,-749 350.62,-738.46 350.62,-723.54 394.34,-713 456.17,-713 499.89,-723.54"/>
<polygon fill="none" stroke="darkgreen" points="503.89,-720.39 503.89,-741.61 456.65,-753 393.86,-753 346.61,-741.61 346.61,-720.39 393.86,-709 456.65,-709 503.89,-720.39"/>
<text text-anchor="middle" x="425.25" y="-727.3" font-family="Times,serif" font-size="14.00">ProtDomain(14)</text>
</g>
<!-- Enzyme(177) -->
<g id="node13" class="node">
<title>Enzyme(177)</title>
<polygon fill="none" stroke="darkgreen" points="489.29,-661.54 489.29,-676.46 451.78,-687 398.73,-687 361.22,-676.46 361.22,-661.54 398.73,-651 451.78,-651 489.29,-661.54"/>
<polygon fill="none" stroke="darkgreen" points="493.29,-658.51 493.29,-679.49 452.33,-691 398.18,-691 357.22,-679.49 357.22,-658.51 398.18,-647 452.33,-647 493.29,-658.51"/>
<text text-anchor="middle" x="425.25" y="-665.3" font-family="Times,serif" font-size="14.00">Enzyme(177)</text>
</g>
<!-- Gene(1) -->
<g id="node14" class="node">
<title>Gene(1)</title>
<ellipse fill="none" stroke="red" cx="43.65" cy="-51" rx="39.78" ry="39.78"/>
<ellipse fill="none" stroke="red" cx="43.65" cy="-51" rx="43.79" ry="43.79"/>
<text text-anchor="middle" x="43.65" y="-47.3" font-family="Times,serif" font-size="14.00">Gene(1)</text>
</g>
<!-- Gene(1)&#45;&gt;TO(16) -->
<g id="edge30" class="edge">
<title>Gene(1)&#45;&gt;TO(16)</title>
<path fill="none" stroke="black" d="M87.64,-47.82C146.19,-43.59 254.31,-36.17 346.68,-32 462.79,-26.76 599.81,-23.89 668.12,-22.69"/>
<text text-anchor="middle" x="295.18" y="-40.8" font-family="Times,serif" font-size="14.00">cooc_wi</text>
</g>
<!-- Gene(1)&#45;&gt;Protein(7) -->
<g id="edge31" class="edge">
<title>Gene(1)&#45;&gt;Protein(7)</title>
<path fill="none" stroke="blue" d="M87.45,-52.35C157.26,-54.56 295.41,-58.93 371.28,-61.33"/>
<text text-anchor="middle" x="192.99" y="-61.8" font-family="Times,serif" font-size="14.00">enc</text>
</g>
<!-- Protein(10) -->
<g id="node18" class="node">
<title>Protein(10)</title>
<ellipse fill="none" stroke="black" cx="192.99" cy="-479" rx="50.89" ry="18"/>
<text text-anchor="middle" x="192.99" y="-475.3" font-family="Times,serif" font-size="14.00">Protein(10)</text>
</g>
<!-- Gene(1)&#45;&gt;Protein(10) -->
<g id="edge32" class="edge">
<title>Gene(1)&#45;&gt;Protein(10)</title>
<path fill="none" stroke="black" d="M58.77,-92.04C90.03,-182.84 164.02,-397.75 185.83,-461.12"/>
<text text-anchor="middle" x="114.79" y="-281.8" font-family="Times,serif" font-size="14.00">enc</text>
</g>
<!-- Reaction(18) -->
<g id="node15" class="node">
<title>Reaction(18)</title>
<ellipse fill="none" stroke="black" cx="712.36" cy="-817" rx="56.59" ry="18"/>
<text text-anchor="middle" x="712.36" y="-813.3" font-family="Times,serif" font-size="14.00">Reaction(18)</text>
</g>
<!-- Reaction(18)&#45;&gt;Path(19) -->
<g id="edge1" class="edge">
<title>Reaction(18)&#45;&gt;Path(19)</title>
<path fill="none" stroke="blue" d="M768.91,-817C797.66,-817 832.4,-817 859.87,-817"/>
<text text-anchor="middle" x="821.89" y="-820.8" font-family="Times,serif" font-size="14.00">part_of</text>
</g>
<!-- ProtDomain(11) -->
<g id="node16" class="node">
<title>ProtDomain(11)</title>
<ellipse fill="none" stroke="black" cx="425.25" cy="-389" rx="68.79" ry="18"/>
<text text-anchor="middle" x="425.25" y="-385.3" font-family="Times,serif" font-size="14.00">ProtDomain(11)</text>
</g>
<!-- ProtDomain(11)&#45;&gt;MolFunc(3) -->
<g id="edge2" class="edge">
<title>ProtDomain(11)&#45;&gt;MolFunc(3)</title>
<path fill="none" stroke="black" d="M469.47,-402.81C482.14,-408.76 494.95,-416.95 503.82,-428 524.21,-453.38 499.09,-475.7 521.82,-499 539.72,-517.34 601.72,-532.38 649.99,-541.7"/>
<text text-anchor="middle" x="572.32" y="-539.8" font-family="Times,serif" font-size="14.00">has_function</text>
</g>
<!-- ProtDomain(11)&#45;&gt;CelComp(5) -->
<g id="edge3" class="edge">
<title>ProtDomain(11)&#45;&gt;CelComp(5)</title>
<path fill="none" stroke="blue" d="M492.04,-384.37C502.01,-383.81 512.19,-383.33 521.82,-383 564.08,-381.56 611.67,-381.32 648.59,-381.43"/>
<text text-anchor="middle" x="572.32" y="-386.8" font-family="Times,serif" font-size="14.00">located_in</text>
</g>
<!-- ProtDomain(11)&#45;&gt;BioProc(4) -->
<g id="edge4" class="edge">
<title>ProtDomain(11)&#45;&gt;BioProc(4)</title>
<path fill="none" stroke="black" d="M468.02,-374.79C521.38,-356.64 613.31,-325.36 667.61,-306.88"/>
<text text-anchor="middle" x="572.32" y="-358.8" font-family="Times,serif" font-size="14.00">participates_in</text>
</g>
<!-- Enzyme(17) -->
<g id="node17" class="node">
<title>Enzyme(17)</title>
<ellipse fill="none" stroke="black" cx="425.25" cy="-851" rx="54.69" ry="18"/>
<text text-anchor="middle" x="425.25" y="-847.3" font-family="Times,serif" font-size="14.00">Enzyme(17)</text>
</g>
<!-- Enzyme(17)&#45;&gt;Reaction(188) -->
<g id="edge6" class="edge">
<title>Enzyme(17)&#45;&gt;Reaction(188)</title>
<path fill="none" stroke="blue" d="M478.22,-855.37C524.15,-859.24 591.52,-864.91 642.04,-869.16"/>
<text text-anchor="middle" x="572.32" y="-870.8" font-family="Times,serif" font-size="14.00">ca_by</text>
</g>
<!-- Enzyme(17)&#45;&gt;Reaction(18) -->
<g id="edge5" class="edge">
<title>Enzyme(17)&#45;&gt;Reaction(18)</title>
<path fill="none" stroke="black" d="M476.9,-844.96C528.26,-838.84 607.38,-829.4 659.26,-823.21"/>
<text text-anchor="middle" x="572.32" y="-842.8" font-family="Times,serif" font-size="14.00">ca_by</text>
</g>
<!-- Protein(10)&#45;&gt;Publication(2) -->
<g id="edge20" class="edge">
<title>Protein(10)&#45;&gt;Publication(2)</title>
<path fill="none" stroke="blue" d="M196.01,-460.77C201.21,-420.24 217.81,-320.72 261.68,-251 288.83,-207.86 303.05,-200.35 346.68,-174 454.53,-108.88 496.94,-105.03 622.82,-110 628.99,-110.24 635.39,-110.58 641.8,-110.98"/>
<text text-anchor="middle" x="425.25" y="-177.8" font-family="Times,serif" font-size="14.00">pub_in</text>
</g>
<!-- Protein(10)&#45;&gt;MolFunc(3) -->
<g id="edge15" class="edge">
<title>Protein(10)&#45;&gt;MolFunc(3)</title>
<path fill="none" stroke="black" d="M204.09,-496.92C215.64,-515.81 236.28,-545.13 261.68,-562 294.48,-583.79 307.71,-581.39 346.68,-587 468.18,-604.5 502.16,-604.5 622.82,-582 638.62,-579.05 655.44,-573.9 670.13,-568.69"/>
<text text-anchor="middle" x="425.25" y="-602.8" font-family="Times,serif" font-size="14.00">has_function</text>
</g>
<!-- Protein(10)&#45;&gt;CelComp(5) -->
<g id="edge18" class="edge">
<title>Protein(10)&#45;&gt;CelComp(5)</title>
<path fill="none" stroke="blue" d="M240.01,-471.97C270.27,-467.52 310.77,-461.9 346.68,-458 407.88,-451.36 566.2,-460.15 622.82,-436 632.67,-431.8 632.05,-426.14 640.82,-420 651.08,-412.82 662.85,-406 673.79,-400.16"/>
<text text-anchor="middle" x="425.25" y="-461.8" font-family="Times,serif" font-size="14.00">located_in</text>
</g>
<!-- Protein(10)&#45;&gt;BioProc(4) -->
<g id="edge19" class="edge">
<title>Protein(10)&#45;&gt;BioProc(4)</title>
<path fill="none" stroke="black" d="M198.72,-460.87C212.2,-413.59 255.85,-287.24 346.68,-245 458.15,-193.16 516.71,-166.94 622.82,-229 636.91,-237.24 628.73,-250.04 640.82,-261 648.16,-267.65 657.15,-273.04 666.22,-277.35"/>
<text text-anchor="middle" x="425.25" y="-248.8" font-family="Times,serif" font-size="14.00">participates_in</text>
</g>
<!-- Protein(10)&#45;&gt;EC(15) -->
<g id="edge7" class="edge">
<title>Protein(10)&#45;&gt;EC(15)</title>
<path fill="none" stroke="black" d="M193.47,-497.33C193.2,-543.16 198.83,-664.01 261.68,-733 292.78,-767.14 345.04,-781.91 381.89,-788.26"/>
<text text-anchor="middle" x="295.18" y="-777.8" font-family="Times,serif" font-size="14.00">cat_c</text>
</g>
<!-- Protein(10)&#45;&gt;Gene(8) -->
<g id="edge10" class="edge">
<title>Protein(10)&#45;&gt;Gene(8)</title>
<path fill="none" stroke="blue" d="M242.81,-475.33C306.45,-472.67 419.55,-475.32 503.82,-518 514.2,-523.26 511.14,-532.4 521.82,-537 563.06,-554.74 581.23,-553.88 622.82,-537 624.97,-536.13 664.65,-497.16 690.15,-471.98"/>
<text text-anchor="middle" x="425.25" y="-521.8" font-family="Times,serif" font-size="14.00">enc</text>
</g>
<!-- Protein(10)&#45;&gt;Protein(7) -->
<g id="edge11" class="edge">
<title>Protein(10)&#45;&gt;Protein(7)</title>
<path fill="none" stroke="black" d="M194.37,-460.96C196.24,-390.89 206.75,-138.01 261.68,-85 277,-70.22 329.87,-65.2 371.21,-63.58"/>
<text text-anchor="middle" x="295.18" y="-103.8" font-family="Times,serif" font-size="14.00">h_s_s(&lt;=5)</text>
<text text-anchor="middle" x="295.18" y="-88.8" font-family="Times,serif" font-size="14.00">ortho(&lt;=5)</text>
</g>
<!-- Protein(10)&#45;&gt;ProtDomain(14) -->
<g id="edge14" class="edge">
<title>Protein(10)&#45;&gt;ProtDomain(14)</title>
<path fill="none" stroke="blue" d="M194.92,-497.2C197.89,-535.95 210.27,-627.23 261.68,-678 284.39,-700.42 316.7,-713.36 346.53,-720.82"/>
<text text-anchor="middle" x="295.18" y="-717.8" font-family="Times,serif" font-size="14.00">has_domain</text>
</g>
<!-- Protein(10)&#45;&gt;Enzyme(177) -->
<g id="edge16" class="edge">
<title>Protein(10)&#45;&gt;Enzyme(177)</title>
<path fill="none" stroke="blue" d="M197,-497.2C203.21,-528.77 220.46,-593.58 261.68,-628 288.16,-650.11 324.96,-660.53 356.85,-665.35"/>
<text text-anchor="middle" x="295.18" y="-662.8" font-family="Times,serif" font-size="14.00">is_a</text>
</g>
<!-- Protein(10)&#45;&gt;ProtDomain(11) -->
<g id="edge13" class="edge">
<title>Protein(10)&#45;&gt;ProtDomain(11)</title>
<path fill="none" stroke="black" d="M209.22,-461.81C221.93,-448.58 241.21,-430.92 261.68,-421 291.84,-406.38 328.22,-398.44 358.91,-394.13"/>
<text text-anchor="middle" x="295.18" y="-424.8" font-family="Times,serif" font-size="14.00">has_domain</text>
</g>
<!-- Protein(10)&#45;&gt;Enzyme(17) -->
<g id="edge17" class="edge">
<title>Protein(10)&#45;&gt;Enzyme(17)</title>
<path fill="none" stroke="black" d="M195.61,-497.1C201.32,-557.05 222.3,-747.8 261.68,-793 289.64,-825.08 336.6,-839.42 372.88,-845.83"/>
<text text-anchor="middle" x="295.18" y="-837.8" font-family="Times,serif" font-size="14.00">is_a</text>
</g>
<!-- Protein(10)&#45;&gt;Protein(10) -->
<g id="edge12" class="edge">
<title>Protein(10)&#45;&gt;Protein(10)</title>
<path fill="none" stroke="blue" d="M179.06,-496.41C176.46,-506.09 181.11,-515 192.99,-515 204.87,-515 209.51,-506.09 206.91,-496.41"/>
<text text-anchor="middle" x="192.99" y="-533.8" font-family="Times,serif" font-size="14.00">h_s_s(&lt;=5)</text>
<text text-anchor="middle" x="192.99" y="-518.8" font-family="Times,serif" font-size="14.00">ortho(&lt;=5)</text>
</g>
<!-- EC(12) -->
<g id="node19" class="node">
<title>EC(12)</title>
<ellipse fill="none" stroke="black" cx="425.25" cy="-560" rx="36.29" ry="18"/>
<text text-anchor="middle" x="425.25" y="-556.3" font-family="Times,serif" font-size="14.00">EC(12)</text>
</g>
<!-- Protein(10)&#45;&gt;EC(12) -->
<g id="edge8" class="edge">
<title>Protein(10)&#45;&gt;EC(12)</title>
<path fill="none" stroke="blue" d="M214.85,-495.33C227.71,-504.67 244.9,-515.9 261.68,-523 303.94,-540.87 356.19,-550.79 389.86,-555.76"/>
<text text-anchor="middle" x="295.18" y="-546.8" font-family="Times,serif" font-size="14.00">cat_c</text>
</g>
<!-- Gene(9) -->
<g id="node20" class="node">
<title>Gene(9)</title>
<ellipse fill="none" stroke="black" cx="425.25" cy="-287" rx="39.79" ry="18"/>
<text text-anchor="middle" x="425.25" y="-283.3" font-family="Times,serif" font-size="14.00">Gene(9)</text>
</g>
<!-- Protein(10)&#45;&gt;Gene(9) -->
<g id="edge9" class="edge">
<title>Protein(10)&#45;&gt;Gene(9)</title>
<path fill="none" stroke="black" d="M202.97,-461.12C214.36,-439.79 235.67,-404.01 261.68,-380 302.19,-342.62 360.32,-313.97 394.99,-298.88"/>
<text text-anchor="middle" x="295.18" y="-383.8" font-family="Times,serif" font-size="14.00">enc</text>
</g>
<!-- EC(12)&#45;&gt;MolFunc(3) -->
<g id="edge21" class="edge">
<title>EC(12)&#45;&gt;MolFunc(3)</title>
<path fill="none" stroke="blue" d="M461.8,-561.78C501.19,-563.42 566.6,-565.17 622.82,-562 631.63,-561.5 640.9,-560.73 650,-559.84"/>
<text text-anchor="middle" x="572.32" y="-566.8" font-family="Times,serif" font-size="14.00">equ</text>
</g>
<!-- Gene(9)&#45;&gt;Publication(2) -->
<g id="edge29" class="edge">
<title>Gene(9)&#45;&gt;Publication(2)</title>
<path fill="none" stroke="black" d="M444.93,-271.13C463.68,-255.58 493.75,-231.71 521.82,-214 570.91,-183.04 631.08,-153.57 670.27,-135.41"/>
<text text-anchor="middle" x="572.32" y="-217.8" font-family="Times,serif" font-size="14.00">pub_in</text>
</g>
<!-- Gene(9)&#45;&gt;Phenotype(13) -->
<g id="edge24" class="edge">
<title>Gene(9)&#45;&gt;Phenotype(13)</title>
<path fill="none" stroke="blue" d="M452.28,-273.54C471.09,-264.45 497.38,-253.06 521.82,-247 560.47,-237.42 604.72,-233.1 640.75,-231.2"/>
<text text-anchor="middle" x="572.32" y="-250.8" font-family="Times,serif" font-size="14.00">has_observ_pheno</text>
</g>
<!-- Gene(9)&#45;&gt;MolFunc(3) -->
<g id="edge23" class="edge">
<title>Gene(9)&#45;&gt;MolFunc(3)</title>
<path fill="none" stroke="black" d="M447.96,-301.92C465.88,-315.45 490.46,-337.07 503.82,-362 524.74,-401.03 490.73,-428.47 521.82,-460 553.96,-492.58 581.41,-460.55 622.82,-480 648.65,-492.13 673.43,-513.39 690.18,-529.68"/>
<text text-anchor="middle" x="572.32" y="-483.8" font-family="Times,serif" font-size="14.00">has_function</text>
</g>
<!-- Gene(9)&#45;&gt;CelComp(5) -->
<g id="edge27" class="edge">
<title>Gene(9)&#45;&gt;CelComp(5)</title>
<path fill="none" stroke="black" d="M464.59,-284.11C505.54,-282.54 571.48,-284.44 622.82,-307 632.62,-311.31 632.72,-316.01 640.82,-323 655.33,-335.51 671.74,-349.26 685.07,-360.33"/>
<text text-anchor="middle" x="572.32" y="-310.8" font-family="Times,serif" font-size="14.00">located_in</text>
</g>
<!-- Gene(9)&#45;&gt;BioProc(4) -->
<g id="edge28" class="edge">
<title>Gene(9)&#45;&gt;BioProc(4)</title>
<path fill="none" stroke="blue" d="M460.99,-278.85C479.02,-275.02 501.48,-270.9 521.82,-269 566.52,-264.83 578.3,-263.31 622.82,-269 636.84,-270.79 651.82,-274.12 665.39,-277.69"/>
<text text-anchor="middle" x="572.32" y="-272.8" font-family="Times,serif" font-size="14.00">participates_in</text>
</g>
<!-- Gene(9)&#45;&gt;TO(16) -->
<g id="edge22" class="edge">
<title>Gene(9)&#45;&gt;TO(16)</title>
<path fill="none" stroke="blue" d="M448.68,-272.17C466.29,-259.35 490.07,-239.26 503.82,-216 521.06,-186.87 502.09,-169.5 521.82,-142 560.54,-88.05 631.76,-52.74 675.01,-35.16"/>
<text text-anchor="middle" x="572.32" y="-145.8" font-family="Times,serif" font-size="14.00">cooc_wi</text>
</g>
<!-- Gene(9)&#45;&gt;Gene(8) -->
<g id="edge26" class="edge">
<title>Gene(9)&#45;&gt;Gene(8)</title>
<path fill="none" stroke="blue" d="M445.92,-302.71C462.79,-316.91 486.98,-339.04 503.82,-362 514.41,-376.42 508.03,-386.61 521.82,-398 562.67,-431.71 623.54,-444.03 665.21,-448.5"/>
<text text-anchor="middle" x="572.32" y="-444.8" font-family="Times,serif" font-size="14.00">it_wi(&lt;=8)</text>
</g>
<!-- Gene(9)&#45;&gt;Gene(9) -->
<g id="edge25" class="edge">
<title>Gene(9)&#45;&gt;Gene(9)</title>
<path fill="none" stroke="black" d="M403.26,-302.17C396.59,-312.66 403.93,-323 425.25,-323 446.58,-323 453.91,-312.66 447.25,-302.17"/>
<text text-anchor="middle" x="425.25" y="-326.8" font-family="Times,serif" font-size="14.00">it_wi(&lt;=8)</text>
</g>
</g>
</svg>
