<svg width="1039pt" height="1009pt"
 viewBox="0.00 0.00 1038.67 1009.09" xmlns="http://www.w3.org/2000/svg" xmlns:xlink="http://www.w3.org/1999/xlink">
<g id="graph0" class="graph" transform="scale(1 1) rotate(0) translate(4 1005.09)">
<title>%3</title>
<polygon fill="white" stroke="transparent" points="-4,4 -4,-1005.09 1034.67,-1005.09 1034.67,4 -4,4"/>
<!-- MolFunc(3) -->
<g id="node1" class="node">
<title>MolFunc(3)</title>
<polygon fill="none" stroke="darkgreen" points="793.03,-256.64 793.03,-271.55 759.41,-282.09 711.87,-282.09 678.25,-271.55 678.25,-256.64 711.87,-246.09 759.41,-246.09 793.03,-256.64"/>
<polygon fill="none" stroke="darkgreen" points="797.04,-253.7 797.04,-274.48 760.03,-286.09 711.25,-286.09 674.24,-274.48 674.24,-253.7 711.25,-242.09 760.03,-242.09 797.04,-253.7"/>
<text text-anchor="middle" x="735.64" y="-259.89" font-family="Times,serif" font-size="14.00">MolFunc(3)</text>
</g>
<!-- Reaction(188) -->
<g id="node2" class="node">
<title>Reaction(188)</title>
<polygon fill="none" stroke="darkgreen" points="801.52,-913.64 801.52,-928.55 762.93,-939.09 708.35,-939.09 669.76,-928.55 669.76,-913.64 708.35,-903.09 762.93,-903.09 801.52,-913.64"/>
<polygon fill="none" stroke="darkgreen" points="805.53,-910.58 805.53,-931.6 763.47,-943.09 707.81,-943.09 665.75,-931.6 665.75,-910.58 707.81,-899.09 763.47,-899.09 805.53,-910.58"/>
<text text-anchor="middle" x="735.64" y="-916.89" font-family="Times,serif" font-size="14.00">Reaction(188)</text>
</g>
<!-- Phenotype(13) -->
<g id="node3" class="node">
<title>Phenotype(13)</title>
<polygon fill="none" stroke="darkgreen" points="802.75,-496.64 802.75,-511.55 763.44,-522.09 707.84,-522.09 668.53,-511.55 668.53,-496.64 707.84,-486.09 763.44,-486.09 802.75,-496.64"/>
<polygon fill="none" stroke="darkgreen" points="806.74,-493.56 806.74,-514.62 763.96,-526.09 707.32,-526.09 664.55,-514.62 664.55,-493.56 707.32,-482.09 763.96,-482.09 806.74,-493.56"/>
<text text-anchor="middle" x="735.64" y="-499.89" font-family="Times,serif" font-size="14.00">Phenotype(13)</text>
</g>
<!-- TO(16) -->
<g id="node4" class="node">
<title>TO(16)</title>
<polygon fill="none" stroke="darkgreen" points="775.1,-667.64 775.1,-682.55 751.98,-693.09 719.3,-693.09 696.18,-682.55 696.18,-667.64 719.3,-657.09 751.98,-657.09 775.1,-667.64"/>
<polygon fill="none" stroke="darkgreen" points="779.1,-665.06 779.1,-685.12 752.85,-697.09 718.43,-697.09 692.18,-685.12 692.18,-665.06 718.43,-653.09 752.85,-653.09 779.1,-665.06"/>
<text text-anchor="middle" x="735.64" y="-670.89" font-family="Times,serif" font-size="14.00">TO(16)</text>
</g>
<!-- ProtDomain(14) -->
<g id="node5" class="node">
<title>ProtDomain(14)</title>
<polygon fill="none" stroke="darkgreen" points="520.32,-609.64 520.32,-624.55 477.05,-635.09 415.87,-635.09 372.61,-624.55 372.61,-609.64 415.87,-599.09 477.05,-599.09 520.32,-609.64"/>
<polygon fill="none" stroke="darkgreen" points="524.32,-606.5 524.32,-627.69 477.54,-639.09 415.39,-639.09 368.6,-627.69 368.6,-606.5 415.39,-595.09 477.54,-595.09 524.32,-606.5"/>
<text text-anchor="middle" x="446.46" y="-612.89" font-family="Times,serif" font-size="14.00">ProtDomain(14)</text>
</g>
<!-- Gene(1) -->
<g id="node6" class="node">
<title>Gene(1)</title>
<ellipse fill="none" stroke="red" cx="43.08" cy="-794.09" rx="39.15" ry="39.15"/>
<ellipse fill="none" stroke="red" cx="43.08" cy="-794.09" rx="43.15" ry="43.15"/>
<text text-anchor="middle" x="43.08" y="-789.89" font-family="Times,serif" font-size="14.00">Gene(1)</text>
</g>
<!-- Gene(1)&#45;&gt;TO(16) -->
<g id="edge5" class="edge">
<title>Gene(1)&#45;&gt;TO(16)</title>
<path fill="none" stroke="blue" d="M82.63,-811.44C89.74,-814.45 97.13,-817.45 104.15,-820.09 208.1,-859.14 240.42,-872.44 350.78,-860.09 484.64,-845.11 533.36,-866.42 646.34,-793.09 679.37,-771.66 704.59,-733.37 719.46,-706.22"/>
<polygon fill="blue" stroke="blue" points="722.69,-707.6 724.28,-697.13 716.5,-704.32 722.69,-707.6"/>
<text text-anchor="middle" x="305.57" y="-866.89" font-family="Times,serif" font-size="14.00">cooc_wi</text>
</g>
<!-- Protein(7) -->
<g id="node8" class="node">
<title>Protein(7)</title>
<polygon fill="none" stroke="darkgreen" points="495.98,-721.64 495.98,-736.55 466.97,-747.09 425.95,-747.09 396.94,-736.55 396.94,-721.64 425.95,-711.09 466.97,-711.09 495.98,-721.64"/>
<polygon fill="none" stroke="darkgreen" points="499.97,-718.83 499.97,-739.35 467.67,-751.09 425.25,-751.09 392.96,-739.35 392.96,-718.83 425.25,-707.09 467.67,-707.09 499.97,-718.83"/>
<text text-anchor="middle" x="446.46" y="-724.89" font-family="Times,serif" font-size="14.00">Protein(7)</text>
</g>
<!-- Gene(1)&#45;&gt;Protein(7) -->
<g id="edge3" class="edge">
<title>Gene(1)&#45;&gt;Protein(7)</title>
<path fill="none" stroke="blue" d="M85.5,-802.58C145.61,-813.12 259.79,-826.38 350.78,-797.09 375.17,-789.24 398.59,-772.52 416.04,-757.63"/>
<polygon fill="blue" stroke="blue" points="418.43,-760.19 423.62,-750.95 413.8,-754.94 418.43,-760.19"/>
<text text-anchor="middle" x="191.97" y="-816.89" font-family="Times,serif" font-size="14.00">enc</text>
</g>
<!-- Publication(2) -->
<g id="node12" class="node">
<title>Publication(2)</title>
<polygon fill="none" stroke="darkgreen" points="801.54,-562.64 801.54,-577.55 762.93,-588.09 708.35,-588.09 669.74,-577.55 669.74,-562.64 708.35,-552.09 762.93,-552.09 801.54,-562.64"/>
<polygon fill="none" stroke="darkgreen" points="805.55,-559.58 805.55,-580.6 763.47,-592.09 707.81,-592.09 665.73,-580.6 665.73,-559.58 707.81,-548.09 763.47,-548.09 805.55,-559.58"/>
<text text-anchor="middle" x="735.64" y="-565.89" font-family="Times,serif" font-size="14.00">Publication(2)</text>
</g>
<!-- Gene(1)&#45;&gt;Publication(2) -->
<g id="edge4" class="edge">
<title>Gene(1)&#45;&gt;Publication(2)</title>
<path fill="none" stroke="black" d="M86.13,-791.16C202.94,-783 522.89,-760.63 524.14,-760.09 566.6,-742.02 659.76,-648.52 706.59,-599.76"/>
<polygon fill="black" stroke="black" points="709.31,-601.98 713.7,-592.34 704.25,-597.14 709.31,-601.98"/>
<text text-anchor="middle" x="305.57" y="-780.89" font-family="Times,serif" font-size="14.00">occ_in</text>
</g>
<!-- Protein(10) -->
<g id="node17" class="node">
<title>Protein(10)</title>
<ellipse fill="none" stroke="black" cx="191.97" cy="-405.09" rx="50.27" ry="18"/>
<text text-anchor="middle" x="191.97" y="-400.89" font-family="Times,serif" font-size="14.00">Protein(10)</text>
</g>
<!-- Gene(1)&#45;&gt;Protein(10) -->
<g id="edge2" class="edge">
<title>Gene(1)&#45;&gt;Protein(10)</title>
<path fill="none" stroke="black" d="M59.24,-753.93C89.15,-674.72 155.06,-500.19 180.58,-432.59"/>
<polygon fill="black" stroke="black" points="183.93,-433.65 184.18,-423.06 177.38,-431.17 183.93,-433.65"/>
<text text-anchor="middle" x="113.87" y="-637.89" font-family="Times,serif" font-size="14.00">enc</text>
</g>
<!-- BioProc(4) -->
<g id="node7" class="node">
<title>BioProc(4)</title>
<polygon fill="none" stroke="darkgreen" points="789.09,-50.64 789.09,-65.55 757.78,-76.09 713.5,-76.09 682.19,-65.55 682.19,-50.64 713.5,-40.09 757.78,-40.09 789.09,-50.64"/>
<polygon fill="none" stroke="darkgreen" points="793.09,-47.76 793.09,-68.42 758.44,-80.09 712.84,-80.09 678.19,-68.42 678.19,-47.76 712.84,-36.09 758.44,-36.09 793.09,-47.76"/>
<text text-anchor="middle" x="735.64" y="-53.89" font-family="Times,serif" font-size="14.00">BioProc(4)</text>
</g>
<!-- Enzyme(177) -->
<g id="node9" class="node">
<title>Enzyme(177)</title>
<polygon fill="none" stroke="darkgreen" points="509.53,-397.64 509.53,-412.55 472.58,-423.09 420.34,-423.09 383.39,-412.55 383.39,-397.64 420.34,-387.09 472.58,-387.09 509.53,-397.64"/>
<polygon fill="none" stroke="darkgreen" points="513.53,-394.62 513.53,-415.57 473.14,-427.09 419.78,-427.09 379.39,-415.57 379.39,-394.62 419.78,-383.09 473.14,-383.09 513.53,-394.62"/>
<text text-anchor="middle" x="446.46" y="-400.89" font-family="Times,serif" font-size="14.00">Enzyme(177)</text>
</g>
<!-- Path(19) -->
<g id="node10" class="node">
<title>Path(19)</title>
<polygon fill="none" stroke="darkgreen" points="1025.33,-971.64 1025.33,-986.55 999.66,-997.09 963.37,-997.09 937.7,-986.55 937.7,-971.64 963.37,-961.09 999.66,-961.09 1025.33,-971.64"/>
<polygon fill="none" stroke="darkgreen" points="1029.32,-968.95 1029.32,-989.23 1000.45,-1001.09 962.58,-1001.09 933.71,-989.23 933.71,-968.95 962.58,-957.09 1000.45,-957.09 1029.32,-968.95"/>
<text text-anchor="middle" x="981.52" y="-974.89" font-family="Times,serif" font-size="14.00">Path(19)</text>
</g>
<!-- CelComp(5) -->
<g id="node11" class="node">
<title>CelComp(5)</title>
<polygon fill="none" stroke="darkgreen" points="794.24,-136.64 794.24,-151.55 759.91,-162.09 711.37,-162.09 677.04,-151.55 677.04,-136.64 711.37,-126.09 759.91,-126.09 794.24,-136.64"/>
<polygon fill="none" stroke="darkgreen" points="798.23,-133.68 798.23,-154.51 760.51,-166.09 710.77,-166.09 673.05,-154.51 673.05,-133.68 710.77,-122.09 760.51,-122.09 798.23,-133.68"/>
<text text-anchor="middle" x="735.64" y="-139.89" font-family="Times,serif" font-size="14.00">CelComp(5)</text>
</g>
<!-- Gene(8) -->
<g id="node13" class="node">
<title>Gene(8)</title>
<polygon fill="none" stroke="darkgreen" points="777.75,-359.64 777.75,-374.55 753.08,-385.09 718.2,-385.09 693.53,-374.55 693.53,-359.64 718.2,-349.09 753.08,-349.09 777.75,-359.64"/>
<polygon fill="none" stroke="darkgreen" points="781.73,-356.99 781.73,-377.19 753.9,-389.09 717.38,-389.09 689.55,-377.19 689.55,-356.99 717.38,-345.09 753.9,-345.09 781.73,-356.99"/>
<text text-anchor="middle" x="735.64" y="-362.89" font-family="Times,serif" font-size="14.00">Gene(8)</text>
</g>
<!-- Trait(21) -->
<g id="node14" class="node">
<title>Trait(21)</title>
<polygon fill="none" stroke="darkgreen" points="1026.82,-438.64 1026.82,-453.55 1000.28,-464.09 962.75,-464.09 936.21,-453.55 936.21,-438.64 962.75,-428.09 1000.28,-428.09 1026.82,-438.64"/>
<polygon fill="none" stroke="darkgreen" points="1030.83,-435.92 1030.83,-456.26 1001.05,-468.09 961.98,-468.09 932.2,-456.26 932.2,-435.92 961.98,-424.09 1001.05,-424.09 1030.83,-435.92"/>
<text text-anchor="middle" x="981.52" y="-441.89" font-family="Times,serif" font-size="14.00">Trait(21)</text>
</g>
<!-- EC(15) -->
<g id="node15" class="node">
<title>EC(15)</title>
<polygon fill="none" stroke="darkgreen" points="485.69,-127.64 485.69,-142.55 462.71,-153.09 430.21,-153.09 407.24,-142.55 407.24,-127.64 430.21,-117.09 462.71,-117.09 485.69,-127.64"/>
<polygon fill="none" stroke="darkgreen" points="489.7,-125.07 489.7,-145.11 463.59,-157.09 429.33,-157.09 403.22,-145.11 403.22,-125.07 429.33,-113.09 463.59,-113.09 489.7,-125.07"/>
<text text-anchor="middle" x="446.46" y="-130.89" font-family="Times,serif" font-size="14.00">EC(15)</text>
</g>
<!-- EC(12) -->
<g id="node16" class="node">
<title>EC(12)</title>
<ellipse fill="none" stroke="black" cx="446.46" cy="-297.09" rx="36.28" ry="18"/>
<text text-anchor="middle" x="446.46" y="-292.89" font-family="Times,serif" font-size="14.00">EC(12)</text>
</g>
<!-- EC(12)&#45;&gt;MolFunc(3) -->
<g id="edge1" class="edge">
<title>EC(12)&#45;&gt;MolFunc(3)</title>
<path fill="none" stroke="black" d="M480.67,-290.82C498.78,-287.56 521.64,-283.73 542.14,-281.09 582.44,-275.91 627.7,-271.83 664.2,-268.97"/>
<polygon fill="black" stroke="black" points="664.55,-272.45 674.25,-268.19 664.01,-265.47 664.55,-272.45"/>
<text text-anchor="middle" x="594.24" y="-283.89" font-family="Times,serif" font-size="14.00">equ</text>
</g>
<!-- Protein(10)&#45;&gt;MolFunc(3) -->
<g id="edge15" class="edge">
<title>Protein(10)&#45;&gt;MolFunc(3)</title>
<path fill="none" stroke="black" d="M199.4,-387.08C209.01,-362.66 229.35,-319.22 260.35,-294.09 300.02,-261.94 318.44,-264.66 368.78,-256.09 470.32,-238.81 589.99,-246.63 664.09,-254.68"/>
<polygon fill="black" stroke="black" points="663.91,-258.18 674.24,-255.82 664.69,-251.23 663.91,-258.18"/>
<text text-anchor="middle" x="446.46" y="-258.89" font-family="Times,serif" font-size="14.00">has_function</text>
</g>
<!-- Protein(10)&#45;&gt;TO(16) -->
<g id="edge16" class="edge">
<title>Protein(10)&#45;&gt;TO(16)</title>
<path fill="none" stroke="blue" d="M192.33,-423.22C191.88,-466.72 197.3,-577.42 260.35,-632.09 322.15,-685.68 571.76,-682.12 681.94,-677.74"/>
<polygon fill="blue" stroke="blue" points="682.31,-681.22 692.15,-677.31 682.02,-674.23 682.31,-681.22"/>
<text text-anchor="middle" x="446.46" y="-682.89" font-family="Times,serif" font-size="14.00">cooc_wi</text>
</g>
<!-- Protein(10)&#45;&gt;ProtDomain(14) -->
<g id="edge17" class="edge">
<title>Protein(10)&#45;&gt;ProtDomain(14)</title>
<path fill="none" stroke="black" d="M194.54,-423.1C198.63,-458.38 212.85,-536.66 260.35,-577.09 287.47,-600.17 324.78,-610.88 358.8,-615.56"/>
<polygon fill="black" stroke="black" points="358.41,-619.04 368.76,-616.77 359.26,-612.09 358.41,-619.04"/>
<text text-anchor="middle" x="305.57" y="-616.89" font-family="Times,serif" font-size="14.00">has_domain</text>
</g>
<!-- Protein(10)&#45;&gt;BioProc(4) -->
<g id="edge7" class="edge">
<title>Protein(10)&#45;&gt;BioProc(4)</title>
<path fill="none" stroke="black" d="M194.1,-386.97C198.38,-324.14 215.7,-116.99 260.35,-71.09 371.42,43.07 585.28,-7.81 683.3,-39.54"/>
<polygon fill="black" stroke="black" points="682.38,-42.92 692.97,-42.73 684.58,-36.28 682.38,-42.92"/>
<text text-anchor="middle" x="446.46" y="-12.89" font-family="Times,serif" font-size="14.00">participates_in</text>
</g>
<!-- Protein(10)&#45;&gt;Protein(7) -->
<g id="edge8" class="edge">
<title>Protein(10)&#45;&gt;Protein(7)</title>
<path fill="none" stroke="blue" d="M195.02,-423.26C201.61,-478.25 223.89,-641.37 260.35,-678.09 289.57,-707.52 310.79,-690.1 350.78,-701.09 363.95,-704.71 378.1,-708.79 391.33,-712.69"/>
<polygon fill="blue" stroke="blue" points="390.66,-716.15 401.25,-715.63 392.65,-709.44 390.66,-716.15"/>
<text text-anchor="middle" x="305.57" y="-745.89" font-family="Times,serif" font-size="14.00">equivalent(&lt;=4)</text>
<text text-anchor="middle" x="305.57" y="-731.89" font-family="Times,serif" font-size="14.00">xref(&lt;=6)</text>
<text text-anchor="middle" x="305.57" y="-717.89" font-family="Times,serif" font-size="14.00">h_s_s(&lt;=4)</text>
<text text-anchor="middle" x="305.57" y="-703.89" font-family="Times,serif" font-size="14.00">ortho(&lt;=4)</text>
</g>
<!-- Protein(10)&#45;&gt;Enzyme(177) -->
<g id="edge9" class="edge">
<title>Protein(10)&#45;&gt;Enzyme(177)</title>
<path fill="none" stroke="black" d="M242.55,-405.09C278.56,-405.09 327.97,-405.09 369.01,-405.09"/>
<polygon fill="black" stroke="black" points="369.26,-408.59 379.26,-405.09 369.26,-401.59 369.26,-408.59"/>
<text text-anchor="middle" x="305.57" y="-407.89" font-family="Times,serif" font-size="14.00">is_a</text>
</g>
<!-- Protein(10)&#45;&gt;CelComp(5) -->
<g id="edge11" class="edge">
<title>Protein(10)&#45;&gt;CelComp(5)</title>
<path fill="none" stroke="black" d="M195.18,-386.96C202.21,-332.04 225.65,-168.96 260.35,-130.09 368.14,-9.37 589.81,-82.18 687.1,-122.58"/>
<polygon fill="black" stroke="black" points="685.82,-125.84 696.39,-126.5 688.54,-119.39 685.82,-125.84"/>
<text text-anchor="middle" x="446.46" y="-75.89" font-family="Times,serif" font-size="14.00">located_in</text>
</g>
<!-- Protein(10)&#45;&gt;Publication(2) -->
<g id="edge12" class="edge">
<title>Protein(10)&#45;&gt;Publication(2)</title>
<path fill="none" stroke="blue" d="M208.96,-422.11C237.71,-451.42 301.45,-510.75 368.78,-536.09 462.72,-571.45 579.4,-576.19 655.37,-574.59"/>
<polygon fill="blue" stroke="blue" points="655.91,-578.08 665.82,-574.32 655.73,-571.08 655.91,-578.08"/>
<text text-anchor="middle" x="446.46" y="-572.89" font-family="Times,serif" font-size="14.00">pub_in</text>
</g>
<!-- Protein(10)&#45;&gt;Gene(8) -->
<g id="edge14" class="edge">
<title>Protein(10)&#45;&gt;Gene(8)</title>
<path fill="none" stroke="blue" d="M229.49,-392.88C264.7,-381.8 319.7,-366.27 368.78,-360.09 491.17,-344.68 523.08,-355.21 646.34,-360.09 656.94,-360.51 668.23,-361.21 679.08,-362.01"/>
<polygon fill="blue" stroke="blue" points="679.07,-365.52 689.31,-362.81 679.61,-358.54 679.07,-365.52"/>
<text text-anchor="middle" x="446.46" y="-362.89" font-family="Times,serif" font-size="14.00">enc</text>
</g>
<!-- Protein(10)&#45;&gt;EC(15) -->
<g id="edge19" class="edge">
<title>Protein(10)&#45;&gt;EC(15)</title>
<path fill="none" stroke="black" d="M192.25,-386.84C191.59,-342.45 196.53,-228.28 260.35,-170.09 296,-137.59 352.02,-130.92 393.11,-131.11"/>
<polygon fill="black" stroke="black" points="393.14,-134.61 403.21,-131.29 393.27,-127.61 393.14,-134.61"/>
<text text-anchor="middle" x="305.57" y="-172.89" font-family="Times,serif" font-size="14.00">cat_c</text>
</g>
<!-- Protein(10)&#45;&gt;EC(12) -->
<g id="edge13" class="edge">
<title>Protein(10)&#45;&gt;EC(12)</title>
<path fill="none" stroke="black" d="M202.21,-387.36C213.26,-368.09 233.68,-338.06 260.35,-323.09 303.48,-298.9 360.85,-294.29 400.23,-294.53"/>
<polygon fill="black" stroke="black" points="400.28,-298.03 410.33,-294.7 400.39,-291.03 400.28,-298.03"/>
<text text-anchor="middle" x="305.57" y="-325.89" font-family="Times,serif" font-size="14.00">cat_c</text>
</g>
<!-- Protein(10)&#45;&gt;Protein(10) -->
<g id="edge6" class="edge">
<title>Protein(10)&#45;&gt;Protein(10)</title>
<path fill="none" stroke="blue" d="M178.04,-422.5C175.44,-432.18 180.08,-441.09 191.97,-441.09 199.39,-441.09 203.99,-437.61 205.76,-432.64"/>
<polygon fill="blue" stroke="blue" points="209.26,-432.55 205.89,-422.5 202.26,-432.46 209.26,-432.55"/>
<text text-anchor="middle" x="191.97" y="-485.89" font-family="Times,serif" font-size="14.00">ortho(&lt;=4)</text>
<text text-anchor="middle" x="191.97" y="-471.89" font-family="Times,serif" font-size="14.00">xref(&lt;=6)</text>
<text text-anchor="middle" x="191.97" y="-457.89" font-family="Times,serif" font-size="14.00">equivalent(&lt;=4)</text>
<text text-anchor="middle" x="191.97" y="-443.89" font-family="Times,serif" font-size="14.00">h_s_s(&lt;=4)</text>
</g>
<!-- Enzyme(17) -->
<g id="node18" class="node">
<title>Enzyme(17)</title>
<ellipse fill="none" stroke="black" cx="446.46" cy="-928.09" rx="53.63" ry="18"/>
<text text-anchor="middle" x="446.46" y="-923.89" font-family="Times,serif" font-size="14.00">Enzyme(17)</text>
</g>
<!-- Protein(10)&#45;&gt;Enzyme(17) -->
<g id="edge10" class="edge">
<title>Protein(10)&#45;&gt;Enzyme(17)</title>
<path fill="none" stroke="blue" d="M194.02,-423.44C198.3,-492.45 216.28,-735.65 260.35,-797.09 287,-834.24 313.19,-820.09 350.78,-846.09 376.13,-863.63 402.44,-886.88 420.87,-904.15"/>
<polygon fill="blue" stroke="blue" points="418.59,-906.82 428.26,-911.15 423.4,-901.73 418.59,-906.82"/>
<text text-anchor="middle" x="305.57" y="-848.89" font-family="Times,serif" font-size="14.00">is_a</text>
</g>
<!-- Gene(9) -->
<g id="node19" class="node">
<title>Gene(9)</title>
<ellipse fill="none" stroke="black" cx="446.46" cy="-463.09" rx="39.15" ry="18"/>
<text text-anchor="middle" x="446.46" y="-458.89" font-family="Times,serif" font-size="14.00">Gene(9)</text>
</g>
<!-- Protein(10)&#45;&gt;Gene(9) -->
<g id="edge18" class="edge">
<title>Protein(10)&#45;&gt;Gene(9)</title>
<path fill="none" stroke="blue" d="M232.44,-415.98C241.58,-418.4 251.29,-420.9 260.35,-423.09 307.83,-434.55 362.53,-446.18 400.09,-453.92"/>
<polygon fill="blue" stroke="blue" points="399.7,-457.42 410.2,-456 401.11,-450.56 399.7,-457.42"/>
<text text-anchor="middle" x="305.57" y="-445.89" font-family="Times,serif" font-size="14.00">enc</text>
</g>
<!-- ProtDomain(11) -->
<g id="node20" class="node">
<title>ProtDomain(11)</title>
<ellipse fill="none" stroke="black" cx="446.46" cy="-193.09" rx="68" ry="18"/>
<text text-anchor="middle" x="446.46" y="-188.89" font-family="Times,serif" font-size="14.00">ProtDomain(11)</text>
</g>
<!-- Protein(10)&#45;&gt;ProtDomain(11) -->
<g id="edge20" class="edge">
<title>Protein(10)&#45;&gt;ProtDomain(11)</title>
<path fill="none" stroke="blue" d="M193.66,-387.09C196.17,-349.32 207.67,-261.82 260.35,-219.09 291.46,-193.87 335.58,-186.92 372.95,-186.49"/>
<polygon fill="blue" stroke="blue" points="373.28,-189.99 383.3,-186.53 373.31,-182.99 373.28,-189.99"/>
<text text-anchor="middle" x="305.57" y="-221.89" font-family="Times,serif" font-size="14.00">has_domain</text>
</g>
<!-- Enzyme(17)&#45;&gt;Reaction(188) -->
<g id="edge22" class="edge">
<title>Enzyme(17)&#45;&gt;Reaction(188)</title>
<path fill="none" stroke="blue" d="M500.47,-926.8C544.06,-925.74 606.48,-924.22 655.91,-923.01"/>
<polygon fill="blue" stroke="blue" points="656.02,-926.51 665.93,-922.77 655.85,-919.51 656.02,-926.51"/>
<text text-anchor="middle" x="594.24" y="-927.89" font-family="Times,serif" font-size="14.00">ca_by</text>
</g>
<!-- Reaction(18) -->
<g id="node21" class="node">
<title>Reaction(18)</title>
<ellipse fill="none" stroke="black" cx="735.64" cy="-979.09" rx="56.04" ry="18"/>
<text text-anchor="middle" x="735.64" y="-974.89" font-family="Times,serif" font-size="14.00">Reaction(18)</text>
</g>
<!-- Enzyme(17)&#45;&gt;Reaction(18) -->
<g id="edge21" class="edge">
<title>Enzyme(17)&#45;&gt;Reaction(18)</title>
<path fill="none" stroke="black" d="M494.24,-936.4C543.81,-945.2 622.2,-959.12 675.9,-968.66"/>
<polygon fill="black" stroke="black" points="675.5,-972.14 685.96,-970.45 676.73,-965.25 675.5,-972.14"/>
<text text-anchor="middle" x="594.24" y="-964.89" font-family="Times,serif" font-size="14.00">ca_by</text>
</g>
<!-- Gene(9)&#45;&gt;MolFunc(3) -->
<g id="edge30" class="edge">
<title>Gene(9)&#45;&gt;MolFunc(3)</title>
<path fill="none" stroke="black" d="M483.77,-457.62C498.05,-453.77 513.52,-447.22 524.14,-436.09 543.36,-415.95 523.29,-396.58 542.14,-376.09 575.84,-339.46 603.3,-360.08 646.34,-335.09 666.81,-323.21 687.54,-306.81 703.77,-292.77"/>
<polygon fill="black" stroke="black" points="706.16,-295.33 711.35,-286.1 701.53,-290.08 706.16,-295.33"/>
<text text-anchor="middle" x="594.24" y="-378.89" font-family="Times,serif" font-size="14.00">has_function</text>
</g>
<!-- Gene(9)&#45;&gt;Phenotype(13) -->
<g id="edge31" class="edge">
<title>Gene(9)&#45;&gt;Phenotype(13)</title>
<path fill="none" stroke="blue" d="M484.12,-468.33C526.76,-474.41 598.41,-484.64 654.18,-492.61"/>
<polygon fill="blue" stroke="blue" points="654.01,-496.12 664.4,-494.06 655,-489.19 654.01,-496.12"/>
<text text-anchor="middle" x="594.24" y="-493.89" font-family="Times,serif" font-size="14.00">has_observ_pheno</text>
</g>
<!-- Gene(9)&#45;&gt;TO(16) -->
<g id="edge27" class="edge">
<title>Gene(9)&#45;&gt;TO(16)</title>
<path fill="none" stroke="blue" d="M463.71,-479.44C479.29,-495.16 503.44,-519.64 524.14,-541.09 532.22,-549.46 533.06,-552.82 542.14,-560.09 590.76,-599.05 653.82,-634.24 694.27,-655.15"/>
<polygon fill="blue" stroke="blue" points="692.79,-658.33 703.29,-659.77 695.98,-652.1 692.79,-658.33"/>
<text text-anchor="middle" x="594.24" y="-630.89" font-family="Times,serif" font-size="14.00">cooc_wi</text>
</g>
<!-- Gene(9)&#45;&gt;BioProc(4) -->
<g id="edge28" class="edge">
<title>Gene(9)&#45;&gt;BioProc(4)</title>
<path fill="none" stroke="black" d="M484.65,-458.81C499.25,-455.16 514.73,-448.44 524.14,-436.09 558.46,-391.1 505.17,-224.92 542.14,-182.09 573.13,-146.19 610.3,-189.92 646.34,-159.09 663.03,-144.82 651.23,-130.7 664.34,-113.09 672.75,-101.8 684.04,-91.6 695.11,-83.13"/>
<polygon fill="black" stroke="black" points="697.48,-85.73 703.48,-77.01 693.35,-80.09 697.48,-85.73"/>
<text text-anchor="middle" x="594.24" y="-184.89" font-family="Times,serif" font-size="14.00">participates_in</text>
</g>
<!-- Gene(9)&#45;&gt;CelComp(5) -->
<g id="edge24" class="edge">
<title>Gene(9)&#45;&gt;CelComp(5)</title>
<path fill="none" stroke="black" d="M484.58,-458.33C498.98,-454.6 514.34,-447.94 524.14,-436.09 558.24,-394.88 505.43,-355.99 542.14,-317.09 574.63,-282.67 611.65,-327.29 646.34,-295.09 667.37,-275.57 651.21,-258.6 664.34,-233.09 675.42,-211.58 692.06,-190.21 706.37,-173.81"/>
<polygon fill="black" stroke="black" points="709.14,-175.97 713.18,-166.17 703.91,-171.31 709.14,-175.97"/>
<text text-anchor="middle" x="594.24" y="-319.89" font-family="Times,serif" font-size="14.00">located_in</text>
</g>
<!-- Gene(9)&#45;&gt;Publication(2) -->
<g id="edge32" class="edge">
<title>Gene(9)&#45;&gt;Publication(2)</title>
<path fill="none" stroke="black" d="M472.73,-476.61C491.54,-486.38 518.04,-499.48 542.14,-509.09 587.27,-527.09 600.03,-527.42 646.34,-542.09 655.56,-545.01 665.32,-548.11 674.85,-551.13"/>
<polygon fill="black" stroke="black" points="674.09,-554.56 684.68,-554.24 676.2,-547.88 674.09,-554.56"/>
<text text-anchor="middle" x="594.24" y="-544.89" font-family="Times,serif" font-size="14.00">pub_in</text>
</g>
<!-- Gene(9)&#45;&gt;Gene(8) -->
<g id="edge29" class="edge">
<title>Gene(9)&#45;&gt;Gene(8)</title>
<path fill="none" stroke="blue" d="M480.79,-454.45C494.73,-450.07 510.77,-443.97 524.14,-436.09 533.36,-430.66 532.68,-425.09 542.14,-420.09 584.36,-397.81 600.35,-406.85 646.34,-394.09 659.02,-390.57 672.64,-386.54 685.3,-382.68"/>
<polygon fill="blue" stroke="blue" points="686.68,-385.91 695.21,-379.63 684.62,-379.22 686.68,-385.91"/>
<text text-anchor="middle" x="594.24" y="-436.89" font-family="Times,serif" font-size="14.00">physical(&lt;=8)</text>
<text text-anchor="middle" x="594.24" y="-422.89" font-family="Times,serif" font-size="14.00">genetic(&lt;=8)</text>
</g>
<!-- Gene(9)&#45;&gt;Gene(9) -->
<g id="edge25" class="edge">
<title>Gene(9)&#45;&gt;Gene(9)</title>
<path fill="none" stroke="blue" d="M423.04,-477.88C415.41,-488.51 423.22,-499.09 446.46,-499.09 462.08,-499.09 470.73,-494.31 472.41,-487.96"/>
<polygon fill="blue" stroke="blue" points="475.71,-486.73 469.88,-477.88 468.92,-488.43 475.71,-486.73"/>
<text text-anchor="middle" x="446.46" y="-515.89" font-family="Times,serif" font-size="14.00">genetic(&lt;=8)</text>
<text text-anchor="middle" x="446.46" y="-501.89" font-family="Times,serif" font-size="14.00">physical(&lt;=8)</text>
</g>
<!-- SNP(20) -->
<g id="node22" class="node">
<title>SNP(20)</title>
<ellipse fill="none" stroke="black" cx="735.64" cy="-446.09" rx="41.13" ry="18"/>
<text text-anchor="middle" x="735.64" y="-441.89" font-family="Times,serif" font-size="14.00">SNP(20)</text>
</g>
<!-- Gene(9)&#45;&gt;SNP(20) -->
<g id="edge26" class="edge">
<title>Gene(9)&#45;&gt;SNP(20)</title>
<path fill="none" stroke="black" d="M485.3,-460.85C536.49,-457.82 627.91,-452.41 684.69,-449.05"/>
<polygon fill="black" stroke="black" points="685.1,-452.53 694.87,-448.45 684.68,-445.54 685.1,-452.53"/>
<text text-anchor="middle" x="594.24" y="-460.89" font-family="Times,serif" font-size="14.00">has_variation</text>
</g>
<!-- ProtDomain(11)&#45;&gt;MolFunc(3) -->
<g id="edge34" class="edge">
<title>ProtDomain(11)&#45;&gt;MolFunc(3)</title>
<path fill="none" stroke="black" d="M513.6,-196.08C552.88,-199.24 603.27,-205.74 646.34,-219.09 662.67,-224.16 679.63,-232.07 694.27,-239.86"/>
<polygon fill="black" stroke="black" points="692.6,-242.93 703.05,-244.66 695.96,-236.79 692.6,-242.93"/>
<text text-anchor="middle" x="594.24" y="-221.89" font-family="Times,serif" font-size="14.00">has_function</text>
</g>
<!-- ProtDomain(11)&#45;&gt;BioProc(4) -->
<g id="edge35" class="edge">
<title>ProtDomain(11)&#45;&gt;BioProc(4)</title>
<path fill="none" stroke="blue" d="M499.93,-181.9C508.88,-178.07 517.43,-172.95 524.14,-166.09 542.13,-147.7 523.53,-128.84 542.14,-111.09 575.75,-79.05 626.89,-66.03 668.02,-60.9"/>
<polygon fill="blue" stroke="blue" points="668.42,-64.37 677.97,-59.78 667.64,-57.42 668.42,-64.37"/>
<text text-anchor="middle" x="594.24" y="-113.89" font-family="Times,serif" font-size="14.00">participates_in</text>
</g>
<!-- ProtDomain(11)&#45;&gt;CelComp(5) -->
<g id="edge36" class="edge">
<title>ProtDomain(11)&#45;&gt;CelComp(5)</title>
<path fill="none" stroke="black" d="M495.56,-180.5C505.48,-176.74 515.52,-171.99 524.14,-166.09 534.29,-159.15 530.99,-150.26 542.14,-145.09 580.84,-127.17 628.78,-126.87 667.14,-131.07"/>
<polygon fill="black" stroke="black" points="666.83,-134.56 677.18,-132.29 667.68,-127.61 666.83,-134.56"/>
<text text-anchor="middle" x="594.24" y="-147.89" font-family="Times,serif" font-size="14.00">located_in</text>
</g>
<!-- Reaction(18)&#45;&gt;Path(19) -->
<g id="edge23" class="edge">
<title>Reaction(18)&#45;&gt;Path(19)</title>
<path fill="none" stroke="blue" d="M791.98,-979.09C831.28,-979.09 883.9,-979.09 923.56,-979.09"/>
<polygon fill="blue" stroke="blue" points="923.6,-982.59 933.6,-979.09 923.6,-975.59 923.6,-982.59"/>
<text text-anchor="middle" x="869.65" y="-981.89" font-family="Times,serif" font-size="14.00">part_of</text>
</g>
<!-- SNP(20)&#45;&gt;Trait(21) -->
<g id="edge33" class="edge">
<title>SNP(20)&#45;&gt;Trait(21)</title>
<path fill="none" stroke="blue" d="M776.91,-446.09C816.45,-446.09 877.18,-446.09 922.04,-446.09"/>
<polygon fill="blue" stroke="blue" points="922.21,-449.59 932.21,-446.09 922.21,-442.59 922.21,-449.59"/>
<text text-anchor="middle" x="869.65" y="-448.89" font-family="Times,serif" font-size="14.00">associated_with</text>
</g>
</g>
</svg>
