<svg width="1335px" height="1400px"
 viewBox="0.00 0.00 1000.95 1050.06" xmlns="http://www.w3.org/2000/svg" xmlns:xlink="http://www.w3.org/1999/xlink">
<g id="graph0" class="graph" transform=" rotate(0) translate(4 1046.06)">
<title>%3</title>
<polygon fill="white" stroke="transparent" points="-4,4 -4,-1046.06 996.95,-1046.06 996.95,4 -4,4"/>
<!-- ProtDomain(14) -->
<g id="node1" class="node">
<title>ProtDomain(14)</title>
<polygon fill="none" stroke="darkgreen" points="534.09,-257.61 534.09,-272.52 490.83,-283.06 429.64,-283.06 386.38,-272.52 386.38,-257.61 429.64,-247.06 490.83,-247.06 534.09,-257.61"/>
<polygon fill="none" stroke="darkgreen" points="538.1,-254.47 538.1,-275.66 491.31,-287.06 429.16,-287.06 382.37,-275.66 382.37,-254.47 429.16,-243.06 491.31,-243.06 538.1,-254.47"/>
<text text-anchor="middle" x="460.24" y="-260.86" font-family="Times,serif" font-size="14.00">ProtDomain(14)</text>
</g>
<!-- Gene(8) -->
<g id="node2" class="node">
<title>Gene(8)</title>
<polygon fill="none" stroke="darkgreen" points="502.35,-195.61 502.35,-210.52 477.68,-221.06 442.79,-221.06 418.12,-210.52 418.12,-195.61 442.79,-185.06 477.68,-185.06 502.35,-195.61"/>
<polygon fill="none" stroke="darkgreen" points="506.33,-192.96 506.33,-213.16 478.49,-225.06 441.98,-225.06 414.14,-213.16 414.14,-192.96 441.98,-181.06 478.49,-181.06 506.33,-192.96"/>
<text text-anchor="middle" x="460.24" y="-198.86" font-family="Times,serif" font-size="14.00">Gene(8)</text>
</g>
<!-- Protein(7) -->
<g id="node3" class="node">
<title>Protein(7)</title>
<polygon fill="none" stroke="darkgreen" points="509.76,-802.61 509.76,-817.52 480.75,-828.06 439.72,-828.06 410.71,-817.52 410.71,-802.61 439.72,-792.06 480.75,-792.06 509.76,-802.61"/>
<polygon fill="none" stroke="darkgreen" points="513.74,-799.8 513.74,-820.32 481.45,-832.06 439.02,-832.06 406.73,-820.32 406.73,-799.8 439.02,-788.06 481.45,-788.06 513.74,-799.8"/>
<text text-anchor="middle" x="460.24" y="-805.86" font-family="Times,serif" font-size="14.00">Protein(7)</text>
</g>
<!-- Path(20) -->
<g id="node4" class="node">
<title>Path(20)</title>
<polygon fill="none" stroke="darkgreen" points="988.86,-1012.61 988.86,-1027.52 963.19,-1038.06 926.89,-1038.06 901.23,-1027.52 901.23,-1012.61 926.89,-1002.06 963.19,-1002.06 988.86,-1012.61"/>
<polygon fill="none" stroke="darkgreen" points="992.85,-1009.92 992.85,-1030.2 963.98,-1042.06 926.11,-1042.06 897.23,-1030.2 897.23,-1009.92 926.11,-998.06 963.98,-998.06 992.85,-1009.92"/>
<text text-anchor="middle" x="945.04" y="-1015.86" font-family="Times,serif" font-size="14.00">Path(20)</text>
</g>
<!-- Gene(1) -->
<g id="node5" class="node">
<title>Gene(1)</title>
<ellipse fill="none" stroke="red" cx="43.08" cy="-749.06" rx="39.15" ry="39.15"/>
<ellipse fill="none" stroke="red" cx="43.08" cy="-749.06" rx="43.15" ry="43.15"/>
<text text-anchor="middle" x="43.08" y="-744.86" font-family="Times,serif" font-size="14.00">Gene(1)</text>
</g>
<!-- Gene(1)&#45;&gt;Protein(7) -->
<g id="edge2" class="edge">
<title>Gene(1)&#45;&gt;Protein(7)</title>
<path fill="none" stroke="blue" d="M80.93,-769.71C122.87,-791.92 194.15,-825.84 260.35,-839.06 305.77,-848.13 318.75,-845.92 364.55,-839.06 382.92,-836.31 402.64,-830.72 419.3,-825.18"/>
<text text-anchor="middle" x="191.97" y="-836.86" font-family="Times,serif" font-size="14.00">enc</text>
</g>
<!-- Phenotype(13) -->
<g id="node6" class="node">
<title>Phenotype(13)</title>
<polygon fill="none" stroke="darkgreen" points="816.52,-750.61 816.52,-765.52 777.21,-776.06 721.62,-776.06 682.31,-765.52 682.31,-750.61 721.62,-740.06 777.21,-740.06 816.52,-750.61"/>
<polygon fill="none" stroke="darkgreen" points="820.51,-747.54 820.51,-768.59 777.74,-780.06 721.09,-780.06 678.32,-768.59 678.32,-747.54 721.09,-736.06 777.74,-736.06 820.51,-747.54"/>
<text text-anchor="middle" x="749.41" y="-753.86" font-family="Times,serif" font-size="14.00">Phenotype(13)</text>
</g>
<!-- Gene(1)&#45;&gt;Phenotype(13) -->
<g id="edge1" class="edge">
<title>Gene(1)&#45;&gt;Phenotype(13)</title>
<path fill="none" stroke="black" d="M70.07,-783.24C88.19,-805.21 113.98,-833.1 141.58,-852.06 188.65,-884.4 204.34,-889.96 260.35,-901.06 435.52,-935.78 638.54,-826.38 716.07,-778.92"/>
<text text-anchor="middle" x="312.45" y="-923.86" font-family="Times,serif" font-size="14.00">cooc_wi</text>
<text text-anchor="middle" x="312.45" y="-909.86" font-family="Times,serif" font-size="14.00">has_observ_pheno</text>
</g>
<!-- Publication(2) -->
<g id="node10" class="node">
<title>Publication(2)</title>
<polygon fill="none" stroke="darkgreen" points="815.31,-411.61 815.31,-426.52 776.71,-437.06 722.12,-437.06 683.52,-426.52 683.52,-411.61 722.12,-401.06 776.71,-401.06 815.31,-411.61"/>
<polygon fill="none" stroke="darkgreen" points="819.32,-408.55 819.32,-429.57 777.25,-441.06 721.58,-441.06 679.51,-429.57 679.51,-408.55 721.58,-397.06 777.25,-397.06 819.32,-408.55"/>
<text text-anchor="middle" x="749.41" y="-414.86" font-family="Times,serif" font-size="14.00">Publication(2)</text>
</g>
<!-- Gene(1)&#45;&gt;Publication(2) -->
<g id="edge4" class="edge">
<title>Gene(1)&#45;&gt;Publication(2)</title>
<path fill="none" stroke="blue" d="M50.67,-706.46C73.09,-567.79 151.08,-133.53 260.35,-53.06 409.02,56.42 553.54,-15.29 660.12,-166.06 713.02,-240.9 736.79,-350.38 744.94,-396.87"/>
<text text-anchor="middle" x="312.45" y="-69.86" font-family="Times,serif" font-size="14.00">occ_in</text>
<text text-anchor="middle" x="312.45" y="-55.86" font-family="Times,serif" font-size="14.00">pub_in</text>
</g>
<!-- Protein(10) -->
<g id="node14" class="node">
<title>Protein(10)</title>
<ellipse fill="none" stroke="black" cx="191.97" cy="-551.06" rx="50.27" ry="18"/>
<text text-anchor="middle" x="191.97" y="-546.86" font-family="Times,serif" font-size="14.00">Protein(10)</text>
</g>
<!-- Gene(1)&#45;&gt;Protein(10) -->
<g id="edge3" class="edge">
<title>Gene(1)&#45;&gt;Protein(10)</title>
<path fill="none" stroke="black" d="M69.66,-714.57C101.31,-671.92 153.95,-600.96 178.12,-568.38"/>
<text text-anchor="middle" x="113.87" y="-669.86" font-family="Times,serif" font-size="14.00">enc</text>
</g>
<!-- EC(15) -->
<g id="node7" class="node">
<title>EC(15)</title>
<polygon fill="none" stroke="darkgreen" points="499.46,-381.61 499.46,-396.52 476.48,-407.06 443.99,-407.06 421.01,-396.52 421.01,-381.61 443.99,-371.06 476.48,-371.06 499.46,-381.61"/>
<polygon fill="none" stroke="darkgreen" points="503.47,-379.04 503.47,-399.08 477.36,-411.06 443.11,-411.06 417,-399.08 417,-379.04 443.11,-367.06 477.36,-367.06 503.47,-379.04"/>
<text text-anchor="middle" x="460.24" y="-384.86" font-family="Times,serif" font-size="14.00">EC(15)</text>
</g>
<!-- MolFunc(3) -->
<g id="node8" class="node">
<title>MolFunc(3)</title>
<polygon fill="none" stroke="darkgreen" points="806.81,-571.61 806.81,-586.52 773.19,-597.06 725.64,-597.06 692.02,-586.52 692.02,-571.61 725.64,-561.06 773.19,-561.06 806.81,-571.61"/>
<polygon fill="none" stroke="darkgreen" points="810.82,-568.67 810.82,-589.45 773.8,-601.06 725.03,-601.06 688.01,-589.45 688.01,-568.67 725.03,-557.06 773.8,-557.06 810.82,-568.67"/>
<text text-anchor="middle" x="749.41" y="-574.86" font-family="Times,serif" font-size="14.00">MolFunc(3)</text>
</g>
<!-- CelComp(5) -->
<g id="node9" class="node">
<title>CelComp(5)</title>
<polygon fill="none" stroke="darkgreen" points="808.02,-667.61 808.02,-682.52 773.69,-693.06 725.14,-693.06 690.81,-682.52 690.81,-667.61 725.14,-657.06 773.69,-657.06 808.02,-667.61"/>
<polygon fill="none" stroke="darkgreen" points="812.01,-664.65 812.01,-685.48 774.29,-697.06 724.54,-697.06 686.82,-685.48 686.82,-664.65 724.54,-653.06 774.29,-653.06 812.01,-664.65"/>
<text text-anchor="middle" x="749.41" y="-670.86" font-family="Times,serif" font-size="14.00">CelComp(5)</text>
</g>
<!-- BioProc(4) -->
<g id="node11" class="node">
<title>BioProc(4)</title>
<polygon fill="none" stroke="darkgreen" points="802.87,-485.61 802.87,-500.52 771.56,-511.06 727.27,-511.06 695.96,-500.52 695.96,-485.61 727.27,-475.06 771.56,-475.06 802.87,-485.61"/>
<polygon fill="none" stroke="darkgreen" points="806.87,-482.73 806.87,-503.39 772.21,-515.06 726.62,-515.06 691.96,-503.39 691.96,-482.73 726.62,-471.06 772.21,-471.06 806.87,-482.73"/>
<text text-anchor="middle" x="749.41" y="-488.86" font-family="Times,serif" font-size="14.00">BioProc(4)</text>
</g>
<!-- Reaction(19) -->
<g id="node12" class="node">
<title>Reaction(19)</title>
<polygon fill="none" stroke="darkgreen" points="810.24,-954.61 810.24,-969.52 774.61,-980.06 724.22,-980.06 688.59,-969.52 688.59,-954.61 724.22,-944.06 774.61,-944.06 810.24,-954.61"/>
<polygon fill="none" stroke="darkgreen" points="814.23,-951.62 814.23,-972.51 775.19,-984.06 723.64,-984.06 684.6,-972.51 684.6,-951.62 723.64,-940.06 775.19,-940.06 814.23,-951.62"/>
<text text-anchor="middle" x="749.41" y="-957.86" font-family="Times,serif" font-size="14.00">Reaction(19)</text>
</g>
<!-- Enzyme(17) -->
<g id="node13" class="node">
<title>Enzyme(17)</title>
<polygon fill="none" stroke="darkgreen" points="518.72,-319.61 518.72,-334.52 484.46,-345.06 436.01,-345.06 401.75,-334.52 401.75,-319.61 436.01,-309.06 484.46,-309.06 518.72,-319.61"/>
<polygon fill="none" stroke="darkgreen" points="522.73,-316.66 522.73,-337.47 485.07,-349.06 435.41,-349.06 397.74,-337.47 397.74,-316.66 435.41,-305.06 485.07,-305.06 522.73,-316.66"/>
<text text-anchor="middle" x="460.24" y="-322.86" font-family="Times,serif" font-size="14.00">Enzyme(17)</text>
</g>
<!-- Protein(10)&#45;&gt;ProtDomain(14) -->
<g id="edge12" class="edge">
<title>Protein(10)&#45;&gt;ProtDomain(14)</title>
<path fill="none" stroke="blue" d="M193.15,-532.81C194.56,-491.04 203.91,-387.64 260.35,-330.06 292.39,-297.38 341.07,-281.12 382.25,-273.04"/>
<text text-anchor="middle" x="312.45" y="-332.86" font-family="Times,serif" font-size="14.00">has_domain</text>
</g>
<!-- Protein(10)&#45;&gt;Gene(8) -->
<g id="edge9" class="edge">
<title>Protein(10)&#45;&gt;Gene(8)</title>
<path fill="none" stroke="black" d="M194.77,-532.98C200.83,-475.79 222.23,-300.2 260.35,-260.06 300.18,-218.13 368.57,-206.4 413.85,-203.46"/>
<text text-anchor="middle" x="312.45" y="-262.86" font-family="Times,serif" font-size="14.00">enc</text>
</g>
<!-- Protein(10)&#45;&gt;Protein(7) -->
<g id="edge11" class="edge">
<title>Protein(10)&#45;&gt;Protein(7)</title>
<path fill="none" stroke="black" d="M194.56,-569.05C198.67,-604.3 212.94,-682.53 260.35,-723.06 296.4,-753.88 325.41,-719.28 364.55,-746.06 376.46,-754.21 371.67,-763.59 382.55,-773.06 393.03,-782.18 406.16,-789.6 418.57,-795.32"/>
<text text-anchor="middle" x="312.45" y="-776.86" font-family="Times,serif" font-size="14.00">h_s_s(&lt;=4)</text>
<text text-anchor="middle" x="312.45" y="-762.86" font-family="Times,serif" font-size="14.00">ortho(&lt;=4)</text>
<text text-anchor="middle" x="312.45" y="-748.86" font-family="Times,serif" font-size="14.00">xref(&lt;=6)</text>
</g>
<!-- Protein(10)&#45;&gt;Protein(7) -->
<g id="edge20" class="edge">
<title>Protein(10)&#45;&gt;Protein(7)</title>
<path fill="none" stroke="blue" d="M195.5,-569.17C202.91,-619.5 226.22,-759.2 260.35,-788.06 280.39,-805.01 346.05,-809.61 396.51,-810.54"/>
<polygon fill="blue" stroke="blue" points="396.65,-814.05 406.7,-810.69 396.75,-807.05 396.65,-814.05"/>
<text text-anchor="middle" x="312.45" y="-825.86" font-family="Times,serif" font-size="14.00">genetic(&lt;=6)</text>
<text text-anchor="middle" x="312.45" y="-811.86" font-family="Times,serif" font-size="14.00">physical(&lt;=6)</text>
</g>
<!-- Protein(10)&#45;&gt;Phenotype(13) -->
<g id="edge7" class="edge">
<title>Protein(10)&#45;&gt;Phenotype(13)</title>
<path fill="none" stroke="black" d="M203.23,-568.67C215.2,-588.19 236.43,-619.87 260.35,-642.06 307.42,-685.72 321.91,-698 382.55,-719.06 435.43,-737.42 587.37,-748.92 677.96,-754.35"/>
<text text-anchor="middle" x="460.24" y="-759.86" font-family="Times,serif" font-size="14.00">cooc_wi</text>
<text text-anchor="middle" x="460.24" y="-745.86" font-family="Times,serif" font-size="14.00">has_observ_pheno</text>
</g>
<!-- Protein(10)&#45;&gt;EC(15) -->
<g id="edge6" class="edge">
<title>Protein(10)&#45;&gt;EC(15)</title>
<path fill="none" stroke="blue" d="M204.56,-533.53C216.73,-516.25 237.28,-490.02 260.35,-473.06 309.43,-436.99 376.34,-412.87 418.67,-400.06"/>
<text text-anchor="middle" x="312.45" y="-475.86" font-family="Times,serif" font-size="14.00">cat_c</text>
</g>
<!-- Protein(10)&#45;&gt;MolFunc(3) -->
<g id="edge13" class="edge">
<title>Protein(10)&#45;&gt;MolFunc(3)</title>
<path fill="none" stroke="black" d="M242.27,-548.91C327.71,-545.86 508.63,-542.47 660.12,-560.06 671.8,-561.42 684.21,-563.61 695.93,-566.03"/>
<text text-anchor="middle" x="460.24" y="-552.86" font-family="Times,serif" font-size="14.00">has_function</text>
</g>
<!-- Protein(10)&#45;&gt;CelComp(5) -->
<g id="edge16" class="edge">
<title>Protein(10)&#45;&gt;CelComp(5)</title>
<path fill="none" stroke="blue" d="M209.98,-568.14C222.89,-580.33 241.57,-596.4 260.35,-607.06 374.12,-671.66 423.12,-642.31 537.92,-705.06 546.81,-709.92 546.33,-715.77 555.92,-719.06 599.72,-734.09 615.04,-729.67 660.12,-719.06 680.29,-714.31 701.12,-704.22 717.48,-694.9"/>
<text text-anchor="middle" x="460.24" y="-707.86" font-family="Times,serif" font-size="14.00">located_in</text>
</g>
<!-- Protein(10)&#45;&gt;Publication(2) -->
<g id="edge18" class="edge">
<title>Protein(10)&#45;&gt;Publication(2)</title>
<path fill="none" stroke="blue" d="M194.29,-532.64C199.2,-468.76 218.35,-257.81 260.35,-207.06 297.67,-161.99 325.1,-169.15 382.55,-158.06 450.35,-144.97 475.62,-128.27 537.92,-158.06 644.53,-209.04 714.42,-343.29 738.79,-396.69"/>
<text text-anchor="middle" x="460.24" y="-160.86" font-family="Times,serif" font-size="14.00">pub_in</text>
</g>
<!-- Protein(10)&#45;&gt;BioProc(4) -->
<g id="edge17" class="edge">
<title>Protein(10)&#45;&gt;BioProc(4)</title>
<path fill="none" stroke="black" d="M233.99,-540.95C300.89,-525.04 437.87,-494.87 555.92,-484.06 602.04,-479.84 613.87,-481.71 660.12,-484.06 670.43,-484.59 681.39,-485.45 691.96,-486.45"/>
<text text-anchor="middle" x="460.24" y="-512.86" font-family="Times,serif" font-size="14.00">participates_in</text>
</g>
<!-- Protein(10)&#45;&gt;Enzyme(17) -->
<g id="edge15" class="edge">
<title>Protein(10)&#45;&gt;Enzyme(17)</title>
<path fill="none" stroke="black" d="M196.41,-532.7C203.2,-501.44 221.17,-437.74 260.35,-401.06 298.28,-365.56 354.76,-346.72 397.85,-336.95"/>
<text text-anchor="middle" x="312.45" y="-403.86" font-family="Times,serif" font-size="14.00">is_a</text>
</g>
<!-- Protein(10)&#45;&gt;Protein(10) -->
<g id="edge10" class="edge">
<title>Protein(10)&#45;&gt;Protein(10)</title>
<path fill="none" stroke="blue" d="M184.91,-569.21C183.83,-578.6 186.18,-587.06 191.97,-587.06 197.76,-587.06 200.11,-578.6 199.02,-569.21"/>
<text text-anchor="middle" x="191.97" y="-617.86" font-family="Times,serif" font-size="14.00">h_s_s(&lt;=4)</text>
<text text-anchor="middle" x="191.97" y="-603.86" font-family="Times,serif" font-size="14.00">ortho(&lt;=4)</text>
<text text-anchor="middle" x="191.97" y="-589.86" font-family="Times,serif" font-size="14.00">xref(&lt;=6)</text>
</g>
<!-- Protein(10)&#45;&gt;Protein(10) -->
<g id="edge19" class="edge">
<title>Protein(10)&#45;&gt;Protein(10)</title>
<path fill="none" stroke="black" d="M181.59,-568.95C173.5,-593.53 176.96,-629.06 191.97,-629.06 205.04,-629.06 209.35,-602.1 204.9,-578.9"/>
<polygon fill="black" stroke="black" points="208.22,-577.77 202.34,-568.95 201.44,-579.51 208.22,-577.77"/>
<text text-anchor="middle" x="191.97" y="-645.86" font-family="Times,serif" font-size="14.00">genetic(&lt;=6)</text>
<text text-anchor="middle" x="191.97" y="-631.86" font-family="Times,serif" font-size="14.00">physical(&lt;=6)</text>
</g>
<!-- EC(12) -->
<g id="node15" class="node">
<title>EC(12)</title>
<ellipse fill="none" stroke="black" cx="460.24" cy="-95.06" rx="36.28" ry="18"/>
<text text-anchor="middle" x="460.24" y="-90.86" font-family="Times,serif" font-size="14.00">EC(12)</text>
</g>
<!-- Protein(10)&#45;&gt;EC(12) -->
<g id="edge5" class="edge">
<title>Protein(10)&#45;&gt;EC(12)</title>
<path fill="none" stroke="black" d="M193.04,-532.92C193.76,-458.72 200.43,-179.48 260.35,-121.06 304.36,-78.16 382.22,-82.06 426.34,-88.61"/>
<text text-anchor="middle" x="312.45" y="-123.86" font-family="Times,serif" font-size="14.00">cat_c</text>
</g>
<!-- Gene(9) -->
<g id="node16" class="node">
<title>Gene(9)</title>
<ellipse fill="none" stroke="black" cx="460.24" cy="-611.06" rx="39.15" ry="18"/>
<text text-anchor="middle" x="460.24" y="-606.86" font-family="Times,serif" font-size="14.00">Gene(9)</text>
</g>
<!-- Protein(10)&#45;&gt;Gene(9) -->
<g id="edge8" class="edge">
<title>Protein(10)&#45;&gt;Gene(9)</title>
<path fill="none" stroke="blue" d="M235.16,-560.57C287.66,-572.4 376.29,-592.37 424.86,-603.32"/>
<text text-anchor="middle" x="312.45" y="-591.86" font-family="Times,serif" font-size="14.00">enc</text>
</g>
<!-- Enzyme(16) -->
<g id="node17" class="node">
<title>Enzyme(16)</title>
<ellipse fill="none" stroke="black" cx="460.24" cy="-969.06" rx="53.63" ry="18"/>
<text text-anchor="middle" x="460.24" y="-964.86" font-family="Times,serif" font-size="14.00">Enzyme(16)</text>
</g>
<!-- Protein(10)&#45;&gt;Enzyme(16) -->
<g id="edge14" class="edge">
<title>Protein(10)&#45;&gt;Enzyme(16)</title>
<path fill="none" stroke="blue" d="M195.06,-569.27C201.91,-626.06 225.24,-798.67 260.35,-841.06 292.64,-880.05 321.79,-859.97 364.55,-887.06 394.5,-906.03 424.69,-934.09 442.68,-951.97"/>
<text text-anchor="middle" x="312.45" y="-889.86" font-family="Times,serif" font-size="14.00">is_a</text>
</g>
<!-- Gene(9)&#45;&gt;Phenotype(13) -->
<g id="edge21" class="edge">
<title>Gene(9)&#45;&gt;Phenotype(13)</title>
<path fill="none" stroke="black" d="M483.79,-625.6C502.72,-637.57 530.65,-654.69 555.92,-668.06 600.98,-691.91 613.94,-694.44 660.12,-716.06 676.11,-723.55 693.68,-731.88 708.9,-739.14"/>
<text text-anchor="middle" x="608.02" y="-732.86" font-family="Times,serif" font-size="14.00">cooc_wi</text>
<text text-anchor="middle" x="608.02" y="-718.86" font-family="Times,serif" font-size="14.00">has_observ_pheno</text>
</g>
<!-- Gene(9)&#45;&gt;MolFunc(3) -->
<g id="edge22" class="edge">
<title>Gene(9)&#45;&gt;MolFunc(3)</title>
<path fill="none" stroke="blue" d="M499.09,-608.76C539.18,-606.11 604.26,-601.18 660.12,-594.06 669.53,-592.86 679.46,-591.38 689.15,-589.83"/>
<text text-anchor="middle" x="608.02" y="-607.86" font-family="Times,serif" font-size="14.00">has_function</text>
</g>
<!-- Gene(9)&#45;&gt;CelComp(5) -->
<g id="edge23" class="edge">
<title>Gene(9)&#45;&gt;CelComp(5)</title>
<path fill="none" stroke="black" d="M496.13,-618.38C535.88,-626.77 602.76,-641.04 660.12,-654.06 671.33,-656.61 683.33,-659.41 694.76,-662.11"/>
<text text-anchor="middle" x="608.02" y="-656.86" font-family="Times,serif" font-size="14.00">located_in</text>
</g>
<!-- Gene(9)&#45;&gt;Publication(2) -->
<g id="edge24" class="edge">
<title>Gene(9)&#45;&gt;Publication(2)</title>
<path fill="none" stroke="blue" d="M492.46,-600.7C508.2,-593.99 526.35,-583.72 537.92,-569.06 556.75,-545.19 536.03,-526.06 555.92,-503.06 558.56,-500 650.08,-460.8 705.96,-437.05"/>
<text text-anchor="middle" x="608.02" y="-519.86" font-family="Times,serif" font-size="14.00">occ_in</text>
<text text-anchor="middle" x="608.02" y="-505.86" font-family="Times,serif" font-size="14.00">pub_in</text>
</g>
<!-- Gene(9)&#45;&gt;BioProc(4) -->
<g id="edge25" class="edge">
<title>Gene(9)&#45;&gt;BioProc(4)</title>
<path fill="none" stroke="black" d="M491.39,-599.87C538.82,-582.22 628.69,-548.52 660.12,-535.06 677.75,-527.51 697.02,-518.44 713.05,-510.67"/>
<text text-anchor="middle" x="608.02" y="-576.86" font-family="Times,serif" font-size="14.00">participates_in</text>
</g>
<!-- Enzyme(16)&#45;&gt;Reaction(19) -->
<g id="edge26" class="edge">
<title>Enzyme(16)&#45;&gt;Reaction(19)</title>
<path fill="none" stroke="black" d="M514.24,-967.77C562.3,-966.6 633.23,-964.87 684.42,-963.62"/>
<text text-anchor="middle" x="608.02" y="-968.86" font-family="Times,serif" font-size="14.00">ca_by</text>
</g>
<!-- Reaction(18) -->
<g id="node18" class="node">
<title>Reaction(18)</title>
<ellipse fill="none" stroke="black" cx="749.41" cy="-1020.06" rx="56.04" ry="18"/>
<text text-anchor="middle" x="749.41" y="-1015.86" font-family="Times,serif" font-size="14.00">Reaction(18)</text>
</g>
<!-- Enzyme(16)&#45;&gt;Reaction(18) -->
<g id="edge27" class="edge">
<title>Enzyme(16)&#45;&gt;Reaction(18)</title>
<path fill="none" stroke="blue" d="M508.01,-977.37C560.78,-986.74 646.2,-1001.91 699.73,-1011.42"/>
<text text-anchor="middle" x="608.02" y="-1005.86" font-family="Times,serif" font-size="14.00">ca_by</text>
</g>
<!-- Reaction(18)&#45;&gt;Path(20) -->
<g id="edge28" class="edge">
<title>Reaction(18)&#45;&gt;Path(20)</title>
<path fill="none" stroke="black" d="M805.9,-1020.06C834.73,-1020.06 869.59,-1020.06 897.07,-1020.06"/>
<text text-anchor="middle" x="858.93" y="-1022.86" font-family="Times,serif" font-size="14.00">part_of</text>
</g>
<!-- Phenotype(21) -->
<g id="node19" class="node">
<title>Phenotype(21)</title>
<ellipse fill="none" stroke="black" cx="460.24" cy="-447.06" rx="62.35" ry="18"/>
<text text-anchor="middle" x="460.24" y="-442.86" font-family="Times,serif" font-size="14.00">Phenotype(21)</text>
</g>
<!-- Phenotype(21)&#45;&gt;Publication(2) -->
<g id="edge29" class="edge">
<title>Phenotype(21)&#45;&gt;Publication(2)</title>
<path fill="none" stroke="blue" d="M519.35,-441.4C565.65,-436.88 630.59,-430.55 679.51,-425.78"/>
<text text-anchor="middle" x="608.02" y="-440.86" font-family="Times,serif" font-size="14.00">occ_in</text>
</g>
</g>
</svg>
