<svg width="1335px" height="1160px"
 viewBox="0.00 0.00 1000.95 869.76" xmlns="http://www.w3.org/2000/svg" xmlns:xlink="http://www.w3.org/1999/xlink">
<g id="graph0" class="graph" transform=" rotate(0) translate(4 865.76)">
<title>%3</title>
<polygon fill="white" stroke="transparent" points="-4,4 -4,-865.76 996.95,-865.76 996.95,4 -4,4"/>
<!-- Publication(2) -->
<g id="node1" class="node">
<title>Publication(2)</title>
<polygon fill="none" stroke="darkgreen" points="815.31,-751.3 815.31,-766.22 776.71,-776.76 722.12,-776.76 683.52,-766.22 683.52,-751.3 722.12,-740.76 776.71,-740.76 815.31,-751.3"/>
<polygon fill="none" stroke="darkgreen" points="819.32,-748.25 819.32,-769.27 777.25,-780.76 721.58,-780.76 679.51,-769.27 679.51,-748.25 721.58,-736.76 777.25,-736.76 819.32,-748.25"/>
<text text-anchor="middle" x="749.41" y="-754.56" font-family="Times,serif" font-size="14.00">Publication(2)</text>
</g>
<!-- CelComp(5) -->
<g id="node2" class="node">
<title>CelComp(5)</title>
<polygon fill="none" stroke="darkgreen" points="808.02,-151.3 808.02,-166.22 773.69,-176.76 725.14,-176.76 690.81,-166.22 690.81,-151.3 725.14,-140.76 773.69,-140.76 808.02,-151.3"/>
<polygon fill="none" stroke="darkgreen" points="812.01,-148.34 812.01,-169.17 774.29,-180.76 724.54,-180.76 686.82,-169.17 686.82,-148.34 724.54,-136.76 774.29,-136.76 812.01,-148.34"/>
<text text-anchor="middle" x="749.41" y="-154.56" font-family="Times,serif" font-size="14.00">CelComp(5)</text>
</g>
<!-- Path(20) -->
<g id="node3" class="node">
<title>Path(20)</title>
<polygon fill="none" stroke="darkgreen" points="988.86,-642.3 988.86,-657.22 963.19,-667.76 926.89,-667.76 901.23,-657.22 901.23,-642.3 926.89,-631.76 963.19,-631.76 988.86,-642.3"/>
<polygon fill="none" stroke="darkgreen" points="992.85,-639.62 992.85,-659.9 963.98,-671.76 926.11,-671.76 897.23,-659.9 897.23,-639.62 926.11,-627.76 963.98,-627.76 992.85,-639.62"/>
<text text-anchor="middle" x="945.04" y="-645.56" font-family="Times,serif" font-size="14.00">Path(20)</text>
</g>
<!-- Phenotype(13) -->
<g id="node4" class="node">
<title>Phenotype(13)</title>
<polygon fill="none" stroke="darkgreen" points="816.52,-60.3 816.52,-75.22 777.21,-85.76 721.62,-85.76 682.31,-75.22 682.31,-60.3 721.62,-49.76 777.21,-49.76 816.52,-60.3"/>
<polygon fill="none" stroke="darkgreen" points="820.51,-57.23 820.51,-78.29 777.74,-89.76 721.09,-89.76 678.32,-78.29 678.32,-57.23 721.09,-45.76 777.74,-45.76 820.51,-57.23"/>
<text text-anchor="middle" x="749.41" y="-63.56" font-family="Times,serif" font-size="14.00">Phenotype(13)</text>
</g>
<!-- Gene(1) -->
<g id="node5" class="node">
<title>Gene(1)</title>
<ellipse fill="none" stroke="red" cx="43.08" cy="-680.76" rx="39.15" ry="39.15"/>
<ellipse fill="none" stroke="red" cx="43.08" cy="-680.76" rx="43.15" ry="43.15"/>
<text text-anchor="middle" x="43.08" y="-676.56" font-family="Times,serif" font-size="14.00">Gene(1)</text>
</g>
<!-- Gene(1)&#45;&gt;Publication(2) -->
<g id="edge5" class="edge">
<title>Gene(1)&#45;&gt;Publication(2)</title>
<path fill="none" stroke="black" d="M73.55,-711.7C91.5,-728.43 115.88,-747.68 141.58,-757.76 330.4,-831.77 578.38,-795.04 689.78,-772.27"/>
<text text-anchor="middle" x="312.45" y="-816.56" font-family="Times,serif" font-size="14.00">occ_in</text>
<text text-anchor="middle" x="312.45" y="-802.56" font-family="Times,serif" font-size="14.00">pub_in</text>
</g>
<!-- Gene(1)&#45;&gt;Phenotype(13) -->
<g id="edge2" class="edge">
<title>Gene(1)&#45;&gt;Phenotype(13)</title>
<path fill="none" stroke="blue" d="M43.44,-637.49C44.35,-519.57 65.08,-192.04 260.35,-52.76 396.14,44.09 611.5,-16.79 703.91,-50.16"/>
<text text-anchor="middle" x="312.45" y="-69.56" font-family="Times,serif" font-size="14.00">cooc_wi</text>
<text text-anchor="middle" x="312.45" y="-55.56" font-family="Times,serif" font-size="14.00">has_observ_pheno</text>
</g>
<!-- Protein(7) -->
<g id="node6" class="node">
<title>Protein(7)</title>
<polygon fill="none" stroke="darkgreen" points="509.76,-738.3 509.76,-753.22 480.75,-763.76 439.72,-763.76 410.71,-753.22 410.71,-738.3 439.72,-727.76 480.75,-727.76 509.76,-738.3"/>
<polygon fill="none" stroke="darkgreen" points="513.74,-735.5 513.74,-756.02 481.45,-767.76 439.02,-767.76 406.73,-756.02 406.73,-735.5 439.02,-723.76 481.45,-723.76 513.74,-735.5"/>
<text text-anchor="middle" x="460.24" y="-741.56" font-family="Times,serif" font-size="14.00">Protein(7)</text>
</g>
<!-- Gene(1)&#45;&gt;Protein(7) -->
<g id="edge3" class="edge">
<title>Gene(1)&#45;&gt;Protein(7)</title>
<path fill="none" stroke="black" d="M83.61,-695.83C126.42,-711.3 197.1,-734.41 260.35,-743.76 309.54,-751.03 366.32,-750.75 406.59,-749.12"/>
<text text-anchor="middle" x="191.97" y="-742.56" font-family="Times,serif" font-size="14.00">enc</text>
</g>
<!-- Protein(10) -->
<g id="node15" class="node">
<title>Protein(10)</title>
<ellipse fill="none" stroke="black" cx="191.97" cy="-463.76" rx="50.27" ry="18"/>
<text text-anchor="middle" x="191.97" y="-459.56" font-family="Times,serif" font-size="14.00">Protein(10)</text>
</g>
<!-- Gene(1)&#45;&gt;Protein(10) -->
<g id="edge4" class="edge">
<title>Gene(1)&#45;&gt;Protein(10)</title>
<path fill="none" stroke="blue" d="M68,-645.41C99.87,-598.33 155.02,-516.86 179.12,-481.26"/>
<text text-anchor="middle" x="113.87" y="-594.56" font-family="Times,serif" font-size="14.00">enc</text>
</g>
<!-- EC(15) -->
<g id="node7" class="node">
<title>EC(15)</title>
<polygon fill="none" stroke="darkgreen" points="499.46,-572.3 499.46,-587.22 476.48,-597.76 443.99,-597.76 421.01,-587.22 421.01,-572.3 443.99,-561.76 476.48,-561.76 499.46,-572.3"/>
<polygon fill="none" stroke="darkgreen" points="503.47,-569.74 503.47,-589.78 477.36,-601.76 443.11,-601.76 417,-589.78 417,-569.74 443.11,-557.76 477.36,-557.76 503.47,-569.74"/>
<text text-anchor="middle" x="460.24" y="-575.56" font-family="Times,serif" font-size="14.00">EC(15)</text>
</g>
<!-- Gene(8) -->
<g id="node8" class="node">
<title>Gene(8)</title>
<polygon fill="none" stroke="darkgreen" points="502.35,-510.3 502.35,-525.22 477.68,-535.76 442.79,-535.76 418.12,-525.22 418.12,-510.3 442.79,-499.76 477.68,-499.76 502.35,-510.3"/>
<polygon fill="none" stroke="darkgreen" points="506.33,-507.66 506.33,-527.86 478.49,-539.76 441.98,-539.76 414.14,-527.86 414.14,-507.66 441.98,-495.76 478.49,-495.76 506.33,-507.66"/>
<text text-anchor="middle" x="460.24" y="-513.56" font-family="Times,serif" font-size="14.00">Gene(8)</text>
</g>
<!-- MolFunc(3) -->
<g id="node9" class="node">
<title>MolFunc(3)</title>
<polygon fill="none" stroke="darkgreen" points="806.81,-398.3 806.81,-413.22 773.19,-423.76 725.64,-423.76 692.02,-413.22 692.02,-398.3 725.64,-387.76 773.19,-387.76 806.81,-398.3"/>
<polygon fill="none" stroke="darkgreen" points="810.82,-395.37 810.82,-416.15 773.8,-427.76 725.03,-427.76 688.01,-416.15 688.01,-395.37 725.03,-383.76 773.8,-383.76 810.82,-395.37"/>
<text text-anchor="middle" x="749.41" y="-401.56" font-family="Times,serif" font-size="14.00">MolFunc(3)</text>
</g>
<!-- BioProc(4) -->
<g id="node10" class="node">
<title>BioProc(4)</title>
<polygon fill="none" stroke="darkgreen" points="802.87,-266.3 802.87,-281.22 771.56,-291.76 727.27,-291.76 695.96,-281.22 695.96,-266.3 727.27,-255.76 771.56,-255.76 802.87,-266.3"/>
<polygon fill="none" stroke="darkgreen" points="806.87,-263.43 806.87,-284.09 772.21,-295.76 726.62,-295.76 691.96,-284.09 691.96,-263.43 726.62,-251.76 772.21,-251.76 806.87,-263.43"/>
<text text-anchor="middle" x="749.41" y="-269.56" font-family="Times,serif" font-size="14.00">BioProc(4)</text>
</g>
<!-- ProtDomain(14) -->
<g id="node11" class="node">
<title>ProtDomain(14)</title>
<polygon fill="none" stroke="darkgreen" points="534.09,-398.3 534.09,-413.22 490.83,-423.76 429.64,-423.76 386.38,-413.22 386.38,-398.3 429.64,-387.76 490.83,-387.76 534.09,-398.3"/>
<polygon fill="none" stroke="darkgreen" points="538.1,-395.16 538.1,-416.36 491.31,-427.76 429.16,-427.76 382.37,-416.36 382.37,-395.16 429.16,-383.76 491.31,-383.76 538.1,-395.16"/>
<text text-anchor="middle" x="460.24" y="-401.56" font-family="Times,serif" font-size="14.00">ProtDomain(14)</text>
</g>
<!-- Reaction(19) -->
<g id="node12" class="node">
<title>Reaction(19)</title>
<polygon fill="none" stroke="darkgreen" points="810.24,-554.3 810.24,-569.22 774.61,-579.76 724.22,-579.76 688.59,-569.22 688.59,-554.3 724.22,-543.76 774.61,-543.76 810.24,-554.3"/>
<polygon fill="none" stroke="darkgreen" points="814.23,-551.31 814.23,-572.2 775.19,-583.76 723.64,-583.76 684.6,-572.2 684.6,-551.31 723.64,-539.76 775.19,-539.76 814.23,-551.31"/>
<text text-anchor="middle" x="749.41" y="-557.56" font-family="Times,serif" font-size="14.00">Reaction(19)</text>
</g>
<!-- Enzyme(17) -->
<g id="node13" class="node">
<title>Enzyme(17)</title>
<polygon fill="none" stroke="darkgreen" points="518.72,-282.3 518.72,-297.22 484.46,-307.76 436.01,-307.76 401.75,-297.22 401.75,-282.3 436.01,-271.76 484.46,-271.76 518.72,-282.3"/>
<polygon fill="none" stroke="darkgreen" points="522.73,-279.35 522.73,-300.17 485.07,-311.76 435.41,-311.76 397.74,-300.17 397.74,-279.35 435.41,-267.76 485.07,-267.76 522.73,-279.35"/>
<text text-anchor="middle" x="460.24" y="-285.56" font-family="Times,serif" font-size="14.00">Enzyme(17)</text>
</g>
<!-- Phenotype(21) -->
<g id="node14" class="node">
<title>Phenotype(21)</title>
<ellipse fill="none" stroke="black" cx="460.24" cy="-843.76" rx="62.35" ry="18"/>
<text text-anchor="middle" x="460.24" y="-839.56" font-family="Times,serif" font-size="14.00">Phenotype(21)</text>
</g>
<!-- Phenotype(21)&#45;&gt;Publication(2) -->
<g id="edge1" class="edge">
<title>Phenotype(21)&#45;&gt;Publication(2)</title>
<path fill="none" stroke="blue" d="M521.47,-840.05C561.71,-836.14 615.28,-828.13 660.12,-811.76 681.11,-804.09 702.65,-791.28 719.21,-780.17"/>
<text text-anchor="middle" x="608.02" y="-837.56" font-family="Times,serif" font-size="14.00">occ_in</text>
</g>
<!-- Protein(10)&#45;&gt;Publication(2) -->
<g id="edge19" class="edge">
<title>Protein(10)&#45;&gt;Publication(2)</title>
<path fill="none" stroke="blue" d="M196.7,-482.12C203.76,-512 221.91,-570.97 260.35,-602.76 297.31,-633.32 327.06,-600.86 364.55,-630.76 377.92,-641.42 369,-654.33 382.55,-664.76 438.73,-707.98 469.21,-683.34 537.92,-700.76 591.93,-714.45 653.32,-731.54 695.8,-743.62"/>
<text text-anchor="middle" x="460.24" y="-703.56" font-family="Times,serif" font-size="14.00">pub_in</text>
</g>
<!-- Protein(10)&#45;&gt;CelComp(5) -->
<g id="edge17" class="edge">
<title>Protein(10)&#45;&gt;CelComp(5)</title>
<path fill="none" stroke="blue" d="M194.95,-445.51C201.31,-390.3 223.03,-226.61 260.35,-190.76 380.23,-75.61 602.14,-117.85 699.96,-144.11"/>
<text text-anchor="middle" x="460.24" y="-129.56" font-family="Times,serif" font-size="14.00">located_in</text>
</g>
<!-- Protein(10)&#45;&gt;Phenotype(13) -->
<g id="edge8" class="edge">
<title>Protein(10)&#45;&gt;Phenotype(13)</title>
<path fill="none" stroke="black" d="M194.29,-445.72C199.23,-383.17 218.47,-176.69 260.35,-127.76 313.02,-66.23 555.75,-62.95 677.86,-65.37"/>
<text text-anchor="middle" x="460.24" y="-97.56" font-family="Times,serif" font-size="14.00">cooc_wi</text>
<text text-anchor="middle" x="460.24" y="-83.56" font-family="Times,serif" font-size="14.00">has_observ_pheno</text>
</g>
<!-- Protein(10)&#45;&gt;Protein(7) -->
<g id="edge12" class="edge">
<title>Protein(10)&#45;&gt;Protein(7)</title>
<path fill="none" stroke="black" d="M194.98,-481.99C199.75,-516.11 215,-589.63 260.35,-627.76 296.65,-658.28 329.72,-618.57 364.55,-650.76 384.69,-669.37 364.6,-689.04 382.55,-709.76 391.13,-719.65 403.01,-727.02 414.86,-732.42"/>
<text text-anchor="middle" x="312.45" y="-681.56" font-family="Times,serif" font-size="14.00">h_s_s(&lt;=4)</text>
<text text-anchor="middle" x="312.45" y="-667.56" font-family="Times,serif" font-size="14.00">ortho(&lt;=4)</text>
<text text-anchor="middle" x="312.45" y="-653.56" font-family="Times,serif" font-size="14.00">xref(&lt;=6)</text>
</g>
<!-- Protein(10)&#45;&gt;Protein(7) -->
<g id="edge20" class="edge">
<title>Protein(10)&#45;&gt;Protein(7)</title>
<path fill="none" stroke="black" d="M192.53,-481.76C192.52,-525 198.85,-635.36 260.35,-692.76 295.02,-725.12 318.75,-703.47 364.55,-715.76 378.49,-719.5 393.44,-724 407.24,-728.36"/>
<polygon fill="black" stroke="black" points="406.46,-731.79 417.05,-731.5 408.6,-725.12 406.46,-731.79"/>
<text text-anchor="middle" x="312.45" y="-732.56" font-family="Times,serif" font-size="14.00">genetic(&lt;=6)</text>
<text text-anchor="middle" x="312.45" y="-718.56" font-family="Times,serif" font-size="14.00">physical(&lt;=6)</text>
</g>
<!-- Protein(10)&#45;&gt;EC(15) -->
<g id="edge6" class="edge">
<title>Protein(10)&#45;&gt;EC(15)</title>
<path fill="none" stroke="black" d="M210.59,-480.54C223.51,-492.08 241.94,-507.01 260.35,-516.76 274.68,-524.34 366.21,-552.12 419.97,-568.15"/>
<text text-anchor="middle" x="312.45" y="-553.56" font-family="Times,serif" font-size="14.00">cat_c</text>
</g>
<!-- Protein(10)&#45;&gt;Gene(8) -->
<g id="edge9" class="edge">
<title>Protein(10)&#45;&gt;Gene(8)</title>
<path fill="none" stroke="blue" d="M235.74,-472.69C243.91,-474.38 252.39,-476.13 260.35,-477.76 312.98,-488.52 373.48,-500.65 413.8,-508.71"/>
<text text-anchor="middle" x="312.45" y="-501.56" font-family="Times,serif" font-size="14.00">enc</text>
</g>
<!-- Protein(10)&#45;&gt;MolFunc(3) -->
<g id="edge14" class="edge">
<title>Protein(10)&#45;&gt;MolFunc(3)</title>
<path fill="none" stroke="black" d="M241.91,-460.98C308.86,-456.94 432.71,-448.61 537.92,-436.76 588.57,-431.05 645.78,-422.49 687.76,-415.81"/>
<text text-anchor="middle" x="460.24" y="-454.56" font-family="Times,serif" font-size="14.00">has_function</text>
</g>
<!-- Protein(10)&#45;&gt;BioProc(4) -->
<g id="edge18" class="edge">
<title>Protein(10)&#45;&gt;BioProc(4)</title>
<path fill="none" stroke="black" d="M193.09,-445.73C194.35,-403.39 203.36,-296.61 260.35,-235.76 299.92,-193.52 325.58,-200.92 382.55,-190.76 450.53,-178.64 469.4,-182.2 537.92,-190.76 551.82,-192.49 647.16,-216.43 660.12,-221.76 681.01,-230.36 702.91,-243.22 719.66,-254"/>
<text text-anchor="middle" x="460.24" y="-193.56" font-family="Times,serif" font-size="14.00">participates_in</text>
</g>
<!-- Protein(10)&#45;&gt;ProtDomain(14) -->
<g id="edge13" class="edge">
<title>Protein(10)&#45;&gt;ProtDomain(14)</title>
<path fill="none" stroke="blue" d="M222.94,-449.46C234.42,-444.48 247.78,-439.26 260.35,-435.76 299.88,-424.75 345.02,-417.52 382.29,-412.93"/>
<text text-anchor="middle" x="312.45" y="-438.56" font-family="Times,serif" font-size="14.00">has_domain</text>
</g>
<!-- Protein(10)&#45;&gt;Enzyme(17) -->
<g id="edge16" class="edge">
<title>Protein(10)&#45;&gt;Enzyme(17)</title>
<path fill="none" stroke="black" d="M198.35,-445.47C207.04,-419.2 226.66,-371.05 260.35,-344.76 299.75,-314.01 355.27,-300.44 397.64,-294.46"/>
<text text-anchor="middle" x="312.45" y="-347.56" font-family="Times,serif" font-size="14.00">is_a</text>
</g>
<!-- Protein(10)&#45;&gt;Protein(10) -->
<g id="edge11" class="edge">
<title>Protein(10)&#45;&gt;Protein(10)</title>
<path fill="none" stroke="blue" d="M184.91,-481.91C183.83,-491.3 186.18,-499.76 191.97,-499.76 197.76,-499.76 200.11,-491.3 199.02,-481.91"/>
<text text-anchor="middle" x="191.97" y="-530.56" font-family="Times,serif" font-size="14.00">h_s_s(&lt;=4)</text>
<text text-anchor="middle" x="191.97" y="-516.56" font-family="Times,serif" font-size="14.00">ortho(&lt;=4)</text>
<text text-anchor="middle" x="191.97" y="-502.56" font-family="Times,serif" font-size="14.00">xref(&lt;=6)</text>
</g>
<!-- Protein(10)&#45;&gt;Protein(10) -->
<g id="edge21" class="edge">
<title>Protein(10)&#45;&gt;Protein(10)</title>
<path fill="none" stroke="blue" d="M181.59,-481.65C173.5,-506.23 176.96,-541.76 191.97,-541.76 205.04,-541.76 209.35,-514.8 204.9,-491.6"/>
<polygon fill="blue" stroke="blue" points="208.22,-490.47 202.34,-481.65 201.44,-492.2 208.22,-490.47"/>
<text text-anchor="middle" x="191.97" y="-558.56" font-family="Times,serif" font-size="14.00">genetic(&lt;=6)</text>
<text text-anchor="middle" x="191.97" y="-544.56" font-family="Times,serif" font-size="14.00">physical(&lt;=6)</text>
</g>
<!-- EC(12) -->
<g id="node16" class="node">
<title>EC(12)</title>
<ellipse fill="none" stroke="black" cx="460.24" cy="-231.76" rx="36.28" ry="18"/>
<text text-anchor="middle" x="460.24" y="-227.56" font-family="Times,serif" font-size="14.00">EC(12)</text>
</g>
<!-- Protein(10)&#45;&gt;EC(12) -->
<g id="edge7" class="edge">
<title>Protein(10)&#45;&gt;EC(12)</title>
<path fill="none" stroke="blue" d="M194.36,-445.67C198.16,-409.39 211.92,-327.46 260.35,-283.76 305.93,-242.63 380.04,-233.3 423.77,-231.6"/>
<text text-anchor="middle" x="312.45" y="-286.56" font-family="Times,serif" font-size="14.00">cat_c</text>
</g>
<!-- Gene(9) -->
<g id="node17" class="node">
<title>Gene(9)</title>
<ellipse fill="none" stroke="black" cx="460.24" cy="-347.76" rx="39.15" ry="18"/>
<text text-anchor="middle" x="460.24" y="-343.56" font-family="Times,serif" font-size="14.00">Gene(9)</text>
</g>
<!-- Protein(10)&#45;&gt;Gene(9) -->
<g id="edge10" class="edge">
<title>Protein(10)&#45;&gt;Gene(9)</title>
<path fill="none" stroke="black" d="M206.3,-446.25C218.69,-431.19 238.5,-410 260.35,-397.76 311.91,-368.87 380.23,-356.43 421.89,-351.24"/>
<text text-anchor="middle" x="312.45" y="-400.56" font-family="Times,serif" font-size="14.00">enc</text>
</g>
<!-- Enzyme(16) -->
<g id="node18" class="node">
<title>Enzyme(16)</title>
<ellipse fill="none" stroke="black" cx="460.24" cy="-637.76" rx="53.63" ry="18"/>
<text text-anchor="middle" x="460.24" y="-633.56" font-family="Times,serif" font-size="14.00">Enzyme(16)</text>
</g>
<!-- Protein(10)&#45;&gt;Enzyme(16) -->
<g id="edge15" class="edge">
<title>Protein(10)&#45;&gt;Enzyme(16)</title>
<path fill="none" stroke="blue" d="M199.74,-481.61C209.49,-504.78 229.74,-544.72 260.35,-565.76 299.44,-592.62 324.15,-563.92 364.55,-588.76 375.32,-595.38 372.21,-603.5 382.55,-610.76 392.61,-617.81 404.68,-623.19 416.25,-627.22"/>
<text text-anchor="middle" x="312.45" y="-591.56" font-family="Times,serif" font-size="14.00">is_a</text>
</g>
<!-- Gene(9)&#45;&gt;Publication(2) -->
<g id="edge25" class="edge">
<title>Gene(9)&#45;&gt;Publication(2)</title>
<path fill="none" stroke="blue" d="M498.32,-352.13C512.89,-355.79 528.39,-362.5 537.92,-374.76 565.57,-410.35 527.86,-541.49 555.92,-576.76 586.25,-614.88 626.53,-575.48 660.12,-610.76 681.08,-632.78 663.88,-649.9 678.12,-676.76 690.06,-699.29 709.16,-721.02 724.43,-736.45"/>
<text text-anchor="middle" x="608.02" y="-627.56" font-family="Times,serif" font-size="14.00">occ_in</text>
<text text-anchor="middle" x="608.02" y="-613.56" font-family="Times,serif" font-size="14.00">pub_in</text>
</g>
<!-- Gene(9)&#45;&gt;CelComp(5) -->
<g id="edge24" class="edge">
<title>Gene(9)&#45;&gt;CelComp(5)</title>
<path fill="none" stroke="black" d="M497.28,-341.51C511.35,-337.55 526.74,-331.13 537.92,-320.76 552.51,-307.23 542.92,-294.83 555.92,-279.76 598.07,-230.88 664.9,-195.08 707.69,-175.59"/>
<text text-anchor="middle" x="608.02" y="-282.56" font-family="Times,serif" font-size="14.00">located_in</text>
</g>
<!-- Gene(9)&#45;&gt;Phenotype(13) -->
<g id="edge22" class="edge">
<title>Gene(9)&#45;&gt;Phenotype(13)</title>
<path fill="none" stroke="black" d="M498.14,-343.25C512.69,-339.56 528.21,-332.88 537.92,-320.76 580.18,-268.01 517.69,-225.5 555.92,-169.76 587.68,-123.44 647.37,-96.54 691.89,-82.11"/>
<text text-anchor="middle" x="608.02" y="-186.56" font-family="Times,serif" font-size="14.00">cooc_wi</text>
<text text-anchor="middle" x="608.02" y="-172.56" font-family="Times,serif" font-size="14.00">has_observ_pheno</text>
</g>
<!-- Gene(9)&#45;&gt;MolFunc(3) -->
<g id="edge23" class="edge">
<title>Gene(9)&#45;&gt;MolFunc(3)</title>
<path fill="none" stroke="blue" d="M496.45,-354.87C545.05,-364.69 633.26,-382.5 691.34,-394.23"/>
<text text-anchor="middle" x="608.02" y="-390.56" font-family="Times,serif" font-size="14.00">has_function</text>
</g>
<!-- Gene(9)&#45;&gt;BioProc(4) -->
<g id="edge26" class="edge">
<title>Gene(9)&#45;&gt;BioProc(4)</title>
<path fill="none" stroke="black" d="M494.74,-339.13C545.12,-326.14 640.69,-301.52 699.05,-286.48"/>
<text text-anchor="middle" x="608.02" y="-324.56" font-family="Times,serif" font-size="14.00">participates_in</text>
</g>
<!-- Enzyme(16)&#45;&gt;Reaction(19) -->
<g id="edge27" class="edge">
<title>Enzyme(16)&#45;&gt;Reaction(19)</title>
<path fill="none" stroke="black" d="M507.1,-628.81C518.28,-624.82 529.45,-619.06 537.92,-610.76 554.19,-594.81 537.22,-575.79 555.92,-562.76 596.91,-534.19 655.67,-538.65 697.47,-547.3"/>
<text text-anchor="middle" x="608.02" y="-565.56" font-family="Times,serif" font-size="14.00">ca_by</text>
</g>
<!-- Reaction(18) -->
<g id="node19" class="node">
<title>Reaction(18)</title>
<ellipse fill="none" stroke="black" cx="749.41" cy="-649.76" rx="56.04" ry="18"/>
<text text-anchor="middle" x="749.41" y="-645.56" font-family="Times,serif" font-size="14.00">Reaction(18)</text>
</g>
<!-- Enzyme(16)&#45;&gt;Reaction(18) -->
<g id="edge28" class="edge">
<title>Enzyme(16)&#45;&gt;Reaction(18)</title>
<path fill="none" stroke="blue" d="M513.91,-639.96C564.75,-642.08 641.43,-645.29 693.14,-647.45"/>
<text text-anchor="middle" x="608.02" y="-649.56" font-family="Times,serif" font-size="14.00">ca_by</text>
</g>
<!-- Reaction(18)&#45;&gt;Path(20) -->
<g id="edge29" class="edge">
<title>Reaction(18)&#45;&gt;Path(20)</title>
<path fill="none" stroke="black" d="M805.9,-649.76C834.73,-649.76 869.59,-649.76 897.07,-649.76"/>
<text text-anchor="middle" x="858.93" y="-652.56" font-family="Times,serif" font-size="14.00">part_of</text>
</g>
</g>
</svg>
