<svg width="1039pt" height="919pt"
 viewBox="0.00 0.00 1038.67 919.00" xmlns="http://www.w3.org/2000/svg" xmlns:xlink="http://www.w3.org/1999/xlink">
<g id="graph0" class="graph" transform="scale(1 1) rotate(0) translate(4 915)">
<title>%3</title>
<polygon fill="white" stroke="transparent" points="-4,4 -4,-915 1034.67,-915 1034.67,4 -4,4"/>
<!-- Gene(8) -->
<g id="node1" class="node">
<title>Gene(8)</title>
<polygon fill="none" stroke="darkgreen" points="777.75,-750.54 777.75,-765.46 753.08,-776 718.2,-776 693.53,-765.46 693.53,-750.54 718.2,-740 753.08,-740 777.75,-750.54"/>
<polygon fill="none" stroke="darkgreen" points="781.73,-747.9 781.73,-768.1 753.9,-780 717.38,-780 689.55,-768.1 689.55,-747.9 717.38,-736 753.9,-736 781.73,-747.9"/>
<text text-anchor="middle" x="735.64" y="-753.8" font-family="Times,serif" font-size="14.00">Gene(8)</text>
</g>
<!-- Phenotype(13) -->
<g id="node2" class="node">
<title>Phenotype(13)</title>
<polygon fill="none" stroke="darkgreen" points="802.75,-626.54 802.75,-641.46 763.44,-652 707.84,-652 668.53,-641.46 668.53,-626.54 707.84,-616 763.44,-616 802.75,-626.54"/>
<polygon fill="none" stroke="darkgreen" points="806.74,-623.47 806.74,-644.53 763.96,-656 707.32,-656 664.55,-644.53 664.55,-623.47 707.32,-612 763.96,-612 806.74,-623.47"/>
<text text-anchor="middle" x="735.64" y="-629.8" font-family="Times,serif" font-size="14.00">Phenotype(13)</text>
</g>
<!-- Publication(2) -->
<g id="node3" class="node">
<title>Publication(2)</title>
<polygon fill="none" stroke="darkgreen" points="801.54,-688.54 801.54,-703.46 762.93,-714 708.35,-714 669.74,-703.46 669.74,-688.54 708.35,-678 762.93,-678 801.54,-688.54"/>
<polygon fill="none" stroke="darkgreen" points="805.55,-685.49 805.55,-706.51 763.47,-718 707.81,-718 665.73,-706.51 665.73,-685.49 707.81,-674 763.47,-674 805.55,-685.49"/>
<text text-anchor="middle" x="735.64" y="-691.8" font-family="Times,serif" font-size="14.00">Publication(2)</text>
</g>
<!-- Trait(21) -->
<g id="node4" class="node">
<title>Trait(21)</title>
<polygon fill="none" stroke="darkgreen" points="1026.82,-568.54 1026.82,-583.46 1000.28,-594 962.75,-594 936.21,-583.46 936.21,-568.54 962.75,-558 1000.28,-558 1026.82,-568.54"/>
<polygon fill="none" stroke="darkgreen" points="1030.83,-565.83 1030.83,-586.17 1001.05,-598 961.98,-598 932.2,-586.17 932.2,-565.83 961.98,-554 1001.05,-554 1030.83,-565.83"/>
<text text-anchor="middle" x="981.52" y="-571.8" font-family="Times,serif" font-size="14.00">Trait(21)</text>
</g>
<!-- MolFunc(3) -->
<g id="node5" class="node">
<title>MolFunc(3)</title>
<polygon fill="none" stroke="darkgreen" points="793.03,-247.54 793.03,-262.46 759.41,-273 711.87,-273 678.25,-262.46 678.25,-247.54 711.87,-237 759.41,-237 793.03,-247.54"/>
<polygon fill="none" stroke="darkgreen" points="797.04,-244.61 797.04,-265.39 760.03,-277 711.25,-277 674.24,-265.39 674.24,-244.61 711.25,-233 760.03,-233 797.04,-244.61"/>
<text text-anchor="middle" x="735.64" y="-250.8" font-family="Times,serif" font-size="14.00">MolFunc(3)</text>
</g>
<!-- BioProc(4) -->
<g id="node6" class="node">
<title>BioProc(4)</title>
<polygon fill="none" stroke="darkgreen" points="789.09,-431.54 789.09,-446.46 757.78,-457 713.5,-457 682.19,-446.46 682.19,-431.54 713.5,-421 757.78,-421 789.09,-431.54"/>
<polygon fill="none" stroke="darkgreen" points="793.09,-428.67 793.09,-449.33 758.44,-461 712.84,-461 678.19,-449.33 678.19,-428.67 712.84,-417 758.44,-417 793.09,-428.67"/>
<text text-anchor="middle" x="735.64" y="-434.8" font-family="Times,serif" font-size="14.00">BioProc(4)</text>
</g>
<!-- CelComp(5) -->
<g id="node7" class="node">
<title>CelComp(5)</title>
<polygon fill="none" stroke="darkgreen" points="794.24,-328.54 794.24,-343.46 759.91,-354 711.37,-354 677.04,-343.46 677.04,-328.54 711.37,-318 759.91,-318 794.24,-328.54"/>
<polygon fill="none" stroke="darkgreen" points="798.23,-325.59 798.23,-346.41 760.51,-358 710.77,-358 673.05,-346.41 673.05,-325.59 710.77,-314 760.51,-314 798.23,-325.59"/>
<text text-anchor="middle" x="735.64" y="-331.8" font-family="Times,serif" font-size="14.00">CelComp(5)</text>
</g>
<!-- TO(16) -->
<g id="node8" class="node">
<title>TO(16)</title>
<polygon fill="none" stroke="darkgreen" points="775.1,-510.54 775.1,-525.46 751.98,-536 719.3,-536 696.18,-525.46 696.18,-510.54 719.3,-500 751.98,-500 775.1,-510.54"/>
<polygon fill="none" stroke="darkgreen" points="779.1,-507.97 779.1,-528.03 752.85,-540 718.43,-540 692.18,-528.03 692.18,-507.97 718.43,-496 752.85,-496 779.1,-507.97"/>
<text text-anchor="middle" x="735.64" y="-513.8" font-family="Times,serif" font-size="14.00">TO(16)</text>
</g>
<!-- EC(15) -->
<g id="node9" class="node">
<title>EC(15)</title>
<polygon fill="none" stroke="darkgreen" points="485.69,-138.54 485.69,-153.46 462.71,-164 430.21,-164 407.24,-153.46 407.24,-138.54 430.21,-128 462.71,-128 485.69,-138.54"/>
<polygon fill="none" stroke="darkgreen" points="489.7,-135.98 489.7,-156.02 463.59,-168 429.33,-168 403.22,-156.02 403.22,-135.98 429.33,-124 463.59,-124 489.7,-135.98"/>
<text text-anchor="middle" x="446.46" y="-141.8" font-family="Times,serif" font-size="14.00">EC(15)</text>
</g>
<!-- Protein(7) -->
<g id="node10" class="node">
<title>Protein(7)</title>
<polygon fill="none" stroke="darkgreen" points="495.98,-881.54 495.98,-896.46 466.97,-907 425.95,-907 396.94,-896.46 396.94,-881.54 425.95,-871 466.97,-871 495.98,-881.54"/>
<polygon fill="none" stroke="darkgreen" points="499.97,-878.74 499.97,-899.26 467.67,-911 425.25,-911 392.96,-899.26 392.96,-878.74 425.25,-867 467.67,-867 499.97,-878.74"/>
<text text-anchor="middle" x="446.46" y="-884.8" font-family="Times,serif" font-size="14.00">Protein(7)</text>
</g>
<!-- Gene(1) -->
<g id="node11" class="node">
<title>Gene(1)</title>
<ellipse fill="none" stroke="red" cx="43.08" cy="-657" rx="39.15" ry="39.15"/>
<ellipse fill="none" stroke="red" cx="43.08" cy="-657" rx="43.15" ry="43.15"/>
<text text-anchor="middle" x="43.08" y="-652.8" font-family="Times,serif" font-size="14.00">Gene(1)</text>
</g>
<!-- Gene(1)&#45;&gt;Protein(7) -->
<g id="edge14" class="edge">
<title>Gene(1)&#45;&gt;Protein(7)</title>
<path fill="none" stroke="blue" d="M65.08,-694.38C98.3,-749.18 168.7,-849.14 260.35,-889 298.87,-905.75 346.32,-905.4 383.53,-901.04"/>
<polygon fill="blue" stroke="blue" points="384.27,-904.47 393.74,-899.71 383.37,-897.53 384.27,-904.47"/>
<text text-anchor="middle" x="191.97" y="-880.8" font-family="Times,serif" font-size="14.00">enc</text>
</g>
<!-- Protein(10) -->
<g id="node19" class="node">
<title>Protein(10)</title>
<ellipse fill="none" stroke="black" cx="191.97" cy="-412" rx="50.27" ry="18"/>
<text text-anchor="middle" x="191.97" y="-407.8" font-family="Times,serif" font-size="14.00">Protein(10)</text>
</g>
<!-- Gene(1)&#45;&gt;Protein(10) -->
<g id="edge15" class="edge">
<title>Gene(1)&#45;&gt;Protein(10)</title>
<path fill="none" stroke="black" d="M66.07,-620.32C96.03,-570.35 148.95,-482.08 175.24,-438.23"/>
<polygon fill="black" stroke="black" points="178.29,-439.96 180.43,-429.58 172.28,-436.36 178.29,-439.96"/>
<text text-anchor="middle" x="113.87" y="-558.8" font-family="Times,serif" font-size="14.00">enc</text>
</g>
<!-- ProtDomain(14) -->
<g id="node12" class="node">
<title>ProtDomain(14)</title>
<polygon fill="none" stroke="darkgreen" points="520.32,-76.54 520.32,-91.46 477.05,-102 415.87,-102 372.61,-91.46 372.61,-76.54 415.87,-66 477.05,-66 520.32,-76.54"/>
<polygon fill="none" stroke="darkgreen" points="524.32,-73.4 524.32,-94.6 477.54,-106 415.39,-106 368.6,-94.6 368.6,-73.4 415.39,-62 477.54,-62 524.32,-73.4"/>
<text text-anchor="middle" x="446.46" y="-79.8" font-family="Times,serif" font-size="14.00">ProtDomain(14)</text>
</g>
<!-- Reaction(188) -->
<g id="node13" class="node">
<title>Reaction(188)</title>
<polygon fill="none" stroke="darkgreen" points="801.52,-866.54 801.52,-881.46 762.93,-892 708.35,-892 669.76,-881.46 669.76,-866.54 708.35,-856 762.93,-856 801.52,-866.54"/>
<polygon fill="none" stroke="darkgreen" points="805.53,-863.49 805.53,-884.51 763.47,-896 707.81,-896 665.75,-884.51 665.75,-863.49 707.81,-852 763.47,-852 805.53,-863.49"/>
<text text-anchor="middle" x="735.64" y="-869.8" font-family="Times,serif" font-size="14.00">Reaction(188)</text>
</g>
<!-- Path(19) -->
<g id="node14" class="node">
<title>Path(19)</title>
<polygon fill="none" stroke="darkgreen" points="1025.33,-808.54 1025.33,-823.46 999.66,-834 963.37,-834 937.7,-823.46 937.7,-808.54 963.37,-798 999.66,-798 1025.33,-808.54"/>
<polygon fill="none" stroke="darkgreen" points="1029.32,-805.86 1029.32,-826.14 1000.45,-838 962.58,-838 933.71,-826.14 933.71,-805.86 962.58,-794 1000.45,-794 1029.32,-805.86"/>
<text text-anchor="middle" x="981.52" y="-811.8" font-family="Times,serif" font-size="14.00">Path(19)</text>
</g>
<!-- Enzyme(177) -->
<g id="node15" class="node">
<title>Enzyme(177)</title>
<polygon fill="none" stroke="darkgreen" points="509.53,-14.54 509.53,-29.46 472.58,-40 420.34,-40 383.39,-29.46 383.39,-14.54 420.34,-4 472.58,-4 509.53,-14.54"/>
<polygon fill="none" stroke="darkgreen" points="513.53,-11.53 513.53,-32.47 473.14,-44 419.78,-44 379.39,-32.47 379.39,-11.53 419.78,0 473.14,0 513.53,-11.53"/>
<text text-anchor="middle" x="446.46" y="-17.8" font-family="Times,serif" font-size="14.00">Enzyme(177)</text>
</g>
<!-- Gene(9) -->
<g id="node16" class="node">
<title>Gene(9)</title>
<ellipse fill="none" stroke="black" cx="446.46" cy="-546" rx="39.15" ry="18"/>
<text text-anchor="middle" x="446.46" y="-541.8" font-family="Times,serif" font-size="14.00">Gene(9)</text>
</g>
<!-- Gene(9)&#45;&gt;Gene(8) -->
<g id="edge1" class="edge">
<title>Gene(9)&#45;&gt;Gene(8)</title>
<path fill="none" stroke="black" d="M456.87,-563.7C471.8,-590.33 503.25,-640.89 542.14,-672 548.4,-677 636.05,-715.35 690.89,-739.12"/>
<polygon fill="black" stroke="black" points="689.82,-742.47 700.39,-743.23 692.61,-736.05 689.82,-742.47"/>
<text text-anchor="middle" x="594.24" y="-733.8" font-family="Times,serif" font-size="14.00">genetic(&lt;=8)</text>
<text text-anchor="middle" x="594.24" y="-719.8" font-family="Times,serif" font-size="14.00">physical(&lt;=8)</text>
</g>
<!-- Gene(9)&#45;&gt;Phenotype(13) -->
<g id="edge2" class="edge">
<title>Gene(9)&#45;&gt;Phenotype(13)</title>
<path fill="none" stroke="blue" d="M475.29,-558.26C493.97,-566.22 519.26,-576.47 542.14,-584 582.32,-597.22 628.11,-609.23 664.96,-618.17"/>
<polygon fill="blue" stroke="blue" points="664.56,-621.68 675.1,-620.61 666.19,-614.87 664.56,-621.68"/>
<text text-anchor="middle" x="594.24" y="-615.8" font-family="Times,serif" font-size="14.00">has_observ_pheno</text>
</g>
<!-- Gene(9)&#45;&gt;Publication(2) -->
<g id="edge3" class="edge">
<title>Gene(9)&#45;&gt;Publication(2)</title>
<path fill="none" stroke="black" d="M461.44,-562.66C478.52,-581.96 509.25,-613.35 542.14,-631 584.3,-653.62 601.08,-642.5 646.34,-658 654.12,-660.66 669,-666.91 684.35,-673.58"/>
<polygon fill="black" stroke="black" points="683.35,-676.96 693.91,-677.76 686.15,-670.55 683.35,-676.96"/>
<text text-anchor="middle" x="594.24" y="-660.8" font-family="Times,serif" font-size="14.00">pub_in</text>
</g>
<!-- Gene(9)&#45;&gt;MolFunc(3) -->
<g id="edge6" class="edge">
<title>Gene(9)&#45;&gt;MolFunc(3)</title>
<path fill="none" stroke="blue" d="M465.64,-530.19C483.38,-513.72 509.73,-486.28 524.14,-457 541.59,-421.58 513.89,-397.59 542.14,-370 575.82,-337.11 610.01,-380.93 646.34,-351 663.29,-337.04 650.83,-322.31 664.34,-305 671.9,-295.32 681.84,-286.7 691.84,-279.47"/>
<polygon fill="blue" stroke="blue" points="693.95,-282.27 700.22,-273.73 689.99,-276.5 693.95,-282.27"/>
<text text-anchor="middle" x="594.24" y="-372.8" font-family="Times,serif" font-size="14.00">has_function</text>
</g>
<!-- Gene(9)&#45;&gt;BioProc(4) -->
<g id="edge7" class="edge">
<title>Gene(9)&#45;&gt;BioProc(4)</title>
<path fill="none" stroke="black" d="M475.21,-533.76C493.86,-525.88 519.15,-515.87 542.14,-509 587.49,-495.45 601.93,-503.36 646.34,-487 663.02,-480.86 680.4,-472 695.29,-463.57"/>
<polygon fill="black" stroke="black" points="697.32,-466.44 704.21,-458.4 693.81,-460.38 697.32,-466.44"/>
<text text-anchor="middle" x="594.24" y="-511.8" font-family="Times,serif" font-size="14.00">participates_in</text>
</g>
<!-- Gene(9)&#45;&gt;CelComp(5) -->
<g id="edge8" class="edge">
<title>Gene(9)&#45;&gt;CelComp(5)</title>
<path fill="none" stroke="blue" d="M464.03,-529.75C482.04,-512.79 512.25,-486.3 542.14,-469 585.08,-444.15 605.81,-457.59 646.34,-429 656.39,-421.91 656.04,-417.07 664.34,-408 677.45,-393.67 692.44,-378.21 705.19,-365.3"/>
<polygon fill="blue" stroke="blue" points="707.85,-367.58 712.41,-358.02 702.88,-362.65 707.85,-367.58"/>
<text text-anchor="middle" x="594.24" y="-471.8" font-family="Times,serif" font-size="14.00">located_in</text>
</g>
<!-- Gene(9)&#45;&gt;TO(16) -->
<g id="edge9" class="edge">
<title>Gene(9)&#45;&gt;TO(16)</title>
<path fill="none" stroke="black" d="M485,-542.34C535.24,-537.44 624.61,-528.73 681.68,-523.16"/>
<polygon fill="black" stroke="black" points="682.33,-526.62 691.94,-522.16 681.65,-519.65 682.33,-526.62"/>
<text text-anchor="middle" x="594.24" y="-538.8" font-family="Times,serif" font-size="14.00">cooc_wi</text>
</g>
<!-- Gene(9)&#45;&gt;Gene(9) -->
<g id="edge5" class="edge">
<title>Gene(9)&#45;&gt;Gene(9)</title>
<path fill="none" stroke="black" d="M423.04,-560.79C415.41,-571.42 423.22,-582 446.46,-582 462.08,-582 470.73,-577.22 472.41,-570.86"/>
<polygon fill="black" stroke="black" points="475.71,-569.64 469.88,-560.79 468.92,-571.34 475.71,-569.64"/>
<text text-anchor="middle" x="446.46" y="-598.8" font-family="Times,serif" font-size="14.00">genetic(&lt;=8)</text>
<text text-anchor="middle" x="446.46" y="-584.8" font-family="Times,serif" font-size="14.00">physical(&lt;=8)</text>
</g>
<!-- SNP(20) -->
<g id="node17" class="node">
<title>SNP(20)</title>
<ellipse fill="none" stroke="black" cx="735.64" cy="-576" rx="41.13" ry="18"/>
<text text-anchor="middle" x="735.64" y="-571.8" font-family="Times,serif" font-size="14.00">SNP(20)</text>
</g>
<!-- Gene(9)&#45;&gt;SNP(20) -->
<g id="edge4" class="edge">
<title>Gene(9)&#45;&gt;SNP(20)</title>
<path fill="none" stroke="blue" d="M484.71,-549.89C536,-555.25 628.48,-564.91 685.42,-570.86"/>
<polygon fill="blue" stroke="blue" points="685.31,-574.37 695.62,-571.92 686.04,-567.4 685.31,-574.37"/>
<text text-anchor="middle" x="594.24" y="-568.8" font-family="Times,serif" font-size="14.00">has_variation</text>
</g>
<!-- SNP(20)&#45;&gt;Trait(21) -->
<g id="edge10" class="edge">
<title>SNP(20)&#45;&gt;Trait(21)</title>
<path fill="none" stroke="black" d="M776.91,-576C816.45,-576 877.18,-576 922.04,-576"/>
<polygon fill="black" stroke="black" points="922.21,-579.5 932.21,-576 922.21,-572.5 922.21,-579.5"/>
<text text-anchor="middle" x="869.65" y="-578.8" font-family="Times,serif" font-size="14.00">associated_with</text>
</g>
<!-- ProtDomain(11) -->
<g id="node18" class="node">
<title>ProtDomain(11)</title>
<ellipse fill="none" stroke="black" cx="446.46" cy="-372" rx="68" ry="18"/>
<text text-anchor="middle" x="446.46" y="-367.8" font-family="Times,serif" font-size="14.00">ProtDomain(11)</text>
</g>
<!-- ProtDomain(11)&#45;&gt;MolFunc(3) -->
<g id="edge13" class="edge">
<title>ProtDomain(11)&#45;&gt;MolFunc(3)</title>
<path fill="none" stroke="blue" d="M476.38,-355.76C490.97,-347.3 508.77,-336.53 524.14,-326 532.5,-320.27 533.13,-316.63 542.14,-312 581.28,-291.9 628.62,-277.77 666.56,-268.6"/>
<polygon fill="blue" stroke="blue" points="667.56,-271.96 676.49,-266.26 665.95,-265.14 667.56,-271.96"/>
<text text-anchor="middle" x="594.24" y="-314.8" font-family="Times,serif" font-size="14.00">has_function</text>
</g>
<!-- ProtDomain(11)&#45;&gt;BioProc(4) -->
<g id="edge11" class="edge">
<title>ProtDomain(11)&#45;&gt;BioProc(4)</title>
<path fill="none" stroke="blue" d="M504.42,-381.4C544.4,-388.43 598.96,-398.88 646.34,-411 657.91,-413.96 670.19,-417.55 681.8,-421.17"/>
<polygon fill="blue" stroke="blue" points="680.77,-424.51 691.36,-424.2 682.88,-417.84 680.77,-424.51"/>
<text text-anchor="middle" x="594.24" y="-413.8" font-family="Times,serif" font-size="14.00">participates_in</text>
</g>
<!-- ProtDomain(11)&#45;&gt;CelComp(5) -->
<g id="edge12" class="edge">
<title>ProtDomain(11)&#45;&gt;CelComp(5)</title>
<path fill="none" stroke="black" d="M480.84,-356.41C498.62,-348.95 521.11,-340.82 542.14,-337 581.67,-329.82 626.51,-329.16 662.97,-330.49"/>
<polygon fill="black" stroke="black" points="662.88,-333.99 673.02,-330.91 663.17,-326.99 662.88,-333.99"/>
<text text-anchor="middle" x="594.24" y="-339.8" font-family="Times,serif" font-size="14.00">located_in</text>
</g>
<!-- Protein(10)&#45;&gt;Gene(8) -->
<g id="edge24" class="edge">
<title>Protein(10)&#45;&gt;Gene(8)</title>
<path fill="none" stroke="black" d="M196.05,-430.26C206.97,-488.31 249.72,-668.63 368.78,-735 420.51,-763.84 590.43,-762.9 679.32,-760.24"/>
<polygon fill="black" stroke="black" points="679.6,-763.73 689.48,-759.92 679.38,-756.74 679.6,-763.73"/>
<text text-anchor="middle" x="446.46" y="-762.8" font-family="Times,serif" font-size="14.00">enc</text>
</g>
<!-- Protein(10)&#45;&gt;Publication(2) -->
<g id="edge27" class="edge">
<title>Protein(10)&#45;&gt;Publication(2)</title>
<path fill="none" stroke="blue" d="M202.44,-429.81C214.46,-451.66 236.52,-489.33 260.35,-518 359.36,-637.1 392.89,-681.66 542.14,-723 587.07,-735.44 639.57,-726.59 678.38,-715.81"/>
<polygon fill="blue" stroke="blue" points="679.82,-719.04 688.45,-712.88 677.87,-712.31 679.82,-719.04"/>
<text text-anchor="middle" x="446.46" y="-719.8" font-family="Times,serif" font-size="14.00">pub_in</text>
</g>
<!-- Protein(10)&#45;&gt;MolFunc(3) -->
<g id="edge23" class="edge">
<title>Protein(10)&#45;&gt;MolFunc(3)</title>
<path fill="none" stroke="blue" d="M195.26,-394.02C200.5,-360.3 216.51,-287.32 260.35,-247 297.53,-212.82 318.86,-220.64 368.78,-213 490.98,-194.29 525.33,-205.74 646.34,-231 656.14,-233.05 666.46,-235.54 676.46,-238.13"/>
<polygon fill="blue" stroke="blue" points="675.75,-241.57 686.31,-240.75 677.55,-234.8 675.75,-241.57"/>
<text text-anchor="middle" x="446.46" y="-215.8" font-family="Times,serif" font-size="14.00">has_function</text>
</g>
<!-- Protein(10)&#45;&gt;BioProc(4) -->
<g id="edge26" class="edge">
<title>Protein(10)&#45;&gt;BioProc(4)</title>
<path fill="none" stroke="black" d="M240.43,-417.3C247.11,-417.94 253.9,-418.53 260.35,-419 405.39,-429.58 575.81,-435.08 667.72,-437.47"/>
<polygon fill="black" stroke="black" points="667.91,-440.98 677.99,-437.73 668.09,-433.98 667.91,-440.98"/>
<text text-anchor="middle" x="446.46" y="-434.8" font-family="Times,serif" font-size="14.00">participates_in</text>
</g>
<!-- Protein(10)&#45;&gt;CelComp(5) -->
<g id="edge19" class="edge">
<title>Protein(10)&#45;&gt;CelComp(5)</title>
<path fill="none" stroke="blue" d="M218,-396.5C251.09,-376.97 311.85,-344.35 368.78,-331 468.6,-307.6 587.99,-315.69 662.59,-324.87"/>
<polygon fill="blue" stroke="blue" points="662.45,-328.38 672.81,-326.17 663.33,-321.44 662.45,-328.38"/>
<text text-anchor="middle" x="446.46" y="-333.8" font-family="Times,serif" font-size="14.00">located_in</text>
</g>
<!-- Protein(10)&#45;&gt;EC(15) -->
<g id="edge25" class="edge">
<title>Protein(10)&#45;&gt;EC(15)</title>
<path fill="none" stroke="blue" d="M192.14,-393.89C191.17,-349.32 195.39,-233.75 260.35,-176 296.24,-144.1 352.23,-139 393.23,-140.41"/>
<polygon fill="blue" stroke="blue" points="393.16,-143.91 403.32,-140.89 393.5,-136.91 393.16,-143.91"/>
<text text-anchor="middle" x="305.57" y="-178.8" font-family="Times,serif" font-size="14.00">cat_c</text>
</g>
<!-- Protein(10)&#45;&gt;Protein(7) -->
<g id="edge20" class="edge">
<title>Protein(10)&#45;&gt;Protein(7)</title>
<path fill="none" stroke="black" d="M193.49,-430.04C195.89,-500.13 208.11,-753.32 260.35,-810 288.46,-840.49 312.45,-817.17 350.78,-833 353.85,-834.27 381.47,-850.65 406.1,-865.37"/>
<polygon fill="black" stroke="black" points="404.6,-868.56 414.98,-870.69 408.2,-862.55 404.6,-868.56"/>
<text text-anchor="middle" x="305.57" y="-877.8" font-family="Times,serif" font-size="14.00">xref(&lt;=6)</text>
<text text-anchor="middle" x="305.57" y="-863.8" font-family="Times,serif" font-size="14.00">h_s_s(&lt;=4)</text>
<text text-anchor="middle" x="305.57" y="-849.8" font-family="Times,serif" font-size="14.00">ortho(&lt;=4)</text>
<text text-anchor="middle" x="305.57" y="-835.8" font-family="Times,serif" font-size="14.00">equivalent(&lt;=4)</text>
</g>
<!-- Protein(10)&#45;&gt;ProtDomain(14) -->
<g id="edge18" class="edge">
<title>Protein(10)&#45;&gt;ProtDomain(14)</title>
<path fill="none" stroke="black" d="M194.75,-393.67C200.67,-336.55 221.57,-163.3 260.35,-125 286.04,-99.64 323.69,-88.48 358.34,-84.01"/>
<polygon fill="black" stroke="black" points="358.95,-87.47 368.5,-82.88 358.18,-80.51 358.95,-87.47"/>
<text text-anchor="middle" x="305.57" y="-127.8" font-family="Times,serif" font-size="14.00">has_domain</text>
</g>
<!-- Protein(10)&#45;&gt;Enzyme(177) -->
<g id="edge28" class="edge">
<title>Protein(10)&#45;&gt;Enzyme(177)</title>
<path fill="none" stroke="black" d="M194.01,-393.81C198.07,-329.75 214.85,-115.85 260.35,-68 288.22,-38.7 331.6,-26.89 369.37,-22.54"/>
<polygon fill="black" stroke="black" points="369.74,-26.03 379.35,-21.55 369.05,-19.06 369.74,-26.03"/>
<text text-anchor="middle" x="305.57" y="-70.8" font-family="Times,serif" font-size="14.00">is_a</text>
</g>
<!-- Protein(10)&#45;&gt;Gene(9) -->
<g id="edge16" class="edge">
<title>Protein(10)&#45;&gt;Gene(9)</title>
<path fill="none" stroke="black" d="M217.65,-427.67C230.28,-435.53 245.98,-445.03 260.35,-453 311.25,-481.21 371.75,-510.91 409.38,-528.94"/>
<polygon fill="black" stroke="black" points="407.91,-532.12 418.44,-533.27 410.92,-525.8 407.91,-532.12"/>
<text text-anchor="middle" x="305.57" y="-502.8" font-family="Times,serif" font-size="14.00">enc</text>
</g>
<!-- Protein(10)&#45;&gt;ProtDomain(11) -->
<g id="edge29" class="edge">
<title>Protein(10)&#45;&gt;ProtDomain(11)</title>
<path fill="none" stroke="blue" d="M238.4,-404.8C277.26,-398.65 333.74,-389.7 377.9,-382.7"/>
<polygon fill="blue" stroke="blue" points="378.65,-386.13 387.98,-381.11 377.55,-379.21 378.65,-386.13"/>
<text text-anchor="middle" x="305.57" y="-403.8" font-family="Times,serif" font-size="14.00">has_domain</text>
</g>
<!-- Protein(10)&#45;&gt;Protein(10) -->
<g id="edge17" class="edge">
<title>Protein(10)&#45;&gt;Protein(10)</title>
<path fill="none" stroke="blue" d="M178.04,-429.41C175.44,-439.09 180.08,-448 191.97,-448 199.39,-448 203.99,-444.52 205.76,-439.54"/>
<polygon fill="blue" stroke="blue" points="209.26,-439.45 205.89,-429.41 202.26,-439.36 209.26,-439.45"/>
<text text-anchor="middle" x="191.97" y="-492.8" font-family="Times,serif" font-size="14.00">h_s_s(&lt;=4)</text>
<text text-anchor="middle" x="191.97" y="-478.8" font-family="Times,serif" font-size="14.00">equivalent(&lt;=4)</text>
<text text-anchor="middle" x="191.97" y="-464.8" font-family="Times,serif" font-size="14.00">ortho(&lt;=4)</text>
<text text-anchor="middle" x="191.97" y="-450.8" font-family="Times,serif" font-size="14.00">xref(&lt;=6)</text>
</g>
<!-- Enzyme(17) -->
<g id="node20" class="node">
<title>Enzyme(17)</title>
<ellipse fill="none" stroke="black" cx="446.46" cy="-816" rx="53.63" ry="18"/>
<text text-anchor="middle" x="446.46" y="-811.8" font-family="Times,serif" font-size="14.00">Enzyme(17)</text>
</g>
<!-- Protein(10)&#45;&gt;Enzyme(17) -->
<g id="edge21" class="edge">
<title>Protein(10)&#45;&gt;Enzyme(17)</title>
<path fill="none" stroke="blue" d="M193.8,-430.18C197.22,-496.31 212.3,-722.8 260.35,-773 262.68,-775.43 337.39,-792.27 391.17,-804.13"/>
<polygon fill="blue" stroke="blue" points="390.43,-807.55 400.95,-806.29 391.94,-800.72 390.43,-807.55"/>
<text text-anchor="middle" x="305.57" y="-796.8" font-family="Times,serif" font-size="14.00">is_a</text>
</g>
<!-- EC(12) -->
<g id="node21" class="node">
<title>EC(12)</title>
<ellipse fill="none" stroke="black" cx="446.46" cy="-254" rx="36.28" ry="18"/>
<text text-anchor="middle" x="446.46" y="-249.8" font-family="Times,serif" font-size="14.00">EC(12)</text>
</g>
<!-- Protein(10)&#45;&gt;EC(12) -->
<g id="edge22" class="edge">
<title>Protein(10)&#45;&gt;EC(12)</title>
<path fill="none" stroke="black" d="M196.59,-394.02C203.47,-364.87 221.38,-307.77 260.35,-280 301.32,-250.81 360.54,-247.43 400.89,-249.32"/>
<polygon fill="black" stroke="black" points="400.79,-252.82 410.98,-249.91 401.2,-245.83 400.79,-252.82"/>
<text text-anchor="middle" x="305.57" y="-282.8" font-family="Times,serif" font-size="14.00">cat_c</text>
</g>
<!-- Enzyme(17)&#45;&gt;Reaction(188) -->
<g id="edge30" class="edge">
<title>Enzyme(17)&#45;&gt;Reaction(188)</title>
<path fill="none" stroke="blue" d="M492.97,-825.19C538.58,-834.4 609.49,-848.72 662.73,-859.48"/>
<polygon fill="blue" stroke="blue" points="662.29,-862.96 672.79,-861.51 663.68,-856.1 662.29,-862.96"/>
<text text-anchor="middle" x="594.24" y="-857.8" font-family="Times,serif" font-size="14.00">ca_by</text>
</g>
<!-- Reaction(18) -->
<g id="node22" class="node">
<title>Reaction(18)</title>
<ellipse fill="none" stroke="black" cx="735.64" cy="-816" rx="56.04" ry="18"/>
<text text-anchor="middle" x="735.64" y="-811.8" font-family="Times,serif" font-size="14.00">Reaction(18)</text>
</g>
<!-- Enzyme(17)&#45;&gt;Reaction(18) -->
<g id="edge31" class="edge">
<title>Enzyme(17)&#45;&gt;Reaction(18)</title>
<path fill="none" stroke="black" d="M500.47,-816C547.93,-816 617.7,-816 668.73,-816"/>
<polygon fill="black" stroke="black" points="669,-819.5 679,-816 669,-812.5 669,-819.5"/>
<text text-anchor="middle" x="594.24" y="-818.8" font-family="Times,serif" font-size="14.00">ca_by</text>
</g>
<!-- EC(12)&#45;&gt;MolFunc(3) -->
<g id="edge33" class="edge">
<title>EC(12)&#45;&gt;MolFunc(3)</title>
<path fill="none" stroke="blue" d="M480.15,-247.09C498.32,-243.6 521.38,-239.74 542.14,-238 588.29,-234.13 600.24,-233.6 646.34,-238 653.99,-238.73 661.96,-239.81 669.85,-241.07"/>
<polygon fill="blue" stroke="blue" points="669.32,-244.53 679.77,-242.76 670.5,-237.63 669.32,-244.53"/>
<text text-anchor="middle" x="594.24" y="-240.8" font-family="Times,serif" font-size="14.00">equ</text>
</g>
<!-- Reaction(18)&#45;&gt;Path(19) -->
<g id="edge32" class="edge">
<title>Reaction(18)&#45;&gt;Path(19)</title>
<path fill="none" stroke="black" d="M791.98,-816C831.28,-816 883.9,-816 923.56,-816"/>
<polygon fill="black" stroke="black" points="923.6,-819.5 933.6,-816 923.6,-812.5 923.6,-819.5"/>
<text text-anchor="middle" x="869.65" y="-818.8" font-family="Times,serif" font-size="14.00">part_of</text>
</g>
</g>
</svg>
