<?xml version="1.0" encoding="UTF-8"?>
<!DOCTYPE svg PUBLIC "-//W3C//DTD SVG 1.1//EN" "http://www.w3.org/Graphics/SVG/1.1/DTD/svg11.dtd">
<svg xmlns="http://www.w3.org/2000/svg" xml:space="preserve" width="1024px" height="1024px" shape-rendering="geometricPrecision" text-rendering="geometricPrecision" image-rendering="optimizeQuality" fill-rule="evenodd" clip-rule="evenodd" viewBox="0 0 10240 10240" xmlns:xlink="http://www.w3.org/1999/xlink">
	<defs>
		<g id='pin'>
			<path id="curve1" fill="#252525" d="M4032 7045c-1293,1123 -2885,2391 -3056,2220 -171,-171 1096,-1763 2220,-3056l837 837z"/>
			<path id="curve0" fill="#A1C057" d="M6400 2240c-320,-320 -320,-960 0,-1280l94 -94c125,-125 328,-125 453,0l2427 2427c125,125 125,328 0,453l-94 94c-320,320 -960,320 -1280,0l-1600 2240c320,320 640,1600 0,2240l-94 94c-125,125 -328,125 -453,0l-4027 -4027c-125,-125 -125,-328 0,-453l94 -94c640,-640 1920,-320 2240,0l2240 -1600zm-2121 2624c-296,-296 -270,-270 -566,-566 -182,-145 -588,-246 -729,19 -67,126 -45,276 56,377l705 705c125,125 328,125 453,0l82 -82c125,-125 125,-328 0,-453z"/>
		</g>
	</defs>
	<title>pin2 icon</title>
	<desc>pin2 icon from the IconExperience.com O-Collection. Copyright by INCORS GmbH (www.incors.com).</desc>
	<use x="10" y="10" xlink:href="#pin" />
</svg>
