<svg width="742px" height="477px"
 viewBox="0.00 0.00 556.45 358.00" xmlns="http://www.w3.org/2000/svg" xmlns:xlink="http://www.w3.org/1999/xlink">
<g id="graph0" class="graph" transform=" rotate(0) translate(4 354)">
<polygon fill="white" stroke="transparent" points="-4,4 -4,-354 552.45,-354 552.45,4 -4,4"/>
<!-- BioProc(4) -->
<g id="node1" class="node">
<title>BioProc(4)</title>
<polygon fill="none" stroke="darkgreen" points="532.64,-237.54 532.64,-252.46 500.82,-263 455.81,-263 423.99,-252.46 423.99,-237.54 455.81,-227 500.82,-227 532.64,-237.54"/>
<polygon fill="none" stroke="darkgreen" points="536.66,-234.66 536.66,-255.34 501.47,-267 455.17,-267 419.98,-255.34 419.98,-234.66 455.17,-223 501.47,-223 536.66,-234.66"/>
<text text-anchor="middle" x="478.32" y="-241.3" font-family="Times,serif" font-size="14.00">BioProc(4)</text>
</g>
<!-- Publication(2) -->
<g id="node2" class="node">
<title>Publication(2)</title>
<polygon fill="none" stroke="darkgreen" points="544.57,-320.54 544.57,-335.46 505.76,-346 450.88,-346 412.07,-335.46 412.07,-320.54 450.88,-310 505.76,-310 544.57,-320.54"/>
<polygon fill="none" stroke="darkgreen" points="548.57,-317.49 548.57,-338.51 506.29,-350 450.34,-350 408.06,-338.51 408.06,-317.49 450.34,-306 506.29,-306 548.57,-317.49"/>
<text text-anchor="middle" x="478.32" y="-324.3" font-family="Times,serif" font-size="14.00">Publication(2)</text>
</g>
<!-- CelComp(5) -->
<g id="node3" class="node">
<title>CelComp(5)</title>
<polygon fill="none" stroke="darkgreen" points="537.92,-94.54 537.92,-109.46 503.01,-120 453.63,-120 418.71,-109.46 418.71,-94.54 453.63,-84 503.01,-84 537.92,-94.54"/>
<polygon fill="none" stroke="darkgreen" points="541.91,-91.57 541.91,-112.43 503.59,-124 453.04,-124 414.72,-112.43 414.72,-91.57 453.04,-80 503.59,-80 541.91,-91.57"/>
<text text-anchor="middle" x="478.32" y="-98.3" font-family="Times,serif" font-size="14.00">CelComp(5)</text>
</g>
<!-- Protein(7) -->
<g id="node4" class="node">
<title>Protein(7)</title>
<polygon fill="none" stroke="darkgreen" points="288.14,-14.54 288.14,-29.46 258.91,-40 217.57,-40 188.34,-29.46 188.34,-14.54 217.57,-4 258.91,-4 288.14,-14.54"/>
<polygon fill="none" stroke="darkgreen" points="292.14,-11.73 292.14,-32.27 259.61,-44 216.87,-44 184.34,-32.27 184.34,-11.73 216.87,0 259.61,0 292.14,-11.73"/>
<text text-anchor="middle" x="238.24" y="-18.3" font-family="Times,serif" font-size="14.00">Protein(7)</text>
</g>
<!-- Gene(1) -->
<g id="node5" class="node">
<title>Gene(1)</title>
<ellipse fill="none" stroke="red" cx="43.65" cy="-156" rx="39.78" ry="39.78"/>
<ellipse fill="none" stroke="red" cx="43.65" cy="-156" rx="43.79" ry="43.79"/>
<text text-anchor="middle" x="43.65" y="-152.3" font-family="Times,serif" font-size="14.00">Gene(1)</text>
</g>
<!-- Gene(1)&#45;&gt;BioProc(4) -->
<g id="edge5" class="edge">
<title>Gene(1)&#45;&gt;BioProc(4)</title>
<path fill="none" stroke="black" d="M79.52,-181.25C87.78,-186.75 96.7,-192.33 105.29,-197 192.21,-244.26 213.24,-264.27 310.19,-284 345.03,-291.09 355.42,-291.43 390.19,-284 408.99,-279.98 428.64,-271.6 444.51,-263.63"/>
<text text-anchor="middle" x="238.24" y="-283.8" font-family="Times,serif" font-size="14.00">participates_in</text>
</g>
<!-- Gene(1)&#45;&gt;Publication(2) -->
<g id="edge6" class="edge">
<title>Gene(1)&#45;&gt;Publication(2)</title>
<path fill="none" stroke="blue" d="M67.89,-192.37C92.23,-226.83 133.89,-276.56 184.29,-299 255.86,-330.86 346.75,-334.97 408.18,-333.13"/>
<text text-anchor="middle" x="238.24" y="-330.8" font-family="Times,serif" font-size="14.00">pub_in</text>
</g>
<!-- Gene(1)&#45;&gt;CelComp(5) -->
<g id="edge3" class="edge">
<title>Gene(1)&#45;&gt;CelComp(5)</title>
<path fill="none" stroke="black" d="M82.92,-136.86C110.35,-124.38 148.61,-109.42 184.29,-104 263.01,-92.03 354.99,-93.95 414.6,-97.25"/>
<text text-anchor="middle" x="238.24" y="-107.8" font-family="Times,serif" font-size="14.00">located_in</text>
</g>
<!-- Gene(1)&#45;&gt;Protein(7) -->
<g id="edge1" class="edge">
<title>Gene(1)&#45;&gt;Protein(7)</title>
<path fill="none" stroke="black" d="M58.89,-114.91C68.62,-92.75 83.72,-66.79 105.29,-51 128.01,-34.38 158.42,-26.97 184.32,-23.79"/>
<text text-anchor="middle" x="135.79" y="-54.8" font-family="Times,serif" font-size="14.00">enc</text>
</g>
<!-- MolFunc(3) -->
<g id="node6" class="node">
<title>MolFunc(3)</title>
<polygon fill="none" stroke="darkgreen" points="536.6,-169.54 536.6,-184.46 502.46,-195 454.17,-195 420.03,-184.46 420.03,-169.54 454.17,-159 502.46,-159 536.6,-169.54"/>
<polygon fill="none" stroke="darkgreen" points="540.6,-166.59 540.6,-187.41 503.06,-199 453.57,-199 416.04,-187.41 416.04,-166.59 453.57,-155 503.06,-155 540.6,-166.59"/>
<text text-anchor="middle" x="478.32" y="-173.3" font-family="Times,serif" font-size="14.00">MolFunc(3)</text>
</g>
<!-- Gene(1)&#45;&gt;MolFunc(3) -->
<g id="edge2" class="edge">
<title>Gene(1)&#45;&gt;MolFunc(3)</title>
<path fill="none" stroke="blue" d="M86.22,-145.99C151.75,-131.88 282.67,-110.44 390.19,-135 409.51,-139.41 429.53,-148.68 445.5,-157.39"/>
<text text-anchor="middle" x="238.24" y="-132.8" font-family="Times,serif" font-size="14.00">has_function</text>
</g>
<!-- Gene(9) -->
<g id="node7" class="node">
<title>Gene(9)</title>
<ellipse fill="none" stroke="black" cx="238.24" cy="-192" rx="39.79" ry="18"/>
<text text-anchor="middle" x="238.24" y="-188.3" font-family="Times,serif" font-size="14.00">Gene(9)</text>
</g>
<!-- Gene(1)&#45;&gt;Gene(9) -->
<g id="edge4" class="edge">
<title>Gene(1)&#45;&gt;Gene(9)</title>
<path fill="none" stroke="blue" d="M86.91,-163.9C121.13,-170.3 168.8,-179.21 201.22,-185.27"/>
<text text-anchor="middle" x="135.79" y="-181.8" font-family="Times,serif" font-size="14.00">ortho(&lt;=2)</text>
</g>
<!-- Gene(9)&#45;&gt;BioProc(4) -->
<g id="edge9" class="edge">
<title>Gene(9)&#45;&gt;BioProc(4)</title>
<path fill="none" stroke="black" d="M274.11,-199.76C313.64,-208.56 378.5,-223 424.3,-233.2"/>
<text text-anchor="middle" x="350.19" y="-227.8" font-family="Times,serif" font-size="14.00">participates_in</text>
</g>
<!-- Gene(9)&#45;&gt;Publication(2) -->
<g id="edge10" class="edge">
<title>Gene(9)&#45;&gt;Publication(2)</title>
<path fill="none" stroke="blue" d="M259.17,-207.58C273.09,-218.14 292.31,-232.11 310.19,-243 352.03,-268.48 402.44,-293.38 436.88,-309.57"/>
<text text-anchor="middle" x="350.19" y="-288.8" font-family="Times,serif" font-size="14.00">pub_in</text>
</g>
<!-- Gene(9)&#45;&gt;CelComp(5) -->
<g id="edge8" class="edge">
<title>Gene(9)&#45;&gt;CelComp(5)</title>
<path fill="none" stroke="blue" d="M268.14,-179.9C280.97,-174.6 296.29,-168.38 310.19,-163 351.39,-147.07 398.71,-129.9 432.45,-117.85"/>
<text text-anchor="middle" x="350.19" y="-166.8" font-family="Times,serif" font-size="14.00">located_in</text>
</g>
<!-- Gene(9)&#45;&gt;MolFunc(3) -->
<g id="edge7" class="edge">
<title>Gene(9)&#45;&gt;MolFunc(3)</title>
<path fill="none" stroke="black" d="M277.76,-189.57C315,-187.23 372.04,-183.63 415.62,-180.89"/>
<text text-anchor="middle" x="350.19" y="-190.8" font-family="Times,serif" font-size="14.00">has_function</text>
</g>
</g>
</svg>
