<svg width="1993px" height="1676px"
 viewBox="0.00 0.00 1494.90 1257.00" xmlns="http://www.w3.org/2000/svg" xmlns:xlink="http://www.w3.org/1999/xlink">
<g id="graph0" class="graph" transform=" rotate(0) translate(4 1253)">
<polygon fill="white" stroke="transparent" points="-4,4 -4,-1253 1490.9,-1253 1490.9,4 -4,4"/>
<!-- ProtDomain(14) -->
<g id="node1" class="node">
<title>ProtDomain(14)</title>
<polygon fill="none" stroke="darkgreen" points="663.13,-188.54 663.13,-203.46 619.41,-214 557.58,-214 513.86,-203.46 513.86,-188.54 557.58,-178 619.41,-178 663.13,-188.54"/>
<polygon fill="none" stroke="darkgreen" points="667.13,-185.39 667.13,-206.61 619.88,-218 557.1,-218 509.85,-206.61 509.85,-185.39 557.1,-174 619.88,-174 667.13,-185.39"/>
<text text-anchor="middle" x="588.49" y="-192.3" font-family="Times,serif" font-size="14.00">ProtDomain(14)</text>
</g>
<!-- CoExpStudy(25) -->
<g id="node2" class="node">
<title>CoExpStudy(25)</title>
<polygon fill="none" stroke="darkgreen" points="664.45,-1063.54 664.45,-1078.46 619.95,-1089 557.03,-1089 512.54,-1078.46 512.54,-1063.54 557.03,-1053 619.95,-1053 664.45,-1063.54"/>
<polygon fill="none" stroke="darkgreen" points="668.45,-1060.38 668.45,-1081.62 620.42,-1093 556.56,-1093 508.54,-1081.62 508.54,-1060.38 556.56,-1049 620.42,-1049 668.45,-1060.38"/>
<text text-anchor="middle" x="588.49" y="-1067.3" font-family="Times,serif" font-size="14.00">CoExpStudy(25)</text>
</g>
<!-- Phenotype(13) -->
<g id="node3" class="node">
<title>Phenotype(13)</title>
<polygon fill="none" stroke="darkgreen" points="1265.97,-304.54 1265.97,-319.46 1226.39,-330 1170.41,-330 1130.83,-319.46 1130.83,-304.54 1170.41,-294 1226.39,-294 1265.97,-304.54"/>
<polygon fill="none" stroke="darkgreen" points="1269.97,-301.47 1269.97,-322.53 1226.91,-334 1169.89,-334 1126.83,-322.53 1126.83,-301.47 1169.89,-290 1226.91,-290 1269.97,-301.47"/>
<text text-anchor="middle" x="1198.4" y="-308.3" font-family="Times,serif" font-size="14.00">Phenotype(13)</text>
</g>
<!-- Trait(21) -->
<g id="node4" class="node">
<title>Trait(21)</title>
<polygon fill="none" stroke="darkgreen" points="1462.71,-808.54 1462.71,-823.46 1435.8,-834 1397.74,-834 1370.83,-823.46 1370.83,-808.54 1397.74,-798 1435.8,-798 1462.71,-808.54"/>
<polygon fill="none" stroke="darkgreen" points="1466.72,-805.82 1466.72,-826.18 1436.56,-838 1396.98,-838 1366.81,-826.18 1366.81,-805.82 1396.98,-794 1436.56,-794 1466.72,-805.82"/>
<text text-anchor="middle" x="1416.77" y="-812.3" font-family="Times,serif" font-size="14.00">Trait(21)</text>
</g>
<!-- Publication(2) -->
<g id="node5" class="node">
<title>Publication(2)</title>
<polygon fill="none" stroke="darkgreen" points="1483.02,-161.54 1483.02,-176.46 1444.21,-187 1389.33,-187 1350.52,-176.46 1350.52,-161.54 1389.33,-151 1444.21,-151 1483.02,-161.54"/>
<polygon fill="none" stroke="darkgreen" points="1487.03,-158.49 1487.03,-179.51 1444.75,-191 1388.79,-191 1346.51,-179.51 1346.51,-158.49 1388.79,-147 1444.75,-147 1487.03,-158.49"/>
<text text-anchor="middle" x="1416.77" y="-165.3" font-family="Times,serif" font-size="14.00">Publication(2)</text>
</g>
<!-- SNPEffect(26) -->
<g id="node6" class="node">
<title>SNPEffect(26)</title>
<polygon fill="none" stroke="darkgreen" points="1266.87,-242.54 1266.87,-257.46 1226.76,-268 1170.04,-268 1129.94,-257.46 1129.94,-242.54 1170.04,-232 1226.76,-232 1266.87,-242.54"/>
<polygon fill="none" stroke="darkgreen" points="1270.88,-239.46 1270.88,-260.54 1227.28,-272 1169.52,-272 1125.92,-260.54 1125.92,-239.46 1169.52,-228 1227.28,-228 1270.88,-239.46"/>
<text text-anchor="middle" x="1198.4" y="-246.3" font-family="Times,serif" font-size="14.00">SNPEffect(26)</text>
</g>
<!-- MolFunc(3) -->
<g id="node7" class="node">
<title>MolFunc(3)</title>
<polygon fill="none" stroke="darkgreen" points="991.32,-325.54 991.32,-340.46 957.18,-351 908.89,-351 874.75,-340.46 874.75,-325.54 908.89,-315 957.18,-315 991.32,-325.54"/>
<polygon fill="none" stroke="darkgreen" points="995.31,-322.59 995.31,-343.41 957.78,-355 908.29,-355 870.75,-343.41 870.75,-322.59 908.29,-311 957.78,-311 995.31,-322.59"/>
<text text-anchor="middle" x="933.03" y="-329.3" font-family="Times,serif" font-size="14.00">MolFunc(3)</text>
</g>
<!-- CelComp(5) -->
<g id="node8" class="node">
<title>CelComp(5)</title>
<polygon fill="none" stroke="darkgreen" points="992.64,-454.54 992.64,-469.46 957.72,-480 908.34,-480 873.43,-469.46 873.43,-454.54 908.34,-444 957.72,-444 992.64,-454.54"/>
<polygon fill="none" stroke="darkgreen" points="996.63,-451.57 996.63,-472.43 958.31,-484 907.76,-484 869.44,-472.43 869.44,-451.57 907.76,-440 958.31,-440 996.63,-451.57"/>
<text text-anchor="middle" x="933.03" y="-458.3" font-family="Times,serif" font-size="14.00">CelComp(5)</text>
</g>
<!-- BioProc(4) -->
<g id="node9" class="node">
<title>BioProc(4)</title>
<polygon fill="none" stroke="darkgreen" points="987.36,-708.54 987.36,-723.46 955.54,-734 910.53,-734 878.71,-723.46 878.71,-708.54 910.53,-698 955.54,-698 987.36,-708.54"/>
<polygon fill="none" stroke="darkgreen" points="991.37,-705.66 991.37,-726.34 956.19,-738 909.88,-738 874.7,-726.34 874.7,-705.66 909.88,-694 956.19,-694 991.37,-705.66"/>
<text text-anchor="middle" x="933.03" y="-712.3" font-family="Times,serif" font-size="14.00">BioProc(4)</text>
</g>
<!-- Path(19) -->
<g id="node10" class="node">
<title>Path(19)</title>
<polygon fill="none" stroke="darkgreen" points="1242.56,-898.54 1242.56,-913.46 1216.69,-924 1180.11,-924 1154.25,-913.46 1154.25,-898.54 1180.11,-888 1216.69,-888 1242.56,-898.54"/>
<polygon fill="none" stroke="darkgreen" points="1246.54,-895.85 1246.54,-916.15 1217.47,-928 1179.33,-928 1150.26,-916.15 1150.26,-895.85 1179.33,-884 1217.47,-884 1246.54,-895.85"/>
<text text-anchor="middle" x="1198.4" y="-902.3" font-family="Times,serif" font-size="14.00">Path(19)</text>
</g>
<!-- Reaction(188) -->
<g id="node11" class="node">
<title>Reaction(188)</title>
<polygon fill="none" stroke="darkgreen" points="999.28,-907.54 999.28,-922.46 960.48,-933 905.59,-933 866.79,-922.46 866.79,-907.54 905.59,-897 960.48,-897 999.28,-907.54"/>
<polygon fill="none" stroke="darkgreen" points="1003.29,-904.49 1003.29,-925.51 961.01,-937 905.06,-937 862.78,-925.51 862.78,-904.49 905.06,-893 961.01,-893 1003.29,-904.49"/>
<text text-anchor="middle" x="933.03" y="-911.3" font-family="Times,serif" font-size="14.00">Reaction(188)</text>
</g>
<!-- Gene(8) -->
<g id="node12" class="node">
<title>Gene(8)</title>
<polygon fill="none" stroke="darkgreen" points="975.87,-789.54 975.87,-804.46 950.78,-815 915.29,-815 890.2,-804.46 890.2,-789.54 915.29,-779 950.78,-779 975.87,-789.54"/>
<polygon fill="none" stroke="darkgreen" points="979.86,-786.88 979.86,-807.12 951.58,-819 914.49,-819 886.21,-807.12 886.21,-786.88 914.49,-775 951.58,-775 979.86,-786.88"/>
<text text-anchor="middle" x="933.03" y="-793.3" font-family="Times,serif" font-size="14.00">Gene(8)</text>
</g>
<!-- PlantOntologyTerm(24) -->
<g id="node13" class="node">
<title>PlantOntologyTerm(24)</title>
<polygon fill="none" stroke="darkgreen" points="691.82,-1125.54 691.82,-1140.46 631.29,-1151 545.69,-1151 485.16,-1140.46 485.16,-1125.54 545.69,-1115 631.29,-1115 691.82,-1125.54"/>
<polygon fill="none" stroke="darkgreen" points="695.82,-1122.18 695.82,-1143.82 631.64,-1155 545.35,-1155 481.17,-1143.82 481.17,-1122.18 545.35,-1111 631.64,-1111 695.82,-1122.18"/>
<text text-anchor="middle" x="588.49" y="-1129.3" font-family="Times,serif" font-size="14.00">PlantOntologyTerm(24)</text>
</g>
<!-- EC(15) -->
<g id="node14" class="node">
<title>EC(15)</title>
<polygon fill="none" stroke="darkgreen" points="627.79,-417.54 627.79,-432.46 604.77,-443 572.21,-443 549.19,-432.46 549.19,-417.54 572.21,-407 604.77,-407 627.79,-417.54"/>
<polygon fill="none" stroke="darkgreen" points="631.78,-414.97 631.78,-435.03 605.64,-447 571.35,-447 545.2,-435.03 545.2,-414.97 571.35,-403 605.64,-403 631.78,-414.97"/>
<text text-anchor="middle" x="588.49" y="-421.3" font-family="Times,serif" font-size="14.00">EC(15)</text>
</g>
<!-- Gene(1) -->
<g id="node15" class="node">
<title>Gene(1)</title>
<ellipse fill="none" stroke="red" cx="43.65" cy="-703" rx="39.78" ry="39.78"/>
<ellipse fill="none" stroke="red" cx="43.65" cy="-703" rx="43.79" ry="43.79"/>
<text text-anchor="middle" x="43.65" y="-699.3" font-family="Times,serif" font-size="14.00">Gene(1)</text>
</g>
<!-- Gene(1)&#45;&gt;Trait(21) -->
<g id="edge15" class="edge">
<title>Gene(1)&#45;&gt;Trait(21)</title>
<path fill="none" stroke="black" d="M43.65,-746.82C43.65,-820.69 50.98,-973.07 105.29,-1087 143.13,-1166.37 149.76,-1234 237.69,-1234 237.69,-1234 237.69,-1234 1199.4,-1234 1379.38,-1234 1409.82,-924.59 1414.82,-838.18"/>
<text text-anchor="middle" x="779.41" y="-1237.8" font-family="Times,serif" font-size="14.00">cooc_wi</text>
</g>
<!-- Gene(1)&#45;&gt;Publication(2) -->
<g id="edge23" class="edge">
<title>Gene(1)&#45;&gt;Publication(2)</title>
<path fill="none" stroke="black" d="M46.96,-659.26C53.43,-543.72 73.4,-232.56 105.29,-135 131.41,-55.12 153.65,0 237.69,0 237.69,0 237.69,0 1199.4,0 1293.78,0 1371.6,-101.1 1402.02,-146.91"/>
<text text-anchor="middle" x="779.41" y="-3.8" font-family="Times,serif" font-size="14.00">occ_in</text>
</g>
<!-- Gene(1)&#45;&gt;Path(19) -->
<g id="edge24" class="edge">
<title>Gene(1)&#45;&gt;Path(19)</title>
<path fill="none" stroke="blue" d="M50.81,-746.19C65.75,-832.06 112.39,-1016 237.69,-1016 237.69,-1016 237.69,-1016 934.03,-1016 1027.44,-1016 1126.08,-956.36 1171.61,-924.91"/>
<text text-anchor="middle" x="588.49" y="-1019.8" font-family="Times,serif" font-size="14.00">part_of</text>
</g>
<!-- Gene(1)&#45;&gt;Reaction(188) -->
<g id="edge22" class="edge">
<title>Gene(1)&#45;&gt;Reaction(188)</title>
<path fill="none" stroke="blue" d="M74.58,-734.45C123.19,-783 224.7,-874.33 332.08,-910 518.41,-971.9 755.63,-945.35 867.76,-927.05"/>
<text text-anchor="middle" x="397.58" y="-941.8" font-family="Times,serif" font-size="14.00">inv_in</text>
</g>
<!-- Gene(1)&#45;&gt;Gene(8) -->
<g id="edge19" class="edge">
<title>Gene(1)&#45;&gt;Gene(8)</title>
<path fill="none" stroke="black" d="M82.7,-722.75C105.51,-733.8 135.42,-746.94 163.29,-755 399.35,-823.26 468.18,-803.94 713.91,-805 772.13,-805.25 786.75,-807.66 844.91,-805 858.26,-804.39 872.73,-803.25 885.97,-802.02"/>
<text text-anchor="middle" x="397.58" y="-854.8" font-family="Times,serif" font-size="14.00">genetic(&lt;=2)</text>
<text text-anchor="middle" x="397.58" y="-839.8" font-family="Times,serif" font-size="14.00">homoeolog(&lt;=2)</text>
<text text-anchor="middle" x="397.58" y="-824.8" font-family="Times,serif" font-size="14.00">physical(&lt;=2)</text>
<text text-anchor="middle" x="397.58" y="-809.8" font-family="Times,serif" font-size="14.00">regulates(&lt;=2)</text>
</g>
<!-- DGES(22) -->
<g id="node16" class="node">
<title>DGES(22)</title>
<polygon fill="none" stroke="darkgreen" points="985.15,-562.54 985.15,-577.46 954.62,-588 911.45,-588 880.92,-577.46 880.92,-562.54 911.45,-552 954.62,-552 985.15,-562.54"/>
<polygon fill="none" stroke="darkgreen" points="989.15,-559.69 989.15,-580.31 955.29,-592 910.78,-592 876.92,-580.31 876.92,-559.69 910.78,-548 955.29,-548 989.15,-559.69"/>
<text text-anchor="middle" x="933.03" y="-566.3" font-family="Times,serif" font-size="14.00">DGES(22)</text>
</g>
<!-- Gene(1)&#45;&gt;DGES(22) -->
<g id="edge16" class="edge">
<title>Gene(1)&#45;&gt;DGES(22)</title>
<path fill="none" stroke="blue" d="M81.67,-681.57C134.97,-652.06 237.33,-600.25 332.08,-580 434.97,-558.01 749.03,-564.5 876.95,-568.21"/>
<text text-anchor="middle" x="397.58" y="-583.8" font-family="Times,serif" font-size="14.00">differentially_expressed</text>
</g>
<!-- Protein(7) -->
<g id="node17" class="node">
<title>Protein(7)</title>
<polygon fill="none" stroke="darkgreen" points="638.39,-84.54 638.39,-99.46 609.16,-110 567.82,-110 538.59,-99.46 538.59,-84.54 567.82,-74 609.16,-74 638.39,-84.54"/>
<polygon fill="none" stroke="darkgreen" points="642.39,-81.73 642.39,-102.27 609.86,-114 567.13,-114 534.6,-102.27 534.6,-81.73 567.13,-70 609.86,-70 642.39,-81.73"/>
<text text-anchor="middle" x="588.49" y="-88.3" font-family="Times,serif" font-size="14.00">Protein(7)</text>
</g>
<!-- Gene(1)&#45;&gt;Protein(7) -->
<g id="edge17" class="edge">
<title>Gene(1)&#45;&gt;Protein(7)</title>
<path fill="none" stroke="black" d="M49.42,-659.45C64.89,-542.48 125.29,-221.97 332.08,-97 395.66,-58.58 485.38,-68.29 539.82,-79.6"/>
<text text-anchor="middle" x="238.69" y="-281.8" font-family="Times,serif" font-size="14.00">enc</text>
</g>
<!-- SNP(20) -->
<g id="node19" class="node">
<title>SNP(20)</title>
<ellipse fill="none" stroke="black" cx="933.03" cy="-224" rx="41.69" ry="18"/>
<text text-anchor="middle" x="933.03" y="-220.3" font-family="Times,serif" font-size="14.00">SNP(20)</text>
</g>
<!-- Gene(1)&#45;&gt;SNP(20) -->
<g id="edge21" class="edge">
<title>Gene(1)&#45;&gt;SNP(20)</title>
<path fill="none" stroke="black" d="M47.86,-659.13C57.7,-536.23 91.23,-192.14 163.29,-109 216.94,-47.11 251.91,-51.8 332.08,-35 411.41,-18.37 619.98,-32.62 695.91,-61 743.27,-78.7 863.99,-170.82 911.95,-208.21"/>
<text text-anchor="middle" x="397.58" y="-53.8" font-family="Times,serif" font-size="14.00">has_mutant</text>
<text text-anchor="middle" x="397.58" y="-38.8" font-family="Times,serif" font-size="14.00">has_variation</text>
</g>
<!-- CoExpCluster(23) -->
<g id="node24" class="node">
<title>CoExpCluster(23)</title>
<ellipse fill="none" stroke="black" cx="238.69" cy="-1112" rx="75.29" ry="18"/>
<text text-anchor="middle" x="238.69" y="-1108.3" font-family="Times,serif" font-size="14.00">CoExpCluster(23)</text>
</g>
<!-- Gene(1)&#45;&gt;CoExpCluster(23) -->
<g id="edge25" class="edge">
<title>Gene(1)&#45;&gt;CoExpCluster(23)</title>
<path fill="none" stroke="black" d="M48.34,-746.43C55.68,-824.44 74.13,-984.43 105.29,-1030 127.19,-1062.02 166.14,-1083.91 196.14,-1096.96"/>
<text text-anchor="middle" x="125.29" y="-1071.8" font-family="Times,serif" font-size="14.00">part_of</text>
</g>
<!-- Protein(10) -->
<g id="node25" class="node">
<title>Protein(10)</title>
<ellipse fill="none" stroke="black" cx="238.69" cy="-456" rx="50.89" ry="18"/>
<text text-anchor="middle" x="238.69" y="-452.3" font-family="Times,serif" font-size="14.00">Protein(10)</text>
</g>
<!-- Gene(1)&#45;&gt;Protein(10) -->
<g id="edge18" class="edge">
<title>Gene(1)&#45;&gt;Protein(10)</title>
<path fill="none" stroke="blue" d="M54.55,-660.69C63.71,-628.21 79.82,-583.56 105.29,-551 133.45,-515.02 178.77,-486.63 208.39,-470.57"/>
<text text-anchor="middle" x="125.29" y="-554.8" font-family="Times,serif" font-size="14.00">enc</text>
</g>
<!-- Gene(9) -->
<g id="node26" class="node">
<title>Gene(9)</title>
<ellipse fill="none" stroke="black" cx="588.49" cy="-626" rx="39.79" ry="18"/>
<text text-anchor="middle" x="588.49" y="-622.3" font-family="Times,serif" font-size="14.00">Gene(9)</text>
</g>
<!-- Gene(1)&#45;&gt;Gene(9) -->
<g id="edge20" class="edge">
<title>Gene(1)&#45;&gt;Gene(9)</title>
<path fill="none" stroke="blue" d="M87.28,-699.01C163.15,-691.64 326.43,-674.56 463.08,-652 493.56,-646.97 527.91,-639.66 552.78,-634.08"/>
<text text-anchor="middle" x="238.69" y="-739.8" font-family="Times,serif" font-size="14.00">genetic(&lt;=2)</text>
<text text-anchor="middle" x="238.69" y="-724.8" font-family="Times,serif" font-size="14.00">homoeolog(&lt;=2)</text>
<text text-anchor="middle" x="238.69" y="-709.8" font-family="Times,serif" font-size="14.00">physical(&lt;=2)</text>
<text text-anchor="middle" x="238.69" y="-694.8" font-family="Times,serif" font-size="14.00">regulates(&lt;=2)</text>
</g>
<!-- Enzyme(177) -->
<g id="node18" class="node">
<title>Enzyme(177)</title>
<polygon fill="none" stroke="darkgreen" points="652.53,-355.54 652.53,-370.46 615.02,-381 561.97,-381 524.46,-370.46 524.46,-355.54 561.97,-345 615.02,-345 652.53,-355.54"/>
<polygon fill="none" stroke="darkgreen" points="656.53,-352.51 656.53,-373.49 615.57,-385 561.42,-385 520.46,-373.49 520.46,-352.51 561.42,-341 615.57,-341 656.53,-352.51"/>
<text text-anchor="middle" x="588.49" y="-359.3" font-family="Times,serif" font-size="14.00">Enzyme(177)</text>
</g>
<!-- SNP(20)&#45;&gt;Phenotype(13) -->
<g id="edge1" class="edge">
<title>SNP(20)&#45;&gt;Phenotype(13)</title>
<path fill="none" stroke="black" d="M963.23,-236.49C980.03,-243.49 1001.63,-252.15 1021.16,-259 1061.57,-273.16 1107.96,-287.02 1143,-297.01"/>
<text text-anchor="middle" x="1064.66" y="-289.8" font-family="Times,serif" font-size="14.00">associated_with</text>
</g>
<!-- SNP(20)&#45;&gt;SNPEffect(26) -->
<g id="edge3" class="edge">
<title>SNP(20)&#45;&gt;SNPEffect(26)</title>
<path fill="none" stroke="black" d="M973.75,-227.92C1013.98,-231.89 1077.1,-238.12 1126.04,-242.95"/>
<text text-anchor="middle" x="1064.66" y="-243.8" font-family="Times,serif" font-size="14.00">leads_to</text>
</g>
<!-- Phenotype(133) -->
<g id="node20" class="node">
<title>Phenotype(133)</title>
<ellipse fill="none" stroke="black" cx="1198.4" cy="-192" rx="66.89" ry="18"/>
<text text-anchor="middle" x="1198.4" y="-188.3" font-family="Times,serif" font-size="14.00">Phenotype(133)</text>
</g>
<!-- SNP(20)&#45;&gt;Phenotype(133) -->
<g id="edge2" class="edge">
<title>SNP(20)&#45;&gt;Phenotype(133)</title>
<path fill="none" stroke="blue" d="M973.18,-219.24C1016.45,-213.99 1086.69,-205.45 1137.02,-199.34"/>
<text text-anchor="middle" x="1064.66" y="-215.8" font-family="Times,serif" font-size="14.00">associated_with</text>
</g>
<!-- Phenotype(133)&#45;&gt;Trait(21) -->
<g id="edge4" class="edge">
<title>Phenotype(133)&#45;&gt;Trait(21)</title>
<path fill="none" stroke="black" d="M1249.33,-203.73C1257.33,-207.49 1264.86,-212.46 1270.64,-219 1349.55,-308.34 1401.29,-696.72 1413.16,-793.9"/>
<text text-anchor="middle" x="1308.64" y="-337.8" font-family="Times,serif" font-size="14.00">part_of</text>
</g>
<!-- Phenotype(133)&#45;&gt;Publication(2) -->
<g id="edge5" class="edge">
<title>Phenotype(133)&#45;&gt;Publication(2)</title>
<path fill="none" stroke="blue" d="M1260.83,-185.47C1287.56,-182.63 1319.02,-179.28 1346.57,-176.36"/>
<text text-anchor="middle" x="1308.64" y="-184.8" font-family="Times,serif" font-size="14.00">pub_in</text>
</g>
<!-- ProtDomain(11) -->
<g id="node21" class="node">
<title>ProtDomain(11)</title>
<ellipse fill="none" stroke="black" cx="588.49" cy="-534" rx="68.79" ry="18"/>
<text text-anchor="middle" x="588.49" y="-530.3" font-family="Times,serif" font-size="14.00">ProtDomain(11)</text>
</g>
<!-- ProtDomain(11)&#45;&gt;MolFunc(3) -->
<g id="edge6" class="edge">
<title>ProtDomain(11)&#45;&gt;MolFunc(3)</title>
<path fill="none" stroke="black" d="M652.94,-527.41C669.12,-522.7 685,-514.88 695.91,-502 737.01,-453.44 668.86,-404.92 713.91,-360 724.9,-349.04 810.08,-341.1 870.67,-336.77"/>
<text text-anchor="middle" x="779.41" y="-363.8" font-family="Times,serif" font-size="14.00">has_function</text>
</g>
<!-- ProtDomain(11)&#45;&gt;CelComp(5) -->
<g id="edge7" class="edge">
<title>ProtDomain(11)&#45;&gt;CelComp(5)</title>
<path fill="none" stroke="blue" d="M649.16,-525.45C665.76,-520.72 682.8,-513.39 695.91,-502 710.32,-489.48 697.85,-473.33 713.91,-463 738.71,-447.05 814.07,-450.14 869.29,-455"/>
<text text-anchor="middle" x="779.41" y="-466.8" font-family="Times,serif" font-size="14.00">located_in</text>
</g>
<!-- ProtDomain(11)&#45;&gt;BioProc(4) -->
<g id="edge8" class="edge">
<title>ProtDomain(11)&#45;&gt;BioProc(4)</title>
<path fill="none" stroke="black" d="M634.4,-520.48C669.18,-510.04 711.81,-497.31 713.91,-497 771.52,-488.61 800.36,-459.51 844.91,-497 880.79,-527.21 846.54,-557.04 862.91,-601 875.83,-635.71 899.36,-671.67 915.35,-693.93"/>
<text text-anchor="middle" x="779.41" y="-500.8" font-family="Times,serif" font-size="14.00">participates_in</text>
</g>
<!-- Enzyme(17) -->
<g id="node22" class="node">
<title>Enzyme(17)</title>
<ellipse fill="none" stroke="black" cx="588.49" cy="-886" rx="54.69" ry="18"/>
<text text-anchor="middle" x="588.49" y="-882.3" font-family="Times,serif" font-size="14.00">Enzyme(17)</text>
</g>
<!-- Enzyme(17)&#45;&gt;Reaction(188) -->
<g id="edge10" class="edge">
<title>Enzyme(17)&#45;&gt;Reaction(188)</title>
<path fill="none" stroke="black" d="M641.52,-890.4C700.57,-895.4 797.16,-903.58 862.6,-909.12"/>
<text text-anchor="middle" x="779.41" y="-910.8" font-family="Times,serif" font-size="14.00">ca_by</text>
</g>
<!-- Reaction(18) -->
<g id="node23" class="node">
<title>Reaction(18)</title>
<ellipse fill="none" stroke="black" cx="933.03" cy="-857" rx="56.59" ry="18"/>
<text text-anchor="middle" x="933.03" y="-853.3" font-family="Times,serif" font-size="14.00">Reaction(18)</text>
</g>
<!-- Enzyme(17)&#45;&gt;Reaction(18) -->
<g id="edge9" class="edge">
<title>Enzyme(17)&#45;&gt;Reaction(18)</title>
<path fill="none" stroke="blue" d="M641.52,-881.6C705.43,-876.18 813.33,-867.05 878.1,-861.57"/>
<text text-anchor="middle" x="779.41" y="-877.8" font-family="Times,serif" font-size="14.00">ca_by</text>
</g>
<!-- Reaction(18)&#45;&gt;Path(19) -->
<g id="edge11" class="edge">
<title>Reaction(18)&#45;&gt;Path(19)</title>
<path fill="none" stroke="blue" d="M982.34,-865.99C1030.01,-874.86 1102.44,-888.33 1149.85,-897.15"/>
<text text-anchor="middle" x="1064.66" y="-891.8" font-family="Times,serif" font-size="14.00">part_of</text>
</g>
<!-- CoExpCluster(23)&#45;&gt;CoExpStudy(25) -->
<g id="edge14" class="edge">
<title>CoExpCluster(23)&#45;&gt;CoExpStudy(25)</title>
<path fill="none" stroke="black" d="M302.25,-1102.13C312.22,-1100.67 322.42,-1099.24 332.08,-1098 391.01,-1090.42 457.79,-1083.42 508.29,-1078.44"/>
<text text-anchor="middle" x="397.58" y="-1101.8" font-family="Times,serif" font-size="14.00">part_of</text>
</g>
<!-- CoExpCluster(23)&#45;&gt;BioProc(4) -->
<g id="edge13" class="edge">
<title>CoExpCluster(23)&#45;&gt;BioProc(4)</title>
<path fill="none" stroke="blue" d="M279.7,-1127.21C295.78,-1132.86 314.63,-1138.88 332.08,-1143 410.9,-1161.61 636.97,-1219.54 695.91,-1164 720.45,-1140.87 696.05,-889.61 713.91,-861 749.31,-804.27 793.26,-829.47 844.91,-787 854.4,-779.19 853.86,-774.33 862.91,-766 874.89,-754.96 889.34,-744.18 901.92,-735.47"/>
<text text-anchor="middle" x="588.49" y="-1190.8" font-family="Times,serif" font-size="14.00">enriched_for</text>
</g>
<!-- CoExpCluster(23)&#45;&gt;PlantOntologyTerm(24) -->
<g id="edge12" class="edge">
<title>CoExpCluster(23)&#45;&gt;PlantOntologyTerm(24)</title>
<path fill="none" stroke="black" d="M312.17,-1116.38C361.05,-1119.33 426.35,-1123.27 481.09,-1126.58"/>
<text text-anchor="middle" x="397.58" y="-1127.8" font-family="Times,serif" font-size="14.00">enriched_for</text>
</g>
<!-- Protein(10)&#45;&gt;ProtDomain(14) -->
<g id="edge34" class="edge">
<title>Protein(10)&#45;&gt;ProtDomain(14)</title>
<path fill="none" stroke="blue" d="M240.9,-437.89C244.95,-393.4 262.02,-278.44 332.08,-225 346.07,-214.33 439.8,-205.79 509.69,-200.82"/>
<text text-anchor="middle" x="397.58" y="-228.8" font-family="Times,serif" font-size="14.00">has_domain</text>
</g>
<!-- Protein(10)&#45;&gt;Trait(21) -->
<g id="edge28" class="edge">
<title>Protein(10)&#45;&gt;Trait(21)</title>
<path fill="none" stroke="blue" d="M247.77,-473.85C263.7,-510 298.94,-594.81 314.08,-670 320.37,-701.21 308.87,-934.2 332.08,-956 408.12,-1027.4 1173.18,-974.16 1270.64,-937 1324.59,-916.43 1372.95,-866.95 1397.91,-838.04"/>
<text text-anchor="middle" x="933.03" y="-986.8" font-family="Times,serif" font-size="14.00">cooc_wi</text>
</g>
<!-- Protein(10)&#45;&gt;Publication(2) -->
<g id="edge40" class="edge">
<title>Protein(10)&#45;&gt;Publication(2)</title>
<path fill="none" stroke="blue" d="M249.9,-437.99C265.86,-409.13 296.68,-350.31 314.08,-297 327,-257.39 302.88,-234.72 332.08,-205 373.81,-162.54 408.23,-200.15 463.08,-177 471.94,-173.26 471.97,-168.08 481.08,-165 606.52,-122.6 645.99,-146 778.41,-146 778.41,-146 778.41,-146 1199.4,-146 1249.27,-146 1305.23,-152.11 1347.75,-158.04"/>
<text text-anchor="middle" x="933.03" y="-149.8" font-family="Times,serif" font-size="14.00">pub_in</text>
</g>
<!-- Protein(10)&#45;&gt;MolFunc(3) -->
<g id="edge35" class="edge">
<title>Protein(10)&#45;&gt;MolFunc(3)</title>
<path fill="none" stroke="black" d="M247.13,-437.97C260.13,-408.59 289.7,-350.3 332.08,-317 387.47,-273.48 411.7,-275.18 481.08,-263 641.4,-234.84 689.06,-258.01 844.91,-305 858.29,-309.04 872.77,-313.61 886.01,-317.87"/>
<text text-anchor="middle" x="588.49" y="-266.8" font-family="Times,serif" font-size="14.00">has_function</text>
</g>
<!-- Protein(10)&#45;&gt;CelComp(5) -->
<g id="edge38" class="edge">
<title>Protein(10)&#45;&gt;CelComp(5)</title>
<path fill="none" stroke="blue" d="M286.61,-462.07C301.16,-463.68 317.26,-465.2 332.08,-466 390.22,-469.14 404.87,-467.25 463.08,-466 566.63,-463.78 595.64,-481.95 695.91,-456 704.57,-453.76 705.2,-449.05 713.91,-447 770.57,-433.62 786.9,-442.04 844.91,-447 853.93,-447.77 863.42,-448.98 872.69,-450.39"/>
<text text-anchor="middle" x="588.49" y="-473.8" font-family="Times,serif" font-size="14.00">located_in</text>
</g>
<!-- Protein(10)&#45;&gt;BioProc(4) -->
<g id="edge39" class="edge">
<title>Protein(10)&#45;&gt;BioProc(4)</title>
<path fill="none" stroke="black" d="M243.17,-474.03C251.52,-512.4 276.28,-602.66 332.08,-652 411.53,-722.25 740.68,-721.41 874.79,-717.99"/>
<text text-anchor="middle" x="588.49" y="-720.8" font-family="Times,serif" font-size="14.00">participates_in</text>
</g>
<!-- Protein(10)&#45;&gt;Gene(8) -->
<g id="edge29" class="edge">
<title>Protein(10)&#45;&gt;Gene(8)</title>
<path fill="none" stroke="black" d="M244.18,-474.07C254.25,-511.36 281.75,-597.86 332.08,-652 383.84,-707.68 409.83,-709.49 481.08,-736 621.95,-788.42 802.5,-796.62 885.95,-797.37"/>
<text text-anchor="middle" x="588.49" y="-787.8" font-family="Times,serif" font-size="14.00">enc</text>
</g>
<!-- Protein(10)&#45;&gt;EC(15) -->
<g id="edge26" class="edge">
<title>Protein(10)&#45;&gt;EC(15)</title>
<path fill="none" stroke="blue" d="M288.05,-451.69C356.36,-445.6 480.03,-434.58 545,-428.79"/>
<text text-anchor="middle" x="397.58" y="-450.8" font-family="Times,serif" font-size="14.00">cat_c</text>
</g>
<!-- Protein(10)&#45;&gt;Protein(7) -->
<g id="edge31" class="edge">
<title>Protein(10)&#45;&gt;Protein(7)</title>
<path fill="none" stroke="black" d="M241.94,-437.77C250.28,-373.59 281.51,-159.7 332.08,-117 347.19,-104.25 464.13,-97.16 534.43,-94.01"/>
<text text-anchor="middle" x="397.58" y="-165.8" font-family="Times,serif" font-size="14.00">equivalent(&lt;=4)</text>
<text text-anchor="middle" x="397.58" y="-150.8" font-family="Times,serif" font-size="14.00">h_s_s(&lt;=4)</text>
<text text-anchor="middle" x="397.58" y="-135.8" font-family="Times,serif" font-size="14.00">ortho(&lt;=4)</text>
<text text-anchor="middle" x="397.58" y="-120.8" font-family="Times,serif" font-size="14.00">xref(&lt;=8)</text>
</g>
<!-- Protein(10)&#45;&gt;Enzyme(177) -->
<g id="edge37" class="edge">
<title>Protein(10)&#45;&gt;Enzyme(177)</title>
<path fill="none" stroke="black" d="M269.52,-441.69C287.36,-433.57 310.65,-423.72 332.08,-417 394.79,-397.34 468.4,-382.62 520.45,-373.56"/>
<text text-anchor="middle" x="397.58" y="-420.8" font-family="Times,serif" font-size="14.00">is_a</text>
</g>
<!-- Protein(10)&#45;&gt;ProtDomain(11) -->
<g id="edge33" class="edge">
<title>Protein(10)&#45;&gt;ProtDomain(11)</title>
<path fill="none" stroke="black" d="M267.65,-470.82C285.59,-479.72 309.65,-490.53 332.08,-497 395.04,-515.16 469.42,-524.64 521.63,-529.44"/>
<text text-anchor="middle" x="397.58" y="-525.8" font-family="Times,serif" font-size="14.00">has_domain</text>
</g>
<!-- Protein(10)&#45;&gt;Enzyme(17) -->
<g id="edge36" class="edge">
<title>Protein(10)&#45;&gt;Enzyme(17)</title>
<path fill="none" stroke="blue" d="M247.19,-473.99C262.54,-511.65 297.49,-601.88 314.08,-681 322.83,-722.73 301.35,-842.45 332.08,-872 360.13,-898.97 469.47,-895.58 535.66,-890.75"/>
<text text-anchor="middle" x="397.58" y="-897.8" font-family="Times,serif" font-size="14.00">is_a</text>
</g>
<!-- Protein(10)&#45;&gt;Protein(10) -->
<g id="edge32" class="edge">
<title>Protein(10)&#45;&gt;Protein(10)</title>
<path fill="none" stroke="blue" d="M219,-472.66C214.62,-482.62 221.19,-492 238.69,-492 256.19,-492 262.75,-482.62 258.37,-472.66"/>
<text text-anchor="middle" x="238.69" y="-540.8" font-family="Times,serif" font-size="14.00">equivalent(&lt;=4)</text>
<text text-anchor="middle" x="238.69" y="-525.8" font-family="Times,serif" font-size="14.00">h_s_s(&lt;=4)</text>
<text text-anchor="middle" x="238.69" y="-510.8" font-family="Times,serif" font-size="14.00">ortho(&lt;=4)</text>
<text text-anchor="middle" x="238.69" y="-495.8" font-family="Times,serif" font-size="14.00">xref(&lt;=8)</text>
</g>
<!-- Protein(10)&#45;&gt;Gene(9) -->
<g id="edge30" class="edge">
<title>Protein(10)&#45;&gt;Gene(9)</title>
<path fill="none" stroke="blue" d="M245.58,-474.25C256.81,-505.74 284.49,-569.74 332.08,-599 400.07,-640.8 497.85,-637.35 550.53,-631.49"/>
<text text-anchor="middle" x="397.58" y="-636.8" font-family="Times,serif" font-size="14.00">enc</text>
</g>
<!-- EC(12) -->
<g id="node27" class="node">
<title>EC(12)</title>
<ellipse fill="none" stroke="black" cx="588.49" cy="-305" rx="36.29" ry="18"/>
<text text-anchor="middle" x="588.49" y="-301.3" font-family="Times,serif" font-size="14.00">EC(12)</text>
</g>
<!-- Protein(10)&#45;&gt;EC(12) -->
<g id="edge27" class="edge">
<title>Protein(10)&#45;&gt;EC(12)</title>
<path fill="none" stroke="black" d="M252.67,-438.57C268.93,-418.03 298.73,-384.36 332.08,-366 403.96,-326.42 501.03,-312.34 552.33,-307.47"/>
<text text-anchor="middle" x="397.58" y="-369.8" font-family="Times,serif" font-size="14.00">cat_c</text>
</g>
<!-- Gene(9)&#45;&gt;Trait(21) -->
<g id="edge42" class="edge">
<title>Gene(9)&#45;&gt;Trait(21)</title>
<path fill="none" stroke="blue" d="M626.85,-630.97C721.67,-643.63 966.78,-676.69 1003.16,-685 1143.84,-717.13 1305.59,-774.75 1377.68,-801.56"/>
<text text-anchor="middle" x="1064.66" y="-714.8" font-family="Times,serif" font-size="14.00">cooc_wi</text>
</g>
<!-- Gene(9)&#45;&gt;Publication(2) -->
<g id="edge50" class="edge">
<title>Gene(9)&#45;&gt;Publication(2)</title>
<path fill="none" stroke="blue" d="M626.53,-631.19C700.95,-640.05 872.66,-652.51 1003.16,-601 1172.33,-534.23 1214.15,-494.3 1328.64,-353 1370.03,-301.92 1397.27,-227.93 1409.07,-191.29"/>
<text text-anchor="middle" x="1064.66" y="-596.8" font-family="Times,serif" font-size="14.00">pub_in</text>
</g>
<!-- Gene(9)&#45;&gt;MolFunc(3) -->
<g id="edge46" class="edge">
<title>Gene(9)&#45;&gt;MolFunc(3)</title>
<path fill="none" stroke="blue" d="M620.95,-615.36C645.51,-605.33 678.33,-587.79 695.91,-561 727.66,-512.6 678.9,-478.1 713.91,-432 752.31,-381.43 787.19,-401.46 844.91,-375 861.55,-367.37 879.81,-358.63 895.3,-351.1"/>
<text text-anchor="middle" x="779.41" y="-435.8" font-family="Times,serif" font-size="14.00">has_function</text>
</g>
<!-- Gene(9)&#45;&gt;CelComp(5) -->
<g id="edge48" class="edge">
<title>Gene(9)&#45;&gt;CelComp(5)</title>
<path fill="none" stroke="blue" d="M614.31,-612.28C639.12,-598.84 678.55,-578.22 713.91,-563 770.72,-538.54 789.2,-542.89 844.91,-516 864.78,-506.41 885.84,-493.44 902.28,-482.61"/>
<text text-anchor="middle" x="779.41" y="-566.8" font-family="Times,serif" font-size="14.00">located_in</text>
</g>
<!-- Gene(9)&#45;&gt;BioProc(4) -->
<g id="edge49" class="edge">
<title>Gene(9)&#45;&gt;BioProc(4)</title>
<path fill="none" stroke="black" d="M619.56,-637.27C644.53,-646.29 681.15,-658.77 713.91,-667 771.24,-681.4 787.38,-676.41 844.91,-690 858.73,-693.27 873.61,-697.45 887.08,-701.5"/>
<text text-anchor="middle" x="779.41" y="-693.8" font-family="Times,serif" font-size="14.00">participates_in</text>
</g>
<!-- Gene(9)&#45;&gt;Gene(8) -->
<g id="edge44" class="edge">
<title>Gene(9)&#45;&gt;Gene(8)</title>
<path fill="none" stroke="blue" d="M609.18,-641.54C632.91,-659.69 674.51,-689.67 713.91,-709 769.04,-736.06 788.24,-729.32 844.91,-753 864.14,-761.04 885,-771.51 901.49,-780.22"/>
<text text-anchor="middle" x="779.41" y="-771.8" font-family="Times,serif" font-size="14.00">genetic(&lt;=8)</text>
<text text-anchor="middle" x="779.41" y="-756.8" font-family="Times,serif" font-size="14.00">physical(&lt;=8)</text>
</g>
<!-- Gene(9)&#45;&gt;DGES(22) -->
<g id="edge43" class="edge">
<title>Gene(9)&#45;&gt;DGES(22)</title>
<path fill="none" stroke="black" d="M624.81,-618.75C649.67,-613.75 683.76,-607.12 713.91,-602 769.19,-592.62 832.63,-583.49 876.79,-577.41"/>
<text text-anchor="middle" x="779.41" y="-605.8" font-family="Times,serif" font-size="14.00">differentially_expressed</text>
</g>
<!-- Gene(9)&#45;&gt;SNP(20) -->
<g id="edge47" class="edge">
<title>Gene(9)&#45;&gt;SNP(20)</title>
<path fill="none" stroke="black" d="M621.22,-615.79C646.12,-605.97 679.26,-588.5 695.91,-561 727.16,-509.37 676.35,-337.25 713.91,-290 756.38,-236.57 840.65,-225.18 891.11,-223.43"/>
<text text-anchor="middle" x="779.41" y="-293.8" font-family="Times,serif" font-size="14.00">has_variation</text>
</g>
<!-- Gene(9)&#45;&gt;Gene(9) -->
<g id="edge45" class="edge">
<title>Gene(9)&#45;&gt;Gene(9)</title>
<path fill="none" stroke="black" d="M559.21,-638.54C544.96,-649.87 554.72,-662 588.49,-662 622.26,-662 632.02,-649.87 617.78,-638.54"/>
<text text-anchor="middle" x="588.49" y="-680.8" font-family="Times,serif" font-size="14.00">genetic(&lt;=8)</text>
<text text-anchor="middle" x="588.49" y="-665.8" font-family="Times,serif" font-size="14.00">physical(&lt;=8)</text>
</g>
<!-- EC(12)&#45;&gt;MolFunc(3) -->
<g id="edge41" class="edge">
<title>EC(12)&#45;&gt;MolFunc(3)</title>
<path fill="none" stroke="blue" d="M625.12,-305.78C674.57,-307.12 766.75,-310.6 844.91,-319 853.44,-319.92 862.4,-321.1 871.21,-322.39"/>
<text text-anchor="middle" x="779.41" y="-322.8" font-family="Times,serif" font-size="14.00">equ</text>
</g>
</g>
</svg>
