<svg width="1286px" height="1107px"
 viewBox="0.00 0.00 964.40 830.00" xmlns="http://www.w3.org/2000/svg" xmlns:xlink="http://www.w3.org/1999/xlink">
<g id="graph0" class="graph" transform=" rotate(0) translate(4 826)">
<title>%3</title>
<polygon fill="white" stroke="transparent" points="-4,4 -4,-826 960.4,-826 960.4,4 -4,4"/>
<!-- Phenotype(13) -->
<g id="node1" class="node">
<title>Phenotype(13)</title>
<polygon fill="none" stroke="darkgreen" points="779.98,-221.54 779.98,-236.46 740.67,-247 685.07,-247 645.76,-236.46 645.76,-221.54 685.07,-211 740.67,-211 779.98,-221.54"/>
<polygon fill="none" stroke="darkgreen" points="783.96,-218.47 783.96,-239.53 741.19,-251 684.55,-251 641.77,-239.53 641.77,-218.47 684.55,-207 741.19,-207 783.96,-218.47"/>
<text text-anchor="middle" x="712.87" y="-224.8" font-family="Times,serif" font-size="14.00">Phenotype(13)</text>
</g>
<!-- Protein(7) -->
<g id="node2" class="node">
<title>Protein(7)</title>
<polygon fill="none" stroke="darkgreen" points="473.21,-792.54 473.21,-807.46 444.2,-818 403.18,-818 374.17,-807.46 374.17,-792.54 403.18,-782 444.2,-782 473.21,-792.54"/>
<polygon fill="none" stroke="darkgreen" points="477.19,-789.74 477.19,-810.26 444.9,-822 402.48,-822 370.19,-810.26 370.19,-789.74 402.48,-778 444.9,-778 477.19,-789.74"/>
<text text-anchor="middle" x="423.69" y="-795.8" font-family="Times,serif" font-size="14.00">Protein(7)</text>
</g>
<!-- TO(16) -->
<g id="node3" class="node">
<title>TO(16)</title>
<polygon fill="none" stroke="darkgreen" points="752.33,-14.54 752.33,-29.46 729.21,-40 696.53,-40 673.41,-29.46 673.41,-14.54 696.53,-4 729.21,-4 752.33,-14.54"/>
<polygon fill="none" stroke="darkgreen" points="756.33,-11.97 756.33,-32.03 730.08,-44 695.66,-44 669.41,-32.03 669.41,-11.97 695.66,0 730.08,0 756.33,-11.97"/>
<text text-anchor="middle" x="712.87" y="-17.8" font-family="Times,serif" font-size="14.00">TO(16)</text>
</g>
<!-- MolFunc(3) -->
<g id="node4" class="node">
<title>MolFunc(3)</title>
<polygon fill="none" stroke="darkgreen" points="770.26,-541.54 770.26,-556.46 736.64,-567 689.1,-567 655.48,-556.46 655.48,-541.54 689.1,-531 736.64,-531 770.26,-541.54"/>
<polygon fill="none" stroke="darkgreen" points="774.27,-538.61 774.27,-559.39 737.26,-571 688.48,-571 651.47,-559.39 651.47,-538.61 688.48,-527 737.26,-527 774.27,-538.61"/>
<text text-anchor="middle" x="712.87" y="-544.8" font-family="Times,serif" font-size="14.00">MolFunc(3)</text>
</g>
<!-- Gene(8) -->
<g id="node5" class="node">
<title>Gene(8)</title>
<polygon fill="none" stroke="darkgreen" points="754.98,-90.54 754.98,-105.46 730.31,-116 695.43,-116 670.76,-105.46 670.76,-90.54 695.43,-80 730.31,-80 754.98,-90.54"/>
<polygon fill="none" stroke="darkgreen" points="758.96,-87.9 758.96,-108.1 731.12,-120 694.61,-120 666.78,-108.1 666.78,-87.9 694.61,-76 731.12,-76 758.96,-87.9"/>
<text text-anchor="middle" x="712.87" y="-93.8" font-family="Times,serif" font-size="14.00">Gene(8)</text>
</g>
<!-- CelComp(5) -->
<g id="node6" class="node">
<title>CelComp(5)</title>
<polygon fill="none" stroke="darkgreen" points="771.47,-287.54 771.47,-302.46 737.14,-313 688.59,-313 654.27,-302.46 654.27,-287.54 688.59,-277 737.14,-277 771.47,-287.54"/>
<polygon fill="none" stroke="darkgreen" points="775.46,-284.59 775.46,-305.41 737.74,-317 688,-317 650.28,-305.41 650.28,-284.59 688,-273 737.74,-273 775.46,-284.59"/>
<text text-anchor="middle" x="712.87" y="-290.8" font-family="Times,serif" font-size="14.00">CelComp(5)</text>
</g>
<!-- BioProc(4) -->
<g id="node7" class="node">
<title>BioProc(4)</title>
<polygon fill="none" stroke="darkgreen" points="766.32,-159.54 766.32,-174.46 735.01,-185 690.73,-185 659.42,-174.46 659.42,-159.54 690.73,-149 735.01,-149 766.32,-159.54"/>
<polygon fill="none" stroke="darkgreen" points="770.32,-156.67 770.32,-177.33 735.67,-189 690.07,-189 655.42,-177.33 655.42,-156.67 690.07,-145 735.67,-145 770.32,-156.67"/>
<text text-anchor="middle" x="712.87" y="-162.8" font-family="Times,serif" font-size="14.00">BioProc(4)</text>
</g>
<!-- Publication(2) -->
<g id="node8" class="node">
<title>Publication(2)</title>
<polygon fill="none" stroke="darkgreen" points="778.77,-427.54 778.77,-442.46 740.16,-453 685.57,-453 646.97,-442.46 646.97,-427.54 685.57,-417 740.16,-417 778.77,-427.54"/>
<polygon fill="none" stroke="darkgreen" points="782.78,-424.49 782.78,-445.51 740.7,-457 685.04,-457 642.96,-445.51 642.96,-424.49 685.04,-413 740.7,-413 782.78,-424.49"/>
<text text-anchor="middle" x="712.87" y="-430.8" font-family="Times,serif" font-size="14.00">Publication(2)</text>
</g>
<!-- Reaction(188) -->
<g id="node9" class="node">
<title>Reaction(188)</title>
<polygon fill="none" stroke="darkgreen" points="778.75,-769.54 778.75,-784.46 740.16,-795 685.58,-795 646.99,-784.46 646.99,-769.54 685.58,-759 740.16,-759 778.75,-769.54"/>
<polygon fill="none" stroke="darkgreen" points="782.76,-766.49 782.76,-787.51 740.7,-799 685.04,-799 642.98,-787.51 642.98,-766.49 685.04,-755 740.7,-755 782.76,-766.49"/>
<text text-anchor="middle" x="712.87" y="-772.8" font-family="Times,serif" font-size="14.00">Reaction(188)</text>
</g>
<!-- ProtDomain(14) -->
<g id="node10" class="node">
<title>ProtDomain(14)</title>
<polygon fill="none" stroke="darkgreen" points="497.55,-569.54 497.55,-584.46 454.28,-595 393.1,-595 349.84,-584.46 349.84,-569.54 393.1,-559 454.28,-559 497.55,-569.54"/>
<polygon fill="none" stroke="darkgreen" points="501.55,-566.4 501.55,-587.6 454.76,-599 392.62,-599 345.83,-587.6 345.83,-566.4 392.62,-555 454.76,-555 501.55,-566.4"/>
<text text-anchor="middle" x="423.69" y="-572.8" font-family="Times,serif" font-size="14.00">ProtDomain(14)</text>
</g>
<!-- EC(15) -->
<g id="node11" class="node">
<title>EC(15)</title>
<polygon fill="none" stroke="darkgreen" points="462.92,-507.54 462.92,-522.46 439.94,-533 407.44,-533 384.46,-522.46 384.46,-507.54 407.44,-497 439.94,-497 462.92,-507.54"/>
<polygon fill="none" stroke="darkgreen" points="466.93,-504.98 466.93,-525.02 440.82,-537 406.56,-537 380.45,-525.02 380.45,-504.98 406.56,-493 440.82,-493 466.93,-504.98"/>
<text text-anchor="middle" x="423.69" y="-510.8" font-family="Times,serif" font-size="14.00">EC(15)</text>
</g>
<!-- Path(19) -->
<g id="node12" class="node">
<title>Path(19)</title>
<polygon fill="none" stroke="darkgreen" points="952.32,-711.54 952.32,-726.46 926.65,-737 890.35,-737 864.68,-726.46 864.68,-711.54 890.35,-701 926.65,-701 952.32,-711.54"/>
<polygon fill="none" stroke="darkgreen" points="956.31,-708.86 956.31,-729.14 927.44,-741 889.56,-741 860.69,-729.14 860.69,-708.86 889.56,-697 927.44,-697 956.31,-708.86"/>
<text text-anchor="middle" x="908.5" y="-714.8" font-family="Times,serif" font-size="14.00">Path(19)</text>
</g>
<!-- Enzyme(177) -->
<g id="node13" class="node">
<title>Enzyme(177)</title>
<polygon fill="none" stroke="darkgreen" points="486.76,-445.54 486.76,-460.46 449.81,-471 397.57,-471 360.62,-460.46 360.62,-445.54 397.57,-435 449.81,-435 486.76,-445.54"/>
<polygon fill="none" stroke="darkgreen" points="490.76,-442.53 490.76,-463.47 450.37,-475 397.01,-475 356.62,-463.47 356.62,-442.53 397.01,-431 450.37,-431 490.76,-442.53"/>
<text text-anchor="middle" x="423.69" y="-448.8" font-family="Times,serif" font-size="14.00">Enzyme(177)</text>
</g>
<!-- Gene(1) -->
<g id="node14" class="node">
<title>Gene(1)</title>
<ellipse fill="none" stroke="red" cx="43.08" cy="-453" rx="39.15" ry="39.15"/>
<ellipse fill="none" stroke="red" cx="43.08" cy="-453" rx="43.15" ry="43.15"/>
<text text-anchor="middle" x="43.08" y="-448.8" font-family="Times,serif" font-size="14.00">Gene(1)</text>
</g>
<!-- Gene(1)&#45;&gt;Protein(7) -->
<g id="edge32" class="edge">
<title>Gene(1)&#45;&gt;Protein(7)</title>
<path fill="none" stroke="black" d="M56.93,-494.06C82.39,-567.65 146.8,-720.6 260.35,-788 293.16,-807.47 336.51,-809.74 370.16,-807.54"/>
<text text-anchor="middle" x="191.97" y="-778.8" font-family="Times,serif" font-size="14.00">enc</text>
</g>
<!-- Gene(1)&#45;&gt;TO(16) -->
<g id="edge30" class="edge">
<title>Gene(1)&#45;&gt;TO(16)</title>
<path fill="none" stroke="black" d="M59.16,-412.82C87.99,-340.92 157.34,-189.34 260.35,-99 377.98,4.16 581.5,-5.77 669.41,-15.89"/>
<text text-anchor="middle" x="294.18" y="-101.8" font-family="Times,serif" font-size="14.00">cooc_wi</text>
</g>
<!-- Protein(10) -->
<g id="node20" class="node">
<title>Protein(10)</title>
<ellipse fill="none" stroke="black" cx="191.97" cy="-453" rx="50.27" ry="18"/>
<text text-anchor="middle" x="191.97" y="-448.8" font-family="Times,serif" font-size="14.00">Protein(10)</text>
</g>
<!-- Gene(1)&#45;&gt;Protein(10) -->
<g id="edge31" class="edge">
<title>Gene(1)&#45;&gt;Protein(10)</title>
<path fill="none" stroke="blue" d="M86.17,-453C103.38,-453 123.42,-453 141.33,-453"/>
<text text-anchor="middle" x="113.87" y="-455.8" font-family="Times,serif" font-size="14.00">enc</text>
</g>
<!-- Gene(9) -->
<g id="node15" class="node">
<title>Gene(9)</title>
<ellipse fill="none" stroke="black" cx="423.69" cy="-209" rx="39.15" ry="18"/>
<text text-anchor="middle" x="423.69" y="-204.8" font-family="Times,serif" font-size="14.00">Gene(9)</text>
</g>
<!-- Gene(9)&#45;&gt;Phenotype(13) -->
<g id="edge3" class="edge">
<title>Gene(9)&#45;&gt;Phenotype(13)</title>
<path fill="none" stroke="black" d="M462.53,-211.64C507.99,-214.8 585.2,-220.18 641.68,-224.11"/>
<text text-anchor="middle" x="571.47" y="-225.8" font-family="Times,serif" font-size="14.00">has_observ_pheno</text>
</g>
<!-- Gene(9)&#45;&gt;TO(16) -->
<g id="edge1" class="edge">
<title>Gene(9)&#45;&gt;TO(16)</title>
<path fill="none" stroke="black" d="M444.94,-193.83C461.45,-180.79 484.69,-160.83 501.37,-140 511.57,-127.26 507.31,-118.99 519.37,-108 562.92,-68.29 627.83,-44.52 670.01,-32.34"/>
<text text-anchor="middle" x="571.47" y="-110.8" font-family="Times,serif" font-size="14.00">cooc_wi</text>
</g>
<!-- Gene(9)&#45;&gt;MolFunc(3) -->
<g id="edge2" class="edge">
<title>Gene(9)&#45;&gt;MolFunc(3)</title>
<path fill="none" stroke="blue" d="M449.32,-222.71C466.88,-233.86 489.4,-251.29 501.37,-273 530.6,-326.01 479.44,-362.51 519.37,-408 551.01,-444.04 585.29,-407.11 623.57,-436 635.98,-445.37 632.52,-453.36 641.57,-466 657.08,-487.65 676.83,-510.63 691.44,-526.9"/>
<text text-anchor="middle" x="571.47" y="-438.8" font-family="Times,serif" font-size="14.00">has_function</text>
</g>
<!-- Gene(9)&#45;&gt;Gene(8) -->
<g id="edge5" class="edge">
<title>Gene(9)&#45;&gt;Gene(8)</title>
<path fill="none" stroke="black" d="M450.01,-195.61C468.85,-185.92 495.36,-172.84 519.37,-163 570.78,-141.93 631.79,-122.18 671.14,-110.11"/>
<text text-anchor="middle" x="571.47" y="-165.8" font-family="Times,serif" font-size="14.00">it_wi(&lt;=8)</text>
</g>
<!-- Gene(9)&#45;&gt;CelComp(5) -->
<g id="edge6" class="edge">
<title>Gene(9)&#45;&gt;CelComp(5)</title>
<path fill="none" stroke="blue" d="M455.19,-220.01C473.65,-226.5 497.73,-234.65 519.37,-241 565.17,-254.43 577.65,-254 623.57,-267 637.34,-270.9 652.21,-275.47 665.75,-279.78"/>
<text text-anchor="middle" x="571.47" y="-269.8" font-family="Times,serif" font-size="14.00">located_in</text>
</g>
<!-- Gene(9)&#45;&gt;BioProc(4) -->
<g id="edge7" class="edge">
<title>Gene(9)&#45;&gt;BioProc(4)</title>
<path fill="none" stroke="black" d="M461.06,-203.68C510.04,-196.52 597.68,-183.7 655.3,-175.27"/>
<text text-anchor="middle" x="571.47" y="-197.8" font-family="Times,serif" font-size="14.00">participates_in</text>
</g>
<!-- Gene(9)&#45;&gt;Publication(2) -->
<g id="edge8" class="edge">
<title>Gene(9)&#45;&gt;Publication(2)</title>
<path fill="none" stroke="blue" d="M448.58,-223.15C465.75,-234.52 488.13,-252.04 501.37,-273 518.53,-300.16 495.86,-321.11 519.37,-343 553.82,-375.08 580.89,-342.14 623.57,-362 649.9,-374.25 674.92,-396.27 691.55,-412.94"/>
<text text-anchor="middle" x="571.47" y="-364.8" font-family="Times,serif" font-size="14.00">pub_in</text>
</g>
<!-- Gene(9)&#45;&gt;Gene(9) -->
<g id="edge4" class="edge">
<title>Gene(9)&#45;&gt;Gene(9)</title>
<path fill="none" stroke="blue" d="M402.03,-224.17C395.47,-234.66 402.69,-245 423.69,-245 444.69,-245 451.91,-234.66 445.35,-224.17"/>
<text text-anchor="middle" x="423.69" y="-247.8" font-family="Times,serif" font-size="14.00">it_wi(&lt;=8)</text>
</g>
<!-- EC(12) -->
<g id="node16" class="node">
<title>EC(12)</title>
<ellipse fill="none" stroke="black" cx="423.69" cy="-635" rx="36.28" ry="18"/>
<text text-anchor="middle" x="423.69" y="-630.8" font-family="Times,serif" font-size="14.00">EC(12)</text>
</g>
<!-- EC(12)&#45;&gt;MolFunc(3) -->
<g id="edge9" class="edge">
<title>EC(12)&#45;&gt;MolFunc(3)</title>
<path fill="none" stroke="blue" d="M455.15,-625.88C505.03,-610.94 604.49,-581.16 663.9,-563.36"/>
<text text-anchor="middle" x="571.47" y="-607.8" font-family="Times,serif" font-size="14.00">equ</text>
</g>
<!-- Enzyme(17) -->
<g id="node17" class="node">
<title>Enzyme(17)</title>
<ellipse fill="none" stroke="black" cx="423.69" cy="-739" rx="53.63" ry="18"/>
<text text-anchor="middle" x="423.69" y="-734.8" font-family="Times,serif" font-size="14.00">Enzyme(17)</text>
</g>
<!-- Enzyme(17)&#45;&gt;Reaction(188) -->
<g id="edge11" class="edge">
<title>Enzyme(17)&#45;&gt;Reaction(188)</title>
<path fill="none" stroke="blue" d="M474.06,-745.53C520.65,-751.7 590.92,-761 643.01,-767.89"/>
<text text-anchor="middle" x="571.47" y="-767.8" font-family="Times,serif" font-size="14.00">ca_by</text>
</g>
<!-- Reaction(18) -->
<g id="node18" class="node">
<title>Reaction(18)</title>
<ellipse fill="none" stroke="black" cx="712.87" cy="-719" rx="56.04" ry="18"/>
<text text-anchor="middle" x="712.87" y="-714.8" font-family="Times,serif" font-size="14.00">Reaction(18)</text>
</g>
<!-- Enzyme(17)&#45;&gt;Reaction(18) -->
<g id="edge10" class="edge">
<title>Enzyme(17)&#45;&gt;Reaction(18)</title>
<path fill="none" stroke="black" d="M476.7,-735.38C527.93,-731.81 605.88,-726.38 657.81,-722.76"/>
<text text-anchor="middle" x="571.47" y="-734.8" font-family="Times,serif" font-size="14.00">ca_by</text>
</g>
<!-- Reaction(18)&#45;&gt;Path(19) -->
<g id="edge12" class="edge">
<title>Reaction(18)&#45;&gt;Path(19)</title>
<path fill="none" stroke="blue" d="M769.36,-719C798.19,-719 833.04,-719 860.52,-719"/>
<text text-anchor="middle" x="822.38" y="-721.8" font-family="Times,serif" font-size="14.00">part_of</text>
</g>
<!-- ProtDomain(11) -->
<g id="node19" class="node">
<title>ProtDomain(11)</title>
<ellipse fill="none" stroke="black" cx="423.69" cy="-345" rx="68" ry="18"/>
<text text-anchor="middle" x="423.69" y="-340.8" font-family="Times,serif" font-size="14.00">ProtDomain(11)</text>
</g>
<!-- ProtDomain(11)&#45;&gt;MolFunc(3) -->
<g id="edge13" class="edge">
<title>ProtDomain(11)&#45;&gt;MolFunc(3)</title>
<path fill="none" stroke="black" d="M473.41,-357.27C483.89,-361.93 494.01,-368.3 501.37,-377 524.08,-403.82 497.52,-426.47 519.37,-454 554.25,-497.93 614.65,-523.04 658.51,-536.28"/>
<text text-anchor="middle" x="571.47" y="-526.8" font-family="Times,serif" font-size="14.00">has_function</text>
</g>
<!-- ProtDomain(11)&#45;&gt;CelComp(5) -->
<g id="edge14" class="edge">
<title>ProtDomain(11)&#45;&gt;CelComp(5)</title>
<path fill="none" stroke="blue" d="M458.06,-360.63C475.84,-368.11 498.33,-376.23 519.37,-380 564.96,-388.16 580.62,-397.31 623.57,-380 654.75,-367.43 681.08,-338 696.67,-317.31"/>
<text text-anchor="middle" x="571.47" y="-392.8" font-family="Times,serif" font-size="14.00">located_in</text>
</g>
<!-- ProtDomain(11)&#45;&gt;BioProc(4) -->
<g id="edge15" class="edge">
<title>ProtDomain(11)&#45;&gt;BioProc(4)</title>
<path fill="none" stroke="black" d="M479.89,-334.9C531.73,-324.29 604.16,-306.22 623.57,-285 650.22,-255.87 616.75,-228.71 641.57,-198 647.61,-190.53 655.81,-184.81 664.48,-180.45"/>
<text text-anchor="middle" x="571.47" y="-328.8" font-family="Times,serif" font-size="14.00">participates_in</text>
</g>
<!-- Protein(10)&#45;&gt;Protein(7) -->
<g id="edge21" class="edge">
<title>Protein(10)&#45;&gt;Protein(7)</title>
<path fill="none" stroke="blue" d="M195.01,-471.36C201.61,-527.78 224.13,-697.17 260.35,-737 281.72,-760.5 298.33,-748.7 328.01,-760 347.35,-767.36 368.61,-776.27 386.07,-783.8"/>
<text text-anchor="middle" x="294.18" y="-776.8" font-family="Times,serif" font-size="14.00">h_s_s(&lt;=5)</text>
<text text-anchor="middle" x="294.18" y="-762.8" font-family="Times,serif" font-size="14.00">ortho(&lt;=5)</text>
</g>
<!-- Protein(10)&#45;&gt;MolFunc(3) -->
<g id="edge24" class="edge">
<title>Protein(10)&#45;&gt;MolFunc(3)</title>
<path fill="none" stroke="black" d="M195.88,-471.11C202.1,-504.46 219.58,-576.16 260.35,-620 289.23,-651.05 304.71,-652.42 346.01,-662 467.36,-690.15 514.44,-683.08 623.57,-623 648.8,-609.11 673.59,-587.43 690.44,-571.12"/>
<text text-anchor="middle" x="423.69" y="-680.8" font-family="Times,serif" font-size="14.00">has_function</text>
</g>
<!-- Protein(10)&#45;&gt;Gene(8) -->
<g id="edge18" class="edge">
<title>Protein(10)&#45;&gt;Gene(8)</title>
<path fill="none" stroke="black" d="M193.17,-434.91C194.52,-387.67 203.52,-258.32 260.35,-172 286.49,-132.31 302.57,-127.28 346.01,-108 459.61,-57.59 500.38,-57.56 623.57,-74 640.11,-76.21 657.93,-80.64 673.21,-85.1"/>
<text text-anchor="middle" x="423.69" y="-110.8" font-family="Times,serif" font-size="14.00">enc</text>
</g>
<!-- Protein(10)&#45;&gt;CelComp(5) -->
<g id="edge27" class="edge">
<title>Protein(10)&#45;&gt;CelComp(5)</title>
<path fill="none" stroke="blue" d="M200.28,-435.15C210.62,-411.78 231.53,-370.78 260.35,-345 291.81,-316.86 304.97,-313.85 346.01,-304 450.42,-278.94 576.42,-283.05 650,-288.73"/>
<text text-anchor="middle" x="423.69" y="-306.8" font-family="Times,serif" font-size="14.00">located_in</text>
</g>
<!-- Protein(10)&#45;&gt;BioProc(4) -->
<g id="edge28" class="edge">
<title>Protein(10)&#45;&gt;BioProc(4)</title>
<path fill="none" stroke="black" d="M194.17,-434.89C197.72,-393.73 211.23,-291.6 260.35,-225 287.5,-188.2 303.63,-185.17 346.01,-168 461.1,-121.38 501.16,-115.14 623.57,-136 640.39,-138.87 658.26,-144.6 673.5,-150.36"/>
<text text-anchor="middle" x="423.69" y="-170.8" font-family="Times,serif" font-size="14.00">participates_in</text>
</g>
<!-- Protein(10)&#45;&gt;Publication(2) -->
<g id="edge29" class="edge">
<title>Protein(10)&#45;&gt;Publication(2)</title>
<path fill="none" stroke="blue" d="M226.99,-439.94C257.6,-428.93 304.07,-414.04 346.01,-408 414.35,-398.16 447.62,-364.66 501.37,-408 530.76,-431.69 489.99,-467.31 519.37,-491 568.28,-530.44 643.92,-486.42 684.28,-457.03"/>
<text text-anchor="middle" x="423.69" y="-410.8" font-family="Times,serif" font-size="14.00">pub_in</text>
</g>
<!-- Protein(10)&#45;&gt;ProtDomain(14) -->
<g id="edge22" class="edge">
<title>Protein(10)&#45;&gt;ProtDomain(14)</title>
<path fill="none" stroke="black" d="M211.86,-469.78C224.91,-480.89 242.99,-495.31 260.35,-506 296.24,-528.09 340.21,-546.87 373.33,-559.56"/>
<text text-anchor="middle" x="294.18" y="-542.8" font-family="Times,serif" font-size="14.00">has_domain</text>
</g>
<!-- Protein(10)&#45;&gt;EC(15) -->
<g id="edge17" class="edge">
<title>Protein(10)&#45;&gt;EC(15)</title>
<path fill="none" stroke="blue" d="M232.72,-463.73C274.58,-475.03 340.15,-492.72 382.27,-504.09"/>
<text text-anchor="middle" x="294.18" y="-490.8" font-family="Times,serif" font-size="14.00">cat_c</text>
</g>
<!-- Protein(10)&#45;&gt;Enzyme(177) -->
<g id="edge25" class="edge">
<title>Protein(10)&#45;&gt;Enzyme(177)</title>
<path fill="none" stroke="blue" d="M242.53,-453C275.9,-453 320.28,-453 356.65,-453"/>
<text text-anchor="middle" x="294.18" y="-455.8" font-family="Times,serif" font-size="14.00">is_a</text>
</g>
<!-- Protein(10)&#45;&gt;Gene(9) -->
<g id="edge19" class="edge">
<title>Protein(10)&#45;&gt;Gene(9)</title>
<path fill="none" stroke="blue" d="M194.48,-434.96C198.49,-398.29 212.65,-314.49 260.35,-267 294.18,-233.32 348.87,-219.09 385.3,-213.15"/>
<text text-anchor="middle" x="294.18" y="-269.8" font-family="Times,serif" font-size="14.00">enc</text>
</g>
<!-- Protein(10)&#45;&gt;EC(12) -->
<g id="edge16" class="edge">
<title>Protein(10)&#45;&gt;EC(12)</title>
<path fill="none" stroke="black" d="M201.09,-470.78C212.04,-493.23 233.3,-532.07 260.35,-558 298.07,-594.16 355.93,-615.96 391.42,-626.72"/>
<text text-anchor="middle" x="294.18" y="-604.8" font-family="Times,serif" font-size="14.00">cat_c</text>
</g>
<!-- Protein(10)&#45;&gt;Enzyme(17) -->
<g id="edge26" class="edge">
<title>Protein(10)&#45;&gt;Enzyme(17)</title>
<path fill="none" stroke="black" d="M192.13,-471.28C191.1,-516.92 195.1,-636.71 260.35,-700 268.75,-708.15 331.16,-721.54 376.09,-730.31"/>
<text text-anchor="middle" x="294.18" y="-723.8" font-family="Times,serif" font-size="14.00">is_a</text>
</g>
<!-- Protein(10)&#45;&gt;ProtDomain(11) -->
<g id="edge23" class="edge">
<title>Protein(10)&#45;&gt;ProtDomain(11)</title>
<path fill="none" stroke="blue" d="M202.26,-435.37C213.36,-416.18 233.82,-386.22 260.35,-371 289.07,-354.52 325.1,-347.64 355.91,-345.04"/>
<text text-anchor="middle" x="294.18" y="-373.8" font-family="Times,serif" font-size="14.00">has_domain</text>
</g>
<!-- Protein(10)&#45;&gt;Protein(10) -->
<g id="edge20" class="edge">
<title>Protein(10)&#45;&gt;Protein(10)</title>
<path fill="none" stroke="black" d="M178.04,-470.41C175.44,-480.09 180.08,-489 191.97,-489 203.85,-489 208.49,-480.09 205.89,-470.41"/>
<text text-anchor="middle" x="191.97" y="-505.8" font-family="Times,serif" font-size="14.00">h_s_s(&lt;=5)</text>
<text text-anchor="middle" x="191.97" y="-491.8" font-family="Times,serif" font-size="14.00">ortho(&lt;=5)</text>
</g>
</g>
</svg>
