<svg width="986pt" height="838pt"
 viewBox="0.00 0.00 986.39 838.00" xmlns="http://www.w3.org/2000/svg" xmlns:xlink="http://www.w3.org/1999/xlink">
<g id="graph0" class="graph" transform="scale(1 1) rotate(0) translate(4 834)">
<title>%3</title>
<polygon fill="white" stroke="transparent" points="-4,4 -4,-834 982.39,-834 982.39,4 -4,4"/>
<!-- Reaction(133) -->
<g id="node1" class="node">
<title>Reaction(133)</title>
<polygon fill="none" stroke="darkgreen" points="802.34,-243.54 802.34,-258.46 763.75,-269 709.17,-269 670.58,-258.46 670.58,-243.54 709.17,-233 763.75,-233 802.34,-243.54"/>
<polygon fill="none" stroke="darkgreen" points="806.35,-240.49 806.35,-261.51 764.29,-273 708.63,-273 666.57,-261.51 666.57,-240.49 708.63,-229 764.29,-229 806.35,-240.49"/>
<text text-anchor="middle" x="736.46" y="-246.8" font-family="Times,serif" font-size="14.00">Reaction(133)</text>
</g>
<!-- Path(14) -->
<g id="node2" class="node">
<title>Path(14)</title>
<polygon fill="none" stroke="darkgreen" points="974.3,-185.54 974.3,-200.46 948.64,-211 912.34,-211 886.67,-200.46 886.67,-185.54 912.34,-175 948.64,-175 974.3,-185.54"/>
<polygon fill="none" stroke="darkgreen" points="978.3,-182.86 978.3,-203.14 949.42,-215 911.55,-215 882.68,-203.14 882.68,-182.86 911.55,-171 949.42,-171 978.3,-182.86"/>
<text text-anchor="middle" x="930.49" y="-188.8" font-family="Times,serif" font-size="14.00">Path(14)</text>
</g>
<!-- ProtDomain(17) -->
<g id="node3" class="node">
<title>ProtDomain(17)</title>
<polygon fill="none" stroke="darkgreen" points="593.51,-161.54 593.51,-176.46 550.25,-187 489.07,-187 445.8,-176.46 445.8,-161.54 489.07,-151 550.25,-151 593.51,-161.54"/>
<polygon fill="none" stroke="darkgreen" points="597.52,-158.4 597.52,-179.6 550.73,-191 488.58,-191 441.79,-179.6 441.79,-158.4 488.58,-147 550.73,-147 597.52,-158.4"/>
<text text-anchor="middle" x="519.66" y="-164.8" font-family="Times,serif" font-size="14.00">ProtDomain(17)</text>
</g>
<!-- Phenotype(6) -->
<g id="node4" class="node">
<title>Phenotype(6)</title>
<polygon fill="none" stroke="darkgreen" points="582.18,-668.54 582.18,-683.46 545.55,-694 493.76,-694 457.14,-683.46 457.14,-668.54 493.76,-658 545.55,-658 582.18,-668.54"/>
<polygon fill="none" stroke="darkgreen" points="586.18,-665.53 586.18,-686.47 546.12,-698 493.2,-698 453.13,-686.47 453.13,-665.53 493.2,-654 546.12,-654 586.18,-665.53"/>
<text text-anchor="middle" x="519.66" y="-671.8" font-family="Times,serif" font-size="14.00">Phenotype(6)</text>
</g>
<!-- MolFunc(3) -->
<g id="node5" class="node">
<title>MolFunc(3)</title>
<polygon fill="none" stroke="darkgreen" points="577.05,-277.54 577.05,-292.46 543.43,-303 495.88,-303 462.27,-292.46 462.27,-277.54 495.88,-267 543.43,-267 577.05,-277.54"/>
<polygon fill="none" stroke="darkgreen" points="581.06,-274.61 581.06,-295.39 544.05,-307 495.27,-307 458.25,-295.39 458.25,-274.61 495.27,-263 544.05,-263 581.06,-274.61"/>
<text text-anchor="middle" x="519.66" y="-280.8" font-family="Times,serif" font-size="14.00">MolFunc(3)</text>
</g>
<!-- Protein(7) -->
<g id="node6" class="node">
<title>Protein(7)</title>
<polygon fill="none" stroke="darkgreen" points="569.18,-14.54 569.18,-29.46 540.17,-40 499.14,-40 470.13,-29.46 470.13,-14.54 499.14,-4 540.17,-4 569.18,-14.54"/>
<polygon fill="none" stroke="darkgreen" points="573.16,-11.74 573.16,-32.26 540.87,-44 498.45,-44 466.15,-32.26 466.15,-11.74 498.45,0 540.87,0 573.16,-11.74"/>
<text text-anchor="middle" x="519.66" y="-17.8" font-family="Times,serif" font-size="14.00">Protein(7)</text>
</g>
<!-- CelComp(5) -->
<g id="node7" class="node">
<title>CelComp(5)</title>
<polygon fill="none" stroke="darkgreen" points="578.26,-582.54 578.26,-597.46 543.93,-608 495.38,-608 461.05,-597.46 461.05,-582.54 495.38,-572 543.93,-572 578.26,-582.54"/>
<polygon fill="none" stroke="darkgreen" points="582.25,-579.59 582.25,-600.41 544.53,-612 494.79,-612 457.07,-600.41 457.07,-579.59 494.79,-568 544.53,-568 582.25,-579.59"/>
<text text-anchor="middle" x="519.66" y="-585.8" font-family="Times,serif" font-size="14.00">CelComp(5)</text>
</g>
<!-- Trait(16) -->
<g id="node8" class="node">
<title>Trait(16)</title>
<polygon fill="none" stroke="darkgreen" points="564.96,-754.54 564.96,-769.46 538.42,-780 500.89,-780 474.36,-769.46 474.36,-754.54 500.89,-744 538.42,-744 564.96,-754.54"/>
<polygon fill="none" stroke="darkgreen" points="568.97,-751.83 568.97,-772.17 539.19,-784 500.12,-784 470.34,-772.17 470.34,-751.83 500.12,-740 539.19,-740 568.97,-751.83"/>
<text text-anchor="middle" x="519.66" y="-757.8" font-family="Times,serif" font-size="14.00">Trait(16)</text>
</g>
<!-- Publication(2) -->
<g id="node9" class="node">
<title>Publication(2)</title>
<polygon fill="none" stroke="darkgreen" points="585.55,-438.54 585.55,-453.46 546.95,-464 492.36,-464 453.76,-453.46 453.76,-438.54 492.36,-428 546.95,-428 585.55,-438.54"/>
<polygon fill="none" stroke="darkgreen" points="589.56,-435.49 589.56,-456.51 547.49,-468 491.82,-468 449.75,-456.51 449.75,-435.49 491.82,-424 547.49,-424 589.56,-435.49"/>
<text text-anchor="middle" x="519.66" y="-441.8" font-family="Times,serif" font-size="14.00">Publication(2)</text>
</g>
<!-- BioProc(4) -->
<g id="node10" class="node">
<title>BioProc(4)</title>
<polygon fill="none" stroke="darkgreen" points="573.11,-339.54 573.11,-354.46 541.8,-365 497.52,-365 466.2,-354.46 466.2,-339.54 497.52,-329 541.8,-329 573.11,-339.54"/>
<polygon fill="none" stroke="darkgreen" points="577.11,-336.67 577.11,-357.33 542.45,-369 496.86,-369 462.2,-357.33 462.2,-336.67 496.86,-325 542.45,-325 577.11,-336.67"/>
<text text-anchor="middle" x="519.66" y="-342.8" font-family="Times,serif" font-size="14.00">BioProc(4)</text>
</g>
<!-- Gene(1) -->
<g id="node11" class="node">
<title>Gene(1)</title>
<ellipse fill="none" stroke="red" cx="43.08" cy="-447" rx="39.15" ry="39.15"/>
<ellipse fill="none" stroke="red" cx="43.08" cy="-447" rx="43.15" ry="43.15"/>
<text text-anchor="middle" x="43.08" y="-442.8" font-family="Times,serif" font-size="14.00">Gene(1)</text>
</g>
<!-- Gene(1)&#45;&gt;Phenotype(6) -->
<g id="edge11" class="edge">
<title>Gene(1)&#45;&gt;Phenotype(6)</title>
<path fill="none" stroke="blue" d="M55.37,-488.41C64.92,-518.06 80.81,-557.75 104.15,-587 136.18,-627.14 152.64,-630.14 197.57,-655 287.66,-704.83 322.09,-718.75 423.98,-704 436.95,-702.12 450.63,-698.86 463.43,-695.22"/>
<polygon fill="blue" stroke="blue" points="464.43,-698.58 473.02,-692.38 462.44,-691.87 464.43,-698.58"/>
<text text-anchor="middle" x="249.67" y="-704.8" font-family="Times,serif" font-size="14.00">has_observ_pheno</text>
</g>
<!-- Gene(1)&#45;&gt;MolFunc(3) -->
<g id="edge20" class="edge">
<title>Gene(1)&#45;&gt;MolFunc(3)</title>
<path fill="none" stroke="black" d="M56.71,-405.98C66.23,-381.09 81.57,-350.3 104.15,-330 137.25,-300.26 153.95,-302.75 197.57,-294 282.43,-276.98 382.41,-277.29 447.98,-280.17"/>
<polygon fill="black" stroke="black" points="448.05,-283.68 458.21,-280.65 448.38,-276.69 448.05,-283.68"/>
<text text-anchor="middle" x="249.67" y="-296.8" font-family="Times,serif" font-size="14.00">has_function</text>
</g>
<!-- Gene(1)&#45;&gt;Protein(7) -->
<g id="edge16" class="edge">
<title>Gene(1)&#45;&gt;Protein(7)</title>
<path fill="none" stroke="black" d="M45.63,-403.53C49.38,-348.33 62,-251.88 104.15,-182 166.07,-79.36 205.11,-54.91 319.77,-20 363.84,-6.59 415.98,-7.69 455.81,-11.83"/>
<polygon fill="black" stroke="black" points="455.6,-15.33 465.92,-12.97 456.38,-8.37 455.6,-15.33"/>
<text text-anchor="middle" x="249.67" y="-74.8" font-family="Times,serif" font-size="14.00">enc</text>
</g>
<!-- Gene(1)&#45;&gt;CelComp(5) -->
<g id="edge15" class="edge">
<title>Gene(1)&#45;&gt;CelComp(5)</title>
<path fill="none" stroke="blue" d="M60.74,-486.59C70.87,-506.8 85.46,-530.53 104.15,-547 182.72,-616.24 217.3,-620.43 319.77,-642 365.09,-651.54 379.12,-653.51 423.98,-642 444.05,-636.85 464.44,-626.45 481.13,-616.3"/>
<polygon fill="blue" stroke="blue" points="483.4,-619.01 490,-610.72 479.67,-613.08 483.4,-619.01"/>
<text text-anchor="middle" x="249.67" y="-639.8" font-family="Times,serif" font-size="14.00">located_in</text>
</g>
<!-- Gene(1)&#45;&gt;Trait(16) -->
<g id="edge17" class="edge">
<title>Gene(1)&#45;&gt;Trait(16)</title>
<path fill="none" stroke="blue" d="M51.99,-489.21C60.56,-527.77 76.82,-585.27 104.15,-629 134.88,-678.15 145.41,-694.73 197.57,-720 282.1,-760.95 393.04,-766.34 459.93,-765.14"/>
<polygon fill="blue" stroke="blue" points="460.36,-768.63 470.27,-764.9 460.19,-761.64 460.36,-768.63"/>
<text text-anchor="middle" x="249.67" y="-754.8" font-family="Times,serif" font-size="14.00">cooc_wi</text>
</g>
<!-- Gene(1)&#45;&gt;Publication(2) -->
<g id="edge14" class="edge">
<title>Gene(1)&#45;&gt;Publication(2)</title>
<path fill="none" stroke="black" d="M86.19,-446.91C165.48,-446.74 338.03,-446.38 439.58,-446.17"/>
<polygon fill="black" stroke="black" points="439.79,-449.67 449.78,-446.15 439.77,-442.67 439.79,-449.67"/>
<text text-anchor="middle" x="249.67" y="-448.8" font-family="Times,serif" font-size="14.00">pub_in</text>
</g>
<!-- Gene(1)&#45;&gt;BioProc(4) -->
<g id="edge13" class="edge">
<title>Gene(1)&#45;&gt;BioProc(4)</title>
<path fill="none" stroke="blue" d="M85.44,-437.01C136.97,-424.02 227.32,-399.48 301.77,-370 310.09,-366.71 311.15,-363.36 319.77,-361 362.68,-349.27 412.63,-345.78 451.74,-345.23"/>
<polygon fill="blue" stroke="blue" points="451.98,-348.73 461.95,-345.14 451.92,-341.73 451.98,-348.73"/>
<text text-anchor="middle" x="249.67" y="-406.8" font-family="Times,serif" font-size="14.00">participates_in</text>
</g>
<!-- Gene(8) -->
<g id="node12" class="node">
<title>Gene(8)</title>
<polygon fill="none" stroke="darkgreen" points="291.79,-331.54 291.79,-346.46 267.12,-357 232.23,-357 207.56,-346.46 207.56,-331.54 232.23,-321 267.12,-321 291.79,-331.54"/>
<polygon fill="none" stroke="darkgreen" points="295.77,-328.9 295.77,-349.1 267.93,-361 231.42,-361 203.58,-349.1 203.58,-328.9 231.42,-317 267.93,-317 295.77,-328.9"/>
<text text-anchor="middle" x="249.67" y="-334.8" font-family="Times,serif" font-size="14.00">Gene(8)</text>
</g>
<!-- Gene(1)&#45;&gt;Gene(8) -->
<g id="edge10" class="edge">
<title>Gene(1)&#45;&gt;Gene(8)</title>
<path fill="none" stroke="black" d="M60.17,-407.32C69.99,-388.3 84.49,-367.09 104.15,-355 130.49,-338.81 164.7,-334.45 193.22,-334.3"/>
<polygon fill="black" stroke="black" points="193.41,-337.8 203.45,-334.42 193.49,-330.8 193.41,-337.8"/>
<text text-anchor="middle" x="141.86" y="-371.8" font-family="Times,serif" font-size="14.00">genetic</text>
<text text-anchor="middle" x="141.86" y="-357.8" font-family="Times,serif" font-size="14.00">physical</text>
</g>
<!-- Gene(9) -->
<g id="node16" class="node">
<title>Gene(9)</title>
<ellipse fill="none" stroke="black" cx="249.67" cy="-553" rx="39.15" ry="18"/>
<text text-anchor="middle" x="249.67" y="-548.8" font-family="Times,serif" font-size="14.00">Gene(9)</text>
</g>
<!-- Gene(1)&#45;&gt;Gene(9) -->
<g id="edge18" class="edge">
<title>Gene(1)&#45;&gt;Gene(9)</title>
<path fill="none" stroke="black" d="M81.6,-466.44C119.3,-485.97 176.94,-515.84 213.71,-534.88"/>
<polygon fill="black" stroke="black" points="212.54,-538.22 223.03,-539.72 215.77,-532.01 212.54,-538.22"/>
<text text-anchor="middle" x="141.86" y="-531.8" font-family="Times,serif" font-size="14.00">genetic</text>
<text text-anchor="middle" x="141.86" y="-517.8" font-family="Times,serif" font-size="14.00">physical</text>
</g>
<!-- SNP(15) -->
<g id="node17" class="node">
<title>SNP(15)</title>
<ellipse fill="none" stroke="black" cx="249.67" cy="-812" rx="41.13" ry="18"/>
<text text-anchor="middle" x="249.67" y="-807.8" font-family="Times,serif" font-size="14.00">SNP(15)</text>
</g>
<!-- Gene(1)&#45;&gt;SNP(15) -->
<g id="edge12" class="edge">
<title>Gene(1)&#45;&gt;SNP(15)</title>
<path fill="none" stroke="black" d="M46.27,-490.16C51.21,-569.76 65.91,-735.25 104.15,-776 128,-801.41 166.79,-810.04 198.18,-812.52"/>
<polygon fill="black" stroke="black" points="198.32,-816.04 208.51,-813.14 198.74,-809.05 198.32,-816.04"/>
<text text-anchor="middle" x="141.86" y="-812.8" font-family="Times,serif" font-size="14.00">has_variation</text>
</g>
<!-- Protein(10) -->
<g id="node18" class="node">
<title>Protein(10)</title>
<ellipse fill="none" stroke="black" cx="249.67" cy="-143" rx="50.27" ry="18"/>
<text text-anchor="middle" x="249.67" y="-138.8" font-family="Times,serif" font-size="14.00">Protein(10)</text>
</g>
<!-- Gene(1)&#45;&gt;Protein(10) -->
<g id="edge19" class="edge">
<title>Gene(1)&#45;&gt;Protein(10)</title>
<path fill="none" stroke="blue" d="M50.16,-404.17C57.58,-363.42 73.18,-301.83 104.15,-257 132.3,-216.26 179.31,-183.08 212.04,-163.23"/>
<polygon fill="blue" stroke="blue" points="214.06,-166.1 220.87,-157.99 210.49,-160.08 214.06,-166.1"/>
<text text-anchor="middle" x="141.86" y="-259.8" font-family="Times,serif" font-size="14.00">enc</text>
</g>
<!-- Enzyme(122) -->
<g id="node13" class="node">
<title>Enzyme(122)</title>
<polygon fill="none" stroke="darkgreen" points="582.72,-99.54 582.72,-114.46 545.78,-125 493.53,-125 456.59,-114.46 456.59,-99.54 493.53,-89 545.78,-89 582.72,-99.54"/>
<polygon fill="none" stroke="darkgreen" points="586.73,-96.53 586.73,-117.47 546.34,-129 492.97,-129 452.59,-117.47 452.59,-96.53 492.97,-85 546.34,-85 586.73,-96.53"/>
<text text-anchor="middle" x="519.66" y="-102.8" font-family="Times,serif" font-size="14.00">Enzyme(122)</text>
</g>
<!-- Enzyme(12) -->
<g id="node14" class="node">
<title>Enzyme(12)</title>
<ellipse fill="none" stroke="black" cx="519.66" cy="-227" rx="53.63" ry="18"/>
<text text-anchor="middle" x="519.66" y="-222.8" font-family="Times,serif" font-size="14.00">Enzyme(12)</text>
</g>
<!-- Enzyme(12)&#45;&gt;Reaction(133) -->
<g id="edge1" class="edge">
<title>Enzyme(12)&#45;&gt;Reaction(133)</title>
<path fill="none" stroke="blue" d="M571.02,-232.63C596.53,-235.48 628.09,-239 656.72,-242.2"/>
<polygon fill="blue" stroke="blue" points="656.39,-245.69 666.71,-243.32 657.16,-238.73 656.39,-245.69"/>
<text text-anchor="middle" x="632.05" y="-243.8" font-family="Times,serif" font-size="14.00">ca_by</text>
</g>
<!-- Reaction(13) -->
<g id="node15" class="node">
<title>Reaction(13)</title>
<ellipse fill="none" stroke="black" cx="736.46" cy="-193" rx="56.04" ry="18"/>
<text text-anchor="middle" x="736.46" y="-188.8" font-family="Times,serif" font-size="14.00">Reaction(13)</text>
</g>
<!-- Enzyme(12)&#45;&gt;Reaction(13) -->
<g id="edge2" class="edge">
<title>Enzyme(12)&#45;&gt;Reaction(13)</title>
<path fill="none" stroke="black" d="M568.6,-219.41C600.2,-214.41 641.82,-207.82 675.59,-202.48"/>
<polygon fill="black" stroke="black" points="676.47,-205.88 685.8,-200.86 675.38,-198.97 676.47,-205.88"/>
<text text-anchor="middle" x="632.05" y="-213.8" font-family="Times,serif" font-size="14.00">ca_by</text>
</g>
<!-- Reaction(13)&#45;&gt;Path(14) -->
<g id="edge3" class="edge">
<title>Reaction(13)&#45;&gt;Path(14)</title>
<path fill="none" stroke="blue" d="M792.74,-193C817.67,-193 847.1,-193 872.26,-193"/>
<polygon fill="blue" stroke="blue" points="872.39,-196.5 882.39,-193 872.39,-189.5 872.39,-196.5"/>
<text text-anchor="middle" x="844.37" y="-195.8" font-family="Times,serif" font-size="14.00">part_of</text>
</g>
<!-- Gene(9)&#45;&gt;Phenotype(6) -->
<g id="edge4" class="edge">
<title>Gene(9)&#45;&gt;Phenotype(6)</title>
<path fill="none" stroke="blue" d="M271.12,-568.33C284.5,-577.92 302.63,-590.11 319.77,-599 365.32,-622.62 419.84,-643.23 460.26,-657.17"/>
<polygon fill="blue" stroke="blue" points="459.37,-660.56 469.96,-660.48 461.63,-653.94 459.37,-660.56"/>
<text text-anchor="middle" x="371.88" y="-645.8" font-family="Times,serif" font-size="14.00">has_observ_pheno</text>
</g>
<!-- Gene(9)&#45;&gt;MolFunc(3) -->
<g id="edge9" class="edge">
<title>Gene(9)&#45;&gt;MolFunc(3)</title>
<path fill="none" stroke="black" d="M262.77,-535.96C274.39,-518.8 291.65,-491.2 301.77,-465 315.53,-429.38 295.56,-410.52 319.77,-381 351.77,-342 383,-365.43 423.98,-336 433.69,-329.02 432.18,-322.86 441.98,-316 448.43,-311.48 455.63,-307.48 462.97,-303.97"/>
<polygon fill="black" stroke="black" points="464.6,-307.08 472.3,-299.8 461.74,-300.69 464.6,-307.08"/>
<text text-anchor="middle" x="371.88" y="-383.8" font-family="Times,serif" font-size="14.00">has_function</text>
</g>
<!-- Gene(9)&#45;&gt;CelComp(5) -->
<g id="edge5" class="edge">
<title>Gene(9)&#45;&gt;CelComp(5)</title>
<path fill="none" stroke="black" d="M284.63,-561.1C295.78,-563.57 308.27,-566.12 319.77,-568 361.61,-574.84 408.75,-580.15 446.63,-583.85"/>
<polygon fill="black" stroke="black" points="446.77,-587.38 457.06,-584.85 447.44,-580.41 446.77,-587.38"/>
<text text-anchor="middle" x="371.88" y="-583.8" font-family="Times,serif" font-size="14.00">located_in</text>
</g>
<!-- Gene(9)&#45;&gt;Trait(16) -->
<g id="edge6" class="edge">
<title>Gene(9)&#45;&gt;Trait(16)</title>
<path fill="none" stroke="blue" d="M261.69,-570.48C280.7,-600.59 317.82,-659.23 319.77,-661 363.41,-700.51 425.35,-728.71 468.46,-745.1"/>
<polygon fill="blue" stroke="blue" points="467.32,-748.4 477.91,-748.61 469.76,-741.84 467.32,-748.4"/>
<text text-anchor="middle" x="371.88" y="-727.8" font-family="Times,serif" font-size="14.00">cooc_wi</text>
</g>
<!-- Gene(9)&#45;&gt;Publication(2) -->
<g id="edge7" class="edge">
<title>Gene(9)&#45;&gt;Publication(2)</title>
<path fill="none" stroke="black" d="M288.66,-550.82C332.21,-547.87 400.6,-541.69 423.98,-531 451.52,-518.4 476.72,-494.92 494.18,-475.82"/>
<polygon fill="black" stroke="black" points="496.92,-478.01 500.95,-468.22 491.69,-473.36 496.92,-478.01"/>
<text text-anchor="middle" x="371.88" y="-550.8" font-family="Times,serif" font-size="14.00">pub_in</text>
</g>
<!-- Gene(9)&#45;&gt;BioProc(4) -->
<g id="edge8" class="edge">
<title>Gene(9)&#45;&gt;BioProc(4)</title>
<path fill="none" stroke="blue" d="M263.37,-536.04C276.15,-519.9 297.18,-495.8 319.77,-480 361.12,-451.09 383,-464.43 423.98,-435 433.69,-428.02 433.49,-423.42 441.98,-415 455.8,-401.27 471.83,-386.85 485.65,-374.83"/>
<polygon fill="blue" stroke="blue" points="488.21,-377.24 493.5,-368.06 483.64,-371.94 488.21,-377.24"/>
<text text-anchor="middle" x="371.88" y="-482.8" font-family="Times,serif" font-size="14.00">participates_in</text>
</g>
<!-- SNP(15)&#45;&gt;Trait(16) -->
<g id="edge21" class="edge">
<title>SNP(15)&#45;&gt;Trait(16)</title>
<path fill="none" stroke="blue" d="M287.66,-805.1C332.3,-796.77 407.93,-782.66 460.43,-772.86"/>
<polygon fill="blue" stroke="blue" points="461.09,-776.3 470.28,-771.03 459.81,-769.42 461.09,-776.3"/>
<text text-anchor="middle" x="371.88" y="-800.8" font-family="Times,serif" font-size="14.00">associated_with</text>
</g>
<!-- Protein(10)&#45;&gt;ProtDomain(17) -->
<g id="edge25" class="edge">
<title>Protein(10)&#45;&gt;ProtDomain(17)</title>
<path fill="none" stroke="blue" d="M298.58,-147.65C335.46,-151.23 387.41,-156.27 431.58,-160.55"/>
<polygon fill="blue" stroke="blue" points="431.46,-164.06 441.75,-161.54 432.14,-157.09 431.46,-164.06"/>
<text text-anchor="middle" x="371.88" y="-162.8" font-family="Times,serif" font-size="14.00">has_domain</text>
</g>
<!-- Protein(10)&#45;&gt;MolFunc(3) -->
<g id="edge23" class="edge">
<title>Protein(10)&#45;&gt;MolFunc(3)</title>
<path fill="none" stroke="blue" d="M261.15,-160.66C273.08,-179.29 294.27,-208.22 319.77,-225 321.32,-226.02 402.52,-250.36 460.67,-267.72"/>
<polygon fill="blue" stroke="blue" points="459.93,-271.15 470.51,-270.66 461.93,-264.44 459.93,-271.15"/>
<text text-anchor="middle" x="371.88" y="-257.8" font-family="Times,serif" font-size="14.00">has_function</text>
</g>
<!-- Protein(10)&#45;&gt;Protein(7) -->
<g id="edge26" class="edge">
<title>Protein(10)&#45;&gt;Protein(7)</title>
<path fill="none" stroke="black" d="M257.82,-124.97C267.9,-102.12 288.63,-63.5 319.77,-45 360.55,-20.79 414.35,-15.85 455.72,-16.52"/>
<polygon fill="black" stroke="black" points="455.86,-20.02 465.95,-16.8 456.05,-13.03 455.86,-20.02"/>
<text text-anchor="middle" x="371.88" y="-103.8" font-family="Times,serif" font-size="14.00">h_s_s(&lt;=4)</text>
<text text-anchor="middle" x="371.88" y="-89.8" font-family="Times,serif" font-size="14.00">genetic(&lt;=6)</text>
<text text-anchor="middle" x="371.88" y="-75.8" font-family="Times,serif" font-size="14.00">ortho(&lt;=4)</text>
<text text-anchor="middle" x="371.88" y="-61.8" font-family="Times,serif" font-size="14.00">xref(&lt;=4)</text>
<text text-anchor="middle" x="371.88" y="-47.8" font-family="Times,serif" font-size="14.00">physical(&lt;=6)</text>
</g>
<!-- Protein(10)&#45;&gt;CelComp(5) -->
<g id="edge29" class="edge">
<title>Protein(10)&#45;&gt;CelComp(5)</title>
<path fill="none" stroke="blue" d="M260.37,-160.66C272.4,-183.53 292.46,-224.95 301.77,-263 314.02,-313.01 285.28,-455.77 319.77,-494 351.31,-528.95 381.22,-493.31 423.98,-513 448.84,-524.45 472.73,-543.96 490.29,-560.47"/>
<polygon fill="blue" stroke="blue" points="488.26,-563.39 497.89,-567.81 493.12,-558.35 488.26,-563.39"/>
<text text-anchor="middle" x="371.88" y="-515.8" font-family="Times,serif" font-size="14.00">located_in</text>
</g>
<!-- Protein(10)&#45;&gt;Publication(2) -->
<g id="edge30" class="edge">
<title>Protein(10)&#45;&gt;Publication(2)</title>
<path fill="none" stroke="black" d="M260.02,-160.75C271.69,-183.71 291.36,-225.24 301.77,-263 309.64,-291.54 299.71,-373.23 319.77,-395 351.91,-429.88 378.05,-406.16 423.98,-418 435.14,-420.88 446.98,-424.18 458.37,-427.48"/>
<polygon fill="black" stroke="black" points="457.65,-430.92 468.23,-430.37 459.62,-424.2 457.65,-430.92"/>
<text text-anchor="middle" x="371.88" y="-420.8" font-family="Times,serif" font-size="14.00">pub_in</text>
</g>
<!-- Protein(10)&#45;&gt;BioProc(4) -->
<g id="edge27" class="edge">
<title>Protein(10)&#45;&gt;BioProc(4)</title>
<path fill="none" stroke="blue" d="M255.74,-161.17C264.4,-189 284.59,-242.19 319.77,-273 341.41,-291.94 410.6,-315.3 461.31,-330.64"/>
<polygon fill="blue" stroke="blue" points="460.6,-334.08 471.19,-333.6 462.61,-327.38 460.6,-334.08"/>
<text text-anchor="middle" x="371.88" y="-320.8" font-family="Times,serif" font-size="14.00">participates_in</text>
</g>
<!-- Protein(10)&#45;&gt;Enzyme(122) -->
<g id="edge28" class="edge">
<title>Protein(10)&#45;&gt;Enzyme(122)</title>
<path fill="none" stroke="black" d="M295.99,-135.57C303.91,-134.33 312.08,-133.1 319.77,-132 360.08,-126.26 405.09,-120.54 442.08,-116.03"/>
<polygon fill="black" stroke="black" points="442.79,-119.47 452.29,-114.79 441.94,-112.52 442.79,-119.47"/>
<text text-anchor="middle" x="371.88" y="-134.8" font-family="Times,serif" font-size="14.00">is_a</text>
</g>
<!-- Protein(10)&#45;&gt;Enzyme(12) -->
<g id="edge22" class="edge">
<title>Protein(10)&#45;&gt;Enzyme(12)</title>
<path fill="none" stroke="black" d="M277.27,-158.26C289.86,-165.01 305.28,-172.62 319.77,-178 366.49,-195.33 421.65,-208.37 462.02,-216.62"/>
<polygon fill="black" stroke="black" points="461.45,-220.08 471.95,-218.62 462.83,-213.22 461.45,-220.08"/>
<text text-anchor="middle" x="371.88" y="-209.8" font-family="Times,serif" font-size="14.00">is_a</text>
</g>
<!-- Protein(10)&#45;&gt;Protein(10) -->
<g id="edge24" class="edge">
<title>Protein(10)&#45;&gt;Protein(10)</title>
<path fill="none" stroke="black" d="M230.89,-160.04C227.06,-169.86 233.32,-179 249.67,-179 259.9,-179 266.18,-175.43 268.51,-170.35"/>
<polygon fill="black" stroke="black" points="272.01,-170.02 268.46,-160.04 265.01,-170.06 272.01,-170.02"/>
<text text-anchor="middle" x="249.67" y="-237.8" font-family="Times,serif" font-size="14.00">xref(&lt;=4)</text>
<text text-anchor="middle" x="249.67" y="-223.8" font-family="Times,serif" font-size="14.00">ortho(&lt;=4)</text>
<text text-anchor="middle" x="249.67" y="-209.8" font-family="Times,serif" font-size="14.00">genetic(&lt;=6)</text>
<text text-anchor="middle" x="249.67" y="-195.8" font-family="Times,serif" font-size="14.00">physical(&lt;=6)</text>
<text text-anchor="middle" x="249.67" y="-181.8" font-family="Times,serif" font-size="14.00">h_s_s(&lt;=4)</text>
</g>
</g>
</svg>
