<svg width="986pt" height="838pt"
 viewBox="0.00 0.00 986.39 838.00" xmlns="http://www.w3.org/2000/svg" xmlns:xlink="http://www.w3.org/1999/xlink">
<g id="graph0" class="graph" transform="scale(1 1) rotate(0) translate(4 834)">
<title>%3</title>
<polygon fill="white" stroke="transparent" points="-4,4 -4,-834 982.39,-834 982.39,4 -4,4"/>
<!-- Trait(16) -->
<g id="node1" class="node">
<title>Trait(16)</title>
<polygon fill="none" stroke="darkgreen" points="564.96,-754.54 564.96,-769.46 538.42,-780 500.89,-780 474.36,-769.46 474.36,-754.54 500.89,-744 538.42,-744 564.96,-754.54"/>
<polygon fill="none" stroke="darkgreen" points="568.97,-751.83 568.97,-772.17 539.19,-784 500.12,-784 470.34,-772.17 470.34,-751.83 500.12,-740 539.19,-740 568.97,-751.83"/>
<text text-anchor="middle" x="519.66" y="-757.8" font-family="Times,serif" font-size="14.00">Trait(16)</text>
</g>
<!-- Reaction(133) -->
<g id="node2" class="node">
<title>Reaction(133)</title>
<polygon fill="none" stroke="darkgreen" points="802.34,-243.54 802.34,-258.46 763.75,-269 709.17,-269 670.58,-258.46 670.58,-243.54 709.17,-233 763.75,-233 802.34,-243.54"/>
<polygon fill="none" stroke="darkgreen" points="806.35,-240.49 806.35,-261.51 764.29,-273 708.63,-273 666.57,-261.51 666.57,-240.49 708.63,-229 764.29,-229 806.35,-240.49"/>
<text text-anchor="middle" x="736.46" y="-246.8" font-family="Times,serif" font-size="14.00">Reaction(133)</text>
</g>
<!-- Path(14) -->
<g id="node3" class="node">
<title>Path(14)</title>
<polygon fill="none" stroke="darkgreen" points="974.3,-185.54 974.3,-200.46 948.64,-211 912.34,-211 886.67,-200.46 886.67,-185.54 912.34,-175 948.64,-175 974.3,-185.54"/>
<polygon fill="none" stroke="darkgreen" points="978.3,-182.86 978.3,-203.14 949.42,-215 911.55,-215 882.68,-203.14 882.68,-182.86 911.55,-171 949.42,-171 978.3,-182.86"/>
<text text-anchor="middle" x="930.49" y="-188.8" font-family="Times,serif" font-size="14.00">Path(14)</text>
</g>
<!-- BioProc(4) -->
<g id="node4" class="node">
<title>BioProc(4)</title>
<polygon fill="none" stroke="darkgreen" points="573.11,-277.54 573.11,-292.46 541.8,-303 497.52,-303 466.2,-292.46 466.2,-277.54 497.52,-267 541.8,-267 573.11,-277.54"/>
<polygon fill="none" stroke="darkgreen" points="577.11,-274.67 577.11,-295.33 542.45,-307 496.86,-307 462.2,-295.33 462.2,-274.67 496.86,-263 542.45,-263 577.11,-274.67"/>
<text text-anchor="middle" x="519.66" y="-280.8" font-family="Times,serif" font-size="14.00">BioProc(4)</text>
</g>
<!-- ProtDomain(17) -->
<g id="node5" class="node">
<title>ProtDomain(17)</title>
<polygon fill="none" stroke="darkgreen" points="593.51,-161.54 593.51,-176.46 550.25,-187 489.07,-187 445.8,-176.46 445.8,-161.54 489.07,-151 550.25,-151 593.51,-161.54"/>
<polygon fill="none" stroke="darkgreen" points="597.52,-158.4 597.52,-179.6 550.73,-191 488.58,-191 441.79,-179.6 441.79,-158.4 488.58,-147 550.73,-147 597.52,-158.4"/>
<text text-anchor="middle" x="519.66" y="-164.8" font-family="Times,serif" font-size="14.00">ProtDomain(17)</text>
</g>
<!-- Enzyme(122) -->
<g id="node6" class="node">
<title>Enzyme(122)</title>
<polygon fill="none" stroke="darkgreen" points="582.72,-99.54 582.72,-114.46 545.78,-125 493.53,-125 456.59,-114.46 456.59,-99.54 493.53,-89 545.78,-89 582.72,-99.54"/>
<polygon fill="none" stroke="darkgreen" points="586.73,-96.53 586.73,-117.47 546.34,-129 492.97,-129 452.59,-117.47 452.59,-96.53 492.97,-85 546.34,-85 586.73,-96.53"/>
<text text-anchor="middle" x="519.66" y="-102.8" font-family="Times,serif" font-size="14.00">Enzyme(122)</text>
</g>
<!-- Publication(2) -->
<g id="node7" class="node">
<title>Publication(2)</title>
<polygon fill="none" stroke="darkgreen" points="585.55,-582.54 585.55,-597.46 546.95,-608 492.36,-608 453.76,-597.46 453.76,-582.54 492.36,-572 546.95,-572 585.55,-582.54"/>
<polygon fill="none" stroke="darkgreen" points="589.56,-579.49 589.56,-600.51 547.49,-612 491.82,-612 449.75,-600.51 449.75,-579.49 491.82,-568 547.49,-568 589.56,-579.49"/>
<text text-anchor="middle" x="519.66" y="-585.8" font-family="Times,serif" font-size="14.00">Publication(2)</text>
</g>
<!-- Phenotype(6) -->
<g id="node8" class="node">
<title>Phenotype(6)</title>
<polygon fill="none" stroke="darkgreen" points="582.18,-665.54 582.18,-680.46 545.55,-691 493.76,-691 457.14,-680.46 457.14,-665.54 493.76,-655 545.55,-655 582.18,-665.54"/>
<polygon fill="none" stroke="darkgreen" points="586.18,-662.53 586.18,-683.47 546.12,-695 493.2,-695 453.13,-683.47 453.13,-662.53 493.2,-651 546.12,-651 586.18,-662.53"/>
<text text-anchor="middle" x="519.66" y="-668.8" font-family="Times,serif" font-size="14.00">Phenotype(6)</text>
</g>
<!-- MolFunc(3) -->
<g id="node9" class="node">
<title>MolFunc(3)</title>
<polygon fill="none" stroke="darkgreen" points="577.05,-438.54 577.05,-453.46 543.43,-464 495.88,-464 462.27,-453.46 462.27,-438.54 495.88,-428 543.43,-428 577.05,-438.54"/>
<polygon fill="none" stroke="darkgreen" points="581.06,-435.61 581.06,-456.39 544.05,-468 495.27,-468 458.25,-456.39 458.25,-435.61 495.27,-424 544.05,-424 581.06,-435.61"/>
<text text-anchor="middle" x="519.66" y="-441.8" font-family="Times,serif" font-size="14.00">MolFunc(3)</text>
</g>
<!-- Protein(7) -->
<g id="node10" class="node">
<title>Protein(7)</title>
<polygon fill="none" stroke="darkgreen" points="569.18,-14.54 569.18,-29.46 540.17,-40 499.14,-40 470.13,-29.46 470.13,-14.54 499.14,-4 540.17,-4 569.18,-14.54"/>
<polygon fill="none" stroke="darkgreen" points="573.16,-11.74 573.16,-32.26 540.87,-44 498.45,-44 466.15,-32.26 466.15,-11.74 498.45,0 540.87,0 573.16,-11.74"/>
<text text-anchor="middle" x="519.66" y="-17.8" font-family="Times,serif" font-size="14.00">Protein(7)</text>
</g>
<!-- Gene(1) -->
<g id="node11" class="node">
<title>Gene(1)</title>
<ellipse fill="none" stroke="red" cx="43.08" cy="-459" rx="39.15" ry="39.15"/>
<ellipse fill="none" stroke="red" cx="43.08" cy="-459" rx="43.15" ry="43.15"/>
<text text-anchor="middle" x="43.08" y="-454.8" font-family="Times,serif" font-size="14.00">Gene(1)</text>
</g>
<!-- Gene(1)&#45;&gt;Trait(16) -->
<g id="edge11" class="edge">
<title>Gene(1)&#45;&gt;Trait(16)</title>
<path fill="none" stroke="black" d="M52.67,-501.01C61.52,-537.7 77.8,-591.3 104.15,-632 135.16,-679.88 146.04,-695.56 197.57,-720 282.44,-760.24 393.28,-765.85 460.05,-764.89"/>
<polygon fill="black" stroke="black" points="460.45,-768.38 470.38,-764.68 460.31,-761.38 460.45,-768.38"/>
<text text-anchor="middle" x="249.67" y="-754.8" font-family="Times,serif" font-size="14.00">cooc_wi</text>
</g>
<!-- Gene(1)&#45;&gt;BioProc(4) -->
<g id="edge12" class="edge">
<title>Gene(1)&#45;&gt;BioProc(4)</title>
<path fill="none" stroke="blue" d="M59.33,-418.83C69.23,-397.54 84.06,-372.46 104.15,-356 203.67,-274.47 362.57,-271.54 451.96,-277.63"/>
<polygon fill="blue" stroke="blue" points="451.75,-281.12 461.98,-278.37 452.26,-274.14 451.75,-281.12"/>
<text text-anchor="middle" x="249.67" y="-306.8" font-family="Times,serif" font-size="14.00">participates_in</text>
</g>
<!-- Gene(1)&#45;&gt;Publication(2) -->
<g id="edge7" class="edge">
<title>Gene(1)&#45;&gt;Publication(2)</title>
<path fill="none" stroke="black" d="M62.57,-497.8C72.76,-515.9 86.88,-536.57 104.15,-551 183.99,-617.68 217.83,-621.37 319.77,-642 365.17,-651.19 379.12,-653.51 423.98,-642 443.59,-636.97 463.51,-626.93 479.98,-617"/>
<polygon fill="black" stroke="black" points="482.12,-619.79 488.75,-611.53 478.42,-613.85 482.12,-619.79"/>
<text text-anchor="middle" x="249.67" y="-640.8" font-family="Times,serif" font-size="14.00">pub_in</text>
</g>
<!-- Gene(1)&#45;&gt;Phenotype(6) -->
<g id="edge15" class="edge">
<title>Gene(1)&#45;&gt;Phenotype(6)</title>
<path fill="none" stroke="black" d="M56.65,-500.21C66.48,-527.7 82.18,-563.53 104.15,-590 136.63,-629.12 152.83,-631.87 197.57,-656 288.1,-704.83 322.4,-720.21 423.98,-704 437.99,-701.76 452.76,-697.77 466.34,-693.39"/>
<polygon fill="black" stroke="black" points="467.64,-696.64 476,-690.14 465.41,-690.01 467.64,-696.64"/>
<text text-anchor="middle" x="249.67" y="-704.8" font-family="Times,serif" font-size="14.00">has_observ_pheno</text>
</g>
<!-- Gene(1)&#45;&gt;MolFunc(3) -->
<g id="edge9" class="edge">
<title>Gene(1)&#45;&gt;MolFunc(3)</title>
<path fill="none" stroke="black" d="M86.19,-457.85C167.78,-455.61 348.13,-450.67 448.24,-447.93"/>
<polygon fill="black" stroke="black" points="448.36,-451.43 458.26,-447.65 448.17,-444.43 448.36,-451.43"/>
<text text-anchor="middle" x="249.67" y="-456.8" font-family="Times,serif" font-size="14.00">has_function</text>
</g>
<!-- Gene(1)&#45;&gt;Protein(7) -->
<g id="edge8" class="edge">
<title>Gene(1)&#45;&gt;Protein(7)</title>
<path fill="none" stroke="blue" d="M45.63,-415.53C49.38,-360.33 62,-263.88 104.15,-194 167.76,-88.56 203.19,-59.65 319.77,-20 363.53,-5.12 415.9,-6.34 455.91,-10.9"/>
<polygon fill="blue" stroke="blue" points="455.71,-14.41 466.07,-12.16 456.57,-7.46 455.71,-14.41"/>
<text text-anchor="middle" x="249.67" y="-80.8" font-family="Times,serif" font-size="14.00">enc</text>
</g>
<!-- Gene(8) -->
<g id="node12" class="node">
<title>Gene(8)</title>
<polygon fill="none" stroke="darkgreen" points="291.79,-393.54 291.79,-408.46 267.12,-419 232.23,-419 207.56,-408.46 207.56,-393.54 232.23,-383 267.12,-383 291.79,-393.54"/>
<polygon fill="none" stroke="darkgreen" points="295.77,-390.9 295.77,-411.1 267.93,-423 231.42,-423 203.58,-411.1 203.58,-390.9 231.42,-379 267.93,-379 295.77,-390.9"/>
<text text-anchor="middle" x="249.67" y="-396.8" font-family="Times,serif" font-size="14.00">Gene(8)</text>
</g>
<!-- Gene(1)&#45;&gt;Gene(8) -->
<g id="edge6" class="edge">
<title>Gene(1)&#45;&gt;Gene(8)</title>
<path fill="none" stroke="blue" d="M76.71,-431.83C85.19,-426.04 94.63,-420.59 104.15,-417 132.33,-406.39 165.62,-402.19 193.14,-400.74"/>
<polygon fill="blue" stroke="blue" points="193.54,-404.22 203.39,-400.3 193.25,-397.23 193.54,-404.22"/>
<text text-anchor="middle" x="141.86" y="-433.8" font-family="Times,serif" font-size="14.00">genetic</text>
<text text-anchor="middle" x="141.86" y="-419.8" font-family="Times,serif" font-size="14.00">physical</text>
</g>
<!-- CelComp(5) -->
<g id="node13" class="node">
<title>CelComp(5)</title>
<polygon fill="none" stroke="darkgreen" points="578.26,-339.54 578.26,-354.46 543.93,-365 495.38,-365 461.05,-354.46 461.05,-339.54 495.38,-329 543.93,-329 578.26,-339.54"/>
<polygon fill="none" stroke="darkgreen" points="582.25,-336.59 582.25,-357.41 544.53,-369 494.79,-369 457.07,-357.41 457.07,-336.59 494.79,-325 544.53,-325 582.25,-336.59"/>
<text text-anchor="middle" x="519.66" y="-342.8" font-family="Times,serif" font-size="14.00">CelComp(5)</text>
</g>
<!-- Gene(1)&#45;&gt;CelComp(5) -->
<g id="edge14" class="edge">
<title>Gene(1)&#45;&gt;CelComp(5)</title>
<path fill="none" stroke="blue" d="M71.3,-426.24C80.94,-415.98 92.34,-405.21 104.15,-397 141.39,-371.12 153.33,-365.93 197.57,-356 281.5,-337.16 380.86,-337.76 446.58,-341.21"/>
<polygon fill="blue" stroke="blue" points="446.65,-344.72 456.83,-341.78 447.05,-337.73 446.65,-344.72"/>
<text text-anchor="middle" x="249.67" y="-358.8" font-family="Times,serif" font-size="14.00">located_in</text>
</g>
<!-- SNP(15) -->
<g id="node14" class="node">
<title>SNP(15)</title>
<ellipse fill="none" stroke="black" cx="249.67" cy="-812" rx="41.13" ry="18"/>
<text text-anchor="middle" x="249.67" y="-807.8" font-family="Times,serif" font-size="14.00">SNP(15)</text>
</g>
<!-- Gene(1)&#45;&gt;SNP(15) -->
<g id="edge5" class="edge">
<title>Gene(1)&#45;&gt;SNP(15)</title>
<path fill="none" stroke="black" d="M46.6,-502.11C52.02,-579.38 67.37,-737.06 104.15,-776 128.08,-801.33 166.87,-809.97 198.24,-812.47"/>
<polygon fill="black" stroke="black" points="198.37,-815.98 208.56,-813.1 198.79,-809 198.37,-815.98"/>
<text text-anchor="middle" x="141.86" y="-812.8" font-family="Times,serif" font-size="14.00">has_variation</text>
</g>
<!-- Gene(9) -->
<g id="node17" class="node">
<title>Gene(9)</title>
<ellipse fill="none" stroke="black" cx="249.67" cy="-553" rx="39.15" ry="18"/>
<text text-anchor="middle" x="249.67" y="-548.8" font-family="Times,serif" font-size="14.00">Gene(9)</text>
</g>
<!-- Gene(1)&#45;&gt;Gene(9) -->
<g id="edge10" class="edge">
<title>Gene(1)&#45;&gt;Gene(9)</title>
<path fill="none" stroke="blue" d="M82.56,-476.68C119.75,-493.77 175.68,-519.46 212.18,-536.23"/>
<polygon fill="blue" stroke="blue" points="210.93,-539.51 221.48,-540.5 213.85,-533.15 210.93,-539.51"/>
<text text-anchor="middle" x="141.86" y="-535.8" font-family="Times,serif" font-size="14.00">physical</text>
<text text-anchor="middle" x="141.86" y="-521.8" font-family="Times,serif" font-size="14.00">genetic</text>
</g>
<!-- Protein(10) -->
<g id="node18" class="node">
<title>Protein(10)</title>
<ellipse fill="none" stroke="black" cx="249.67" cy="-155" rx="50.27" ry="18"/>
<text text-anchor="middle" x="249.67" y="-150.8" font-family="Times,serif" font-size="14.00">Protein(10)</text>
</g>
<!-- Gene(1)&#45;&gt;Protein(10) -->
<g id="edge13" class="edge">
<title>Gene(1)&#45;&gt;Protein(10)</title>
<path fill="none" stroke="black" d="M50.16,-416.17C57.58,-375.42 73.18,-313.83 104.15,-269 132.3,-228.26 179.31,-195.08 212.04,-175.23"/>
<polygon fill="black" stroke="black" points="214.06,-178.1 220.87,-169.99 210.49,-172.08 214.06,-178.1"/>
<text text-anchor="middle" x="141.86" y="-271.8" font-family="Times,serif" font-size="14.00">enc</text>
</g>
<!-- SNP(15)&#45;&gt;Trait(16) -->
<g id="edge1" class="edge">
<title>SNP(15)&#45;&gt;Trait(16)</title>
<path fill="none" stroke="blue" d="M287.66,-805.1C332.3,-796.77 407.93,-782.66 460.43,-772.86"/>
<polygon fill="blue" stroke="blue" points="461.09,-776.3 470.28,-771.03 459.81,-769.42 461.09,-776.3"/>
<text text-anchor="middle" x="371.88" y="-800.8" font-family="Times,serif" font-size="14.00">associated_with</text>
</g>
<!-- Enzyme(12) -->
<g id="node15" class="node">
<title>Enzyme(12)</title>
<ellipse fill="none" stroke="black" cx="519.66" cy="-227" rx="53.63" ry="18"/>
<text text-anchor="middle" x="519.66" y="-222.8" font-family="Times,serif" font-size="14.00">Enzyme(12)</text>
</g>
<!-- Enzyme(12)&#45;&gt;Reaction(133) -->
<g id="edge2" class="edge">
<title>Enzyme(12)&#45;&gt;Reaction(133)</title>
<path fill="none" stroke="black" d="M571.02,-232.63C596.53,-235.48 628.09,-239 656.72,-242.2"/>
<polygon fill="black" stroke="black" points="656.39,-245.69 666.71,-243.32 657.16,-238.73 656.39,-245.69"/>
<text text-anchor="middle" x="632.05" y="-244.8" font-family="Times,serif" font-size="14.00">ca_by</text>
</g>
<!-- Reaction(13) -->
<g id="node16" class="node">
<title>Reaction(13)</title>
<ellipse fill="none" stroke="black" cx="736.46" cy="-193" rx="56.04" ry="18"/>
<text text-anchor="middle" x="736.46" y="-188.8" font-family="Times,serif" font-size="14.00">Reaction(13)</text>
</g>
<!-- Enzyme(12)&#45;&gt;Reaction(13) -->
<g id="edge3" class="edge">
<title>Enzyme(12)&#45;&gt;Reaction(13)</title>
<path fill="none" stroke="blue" d="M568.6,-219.41C600.2,-214.41 641.82,-207.82 675.59,-202.48"/>
<polygon fill="blue" stroke="blue" points="676.47,-205.88 685.8,-200.86 675.38,-198.97 676.47,-205.88"/>
<text text-anchor="middle" x="632.05" y="-214.8" font-family="Times,serif" font-size="14.00">ca_by</text>
</g>
<!-- Reaction(13)&#45;&gt;Path(14) -->
<g id="edge4" class="edge">
<title>Reaction(13)&#45;&gt;Path(14)</title>
<path fill="none" stroke="black" d="M792.74,-193C817.67,-193 847.1,-193 872.26,-193"/>
<polygon fill="black" stroke="black" points="872.39,-196.5 882.39,-193 872.39,-189.5 872.39,-196.5"/>
<text text-anchor="middle" x="844.37" y="-195.8" font-family="Times,serif" font-size="14.00">part_of</text>
</g>
<!-- Gene(9)&#45;&gt;Trait(16) -->
<g id="edge18" class="edge">
<title>Gene(9)&#45;&gt;Trait(16)</title>
<path fill="none" stroke="black" d="M261.61,-570.27C280.1,-599.4 315.93,-655.52 319.77,-659 363.87,-698.9 426.26,-727.89 469.35,-744.76"/>
<polygon fill="black" stroke="black" points="468.18,-748.06 478.77,-748.38 470.69,-741.53 468.18,-748.06"/>
<text text-anchor="middle" x="371.88" y="-726.8" font-family="Times,serif" font-size="14.00">cooc_wi</text>
</g>
<!-- Gene(9)&#45;&gt;BioProc(4) -->
<g id="edge19" class="edge">
<title>Gene(9)&#45;&gt;BioProc(4)</title>
<path fill="none" stroke="blue" d="M264.82,-536.35C276.53,-521.67 292.68,-499.22 301.77,-477 318.22,-436.83 293.08,-415.23 319.77,-381 351.13,-340.79 381.73,-361.55 423.98,-333 433.09,-326.84 432.71,-321.94 441.98,-316 449.1,-311.43 457.01,-307.32 464.96,-303.7"/>
<polygon fill="blue" stroke="blue" points="466.48,-306.86 474.27,-299.68 463.7,-300.43 466.48,-306.86"/>
<text text-anchor="middle" x="371.88" y="-383.8" font-family="Times,serif" font-size="14.00">participates_in</text>
</g>
<!-- Gene(9)&#45;&gt;Publication(2) -->
<g id="edge20" class="edge">
<title>Gene(9)&#45;&gt;Publication(2)</title>
<path fill="none" stroke="black" d="M284.63,-561.1C295.78,-563.57 308.27,-566.12 319.77,-568 359.1,-574.43 403.12,-579.51 439.73,-583.17"/>
<polygon fill="black" stroke="black" points="439.55,-586.67 449.85,-584.16 440.24,-579.7 439.55,-586.67"/>
<text text-anchor="middle" x="371.88" y="-583.8" font-family="Times,serif" font-size="14.00">pub_in</text>
</g>
<!-- Gene(9)&#45;&gt;Phenotype(6) -->
<g id="edge21" class="edge">
<title>Gene(9)&#45;&gt;Phenotype(6)</title>
<path fill="none" stroke="blue" d="M270.78,-568.19C284.18,-577.85 302.44,-590.16 319.77,-599 364.8,-621.97 418.68,-641.57 459,-654.82"/>
<polygon fill="blue" stroke="blue" points="458.09,-658.2 468.68,-657.97 460.25,-651.55 458.09,-658.2"/>
<text text-anchor="middle" x="371.88" y="-643.8" font-family="Times,serif" font-size="14.00">has_observ_pheno</text>
</g>
<!-- Gene(9)&#45;&gt;MolFunc(3) -->
<g id="edge17" class="edge">
<title>Gene(9)&#45;&gt;MolFunc(3)</title>
<path fill="none" stroke="blue" d="M288.66,-550.82C332.21,-547.87 400.6,-541.69 423.98,-531 451.52,-518.4 476.72,-494.92 494.18,-475.82"/>
<polygon fill="blue" stroke="blue" points="496.92,-478.01 500.95,-468.22 491.69,-473.36 496.92,-478.01"/>
<text text-anchor="middle" x="371.88" y="-550.8" font-family="Times,serif" font-size="14.00">has_function</text>
</g>
<!-- Gene(9)&#45;&gt;CelComp(5) -->
<g id="edge16" class="edge">
<title>Gene(9)&#45;&gt;CelComp(5)</title>
<path fill="none" stroke="black" d="M263.37,-536.04C276.15,-519.9 297.18,-495.8 319.77,-480 361.12,-451.09 383,-464.43 423.98,-435 433.69,-428.02 433.49,-423.42 441.98,-415 455.59,-401.48 471.34,-387.29 485.02,-375.38"/>
<polygon fill="black" stroke="black" points="487.52,-377.85 492.79,-368.66 482.94,-372.55 487.52,-377.85"/>
<text text-anchor="middle" x="371.88" y="-482.8" font-family="Times,serif" font-size="14.00">located_in</text>
</g>
<!-- Protein(10)&#45;&gt;BioProc(4) -->
<g id="edge23" class="edge">
<title>Protein(10)&#45;&gt;BioProc(4)</title>
<path fill="none" stroke="black" d="M263.24,-172.67C275.77,-189.05 296.49,-212.94 319.77,-227 361.03,-251.91 377.71,-243.5 423.98,-257 436.31,-260.6 449.54,-264.49 462.08,-268.2"/>
<polygon fill="black" stroke="black" points="461.38,-271.64 471.96,-271.12 463.37,-264.93 461.38,-271.64"/>
<text text-anchor="middle" x="371.88" y="-259.8" font-family="Times,serif" font-size="14.00">participates_in</text>
</g>
<!-- Protein(10)&#45;&gt;ProtDomain(17) -->
<g id="edge29" class="edge">
<title>Protein(10)&#45;&gt;ProtDomain(17)</title>
<path fill="none" stroke="black" d="M299.83,-157.57C336.69,-159.49 388.12,-162.18 431.86,-164.47"/>
<polygon fill="black" stroke="black" points="431.76,-167.96 441.93,-164.99 432.12,-160.97 431.76,-167.96"/>
<text text-anchor="middle" x="371.88" y="-166.8" font-family="Times,serif" font-size="14.00">has_domain</text>
</g>
<!-- Protein(10)&#45;&gt;Enzyme(122) -->
<g id="edge28" class="edge">
<title>Protein(10)&#45;&gt;Enzyme(122)</title>
<path fill="none" stroke="blue" d="M293.76,-146.06C302.37,-144.33 311.35,-142.57 319.77,-141 360.38,-133.42 405.77,-125.61 442.93,-119.39"/>
<polygon fill="blue" stroke="blue" points="443.89,-122.78 453.18,-117.68 442.74,-115.87 443.89,-122.78"/>
<text text-anchor="middle" x="371.88" y="-143.8" font-family="Times,serif" font-size="14.00">is_a</text>
</g>
<!-- Protein(10)&#45;&gt;Publication(2) -->
<g id="edge25" class="edge">
<title>Protein(10)&#45;&gt;Publication(2)</title>
<path fill="none" stroke="black" d="M260.34,-172.67C272.34,-195.54 292.38,-236.97 301.77,-275 313.49,-322.4 286.99,-457.82 319.77,-494 351.39,-528.88 381.22,-493.31 423.98,-513 448.84,-524.45 472.73,-543.96 490.29,-560.47"/>
<polygon fill="black" stroke="black" points="488.26,-563.39 497.89,-567.81 493.12,-558.35 488.26,-563.39"/>
<text text-anchor="middle" x="371.88" y="-515.8" font-family="Times,serif" font-size="14.00">pub_in</text>
</g>
<!-- Protein(10)&#45;&gt;MolFunc(3) -->
<g id="edge27" class="edge">
<title>Protein(10)&#45;&gt;MolFunc(3)</title>
<path fill="none" stroke="black" d="M259.94,-172.78C271.52,-195.76 291.11,-237.31 301.77,-275 309.12,-300.95 301.37,-375.29 319.77,-395 352.14,-429.66 378.05,-406.16 423.98,-418 436.29,-421.17 449.41,-424.86 461.85,-428.49"/>
<polygon fill="black" stroke="black" points="461.06,-431.91 471.64,-431.39 463.04,-425.2 461.06,-431.91"/>
<text text-anchor="middle" x="371.88" y="-420.8" font-family="Times,serif" font-size="14.00">has_function</text>
</g>
<!-- Protein(10)&#45;&gt;Protein(7) -->
<g id="edge24" class="edge">
<title>Protein(10)&#45;&gt;Protein(7)</title>
<path fill="none" stroke="blue" d="M256.97,-136.89C266.46,-112.5 286.91,-69.79 319.77,-49 360.17,-23.45 414.39,-17.53 456.01,-17.54"/>
<polygon fill="blue" stroke="blue" points="455.99,-21.04 466.03,-17.65 456.08,-14.04 455.99,-21.04"/>
<text text-anchor="middle" x="371.88" y="-107.8" font-family="Times,serif" font-size="14.00">h_s_s(&lt;=4)</text>
<text text-anchor="middle" x="371.88" y="-93.8" font-family="Times,serif" font-size="14.00">genetic(&lt;=6)</text>
<text text-anchor="middle" x="371.88" y="-79.8" font-family="Times,serif" font-size="14.00">physical(&lt;=6)</text>
<text text-anchor="middle" x="371.88" y="-65.8" font-family="Times,serif" font-size="14.00">xref(&lt;=4)</text>
<text text-anchor="middle" x="371.88" y="-51.8" font-family="Times,serif" font-size="14.00">ortho(&lt;=4)</text>
</g>
<!-- Protein(10)&#45;&gt;CelComp(5) -->
<g id="edge30" class="edge">
<title>Protein(10)&#45;&gt;CelComp(5)</title>
<path fill="none" stroke="blue" d="M256.56,-173.1C265.93,-199.16 286.62,-247.19 319.77,-275 331.16,-284.54 407.58,-310.78 462.3,-328.8"/>
<polygon fill="blue" stroke="blue" points="461.31,-332.16 471.9,-331.95 463.49,-325.51 461.31,-332.16"/>
<text text-anchor="middle" x="371.88" y="-317.8" font-family="Times,serif" font-size="14.00">located_in</text>
</g>
<!-- Protein(10)&#45;&gt;Enzyme(12) -->
<g id="edge22" class="edge">
<title>Protein(10)&#45;&gt;Enzyme(12)</title>
<path fill="none" stroke="blue" d="M282.66,-168.65C294.22,-173.28 307.46,-178.22 319.77,-182 367.05,-196.49 421.93,-208.57 462.06,-216.55"/>
<polygon fill="blue" stroke="blue" points="461.44,-219.99 471.93,-218.49 462.79,-213.12 461.44,-219.99"/>
<text text-anchor="middle" x="371.88" y="-211.8" font-family="Times,serif" font-size="14.00">is_a</text>
</g>
<!-- Protein(10)&#45;&gt;Protein(10) -->
<g id="edge26" class="edge">
<title>Protein(10)&#45;&gt;Protein(10)</title>
<path fill="none" stroke="blue" d="M230.89,-172.04C227.06,-181.86 233.32,-191 249.67,-191 259.9,-191 266.18,-187.43 268.51,-182.35"/>
<polygon fill="blue" stroke="blue" points="272.01,-182.02 268.46,-172.04 265.01,-182.06 272.01,-182.02"/>
<text text-anchor="middle" x="249.67" y="-249.8" font-family="Times,serif" font-size="14.00">ortho(&lt;=4)</text>
<text text-anchor="middle" x="249.67" y="-235.8" font-family="Times,serif" font-size="14.00">genetic(&lt;=6)</text>
<text text-anchor="middle" x="249.67" y="-221.8" font-family="Times,serif" font-size="14.00">xref(&lt;=4)</text>
<text text-anchor="middle" x="249.67" y="-207.8" font-family="Times,serif" font-size="14.00">h_s_s(&lt;=4)</text>
<text text-anchor="middle" x="249.67" y="-193.8" font-family="Times,serif" font-size="14.00">physical(&lt;=6)</text>
</g>
</g>
</svg>
