<svg width="1346px" height="1166px"
 viewBox="0.00 0.00 1009.75 874.42" xmlns="http://www.w3.org/2000/svg" xmlns:xlink="http://www.w3.org/1999/xlink">
<g id="graph0" class="graph" transform=" rotate(0) translate(4 870.42)">
<title>%3</title>
<polygon fill="white" stroke="transparent" points="-4,4 -4,-870.42 1005.75,-870.42 1005.75,4 -4,4"/>
<!-- Publication(2) -->
<g id="node1" class="node">
<title>Publication(2)</title>
<polygon fill="none" stroke="darkgreen" points="825.7,-255.96 825.7,-270.87 787.1,-281.42 732.51,-281.42 693.91,-270.87 693.91,-255.96 732.51,-245.42 787.1,-245.42 825.7,-255.96"/>
<polygon fill="none" stroke="darkgreen" points="829.71,-252.91 829.71,-273.92 787.64,-285.42 731.97,-285.42 689.9,-273.92 689.9,-252.91 731.97,-241.42 787.64,-241.42 829.71,-252.91"/>
<text text-anchor="middle" x="759.81" y="-259.22" font-family="Times,serif" font-size="14.00">Publication(2)</text>
</g>
<!-- CelComp(5) -->
<g id="node2" class="node">
<title>CelComp(5)</title>
<polygon fill="none" stroke="darkgreen" points="578.26,-305.96 578.26,-320.87 543.93,-331.42 495.38,-331.42 461.05,-320.87 461.05,-305.96 495.38,-295.42 543.93,-295.42 578.26,-305.96"/>
<polygon fill="none" stroke="darkgreen" points="582.25,-303 582.25,-323.83 544.53,-335.42 494.79,-335.42 457.07,-323.83 457.07,-303 494.79,-291.42 544.53,-291.42 582.25,-303"/>
<text text-anchor="middle" x="519.66" y="-309.22" font-family="Times,serif" font-size="14.00">CelComp(5)</text>
</g>
<!-- Protein(7) -->
<g id="node3" class="node">
<title>Protein(7)</title>
<polygon fill="none" stroke="darkgreen" points="569.18,-803.96 569.18,-818.87 540.17,-829.42 499.14,-829.42 470.13,-818.87 470.13,-803.96 499.14,-793.42 540.17,-793.42 569.18,-803.96"/>
<polygon fill="none" stroke="darkgreen" points="573.16,-801.15 573.16,-821.68 540.87,-833.42 498.45,-833.42 466.15,-821.68 466.15,-801.15 498.45,-789.42 540.87,-789.42 573.16,-801.15"/>
<text text-anchor="middle" x="519.66" y="-807.22" font-family="Times,serif" font-size="14.00">Protein(7)</text>
</g>
<!-- ProtDomain(17) -->
<g id="node4" class="node">
<title>ProtDomain(17)</title>
<polygon fill="none" stroke="darkgreen" points="593.51,-624.96 593.51,-639.87 550.25,-650.42 489.07,-650.42 445.8,-639.87 445.8,-624.96 489.07,-614.42 550.25,-614.42 593.51,-624.96"/>
<polygon fill="none" stroke="darkgreen" points="597.52,-621.82 597.52,-643.01 550.73,-654.42 488.58,-654.42 441.79,-643.01 441.79,-621.82 488.58,-610.42 550.73,-610.42 597.52,-621.82"/>
<text text-anchor="middle" x="519.66" y="-628.22" font-family="Times,serif" font-size="14.00">ProtDomain(17)</text>
</g>
<!-- MolFunc(3) -->
<g id="node5" class="node">
<title>MolFunc(3)</title>
<polygon fill="none" stroke="darkgreen" points="577.05,-500.96 577.05,-515.87 543.43,-526.42 495.88,-526.42 462.27,-515.87 462.27,-500.96 495.88,-490.42 543.43,-490.42 577.05,-500.96"/>
<polygon fill="none" stroke="darkgreen" points="581.06,-498.03 581.06,-518.81 544.05,-530.42 495.27,-530.42 458.25,-518.81 458.25,-498.03 495.27,-486.42 544.05,-486.42 581.06,-498.03"/>
<text text-anchor="middle" x="519.66" y="-504.22" font-family="Times,serif" font-size="14.00">MolFunc(3)</text>
</g>
<!-- Enzyme(122) -->
<g id="node6" class="node">
<title>Enzyme(122)</title>
<polygon fill="none" stroke="darkgreen" points="582.72,-562.96 582.72,-577.87 545.78,-588.42 493.53,-588.42 456.59,-577.87 456.59,-562.96 493.53,-552.42 545.78,-552.42 582.72,-562.96"/>
<polygon fill="none" stroke="darkgreen" points="586.73,-559.94 586.73,-580.89 546.34,-592.42 492.97,-592.42 452.59,-580.89 452.59,-559.94 492.97,-548.42 546.34,-548.42 586.73,-559.94"/>
<text text-anchor="middle" x="519.66" y="-566.22" font-family="Times,serif" font-size="14.00">Enzyme(122)</text>
</g>
<!-- Reaction(133) -->
<g id="node7" class="node">
<title>Reaction(133)</title>
<polygon fill="none" stroke="darkgreen" points="825.68,-723.96 825.68,-738.87 787.09,-749.42 732.52,-749.42 693.93,-738.87 693.93,-723.96 732.52,-713.42 787.09,-713.42 825.68,-723.96"/>
<polygon fill="none" stroke="darkgreen" points="829.7,-720.91 829.7,-741.92 787.63,-753.42 731.98,-753.42 689.92,-741.92 689.92,-720.91 731.98,-709.42 787.63,-709.42 829.7,-720.91"/>
<text text-anchor="middle" x="759.81" y="-727.22" font-family="Times,serif" font-size="14.00">Reaction(133)</text>
</g>
<!-- Path(14) -->
<g id="node8" class="node">
<title>Path(14)</title>
<polygon fill="none" stroke="darkgreen" points="997.66,-781.96 997.66,-796.87 971.99,-807.42 935.69,-807.42 910.03,-796.87 910.03,-781.96 935.69,-771.42 971.99,-771.42 997.66,-781.96"/>
<polygon fill="none" stroke="darkgreen" points="1001.65,-779.28 1001.65,-799.55 972.78,-811.42 934.91,-811.42 906.03,-799.55 906.03,-779.28 934.91,-767.42 972.78,-767.42 1001.65,-779.28"/>
<text text-anchor="middle" x="953.84" y="-785.22" font-family="Times,serif" font-size="14.00">Path(14)</text>
</g>
<!-- BioProc(4) -->
<g id="node9" class="node">
<title>BioProc(4)</title>
<polygon fill="none" stroke="darkgreen" points="573.11,-417.96 573.11,-432.87 541.8,-443.42 497.52,-443.42 466.2,-432.87 466.2,-417.96 497.52,-407.42 541.8,-407.42 573.11,-417.96"/>
<polygon fill="none" stroke="darkgreen" points="577.11,-415.09 577.11,-435.75 542.45,-447.42 496.86,-447.42 462.2,-435.75 462.2,-415.09 496.86,-403.42 542.45,-403.42 577.11,-415.09"/>
<text text-anchor="middle" x="519.66" y="-421.22" font-family="Times,serif" font-size="14.00">BioProc(4)</text>
</g>
<!-- Trait(16) -->
<g id="node10" class="node">
<title>Trait(16)</title>
<polygon fill="none" stroke="darkgreen" points="805.11,-64.96 805.11,-79.87 778.57,-90.42 741.04,-90.42 714.51,-79.87 714.51,-64.96 741.04,-54.42 778.57,-54.42 805.11,-64.96"/>
<polygon fill="none" stroke="darkgreen" points="809.12,-62.25 809.12,-82.58 779.34,-94.42 740.27,-94.42 710.49,-82.58 710.49,-62.25 740.27,-50.42 779.34,-50.42 809.12,-62.25"/>
<text text-anchor="middle" x="759.81" y="-68.22" font-family="Times,serif" font-size="14.00">Trait(16)</text>
</g>
<!-- Gene(8) -->
<g id="node11" class="node">
<title>Gene(8)</title>
<polygon fill="none" stroke="darkgreen" points="291.79,-243.96 291.79,-258.87 267.12,-269.42 232.23,-269.42 207.56,-258.87 207.56,-243.96 232.23,-233.42 267.12,-233.42 291.79,-243.96"/>
<polygon fill="none" stroke="darkgreen" points="295.77,-241.32 295.77,-261.52 267.93,-273.42 231.42,-273.42 203.58,-261.52 203.58,-241.32 231.42,-229.42 267.93,-229.42 295.77,-241.32"/>
<text text-anchor="middle" x="249.67" y="-247.22" font-family="Times,serif" font-size="14.00">Gene(8)</text>
</g>
<!-- Phenotype(6) -->
<g id="node12" class="node">
<title>Phenotype(6)</title>
<polygon fill="none" stroke="darkgreen" points="582.18,-193.96 582.18,-208.87 545.55,-219.42 493.76,-219.42 457.14,-208.87 457.14,-193.96 493.76,-183.42 545.55,-183.42 582.18,-193.96"/>
<polygon fill="none" stroke="darkgreen" points="586.18,-190.95 586.18,-211.88 546.12,-223.42 493.2,-223.42 453.13,-211.88 453.13,-190.95 493.2,-179.42 546.12,-179.42 586.18,-190.95"/>
<text text-anchor="middle" x="519.66" y="-197.22" font-family="Times,serif" font-size="14.00">Phenotype(6)</text>
</g>
<!-- Gene(1) -->
<g id="node13" class="node">
<title>Gene(1)</title>
<ellipse fill="none" stroke="red" cx="43.08" cy="-309.42" rx="39.15" ry="39.15"/>
<ellipse fill="none" stroke="red" cx="43.08" cy="-309.42" rx="43.15" ry="43.15"/>
<text text-anchor="middle" x="43.08" y="-305.22" font-family="Times,serif" font-size="14.00">Gene(1)</text>
</g>
<!-- Gene(1)&#45;&gt;Publication(2) -->
<g id="edge29" class="edge">
<title>Gene(1)&#45;&gt;Publication(2)</title>
<path fill="none" stroke="black" d="M58.34,-269.03C67.99,-247.48 82.91,-222.4 104.15,-207.42 123.41,-193.83 318.54,-173.51 319.77,-173.42 442.77,-163.88 478.16,-138.55 597.34,-170.42 648.75,-184.16 700.76,-218.64 731.37,-241.53"/>
<text text-anchor="middle" x="371.88" y="-176.22" font-family="Times,serif" font-size="14.00">pub_in</text>
</g>
<!-- Gene(1)&#45;&gt;CelComp(5) -->
<g id="edge27" class="edge">
<title>Gene(1)&#45;&gt;CelComp(5)</title>
<path fill="none" stroke="black" d="M86.25,-308.84C156.36,-308 301.33,-306.83 423.98,-309.42 434.67,-309.64 446.03,-310.01 457.04,-310.44"/>
<text text-anchor="middle" x="249.67" y="-311.22" font-family="Times,serif" font-size="14.00">located_in</text>
</g>
<!-- Gene(1)&#45;&gt;Protein(7) -->
<g id="edge21" class="edge">
<title>Gene(1)&#45;&gt;Protein(7)</title>
<path fill="none" stroke="black" d="M46.06,-352.49C52.53,-443.22 80.1,-655.54 197.57,-776.42 271.75,-852.74 319.96,-876.93 423.98,-854.42 446.21,-849.6 469.49,-839.11 487.41,-829.7"/>
<text text-anchor="middle" x="249.67" y="-855.22" font-family="Times,serif" font-size="14.00">enc</text>
</g>
<!-- Gene(1)&#45;&gt;MolFunc(3) -->
<g id="edge24" class="edge">
<title>Gene(1)&#45;&gt;MolFunc(3)</title>
<path fill="none" stroke="blue" d="M62.84,-347.9C73.1,-365.92 87.19,-386.62 104.15,-401.42 184.06,-471.09 216.64,-478.89 319.77,-503.42 365.31,-514.24 418.36,-515.01 458.21,-513.33"/>
<text text-anchor="middle" x="249.67" y="-501.22" font-family="Times,serif" font-size="14.00">has_function</text>
</g>
<!-- Gene(1)&#45;&gt;BioProc(4) -->
<g id="edge28" class="edge">
<title>Gene(1)&#45;&gt;BioProc(4)</title>
<path fill="none" stroke="blue" d="M69.05,-344.25C78.75,-355.3 90.77,-366.45 104.15,-373.42 220.28,-433.86 378.71,-434.92 462.06,-430.29"/>
<text text-anchor="middle" x="249.67" y="-429.22" font-family="Times,serif" font-size="14.00">participates_in</text>
</g>
<!-- Gene(1)&#45;&gt;Trait(16) -->
<g id="edge19" class="edge">
<title>Gene(1)&#45;&gt;Trait(16)</title>
<path fill="none" stroke="black" d="M43.75,-266.23C45.85,-217.61 57.02,-139.65 104.15,-95.42 278.1,67.82 606.48,-21 719.46,-58.41"/>
<text text-anchor="middle" x="371.88" y="-7.22" font-family="Times,serif" font-size="14.00">cooc_wi</text>
</g>
<!-- Gene(1)&#45;&gt;Gene(8) -->
<g id="edge22" class="edge">
<title>Gene(1)&#45;&gt;Gene(8)</title>
<path fill="none" stroke="blue" d="M76.71,-282.25C85.19,-276.45 94.63,-271 104.15,-267.42 135.93,-255.45 174.21,-251.64 203.39,-250.72"/>
<text text-anchor="middle" x="141.86" y="-284.22" font-family="Times,serif" font-size="14.00">genetic</text>
<text text-anchor="middle" x="141.86" y="-270.22" font-family="Times,serif" font-size="14.00">physical</text>
</g>
<!-- Gene(1)&#45;&gt;Phenotype(6) -->
<g id="edge25" class="edge">
<title>Gene(1)&#45;&gt;Phenotype(6)</title>
<path fill="none" stroke="black" d="M71.72,-276.95C81.3,-266.96 92.56,-256.48 104.15,-248.42 141.53,-222.42 153.14,-216.31 197.57,-206.42 284.24,-187.12 387.33,-189.9 452.87,-194.75"/>
<text text-anchor="middle" x="249.67" y="-209.22" font-family="Times,serif" font-size="14.00">has_observ_pheno</text>
</g>
<!-- Protein(10) -->
<g id="node14" class="node">
<title>Protein(10)</title>
<ellipse fill="none" stroke="black" cx="249.67" cy="-643.42" rx="50.27" ry="18"/>
<text text-anchor="middle" x="249.67" y="-639.22" font-family="Times,serif" font-size="14.00">Protein(10)</text>
</g>
<!-- Gene(1)&#45;&gt;Protein(10) -->
<g id="edge20" class="edge">
<title>Gene(1)&#45;&gt;Protein(10)</title>
<path fill="none" stroke="blue" d="M47.55,-352.42C53.13,-399.76 67.5,-476.43 104.15,-531.42 133.82,-575.92 187.04,-610.36 219.96,-628.71"/>
<text text-anchor="middle" x="141.86" y="-605.22" font-family="Times,serif" font-size="14.00">enc</text>
</g>
<!-- SNP(15) -->
<g id="node17" class="node">
<title>SNP(15)</title>
<ellipse fill="none" stroke="black" cx="249.67" cy="-105.42" rx="41.13" ry="18"/>
<text text-anchor="middle" x="249.67" y="-101.22" font-family="Times,serif" font-size="14.00">SNP(15)</text>
</g>
<!-- Gene(1)&#45;&gt;SNP(15) -->
<g id="edge26" class="edge">
<title>Gene(1)&#45;&gt;SNP(15)</title>
<path fill="none" stroke="blue" d="M45.33,-266.37C49.07,-223.23 61.93,-158.35 104.15,-123.42 133.57,-99.08 178.57,-97.19 210.53,-99.73"/>
<text text-anchor="middle" x="141.86" y="-126.22" font-family="Times,serif" font-size="14.00">has_variation</text>
</g>
<!-- Gene(9) -->
<g id="node19" class="node">
<title>Gene(9)</title>
<ellipse fill="none" stroke="black" cx="249.67" cy="-359.42" rx="39.15" ry="18"/>
<text text-anchor="middle" x="249.67" y="-355.22" font-family="Times,serif" font-size="14.00">Gene(9)</text>
</g>
<!-- Gene(1)&#45;&gt;Gene(9) -->
<g id="edge23" class="edge">
<title>Gene(1)&#45;&gt;Gene(9)</title>
<path fill="none" stroke="black" d="M84.99,-319.41C123.01,-328.7 178.97,-342.38 214.62,-351.09"/>
<text text-anchor="middle" x="141.86" y="-358.22" font-family="Times,serif" font-size="14.00">genetic</text>
<text text-anchor="middle" x="141.86" y="-344.22" font-family="Times,serif" font-size="14.00">physical</text>
</g>
<!-- Protein(10)&#45;&gt;Publication(2) -->
<g id="edge9" class="edge">
<title>Protein(10)&#45;&gt;Publication(2)</title>
<path fill="none" stroke="blue" d="M282.74,-657.09C348.22,-682.67 499.39,-729.5 597.34,-663.42 729.88,-573.99 753.65,-355.51 757.89,-285.43"/>
<text text-anchor="middle" x="519.66" y="-699.22" font-family="Times,serif" font-size="14.00">pub_in</text>
</g>
<!-- Protein(10)&#45;&gt;CelComp(5) -->
<g id="edge7" class="edge">
<title>Protein(10)&#45;&gt;CelComp(5)</title>
<path fill="none" stroke="blue" d="M260.72,-625.62C272.16,-604.65 290.71,-568.46 301.77,-535.42 314.31,-497.97 294.21,-478.51 319.77,-448.42 351.89,-410.61 390.15,-444.71 423.98,-408.42 442.67,-388.36 424.02,-370.14 441.98,-349.42 449.78,-340.41 460.32,-333.5 471.08,-328.26"/>
<text text-anchor="middle" x="371.88" y="-451.22" font-family="Times,serif" font-size="14.00">located_in</text>
</g>
<!-- Protein(10)&#45;&gt;Protein(7) -->
<g id="edge1" class="edge">
<title>Protein(10)&#45;&gt;Protein(7)</title>
<path fill="none" stroke="blue" d="M253.48,-661.61C259.43,-693.39 276.51,-758.56 319.77,-789.42 342.47,-805.6 414.88,-810.14 465.75,-811.27"/>
<text text-anchor="middle" x="371.88" y="-840.22" font-family="Times,serif" font-size="14.00">h_s_s(&lt;=4)</text>
<text text-anchor="middle" x="371.88" y="-826.22" font-family="Times,serif" font-size="14.00">ortho(&lt;=4)</text>
<text text-anchor="middle" x="371.88" y="-812.22" font-family="Times,serif" font-size="14.00">xref(&lt;=4)</text>
</g>
<!-- Protein(10)&#45;&gt;Protein(7) -->
<g id="edge11" class="edge">
<title>Protein(10)&#45;&gt;Protein(7)</title>
<path fill="none" stroke="blue" d="M258.52,-661.36C269.09,-683.28 290.08,-719.75 319.77,-738.42 359.63,-763.47 379.74,-741.3 423.98,-757.42 425.53,-757.98 453.52,-773.98 478.67,-788.41"/>
<polygon fill="blue" stroke="blue" points="476.98,-791.48 487.4,-793.42 480.47,-785.41 476.98,-791.48"/>
<text text-anchor="middle" x="371.88" y="-774.22" font-family="Times,serif" font-size="14.00">genetic(&lt;=6)</text>
<text text-anchor="middle" x="371.88" y="-760.22" font-family="Times,serif" font-size="14.00">physical(&lt;=6)</text>
</g>
<!-- Protein(10)&#45;&gt;ProtDomain(17) -->
<g id="edge3" class="edge">
<title>Protein(10)&#45;&gt;ProtDomain(17)</title>
<path fill="none" stroke="blue" d="M300.38,-642.94C335.03,-642.44 382.34,-641.43 423.98,-639.42 429.82,-639.13 435.86,-638.79 441.94,-638.42"/>
<text text-anchor="middle" x="371.88" y="-645.22" font-family="Times,serif" font-size="14.00">has_domain</text>
</g>
<!-- Protein(10)&#45;&gt;MolFunc(3) -->
<g id="edge4" class="edge">
<title>Protein(10)&#45;&gt;MolFunc(3)</title>
<path fill="none" stroke="black" d="M265.93,-626.12C278.89,-612.59 298.69,-594.43 319.77,-584.42 362.29,-564.21 384.41,-590.93 423.98,-565.42 435.79,-557.8 431,-548.2 441.98,-539.42 450.39,-532.69 460.45,-527.24 470.48,-522.9"/>
<text text-anchor="middle" x="371.88" y="-587.22" font-family="Times,serif" font-size="14.00">has_function</text>
</g>
<!-- Protein(10)&#45;&gt;Enzyme(122) -->
<g id="edge5" class="edge">
<title>Protein(10)&#45;&gt;Enzyme(122)</title>
<path fill="none" stroke="blue" d="M286.65,-631C297.24,-627.61 308.9,-624.13 319.77,-621.42 365.45,-610.03 378.4,-614.21 423.98,-602.42 440.44,-598.16 458.17,-592.47 473.79,-587.07"/>
<text text-anchor="middle" x="371.88" y="-624.22" font-family="Times,serif" font-size="14.00">is_a</text>
</g>
<!-- Protein(10)&#45;&gt;BioProc(4) -->
<g id="edge8" class="edge">
<title>Protein(10)&#45;&gt;BioProc(4)</title>
<path fill="none" stroke="black" d="M259.53,-625.49C270.85,-604.22 292.3,-568.96 319.77,-547.42 359.07,-516.6 385.51,-537.25 423.98,-505.42 435.37,-495.98 431.64,-488 441.98,-477.42 454.67,-464.41 471.1,-452.75 485.49,-443.79"/>
<text text-anchor="middle" x="371.88" y="-550.22" font-family="Times,serif" font-size="14.00">participates_in</text>
</g>
<!-- Protein(10)&#45;&gt;Protein(10) -->
<g id="edge2" class="edge">
<title>Protein(10)&#45;&gt;Protein(10)</title>
<path fill="none" stroke="black" d="M240.15,-661.2C238.53,-670.73 241.7,-679.42 249.67,-679.42 257.65,-679.42 260.82,-670.73 259.2,-661.2"/>
<text text-anchor="middle" x="249.67" y="-710.22" font-family="Times,serif" font-size="14.00">h_s_s(&lt;=4)</text>
<text text-anchor="middle" x="249.67" y="-696.22" font-family="Times,serif" font-size="14.00">ortho(&lt;=4)</text>
<text text-anchor="middle" x="249.67" y="-682.22" font-family="Times,serif" font-size="14.00">xref(&lt;=4)</text>
</g>
<!-- Protein(10)&#45;&gt;Protein(10) -->
<g id="edge10" class="edge">
<title>Protein(10)&#45;&gt;Protein(10)</title>
<path fill="none" stroke="black" d="M235.74,-660.93C224.54,-685.52 229.18,-721.42 249.67,-721.42 267.61,-721.42 273.41,-693.94 267.07,-670.59"/>
<polygon fill="black" stroke="black" points="270.27,-669.17 263.61,-660.93 263.68,-671.53 270.27,-669.17"/>
<text text-anchor="middle" x="249.67" y="-738.22" font-family="Times,serif" font-size="14.00">genetic(&lt;=6)</text>
<text text-anchor="middle" x="249.67" y="-724.22" font-family="Times,serif" font-size="14.00">physical(&lt;=6)</text>
</g>
<!-- Enzyme(12) -->
<g id="node15" class="node">
<title>Enzyme(12)</title>
<ellipse fill="none" stroke="black" cx="519.66" cy="-740.42" rx="53.63" ry="18"/>
<text text-anchor="middle" x="519.66" y="-736.22" font-family="Times,serif" font-size="14.00">Enzyme(12)</text>
</g>
<!-- Protein(10)&#45;&gt;Enzyme(12) -->
<g id="edge6" class="edge">
<title>Protein(10)&#45;&gt;Enzyme(12)</title>
<path fill="none" stroke="black" d="M266.29,-660.61C279.3,-673.84 299,-691.49 319.77,-701.42 333.27,-707.87 416.54,-722.95 470.97,-732.35"/>
<text text-anchor="middle" x="371.88" y="-726.22" font-family="Times,serif" font-size="14.00">is_a</text>
</g>
<!-- Enzyme(12)&#45;&gt;Reaction(133) -->
<g id="edge12" class="edge">
<title>Enzyme(12)&#45;&gt;Reaction(133)</title>
<path fill="none" stroke="black" d="M573.21,-738.43C607.6,-737.13 652.87,-735.42 690.1,-734.01"/>
<text text-anchor="middle" x="643.72" y="-739.22" font-family="Times,serif" font-size="14.00">ca_by</text>
</g>
<!-- Reaction(13) -->
<g id="node16" class="node">
<title>Reaction(13)</title>
<ellipse fill="none" stroke="black" cx="759.81" cy="-789.42" rx="56.04" ry="18"/>
<text text-anchor="middle" x="759.81" y="-785.22" font-family="Times,serif" font-size="14.00">Reaction(13)</text>
</g>
<!-- Enzyme(12)&#45;&gt;Reaction(13) -->
<g id="edge13" class="edge">
<title>Enzyme(12)&#45;&gt;Reaction(13)</title>
<path fill="none" stroke="blue" d="M566.01,-749.75C607.85,-758.36 669.7,-771.08 711.99,-779.78"/>
<text text-anchor="middle" x="643.72" y="-773.22" font-family="Times,serif" font-size="14.00">ca_by</text>
</g>
<!-- Reaction(13)&#45;&gt;Path(14) -->
<g id="edge14" class="edge">
<title>Reaction(13)&#45;&gt;Path(14)</title>
<path fill="none" stroke="black" d="M816.09,-789.42C844.46,-789.42 878.65,-789.42 905.74,-789.42"/>
<text text-anchor="middle" x="867.72" y="-792.22" font-family="Times,serif" font-size="14.00">part_of</text>
</g>
<!-- SNP(15)&#45;&gt;Trait(16) -->
<g id="edge15" class="edge">
<title>SNP(15)&#45;&gt;Trait(16)</title>
<path fill="none" stroke="black" d="M284.54,-95.89C322.5,-85.74 386.07,-70.34 441.98,-64.42 510.64,-57.14 528.31,-62.71 597.34,-64.42 635.36,-65.36 678.37,-67.54 710.43,-69.39"/>
<text text-anchor="middle" x="519.66" y="-67.22" font-family="Times,serif" font-size="14.00">associated_with</text>
</g>
<!-- Trait(166) -->
<g id="node18" class="node">
<title>Trait(166)</title>
<ellipse fill="none" stroke="black" cx="519.66" cy="-105.42" rx="46.28" ry="18"/>
<text text-anchor="middle" x="519.66" y="-101.22" font-family="Times,serif" font-size="14.00">Trait(166)</text>
</g>
<!-- SNP(15)&#45;&gt;Trait(166) -->
<g id="edge16" class="edge">
<title>SNP(15)&#45;&gt;Trait(166)</title>
<path fill="none" stroke="blue" d="M290.79,-105.42C339.71,-105.42 422.16,-105.42 473.33,-105.42"/>
<text text-anchor="middle" x="371.88" y="-108.22" font-family="Times,serif" font-size="14.00">associated_with</text>
</g>
<!-- Trait(166)&#45;&gt;Publication(2) -->
<g id="edge18" class="edge">
<title>Trait(166)&#45;&gt;Publication(2)</title>
<path fill="none" stroke="blue" d="M565.15,-102.06C597.28,-101.78 640.41,-106.01 672.1,-126.42 714.58,-153.77 740.12,-210.12 751.59,-241.35"/>
<text text-anchor="middle" x="643.72" y="-129.22" font-family="Times,serif" font-size="14.00">pub_in</text>
</g>
<!-- Trait(166)&#45;&gt;Trait(16) -->
<g id="edge17" class="edge">
<title>Trait(166)&#45;&gt;Trait(16)</title>
<path fill="none" stroke="black" d="M562.07,-97.96C578.61,-95.1 597.85,-91.93 615.34,-89.42 646.99,-84.87 682.7,-80.63 710.58,-77.53"/>
<text text-anchor="middle" x="643.72" y="-92.22" font-family="Times,serif" font-size="14.00">is_part_of</text>
</g>
<!-- Gene(9)&#45;&gt;Publication(2) -->
<g id="edge35" class="edge">
<title>Gene(9)&#45;&gt;Publication(2)</title>
<path fill="none" stroke="black" d="M288.11,-362.85C352.51,-367.64 487.87,-372.85 597.34,-344.42 645.45,-331.92 695.88,-303.85 727.32,-284.28"/>
<text text-anchor="middle" x="519.66" y="-367.22" font-family="Times,serif" font-size="14.00">pub_in</text>
</g>
<!-- Gene(9)&#45;&gt;CelComp(5) -->
<g id="edge33" class="edge">
<title>Gene(9)&#45;&gt;CelComp(5)</title>
<path fill="none" stroke="black" d="M275.51,-345.75C288.34,-339.35 304.48,-332.3 319.77,-328.42 364.75,-317 417.13,-313.43 456.85,-312.61"/>
<text text-anchor="middle" x="371.88" y="-331.22" font-family="Times,serif" font-size="14.00">located_in</text>
</g>
<!-- Gene(9)&#45;&gt;MolFunc(3) -->
<g id="edge31" class="edge">
<title>Gene(9)&#45;&gt;MolFunc(3)</title>
<path fill="none" stroke="black" d="M276.02,-372.75C285.36,-378.83 295.24,-386.82 301.77,-396.42 319.86,-422.97 296.57,-444.2 319.77,-466.42 321.09,-467.68 403.58,-484.81 461.9,-496.8"/>
<text text-anchor="middle" x="371.88" y="-490.22" font-family="Times,serif" font-size="14.00">has_function</text>
</g>
<!-- Gene(9)&#45;&gt;BioProc(4) -->
<g id="edge34" class="edge">
<title>Gene(9)&#45;&gt;BioProc(4)</title>
<path fill="none" stroke="blue" d="M287.61,-364.09C322.98,-369.02 377.67,-377.82 423.98,-390.42 442.58,-395.47 462.67,-402.65 479.55,-409.19"/>
<text text-anchor="middle" x="371.88" y="-393.22" font-family="Times,serif" font-size="14.00">participates_in</text>
</g>
<!-- Gene(9)&#45;&gt;Trait(16) -->
<g id="edge30" class="edge">
<title>Gene(9)&#45;&gt;Trait(16)</title>
<path fill="none" stroke="blue" d="M274.44,-345.34C283.27,-339.78 293.22,-333.13 301.77,-326.42 310.43,-319.62 310.19,-314.83 319.77,-309.42 361.63,-285.78 380.27,-300.44 423.98,-280.42 432.72,-276.41 433.15,-272.23 441.98,-268.42 507.04,-240.3 535.28,-266.66 597.34,-232.42 661.09,-197.24 716.82,-129.66 742.97,-94.65"/>
<text text-anchor="middle" x="519.66" y="-271.22" font-family="Times,serif" font-size="14.00">cooc_wi</text>
</g>
<!-- Gene(9)&#45;&gt;Phenotype(6) -->
<g id="edge32" class="edge">
<title>Gene(9)&#45;&gt;Phenotype(6)</title>
<path fill="none" stroke="blue" d="M278.22,-347.08C286.81,-342.06 295.64,-335.5 301.77,-327.42 318.86,-304.9 300.08,-286.69 319.77,-266.42 354.7,-230.46 409.77,-214.38 453.11,-207.2"/>
<text text-anchor="middle" x="371.88" y="-269.22" font-family="Times,serif" font-size="14.00">has_observ_pheno</text>
</g>
</g>
</svg>
