<svg width="1315px" height="1150px"
 viewBox="0.00 0.00 986.39 862.38" xmlns="http://www.w3.org/2000/svg" xmlns:xlink="http://www.w3.org/1999/xlink">
<g id="graph0" class="graph" transform=" rotate(0) translate(4 858.38)">
<title>%3</title>
<polygon fill="white" stroke="transparent" points="-4,4 -4,-858.38 982.39,-858.38 982.39,4 -4,4"/>
<!-- Reaction(133) -->
<g id="node1" class="node">
<title>Reaction(133)</title>
<polygon fill="none" stroke="darkgreen" points="802.34,-634.54 802.34,-649.45 763.75,-660 709.17,-660 670.58,-649.45 670.58,-634.54 709.17,-624 763.75,-624 802.34,-634.54"/>
<polygon fill="none" stroke="darkgreen" points="806.35,-631.49 806.35,-652.51 764.29,-664 708.63,-664 666.57,-652.51 666.57,-631.49 708.63,-620 764.29,-620 806.35,-631.49"/>
<text text-anchor="middle" x="736.46" y="-637.8" font-family="Times,serif" font-size="14.00">Reaction(133)</text>
</g>
<!-- CelComp(5) -->
<g id="node2" class="node">
<title>CelComp(5)</title>
<polygon fill="none" stroke="darkgreen" points="578.26,-525.54 578.26,-540.45 543.93,-551 495.38,-551 461.05,-540.45 461.05,-525.54 495.38,-515 543.93,-515 578.26,-525.54"/>
<polygon fill="none" stroke="darkgreen" points="582.25,-522.58 582.25,-543.41 544.53,-555 494.79,-555 457.07,-543.41 457.07,-522.58 494.79,-511 544.53,-511 582.25,-522.58"/>
<text text-anchor="middle" x="519.66" y="-528.8" font-family="Times,serif" font-size="14.00">CelComp(5)</text>
</g>
<!-- BioProc(4) -->
<g id="node3" class="node">
<title>BioProc(4)</title>
<polygon fill="none" stroke="darkgreen" points="573.11,-426.54 573.11,-441.45 541.8,-452 497.52,-452 466.2,-441.45 466.2,-426.54 497.52,-416 541.8,-416 573.11,-426.54"/>
<polygon fill="none" stroke="darkgreen" points="577.11,-423.67 577.11,-444.33 542.45,-456 496.86,-456 462.2,-444.33 462.2,-423.67 496.86,-412 542.45,-412 577.11,-423.67"/>
<text text-anchor="middle" x="519.66" y="-429.8" font-family="Times,serif" font-size="14.00">BioProc(4)</text>
</g>
<!-- MolFunc(3) -->
<g id="node4" class="node">
<title>MolFunc(3)</title>
<polygon fill="none" stroke="darkgreen" points="577.05,-327.54 577.05,-342.45 543.43,-353 495.88,-353 462.27,-342.45 462.27,-327.54 495.88,-317 543.43,-317 577.05,-327.54"/>
<polygon fill="none" stroke="darkgreen" points="581.06,-324.61 581.06,-345.39 544.05,-357 495.27,-357 458.25,-345.39 458.25,-324.61 495.27,-313 544.05,-313 581.06,-324.61"/>
<text text-anchor="middle" x="519.66" y="-330.8" font-family="Times,serif" font-size="14.00">MolFunc(3)</text>
</g>
<!-- Publication(2) -->
<g id="node5" class="node">
<title>Publication(2)</title>
<polygon fill="none" stroke="darkgreen" points="585.55,-261.54 585.55,-276.45 546.95,-287 492.36,-287 453.76,-276.45 453.76,-261.54 492.36,-251 546.95,-251 585.55,-261.54"/>
<polygon fill="none" stroke="darkgreen" points="589.56,-258.49 589.56,-279.51 547.49,-291 491.82,-291 449.75,-279.51 449.75,-258.49 491.82,-247 547.49,-247 589.56,-258.49"/>
<text text-anchor="middle" x="519.66" y="-264.8" font-family="Times,serif" font-size="14.00">Publication(2)</text>
</g>
<!-- Path(14) -->
<g id="node6" class="node">
<title>Path(14)</title>
<polygon fill="none" stroke="darkgreen" points="974.3,-576.54 974.3,-591.45 948.64,-602 912.34,-602 886.67,-591.45 886.67,-576.54 912.34,-566 948.64,-566 974.3,-576.54"/>
<polygon fill="none" stroke="darkgreen" points="978.3,-573.86 978.3,-594.14 949.42,-606 911.55,-606 882.68,-594.14 882.68,-573.86 911.55,-562 949.42,-562 978.3,-573.86"/>
<text text-anchor="middle" x="930.49" y="-579.8" font-family="Times,serif" font-size="14.00">Path(14)</text>
</g>
<!-- Protein(7) -->
<g id="node7" class="node">
<title>Protein(7)</title>
<polygon fill="none" stroke="darkgreen" points="569.18,-794.54 569.18,-809.45 540.17,-820 499.14,-820 470.13,-809.45 470.13,-794.54 499.14,-784 540.17,-784 569.18,-794.54"/>
<polygon fill="none" stroke="darkgreen" points="573.16,-791.74 573.16,-812.26 540.87,-824 498.45,-824 466.15,-812.26 466.15,-791.74 498.45,-780 540.87,-780 573.16,-791.74"/>
<text text-anchor="middle" x="519.66" y="-797.8" font-family="Times,serif" font-size="14.00">Protein(7)</text>
</g>
<!-- ProtDomain(17) -->
<g id="node8" class="node">
<title>ProtDomain(17)</title>
<polygon fill="none" stroke="darkgreen" points="593.51,-731.54 593.51,-746.45 550.25,-757 489.07,-757 445.8,-746.45 445.8,-731.54 489.07,-721 550.25,-721 593.51,-731.54"/>
<polygon fill="none" stroke="darkgreen" points="597.52,-728.4 597.52,-749.59 550.73,-761 488.58,-761 441.79,-749.59 441.79,-728.4 488.58,-717 550.73,-717 597.52,-728.4"/>
<text text-anchor="middle" x="519.66" y="-734.8" font-family="Times,serif" font-size="14.00">ProtDomain(17)</text>
</g>
<!-- Enzyme(122) -->
<g id="node9" class="node">
<title>Enzyme(122)</title>
<polygon fill="none" stroke="darkgreen" points="582.72,-669.54 582.72,-684.45 545.78,-695 493.53,-695 456.59,-684.45 456.59,-669.54 493.53,-659 545.78,-659 582.72,-669.54"/>
<polygon fill="none" stroke="darkgreen" points="586.73,-666.52 586.73,-687.47 546.34,-699 492.97,-699 452.59,-687.47 452.59,-666.52 492.97,-655 546.34,-655 586.73,-666.52"/>
<text text-anchor="middle" x="519.66" y="-672.8" font-family="Times,serif" font-size="14.00">Enzyme(122)</text>
</g>
<!-- Trait(16) -->
<g id="node10" class="node">
<title>Trait(16)</title>
<polygon fill="none" stroke="darkgreen" points="564.96,-57.54 564.96,-72.45 538.42,-83 500.89,-83 474.36,-72.45 474.36,-57.54 500.89,-47 538.42,-47 564.96,-57.54"/>
<polygon fill="none" stroke="darkgreen" points="568.97,-54.83 568.97,-75.17 539.19,-87 500.12,-87 470.34,-75.17 470.34,-54.83 500.12,-43 539.19,-43 568.97,-54.83"/>
<text text-anchor="middle" x="519.66" y="-60.8" font-family="Times,serif" font-size="14.00">Trait(16)</text>
</g>
<!-- Phenotype(6) -->
<g id="node11" class="node">
<title>Phenotype(6)</title>
<polygon fill="none" stroke="darkgreen" points="582.18,-159.54 582.18,-174.45 545.55,-185 493.76,-185 457.14,-174.45 457.14,-159.54 493.76,-149 545.55,-149 582.18,-159.54"/>
<polygon fill="none" stroke="darkgreen" points="586.18,-156.53 586.18,-177.46 546.12,-189 493.2,-189 453.13,-177.46 453.13,-156.53 493.2,-145 546.12,-145 586.18,-156.53"/>
<text text-anchor="middle" x="519.66" y="-162.8" font-family="Times,serif" font-size="14.00">Phenotype(6)</text>
</g>
<!-- Gene(1) -->
<g id="node12" class="node">
<title>Gene(1)</title>
<ellipse fill="none" stroke="red" cx="43.08" cy="-281" rx="39.15" ry="39.15"/>
<ellipse fill="none" stroke="red" cx="43.08" cy="-281" rx="43.15" ry="43.15"/>
<text text-anchor="middle" x="43.08" y="-276.8" font-family="Times,serif" font-size="14.00">Gene(1)</text>
</g>
<!-- Gene(1)&#45;&gt;CelComp(5) -->
<g id="edge30" class="edge">
<title>Gene(1)&#45;&gt;CelComp(5)</title>
<path fill="none" stroke="blue" d="M64.59,-318.39C75.07,-335.56 88.84,-355.49 104.15,-371 185.81,-453.72 210.04,-480.68 319.77,-519 363.89,-534.4 416.79,-537.45 456.93,-536.9"/>
<text text-anchor="middle" x="249.67" y="-514.8" font-family="Times,serif" font-size="14.00">located_in</text>
</g>
<!-- Gene(1)&#45;&gt;BioProc(4) -->
<g id="edge31" class="edge">
<title>Gene(1)&#45;&gt;BioProc(4)</title>
<path fill="none" stroke="black" d="M73.87,-311.58C83.04,-319.91 93.54,-328.43 104.15,-335 191.76,-389.18 219.31,-397.23 319.77,-420 366.87,-430.67 421.69,-433.87 461.84,-434.57"/>
<text text-anchor="middle" x="249.67" y="-418.8" font-family="Times,serif" font-size="14.00">participates_in</text>
</g>
<!-- Gene(1)&#45;&gt;MolFunc(3) -->
<g id="edge27" class="edge">
<title>Gene(1)&#45;&gt;MolFunc(3)</title>
<path fill="none" stroke="black" d="M80.19,-303.46C87.85,-307.29 96.07,-310.75 104.15,-313 226.35,-346.98 376.44,-344.63 458.32,-339.85"/>
<text text-anchor="middle" x="249.67" y="-343.8" font-family="Times,serif" font-size="14.00">has_function</text>
</g>
<!-- Gene(1)&#45;&gt;Publication(2) -->
<g id="edge32" class="edge">
<title>Gene(1)&#45;&gt;Publication(2)</title>
<path fill="none" stroke="blue" d="M84.67,-269.64C115.55,-261.12 159.12,-249.38 197.57,-240 296.02,-215.99 326.23,-186.26 423.98,-213 448.29,-219.65 472.7,-234.33 490.65,-246.99"/>
<text text-anchor="middle" x="249.67" y="-242.8" font-family="Times,serif" font-size="14.00">pub_in</text>
</g>
<!-- Gene(1)&#45;&gt;Protein(7) -->
<g id="edge24" class="edge">
<title>Gene(1)&#45;&gt;Protein(7)</title>
<path fill="none" stroke="blue" d="M46.07,-324.22C50.35,-389.76 63.6,-517.22 104.15,-617 132.04,-685.61 146.25,-701.6 197.57,-755 244.31,-803.63 255.69,-823.95 319.77,-845 363.77,-859.45 378.71,-854.8 423.98,-845 446.21,-840.19 469.49,-829.69 487.41,-820.28"/>
<text text-anchor="middle" x="249.67" y="-839.8" font-family="Times,serif" font-size="14.00">enc</text>
</g>
<!-- Gene(1)&#45;&gt;Trait(16) -->
<g id="edge22" class="edge">
<title>Gene(1)&#45;&gt;Trait(16)</title>
<path fill="none" stroke="blue" d="M44.65,-237.75C47.58,-188.79 59.53,-109.44 104.15,-60 201.19,47.52 401.83,-17.1 483.2,-49.66"/>
<text text-anchor="middle" x="249.67" y="-9.8" font-family="Times,serif" font-size="14.00">cooc_wi</text>
</g>
<!-- Gene(1)&#45;&gt;Phenotype(6) -->
<g id="edge28" class="edge">
<title>Gene(1)&#45;&gt;Phenotype(6)</title>
<path fill="none" stroke="blue" d="M56.97,-240.13C66.55,-215.52 81.86,-185.15 104.15,-165 137.28,-135.05 153.71,-136.37 197.57,-128 296.44,-109.13 325.19,-113.71 423.98,-133 442.15,-136.55 461.5,-142.99 477.95,-149.31"/>
<text text-anchor="middle" x="249.67" y="-130.8" font-family="Times,serif" font-size="14.00">has_observ_pheno</text>
</g>
<!-- Gene(8) -->
<g id="node13" class="node">
<title>Gene(8)</title>
<polygon fill="none" stroke="darkgreen" points="291.79,-165.54 291.79,-180.45 267.12,-191 232.23,-191 207.56,-180.45 207.56,-165.54 232.23,-155 267.12,-155 291.79,-165.54"/>
<polygon fill="none" stroke="darkgreen" points="295.77,-162.9 295.77,-183.1 267.93,-195 231.42,-195 203.58,-183.1 203.58,-162.9 231.42,-151 267.93,-151 295.77,-162.9"/>
<text text-anchor="middle" x="249.67" y="-168.8" font-family="Times,serif" font-size="14.00">Gene(8)</text>
</g>
<!-- Gene(1)&#45;&gt;Gene(8) -->
<g id="edge26" class="edge">
<title>Gene(1)&#45;&gt;Gene(8)</title>
<path fill="none" stroke="blue" d="M60.17,-241.32C69.99,-222.3 84.49,-201.09 104.15,-189 133.72,-170.82 173.22,-167.55 203.45,-168.42"/>
<text text-anchor="middle" x="141.86" y="-205.8" font-family="Times,serif" font-size="14.00">genetic</text>
<text text-anchor="middle" x="141.86" y="-191.8" font-family="Times,serif" font-size="14.00">physical</text>
</g>
<!-- Protein(10) -->
<g id="node15" class="node">
<title>Protein(10)</title>
<ellipse fill="none" stroke="black" cx="249.67" cy="-622" rx="50.27" ry="18"/>
<text text-anchor="middle" x="249.67" y="-617.8" font-family="Times,serif" font-size="14.00">Protein(10)</text>
</g>
<!-- Gene(1)&#45;&gt;Protein(10) -->
<g id="edge23" class="edge">
<title>Gene(1)&#45;&gt;Protein(10)</title>
<path fill="none" stroke="black" d="M49.31,-323.83C58.1,-389.85 77.51,-512.47 104.15,-547 130.14,-580.68 175.52,-600.68 208.51,-611.45"/>
<text text-anchor="middle" x="141.86" y="-601.8" font-family="Times,serif" font-size="14.00">enc</text>
</g>
<!-- Gene(9) -->
<g id="node17" class="node">
<title>Gene(9)</title>
<ellipse fill="none" stroke="black" cx="249.67" cy="-281" rx="39.15" ry="18"/>
<text text-anchor="middle" x="249.67" y="-276.8" font-family="Times,serif" font-size="14.00">Gene(9)</text>
</g>
<!-- Gene(1)&#45;&gt;Gene(9) -->
<g id="edge25" class="edge">
<title>Gene(1)&#45;&gt;Gene(9)</title>
<path fill="none" stroke="black" d="M86.47,-281C122.99,-281 175.23,-281 210.48,-281"/>
<text text-anchor="middle" x="141.86" y="-297.8" font-family="Times,serif" font-size="14.00">genetic</text>
<text text-anchor="middle" x="141.86" y="-283.8" font-family="Times,serif" font-size="14.00">physical</text>
</g>
<!-- SNP(15) -->
<g id="node18" class="node">
<title>SNP(15)</title>
<ellipse fill="none" stroke="black" cx="249.67" cy="-65" rx="41.13" ry="18"/>
<text text-anchor="middle" x="249.67" y="-60.8" font-family="Times,serif" font-size="14.00">SNP(15)</text>
</g>
<!-- Gene(1)&#45;&gt;SNP(15) -->
<g id="edge29" class="edge">
<title>Gene(1)&#45;&gt;SNP(15)</title>
<path fill="none" stroke="black" d="M45.4,-237.93C49.19,-194.26 62.07,-128.01 104.15,-91 132.77,-65.83 177.25,-61.19 209.31,-61.69"/>
<text text-anchor="middle" x="141.86" y="-93.8" font-family="Times,serif" font-size="14.00">has_variation</text>
</g>
<!-- Reaction(13) -->
<g id="node14" class="node">
<title>Reaction(13)</title>
<ellipse fill="none" stroke="black" cx="736.46" cy="-584" rx="56.04" ry="18"/>
<text text-anchor="middle" x="736.46" y="-579.8" font-family="Times,serif" font-size="14.00">Reaction(13)</text>
</g>
<!-- Reaction(13)&#45;&gt;Path(14) -->
<g id="edge1" class="edge">
<title>Reaction(13)&#45;&gt;Path(14)</title>
<path fill="none" stroke="blue" d="M792.74,-584C821.11,-584 855.29,-584 882.39,-584"/>
<text text-anchor="middle" x="844.37" y="-586.8" font-family="Times,serif" font-size="14.00">part_of</text>
</g>
<!-- Protein(10)&#45;&gt;CelComp(5) -->
<g id="edge8" class="edge">
<title>Protein(10)&#45;&gt;CelComp(5)</title>
<path fill="none" stroke="black" d="M288.54,-610.43C298.64,-607.51 309.59,-604.5 319.77,-602 365.66,-590.75 379.34,-596.49 423.98,-581 445.39,-573.57 468.08,-562.2 485.88,-552.39"/>
<text text-anchor="middle" x="371.88" y="-604.8" font-family="Times,serif" font-size="14.00">located_in</text>
</g>
<!-- Protein(10)&#45;&gt;BioProc(4) -->
<g id="edge9" class="edge">
<title>Protein(10)&#45;&gt;BioProc(4)</title>
<path fill="none" stroke="blue" d="M267.32,-604.98C280.6,-592.14 300.17,-574.77 319.77,-563 362.44,-537.38 383.08,-550.36 423.98,-522 433.8,-515.18 433.49,-510.42 441.98,-502 458.52,-485.58 478.21,-468.16 493.5,-455.06"/>
<text text-anchor="middle" x="371.88" y="-565.8" font-family="Times,serif" font-size="14.00">participates_in</text>
</g>
<!-- Protein(10)&#45;&gt;MolFunc(3) -->
<g id="edge5" class="edge">
<title>Protein(10)&#45;&gt;MolFunc(3)</title>
<path fill="none" stroke="blue" d="M266.17,-604.9C277.7,-591.26 292.92,-571.16 301.77,-551 317.66,-514.85 294.21,-494.09 319.77,-464 351.89,-426.19 383.44,-452.59 423.98,-424 434.02,-416.91 433.36,-411.76 441.98,-403 458.07,-386.63 477.41,-369.49 492.65,-356.52"/>
<text text-anchor="middle" x="371.88" y="-466.8" font-family="Times,serif" font-size="14.00">has_function</text>
</g>
<!-- Protein(10)&#45;&gt;Publication(2) -->
<g id="edge10" class="edge">
<title>Protein(10)&#45;&gt;Publication(2)</title>
<path fill="none" stroke="black" d="M267.03,-604.87C278.86,-591.37 294.07,-571.46 301.77,-551 316.41,-512.14 294.63,-398.05 319.77,-365 349.81,-325.52 383.44,-353.59 423.98,-325 434.02,-317.91 432.15,-311.39 441.98,-304 451.33,-296.96 462.33,-290.9 473.02,-285.9"/>
<text text-anchor="middle" x="371.88" y="-367.8" font-family="Times,serif" font-size="14.00">pub_in</text>
</g>
<!-- Protein(10)&#45;&gt;Protein(7) -->
<g id="edge2" class="edge">
<title>Protein(10)&#45;&gt;Protein(7)</title>
<path fill="none" stroke="black" d="M252.75,-640.03C257.67,-673.72 273.35,-745.84 319.77,-780 342.3,-796.57 415.15,-801 466.13,-802"/>
<text text-anchor="middle" x="371.88" y="-830.8" font-family="Times,serif" font-size="14.00">h_s_s(&lt;=4)</text>
<text text-anchor="middle" x="371.88" y="-816.8" font-family="Times,serif" font-size="14.00">ortho(&lt;=4)</text>
<text text-anchor="middle" x="371.88" y="-802.8" font-family="Times,serif" font-size="14.00">xref(&lt;=4)</text>
</g>
<!-- Protein(10)&#45;&gt;Protein(7) -->
<g id="edge12" class="edge">
<title>Protein(10)&#45;&gt;Protein(7)</title>
<path fill="none" stroke="blue" d="M257.06,-640.07C266.65,-664.43 287.23,-707.26 319.77,-729 358.92,-755.14 383.42,-724.09 423.98,-748 434.86,-754.41 431.84,-762.45 441.98,-770 449.28,-775.44 457.65,-780.15 466.11,-784.14"/>
<polygon fill="blue" stroke="blue" points="464.72,-787.36 475.28,-788.21 467.56,-780.96 464.72,-787.36"/>
<text text-anchor="middle" x="371.88" y="-764.8" font-family="Times,serif" font-size="14.00">genetic(&lt;=6)</text>
<text text-anchor="middle" x="371.88" y="-750.8" font-family="Times,serif" font-size="14.00">physical(&lt;=6)</text>
</g>
<!-- Protein(10)&#45;&gt;ProtDomain(17) -->
<g id="edge4" class="edge">
<title>Protein(10)&#45;&gt;ProtDomain(17)</title>
<path fill="none" stroke="black" d="M268.13,-638.94C281.38,-651 300.54,-666.8 319.77,-677 344.38,-690.04 411.36,-709.82 460.82,-723.52"/>
<text text-anchor="middle" x="371.88" y="-715.8" font-family="Times,serif" font-size="14.00">has_domain</text>
</g>
<!-- Protein(10)&#45;&gt;Enzyme(122) -->
<g id="edge7" class="edge">
<title>Protein(10)&#45;&gt;Enzyme(122)</title>
<path fill="none" stroke="blue" d="M291.15,-632.33C300.53,-634.62 310.48,-636.97 319.77,-639 364.76,-648.82 415.79,-658.54 454.89,-665.69"/>
<text text-anchor="middle" x="371.88" y="-661.8" font-family="Times,serif" font-size="14.00">is_a</text>
</g>
<!-- Protein(10)&#45;&gt;Protein(10) -->
<g id="edge3" class="edge">
<title>Protein(10)&#45;&gt;Protein(10)</title>
<path fill="none" stroke="blue" d="M240.15,-639.78C238.53,-649.31 241.7,-658 249.67,-658 257.65,-658 260.82,-649.31 259.2,-639.78"/>
<text text-anchor="middle" x="249.67" y="-688.8" font-family="Times,serif" font-size="14.00">h_s_s(&lt;=4)</text>
<text text-anchor="middle" x="249.67" y="-674.8" font-family="Times,serif" font-size="14.00">ortho(&lt;=4)</text>
<text text-anchor="middle" x="249.67" y="-660.8" font-family="Times,serif" font-size="14.00">xref(&lt;=4)</text>
</g>
<!-- Protein(10)&#45;&gt;Protein(10) -->
<g id="edge11" class="edge">
<title>Protein(10)&#45;&gt;Protein(10)</title>
<path fill="none" stroke="black" d="M235.74,-639.51C224.54,-664.11 229.18,-700 249.67,-700 267.61,-700 273.41,-672.52 267.07,-649.17"/>
<polygon fill="black" stroke="black" points="270.27,-647.75 263.61,-639.51 263.68,-650.11 270.27,-647.75"/>
<text text-anchor="middle" x="249.67" y="-716.8" font-family="Times,serif" font-size="14.00">genetic(&lt;=6)</text>
<text text-anchor="middle" x="249.67" y="-702.8" font-family="Times,serif" font-size="14.00">physical(&lt;=6)</text>
</g>
<!-- Enzyme(12) -->
<g id="node16" class="node">
<title>Enzyme(12)</title>
<ellipse fill="none" stroke="black" cx="519.66" cy="-619" rx="53.63" ry="18"/>
<text text-anchor="middle" x="519.66" y="-614.8" font-family="Times,serif" font-size="14.00">Enzyme(12)</text>
</g>
<!-- Protein(10)&#45;&gt;Enzyme(12) -->
<g id="edge6" class="edge">
<title>Protein(10)&#45;&gt;Enzyme(12)</title>
<path fill="none" stroke="black" d="M300.14,-621.44C347.17,-620.92 417.69,-620.13 465.81,-619.59"/>
<text text-anchor="middle" x="371.88" y="-623.8" font-family="Times,serif" font-size="14.00">is_a</text>
</g>
<!-- Enzyme(12)&#45;&gt;Reaction(133) -->
<g id="edge13" class="edge">
<title>Enzyme(12)&#45;&gt;Reaction(133)</title>
<path fill="none" stroke="blue" d="M571.02,-624.39C599.54,-627.44 635.62,-631.31 666.71,-634.64"/>
<text text-anchor="middle" x="632.05" y="-634.8" font-family="Times,serif" font-size="14.00">ca_by</text>
</g>
<!-- Enzyme(12)&#45;&gt;Reaction(13) -->
<g id="edge14" class="edge">
<title>Enzyme(12)&#45;&gt;Reaction(13)</title>
<path fill="none" stroke="black" d="M568.33,-611.23C603.31,-605.53 650.68,-597.81 686.06,-592.05"/>
<text text-anchor="middle" x="632.05" y="-604.8" font-family="Times,serif" font-size="14.00">ca_by</text>
</g>
<!-- Gene(9)&#45;&gt;CelComp(5) -->
<g id="edge18" class="edge">
<title>Gene(9)&#45;&gt;CelComp(5)</title>
<path fill="none" stroke="black" d="M279.36,-292.89C287.93,-297.85 296.45,-304.48 301.77,-313 321.8,-345.02 294.59,-453.85 319.77,-482 351.4,-517.34 378.05,-493.16 423.98,-505 439.41,-508.98 456.13,-513.76 471.16,-518.24"/>
<text text-anchor="middle" x="371.88" y="-507.8" font-family="Times,serif" font-size="14.00">located_in</text>
</g>
<!-- Gene(9)&#45;&gt;BioProc(4) -->
<g id="edge19" class="edge">
<title>Gene(9)&#45;&gt;BioProc(4)</title>
<path fill="none" stroke="blue" d="M278.39,-293.21C286.99,-298.22 295.78,-304.8 301.77,-313 320.74,-338.93 296.67,-360.68 319.77,-383 353.88,-415.95 378.05,-394.16 423.98,-406 440.08,-410.15 457.57,-415.18 473.09,-419.82"/>
<text text-anchor="middle" x="371.88" y="-408.8" font-family="Times,serif" font-size="14.00">participates_in</text>
</g>
<!-- Gene(9)&#45;&gt;MolFunc(3) -->
<g id="edge16" class="edge">
<title>Gene(9)&#45;&gt;MolFunc(3)</title>
<path fill="none" stroke="black" d="M287.8,-285.06C323.08,-289.27 377.49,-296.69 423.98,-307 440.04,-310.56 457.37,-315.39 472.76,-320.03"/>
<text text-anchor="middle" x="371.88" y="-309.8" font-family="Times,serif" font-size="14.00">has_function</text>
</g>
<!-- Gene(9)&#45;&gt;Publication(2) -->
<g id="edge20" class="edge">
<title>Gene(9)&#45;&gt;Publication(2)</title>
<path fill="none" stroke="black" d="M286.06,-274.3C296.84,-272.55 308.76,-270.9 319.77,-270 362.79,-266.49 411.22,-266.17 449.51,-266.76"/>
<text text-anchor="middle" x="371.88" y="-272.8" font-family="Times,serif" font-size="14.00">pub_in</text>
</g>
<!-- Gene(9)&#45;&gt;Trait(16) -->
<g id="edge15" class="edge">
<title>Gene(9)&#45;&gt;Trait(16)</title>
<path fill="none" stroke="blue" d="M278.22,-268.66C286.81,-263.64 295.64,-257.09 301.77,-249 318.86,-226.48 302.62,-210.47 319.77,-188 361.4,-133.46 434.74,-97.32 479.78,-79.06"/>
<text text-anchor="middle" x="371.88" y="-190.8" font-family="Times,serif" font-size="14.00">cooc_wi</text>
</g>
<!-- Gene(9)&#45;&gt;Phenotype(6) -->
<g id="edge17" class="edge">
<title>Gene(9)&#45;&gt;Phenotype(6)</title>
<path fill="none" stroke="blue" d="M277.46,-268.27C290.22,-262.29 305.72,-255.14 319.77,-249 373.15,-225.65 435.33,-200.31 475.76,-184.07"/>
<text text-anchor="middle" x="371.88" y="-251.8" font-family="Times,serif" font-size="14.00">has_observ_pheno</text>
</g>
<!-- SNP(15)&#45;&gt;Trait(16) -->
<g id="edge21" class="edge">
<title>SNP(15)&#45;&gt;Trait(16)</title>
<path fill="none" stroke="black" d="M290.79,-65C338.69,-65 418.73,-65 470.08,-65"/>
<text text-anchor="middle" x="371.88" y="-67.8" font-family="Times,serif" font-size="14.00">associated_with</text>
</g>
</g>
</svg>
