<svg width="934px" height="403px"
 viewBox="0.00 0.00 700.72 302.00" xmlns="http://www.w3.org/2000/svg" xmlns:xlink="http://www.w3.org/1999/xlink">
<g id="graph0" class="graph" transform=" rotate(0) translate(4 298)">
<title>%3</title>
<polygon fill="white" stroke="transparent" points="-4,4 -4,-298 696.72,-298 696.72,4 -4,4"/>
<!-- BioProc(8) -->
<g id="node1" class="node">
<title>BioProc(8)</title>
<polygon fill="none" stroke="darkgreen" points="676.47,-200.54 676.47,-215.46 645.16,-226 600.87,-226 569.56,-215.46 569.56,-200.54 600.87,-190 645.16,-190 676.47,-200.54"/>
<polygon fill="none" stroke="darkgreen" points="680.47,-197.67 680.47,-218.33 645.81,-230 600.22,-230 565.56,-218.33 565.56,-197.67 600.22,-186 645.81,-186 680.47,-197.67"/>
<text text-anchor="middle" x="623.02" y="-203.8" font-family="Times,serif" font-size="14.00">BioProc(8)</text>
</g>
<!-- CelComp(9) -->
<g id="node2" class="node">
<title>CelComp(9)</title>
<polygon fill="none" stroke="darkgreen" points="681.62,-138.54 681.62,-153.46 647.29,-164 598.74,-164 564.41,-153.46 564.41,-138.54 598.74,-128 647.29,-128 681.62,-138.54"/>
<polygon fill="none" stroke="darkgreen" points="685.61,-135.59 685.61,-156.41 647.89,-168 598.14,-168 560.42,-156.41 560.42,-135.59 598.14,-124 647.89,-124 685.61,-135.59"/>
<text text-anchor="middle" x="623.02" y="-141.8" font-family="Times,serif" font-size="14.00">CelComp(9)</text>
</g>
<!-- EC(10) -->
<g id="node3" class="node">
<title>EC(10)</title>
<polygon fill="none" stroke="darkgreen" points="662.24,-76.54 662.24,-91.46 639.26,-102 606.77,-102 583.79,-91.46 583.79,-76.54 606.77,-66 639.26,-66 662.24,-76.54"/>
<polygon fill="none" stroke="darkgreen" points="666.25,-73.98 666.25,-94.02 640.14,-106 605.89,-106 579.78,-94.02 579.78,-73.98 605.89,-62 640.14,-62 666.25,-73.98"/>
<text text-anchor="middle" x="623.02" y="-79.8" font-family="Times,serif" font-size="14.00">EC(10)</text>
</g>
<!-- MolFunc(7) -->
<g id="node4" class="node">
<title>MolFunc(7)</title>
<polygon fill="none" stroke="darkgreen" points="680.41,-14.54 680.41,-29.46 646.79,-40 599.24,-40 565.62,-29.46 565.62,-14.54 599.24,-4 646.79,-4 680.41,-14.54"/>
<polygon fill="none" stroke="darkgreen" points="684.42,-11.61 684.42,-32.39 647.4,-44 598.63,-44 561.61,-32.39 561.61,-11.61 598.63,0 647.4,0 684.42,-11.61"/>
<text text-anchor="middle" x="623.02" y="-17.8" font-family="Times,serif" font-size="14.00">MolFunc(7)</text>
</g>
<!-- Publication(6) -->
<g id="node5" class="node">
<title>Publication(6)</title>
<polygon fill="none" stroke="darkgreen" points="688.91,-264.54 688.91,-279.46 650.31,-290 595.72,-290 557.12,-279.46 557.12,-264.54 595.72,-254 650.31,-254 688.91,-264.54"/>
<polygon fill="none" stroke="darkgreen" points="692.92,-261.49 692.92,-282.51 650.85,-294 595.18,-294 553.11,-282.51 553.11,-261.49 595.18,-250 650.85,-250 692.92,-261.49"/>
<text text-anchor="middle" x="623.02" y="-267.8" font-family="Times,serif" font-size="14.00">Publication(6)</text>
</g>
<!-- Gene(1) -->
<g id="node6" class="node">
<title>Gene(1)</title>
<ellipse fill="none" stroke="red" cx="43.08" cy="-204" rx="39.15" ry="39.15"/>
<ellipse fill="none" stroke="red" cx="43.08" cy="-204" rx="43.15" ry="43.15"/>
<text text-anchor="middle" x="43.08" y="-199.8" font-family="Times,serif" font-size="14.00">Gene(1)</text>
</g>
<!-- Gene(1)&#45;&gt;Publication(6) -->
<g id="edge11" class="edge">
<title>Gene(1)&#45;&gt;Publication(6)</title>
<path fill="none" stroke="black" d="M80.6,-225.41C100.84,-236.11 126.86,-248.03 151.71,-254 291.14,-287.5 460.43,-283.53 553.11,-277.72"/>
<text text-anchor="middle" x="305.52" y="-280.8" font-family="Times,serif" font-size="14.00">pub_in</text>
</g>
<!-- Protein(11) -->
<g id="node7" class="node">
<title>Protein(11)</title>
<polygon fill="none" stroke="darkgreen" points="264.25,-215.54 264.25,-230.46 232.41,-241 187.38,-241 155.53,-230.46 155.53,-215.54 187.38,-205 232.41,-205 264.25,-215.54"/>
<polygon fill="none" stroke="darkgreen" points="268.27,-212.66 268.27,-233.34 233.06,-245 186.73,-245 151.52,-233.34 151.52,-212.66 186.73,-201 233.06,-201 268.27,-212.66"/>
<text text-anchor="middle" x="209.89" y="-218.8" font-family="Times,serif" font-size="14.00">Protein(11)</text>
</g>
<!-- Gene(1)&#45;&gt;Protein(11) -->
<g id="edge8" class="edge">
<title>Gene(1)&#45;&gt;Protein(11)</title>
<path fill="none" stroke="blue" d="M86.09,-208.84C105.93,-211.13 129.92,-213.9 151.41,-216.37"/>
<text text-anchor="middle" x="118.93" y="-216.8" font-family="Times,serif" font-size="14.00">enc</text>
</g>
<!-- Gene(2) -->
<g id="node8" class="node">
<title>Gene(2)</title>
<ellipse fill="none" stroke="black" cx="209.89" cy="-165" rx="39.15" ry="18"/>
<text text-anchor="middle" x="209.89" y="-160.8" font-family="Times,serif" font-size="14.00">Gene(2)</text>
</g>
<!-- Gene(1)&#45;&gt;Gene(2) -->
<g id="edge10" class="edge">
<title>Gene(1)&#45;&gt;Gene(2)</title>
<path fill="none" stroke="blue" d="M85.24,-194.26C112.89,-187.72 148.89,-179.2 174.91,-173.04"/>
<text text-anchor="middle" x="118.93" y="-191.8" font-family="Times,serif" font-size="14.00">ortho</text>
</g>
<!-- Protein(3) -->
<g id="node9" class="node">
<title>Protein(3)</title>
<ellipse fill="none" stroke="black" cx="388.93" cy="-146" rx="45.93" ry="18"/>
<text text-anchor="middle" x="388.93" y="-141.8" font-family="Times,serif" font-size="14.00">Protein(3)</text>
</g>
<!-- Gene(1)&#45;&gt;Protein(3) -->
<g id="edge9" class="edge">
<title>Gene(1)&#45;&gt;Protein(3)</title>
<path fill="none" stroke="black" d="M73.93,-173.49C93.99,-155.26 122.09,-133.8 151.71,-124 220.72,-101.16 306.86,-120.27 353.71,-134.34"/>
<text text-anchor="middle" x="209.89" y="-126.8" font-family="Times,serif" font-size="14.00">enc</text>
</g>
<!-- Gene(2)&#45;&gt;Protein(3) -->
<g id="edge1" class="edge">
<title>Gene(2)&#45;&gt;Protein(3)</title>
<path fill="none" stroke="black" d="M248.01,-161.02C276.09,-158 314.74,-153.85 344.31,-150.68"/>
<text text-anchor="middle" x="305.52" y="-158.8" font-family="Times,serif" font-size="14.00">enc</text>
</g>
<!-- Protein(3)&#45;&gt;BioProc(8) -->
<g id="edge6" class="edge">
<title>Protein(3)&#45;&gt;BioProc(8)</title>
<path fill="none" stroke="black" d="M426.52,-156.62C435.16,-159.08 444.34,-161.66 452.9,-164 492.85,-174.91 538.28,-186.69 571.98,-195.32"/>
<text text-anchor="middle" x="494.1" y="-186.8" font-family="Times,serif" font-size="14.00">participates_in</text>
</g>
<!-- Protein(3)&#45;&gt;CelComp(9) -->
<g id="edge5" class="edge">
<title>Protein(3)&#45;&gt;CelComp(9)</title>
<path fill="none" stroke="blue" d="M434.96,-146C470.55,-146 520.62,-146 560,-146"/>
<text text-anchor="middle" x="494.1" y="-148.8" font-family="Times,serif" font-size="14.00">located_in</text>
</g>
<!-- Protein(3)&#45;&gt;EC(10) -->
<g id="edge2" class="edge">
<title>Protein(3)&#45;&gt;EC(10)</title>
<path fill="none" stroke="black" d="M426.52,-135.38C435.16,-132.92 444.34,-130.34 452.9,-128 496.36,-116.14 546.31,-103.23 580.59,-94.48"/>
<text text-anchor="middle" x="494.1" y="-130.8" font-family="Times,serif" font-size="14.00">cat_c</text>
</g>
<!-- Protein(3)&#45;&gt;MolFunc(7) -->
<g id="edge3" class="edge">
<title>Protein(3)&#45;&gt;MolFunc(7)</title>
<path fill="none" stroke="blue" d="M405.77,-129.08C417.8,-116.97 435.24,-100.94 452.9,-90 491.1,-66.34 538.95,-48 574,-36.37"/>
<text text-anchor="middle" x="494.1" y="-92.8" font-family="Times,serif" font-size="14.00">has_function</text>
</g>
<!-- Protein(3)&#45;&gt;Publication(6) -->
<g id="edge7" class="edge">
<title>Protein(3)&#45;&gt;Publication(6)</title>
<path fill="none" stroke="blue" d="M405.8,-162.86C417.85,-174.95 435.29,-190.97 452.9,-202 490.33,-225.45 536.97,-244.07 571.78,-256.2"/>
<text text-anchor="middle" x="494.1" y="-243.8" font-family="Times,serif" font-size="14.00">pub_in</text>
</g>
<!-- Protein(3)&#45;&gt;Protein(3) -->
<g id="edge4" class="edge">
<title>Protein(3)&#45;&gt;Protein(3)</title>
<path fill="none" stroke="black" d="M374.29,-163.41C371.56,-173.09 376.44,-182 388.93,-182 401.43,-182 406.31,-173.09 403.57,-163.41"/>
<text text-anchor="middle" x="388.93" y="-184.8" font-family="Times,serif" font-size="14.00">it_wi(&lt;=7)</text>
</g>
</g>
</svg>
