<?xml version="1.0" encoding="UTF-8"?>
<!DOCTYPE svg PUBLIC "-//W3C//DTD SVG 1.1//EN" "http://www.w3.org/Graphics/SVG/1.1/DTD/svg11.dtd">
<svg xmlns="http://www.w3.org/2000/svg" xml:space="preserve" width="1024px" height="1024px" shape-rendering="geometricPrecision" text-rendering="geometricPrecision" image-rendering="optimizeQuality" fill-rule="evenodd" clip-rule="evenodd" viewBox="0 0 10240 10240" xmlns:xlink="http://www.w3.org/1999/xlink">
	<title>gearwheel icon</title>
	<desc>gearwheel icon from the IconExperience.com O-Collection. Copyright by INCORS GmbH (www.incors.com).</desc>
	<path id="curve0" fill="#cccccc" d="M7140 2420c110,82 214,171 313,265 42,40 97,54 153,39l874 -238c135,-37 272,15 350,131 127,191 234,377 334,584 61,126 35,271 -65,369l-649 630c-41,40 -57,95 -44,151 31,134 54,270 69,406 6,58 39,104 92,128l822 379c127,59 199,186 184,326 -25,228 -64,439 -120,661 -35,136 -147,230 -287,240l-904 65c-58,4 -105,36 -131,87 -62,122 -131,240 -208,354 -32,48 -37,105 -12,157l385 818c60,127 33,271 -69,368 -166,158 -332,296 -519,430 -114,82 -261,81 -374,-1l-734 -531c-47,-34 -103,-40 -156,-18 -125,53 -253,99 -383,137 -56,16 -96,57 -110,113l-231 874c-36,136 -149,229 -290,238 -230,14 -445,13 -675,-5 -140,-11 -252,-105 -286,-241l-221 -879c-14,-56 -53,-97 -108,-114 -129,-39 -255,-86 -378,-140 -53,-23 -110,-18 -157,16l-739 522c-115,81 -262,79 -374,-4 -186,-137 -350,-277 -516,-439 -100,-98 -125,-242 -64,-368l395 -816c25,-52 22,-109 -10,-157 -73,-112 -139,-228 -198,-348 -26,-52 -73,-84 -130,-89l-904 -76c-140,-12 -251,-107 -284,-243 -55,-225 -91,-438 -113,-668 -14,-139 60,-266 188,-323l827 -370c53,-24 87,-70 93,-127 16,-133 40,-264 71,-394 14,-56 -2,-111 -43,-151l-644 -639c-99,-99 -124,-243 -61,-369 102,-207 211,-393 342,-584 79,-116 217,-166 352,-127l871 248c56,16 111,2 153,-37 98,-92 201,-178 309,-258 46,-34 70,-86 64,-143l-83 -904c-13,-139 62,-266 190,-322 211,-93 414,-166 635,-228 135,-38 273,12 352,128l508 749c32,48 84,73 141,70 136,-7 272,-7 407,2 58,4 109,-21 142,-68l518 -745c80,-115 218,-164 352,-125 221,64 422,139 632,233 128,58 201,185 187,324l-92 901c-6,57 17,110 63,144zm-2020 780c1060,0 1920,860 1920,1920 0,1060 -860,1920 -1920,1920 -1060,0 -1920,-860 -1920,-1920 0,-1060 860,-1920 1920,-1920z"/>
</svg>
