<?xml version="1.0" encoding="UTF-8" standalone="no"?>
<svg
   xmlns:dc="http://purl.org/dc/elements/1.1/"
   xmlns:cc="http://creativecommons.org/ns#"
   xmlns:rdf="http://www.w3.org/1999/02/22-rdf-syntax-ns#"
   xmlns:svg="http://www.w3.org/2000/svg"
   xmlns="http://www.w3.org/2000/svg"
   xmlns:sodipodi="http://sodipodi.sourceforge.net/DTD/sodipodi-0.dtd"
   xmlns:inkscape="http://www.inkscape.org/namespaces/inkscape"
   xml:space="preserve"
   width="36"
   height="36"
   viewBox="0 0 360 360"
   id="svg2"
   version="1.1"
   inkscape:version="0.91 r13725"
   sodipodi:docname="tag_auto.svg"
   style="clip-rule:evenodd;fill-rule:evenodd;image-rendering:optimizeQuality;shape-rendering:geometricPrecision;text-rendering:geometricPrecision"
   inkscape:export-filename="C:\code\qtl\common\client\src\main\webapp\html\GeneMap\assets\img\tag_auto.png"
   inkscape:export-xdpi="90"
   inkscape:export-ydpi="90"><metadata
     id="metadata13"><rdf:RDF><cc:Work
         rdf:about=""><dc:format>image/svg+xml</dc:format><dc:type
           rdf:resource="http://purl.org/dc/dcmitype/StillImage" /><dc:title>tag icon</dc:title></cc:Work></rdf:RDF></metadata><defs
     id="defs11" /><sodipodi:namedview
     pagecolor="#ffffff"
     bordercolor="#666666"
     borderopacity="1"
     objecttolerance="10"
     gridtolerance="10"
     guidetolerance="10"
     inkscape:pageopacity="0"
     inkscape:pageshadow="2"
     inkscape:window-width="1920"
     inkscape:window-height="1018"
     id="namedview9"
     showgrid="false"
     inkscape:zoom="7.375"
     inkscape:cx="44.155375"
     inkscape:cy="53.028972"
     inkscape:window-x="-8"
     inkscape:window-y="-8"
     inkscape:window-maximized="1"
     inkscape:current-layer="svg2" /><title
     id="title4">tag icon</title><desc
     id="desc6">tag icon from the IconExperience.com O-Collection. Copyright by INCORS GmbH (www.incors.com).</desc><path
     id="curve0"
     d="M 30,157.74843 30,54.369354 c 0,-13.403092 10.964815,-24.36935 24.366255,-24.36935 l 103.366225,0 c 6.70072,0 12.4877,2.398835 17.24674,7.120422 L 322.89,185.05011 c 9.47999,9.48084 9.47999,24.97835 0,34.46002 L 219.52378,322.88937 c -9.48,9.48084 -24.97541,9.48084 -34.45541,0 L 37.119515,174.95927 C 32.360481,170.2001 30,164.4501 30,157.71093 Z M 64.455408,167.83927 167.82163,64.459778 305.64326,202.29929 202.27703,305.67853 64.455408,167.83927 Z M 78.73251,54.369354 c 13.439515,0 24.36626,10.928174 24.36626,24.36935 0,13.441259 -10.926745,24.369436 -24.36626,24.369436 -13.439512,0 -24.366255,-10.928177 -24.366255,-24.369436 0,-13.441176 10.926743,-24.36935 24.366255,-24.36935 z"
     inkscape:connector-curvature="0"
     style="fill:#444444;fill-opacity:1" /><g
     style="font-style:normal;font-variant:normal;font-weight:normal;font-stretch:normal;font-size:200px;line-height:125%;font-family:sans-serif;-inkscape-font-specification:sans-serif;letter-spacing:0px;word-spacing:0px;clip-rule:evenodd;fill:#444444;fill-opacity:1;fill-rule:evenodd;stroke:none;stroke-width:1px;stroke-linecap:butt;stroke-linejoin:miter;stroke-opacity:1;image-rendering:optimizeQuality;shape-rendering:geometricPrecision;text-rendering:geometricPrecision"
     id="text4141-4"
     transform="translate(-94.915253,-10.847457)" /><path
     inkscape:connector-curvature="0"
     style="fill:#444444;fill-opacity:1"
     id="curve1"
     d="m 194.71649,125.2586 -69.24421,-2.62532 50.47379,61.47258 -34.6221,-1.31266 77.03167,97.2222 -23.84673,-57.98142 42.61714,-0.86583 z" /></svg>