<?xml version="1.0" encoding="UTF-8" standalone="no"?>
<svg
   xmlns:dc="http://purl.org/dc/elements/1.1/"
   xmlns:cc="http://creativecommons.org/ns#"
   xmlns:rdf="http://www.w3.org/1999/02/22-rdf-syntax-ns#"
   xmlns:svg="http://www.w3.org/2000/svg"
   xmlns="http://www.w3.org/2000/svg"
   xmlns:sodipodi="http://sodipodi.sourceforge.net/DTD/sodipodi-0.dtd"
   xmlns:inkscape="http://www.inkscape.org/namespaces/inkscape"
   xml:space="preserve"
   width="36"
   height="36"
   viewBox="0 0 360 360"
   id="svg2"
   version="1.1"
   inkscape:version="0.91 r13725"
   sodipodi:docname="tag_show_hover.svg"
   style="clip-rule:evenodd;fill-rule:evenodd;image-rendering:optimizeQuality;shape-rendering:geometricPrecision;text-rendering:geometricPrecision"
   inkscape:export-filename="C:\code\qtl\common\client\src\main\webapp\html\GeneMap\assets\img\tag_show_hover.png"
   inkscape:export-xdpi="90"
   inkscape:export-ydpi="90"><metadata
     id="metadata13"><rdf:RDF><cc:Work
         rdf:about=""><dc:format>image/svg+xml</dc:format><dc:type
           rdf:resource="http://purl.org/dc/dcmitype/StillImage" /><dc:title>tag icon</dc:title></cc:Work></rdf:RDF></metadata><defs
     id="defs11" /><sodipodi:namedview
     pagecolor="#ffffff"
     bordercolor="#666666"
     borderopacity="1"
     objecttolerance="10"
     gridtolerance="10"
     guidetolerance="10"
     inkscape:pageopacity="0"
     inkscape:pageshadow="2"
     inkscape:window-width="1920"
     inkscape:window-height="1018"
     id="namedview9"
     showgrid="false"
     inkscape:zoom="7.375"
     inkscape:cx="21.036731"
     inkscape:cy="53.028972"
     inkscape:window-x="-8"
     inkscape:window-y="-8"
     inkscape:window-maximized="1"
     inkscape:current-layer="svg2" /><title
     id="title4">tag icon</title><desc
     id="desc6">tag icon from the IconExperience.com O-Collection. Copyright by INCORS GmbH (www.incors.com).</desc><path
     id="curve0"
     d="M 30,157.74843 30,54.369354 c 0,-13.403092 10.964815,-24.36935 24.366255,-24.36935 l 103.366225,0 c 6.70072,0 12.4877,2.398835 17.24674,7.120422 L 322.89,185.05011 c 9.47999,9.48084 9.47999,24.97835 0,34.46002 L 219.52378,322.88937 c -9.48,9.48084 -24.97541,9.48084 -34.45541,0 L 37.119515,174.95927 C 32.360481,170.2001 30,164.4501 30,157.71093 Z M 64.455408,167.83927 167.82163,64.459778 305.64326,202.29929 202.27703,305.67853 64.455408,167.83927 Z M 78.73251,54.369354 c 13.439515,0 24.36626,10.928174 24.36626,24.36935 0,13.441259 -10.926745,24.369436 -24.36626,24.369436 -13.439512,0 -24.366255,-10.928177 -24.366255,-24.369436 0,-13.441176 10.926743,-24.36935 24.366255,-24.36935 z"
     inkscape:connector-curvature="0"
     style="fill:#21a8ef;fill-opacity:1" /><g
     style="font-style:normal;font-variant:normal;font-weight:normal;font-stretch:normal;font-size:200px;line-height:125%;font-family:sans-serif;-inkscape-font-specification:sans-serif;letter-spacing:0px;word-spacing:0px;clip-rule:evenodd;fill:#21a8ef;fill-opacity:1;fill-rule:evenodd;stroke:none;stroke-width:1px;stroke-linecap:butt;stroke-linejoin:miter;stroke-opacity:1;image-rendering:optimizeQuality;shape-rendering:geometricPrecision;text-rendering:geometricPrecision"
     id="text4141-4"
     transform="translate(-94.915253,-10.847457)" /><g
     style="font-style:normal;font-variant:normal;font-weight:normal;font-stretch:normal;font-size:200px;line-height:125%;font-family:sans-serif;-inkscape-font-specification:sans-serif;letter-spacing:0px;word-spacing:0px;clip-rule:evenodd;fill:#21a8ef;fill-opacity:1;fill-rule:evenodd;stroke:none;stroke-width:1px;stroke-linecap:butt;stroke-linejoin:miter;stroke-opacity:1;image-rendering:optimizeQuality;shape-rendering:geometricPrecision;text-rendering:geometricPrecision"
     id="text4141-0"
     transform="matrix(0.70710678,0.70710678,-0.70710678,0.70710678,-293.15232,29.048915)"><path
       d="m 406.3678,-272.34854 -20.06836,54.41894 40.20996,0 -20.1416,-54.41894 z m -8.34961,-14.5752 16.77246,0 41.6748,109.35059 -15.38086,0 -9.96093,-28.05176 -49.29199,0 -9.96094,28.05176 -15.60059,0 41.74805,-109.35059 z"
       style="font-style:normal;font-variant:normal;font-weight:normal;font-stretch:normal;font-size:150px;font-family:sans-serif;-inkscape-font-specification:sans-serif;fill:#21a8ef;fill-opacity:1"
       id="path4187"
       inkscape:connector-curvature="0" /><path
       d="m 509.05334,-218.8085 q -16.333,0 -22.63183,3.73535 -6.29883,3.73535 -6.29883,12.74414 0,7.17773 4.6875,11.42578 4.76074,4.17481 12.89063,4.17481 11.20605,0 17.94433,-7.91016 6.81153,-7.9834 6.81153,-21.16699 l 0,-3.00293 -13.40333,0 z m 26.87989,-5.56641 0,46.80176 -13.47656,0 0,-12.45117 q -4.61426,7.4707 -11.49903,11.05957 -6.88476,3.51562 -16.8457,3.51562 -12.59766,0 -20.06836,-7.03125 -7.39746,-7.10449 -7.39746,-18.96972 0,-13.84278 9.22851,-20.87403 9.30176,-7.03125 27.68555,-7.03125 l 18.89649,0 0,-1.31836 q 0,-9.30175 -6.15235,-14.35547 -6.0791,-5.12695 -17.13867,-5.12695 -7.03125,0 -13.69629,1.68457 -6.66504,1.68457 -12.81738,5.05371 l 0,-12.45117 q 7.39746,-2.85644 14.35547,-4.24805 6.958,-1.46484 13.5498,-1.46484 17.79785,0 26.58692,9.22852 8.78906,9.22851 8.78906,27.97851 z"
       style="font-style:normal;font-variant:normal;font-weight:normal;font-stretch:normal;font-size:150px;font-family:sans-serif;-inkscape-font-specification:sans-serif;fill:#21a8ef;fill-opacity:1"
       id="path4189"
       inkscape:connector-curvature="0" /></g></svg>