<svg width="701pt" height="350pt"
 viewBox="0.00 0.00 700.72 350.00" xmlns="http://www.w3.org/2000/svg" xmlns:xlink="http://www.w3.org/1999/xlink">
<g id="graph0" class="graph" transform="scale(1 1) rotate(0) translate(4 346)">
<title>%3</title>
<polygon fill="white" stroke="transparent" points="-4,4 -4,-346 696.72,-346 696.72,4 -4,4"/>
<!-- CelComp(9) -->
<g id="node1" class="node">
<title>CelComp(9)</title>
<polygon fill="none" stroke="darkgreen" points="681.62,-200.54 681.62,-215.46 647.29,-226 598.74,-226 564.41,-215.46 564.41,-200.54 598.74,-190 647.29,-190 681.62,-200.54"/>
<polygon fill="none" stroke="darkgreen" points="685.61,-197.59 685.61,-218.41 647.89,-230 598.14,-230 560.42,-218.41 560.42,-197.59 598.14,-186 647.89,-186 685.61,-197.59"/>
<text text-anchor="middle" x="623.02" y="-203.8" font-family="Times,serif" font-size="14.00">CelComp(9)</text>
</g>
<!-- Protein(11) -->
<g id="node2" class="node">
<title>Protein(11)</title>
<polygon fill="none" stroke="darkgreen" points="264.25,-312.54 264.25,-327.46 232.41,-338 187.38,-338 155.53,-327.46 155.53,-312.54 187.38,-302 232.41,-302 264.25,-312.54"/>
<polygon fill="none" stroke="darkgreen" points="268.27,-309.66 268.27,-330.34 233.06,-342 186.73,-342 151.52,-330.34 151.52,-309.66 186.73,-298 233.06,-298 268.27,-309.66"/>
<text text-anchor="middle" x="209.89" y="-315.8" font-family="Times,serif" font-size="14.00">Protein(11)</text>
</g>
<!-- MolFunc(7) -->
<g id="node3" class="node">
<title>MolFunc(7)</title>
<polygon fill="none" stroke="darkgreen" points="680.41,-138.54 680.41,-153.46 646.79,-164 599.24,-164 565.62,-153.46 565.62,-138.54 599.24,-128 646.79,-128 680.41,-138.54"/>
<polygon fill="none" stroke="darkgreen" points="684.42,-135.61 684.42,-156.39 647.4,-168 598.63,-168 561.61,-156.39 561.61,-135.61 598.63,-124 647.4,-124 684.42,-135.61"/>
<text text-anchor="middle" x="623.02" y="-141.8" font-family="Times,serif" font-size="14.00">MolFunc(7)</text>
</g>
<!-- EC(10) -->
<g id="node4" class="node">
<title>EC(10)</title>
<polygon fill="none" stroke="darkgreen" points="662.24,-76.54 662.24,-91.46 639.26,-102 606.77,-102 583.79,-91.46 583.79,-76.54 606.77,-66 639.26,-66 662.24,-76.54"/>
<polygon fill="none" stroke="darkgreen" points="666.25,-73.98 666.25,-94.02 640.14,-106 605.89,-106 579.78,-94.02 579.78,-73.98 605.89,-62 640.14,-62 666.25,-73.98"/>
<text text-anchor="middle" x="623.02" y="-79.8" font-family="Times,serif" font-size="14.00">EC(10)</text>
</g>
<!-- Publication(6) -->
<g id="node5" class="node">
<title>Publication(6)</title>
<polygon fill="none" stroke="darkgreen" points="688.91,-262.54 688.91,-277.46 650.31,-288 595.72,-288 557.12,-277.46 557.12,-262.54 595.72,-252 650.31,-252 688.91,-262.54"/>
<polygon fill="none" stroke="darkgreen" points="692.92,-259.49 692.92,-280.51 650.85,-292 595.18,-292 553.11,-280.51 553.11,-259.49 595.18,-248 650.85,-248 692.92,-259.49"/>
<text text-anchor="middle" x="623.02" y="-265.8" font-family="Times,serif" font-size="14.00">Publication(6)</text>
</g>
<!-- BioProc(8) -->
<g id="node6" class="node">
<title>BioProc(8)</title>
<polygon fill="none" stroke="darkgreen" points="676.47,-14.54 676.47,-29.46 645.16,-40 600.87,-40 569.56,-29.46 569.56,-14.54 600.87,-4 645.16,-4 676.47,-14.54"/>
<polygon fill="none" stroke="darkgreen" points="680.47,-11.67 680.47,-32.33 645.81,-44 600.22,-44 565.56,-32.33 565.56,-11.67 600.22,0 645.81,0 680.47,-11.67"/>
<text text-anchor="middle" x="623.02" y="-17.8" font-family="Times,serif" font-size="14.00">BioProc(8)</text>
</g>
<!-- Gene(1) -->
<g id="node7" class="node">
<title>Gene(1)</title>
<ellipse fill="none" stroke="red" cx="43.08" cy="-249" rx="39.15" ry="39.15"/>
<ellipse fill="none" stroke="red" cx="43.08" cy="-249" rx="43.15" ry="43.15"/>
<text text-anchor="middle" x="43.08" y="-244.8" font-family="Times,serif" font-size="14.00">Gene(1)</text>
</g>
<!-- Gene(1)&#45;&gt;Protein(11) -->
<g id="edge7" class="edge">
<title>Gene(1)&#45;&gt;Protein(11)</title>
<path fill="none" stroke="blue" d="M80,-271.46C87.81,-275.91 96.14,-280.33 104.15,-284 119.43,-290.99 136.48,-297.4 152.31,-302.82"/>
<polygon fill="blue" stroke="blue" points="151.39,-306.2 161.98,-306.06 153.61,-299.56 151.39,-306.2"/>
<text text-anchor="middle" x="118.93" y="-297.8" font-family="Times,serif" font-size="14.00">enc</text>
</g>
<!-- Gene(1)&#45;&gt;Publication(6) -->
<g id="edge9" class="edge">
<title>Gene(1)&#45;&gt;Publication(6)</title>
<path fill="none" stroke="blue" d="M86.57,-250.54C182.8,-254.04 418.58,-262.61 542.68,-267.12"/>
<polygon fill="blue" stroke="blue" points="542.75,-270.62 552.87,-267.49 543.01,-263.63 542.75,-270.62"/>
<text text-anchor="middle" x="305.52" y="-261.8" font-family="Times,serif" font-size="14.00">pub_in</text>
</g>
<!-- Protein(3) -->
<g id="node8" class="node">
<title>Protein(3)</title>
<ellipse fill="none" stroke="black" cx="388.93" cy="-174" rx="45.93" ry="18"/>
<text text-anchor="middle" x="388.93" y="-169.8" font-family="Times,serif" font-size="14.00">Protein(3)</text>
</g>
<!-- Gene(1)&#45;&gt;Protein(3) -->
<g id="edge10" class="edge">
<title>Gene(1)&#45;&gt;Protein(3)</title>
<path fill="none" stroke="black" d="M85.71,-241.61C140.75,-231.59 240.61,-212.58 324.97,-192 330.42,-190.67 336.11,-189.18 341.75,-187.65"/>
<polygon fill="black" stroke="black" points="343.07,-190.91 351.77,-184.86 341.2,-184.17 343.07,-190.91"/>
<text text-anchor="middle" x="209.89" y="-230.8" font-family="Times,serif" font-size="14.00">enc</text>
</g>
<!-- Gene(2) -->
<g id="node9" class="node">
<title>Gene(2)</title>
<ellipse fill="none" stroke="black" cx="209.89" cy="-174" rx="39.15" ry="18"/>
<text text-anchor="middle" x="209.89" y="-169.8" font-family="Times,serif" font-size="14.00">Gene(2)</text>
</g>
<!-- Gene(1)&#45;&gt;Gene(2) -->
<g id="edge8" class="edge">
<title>Gene(1)&#45;&gt;Gene(2)</title>
<path fill="none" stroke="black" d="M74.99,-219.47C83.86,-212.24 93.92,-205.12 104.15,-200 122.11,-191.02 143.38,-185 162.05,-181.04"/>
<polygon fill="black" stroke="black" points="162.99,-184.42 172.12,-179.04 161.63,-177.56 162.99,-184.42"/>
<text text-anchor="middle" x="118.93" y="-202.8" font-family="Times,serif" font-size="14.00">ortho</text>
</g>
<!-- Protein(3)&#45;&gt;CelComp(9) -->
<g id="edge4" class="edge">
<title>Protein(3)&#45;&gt;CelComp(9)</title>
<path fill="none" stroke="black" d="M432.23,-180.2C465.12,-185.01 511.49,-191.81 550.17,-197.47"/>
<polygon fill="black" stroke="black" points="549.94,-200.98 560.34,-198.96 550.95,-194.05 549.94,-200.98"/>
<text text-anchor="middle" x="494.1" y="-197.8" font-family="Times,serif" font-size="14.00">located_in</text>
</g>
<!-- Protein(3)&#45;&gt;MolFunc(7) -->
<g id="edge3" class="edge">
<title>Protein(3)&#45;&gt;MolFunc(7)</title>
<path fill="none" stroke="blue" d="M433.04,-168.8C466.25,-164.79 512.87,-159.17 551.49,-154.51"/>
<polygon fill="blue" stroke="blue" points="552.13,-157.96 561.64,-153.28 551.29,-151.01 552.13,-157.96"/>
<text text-anchor="middle" x="494.1" y="-167.8" font-family="Times,serif" font-size="14.00">has_function</text>
</g>
<!-- Protein(3)&#45;&gt;EC(10) -->
<g id="edge1" class="edge">
<title>Protein(3)&#45;&gt;EC(10)</title>
<path fill="none" stroke="blue" d="M413.83,-158.75C425.34,-151.82 439.53,-143.88 452.9,-138 491.42,-121.06 536.95,-106.83 571.06,-97.24"/>
<polygon fill="blue" stroke="blue" points="572.11,-100.58 580.81,-94.54 570.24,-93.84 572.11,-100.58"/>
<text text-anchor="middle" x="494.1" y="-140.8" font-family="Times,serif" font-size="14.00">cat_c</text>
</g>
<!-- Protein(3)&#45;&gt;Publication(6) -->
<g id="edge5" class="edge">
<title>Protein(3)&#45;&gt;Publication(6)</title>
<path fill="none" stroke="blue" d="M412.25,-189.57C423.98,-197.3 438.82,-206.38 452.9,-213 463.31,-217.9 518.62,-236.32 563.19,-250.91"/>
<polygon fill="blue" stroke="blue" points="562.21,-254.27 572.81,-254.05 564.39,-247.62 562.21,-254.27"/>
<text text-anchor="middle" x="494.1" y="-243.8" font-family="Times,serif" font-size="14.00">pub_in</text>
</g>
<!-- Protein(3)&#45;&gt;BioProc(8) -->
<g id="edge6" class="edge">
<title>Protein(3)&#45;&gt;BioProc(8)</title>
<path fill="none" stroke="black" d="M399.04,-156.41C409.66,-137.44 428.87,-107.46 452.9,-89 484.81,-64.48 526.85,-47.77 561.03,-37.17"/>
<polygon fill="black" stroke="black" points="562.33,-40.43 570.91,-34.21 560.32,-33.73 562.33,-40.43"/>
<text text-anchor="middle" x="494.1" y="-91.8" font-family="Times,serif" font-size="14.00">participates_in</text>
</g>
<!-- Protein(3)&#45;&gt;Protein(3) -->
<g id="edge2" class="edge">
<title>Protein(3)&#45;&gt;Protein(3)</title>
<path fill="none" stroke="black" d="M374.29,-191.41C371.56,-201.09 376.44,-210 388.93,-210 396.74,-210 401.58,-206.52 403.44,-201.54"/>
<polygon fill="black" stroke="black" points="406.94,-201.46 403.57,-191.41 399.94,-201.36 406.94,-201.46"/>
<text text-anchor="middle" x="388.93" y="-212.8" font-family="Times,serif" font-size="14.00">it_wi(&lt;=7)</text>
</g>
<!-- Gene(2)&#45;&gt;Protein(3) -->
<g id="edge11" class="edge">
<title>Gene(2)&#45;&gt;Protein(3)</title>
<path fill="none" stroke="black" d="M249.31,-174C273.66,-174 305.54,-174 332.6,-174"/>
<polygon fill="black" stroke="black" points="332.7,-177.5 342.7,-174 332.7,-170.5 332.7,-177.5"/>
<text text-anchor="middle" x="305.52" y="-176.8" font-family="Times,serif" font-size="14.00">enc</text>
</g>
</g>
</svg>
