<svg width="1385px" height="1165px"
 viewBox="0.00 0.00 1038.67 874.00" xmlns="http://www.w3.org/2000/svg" xmlns:xlink="http://www.w3.org/1999/xlink">
<g id="graph0" class="graph" transform=" rotate(0) translate(4 870)">
<title>%3</title>
<polygon fill="white" stroke="transparent" points="-4,4 -4,-870 1034.67,-870 1034.67,4 -4,4"/>
<!-- Trait(21) -->
<g id="node1" class="node">
<title>Trait(21)</title>
<polygon fill="none" stroke="darkgreen" points="1026.82,-254.54 1026.82,-269.46 1000.28,-280 962.75,-280 936.21,-269.46 936.21,-254.54 962.75,-244 1000.28,-244 1026.82,-254.54"/>
<polygon fill="none" stroke="darkgreen" points="1030.83,-251.83 1030.83,-272.17 1001.05,-284 961.98,-284 932.2,-272.17 932.2,-251.83 961.98,-240 1001.05,-240 1030.83,-251.83"/>
<text text-anchor="middle" x="981.52" y="-257.8" font-family="Times,serif" font-size="14.00">Trait(21)</text>
</g>
<!-- Protein(7) -->
<g id="node2" class="node">
<title>Protein(7)</title>
<polygon fill="none" stroke="darkgreen" points="495.98,-836.54 495.98,-851.46 466.97,-862 425.95,-862 396.94,-851.46 396.94,-836.54 425.95,-826 466.97,-826 495.98,-836.54"/>
<polygon fill="none" stroke="darkgreen" points="499.97,-833.74 499.97,-854.26 467.67,-866 425.25,-866 392.96,-854.26 392.96,-833.74 425.25,-822 467.67,-822 499.97,-833.74"/>
<text text-anchor="middle" x="446.46" y="-839.8" font-family="Times,serif" font-size="14.00">Protein(7)</text>
</g>
<!-- Reaction(188) -->
<g id="node3" class="node">
<title>Reaction(188)</title>
<polygon fill="none" stroke="darkgreen" points="801.52,-14.54 801.52,-29.46 762.93,-40 708.35,-40 669.76,-29.46 669.76,-14.54 708.35,-4 762.93,-4 801.52,-14.54"/>
<polygon fill="none" stroke="darkgreen" points="805.53,-11.49 805.53,-32.51 763.47,-44 707.81,-44 665.75,-32.51 665.75,-11.49 707.81,0 763.47,0 805.53,-11.49"/>
<text text-anchor="middle" x="735.64" y="-17.8" font-family="Times,serif" font-size="14.00">Reaction(188)</text>
</g>
<!-- Gene(1) -->
<g id="node4" class="node">
<title>Gene(1)</title>
<ellipse fill="none" stroke="red" cx="43.08" cy="-692" rx="39.15" ry="39.15"/>
<ellipse fill="none" stroke="red" cx="43.08" cy="-692" rx="43.15" ry="43.15"/>
<text text-anchor="middle" x="43.08" y="-687.8" font-family="Times,serif" font-size="14.00">Gene(1)</text>
</g>
<!-- Gene(1)&#45;&gt;Protein(7) -->
<g id="edge2" class="edge">
<title>Gene(1)&#45;&gt;Protein(7)</title>
<path fill="none" stroke="blue" d="M75.64,-720.64C115.4,-754.72 187.38,-810.02 260.35,-834 303.31,-848.12 354.87,-849.75 392.66,-848.35"/>
<text text-anchor="middle" x="191.97" y="-829.8" font-family="Times,serif" font-size="14.00">enc</text>
</g>
<!-- Protein(10) -->
<g id="node16" class="node">
<title>Protein(10)</title>
<ellipse fill="none" stroke="black" cx="191.97" cy="-523" rx="50.27" ry="18"/>
<text text-anchor="middle" x="191.97" y="-518.8" font-family="Times,serif" font-size="14.00">Protein(10)</text>
</g>
<!-- Gene(1)&#45;&gt;Protein(10) -->
<g id="edge1" class="edge">
<title>Gene(1)&#45;&gt;Protein(10)</title>
<path fill="none" stroke="black" d="M72.05,-659.81C103.02,-624.19 151.76,-568.11 176.1,-540.1"/>
<text text-anchor="middle" x="113.87" y="-624.8" font-family="Times,serif" font-size="14.00">enc</text>
</g>
<!-- EC(15) -->
<g id="node5" class="node">
<title>EC(15)</title>
<polygon fill="none" stroke="darkgreen" points="485.69,-390.54 485.69,-405.46 462.71,-416 430.21,-416 407.24,-405.46 407.24,-390.54 430.21,-380 462.71,-380 485.69,-390.54"/>
<polygon fill="none" stroke="darkgreen" points="489.7,-387.98 489.7,-408.02 463.59,-420 429.33,-420 403.22,-408.02 403.22,-387.98 429.33,-376 463.59,-376 489.7,-387.98"/>
<text text-anchor="middle" x="446.46" y="-393.8" font-family="Times,serif" font-size="14.00">EC(15)</text>
</g>
<!-- MolFunc(3) -->
<g id="node6" class="node">
<title>MolFunc(3)</title>
<polygon fill="none" stroke="darkgreen" points="793.03,-656.54 793.03,-671.46 759.41,-682 711.87,-682 678.25,-671.46 678.25,-656.54 711.87,-646 759.41,-646 793.03,-656.54"/>
<polygon fill="none" stroke="darkgreen" points="797.04,-653.61 797.04,-674.39 760.03,-686 711.25,-686 674.24,-674.39 674.24,-653.61 711.25,-642 760.03,-642 797.04,-653.61"/>
<text text-anchor="middle" x="735.64" y="-659.8" font-family="Times,serif" font-size="14.00">MolFunc(3)</text>
</g>
<!-- Gene(8) -->
<g id="node7" class="node">
<title>Gene(8)</title>
<polygon fill="none" stroke="darkgreen" points="777.75,-195.54 777.75,-210.46 753.08,-221 718.2,-221 693.53,-210.46 693.53,-195.54 718.2,-185 753.08,-185 777.75,-195.54"/>
<polygon fill="none" stroke="darkgreen" points="781.73,-192.9 781.73,-213.1 753.9,-225 717.38,-225 689.55,-213.1 689.55,-192.9 717.38,-181 753.9,-181 781.73,-192.9"/>
<text text-anchor="middle" x="735.64" y="-198.8" font-family="Times,serif" font-size="14.00">Gene(8)</text>
</g>
<!-- TO(16) -->
<g id="node8" class="node">
<title>TO(16)</title>
<polygon fill="none" stroke="darkgreen" points="775.1,-312.54 775.1,-327.46 751.98,-338 719.3,-338 696.18,-327.46 696.18,-312.54 719.3,-302 751.98,-302 775.1,-312.54"/>
<polygon fill="none" stroke="darkgreen" points="779.1,-309.97 779.1,-330.03 752.85,-342 718.43,-342 692.18,-330.03 692.18,-309.97 718.43,-298 752.85,-298 779.1,-309.97"/>
<text text-anchor="middle" x="735.64" y="-315.8" font-family="Times,serif" font-size="14.00">TO(16)</text>
</g>
<!-- Phenotype(13) -->
<g id="node9" class="node">
<title>Phenotype(13)</title>
<polygon fill="none" stroke="darkgreen" points="802.75,-374.54 802.75,-389.46 763.44,-400 707.84,-400 668.53,-389.46 668.53,-374.54 707.84,-364 763.44,-364 802.75,-374.54"/>
<polygon fill="none" stroke="darkgreen" points="806.74,-371.47 806.74,-392.53 763.96,-404 707.32,-404 664.55,-392.53 664.55,-371.47 707.32,-360 763.96,-360 806.74,-371.47"/>
<text text-anchor="middle" x="735.64" y="-377.8" font-family="Times,serif" font-size="14.00">Phenotype(13)</text>
</g>
<!-- CelComp(5) -->
<g id="node10" class="node">
<title>CelComp(5)</title>
<polygon fill="none" stroke="darkgreen" points="794.24,-436.54 794.24,-451.46 759.91,-462 711.37,-462 677.04,-451.46 677.04,-436.54 711.37,-426 759.91,-426 794.24,-436.54"/>
<polygon fill="none" stroke="darkgreen" points="798.23,-433.59 798.23,-454.41 760.51,-466 710.77,-466 673.05,-454.41 673.05,-433.59 710.77,-422 760.51,-422 798.23,-433.59"/>
<text text-anchor="middle" x="735.64" y="-439.8" font-family="Times,serif" font-size="14.00">CelComp(5)</text>
</g>
<!-- BioProc(4) -->
<g id="node11" class="node">
<title>BioProc(4)</title>
<polygon fill="none" stroke="darkgreen" points="789.09,-498.54 789.09,-513.46 757.78,-524 713.5,-524 682.19,-513.46 682.19,-498.54 713.5,-488 757.78,-488 789.09,-498.54"/>
<polygon fill="none" stroke="darkgreen" points="793.09,-495.67 793.09,-516.33 758.44,-528 712.84,-528 678.19,-516.33 678.19,-495.67 712.84,-484 758.44,-484 793.09,-495.67"/>
<text text-anchor="middle" x="735.64" y="-501.8" font-family="Times,serif" font-size="14.00">BioProc(4)</text>
</g>
<!-- Publication(2) -->
<g id="node12" class="node">
<title>Publication(2)</title>
<polygon fill="none" stroke="darkgreen" points="801.54,-132.54 801.54,-147.46 762.93,-158 708.35,-158 669.74,-147.46 669.74,-132.54 708.35,-122 762.93,-122 801.54,-132.54"/>
<polygon fill="none" stroke="darkgreen" points="805.55,-129.49 805.55,-150.51 763.47,-162 707.81,-162 665.73,-150.51 665.73,-129.49 707.81,-118 763.47,-118 805.55,-129.49"/>
<text text-anchor="middle" x="735.64" y="-135.8" font-family="Times,serif" font-size="14.00">Publication(2)</text>
</g>
<!-- ProtDomain(14) -->
<g id="node13" class="node">
<title>ProtDomain(14)</title>
<polygon fill="none" stroke="darkgreen" points="520.32,-772.54 520.32,-787.46 477.05,-798 415.87,-798 372.61,-787.46 372.61,-772.54 415.87,-762 477.05,-762 520.32,-772.54"/>
<polygon fill="none" stroke="darkgreen" points="524.32,-769.4 524.32,-790.6 477.54,-802 415.39,-802 368.6,-790.6 368.6,-769.4 415.39,-758 477.54,-758 524.32,-769.4"/>
<text text-anchor="middle" x="446.46" y="-775.8" font-family="Times,serif" font-size="14.00">ProtDomain(14)</text>
</g>
<!-- Enzyme(177) -->
<g id="node14" class="node">
<title>Enzyme(177)</title>
<polygon fill="none" stroke="darkgreen" points="509.53,-710.54 509.53,-725.46 472.58,-736 420.34,-736 383.39,-725.46 383.39,-710.54 420.34,-700 472.58,-700 509.53,-710.54"/>
<polygon fill="none" stroke="darkgreen" points="513.53,-707.53 513.53,-728.47 473.14,-740 419.78,-740 379.39,-728.47 379.39,-707.53 419.78,-696 473.14,-696 513.53,-707.53"/>
<text text-anchor="middle" x="446.46" y="-713.8" font-family="Times,serif" font-size="14.00">Enzyme(177)</text>
</g>
<!-- Path(19) -->
<g id="node15" class="node">
<title>Path(19)</title>
<polygon fill="none" stroke="darkgreen" points="1025.33,-72.54 1025.33,-87.46 999.66,-98 963.37,-98 937.7,-87.46 937.7,-72.54 963.37,-62 999.66,-62 1025.33,-72.54"/>
<polygon fill="none" stroke="darkgreen" points="1029.32,-69.86 1029.32,-90.14 1000.45,-102 962.58,-102 933.71,-90.14 933.71,-69.86 962.58,-58 1000.45,-58 1029.32,-69.86"/>
<text text-anchor="middle" x="981.52" y="-75.8" font-family="Times,serif" font-size="14.00">Path(19)</text>
</g>
<!-- Protein(10)&#45;&gt;Protein(7) -->
<g id="edge7" class="edge">
<title>Protein(10)&#45;&gt;Protein(7)</title>
<path fill="none" stroke="blue" d="M192.57,-541.1C192.64,-584.61 199.15,-695.81 260.35,-755 290.17,-783.83 318.03,-752.57 350.78,-778 363.97,-788.25 356.43,-799.75 368.78,-811 377.89,-819.3 389.4,-825.72 400.72,-830.6"/>
<text text-anchor="middle" x="305.57" y="-822.8" font-family="Times,serif" font-size="14.00">equivalent(&lt;=4)</text>
<text text-anchor="middle" x="305.57" y="-808.8" font-family="Times,serif" font-size="14.00">h_s_s(&lt;=4)</text>
<text text-anchor="middle" x="305.57" y="-794.8" font-family="Times,serif" font-size="14.00">ortho(&lt;=4)</text>
<text text-anchor="middle" x="305.57" y="-780.8" font-family="Times,serif" font-size="14.00">xref(&lt;=6)</text>
</g>
<!-- Protein(10)&#45;&gt;EC(15) -->
<g id="edge3" class="edge">
<title>Protein(10)&#45;&gt;EC(15)</title>
<path fill="none" stroke="blue" d="M200.44,-504.97C210.56,-482.96 230.84,-446.39 260.35,-428 303.73,-400.97 363.53,-395.81 403.29,-395.86"/>
<text text-anchor="middle" x="305.57" y="-430.8" font-family="Times,serif" font-size="14.00">cat_c</text>
</g>
<!-- Protein(10)&#45;&gt;MolFunc(3) -->
<g id="edge11" class="edge">
<title>Protein(10)&#45;&gt;MolFunc(3)</title>
<path fill="none" stroke="blue" d="M216.76,-538.72C229.29,-546.39 245.17,-555.2 260.35,-561 274.37,-566.36 512.74,-609.25 524.14,-619 540.83,-633.26 524.01,-652.62 542.14,-665 584.38,-693.83 644.89,-687.84 686.74,-678.35"/>
<text text-anchor="middle" x="446.46" y="-621.8" font-family="Times,serif" font-size="14.00">has_function</text>
</g>
<!-- Protein(10)&#45;&gt;Gene(8) -->
<g id="edge5" class="edge">
<title>Protein(10)&#45;&gt;Gene(8)</title>
<path fill="none" stroke="blue" d="M194.83,-504.77C199.54,-466.67 214.99,-377.39 260.35,-320 345.65,-212.09 406.55,-215.16 542.14,-192 591.97,-183.49 649.99,-188.85 689.2,-194.67"/>
<text text-anchor="middle" x="446.46" y="-230.8" font-family="Times,serif" font-size="14.00">enc</text>
</g>
<!-- Protein(10)&#45;&gt;CelComp(5) -->
<g id="edge14" class="edge">
<title>Protein(10)&#45;&gt;CelComp(5)</title>
<path fill="none" stroke="black" d="M235.19,-513.56C300.6,-499.3 430.53,-472.4 542.14,-458 585.68,-452.38 635.06,-448.85 672.91,-446.74"/>
<text text-anchor="middle" x="446.46" y="-487.8" font-family="Times,serif" font-size="14.00">located_in</text>
</g>
<!-- Protein(10)&#45;&gt;BioProc(4) -->
<g id="edge15" class="edge">
<title>Protein(10)&#45;&gt;BioProc(4)</title>
<path fill="none" stroke="blue" d="M242.22,-520.48C277.46,-518.75 326.03,-516.5 368.78,-515 478.15,-511.17 605.98,-508.42 677.91,-507.03"/>
<text text-anchor="middle" x="446.46" y="-517.8" font-family="Times,serif" font-size="14.00">participates_in</text>
</g>
<!-- Protein(10)&#45;&gt;Publication(2) -->
<g id="edge16" class="edge">
<title>Protein(10)&#45;&gt;Publication(2)</title>
<path fill="none" stroke="black" d="M192.31,-504.65C191.52,-455.58 195.63,-319.32 260.35,-235 354.57,-112.27 558.85,-116.99 665.96,-129.28"/>
<text text-anchor="middle" x="446.46" y="-156.8" font-family="Times,serif" font-size="14.00">pub_in</text>
</g>
<!-- Protein(10)&#45;&gt;ProtDomain(14) -->
<g id="edge10" class="edge">
<title>Protein(10)&#45;&gt;ProtDomain(14)</title>
<path fill="none" stroke="black" d="M193.74,-541.1C196.39,-579.6 208.15,-669.99 260.35,-718 290.88,-746.07 311.6,-727.42 350.78,-741 359.05,-743.87 360.72,-745.58 368.78,-749 378.69,-753.21 389.38,-757.61 399.54,-761.73"/>
<text text-anchor="middle" x="305.57" y="-743.8" font-family="Times,serif" font-size="14.00">has_domain</text>
</g>
<!-- Protein(10)&#45;&gt;Enzyme(177) -->
<g id="edge12" class="edge">
<title>Protein(10)&#45;&gt;Enzyme(177)</title>
<path fill="none" stroke="black" d="M195.82,-541.11C201.82,-572.84 218.75,-638.42 260.35,-673 278.47,-688.06 333.78,-700.3 379.25,-708.19"/>
<text text-anchor="middle" x="305.57" y="-704.8" font-family="Times,serif" font-size="14.00">is_a</text>
</g>
<!-- Protein(10)&#45;&gt;Protein(10) -->
<g id="edge8" class="edge">
<title>Protein(10)&#45;&gt;Protein(10)</title>
<path fill="none" stroke="black" d="M178.04,-540.41C175.44,-550.09 180.08,-559 191.97,-559 203.85,-559 208.49,-550.09 205.89,-540.41"/>
<text text-anchor="middle" x="191.97" y="-603.8" font-family="Times,serif" font-size="14.00">equivalent(&lt;=4)</text>
<text text-anchor="middle" x="191.97" y="-589.8" font-family="Times,serif" font-size="14.00">h_s_s(&lt;=4)</text>
<text text-anchor="middle" x="191.97" y="-575.8" font-family="Times,serif" font-size="14.00">ortho(&lt;=4)</text>
<text text-anchor="middle" x="191.97" y="-561.8" font-family="Times,serif" font-size="14.00">xref(&lt;=6)</text>
</g>
<!-- EC(12) -->
<g id="node17" class="node">
<title>EC(12)</title>
<ellipse fill="none" stroke="black" cx="446.46" cy="-660" rx="36.28" ry="18"/>
<text text-anchor="middle" x="446.46" y="-655.8" font-family="Times,serif" font-size="14.00">EC(12)</text>
</g>
<!-- Protein(10)&#45;&gt;EC(12) -->
<g id="edge4" class="edge">
<title>Protein(10)&#45;&gt;EC(12)</title>
<path fill="none" stroke="black" d="M199.71,-540.8C209.43,-563.87 229.65,-603.56 260.35,-624 305.73,-654.2 370.38,-660.35 410.04,-660.95"/>
<text text-anchor="middle" x="305.57" y="-657.8" font-family="Times,serif" font-size="14.00">cat_c</text>
</g>
<!-- Gene(9) -->
<g id="node18" class="node">
<title>Gene(9)</title>
<ellipse fill="none" stroke="black" cx="446.46" cy="-294" rx="39.15" ry="18"/>
<text text-anchor="middle" x="446.46" y="-289.8" font-family="Times,serif" font-size="14.00">Gene(9)</text>
</g>
<!-- Protein(10)&#45;&gt;Gene(9) -->
<g id="edge6" class="edge">
<title>Protein(10)&#45;&gt;Gene(9)</title>
<path fill="none" stroke="black" d="M197.26,-504.99C205.12,-475.55 224.4,-416.82 260.35,-381 303.24,-338.27 371.11,-313.87 411.66,-302.33"/>
<text text-anchor="middle" x="305.57" y="-383.8" font-family="Times,serif" font-size="14.00">enc</text>
</g>
<!-- ProtDomain(11) -->
<g id="node19" class="node">
<title>ProtDomain(11)</title>
<ellipse fill="none" stroke="black" cx="446.46" cy="-556" rx="68" ry="18"/>
<text text-anchor="middle" x="446.46" y="-551.8" font-family="Times,serif" font-size="14.00">ProtDomain(11)</text>
</g>
<!-- Protein(10)&#45;&gt;ProtDomain(11) -->
<g id="edge9" class="edge">
<title>Protein(10)&#45;&gt;ProtDomain(11)</title>
<path fill="none" stroke="blue" d="M239.57,-529.09C280.61,-534.45 340.63,-542.3 385.28,-548.13"/>
<text text-anchor="middle" x="305.57" y="-545.8" font-family="Times,serif" font-size="14.00">has_domain</text>
</g>
<!-- Enzyme(17) -->
<g id="node20" class="node">
<title>Enzyme(17)</title>
<ellipse fill="none" stroke="black" cx="446.46" cy="-74" rx="53.63" ry="18"/>
<text text-anchor="middle" x="446.46" y="-69.8" font-family="Times,serif" font-size="14.00">Enzyme(17)</text>
</g>
<!-- Protein(10)&#45;&gt;Enzyme(17) -->
<g id="edge13" class="edge">
<title>Protein(10)&#45;&gt;Enzyme(17)</title>
<path fill="none" stroke="blue" d="M193.11,-504.67C194.1,-430.98 201.72,-157.57 260.35,-100 295.9,-65.1 355.37,-62.71 397.3,-66.38"/>
<text text-anchor="middle" x="305.57" y="-102.8" font-family="Times,serif" font-size="14.00">is_a</text>
</g>
<!-- EC(12)&#45;&gt;MolFunc(3) -->
<g id="edge17" class="edge">
<title>EC(12)&#45;&gt;MolFunc(3)</title>
<path fill="none" stroke="black" d="M475.09,-671.23C493.69,-678.17 518.97,-686.42 542.14,-690 587.91,-697.08 600.51,-696.61 646.34,-690 661.05,-687.88 676.73,-683.87 690.73,-679.62"/>
<text text-anchor="middle" x="594.24" y="-697.8" font-family="Times,serif" font-size="14.00">equ</text>
</g>
<!-- Gene(9)&#45;&gt;MolFunc(3) -->
<g id="edge21" class="edge">
<title>Gene(9)&#45;&gt;MolFunc(3)</title>
<path fill="none" stroke="black" d="M470.17,-308.69C488.15,-321.69 512.16,-342.37 524.14,-367 542.41,-404.54 513.89,-523.26 542.14,-554 574,-588.66 604.82,-550.83 646.34,-573 677.22,-589.49 703.8,-620.6 719.51,-641.81"/>
<text text-anchor="middle" x="594.24" y="-575.8" font-family="Times,serif" font-size="14.00">has_function</text>
</g>
<!-- Gene(9)&#45;&gt;Gene(8) -->
<g id="edge19" class="edge">
<title>Gene(9)&#45;&gt;Gene(8)</title>
<path fill="none" stroke="black" d="M470.33,-279.7C489,-268.64 516.39,-253.79 542.14,-245 586.69,-229.79 600.38,-236.16 646.34,-226 661.5,-222.65 677.99,-218.49 692.58,-214.64"/>
<text text-anchor="middle" x="594.24" y="-261.8" font-family="Times,serif" font-size="14.00">genetic(&lt;=8)</text>
<text text-anchor="middle" x="594.24" y="-247.8" font-family="Times,serif" font-size="14.00">physical(&lt;=8)</text>
</g>
<!-- Gene(9)&#45;&gt;TO(16) -->
<g id="edge18" class="edge">
<title>Gene(9)&#45;&gt;TO(16)</title>
<path fill="none" stroke="blue" d="M480.96,-302.59C498.97,-306.82 521.63,-311.53 542.14,-314 593.43,-320.17 652.93,-321.08 692.04,-320.83"/>
<text text-anchor="middle" x="594.24" y="-322.8" font-family="Times,serif" font-size="14.00">cooc_wi</text>
</g>
<!-- Gene(9)&#45;&gt;Phenotype(13) -->
<g id="edge22" class="edge">
<title>Gene(9)&#45;&gt;Phenotype(13)</title>
<path fill="none" stroke="blue" d="M472.58,-307.45C491.32,-317.04 517.79,-329.66 542.14,-338 583.17,-352.05 630.65,-362.96 668.2,-370.4"/>
<text text-anchor="middle" x="594.24" y="-367.8" font-family="Times,serif" font-size="14.00">has_observ_pheno</text>
</g>
<!-- Gene(9)&#45;&gt;CelComp(5) -->
<g id="edge24" class="edge">
<title>Gene(9)&#45;&gt;CelComp(5)</title>
<path fill="none" stroke="blue" d="M464.23,-310.13C490.2,-335.06 537.64,-380.36 542.14,-383 584.04,-407.58 600.03,-401.32 646.34,-416 659.68,-420.23 674.15,-424.81 687.44,-429.03"/>
<text text-anchor="middle" x="594.24" y="-418.8" font-family="Times,serif" font-size="14.00">located_in</text>
</g>
<!-- Gene(9)&#45;&gt;BioProc(4) -->
<g id="edge25" class="edge">
<title>Gene(9)&#45;&gt;BioProc(4)</title>
<path fill="none" stroke="black" d="M468.77,-308.99C486.15,-322.31 510.06,-343.3 524.14,-367 539.9,-393.51 521.41,-411.18 542.14,-434 552.49,-445.39 636.3,-474.12 689.86,-491.65"/>
<text text-anchor="middle" x="594.24" y="-478.8" font-family="Times,serif" font-size="14.00">participates_in</text>
</g>
<!-- Gene(9)&#45;&gt;Publication(2) -->
<g id="edge26" class="edge">
<title>Gene(9)&#45;&gt;Publication(2)</title>
<path fill="none" stroke="blue" d="M461.98,-277.28C479.35,-258.19 510.12,-227.13 542.14,-208 584.44,-182.73 637.55,-164.86 677.27,-153.8"/>
<text text-anchor="middle" x="594.24" y="-210.8" font-family="Times,serif" font-size="14.00">pub_in</text>
</g>
<!-- Gene(9)&#45;&gt;Gene(9) -->
<g id="edge20" class="edge">
<title>Gene(9)&#45;&gt;Gene(9)</title>
<path fill="none" stroke="blue" d="M423.04,-308.79C415.41,-319.42 423.22,-330 446.46,-330 469.7,-330 477.51,-319.42 469.88,-308.79"/>
<text text-anchor="middle" x="446.46" y="-346.8" font-family="Times,serif" font-size="14.00">genetic(&lt;=8)</text>
<text text-anchor="middle" x="446.46" y="-332.8" font-family="Times,serif" font-size="14.00">physical(&lt;=8)</text>
</g>
<!-- SNP(20) -->
<g id="node21" class="node">
<title>SNP(20)</title>
<ellipse fill="none" stroke="black" cx="735.64" cy="-262" rx="41.13" ry="18"/>
<text text-anchor="middle" x="735.64" y="-257.8" font-family="Times,serif" font-size="14.00">SNP(20)</text>
</g>
<!-- Gene(9)&#45;&gt;SNP(20) -->
<g id="edge23" class="edge">
<title>Gene(9)&#45;&gt;SNP(20)</title>
<path fill="none" stroke="black" d="M485.32,-291.7C525.4,-289.05 590.48,-284.12 646.34,-277 663.16,-274.86 681.66,-271.82 697.36,-269.04"/>
<text text-anchor="middle" x="594.24" y="-289.8" font-family="Times,serif" font-size="14.00">has_variation</text>
</g>
<!-- ProtDomain(11)&#45;&gt;MolFunc(3) -->
<g id="edge28" class="edge">
<title>ProtDomain(11)&#45;&gt;MolFunc(3)</title>
<path fill="none" stroke="blue" d="M492.78,-569.36C503.84,-574.05 515.09,-580.17 524.14,-588 535.91,-598.17 529.6,-608.81 542.14,-618 563,-633.28 625.86,-646.5 674.13,-654.79"/>
<text text-anchor="middle" x="594.24" y="-650.8" font-family="Times,serif" font-size="14.00">has_function</text>
</g>
<!-- ProtDomain(11)&#45;&gt;CelComp(5) -->
<g id="edge29" class="edge">
<title>ProtDomain(11)&#45;&gt;CelComp(5)</title>
<path fill="none" stroke="black" d="M504.93,-546.89C546.64,-538.33 603.11,-522.58 646.34,-495 656.43,-488.57 654.66,-482.01 664.34,-475 672.34,-469.21 681.58,-464.18 690.69,-459.95"/>
<text text-anchor="middle" x="594.24" y="-539.8" font-family="Times,serif" font-size="14.00">located_in</text>
</g>
<!-- ProtDomain(11)&#45;&gt;BioProc(4) -->
<g id="edge30" class="edge">
<title>ProtDomain(11)&#45;&gt;BioProc(4)</title>
<path fill="none" stroke="blue" d="M480.83,-571.63C498.61,-579.11 521.1,-587.23 542.14,-591 587.73,-599.16 603.39,-608.31 646.34,-591 677.52,-578.43 703.85,-549 719.44,-528.31"/>
<text text-anchor="middle" x="594.24" y="-602.8" font-family="Times,serif" font-size="14.00">participates_in</text>
</g>
<!-- Enzyme(17)&#45;&gt;Reaction(188) -->
<g id="edge31" class="edge">
<title>Enzyme(17)&#45;&gt;Reaction(188)</title>
<path fill="none" stroke="blue" d="M494.24,-65.53C542,-56.88 616.51,-43.39 669.92,-33.72"/>
<text text-anchor="middle" x="594.24" y="-58.8" font-family="Times,serif" font-size="14.00">ca_by</text>
</g>
<!-- Reaction(18) -->
<g id="node22" class="node">
<title>Reaction(18)</title>
<ellipse fill="none" stroke="black" cx="735.64" cy="-80" rx="56.04" ry="18"/>
<text text-anchor="middle" x="735.64" y="-75.8" font-family="Times,serif" font-size="14.00">Reaction(18)</text>
</g>
<!-- Enzyme(17)&#45;&gt;Reaction(18) -->
<g id="edge32" class="edge">
<title>Enzyme(17)&#45;&gt;Reaction(18)</title>
<path fill="none" stroke="black" d="M500.47,-75.11C551.2,-76.17 627.42,-77.76 679,-78.84"/>
<text text-anchor="middle" x="594.24" y="-81.8" font-family="Times,serif" font-size="14.00">ca_by</text>
</g>
<!-- SNP(20)&#45;&gt;Trait(21) -->
<g id="edge27" class="edge">
<title>SNP(20)&#45;&gt;Trait(21)</title>
<path fill="none" stroke="black" d="M776.91,-262C819.53,-262 886.77,-262 932.21,-262"/>
<text text-anchor="middle" x="869.65" y="-264.8" font-family="Times,serif" font-size="14.00">associated_with</text>
</g>
<!-- Reaction(18)&#45;&gt;Path(19) -->
<g id="edge33" class="edge">
<title>Reaction(18)&#45;&gt;Path(19)</title>
<path fill="none" stroke="black" d="M791.98,-80C834.7,-80 893.16,-80 933.6,-80"/>
<text text-anchor="middle" x="869.65" y="-82.8" font-family="Times,serif" font-size="14.00">part_of</text>
</g>
</g>
</svg>
