<svg width="934px" height="405px"
 viewBox="0.00 0.00 700.59 304.00" xmlns="http://www.w3.org/2000/svg" xmlns:xlink="http://www.w3.org/1999/xlink">
<g id="graph0" class="graph" transform=" rotate(0) translate(4 300)">
<polygon fill="white" stroke="transparent" points="-4,4 -4,-300 696.59,-300 696.59,4 -4,4"/>
<!-- MolFunc(7) -->
<g id="node1" class="node">
<title>MolFunc(7)</title>
<polygon fill="none" stroke="darkgreen" points="680.74,-200.54 680.74,-215.46 646.6,-226 598.31,-226 564.17,-215.46 564.17,-200.54 598.31,-190 646.6,-190 680.74,-200.54"/>
<polygon fill="none" stroke="darkgreen" points="684.74,-197.59 684.74,-218.41 647.2,-230 597.71,-230 560.18,-218.41 560.18,-197.59 597.71,-186 647.2,-186 684.74,-197.59"/>
<text text-anchor="middle" x="622.46" y="-204.3" font-family="Times,serif" font-size="14.00">MolFunc(7)</text>
</g>
<!-- Publication(6) -->
<g id="node2" class="node">
<title>Publication(6)</title>
<polygon fill="none" stroke="darkgreen" points="688.71,-263.54 688.71,-278.46 649.9,-289 595.02,-289 556.21,-278.46 556.21,-263.54 595.02,-253 649.9,-253 688.71,-263.54"/>
<polygon fill="none" stroke="darkgreen" points="692.71,-260.49 692.71,-281.51 650.43,-293 594.48,-293 552.2,-281.51 552.2,-260.49 594.48,-249 650.43,-249 692.71,-260.49"/>
<text text-anchor="middle" x="622.46" y="-267.3" font-family="Times,serif" font-size="14.00">Publication(6)</text>
</g>
<!-- Gene(1) -->
<g id="node3" class="node">
<title>Gene(1)</title>
<ellipse fill="none" stroke="red" cx="43.65" cy="-196" rx="39.78" ry="39.78"/>
<ellipse fill="none" stroke="red" cx="43.65" cy="-196" rx="43.79" ry="43.79"/>
<text text-anchor="middle" x="43.65" y="-192.3" font-family="Times,serif" font-size="14.00">Gene(1)</text>
</g>
<!-- Gene(1)&#45;&gt;Publication(6) -->
<g id="edge4" class="edge">
<title>Gene(1)&#45;&gt;Publication(6)</title>
<path fill="none" stroke="blue" d="M79.7,-220.7C99.92,-233.49 126.4,-247.9 152.29,-255 290.03,-292.78 459.06,-286.33 551.98,-278.51"/>
<text text-anchor="middle" x="307.04" y="-284.8" font-family="Times,serif" font-size="14.00">pub_in</text>
</g>
<!-- Protein(11) -->
<g id="node7" class="node">
<title>Protein(11)</title>
<polygon fill="none" stroke="darkgreen" points="265.92,-216.54 265.92,-231.46 233.85,-242 188.49,-242 156.41,-231.46 156.41,-216.54 188.49,-206 233.85,-206 265.92,-216.54"/>
<polygon fill="none" stroke="darkgreen" points="269.91,-213.65 269.91,-234.35 234.48,-246 187.85,-246 152.42,-234.35 152.42,-213.65 187.85,-202 234.48,-202 269.91,-213.65"/>
<text text-anchor="middle" x="211.17" y="-220.3" font-family="Times,serif" font-size="14.00">Protein(11)</text>
</g>
<!-- Gene(1)&#45;&gt;Protein(11) -->
<g id="edge2" class="edge">
<title>Gene(1)&#45;&gt;Protein(11)</title>
<path fill="none" stroke="blue" d="M86.84,-203.14C106.67,-206.49 130.62,-210.54 152.12,-214.18"/>
<text text-anchor="middle" x="119.79" y="-213.8" font-family="Times,serif" font-size="14.00">enc</text>
</g>
<!-- Protein(3) -->
<g id="node8" class="node">
<title>Protein(3)</title>
<ellipse fill="none" stroke="black" cx="390.18" cy="-146" rx="46.29" ry="18"/>
<text text-anchor="middle" x="390.18" y="-142.3" font-family="Times,serif" font-size="14.00">Protein(3)</text>
</g>
<!-- Gene(1)&#45;&gt;Protein(3) -->
<g id="edge1" class="edge">
<title>Gene(1)&#45;&gt;Protein(3)</title>
<path fill="none" stroke="black" d="M86.77,-188.64C106.63,-185.25 130.65,-181.27 152.29,-178 219.79,-167.8 298.36,-157.5 345.9,-151.43"/>
<text text-anchor="middle" x="211.17" y="-181.8" font-family="Times,serif" font-size="14.00">enc</text>
</g>
<!-- Gene(2) -->
<g id="node9" class="node">
<title>Gene(2)</title>
<ellipse fill="none" stroke="black" cx="211.17" cy="-115" rx="39.79" ry="18"/>
<text text-anchor="middle" x="211.17" y="-111.3" font-family="Times,serif" font-size="14.00">Gene(2)</text>
</g>
<!-- Gene(1)&#45;&gt;Gene(2) -->
<g id="edge3" class="edge">
<title>Gene(1)&#45;&gt;Gene(2)</title>
<path fill="none" stroke="black" d="M73.41,-163.84C82.8,-154.98 93.79,-146.14 105.29,-140 126.1,-128.91 151.83,-122.68 172.6,-119.21"/>
<text text-anchor="middle" x="119.79" y="-143.8" font-family="Times,serif" font-size="14.00">ortho</text>
</g>
<!-- EC(10) -->
<g id="node4" class="node">
<title>EC(10)</title>
<polygon fill="none" stroke="darkgreen" points="661.76,-138.54 661.76,-153.46 638.74,-164 606.18,-164 583.16,-153.46 583.16,-138.54 606.18,-128 638.74,-128 661.76,-138.54"/>
<polygon fill="none" stroke="darkgreen" points="665.75,-135.97 665.75,-156.03 639.61,-168 605.31,-168 579.17,-156.03 579.17,-135.97 605.31,-124 639.61,-124 665.75,-135.97"/>
<text text-anchor="middle" x="622.46" y="-142.3" font-family="Times,serif" font-size="14.00">EC(10)</text>
</g>
<!-- CelComp(9) -->
<g id="node5" class="node">
<title>CelComp(9)</title>
<polygon fill="none" stroke="darkgreen" points="682.06,-76.54 682.06,-91.46 647.15,-102 597.77,-102 562.85,-91.46 562.85,-76.54 597.77,-66 647.15,-66 682.06,-76.54"/>
<polygon fill="none" stroke="darkgreen" points="686.05,-73.57 686.05,-94.43 647.74,-106 597.18,-106 558.86,-94.43 558.86,-73.57 597.18,-62 647.74,-62 686.05,-73.57"/>
<text text-anchor="middle" x="622.46" y="-80.3" font-family="Times,serif" font-size="14.00">CelComp(9)</text>
</g>
<!-- BioProc(8) -->
<g id="node6" class="node">
<title>BioProc(8)</title>
<polygon fill="none" stroke="darkgreen" points="676.78,-14.54 676.78,-29.46 644.96,-40 599.96,-40 568.13,-29.46 568.13,-14.54 599.96,-4 644.96,-4 676.78,-14.54"/>
<polygon fill="none" stroke="darkgreen" points="680.8,-11.66 680.8,-32.34 645.61,-44 599.31,-44 564.12,-32.34 564.12,-11.66 599.31,0 645.61,0 680.8,-11.66"/>
<text text-anchor="middle" x="622.46" y="-18.3" font-family="Times,serif" font-size="14.00">BioProc(8)</text>
</g>
<!-- Protein(3)&#45;&gt;MolFunc(7) -->
<g id="edge6" class="edge">
<title>Protein(3)&#45;&gt;MolFunc(7)</title>
<path fill="none" stroke="blue" d="M426.84,-157C435.8,-159.69 445.4,-162.51 454.33,-165 492.28,-175.59 535.34,-186.64 568.25,-194.89"/>
<text text-anchor="middle" x="494.33" y="-188.8" font-family="Times,serif" font-size="14.00">has_function</text>
</g>
<!-- Protein(3)&#45;&gt;Publication(6) -->
<g id="edge10" class="edge">
<title>Protein(3)&#45;&gt;Publication(6)</title>
<path fill="none" stroke="blue" d="M406.45,-163.03C418.48,-175.65 436.19,-192.58 454.33,-204 490.43,-226.74 535.55,-244.28 569.81,-255.7"/>
<text text-anchor="middle" x="494.33" y="-245.8" font-family="Times,serif" font-size="14.00">pub_in</text>
</g>
<!-- Protein(3)&#45;&gt;EC(10) -->
<g id="edge5" class="edge">
<title>Protein(3)&#45;&gt;EC(10)</title>
<path fill="none" stroke="black" d="M436.4,-146C477.79,-146 538.58,-146 579.06,-146"/>
<text text-anchor="middle" x="494.33" y="-149.8" font-family="Times,serif" font-size="14.00">cat_c</text>
</g>
<!-- Protein(3)&#45;&gt;CelComp(9) -->
<g id="edge8" class="edge">
<title>Protein(3)&#45;&gt;CelComp(9)</title>
<path fill="none" stroke="blue" d="M426.84,-135C435.8,-132.31 445.4,-129.49 454.33,-127 492.13,-116.45 535.01,-105.44 567.87,-97.2"/>
<text text-anchor="middle" x="494.33" y="-130.8" font-family="Times,serif" font-size="14.00">located_in</text>
</g>
<!-- Protein(3)&#45;&gt;BioProc(8) -->
<g id="edge9" class="edge">
<title>Protein(3)&#45;&gt;BioProc(8)</title>
<path fill="none" stroke="black" d="M406.12,-128.87C418.1,-115.97 435.91,-98.58 454.33,-87 491.49,-63.64 538.42,-46.29 573.08,-35.42"/>
<text text-anchor="middle" x="494.33" y="-90.8" font-family="Times,serif" font-size="14.00">participates_in</text>
</g>
<!-- Protein(3)&#45;&gt;Protein(3) -->
<g id="edge7" class="edge">
<title>Protein(3)&#45;&gt;Protein(3)</title>
<path fill="none" stroke="black" d="M375.54,-163.41C372.81,-173.09 377.69,-182 390.18,-182 402.68,-182 407.56,-173.09 404.82,-163.41"/>
<text text-anchor="middle" x="390.18" y="-185.8" font-family="Times,serif" font-size="14.00">it_wi(&lt;=7)</text>
</g>
<!-- Gene(2)&#45;&gt;Protein(3) -->
<g id="edge11" class="edge">
<title>Gene(2)&#45;&gt;Protein(3)</title>
<path fill="none" stroke="black" d="M248.41,-121.35C277.24,-126.4 317.59,-133.46 347.71,-138.74"/>
<text text-anchor="middle" x="307.04" y="-137.8" font-family="Times,serif" font-size="14.00">enc</text>
</g>
</g>
</svg>
