<svg width="1993px" height="1694px"
 viewBox="0.00 0.00 1494.90 1270.72" xmlns="http://www.w3.org/2000/svg" xmlns:xlink="http://www.w3.org/1999/xlink">
<g id="graph0" class="graph" transform=" rotate(0) translate(4 1266.72)">
<polygon fill="white" stroke="transparent" points="-4,4 -4,-1266.72 1490.9,-1266.72 1490.9,4 -4,4"/>
<!-- EC(15) -->
<g id="node1" class="node">
<title>EC(15)</title>
<polygon fill="none" stroke="darkgreen" points="627.79,-685.27 627.79,-700.18 604.77,-710.72 572.21,-710.72 549.19,-700.18 549.19,-685.27 572.21,-674.72 604.77,-674.72 627.79,-685.27"/>
<polygon fill="none" stroke="darkgreen" points="631.78,-682.7 631.78,-702.75 605.64,-714.72 571.35,-714.72 545.2,-702.75 545.2,-682.7 571.35,-670.72 605.64,-670.72 631.78,-682.7"/>
<text text-anchor="middle" x="588.49" y="-689.02" font-family="Times,serif" font-size="14.00">EC(15)</text>
</g>
<!-- Reaction(188) -->
<g id="node2" class="node">
<title>Reaction(188)</title>
<polygon fill="none" stroke="darkgreen" points="999.28,-1025.27 999.28,-1040.18 960.48,-1050.72 905.59,-1050.72 866.79,-1040.18 866.79,-1025.27 905.59,-1014.72 960.48,-1014.72 999.28,-1025.27"/>
<polygon fill="none" stroke="darkgreen" points="1003.29,-1022.21 1003.29,-1043.24 961.01,-1054.72 905.06,-1054.72 862.78,-1043.24 862.78,-1022.21 905.06,-1010.72 961.01,-1010.72 1003.29,-1022.21"/>
<text text-anchor="middle" x="933.03" y="-1029.02" font-family="Times,serif" font-size="14.00">Reaction(188)</text>
</g>
<!-- Path(19) -->
<g id="node3" class="node">
<title>Path(19)</title>
<polygon fill="none" stroke="darkgreen" points="1242.56,-1057.27 1242.56,-1072.18 1216.69,-1082.72 1180.11,-1082.72 1154.25,-1072.18 1154.25,-1057.27 1180.11,-1046.72 1216.69,-1046.72 1242.56,-1057.27"/>
<polygon fill="none" stroke="darkgreen" points="1246.54,-1054.58 1246.54,-1074.87 1217.47,-1086.72 1179.33,-1086.72 1150.26,-1074.87 1150.26,-1054.58 1179.33,-1042.72 1217.47,-1042.72 1246.54,-1054.58"/>
<text text-anchor="middle" x="1198.4" y="-1061.02" font-family="Times,serif" font-size="14.00">Path(19)</text>
</g>
<!-- PlantOntologyTerm(24) -->
<g id="node4" class="node">
<title>PlantOntologyTerm(24)</title>
<polygon fill="none" stroke="darkgreen" points="691.82,-1233.27 691.82,-1248.18 631.29,-1258.72 545.69,-1258.72 485.16,-1248.18 485.16,-1233.27 545.69,-1222.72 631.29,-1222.72 691.82,-1233.27"/>
<polygon fill="none" stroke="darkgreen" points="695.82,-1229.9 695.82,-1251.54 631.64,-1262.72 545.35,-1262.72 481.17,-1251.54 481.17,-1229.9 545.35,-1218.72 631.64,-1218.72 695.82,-1229.9"/>
<text text-anchor="middle" x="588.49" y="-1237.02" font-family="Times,serif" font-size="14.00">PlantOntologyTerm(24)</text>
</g>
<!-- BioProc(4) -->
<g id="node5" class="node">
<title>BioProc(4)</title>
<polygon fill="none" stroke="darkgreen" points="987.36,-783.27 987.36,-798.18 955.54,-808.72 910.53,-808.72 878.71,-798.18 878.71,-783.27 910.53,-772.72 955.54,-772.72 987.36,-783.27"/>
<polygon fill="none" stroke="darkgreen" points="991.37,-780.38 991.37,-801.07 956.19,-812.72 909.88,-812.72 874.7,-801.07 874.7,-780.38 909.88,-768.72 956.19,-768.72 991.37,-780.38"/>
<text text-anchor="middle" x="933.03" y="-787.02" font-family="Times,serif" font-size="14.00">BioProc(4)</text>
</g>
<!-- CoExpStudy(25) -->
<g id="node6" class="node">
<title>CoExpStudy(25)</title>
<polygon fill="none" stroke="darkgreen" points="664.45,-1171.27 664.45,-1186.18 619.95,-1196.72 557.03,-1196.72 512.54,-1186.18 512.54,-1171.27 557.03,-1160.72 619.95,-1160.72 664.45,-1171.27"/>
<polygon fill="none" stroke="darkgreen" points="668.45,-1168.1 668.45,-1189.34 620.42,-1200.72 556.56,-1200.72 508.54,-1189.34 508.54,-1168.1 556.56,-1156.72 620.42,-1156.72 668.45,-1168.1"/>
<text text-anchor="middle" x="588.49" y="-1175.02" font-family="Times,serif" font-size="14.00">CoExpStudy(25)</text>
</g>
<!-- Phenotype(13) -->
<g id="node7" class="node">
<title>Phenotype(13)</title>
<polygon fill="none" stroke="darkgreen" points="1265.97,-504.27 1265.97,-519.18 1226.39,-529.72 1170.41,-529.72 1130.83,-519.18 1130.83,-504.27 1170.41,-493.72 1226.39,-493.72 1265.97,-504.27"/>
<polygon fill="none" stroke="darkgreen" points="1269.97,-501.19 1269.97,-522.25 1226.91,-533.72 1169.89,-533.72 1126.83,-522.25 1126.83,-501.19 1169.89,-489.72 1226.91,-489.72 1269.97,-501.19"/>
<text text-anchor="middle" x="1198.4" y="-508.02" font-family="Times,serif" font-size="14.00">Phenotype(13)</text>
</g>
<!-- Trait(21) -->
<g id="node8" class="node">
<title>Trait(21)</title>
<polygon fill="none" stroke="darkgreen" points="1462.71,-296.27 1462.71,-311.18 1435.8,-321.72 1397.74,-321.72 1370.83,-311.18 1370.83,-296.27 1397.74,-285.72 1435.8,-285.72 1462.71,-296.27"/>
<polygon fill="none" stroke="darkgreen" points="1466.72,-293.54 1466.72,-313.9 1436.56,-325.72 1396.98,-325.72 1366.81,-313.9 1366.81,-293.54 1396.98,-281.72 1436.56,-281.72 1466.72,-293.54"/>
<text text-anchor="middle" x="1416.77" y="-300.02" font-family="Times,serif" font-size="14.00">Trait(21)</text>
</g>
<!-- Publication(2) -->
<g id="node9" class="node">
<title>Publication(2)</title>
<polygon fill="none" stroke="darkgreen" points="1483.02,-715.27 1483.02,-730.18 1444.21,-740.72 1389.33,-740.72 1350.52,-730.18 1350.52,-715.27 1389.33,-704.72 1444.21,-704.72 1483.02,-715.27"/>
<polygon fill="none" stroke="darkgreen" points="1487.03,-712.21 1487.03,-733.24 1444.75,-744.72 1388.79,-744.72 1346.51,-733.24 1346.51,-712.21 1388.79,-700.72 1444.75,-700.72 1487.03,-712.21"/>
<text text-anchor="middle" x="1416.77" y="-719.02" font-family="Times,serif" font-size="14.00">Publication(2)</text>
</g>
<!-- MolFunc(3) -->
<g id="node10" class="node">
<title>MolFunc(3)</title>
<polygon fill="none" stroke="darkgreen" points="991.32,-428.27 991.32,-443.18 957.18,-453.72 908.89,-453.72 874.75,-443.18 874.75,-428.27 908.89,-417.72 957.18,-417.72 991.32,-428.27"/>
<polygon fill="none" stroke="darkgreen" points="995.31,-425.32 995.31,-446.13 957.78,-457.72 908.29,-457.72 870.75,-446.13 870.75,-425.32 908.29,-413.72 957.78,-413.72 995.31,-425.32"/>
<text text-anchor="middle" x="933.03" y="-432.02" font-family="Times,serif" font-size="14.00">MolFunc(3)</text>
</g>
<!-- CelComp(5) -->
<g id="node11" class="node">
<title>CelComp(5)</title>
<polygon fill="none" stroke="darkgreen" points="992.64,-504.27 992.64,-519.18 957.72,-529.72 908.34,-529.72 873.43,-519.18 873.43,-504.27 908.34,-493.72 957.72,-493.72 992.64,-504.27"/>
<polygon fill="none" stroke="darkgreen" points="996.63,-501.29 996.63,-522.15 958.31,-533.72 907.76,-533.72 869.44,-522.15 869.44,-501.29 907.76,-489.72 958.31,-489.72 996.63,-501.29"/>
<text text-anchor="middle" x="933.03" y="-508.02" font-family="Times,serif" font-size="14.00">CelComp(5)</text>
</g>
<!-- Gene(8) -->
<g id="node12" class="node">
<title>Gene(8)</title>
<polygon fill="none" stroke="darkgreen" points="975.87,-158.27 975.87,-173.18 950.78,-183.72 915.29,-183.72 890.2,-173.18 890.2,-158.27 915.29,-147.72 950.78,-147.72 975.87,-158.27"/>
<polygon fill="none" stroke="darkgreen" points="979.86,-155.61 979.86,-175.84 951.58,-187.72 914.49,-187.72 886.21,-175.84 886.21,-155.61 914.49,-143.72 951.58,-143.72 979.86,-155.61"/>
<text text-anchor="middle" x="933.03" y="-162.02" font-family="Times,serif" font-size="14.00">Gene(8)</text>
</g>
<!-- DGES(22) -->
<g id="node13" class="node">
<title>DGES(22)</title>
<polygon fill="none" stroke="darkgreen" points="985.15,-298.27 985.15,-313.18 954.62,-323.72 911.45,-323.72 880.92,-313.18 880.92,-298.27 911.45,-287.72 954.62,-287.72 985.15,-298.27"/>
<polygon fill="none" stroke="darkgreen" points="989.15,-295.42 989.15,-316.03 955.29,-327.72 910.78,-327.72 876.92,-316.03 876.92,-295.42 910.78,-283.72 955.29,-283.72 989.15,-295.42"/>
<text text-anchor="middle" x="933.03" y="-302.02" font-family="Times,serif" font-size="14.00">DGES(22)</text>
</g>
<!-- SNPEffect(26) -->
<g id="node14" class="node">
<title>SNPEffect(26)</title>
<polygon fill="none" stroke="darkgreen" points="1266.87,-442.27 1266.87,-457.18 1226.76,-467.72 1170.04,-467.72 1129.94,-457.18 1129.94,-442.27 1170.04,-431.72 1226.76,-431.72 1266.87,-442.27"/>
<polygon fill="none" stroke="darkgreen" points="1270.88,-439.19 1270.88,-460.26 1227.28,-471.72 1169.52,-471.72 1125.92,-460.26 1125.92,-439.19 1169.52,-427.72 1227.28,-427.72 1270.88,-439.19"/>
<text text-anchor="middle" x="1198.4" y="-446.02" font-family="Times,serif" font-size="14.00">SNPEffect(26)</text>
</g>
<!-- Protein(7) -->
<g id="node15" class="node">
<title>Protein(7)</title>
<polygon fill="none" stroke="darkgreen" points="638.39,-160.27 638.39,-175.18 609.16,-185.72 567.82,-185.72 538.59,-175.18 538.59,-160.27 567.82,-149.72 609.16,-149.72 638.39,-160.27"/>
<polygon fill="none" stroke="darkgreen" points="642.39,-157.46 642.39,-177.99 609.86,-189.72 567.13,-189.72 534.6,-177.99 534.6,-157.46 567.13,-145.72 609.86,-145.72 642.39,-157.46"/>
<text text-anchor="middle" x="588.49" y="-164.02" font-family="Times,serif" font-size="14.00">Protein(7)</text>
</g>
<!-- ProtDomain(14) -->
<g id="node16" class="node">
<title>ProtDomain(14)</title>
<polygon fill="none" stroke="darkgreen" points="663.13,-747.27 663.13,-762.18 619.41,-772.72 557.58,-772.72 513.86,-762.18 513.86,-747.27 557.58,-736.72 619.41,-736.72 663.13,-747.27"/>
<polygon fill="none" stroke="darkgreen" points="667.13,-744.12 667.13,-765.33 619.88,-776.72 557.1,-776.72 509.85,-765.33 509.85,-744.12 557.1,-732.72 619.88,-732.72 667.13,-744.12"/>
<text text-anchor="middle" x="588.49" y="-751.02" font-family="Times,serif" font-size="14.00">ProtDomain(14)</text>
</g>
<!-- Enzyme(177) -->
<g id="node17" class="node">
<title>Enzyme(177)</title>
<polygon fill="none" stroke="darkgreen" points="652.53,-623.27 652.53,-638.18 615.02,-648.72 561.97,-648.72 524.46,-638.18 524.46,-623.27 561.97,-612.72 615.02,-612.72 652.53,-623.27"/>
<polygon fill="none" stroke="darkgreen" points="656.53,-620.24 656.53,-641.21 615.57,-652.72 561.42,-652.72 520.46,-641.21 520.46,-620.24 561.42,-608.72 615.57,-608.72 656.53,-620.24"/>
<text text-anchor="middle" x="588.49" y="-627.02" font-family="Times,serif" font-size="14.00">Enzyme(177)</text>
</g>
<!-- Gene(1) -->
<g id="node18" class="node">
<title>Gene(1)</title>
<ellipse fill="none" stroke="red" cx="43.65" cy="-554.72" rx="39.78" ry="39.78"/>
<ellipse fill="none" stroke="red" cx="43.65" cy="-554.72" rx="43.79" ry="43.79"/>
<text text-anchor="middle" x="43.65" y="-551.02" font-family="Times,serif" font-size="14.00">Gene(1)</text>
</g>
<!-- Gene(1)&#45;&gt;Reaction(188) -->
<g id="edge47" class="edge">
<title>Gene(1)&#45;&gt;Reaction(188)</title>
<path fill="none" stroke="blue" d="M54.35,-597.38C69.29,-655 102.75,-758.25 163.29,-825.72 273.5,-948.54 322.3,-972.78 481.08,-1017.72 612.04,-1054.79 772.96,-1048.45 862.85,-1040.55"/>
<text text-anchor="middle" x="397.58" y="-1014.52" font-family="Times,serif" font-size="14.00">inv_in</text>
</g>
<!-- Gene(1)&#45;&gt;Path(19) -->
<g id="edge50" class="edge">
<title>Gene(1)&#45;&gt;Path(19)</title>
<path fill="none" stroke="black" d="M50.9,-597.93C70.35,-724.03 134.72,-1082.72 237.69,-1082.72 237.69,-1082.72 237.69,-1082.72 934.03,-1082.72 1009.65,-1082.72 1097.2,-1075.25 1149.89,-1069.93"/>
<text text-anchor="middle" x="588.49" y="-1086.52" font-family="Times,serif" font-size="14.00">part_of</text>
</g>
<!-- Gene(1)&#45;&gt;Trait(21) -->
<g id="edge40" class="edge">
<title>Gene(1)&#45;&gt;Trait(21)</title>
<path fill="none" stroke="black" d="M44.27,-510.86C45.26,-438.79 54.08,-292.31 105.29,-181.72 201.42,25.85 358.74,-1.72 587.49,-1.72 587.49,-1.72 587.49,-1.72 1199.4,-1.72 1337.11,-1.72 1395.61,-211.77 1411.24,-281.52"/>
<text text-anchor="middle" x="779.41" y="-5.52" font-family="Times,serif" font-size="14.00">cooc_wi</text>
</g>
<!-- Gene(1)&#45;&gt;Publication(2) -->
<g id="edge48" class="edge">
<title>Gene(1)&#45;&gt;Publication(2)</title>
<path fill="none" stroke="black" d="M48.08,-598.29C57.92,-710.57 90.32,-1005.15 163.29,-1063.72 244.74,-1129.09 568.96,-1125.72 778.41,-1125.72 778.41,-1125.72 778.41,-1125.72 1199.4,-1125.72 1373.71,-1125.72 1408.17,-829.45 1414.46,-744.96"/>
<text text-anchor="middle" x="779.41" y="-1129.52" font-family="Times,serif" font-size="14.00">occ_in</text>
</g>
<!-- Gene(1)&#45;&gt;Gene(8) -->
<g id="edge44" class="edge">
<title>Gene(1)&#45;&gt;Gene(8)</title>
<path fill="none" stroke="black" d="M44.27,-510.86C45.26,-438.79 54.08,-292.31 105.29,-181.72 121.99,-145.68 130.93,-136.76 163.29,-113.72 398.68,53.85 784.13,-98.38 898.84,-150.04"/>
<text text-anchor="middle" x="397.58" y="-94.52" font-family="Times,serif" font-size="14.00">genetic(&lt;=2)</text>
<text text-anchor="middle" x="397.58" y="-79.52" font-family="Times,serif" font-size="14.00">homoeolog(&lt;=2)</text>
<text text-anchor="middle" x="397.58" y="-64.52" font-family="Times,serif" font-size="14.00">physical(&lt;=2)</text>
<text text-anchor="middle" x="397.58" y="-49.52" font-family="Times,serif" font-size="14.00">regulates(&lt;=2)</text>
</g>
<!-- Gene(1)&#45;&gt;DGES(22) -->
<g id="edge41" class="edge">
<title>Gene(1)&#45;&gt;DGES(22)</title>
<path fill="none" stroke="blue" d="M44.34,-511C46.3,-430.02 62.78,-256.68 163.29,-165.72 251.18,-86.19 580.76,-108.57 695.91,-136.72 766.62,-154.01 797.66,-149.35 844.91,-204.72 864.36,-227.53 844.05,-246.42 862.91,-269.72 870.06,-278.56 879.96,-285.47 890.03,-290.77"/>
<text text-anchor="middle" x="397.58" y="-118.52" font-family="Times,serif" font-size="14.00">differentially_expressed</text>
</g>
<!-- Gene(1)&#45;&gt;Protein(7) -->
<g id="edge42" class="edge">
<title>Gene(1)&#45;&gt;Protein(7)</title>
<path fill="none" stroke="black" d="M58.27,-513.48C89.77,-426.16 177.08,-225.44 332.08,-161.72 399.97,-133.81 486.83,-144.5 539.76,-155.54"/>
<text text-anchor="middle" x="238.69" y="-309.52" font-family="Times,serif" font-size="14.00">enc</text>
</g>
<!-- CoExpCluster(23) -->
<g id="node21" class="node">
<title>CoExpCluster(23)</title>
<ellipse fill="none" stroke="black" cx="238.69" cy="-1172.72" rx="75.29" ry="18"/>
<text text-anchor="middle" x="238.69" y="-1169.02" font-family="Times,serif" font-size="14.00">CoExpCluster(23)</text>
</g>
<!-- Gene(1)&#45;&gt;CoExpCluster(23) -->
<g id="edge49" class="edge">
<title>Gene(1)&#45;&gt;CoExpCluster(23)</title>
<path fill="none" stroke="blue" d="M46.43,-598.39C52.03,-726.32 70.98,-1093.8 105.29,-1134.72 120.43,-1152.77 143.51,-1162.56 166.19,-1167.77"/>
<text text-anchor="middle" x="125.29" y="-1164.52" font-family="Times,serif" font-size="14.00">part_of</text>
</g>
<!-- Protein(10) -->
<g id="node24" class="node">
<title>Protein(10)</title>
<ellipse fill="none" stroke="black" cx="238.69" cy="-554.72" rx="50.89" ry="18"/>
<text text-anchor="middle" x="238.69" y="-551.02" font-family="Times,serif" font-size="14.00">Protein(10)</text>
</g>
<!-- Gene(1)&#45;&gt;Protein(10) -->
<g id="edge43" class="edge">
<title>Gene(1)&#45;&gt;Protein(10)</title>
<path fill="none" stroke="blue" d="M87.49,-554.72C117.15,-554.72 156.72,-554.72 187.8,-554.72"/>
<text text-anchor="middle" x="125.29" y="-558.52" font-family="Times,serif" font-size="14.00">enc</text>
</g>
<!-- Gene(9) -->
<g id="node26" class="node">
<title>Gene(9)</title>
<ellipse fill="none" stroke="black" cx="588.49" cy="-314.72" rx="39.79" ry="18"/>
<text text-anchor="middle" x="588.49" y="-311.02" font-family="Times,serif" font-size="14.00">Gene(9)</text>
</g>
<!-- Gene(1)&#45;&gt;Gene(9) -->
<g id="edge45" class="edge">
<title>Gene(1)&#45;&gt;Gene(9)</title>
<path fill="none" stroke="blue" d="M74.3,-523.5C122.9,-474.62 224.88,-381.29 332.08,-339.72 404.98,-311.46 497.97,-310.2 549.24,-312.2"/>
<text text-anchor="middle" x="238.69" y="-488.52" font-family="Times,serif" font-size="14.00">genetic(&lt;=2)</text>
<text text-anchor="middle" x="238.69" y="-473.52" font-family="Times,serif" font-size="14.00">homoeolog(&lt;=2)</text>
<text text-anchor="middle" x="238.69" y="-458.52" font-family="Times,serif" font-size="14.00">physical(&lt;=2)</text>
<text text-anchor="middle" x="238.69" y="-443.52" font-family="Times,serif" font-size="14.00">regulates(&lt;=2)</text>
</g>
<!-- SNP(20) -->
<g id="node27" class="node">
<title>SNP(20)</title>
<ellipse fill="none" stroke="black" cx="933.03" cy="-569.72" rx="41.69" ry="18"/>
<text text-anchor="middle" x="933.03" y="-566.02" font-family="Times,serif" font-size="14.00">SNP(20)</text>
</g>
<!-- Gene(1)&#45;&gt;SNP(20) -->
<g id="edge46" class="edge">
<title>Gene(1)&#45;&gt;SNP(20)</title>
<path fill="none" stroke="black" d="M63.84,-593.75C102.59,-667.52 198.07,-825.49 332.08,-886.72 385.04,-910.92 405.33,-894.16 463.08,-886.72 569.17,-873.06 619.28,-900.36 695.91,-825.72 716.46,-805.7 693.9,-784.29 713.91,-763.72 756.54,-719.9 797.38,-760.18 844.91,-721.72 889.83,-685.37 916.07,-619.25 926.61,-587.57"/>
<text text-anchor="middle" x="397.58" y="-917.52" font-family="Times,serif" font-size="14.00">has_mutant</text>
<text text-anchor="middle" x="397.58" y="-902.52" font-family="Times,serif" font-size="14.00">has_variation</text>
</g>
<!-- Enzyme(17) -->
<g id="node19" class="node">
<title>Enzyme(17)</title>
<ellipse fill="none" stroke="black" cx="588.49" cy="-990.72" rx="54.69" ry="18"/>
<text text-anchor="middle" x="588.49" y="-987.02" font-family="Times,serif" font-size="14.00">Enzyme(17)</text>
</g>
<!-- Enzyme(17)&#45;&gt;Reaction(188) -->
<g id="edge1" class="edge">
<title>Enzyme(17)&#45;&gt;Reaction(188)</title>
<path fill="none" stroke="blue" d="M643.16,-991.85C695.08,-993.62 775.84,-998.14 844.91,-1009.72 856.48,-1011.66 868.75,-1014.44 880.31,-1017.4"/>
<text text-anchor="middle" x="779.41" y="-1013.52" font-family="Times,serif" font-size="14.00">ca_by</text>
</g>
<!-- Reaction(18) -->
<g id="node20" class="node">
<title>Reaction(18)</title>
<ellipse fill="none" stroke="black" cx="933.03" cy="-973.72" rx="56.59" ry="18"/>
<text text-anchor="middle" x="933.03" y="-970.02" font-family="Times,serif" font-size="14.00">Reaction(18)</text>
</g>
<!-- Enzyme(17)&#45;&gt;Reaction(18) -->
<g id="edge2" class="edge">
<title>Enzyme(17)&#45;&gt;Reaction(18)</title>
<path fill="none" stroke="black" d="M636.27,-981.86C659.51,-977.9 688.09,-973.68 713.91,-971.72 771.96,-967.32 786.69,-971.06 844.91,-971.72 855.04,-971.84 865.84,-972.03 876.26,-972.25"/>
<text text-anchor="middle" x="779.41" y="-975.52" font-family="Times,serif" font-size="14.00">ca_by</text>
</g>
<!-- Reaction(18)&#45;&gt;Path(19) -->
<g id="edge3" class="edge">
<title>Reaction(18)&#45;&gt;Path(19)</title>
<path fill="none" stroke="blue" d="M972.05,-986.86C1021.62,-1003.99 1107.91,-1033.8 1158.11,-1051.15"/>
<text text-anchor="middle" x="1064.66" y="-1035.52" font-family="Times,serif" font-size="14.00">part_of</text>
</g>
<!-- CoExpCluster(23)&#45;&gt;PlantOntologyTerm(24) -->
<g id="edge4" class="edge">
<title>CoExpCluster(23)&#45;&gt;PlantOntologyTerm(24)</title>
<path fill="none" stroke="black" d="M291.86,-1185.68C304.96,-1188.79 319.01,-1191.99 332.08,-1194.72 388.09,-1206.43 451.39,-1217.84 500.96,-1226.37"/>
<text text-anchor="middle" x="397.58" y="-1222.52" font-family="Times,serif" font-size="14.00">enriched_for</text>
</g>
<!-- CoExpCluster(23)&#45;&gt;BioProc(4) -->
<g id="edge5" class="edge">
<title>CoExpCluster(23)&#45;&gt;BioProc(4)</title>
<path fill="none" stroke="blue" d="M292.05,-1159.92C344.01,-1144.35 421.69,-1112.78 463.08,-1055.72 491.39,-1016.69 447.36,-983.19 481.08,-948.72 549.05,-879.24 603.77,-938.7 695.91,-907.72 772.66,-881.92 856.16,-835.87 900.38,-809.9"/>
<text text-anchor="middle" x="588.49" y="-952.52" font-family="Times,serif" font-size="14.00">enriched_for</text>
</g>
<!-- CoExpCluster(23)&#45;&gt;CoExpStudy(25) -->
<g id="edge6" class="edge">
<title>CoExpCluster(23)&#45;&gt;CoExpStudy(25)</title>
<path fill="none" stroke="black" d="M314.3,-1174.01C371.49,-1175 450.21,-1176.36 508.47,-1177.36"/>
<text text-anchor="middle" x="397.58" y="-1179.52" font-family="Times,serif" font-size="14.00">part_of</text>
</g>
<!-- Phenotype(133) -->
<g id="node22" class="node">
<title>Phenotype(133)</title>
<ellipse fill="none" stroke="black" cx="1198.4" cy="-569.72" rx="66.89" ry="18"/>
<text text-anchor="middle" x="1198.4" y="-566.02" font-family="Times,serif" font-size="14.00">Phenotype(133)</text>
</g>
<!-- Phenotype(133)&#45;&gt;Trait(21) -->
<g id="edge7" class="edge">
<title>Phenotype(133)&#45;&gt;Trait(21)</title>
<path fill="none" stroke="black" d="M1246.3,-557.05C1254.97,-553.34 1263.52,-548.64 1270.64,-542.72 1344.36,-481.42 1390.71,-372.46 1408.05,-325.86"/>
<text text-anchor="middle" x="1308.64" y="-525.52" font-family="Times,serif" font-size="14.00">part_of</text>
</g>
<!-- Phenotype(133)&#45;&gt;Publication(2) -->
<g id="edge8" class="edge">
<title>Phenotype(133)&#45;&gt;Publication(2)</title>
<path fill="none" stroke="blue" d="M1264.93,-567.57C1286.59,-569.55 1309.92,-574.83 1328.64,-586.72 1371.01,-613.64 1396.73,-669.4 1408.36,-700.52"/>
<text text-anchor="middle" x="1308.64" y="-590.52" font-family="Times,serif" font-size="14.00">pub_in</text>
</g>
<!-- ProtDomain(11) -->
<g id="node23" class="node">
<title>ProtDomain(11)</title>
<ellipse fill="none" stroke="black" cx="588.49" cy="-521.72" rx="68.79" ry="18"/>
<text text-anchor="middle" x="588.49" y="-518.02" font-family="Times,serif" font-size="14.00">ProtDomain(11)</text>
</g>
<!-- ProtDomain(11)&#45;&gt;BioProc(4) -->
<g id="edge11" class="edge">
<title>ProtDomain(11)&#45;&gt;BioProc(4)</title>
<path fill="none" stroke="black" d="M653.1,-528.18C669.28,-532.89 685.13,-540.73 695.91,-553.72 743.86,-611.51 666.36,-663.6 713.91,-721.72 734.5,-746.9 817.99,-768.1 875.5,-780.11"/>
<text text-anchor="middle" x="779.41" y="-775.52" font-family="Times,serif" font-size="14.00">participates_in</text>
</g>
<!-- ProtDomain(11)&#45;&gt;MolFunc(3) -->
<g id="edge9" class="edge">
<title>ProtDomain(11)&#45;&gt;MolFunc(3)</title>
<path fill="none" stroke="black" d="M634.23,-508.15C666.56,-498.38 705.9,-486.61 713.91,-484.72 771.44,-471.16 787.38,-475.31 844.91,-461.72 858.12,-458.6 872.29,-454.65 885.28,-450.76"/>
<text text-anchor="middle" x="779.41" y="-488.52" font-family="Times,serif" font-size="14.00">has_function</text>
</g>
<!-- ProtDomain(11)&#45;&gt;CelComp(5) -->
<g id="edge10" class="edge">
<title>ProtDomain(11)&#45;&gt;CelComp(5)</title>
<path fill="none" stroke="blue" d="M646.49,-531.53C663.45,-536.31 681.38,-543.36 695.91,-553.72 707.05,-561.67 701.72,-572.48 713.91,-578.72 765.73,-605.27 795.38,-609.33 844.91,-578.72 860.12,-569.32 849.99,-555.1 862.91,-542.72 869.46,-536.44 877.5,-531.3 885.75,-527.13"/>
<text text-anchor="middle" x="779.41" y="-603.52" font-family="Times,serif" font-size="14.00">located_in</text>
</g>
<!-- Protein(10)&#45;&gt;EC(15) -->
<g id="edge13" class="edge">
<title>Protein(10)&#45;&gt;EC(15)</title>
<path fill="none" stroke="black" d="M254.93,-571.96C271.95,-590.1 301.18,-618.13 332.08,-633.72 401.76,-668.88 492.71,-683.41 545.16,-689.17"/>
<text text-anchor="middle" x="397.58" y="-679.52" font-family="Times,serif" font-size="14.00">cat_c</text>
</g>
<!-- Protein(10)&#45;&gt;BioProc(4) -->
<g id="edge25" class="edge">
<title>Protein(10)&#45;&gt;BioProc(4)</title>
<path fill="none" stroke="black" d="M242.01,-572.91C248.28,-613.9 269.52,-713.64 332.08,-761.72 415.69,-825.99 741.66,-806.81 874.85,-795.92"/>
<text text-anchor="middle" x="588.49" y="-810.52" font-family="Times,serif" font-size="14.00">participates_in</text>
</g>
<!-- Protein(10)&#45;&gt;Trait(21) -->
<g id="edge14" class="edge">
<title>Protein(10)&#45;&gt;Trait(21)</title>
<path fill="none" stroke="blue" d="M271.43,-540.9C286.91,-532.46 304.26,-520.11 314.08,-503.72 351.75,-440.81 286.42,-397.1 332.08,-339.72 375.75,-284.84 412.4,-301.97 481.08,-287.72 594.84,-264.13 887.14,-253.55 1003.16,-259.72 1135.17,-266.74 1289.93,-286.31 1367,-296.82"/>
<text text-anchor="middle" x="933.03" y="-263.52" font-family="Times,serif" font-size="14.00">cooc_wi</text>
</g>
<!-- Protein(10)&#45;&gt;Publication(2) -->
<g id="edge26" class="edge">
<title>Protein(10)&#45;&gt;Publication(2)</title>
<path fill="none" stroke="blue" d="M246.94,-572.64C260.46,-606.12 290.27,-680.53 314.08,-743.72 322.41,-765.83 314.3,-778.18 332.08,-793.72 385.48,-840.41 702.76,-855.72 778.41,-855.72 778.41,-855.72 778.41,-855.72 1199.4,-855.72 1282.96,-855.72 1361.37,-782.85 1396.47,-744.98"/>
<text text-anchor="middle" x="933.03" y="-859.52" font-family="Times,serif" font-size="14.00">pub_in</text>
</g>
<!-- Protein(10)&#45;&gt;MolFunc(3) -->
<g id="edge21" class="edge">
<title>Protein(10)&#45;&gt;MolFunc(3)</title>
<path fill="none" stroke="black" d="M273.89,-541.66C320.15,-524.56 405.59,-494.97 481.08,-479.72 618.52,-451.97 783.2,-441.53 870.55,-437.75"/>
<text text-anchor="middle" x="588.49" y="-483.52" font-family="Times,serif" font-size="14.00">has_function</text>
</g>
<!-- Protein(10)&#45;&gt;CelComp(5) -->
<g id="edge24" class="edge">
<title>Protein(10)&#45;&gt;CelComp(5)</title>
<path fill="none" stroke="blue" d="M288.59,-558.54C302.63,-559.61 317.96,-560.74 332.08,-561.72 372.49,-564.53 661.88,-562.75 695.91,-584.72 710.27,-594 699.26,-609.9 713.91,-618.72 763.79,-648.76 799.24,-654.84 844.91,-618.72 872.13,-597.19 840.79,-569.48 862.91,-542.72 868.44,-536.03 875.71,-530.73 883.46,-526.55"/>
<text text-anchor="middle" x="588.49" y="-588.52" font-family="Times,serif" font-size="14.00">located_in</text>
</g>
<!-- Protein(10)&#45;&gt;Gene(8) -->
<g id="edge15" class="edge">
<title>Protein(10)&#45;&gt;Gene(8)</title>
<path fill="none" stroke="black" d="M271.65,-541.03C287.19,-532.63 304.53,-520.27 314.08,-503.72 340.14,-458.55 297.52,-308.78 332.08,-269.72 341.36,-259.23 746.71,-194.8 885.78,-172.95"/>
<text text-anchor="middle" x="588.49" y="-241.52" font-family="Times,serif" font-size="14.00">enc</text>
</g>
<!-- Protein(10)&#45;&gt;Protein(7) -->
<g id="edge17" class="edge">
<title>Protein(10)&#45;&gt;Protein(7)</title>
<path fill="none" stroke="black" d="M250.02,-537.15C266.75,-507.76 299.34,-446.28 314.08,-389.72 325.78,-344.83 298.76,-214.01 332.08,-181.72 359.87,-154.8 468.16,-158.04 534.49,-162.86"/>
<text text-anchor="middle" x="397.58" y="-230.52" font-family="Times,serif" font-size="14.00">equivalent(&lt;=4)</text>
<text text-anchor="middle" x="397.58" y="-215.52" font-family="Times,serif" font-size="14.00">h_s_s(&lt;=4)</text>
<text text-anchor="middle" x="397.58" y="-200.52" font-family="Times,serif" font-size="14.00">ortho(&lt;=4)</text>
<text text-anchor="middle" x="397.58" y="-185.52" font-family="Times,serif" font-size="14.00">xref(&lt;=8)</text>
</g>
<!-- Protein(10)&#45;&gt;ProtDomain(14) -->
<g id="edge20" class="edge">
<title>Protein(10)&#45;&gt;ProtDomain(14)</title>
<path fill="none" stroke="blue" d="M246.47,-572.96C258.7,-603.23 287.42,-663.57 332.08,-694.72 384.38,-731.21 455.87,-745.73 509.91,-751.4"/>
<text text-anchor="middle" x="397.58" y="-746.52" font-family="Times,serif" font-size="14.00">has_domain</text>
</g>
<!-- Protein(10)&#45;&gt;Enzyme(177) -->
<g id="edge22" class="edge">
<title>Protein(10)&#45;&gt;Enzyme(177)</title>
<path fill="none" stroke="blue" d="M271.66,-568.67C289.21,-575.86 311.53,-584.24 332.08,-589.72 394.89,-606.48 468.33,-617.39 520.3,-623.72"/>
<text text-anchor="middle" x="397.58" y="-618.52" font-family="Times,serif" font-size="14.00">is_a</text>
</g>
<!-- Protein(10)&#45;&gt;Enzyme(17) -->
<g id="edge23" class="edge">
<title>Protein(10)&#45;&gt;Enzyme(17)</title>
<path fill="none" stroke="black" d="M239.38,-572.98C239.59,-624.98 247.81,-774.81 332.08,-848.72 376.52,-887.7 420.65,-830.56 463.08,-871.72 491.42,-899.22 454.42,-929.6 481.08,-958.72 495.02,-973.95 515.9,-982.04 535.48,-986.29"/>
<text text-anchor="middle" x="397.58" y="-875.52" font-family="Times,serif" font-size="14.00">is_a</text>
</g>
<!-- Protein(10)&#45;&gt;ProtDomain(11) -->
<g id="edge19" class="edge">
<title>Protein(10)&#45;&gt;ProtDomain(11)</title>
<path fill="none" stroke="black" d="M288.05,-550.14C349.46,-544.31 455.59,-534.24 523.61,-527.78"/>
<text text-anchor="middle" x="397.58" y="-549.52" font-family="Times,serif" font-size="14.00">has_domain</text>
</g>
<!-- Protein(10)&#45;&gt;Protein(10) -->
<g id="edge18" class="edge">
<title>Protein(10)&#45;&gt;Protein(10)</title>
<path fill="none" stroke="blue" d="M219,-571.39C214.62,-581.35 221.19,-590.72 238.69,-590.72 256.19,-590.72 262.75,-581.35 258.37,-571.39"/>
<text text-anchor="middle" x="238.69" y="-639.52" font-family="Times,serif" font-size="14.00">equivalent(&lt;=4)</text>
<text text-anchor="middle" x="238.69" y="-624.52" font-family="Times,serif" font-size="14.00">h_s_s(&lt;=4)</text>
<text text-anchor="middle" x="238.69" y="-609.52" font-family="Times,serif" font-size="14.00">ortho(&lt;=4)</text>
<text text-anchor="middle" x="238.69" y="-594.52" font-family="Times,serif" font-size="14.00">xref(&lt;=8)</text>
</g>
<!-- EC(12) -->
<g id="node25" class="node">
<title>EC(12)</title>
<ellipse fill="none" stroke="black" cx="588.49" cy="-416.72" rx="36.29" ry="18"/>
<text text-anchor="middle" x="588.49" y="-413.02" font-family="Times,serif" font-size="14.00">EC(12)</text>
</g>
<!-- Protein(10)&#45;&gt;EC(12) -->
<g id="edge12" class="edge">
<title>Protein(10)&#45;&gt;EC(12)</title>
<path fill="none" stroke="blue" d="M248.42,-536.88C262.2,-510.89 291.64,-463.37 332.08,-441.72 403.18,-403.67 501.42,-406.93 552.88,-412.1"/>
<text text-anchor="middle" x="397.58" y="-445.52" font-family="Times,serif" font-size="14.00">cat_c</text>
</g>
<!-- Protein(10)&#45;&gt;Gene(9) -->
<g id="edge16" class="edge">
<title>Protein(10)&#45;&gt;Gene(9)</title>
<path fill="none" stroke="blue" d="M244.84,-536.7C255.44,-502.92 282.91,-429.96 332.08,-390.72 366.34,-363.38 489.83,-334.88 551.68,-321.91"/>
<text text-anchor="middle" x="397.58" y="-394.52" font-family="Times,serif" font-size="14.00">enc</text>
</g>
<!-- EC(12)&#45;&gt;MolFunc(3) -->
<g id="edge27" class="edge">
<title>EC(12)&#45;&gt;MolFunc(3)</title>
<path fill="none" stroke="blue" d="M625.11,-415.85C674.55,-415.01 766.72,-414.71 844.91,-421.72 853.6,-422.5 862.75,-423.63 871.71,-424.91"/>
<text text-anchor="middle" x="779.41" y="-425.52" font-family="Times,serif" font-size="14.00">equ</text>
</g>
<!-- Gene(9)&#45;&gt;BioProc(4) -->
<g id="edge35" class="edge">
<title>Gene(9)&#45;&gt;BioProc(4)</title>
<path fill="none" stroke="black" d="M618.51,-326.55C643.67,-338.48 678.68,-359.48 695.91,-389.72 746.43,-478.44 661.46,-531.13 713.91,-618.72 749.44,-678.06 791.14,-659.22 844.91,-702.72 869.98,-723.01 895.58,-749.73 912.49,-768.39"/>
<text text-anchor="middle" x="779.41" y="-706.52" font-family="Times,serif" font-size="14.00">participates_in</text>
</g>
<!-- Gene(9)&#45;&gt;Trait(21) -->
<g id="edge28" class="edge">
<title>Gene(9)&#45;&gt;Trait(21)</title>
<path fill="none" stroke="blue" d="M626.71,-319.93C651.4,-323.21 684.53,-327.27 713.91,-329.72 779.97,-335.25 796.63,-335.17 862.91,-336.72 925.23,-338.19 940.88,-339.21 1003.16,-336.72 1134.92,-331.46 1289.79,-316.79 1366.94,-308.9"/>
<text text-anchor="middle" x="1064.66" y="-339.52" font-family="Times,serif" font-size="14.00">cooc_wi</text>
</g>
<!-- Gene(9)&#45;&gt;Publication(2) -->
<g id="edge36" class="edge">
<title>Gene(9)&#45;&gt;Publication(2)</title>
<path fill="none" stroke="blue" d="M618.38,-326.62C643.46,-338.6 678.41,-359.63 695.91,-389.72 716.78,-425.62 686.2,-544.79 713.91,-575.72 714.59,-576.48 1183.64,-674.33 1354.47,-709.95"/>
<text text-anchor="middle" x="1064.66" y="-661.52" font-family="Times,serif" font-size="14.00">pub_in</text>
</g>
<!-- Gene(9)&#45;&gt;MolFunc(3) -->
<g id="edge32" class="edge">
<title>Gene(9)&#45;&gt;MolFunc(3)</title>
<path fill="none" stroke="blue" d="M618.91,-326.41C643.96,-336.17 681.02,-350.15 713.91,-360.72 771.39,-379.21 788.07,-376.33 844.91,-396.72 861.75,-402.77 879.89,-410.65 895.24,-417.75"/>
<text text-anchor="middle" x="779.41" y="-400.52" font-family="Times,serif" font-size="14.00">has_function</text>
</g>
<!-- Gene(9)&#45;&gt;CelComp(5) -->
<g id="edge34" class="edge">
<title>Gene(9)&#45;&gt;CelComp(5)</title>
<path fill="none" stroke="blue" d="M617.91,-326.91C642.68,-339.08 677.43,-360.22 695.91,-389.72 722.2,-431.71 677.05,-466.62 713.91,-499.72 736.06,-519.62 813.08,-519.62 869.34,-516.65"/>
<text text-anchor="middle" x="779.41" y="-521.52" font-family="Times,serif" font-size="14.00">located_in</text>
</g>
<!-- Gene(9)&#45;&gt;Gene(8) -->
<g id="edge31" class="edge">
<title>Gene(9)&#45;&gt;Gene(8)</title>
<path fill="none" stroke="black" d="M617.82,-302.4C680.33,-275.21 829.92,-210.14 897.66,-180.67"/>
<text text-anchor="middle" x="779.41" y="-276.52" font-family="Times,serif" font-size="14.00">genetic(&lt;=8)</text>
<text text-anchor="middle" x="779.41" y="-261.52" font-family="Times,serif" font-size="14.00">physical(&lt;=8)</text>
</g>
<!-- Gene(9)&#45;&gt;DGES(22) -->
<g id="edge29" class="edge">
<title>Gene(9)&#45;&gt;DGES(22)</title>
<path fill="none" stroke="black" d="M628.12,-313.71C688.92,-312.11 807.19,-309 876.91,-307.17"/>
<text text-anchor="middle" x="779.41" y="-314.52" font-family="Times,serif" font-size="14.00">differentially_expressed</text>
</g>
<!-- Gene(9)&#45;&gt;Gene(9) -->
<g id="edge30" class="edge">
<title>Gene(9)&#45;&gt;Gene(9)</title>
<path fill="none" stroke="blue" d="M559.21,-327.27C544.96,-338.59 554.72,-350.72 588.49,-350.72 622.26,-350.72 632.02,-338.59 617.78,-327.27"/>
<text text-anchor="middle" x="588.49" y="-369.52" font-family="Times,serif" font-size="14.00">genetic(&lt;=8)</text>
<text text-anchor="middle" x="588.49" y="-354.52" font-family="Times,serif" font-size="14.00">physical(&lt;=8)</text>
</g>
<!-- Gene(9)&#45;&gt;SNP(20) -->
<g id="edge33" class="edge">
<title>Gene(9)&#45;&gt;SNP(20)</title>
<path fill="none" stroke="black" d="M618.2,-326.73C643.15,-338.78 678.03,-359.86 695.91,-389.72 729.71,-446.2 668.03,-489.53 713.91,-536.72 720.08,-543.07 831.24,-557.48 892.43,-564.98"/>
<text text-anchor="middle" x="779.41" y="-561.52" font-family="Times,serif" font-size="14.00">has_variation</text>
</g>
<!-- SNP(20)&#45;&gt;Phenotype(13) -->
<g id="edge37" class="edge">
<title>SNP(20)&#45;&gt;Phenotype(13)</title>
<path fill="none" stroke="black" d="M970.38,-561.72C1013.35,-552.26 1085.5,-536.37 1136.93,-525.04"/>
<text text-anchor="middle" x="1064.66" y="-552.52" font-family="Times,serif" font-size="14.00">associated_with</text>
</g>
<!-- SNP(20)&#45;&gt;SNPEffect(26) -->
<g id="edge39" class="edge">
<title>SNP(20)&#45;&gt;SNPEffect(26)</title>
<path fill="none" stroke="black" d="M969.5,-560.88C981.13,-556.74 993.52,-550.87 1003.16,-542.72 1015.04,-532.69 1009.14,-522.58 1021.16,-512.72 1052.82,-486.76 1096.01,-471.1 1131.71,-461.88"/>
<text text-anchor="middle" x="1064.66" y="-516.52" font-family="Times,serif" font-size="14.00">leads_to</text>
</g>
<!-- SNP(20)&#45;&gt;Phenotype(133) -->
<g id="edge38" class="edge">
<title>SNP(20)&#45;&gt;Phenotype(133)</title>
<path fill="none" stroke="blue" d="M974.9,-569.72C1016.65,-569.72 1082.16,-569.72 1131.3,-569.72"/>
<text text-anchor="middle" x="1064.66" y="-573.52" font-family="Times,serif" font-size="14.00">associated_with</text>
</g>
</g>
</svg>
