<svg width="749pt" height="333pt"
 viewBox="0.00 0.00 748.83 333.40" xmlns="http://www.w3.org/2000/svg" xmlns:xlink="http://www.w3.org/1999/xlink">
<g id="graph0" class="graph" transform="scale(1 1) rotate(0) translate(4 329.4)">
<title>%3</title>
<polygon fill="white" stroke="transparent" points="-4,4 -4,-329.4 744.83,-329.4 744.83,4 -4,4"/>
<!-- Publication(2) -->
<g id="node1" class="node">
<title>Publication(2)</title>
<polygon fill="none" stroke="darkgreen" points="737.02,-209.95 737.02,-224.86 698.42,-235.4 643.83,-235.4 605.23,-224.86 605.23,-209.95 643.83,-199.4 698.42,-199.4 737.02,-209.95"/>
<polygon fill="none" stroke="darkgreen" points="741.03,-206.89 741.03,-227.91 698.96,-239.4 643.29,-239.4 601.21,-227.91 601.21,-206.89 643.29,-195.4 698.96,-195.4 741.03,-206.89"/>
<text text-anchor="middle" x="671.12" y="-213.2" font-family="Times,serif" font-size="14.00">Publication(2)</text>
</g>
<!-- Gene(1) -->
<g id="node2" class="node">
<title>Gene(1)</title>
<ellipse fill="none" stroke="red" cx="43.08" cy="-151.4" rx="39.15" ry="39.15"/>
<ellipse fill="none" stroke="red" cx="43.08" cy="-151.4" rx="43.15" ry="43.15"/>
<text text-anchor="middle" x="43.08" y="-147.2" font-family="Times,serif" font-size="14.00">Gene(1)</text>
</g>
<!-- Gene(1)&#45;&gt;Publication(2) -->
<g id="edge3" class="edge">
<title>Gene(1)&#45;&gt;Publication(2)</title>
<path fill="none" stroke="black" d="M80.17,-173.51C87.97,-177.98 96.25,-182.5 104.15,-186.4 190.41,-228.95 383.46,-286.16 391.08,-287.4 475.66,-301.25 508.21,-314.52 583.42,-273.4 594.2,-267.5 591.76,-260 601.42,-252.4 606.86,-248.12 612.91,-244.14 619.1,-240.51"/>
<polygon fill="black" stroke="black" points="621.16,-243.37 628.21,-235.46 617.76,-237.25 621.16,-243.37"/>
<text text-anchor="middle" x="331.87" y="-284.2" font-family="Times,serif" font-size="14.00">pub_in</text>
</g>
<!-- BioProc(4) -->
<g id="node3" class="node">
<title>BioProc(4)</title>
<polygon fill="none" stroke="darkgreen" points="724.58,-275.95 724.58,-290.86 693.26,-301.4 648.98,-301.4 617.67,-290.86 617.67,-275.95 648.98,-265.4 693.26,-265.4 724.58,-275.95"/>
<polygon fill="none" stroke="darkgreen" points="728.57,-273.07 728.57,-293.73 693.92,-305.4 648.33,-305.4 613.67,-293.73 613.67,-273.07 648.33,-261.4 693.92,-261.4 728.57,-273.07"/>
<text text-anchor="middle" x="671.12" y="-279.2" font-family="Times,serif" font-size="14.00">BioProc(4)</text>
</g>
<!-- Gene(1)&#45;&gt;BioProc(4) -->
<g id="edge2" class="edge">
<title>Gene(1)&#45;&gt;BioProc(4)</title>
<path fill="none" stroke="blue" d="M73.39,-182.37C82.8,-191.56 93.54,-201.33 104.15,-209.4 177.4,-265.14 201.32,-277.26 290.66,-299.4 399.38,-326.34 530.9,-310.49 607.09,-296.76"/>
<polygon fill="blue" stroke="blue" points="607.81,-300.19 617.01,-294.93 606.54,-293.31 607.81,-300.19"/>
<text text-anchor="middle" x="331.87" y="-314.2" font-family="Times,serif" font-size="14.00">participates_in</text>
</g>
<!-- MolFunc(3) -->
<g id="node4" class="node">
<title>MolFunc(3)</title>
<polygon fill="none" stroke="darkgreen" points="728.51,-18.95 728.51,-33.86 694.89,-44.4 647.35,-44.4 613.73,-33.86 613.73,-18.95 647.35,-8.4 694.89,-8.4 728.51,-18.95"/>
<polygon fill="none" stroke="darkgreen" points="732.53,-16.01 732.53,-36.79 695.51,-48.4 646.73,-48.4 609.72,-36.79 609.72,-16.01 646.73,-4.4 695.51,-4.4 732.53,-16.01"/>
<text text-anchor="middle" x="671.12" y="-22.2" font-family="Times,serif" font-size="14.00">MolFunc(3)</text>
</g>
<!-- Gene(1)&#45;&gt;MolFunc(3) -->
<g id="edge5" class="edge">
<title>Gene(1)&#45;&gt;MolFunc(3)</title>
<path fill="none" stroke="black" d="M65.07,-114.15C75.38,-98.1 88.88,-79.95 104.15,-66.4 127.21,-45.94 135.89,-43.07 165.16,-33.4 313.65,15.67 500.37,-0.25 599.95,-14.41"/>
<polygon fill="black" stroke="black" points="599.5,-17.88 609.9,-15.86 600.51,-10.95 599.5,-17.88"/>
<text text-anchor="middle" x="331.87" y="-9.2" font-family="Times,serif" font-size="14.00">has_function</text>
</g>
<!-- CelComp(5) -->
<g id="node5" class="node">
<title>CelComp(5)</title>
<polygon fill="none" stroke="darkgreen" points="729.73,-80.95 729.73,-95.86 695.4,-106.4 646.85,-106.4 612.52,-95.86 612.52,-80.95 646.85,-70.4 695.4,-70.4 729.73,-80.95"/>
<polygon fill="none" stroke="darkgreen" points="733.71,-77.99 733.71,-98.82 695.99,-110.4 646.25,-110.4 608.53,-98.82 608.53,-77.99 646.25,-66.4 695.99,-66.4 733.71,-77.99"/>
<text text-anchor="middle" x="671.12" y="-84.2" font-family="Times,serif" font-size="14.00">CelComp(5)</text>
</g>
<!-- Gene(1)&#45;&gt;CelComp(5) -->
<g id="edge4" class="edge">
<title>Gene(1)&#45;&gt;CelComp(5)</title>
<path fill="none" stroke="blue" d="M74.54,-121.39C97.43,-100.87 130.66,-75.17 165.16,-62.4 318.42,-5.68 515.81,-45.2 612.1,-70.99"/>
<polygon fill="blue" stroke="blue" points="611.37,-74.42 621.94,-73.67 613.21,-67.66 611.37,-74.42"/>
<text text-anchor="middle" x="331.87" y="-38.2" font-family="Times,serif" font-size="14.00">located_in</text>
</g>
<!-- Protein(7) -->
<g id="node6" class="node">
<title>Protein(7)</title>
<polygon fill="none" stroke="darkgreen" points="268.43,-85.95 268.43,-100.86 239.42,-111.4 198.4,-111.4 169.39,-100.86 169.39,-85.95 198.4,-75.4 239.42,-75.4 268.43,-85.95"/>
<polygon fill="none" stroke="darkgreen" points="272.41,-83.14 272.41,-103.66 240.12,-115.4 197.7,-115.4 165.41,-103.66 165.41,-83.14 197.7,-71.4 240.12,-71.4 272.41,-83.14"/>
<text text-anchor="middle" x="218.91" y="-89.2" font-family="Times,serif" font-size="14.00">Protein(7)</text>
</g>
<!-- Gene(1)&#45;&gt;Protein(7) -->
<g id="edge6" class="edge">
<title>Gene(1)&#45;&gt;Protein(7)</title>
<path fill="none" stroke="blue" d="M84.39,-137.95C108.67,-129.85 139.84,-119.45 165.96,-110.74"/>
<polygon fill="blue" stroke="blue" points="167.31,-113.97 175.69,-107.49 165.1,-107.33 167.31,-113.97"/>
<text text-anchor="middle" x="125.66" y="-133.2" font-family="Times,serif" font-size="14.00">enc</text>
</g>
<!-- Gene(9) -->
<g id="node7" class="node">
<title>Gene(9)</title>
<ellipse fill="none" stroke="black" cx="218.91" cy="-151.4" rx="39.15" ry="18"/>
<text text-anchor="middle" x="218.91" y="-147.2" font-family="Times,serif" font-size="14.00">Gene(9)</text>
</g>
<!-- Gene(1)&#45;&gt;Gene(9) -->
<g id="edge1" class="edge">
<title>Gene(1)&#45;&gt;Gene(9)</title>
<path fill="none" stroke="black" d="M86.16,-151.4C111.35,-151.4 143.46,-151.4 169.68,-151.4"/>
<polygon fill="black" stroke="black" points="169.78,-154.9 179.78,-151.4 169.78,-147.9 169.78,-154.9"/>
<text text-anchor="middle" x="125.66" y="-154.2" font-family="Times,serif" font-size="14.00">gi(&lt;=4)</text>
</g>
<!-- Protein(6) -->
<g id="node8" class="node">
<title>Protein(6)</title>
<ellipse fill="none" stroke="black" cx="437.04" cy="-203.4" rx="45.93" ry="18"/>
<text text-anchor="middle" x="437.04" y="-199.2" font-family="Times,serif" font-size="14.00">Protein(6)</text>
</g>
<!-- Gene(1)&#45;&gt;Protein(6) -->
<g id="edge7" class="edge">
<title>Gene(1)&#45;&gt;Protein(6)</title>
<path fill="none" stroke="black" d="M84.26,-164.31C90.87,-166.18 97.67,-167.96 104.15,-169.4 199.95,-190.7 314.33,-198.7 380.72,-201.68"/>
<polygon fill="black" stroke="black" points="380.81,-205.18 390.95,-202.11 381.11,-198.19 380.81,-205.18"/>
<text text-anchor="middle" x="218.91" y="-196.2" font-family="Times,serif" font-size="14.00">h_s_s</text>
</g>
<!-- Gene(9)&#45;&gt;Publication(2) -->
<g id="edge12" class="edge">
<title>Gene(9)&#45;&gt;Publication(2)</title>
<path fill="none" stroke="blue" d="M256.3,-146.07C322.96,-137.68 468.39,-125.76 583.42,-161.4 602.34,-167.26 621.08,-178.5 636.28,-189.38"/>
<polygon fill="blue" stroke="blue" points="634.21,-192.21 644.33,-195.36 638.38,-186.59 634.21,-192.21"/>
<text text-anchor="middle" x="437.04" y="-143.2" font-family="Times,serif" font-size="14.00">pub_in</text>
</g>
<!-- Gene(9)&#45;&gt;BioProc(4) -->
<g id="edge8" class="edge">
<title>Gene(9)&#45;&gt;BioProc(4)</title>
<path fill="none" stroke="blue" d="M249.16,-163.08C257.2,-166.99 265.63,-171.81 272.66,-177.4 282.55,-185.26 280.26,-192.24 290.66,-199.4 385.51,-264.74 522.59,-280.29 603.4,-283.4"/>
<polygon fill="blue" stroke="blue" points="603.34,-286.9 613.45,-283.73 603.58,-279.9 603.34,-286.9"/>
<text text-anchor="middle" x="437.04" y="-272.2" font-family="Times,serif" font-size="14.00">participates_in</text>
</g>
<!-- Gene(9)&#45;&gt;MolFunc(3) -->
<g id="edge11" class="edge">
<title>Gene(9)&#45;&gt;MolFunc(3)</title>
<path fill="none" stroke="black" d="M247.02,-138.75C255.42,-134.51 264.59,-129.54 272.66,-124.4 281.21,-118.96 281.61,-114.96 290.66,-110.4 390.73,-60.01 520.62,-39.65 599.56,-31.56"/>
<polygon fill="black" stroke="black" points="600.26,-35.01 609.87,-30.55 599.58,-28.04 600.26,-35.01"/>
<text text-anchor="middle" x="437.04" y="-72.2" font-family="Times,serif" font-size="14.00">has_function</text>
</g>
<!-- Gene(9)&#45;&gt;CelComp(5) -->
<g id="edge10" class="edge">
<title>Gene(9)&#45;&gt;CelComp(5)</title>
<path fill="none" stroke="blue" d="M253.32,-142.66C265.1,-139.64 278.45,-136.29 290.66,-133.4 335.12,-122.88 345.99,-118.78 391.08,-111.4 439.58,-103.46 452.04,-103.66 501,-99.4 532.87,-96.63 568.17,-94.23 598.24,-92.38"/>
<polygon fill="blue" stroke="blue" points="598.45,-95.87 608.22,-91.78 598.03,-88.89 598.45,-95.87"/>
<text text-anchor="middle" x="437.04" y="-114.2" font-family="Times,serif" font-size="14.00">located_in</text>
</g>
<!-- Gene(9)&#45;&gt;Protein(6) -->
<g id="edge9" class="edge">
<title>Gene(9)&#45;&gt;Protein(6)</title>
<path fill="none" stroke="black" d="M256.14,-157C287.39,-162.18 333.59,-170.69 373.08,-181.4 379.76,-183.21 386.75,-185.38 393.55,-187.64"/>
<polygon fill="black" stroke="black" points="392.72,-191.05 403.31,-190.97 394.98,-184.43 392.72,-191.05"/>
<text text-anchor="middle" x="331.87" y="-184.2" font-family="Times,serif" font-size="14.00">h_s_s</text>
</g>
<!-- Protein(6)&#45;&gt;Publication(2) -->
<g id="edge16" class="edge">
<title>Protein(6)&#45;&gt;Publication(2)</title>
<path fill="none" stroke="blue" d="M482.51,-206.08C513.19,-207.94 554.82,-210.45 591.07,-212.63"/>
<polygon fill="blue" stroke="blue" points="590.94,-216.13 601.14,-213.24 591.37,-209.14 590.94,-216.13"/>
<text text-anchor="middle" x="542.21" y="-214.2" font-family="Times,serif" font-size="14.00">pub_in</text>
</g>
<!-- Protein(6)&#45;&gt;BioProc(4) -->
<g id="edge15" class="edge">
<title>Protein(6)&#45;&gt;BioProc(4)</title>
<path fill="none" stroke="black" d="M468.58,-216.63C478.81,-220.9 490.33,-225.52 501,-229.4 537.1,-242.52 546.83,-243.72 583.42,-255.4 593.92,-258.75 605.12,-262.35 615.87,-265.82"/>
<polygon fill="black" stroke="black" points="614.99,-269.21 625.59,-268.96 617.14,-262.55 614.99,-269.21"/>
<text text-anchor="middle" x="542.21" y="-258.2" font-family="Times,serif" font-size="14.00">participates_in</text>
</g>
<!-- Protein(6)&#45;&gt;MolFunc(3) -->
<g id="edge13" class="edge">
<title>Protein(6)&#45;&gt;MolFunc(3)</title>
<path fill="none" stroke="black" d="M460.73,-187.92C468.6,-181.66 476.97,-173.9 483,-165.4 495.95,-147.16 486.67,-135.58 501,-118.4 530.29,-83.3 576.56,-59.44 613.3,-44.84"/>
<polygon fill="black" stroke="black" points="614.83,-48 622.91,-41.14 612.32,-41.47 614.83,-48"/>
<text text-anchor="middle" x="542.21" y="-121.2" font-family="Times,serif" font-size="14.00">has_function</text>
</g>
<!-- Protein(6)&#45;&gt;CelComp(5) -->
<g id="edge14" class="edge">
<title>Protein(6)&#45;&gt;CelComp(5)</title>
<path fill="none" stroke="blue" d="M468.42,-190.18C498.05,-177.11 544.24,-156.24 583.42,-136.4 598.02,-129.01 613.75,-120.48 627.75,-112.68"/>
<polygon fill="blue" stroke="blue" points="629.66,-115.62 636.67,-107.68 626.23,-109.51 629.66,-115.62"/>
<text text-anchor="middle" x="542.21" y="-178.2" font-family="Times,serif" font-size="14.00">located_in</text>
</g>
</g>
</svg>
