<svg width="749pt" height="422pt"
 viewBox="0.00 0.00 748.83 422.00" xmlns="http://www.w3.org/2000/svg" xmlns:xlink="http://www.w3.org/1999/xlink">
<g id="graph0" class="graph" transform="scale(1 1) rotate(0) translate(4 418)">
<title>%3</title>
<polygon fill="white" stroke="transparent" points="-4,4 -4,-418 744.83,-418 744.83,4 -4,4"/>
<!-- Protein(7) -->
<g id="node1" class="node">
<title>Protein(7)</title>
<polygon fill="none" stroke="darkgreen" points="268.43,-384.54 268.43,-399.46 239.42,-410 198.4,-410 169.39,-399.46 169.39,-384.54 198.4,-374 239.42,-374 268.43,-384.54"/>
<polygon fill="none" stroke="darkgreen" points="272.41,-381.74 272.41,-402.26 240.12,-414 197.7,-414 165.41,-402.26 165.41,-381.74 197.7,-370 240.12,-370 272.41,-381.74"/>
<text text-anchor="middle" x="218.91" y="-387.8" font-family="Times,serif" font-size="14.00">Protein(7)</text>
</g>
<!-- BioProc(4) -->
<g id="node2" class="node">
<title>BioProc(4)</title>
<polygon fill="none" stroke="darkgreen" points="724.58,-205.54 724.58,-220.46 693.26,-231 648.98,-231 617.67,-220.46 617.67,-205.54 648.98,-195 693.26,-195 724.58,-205.54"/>
<polygon fill="none" stroke="darkgreen" points="728.57,-202.67 728.57,-223.33 693.92,-235 648.33,-235 613.67,-223.33 613.67,-202.67 648.33,-191 693.92,-191 728.57,-202.67"/>
<text text-anchor="middle" x="671.12" y="-208.8" font-family="Times,serif" font-size="14.00">BioProc(4)</text>
</g>
<!-- CelComp(5) -->
<g id="node3" class="node">
<title>CelComp(5)</title>
<polygon fill="none" stroke="darkgreen" points="729.73,-271.54 729.73,-286.46 695.4,-297 646.85,-297 612.52,-286.46 612.52,-271.54 646.85,-261 695.4,-261 729.73,-271.54"/>
<polygon fill="none" stroke="darkgreen" points="733.71,-268.59 733.71,-289.41 695.99,-301 646.25,-301 608.53,-289.41 608.53,-268.59 646.25,-257 695.99,-257 733.71,-268.59"/>
<text text-anchor="middle" x="671.12" y="-274.8" font-family="Times,serif" font-size="14.00">CelComp(5)</text>
</g>
<!-- Publication(2) -->
<g id="node4" class="node">
<title>Publication(2)</title>
<polygon fill="none" stroke="darkgreen" points="737.02,-14.54 737.02,-29.46 698.42,-40 643.83,-40 605.23,-29.46 605.23,-14.54 643.83,-4 698.42,-4 737.02,-14.54"/>
<polygon fill="none" stroke="darkgreen" points="741.03,-11.49 741.03,-32.51 698.96,-44 643.29,-44 601.21,-32.51 601.21,-11.49 643.29,0 698.96,0 741.03,-11.49"/>
<text text-anchor="middle" x="671.12" y="-17.8" font-family="Times,serif" font-size="14.00">Publication(2)</text>
</g>
<!-- MolFunc(3) -->
<g id="node5" class="node">
<title>MolFunc(3)</title>
<polygon fill="none" stroke="darkgreen" points="728.51,-76.54 728.51,-91.46 694.89,-102 647.35,-102 613.73,-91.46 613.73,-76.54 647.35,-66 694.89,-66 728.51,-76.54"/>
<polygon fill="none" stroke="darkgreen" points="732.53,-73.61 732.53,-94.39 695.51,-106 646.73,-106 609.72,-94.39 609.72,-73.61 646.73,-62 695.51,-62 732.53,-73.61"/>
<text text-anchor="middle" x="671.12" y="-79.8" font-family="Times,serif" font-size="14.00">MolFunc(3)</text>
</g>
<!-- Gene(1) -->
<g id="node6" class="node">
<title>Gene(1)</title>
<ellipse fill="none" stroke="red" cx="43.08" cy="-205" rx="39.15" ry="39.15"/>
<ellipse fill="none" stroke="red" cx="43.08" cy="-205" rx="43.15" ry="43.15"/>
<text text-anchor="middle" x="43.08" y="-200.8" font-family="Times,serif" font-size="14.00">Gene(1)</text>
</g>
<!-- Gene(1)&#45;&gt;Protein(7) -->
<g id="edge11" class="edge">
<title>Gene(1)&#45;&gt;Protein(7)</title>
<path fill="none" stroke="blue" d="M50.73,-247.42C58.18,-281.22 73.48,-327.46 104.15,-356 118.3,-369.16 137.23,-377.5 155.58,-382.8"/>
<polygon fill="blue" stroke="blue" points="154.83,-386.22 165.39,-385.37 156.61,-379.45 154.83,-386.22"/>
<text text-anchor="middle" x="125.66" y="-381.8" font-family="Times,serif" font-size="14.00">enc</text>
</g>
<!-- Gene(1)&#45;&gt;BioProc(4) -->
<g id="edge10" class="edge">
<title>Gene(1)&#45;&gt;BioProc(4)</title>
<path fill="none" stroke="black" d="M84.76,-216.59C149.12,-234.27 278.67,-267.15 391.08,-279 431.71,-283.28 442.2,-281.03 483,-279 527.8,-276.78 543.65,-289.74 583.42,-269 594.32,-263.32 591.76,-255.6 601.42,-248 607.78,-242.99 614.97,-238.4 622.24,-234.3"/>
<polygon fill="black" stroke="black" points="624.27,-237.19 631.44,-229.39 620.97,-231.01 624.27,-237.19"/>
<text text-anchor="middle" x="331.87" y="-278.8" font-family="Times,serif" font-size="14.00">participates_in</text>
</g>
<!-- Gene(1)&#45;&gt;CelComp(5) -->
<g id="edge8" class="edge">
<title>Gene(1)&#45;&gt;CelComp(5)</title>
<path fill="none" stroke="black" d="M79.67,-227.87C87.58,-232.51 96.02,-237.14 104.15,-241 130.19,-253.35 137.57,-254.64 165.16,-263 220.15,-279.66 233.63,-287.06 290.66,-294 419.85,-309.72 453.71,-298.6 583.42,-288 588.16,-287.61 593.05,-287.18 597.98,-286.73"/>
<polygon fill="black" stroke="black" points="598.48,-290.2 608.11,-285.77 597.82,-283.23 598.48,-290.2"/>
<text text-anchor="middle" x="331.87" y="-303.8" font-family="Times,serif" font-size="14.00">located_in</text>
</g>
<!-- Gene(1)&#45;&gt;Publication(2) -->
<g id="edge6" class="edge">
<title>Gene(1)&#45;&gt;Publication(2)</title>
<path fill="none" stroke="black" d="M66.14,-168.36C87.4,-136.39 122.57,-91.4 165.16,-67 299.48,9.97 487.61,2.41 592.19,-9.85"/>
<polygon fill="black" stroke="black" points="592,-13.36 602.35,-11.09 592.85,-6.41 592,-13.36"/>
<text text-anchor="middle" x="331.87" y="-22.8" font-family="Times,serif" font-size="14.00">pub_in</text>
</g>
<!-- Gene(1)&#45;&gt;MolFunc(3) -->
<g id="edge7" class="edge">
<title>Gene(1)&#45;&gt;MolFunc(3)</title>
<path fill="none" stroke="blue" d="M77.8,-179.16C86.32,-172.79 95.51,-166.06 104.15,-160 216.36,-81.3 255.69,-68.33 391.08,-47 467.58,-34.95 556.31,-52 612.8,-66.74"/>
<polygon fill="blue" stroke="blue" points="612.06,-70.16 622.62,-69.36 613.86,-63.4 612.06,-70.16"/>
<text text-anchor="middle" x="331.87" y="-68.8" font-family="Times,serif" font-size="14.00">has_function</text>
</g>
<!-- Protein(6) -->
<g id="node7" class="node">
<title>Protein(6)</title>
<ellipse fill="none" stroke="black" cx="437.04" cy="-199" rx="45.93" ry="18"/>
<text text-anchor="middle" x="437.04" y="-194.8" font-family="Times,serif" font-size="14.00">Protein(6)</text>
</g>
<!-- Gene(1)&#45;&gt;Protein(6) -->
<g id="edge5" class="edge">
<title>Gene(1)&#45;&gt;Protein(6)</title>
<path fill="none" stroke="blue" d="M86.4,-204.35C157.63,-203.26 301.44,-201.06 380.63,-199.85"/>
<polygon fill="blue" stroke="blue" points="380.95,-203.34 390.89,-199.69 380.84,-196.34 380.95,-203.34"/>
<text text-anchor="middle" x="218.91" y="-205.8" font-family="Times,serif" font-size="14.00">h_s_s</text>
</g>
<!-- Gene(9) -->
<g id="node8" class="node">
<title>Gene(9)</title>
<ellipse fill="none" stroke="black" cx="218.91" cy="-147" rx="39.15" ry="18"/>
<text text-anchor="middle" x="218.91" y="-142.8" font-family="Times,serif" font-size="14.00">Gene(9)</text>
</g>
<!-- Gene(1)&#45;&gt;Gene(9) -->
<g id="edge9" class="edge">
<title>Gene(1)&#45;&gt;Gene(9)</title>
<path fill="none" stroke="blue" d="M82.11,-186.04C89.33,-182.79 96.9,-179.62 104.15,-177 126.44,-168.94 151.89,-162.03 173.06,-156.87"/>
<polygon fill="blue" stroke="blue" points="174.15,-160.21 183.07,-154.49 172.53,-153.4 174.15,-160.21"/>
<text text-anchor="middle" x="125.66" y="-179.8" font-family="Times,serif" font-size="14.00">gi(&lt;=4)</text>
</g>
<!-- Protein(6)&#45;&gt;BioProc(4) -->
<g id="edge1" class="edge">
<title>Protein(6)&#45;&gt;BioProc(4)</title>
<path fill="none" stroke="black" d="M482.51,-201.68C516.71,-203.75 564.5,-206.63 603.29,-208.97"/>
<polygon fill="black" stroke="black" points="603.26,-212.47 613.46,-209.58 603.69,-205.49 603.26,-212.47"/>
<text text-anchor="middle" x="542.21" y="-209.8" font-family="Times,serif" font-size="14.00">participates_in</text>
</g>
<!-- Protein(6)&#45;&gt;CelComp(5) -->
<g id="edge2" class="edge">
<title>Protein(6)&#45;&gt;CelComp(5)</title>
<path fill="none" stroke="blue" d="M468.58,-212.23C478.81,-216.5 490.33,-221.12 501,-225 537.1,-238.12 546.83,-239.32 583.42,-251 593.24,-254.13 603.68,-257.49 613.79,-260.75"/>
<polygon fill="blue" stroke="blue" points="612.75,-264.09 623.34,-263.83 614.9,-257.43 612.75,-264.09"/>
<text text-anchor="middle" x="542.21" y="-253.8" font-family="Times,serif" font-size="14.00">located_in</text>
</g>
<!-- Protein(6)&#45;&gt;Publication(2) -->
<g id="edge3" class="edge">
<title>Protein(6)&#45;&gt;Publication(2)</title>
<path fill="none" stroke="black" d="M460.73,-183.52C468.6,-177.26 476.97,-169.5 483,-161 495.95,-142.76 486.67,-131.18 501,-114 529.6,-79.72 574.4,-56.17 610.7,-41.48"/>
<polygon fill="black" stroke="black" points="612.18,-44.66 620.21,-37.75 609.62,-38.14 612.18,-44.66"/>
<text text-anchor="middle" x="542.21" y="-116.8" font-family="Times,serif" font-size="14.00">pub_in</text>
</g>
<!-- Protein(6)&#45;&gt;MolFunc(3) -->
<g id="edge4" class="edge">
<title>Protein(6)&#45;&gt;MolFunc(3)</title>
<path fill="none" stroke="blue" d="M468.42,-185.78C498.05,-172.71 544.24,-151.84 583.42,-132 598.15,-124.54 614.02,-115.93 628.11,-108.07"/>
<polygon fill="blue" stroke="blue" points="630.07,-110.99 637.08,-103.04 626.65,-104.88 630.07,-110.99"/>
<text text-anchor="middle" x="542.21" y="-173.8" font-family="Times,serif" font-size="14.00">has_function</text>
</g>
<!-- Gene(9)&#45;&gt;BioProc(4) -->
<g id="edge16" class="edge">
<title>Gene(9)&#45;&gt;BioProc(4)</title>
<path fill="none" stroke="black" d="M256.3,-141.67C322.96,-133.28 468.39,-121.36 583.42,-157 602.77,-163 621.94,-174.62 637.32,-185.73"/>
<polygon fill="black" stroke="black" points="635.34,-188.62 645.44,-191.81 639.53,-183.02 635.34,-188.62"/>
<text text-anchor="middle" x="437.04" y="-138.8" font-family="Times,serif" font-size="14.00">participates_in</text>
</g>
<!-- Gene(9)&#45;&gt;CelComp(5) -->
<g id="edge15" class="edge">
<title>Gene(9)&#45;&gt;CelComp(5)</title>
<path fill="none" stroke="blue" d="M239.44,-162.41C253.17,-172.69 272.3,-185.93 290.66,-195 379,-238.62 404.48,-245.24 501,-265 532.51,-271.45 567.9,-274.94 598.13,-276.83"/>
<polygon fill="blue" stroke="blue" points="597.98,-280.33 608.17,-277.41 598.39,-273.34 597.98,-280.33"/>
<text text-anchor="middle" x="437.04" y="-263.8" font-family="Times,serif" font-size="14.00">located_in</text>
</g>
<!-- Gene(9)&#45;&gt;Publication(2) -->
<g id="edge12" class="edge">
<title>Gene(9)&#45;&gt;Publication(2)</title>
<path fill="none" stroke="black" d="M242.46,-132.38C256.01,-124.08 273.85,-113.97 290.66,-107 389.88,-65.84 512.34,-43.01 590.83,-31.62"/>
<polygon fill="black" stroke="black" points="591.72,-35.03 601.13,-30.16 590.74,-28.1 591.72,-35.03"/>
<text text-anchor="middle" x="437.04" y="-75.8" font-family="Times,serif" font-size="14.00">pub_in</text>
</g>
<!-- Gene(9)&#45;&gt;MolFunc(3) -->
<g id="edge13" class="edge">
<title>Gene(9)&#45;&gt;MolFunc(3)</title>
<path fill="none" stroke="blue" d="M253.32,-138.25C265.1,-135.24 278.45,-131.89 290.66,-129 335.12,-118.48 345.99,-114.38 391.08,-107 439.58,-99.06 452.04,-99.26 501,-95 533.4,-92.18 569.34,-89.74 599.72,-87.89"/>
<polygon fill="blue" stroke="blue" points="600.03,-91.38 609.8,-87.28 599.61,-84.39 600.03,-91.38"/>
<text text-anchor="middle" x="437.04" y="-109.8" font-family="Times,serif" font-size="14.00">has_function</text>
</g>
<!-- Gene(9)&#45;&gt;Protein(6) -->
<g id="edge14" class="edge">
<title>Gene(9)&#45;&gt;Protein(6)</title>
<path fill="none" stroke="black" d="M256.14,-152.6C287.39,-157.78 333.59,-166.29 373.08,-177 379.76,-178.81 386.75,-180.98 393.55,-183.23"/>
<polygon fill="black" stroke="black" points="392.72,-186.65 403.31,-186.57 394.98,-180.02 392.72,-186.65"/>
<text text-anchor="middle" x="331.87" y="-179.8" font-family="Times,serif" font-size="14.00">h_s_s</text>
</g>
</g>
</svg>
