<svg width="1355px" height="1416px"
 viewBox="0.00 0.00 1015.90 1062.00" xmlns="http://www.w3.org/2000/svg" xmlns:xlink="http://www.w3.org/1999/xlink">
<g id="graph0" class="graph" transform=" rotate(0) translate(4 1058)">
<title>%3</title>
<polygon fill="white" stroke="transparent" points="-4,4 -4,-1058 1011.9,-1058 1011.9,4 -4,4"/>
<!-- Path(19) -->
<g id="node1" class="node">
<title>Path(19)</title>
<polygon fill="none" stroke="darkgreen" points="1002.56,-1024.54 1002.56,-1039.46 976.89,-1050 940.6,-1050 914.93,-1039.46 914.93,-1024.54 940.6,-1014 976.89,-1014 1002.56,-1024.54"/>
<polygon fill="none" stroke="darkgreen" points="1006.55,-1021.86 1006.55,-1042.14 977.68,-1054 939.81,-1054 910.94,-1042.14 910.94,-1021.86 939.81,-1010 977.68,-1010 1006.55,-1021.86"/>
<text text-anchor="middle" x="958.74" y="-1027.8" font-family="Times,serif" font-size="14.00">Path(19)</text>
</g>
<!-- TO(16) -->
<g id="node2" class="node">
<title>TO(16)</title>
<polygon fill="none" stroke="darkgreen" points="752.33,-816.54 752.33,-831.46 729.21,-842 696.53,-842 673.41,-831.46 673.41,-816.54 696.53,-806 729.21,-806 752.33,-816.54"/>
<polygon fill="none" stroke="darkgreen" points="756.33,-813.97 756.33,-834.03 730.08,-846 695.66,-846 669.41,-834.03 669.41,-813.97 695.66,-802 730.08,-802 756.33,-813.97"/>
<text text-anchor="middle" x="712.87" y="-819.8" font-family="Times,serif" font-size="14.00">TO(16)</text>
</g>
<!-- Gene(8) -->
<g id="node3" class="node">
<title>Gene(8)</title>
<polygon fill="none" stroke="darkgreen" points="754.98,-538.54 754.98,-553.46 730.31,-564 695.43,-564 670.76,-553.46 670.76,-538.54 695.43,-528 730.31,-528 754.98,-538.54"/>
<polygon fill="none" stroke="darkgreen" points="758.96,-535.9 758.96,-556.1 731.12,-568 694.61,-568 666.78,-556.1 666.78,-535.9 694.61,-524 731.12,-524 758.96,-535.9"/>
<text text-anchor="middle" x="712.87" y="-541.8" font-family="Times,serif" font-size="14.00">Gene(8)</text>
</g>
<!-- MolFunc(3) -->
<g id="node4" class="node">
<title>MolFunc(3)</title>
<polygon fill="none" stroke="darkgreen" points="770.26,-201.54 770.26,-216.46 736.64,-227 689.1,-227 655.48,-216.46 655.48,-201.54 689.1,-191 736.64,-191 770.26,-201.54"/>
<polygon fill="none" stroke="darkgreen" points="774.27,-198.61 774.27,-219.39 737.26,-231 688.48,-231 651.47,-219.39 651.47,-198.61 688.48,-187 737.26,-187 774.27,-198.61"/>
<text text-anchor="middle" x="712.87" y="-204.8" font-family="Times,serif" font-size="14.00">MolFunc(3)</text>
</g>
<!-- Phenotype(13) -->
<g id="node5" class="node">
<title>Phenotype(13)</title>
<polygon fill="none" stroke="darkgreen" points="779.98,-467.54 779.98,-482.46 740.67,-493 685.07,-493 645.76,-482.46 645.76,-467.54 685.07,-457 740.67,-457 779.98,-467.54"/>
<polygon fill="none" stroke="darkgreen" points="783.96,-464.47 783.96,-485.53 741.19,-497 684.55,-497 641.77,-485.53 641.77,-464.47 684.55,-453 741.19,-453 783.96,-464.47"/>
<text text-anchor="middle" x="712.87" y="-470.8" font-family="Times,serif" font-size="14.00">Phenotype(13)</text>
</g>
<!-- Trait(21) -->
<g id="node6" class="node">
<title>Trait(21)</title>
<polygon fill="none" stroke="darkgreen" points="1004.05,-409.54 1004.05,-424.46 977.51,-435 939.98,-435 913.44,-424.46 913.44,-409.54 939.98,-399 977.51,-399 1004.05,-409.54"/>
<polygon fill="none" stroke="darkgreen" points="1008.06,-406.83 1008.06,-427.17 978.28,-439 939.21,-439 909.43,-427.17 909.43,-406.83 939.21,-395 978.28,-395 1008.06,-406.83"/>
<text text-anchor="middle" x="958.74" y="-412.8" font-family="Times,serif" font-size="14.00">Trait(21)</text>
</g>
<!-- CelComp(5) -->
<g id="node7" class="node">
<title>CelComp(5)</title>
<polygon fill="none" stroke="darkgreen" points="771.47,-121.54 771.47,-136.46 737.14,-147 688.59,-147 654.27,-136.46 654.27,-121.54 688.59,-111 737.14,-111 771.47,-121.54"/>
<polygon fill="none" stroke="darkgreen" points="775.46,-118.59 775.46,-139.41 737.74,-151 688,-151 650.28,-139.41 650.28,-118.59 688,-107 737.74,-107 775.46,-118.59"/>
<text text-anchor="middle" x="712.87" y="-124.8" font-family="Times,serif" font-size="14.00">CelComp(5)</text>
</g>
<!-- BioProc(4) -->
<g id="node8" class="node">
<title>BioProc(4)</title>
<polygon fill="none" stroke="darkgreen" points="766.32,-323.54 766.32,-338.46 735.01,-349 690.73,-349 659.42,-338.46 659.42,-323.54 690.73,-313 735.01,-313 766.32,-323.54"/>
<polygon fill="none" stroke="darkgreen" points="770.32,-320.67 770.32,-341.33 735.67,-353 690.07,-353 655.42,-341.33 655.42,-320.67 690.07,-309 735.67,-309 770.32,-320.67"/>
<text text-anchor="middle" x="712.87" y="-326.8" font-family="Times,serif" font-size="14.00">BioProc(4)</text>
</g>
<!-- Publication(2) -->
<g id="node9" class="node">
<title>Publication(2)</title>
<polygon fill="none" stroke="darkgreen" points="778.77,-609.54 778.77,-624.46 740.16,-635 685.57,-635 646.97,-624.46 646.97,-609.54 685.57,-599 740.16,-599 778.77,-609.54"/>
<polygon fill="none" stroke="darkgreen" points="782.78,-606.49 782.78,-627.51 740.7,-639 685.04,-639 642.96,-627.51 642.96,-606.49 685.04,-595 740.7,-595 782.78,-606.49"/>
<text text-anchor="middle" x="712.87" y="-612.8" font-family="Times,serif" font-size="14.00">Publication(2)</text>
</g>
<!-- Protein(7) -->
<g id="node10" class="node">
<title>Protein(7)</title>
<polygon fill="none" stroke="darkgreen" points="473.21,-14.54 473.21,-29.46 444.2,-40 403.18,-40 374.17,-29.46 374.17,-14.54 403.18,-4 444.2,-4 473.21,-14.54"/>
<polygon fill="none" stroke="darkgreen" points="477.19,-11.74 477.19,-32.26 444.9,-44 402.48,-44 370.19,-32.26 370.19,-11.74 402.48,0 444.9,0 477.19,-11.74"/>
<text text-anchor="middle" x="423.69" y="-17.8" font-family="Times,serif" font-size="14.00">Protein(7)</text>
</g>
<!-- EC(15) -->
<g id="node11" class="node">
<title>EC(15)</title>
<polygon fill="none" stroke="darkgreen" points="462.92,-758.54 462.92,-773.46 439.94,-784 407.44,-784 384.46,-773.46 384.46,-758.54 407.44,-748 439.94,-748 462.92,-758.54"/>
<polygon fill="none" stroke="darkgreen" points="466.93,-755.98 466.93,-776.02 440.82,-788 406.56,-788 380.45,-776.02 380.45,-755.98 406.56,-744 440.82,-744 466.93,-755.98"/>
<text text-anchor="middle" x="423.69" y="-761.8" font-family="Times,serif" font-size="14.00">EC(15)</text>
</g>
<!-- ProtDomain(14) -->
<g id="node12" class="node">
<title>ProtDomain(14)</title>
<polygon fill="none" stroke="darkgreen" points="497.55,-696.54 497.55,-711.46 454.28,-722 393.1,-722 349.84,-711.46 349.84,-696.54 393.1,-686 454.28,-686 497.55,-696.54"/>
<polygon fill="none" stroke="darkgreen" points="501.55,-693.4 501.55,-714.6 454.76,-726 392.62,-726 345.83,-714.6 345.83,-693.4 392.62,-682 454.76,-682 501.55,-693.4"/>
<text text-anchor="middle" x="423.69" y="-699.8" font-family="Times,serif" font-size="14.00">ProtDomain(14)</text>
</g>
<!-- Enzyme(177) -->
<g id="node13" class="node">
<title>Enzyme(177)</title>
<polygon fill="none" stroke="darkgreen" points="486.76,-634.54 486.76,-649.46 449.81,-660 397.57,-660 360.62,-649.46 360.62,-634.54 397.57,-624 449.81,-624 486.76,-634.54"/>
<polygon fill="none" stroke="darkgreen" points="490.76,-631.53 490.76,-652.47 450.37,-664 397.01,-664 356.62,-652.47 356.62,-631.53 397.01,-620 450.37,-620 490.76,-631.53"/>
<text text-anchor="middle" x="423.69" y="-637.8" font-family="Times,serif" font-size="14.00">Enzyme(177)</text>
</g>
<!-- Reaction(188) -->
<g id="node14" class="node">
<title>Reaction(188)</title>
<polygon fill="none" stroke="darkgreen" points="778.75,-966.54 778.75,-981.46 740.16,-992 685.58,-992 646.99,-981.46 646.99,-966.54 685.58,-956 740.16,-956 778.75,-966.54"/>
<polygon fill="none" stroke="darkgreen" points="782.76,-963.49 782.76,-984.51 740.7,-996 685.04,-996 642.98,-984.51 642.98,-963.49 685.04,-952 740.7,-952 782.76,-963.49"/>
<text text-anchor="middle" x="712.87" y="-969.8" font-family="Times,serif" font-size="14.00">Reaction(188)</text>
</g>
<!-- Gene(1) -->
<g id="node15" class="node">
<title>Gene(1)</title>
<ellipse fill="none" stroke="red" cx="43.08" cy="-777" rx="39.15" ry="39.15"/>
<ellipse fill="none" stroke="red" cx="43.08" cy="-777" rx="43.15" ry="43.15"/>
<text text-anchor="middle" x="43.08" y="-772.8" font-family="Times,serif" font-size="14.00">Gene(1)</text>
</g>
<!-- Gene(1)&#45;&gt;TO(16) -->
<g id="edge33" class="edge">
<title>Gene(1)&#45;&gt;TO(16)</title>
<path fill="none" stroke="black" d="M59.81,-817.16C69.67,-837.36 84.32,-860.54 104.15,-875 161.9,-917.08 189.41,-904.5 260.35,-913 377.11,-927 583.21,-894.2 623.57,-880 647.55,-871.57 671.71,-855.61 688.68,-842.88"/>
<text text-anchor="middle" x="294.18" y="-918.8" font-family="Times,serif" font-size="14.00">cooc_wi</text>
</g>
<!-- Gene(1)&#45;&gt;Publication(2) -->
<g id="edge36" class="edge">
<title>Gene(1)&#45;&gt;Publication(2)</title>
<path fill="none" stroke="blue" d="M84.51,-790.39C141.88,-808.63 250.58,-840.33 346.01,-852 414.55,-860.39 435.89,-873.9 501.37,-852 606.3,-816.92 676.7,-690.88 701.73,-639.27"/>
<text text-anchor="middle" x="294.18" y="-851.8" font-family="Times,serif" font-size="14.00">occ_in</text>
</g>
<!-- Gene(1)&#45;&gt;Protein(7) -->
<g id="edge34" class="edge">
<title>Gene(1)&#45;&gt;Protein(7)</title>
<path fill="none" stroke="blue" d="M49.57,-734.35C69.39,-587.81 142.37,-109 260.35,-20 294.11,5.46 344.04,0.4 379.6,-8.16"/>
<text text-anchor="middle" x="191.97" y="-266.8" font-family="Times,serif" font-size="14.00">enc</text>
</g>
<!-- Protein(10) -->
<g id="node20" class="node">
<title>Protein(10)</title>
<ellipse fill="none" stroke="black" cx="191.97" cy="-538" rx="50.27" ry="18"/>
<text text-anchor="middle" x="191.97" y="-533.8" font-family="Times,serif" font-size="14.00">Protein(10)</text>
</g>
<!-- Gene(1)&#45;&gt;Protein(10) -->
<g id="edge35" class="edge">
<title>Gene(1)&#45;&gt;Protein(10)</title>
<path fill="none" stroke="black" d="M66.39,-740.7C98.41,-688.6 156.18,-594.6 180.12,-555.65"/>
<text text-anchor="middle" x="113.87" y="-680.8" font-family="Times,serif" font-size="14.00">enc</text>
</g>
<!-- Reaction(18) -->
<g id="node16" class="node">
<title>Reaction(18)</title>
<ellipse fill="none" stroke="black" cx="712.87" cy="-1032" rx="56.04" ry="18"/>
<text text-anchor="middle" x="712.87" y="-1027.8" font-family="Times,serif" font-size="14.00">Reaction(18)</text>
</g>
<!-- Reaction(18)&#45;&gt;Path(19) -->
<g id="edge1" class="edge">
<title>Reaction(18)&#45;&gt;Path(19)</title>
<path fill="none" stroke="blue" d="M769.21,-1032C811.93,-1032 870.39,-1032 910.83,-1032"/>
<text text-anchor="middle" x="846.88" y="-1034.8" font-family="Times,serif" font-size="14.00">part_of</text>
</g>
<!-- Gene(9) -->
<g id="node17" class="node">
<title>Gene(9)</title>
<ellipse fill="none" stroke="black" cx="423.69" cy="-438" rx="39.15" ry="18"/>
<text text-anchor="middle" x="423.69" y="-433.8" font-family="Times,serif" font-size="14.00">Gene(9)</text>
</g>
<!-- Gene(9)&#45;&gt;TO(16) -->
<g id="edge2" class="edge">
<title>Gene(9)&#45;&gt;TO(16)</title>
<path fill="none" stroke="black" d="M445.3,-453.27C462.97,-467.52 487.69,-490.37 501.37,-516 519.97,-550.83 501.83,-567.62 519.37,-603 562.32,-689.61 647.55,-769.4 688.65,-804.78"/>
<text text-anchor="middle" x="571.47" y="-744.8" font-family="Times,serif" font-size="14.00">cooc_wi</text>
</g>
<!-- Gene(9)&#45;&gt;Gene(8) -->
<g id="edge3" class="edge">
<title>Gene(9)&#45;&gt;Gene(8)</title>
<path fill="none" stroke="blue" d="M450.83,-450.97C469.64,-460.03 495.74,-472.05 519.37,-481 564.68,-498.16 577.71,-497.4 623.57,-513 640.77,-518.85 659.65,-525.83 675.53,-531.86"/>
<text text-anchor="middle" x="571.47" y="-529.8" font-family="Times,serif" font-size="14.00">genetic(&lt;=8)</text>
<text text-anchor="middle" x="571.47" y="-515.8" font-family="Times,serif" font-size="14.00">physical(&lt;=8)</text>
</g>
<!-- Gene(9)&#45;&gt;MolFunc(3) -->
<g id="edge5" class="edge">
<title>Gene(9)&#45;&gt;MolFunc(3)</title>
<path fill="none" stroke="blue" d="M441.26,-421.75C459.27,-404.79 489.48,-378.3 519.37,-361 562.31,-336.15 583.63,-350.42 623.57,-321 628.1,-317.67 670.59,-262.76 694.94,-231.09"/>
<text text-anchor="middle" x="571.47" y="-363.8" font-family="Times,serif" font-size="14.00">has_function</text>
</g>
<!-- Gene(9)&#45;&gt;Phenotype(13) -->
<g id="edge6" class="edge">
<title>Gene(9)&#45;&gt;Phenotype(13)</title>
<path fill="none" stroke="black" d="M461.65,-442.76C506.94,-448.6 584.67,-458.61 641.5,-465.93"/>
<text text-anchor="middle" x="571.47" y="-465.8" font-family="Times,serif" font-size="14.00">has_observ_pheno</text>
</g>
<!-- Gene(9)&#45;&gt;CelComp(5) -->
<g id="edge8" class="edge">
<title>Gene(9)&#45;&gt;CelComp(5)</title>
<path fill="none" stroke="black" d="M442.87,-422.19C460.61,-405.72 486.96,-378.28 501.37,-349 518.82,-313.58 491.12,-289.59 519.37,-262 553.05,-229.11 588.83,-274.76 623.57,-243 645.7,-222.78 624.25,-202.46 641.57,-178 650.34,-165.62 663.28,-155.32 675.68,-147.42"/>
<text text-anchor="middle" x="571.47" y="-264.8" font-family="Times,serif" font-size="14.00">located_in</text>
</g>
<!-- Gene(9)&#45;&gt;BioProc(4) -->
<g id="edge9" class="edge">
<title>Gene(9)&#45;&gt;BioProc(4)</title>
<path fill="none" stroke="blue" d="M454.74,-426.74C473.24,-420.01 497.52,-411.52 519.37,-405 565.11,-391.35 579.09,-396.31 623.57,-379 643.57,-371.21 664.74,-359.83 681.33,-350.1"/>
<text text-anchor="middle" x="571.47" y="-407.8" font-family="Times,serif" font-size="14.00">participates_in</text>
</g>
<!-- Gene(9)&#45;&gt;Publication(2) -->
<g id="edge10" class="edge">
<title>Gene(9)&#45;&gt;Publication(2)</title>
<path fill="none" stroke="black" d="M441.91,-454.04C457.98,-469.34 482.28,-493.35 501.37,-516 510.2,-526.47 508.57,-532.59 519.37,-541 542.34,-558.88 613.32,-584.56 662.36,-601.01"/>
<text text-anchor="middle" x="571.47" y="-587.8" font-family="Times,serif" font-size="14.00">pub_in</text>
</g>
<!-- Gene(9)&#45;&gt;Gene(9) -->
<g id="edge4" class="edge">
<title>Gene(9)&#45;&gt;Gene(9)</title>
<path fill="none" stroke="black" d="M402.03,-453.17C395.47,-463.66 402.69,-474 423.69,-474 444.69,-474 451.91,-463.66 445.35,-453.17"/>
<text text-anchor="middle" x="423.69" y="-490.8" font-family="Times,serif" font-size="14.00">genetic(&lt;=8)</text>
<text text-anchor="middle" x="423.69" y="-476.8" font-family="Times,serif" font-size="14.00">physical(&lt;=8)</text>
</g>
<!-- SNP(20) -->
<g id="node18" class="node">
<title>SNP(20)</title>
<ellipse fill="none" stroke="black" cx="712.87" cy="-417" rx="41.13" ry="18"/>
<text text-anchor="middle" x="712.87" y="-412.8" font-family="Times,serif" font-size="14.00">SNP(20)</text>
</g>
<!-- Gene(9)&#45;&gt;SNP(20) -->
<g id="edge7" class="edge">
<title>Gene(9)&#45;&gt;SNP(20)</title>
<path fill="none" stroke="blue" d="M462.53,-435.23C516.9,-431.26 616.68,-423.96 672.1,-419.91"/>
<text text-anchor="middle" x="571.47" y="-432.8" font-family="Times,serif" font-size="14.00">has_variation</text>
</g>
<!-- SNP(20)&#45;&gt;Trait(21) -->
<g id="edge11" class="edge">
<title>SNP(20)&#45;&gt;Trait(21)</title>
<path fill="none" stroke="black" d="M754.14,-417C796.76,-417 864,-417 909.44,-417"/>
<text text-anchor="middle" x="846.88" y="-419.8" font-family="Times,serif" font-size="14.00">associated_with</text>
</g>
<!-- ProtDomain(11) -->
<g id="node19" class="node">
<title>ProtDomain(11)</title>
<ellipse fill="none" stroke="black" cx="423.69" cy="-212" rx="68" ry="18"/>
<text text-anchor="middle" x="423.69" y="-207.8" font-family="Times,serif" font-size="14.00">ProtDomain(11)</text>
</g>
<!-- ProtDomain(11)&#45;&gt;MolFunc(3) -->
<g id="edge12" class="edge">
<title>ProtDomain(11)&#45;&gt;MolFunc(3)</title>
<path fill="none" stroke="black" d="M473.52,-199.66C488.17,-196.51 504.33,-193.57 519.37,-192 565.43,-187.19 577.47,-187.6 623.57,-192 634.45,-193.04 645.98,-194.78 657,-196.76"/>
<text text-anchor="middle" x="571.47" y="-194.8" font-family="Times,serif" font-size="14.00">has_function</text>
</g>
<!-- ProtDomain(11)&#45;&gt;CelComp(5) -->
<g id="edge13" class="edge">
<title>ProtDomain(11)&#45;&gt;CelComp(5)</title>
<path fill="none" stroke="blue" d="M456.95,-196.17C474.99,-187.8 498.06,-177.87 519.37,-171 562.19,-157.2 611.81,-146.5 649.95,-139.35"/>
<text text-anchor="middle" x="571.47" y="-173.8" font-family="Times,serif" font-size="14.00">located_in</text>
</g>
<!-- ProtDomain(11)&#45;&gt;BioProc(4) -->
<g id="edge14" class="edge">
<title>ProtDomain(11)&#45;&gt;BioProc(4)</title>
<path fill="none" stroke="black" d="M468.71,-225.59C480.28,-230.66 492.11,-237.36 501.37,-246 513.88,-257.66 505.77,-269.64 519.37,-280 557.11,-308.72 577.77,-290.71 623.57,-303 638.17,-306.92 653.96,-311.73 668.08,-316.26"/>
<text text-anchor="middle" x="571.47" y="-305.8" font-family="Times,serif" font-size="14.00">participates_in</text>
</g>
<!-- Protein(10)&#45;&gt;TO(16) -->
<g id="edge17" class="edge">
<title>Protein(10)&#45;&gt;TO(16)</title>
<path fill="none" stroke="blue" d="M193.8,-556.12C196.58,-596.7 208.59,-696.02 260.35,-756 363.17,-875.12 578.01,-850.39 669.33,-833.28"/>
<text text-anchor="middle" x="423.69" y="-849.8" font-family="Times,serif" font-size="14.00">cooc_wi</text>
</g>
<!-- Protein(10)&#45;&gt;Gene(8) -->
<g id="edge18" class="edge">
<title>Protein(10)&#45;&gt;Gene(8)</title>
<path fill="none" stroke="black" d="M241.88,-535.05C317.4,-531.35 458.17,-528.1 501.37,-552 513.67,-558.8 506.92,-571.48 519.37,-578 560.39,-599.49 577.96,-586.01 623.57,-578 642.2,-574.73 662.08,-567.85 678.24,-561.31"/>
<text text-anchor="middle" x="423.69" y="-554.8" font-family="Times,serif" font-size="14.00">enc</text>
</g>
<!-- Protein(10)&#45;&gt;MolFunc(3) -->
<g id="edge24" class="edge">
<title>Protein(10)&#45;&gt;MolFunc(3)</title>
<path fill="none" stroke="black" d="M194.78,-519.71C201.08,-459.11 223.68,-266.01 260.35,-217 354.65,-90.99 578.71,-157.69 671.03,-192.35"/>
<text text-anchor="middle" x="423.69" y="-159.8" font-family="Times,serif" font-size="14.00">has_function</text>
</g>
<!-- Protein(10)&#45;&gt;CelComp(5) -->
<g id="edge27" class="edge">
<title>Protein(10)&#45;&gt;CelComp(5)</title>
<path fill="none" stroke="blue" d="M193.97,-519.8C198,-452.48 215.07,-218.56 260.35,-162 356.76,-41.59 570.7,-86.4 665.32,-113.88"/>
<text text-anchor="middle" x="423.69" y="-103.8" font-family="Times,serif" font-size="14.00">located_in</text>
</g>
<!-- Protein(10)&#45;&gt;BioProc(4) -->
<g id="edge28" class="edge">
<title>Protein(10)&#45;&gt;BioProc(4)</title>
<path fill="none" stroke="black" d="M207.13,-520.56C232.12,-490.91 287,-430.63 346.01,-397 444.42,-340.92 579.85,-330.71 655.29,-329.84"/>
<text text-anchor="middle" x="423.69" y="-399.8" font-family="Times,serif" font-size="14.00">participates_in</text>
</g>
<!-- Protein(10)&#45;&gt;Publication(2) -->
<g id="edge29" class="edge">
<title>Protein(10)&#45;&gt;Publication(2)</title>
<path fill="none" stroke="blue" d="M237.16,-546.13C267.72,-551.75 309.33,-559.37 346.01,-566 423.03,-579.93 441.87,-586.06 519.37,-597 560.29,-602.78 606.33,-607.62 643.12,-611.09"/>
<text text-anchor="middle" x="423.69" y="-596.8" font-family="Times,serif" font-size="14.00">pub_in</text>
</g>
<!-- Protein(10)&#45;&gt;Protein(7) -->
<g id="edge21" class="edge">
<title>Protein(10)&#45;&gt;Protein(7)</title>
<path fill="none" stroke="blue" d="M192.59,-519.8C191.28,-438.35 190.43,-108.26 260.35,-40 275.57,-25.14 328.69,-21.52 370.07,-21.06"/>
<text text-anchor="middle" x="294.18" y="-70.8" font-family="Times,serif" font-size="14.00">h_s_s(&lt;=4)</text>
<text text-anchor="middle" x="294.18" y="-56.8" font-family="Times,serif" font-size="14.00">ortho(&lt;=4)</text>
<text text-anchor="middle" x="294.18" y="-42.8" font-family="Times,serif" font-size="14.00">xref(&lt;=6)</text>
</g>
<!-- Protein(10)&#45;&gt;EC(15) -->
<g id="edge15" class="edge">
<title>Protein(10)&#45;&gt;EC(15)</title>
<path fill="none" stroke="blue" d="M196.13,-556.16C202.64,-588.47 220.41,-656.39 260.35,-697 292.99,-730.19 344.1,-748.29 380.24,-757.52"/>
<text text-anchor="middle" x="294.18" y="-740.8" font-family="Times,serif" font-size="14.00">cat_c</text>
</g>
<!-- Protein(10)&#45;&gt;ProtDomain(14) -->
<g id="edge22" class="edge">
<title>Protein(10)&#45;&gt;ProtDomain(14)</title>
<path fill="none" stroke="black" d="M200.02,-555.92C210.08,-579.29 230.66,-620.03 260.35,-644 288.41,-666.65 325.83,-681.25 357.67,-690.37"/>
<text text-anchor="middle" x="294.18" y="-681.8" font-family="Times,serif" font-size="14.00">has_domain</text>
</g>
<!-- Protein(10)&#45;&gt;Enzyme(177) -->
<g id="edge25" class="edge">
<title>Protein(10)&#45;&gt;Enzyme(177)</title>
<path fill="none" stroke="blue" d="M206.64,-555.28C219.12,-569.87 238.84,-590.23 260.35,-602 289.89,-618.16 325.99,-627.89 356.64,-633.7"/>
<text text-anchor="middle" x="294.18" y="-628.8" font-family="Times,serif" font-size="14.00">is_a</text>
</g>
<!-- Protein(10)&#45;&gt;Gene(9) -->
<g id="edge19" class="edge">
<title>Protein(10)&#45;&gt;Gene(9)</title>
<path fill="none" stroke="blue" d="M224.91,-524.1C270.03,-504.45 351.71,-468.9 394.62,-450.22"/>
<text text-anchor="middle" x="294.18" y="-510.8" font-family="Times,serif" font-size="14.00">enc</text>
</g>
<!-- Protein(10)&#45;&gt;ProtDomain(11) -->
<g id="edge23" class="edge">
<title>Protein(10)&#45;&gt;ProtDomain(11)</title>
<path fill="none" stroke="blue" d="M194.92,-519.66C201.27,-463.35 223.11,-294.38 260.35,-256 285.16,-230.43 323.19,-219.24 356.21,-214.53"/>
<text text-anchor="middle" x="294.18" y="-258.8" font-family="Times,serif" font-size="14.00">has_domain</text>
</g>
<!-- Protein(10)&#45;&gt;Protein(10) -->
<g id="edge20" class="edge">
<title>Protein(10)&#45;&gt;Protein(10)</title>
<path fill="none" stroke="black" d="M178.04,-555.41C175.44,-565.09 180.08,-574 191.97,-574 203.85,-574 208.49,-565.09 205.89,-555.41"/>
<text text-anchor="middle" x="191.97" y="-604.8" font-family="Times,serif" font-size="14.00">h_s_s(&lt;=4)</text>
<text text-anchor="middle" x="191.97" y="-590.8" font-family="Times,serif" font-size="14.00">ortho(&lt;=4)</text>
<text text-anchor="middle" x="191.97" y="-576.8" font-family="Times,serif" font-size="14.00">xref(&lt;=6)</text>
</g>
<!-- EC(12) -->
<g id="node21" class="node">
<title>EC(12)</title>
<ellipse fill="none" stroke="black" cx="423.69" cy="-273" rx="36.28" ry="18"/>
<text text-anchor="middle" x="423.69" y="-268.8" font-family="Times,serif" font-size="14.00">EC(12)</text>
</g>
<!-- Protein(10)&#45;&gt;EC(12) -->
<g id="edge16" class="edge">
<title>Protein(10)&#45;&gt;EC(12)</title>
<path fill="none" stroke="black" d="M192.24,-519.73C191.54,-475.31 196.41,-361.06 260.35,-303 295.05,-271.5 351.64,-268 388.01,-269.58"/>
<text text-anchor="middle" x="294.18" y="-305.8" font-family="Times,serif" font-size="14.00">cat_c</text>
</g>
<!-- Enzyme(17) -->
<g id="node22" class="node">
<title>Enzyme(17)</title>
<ellipse fill="none" stroke="black" cx="423.69" cy="-981" rx="53.63" ry="18"/>
<text text-anchor="middle" x="423.69" y="-976.8" font-family="Times,serif" font-size="14.00">Enzyme(17)</text>
</g>
<!-- Protein(10)&#45;&gt;Enzyme(17) -->
<g id="edge26" class="edge">
<title>Protein(10)&#45;&gt;Enzyme(17)</title>
<path fill="none" stroke="black" d="M194.24,-556.18C198.98,-619.23 217.65,-827.3 260.35,-876 281.29,-899.88 300.46,-883.2 328.01,-899 358.94,-916.74 389.1,-945.41 406.78,-963.72"/>
<text text-anchor="middle" x="294.18" y="-901.8" font-family="Times,serif" font-size="14.00">is_a</text>
</g>
<!-- EC(12)&#45;&gt;MolFunc(3) -->
<g id="edge30" class="edge">
<title>EC(12)&#45;&gt;MolFunc(3)</title>
<path fill="none" stroke="blue" d="M451.94,-261.63C466.71,-255.28 485.21,-247.05 501.37,-239 509.56,-234.92 510.64,-231.75 519.37,-229 562.31,-215.47 613.04,-210.62 651.64,-209.08"/>
<text text-anchor="middle" x="571.47" y="-231.8" font-family="Times,serif" font-size="14.00">equ</text>
</g>
<!-- Enzyme(17)&#45;&gt;Reaction(188) -->
<g id="edge32" class="edge">
<title>Enzyme(17)&#45;&gt;Reaction(188)</title>
<path fill="none" stroke="black" d="M477.7,-979.71C524.29,-978.57 592.4,-976.91 643.16,-975.67"/>
<text text-anchor="middle" x="571.47" y="-980.8" font-family="Times,serif" font-size="14.00">ca_by</text>
</g>
<!-- Enzyme(17)&#45;&gt;Reaction(18) -->
<g id="edge31" class="edge">
<title>Enzyme(17)&#45;&gt;Reaction(18)</title>
<path fill="none" stroke="blue" d="M471.47,-989.31C524.24,-998.68 609.65,-1013.85 663.19,-1023.35"/>
<text text-anchor="middle" x="571.47" y="-1017.8" font-family="Times,serif" font-size="14.00">ca_by</text>
</g>
</g>
</svg>
