<svg width="1052pt" height="941pt"
 viewBox="0.00 0.00 1052.45 941.12" xmlns="http://www.w3.org/2000/svg" xmlns:xlink="http://www.w3.org/1999/xlink">
<g id="graph0" class="graph" transform="scale(1 1) rotate(0) translate(4 937.12)">
<title>%3</title>
<polygon fill="white" stroke="transparent" points="-4,4 -4,-937.12 1048.45,-937.12 1048.45,4 -4,4"/>
<!-- TO(16) -->
<g id="node1" class="node">
<title>TO(16)</title>
<polygon fill="none" stroke="darkgreen" points="788.87,-903.66 788.87,-918.57 765.76,-929.12 733.07,-929.12 709.96,-918.57 709.96,-903.66 733.07,-893.12 765.76,-893.12 788.87,-903.66"/>
<polygon fill="none" stroke="darkgreen" points="792.87,-901.09 792.87,-921.14 766.63,-933.12 732.2,-933.12 705.96,-921.14 705.96,-901.09 732.2,-889.12 766.63,-889.12 792.87,-901.09"/>
<text text-anchor="middle" x="749.41" y="-906.92" font-family="Times,serif" font-size="14.00">TO(16)</text>
</g>
<!-- EC(15) -->
<g id="node2" class="node">
<title>EC(15)</title>
<polygon fill="none" stroke="darkgreen" points="499.46,-409.66 499.46,-424.57 476.48,-435.12 443.99,-435.12 421.01,-424.57 421.01,-409.66 443.99,-399.12 476.48,-399.12 499.46,-409.66"/>
<polygon fill="none" stroke="darkgreen" points="503.47,-407.1 503.47,-427.14 477.36,-439.12 443.11,-439.12 417,-427.14 417,-407.1 443.11,-395.12 477.36,-395.12 503.47,-407.1"/>
<text text-anchor="middle" x="460.24" y="-412.92" font-family="Times,serif" font-size="14.00">EC(15)</text>
</g>
<!-- Publication(2) -->
<g id="node3" class="node">
<title>Publication(2)</title>
<polygon fill="none" stroke="darkgreen" points="815.31,-725.66 815.31,-740.57 776.71,-751.12 722.12,-751.12 683.52,-740.57 683.52,-725.66 722.12,-715.12 776.71,-715.12 815.31,-725.66"/>
<polygon fill="none" stroke="darkgreen" points="819.32,-722.61 819.32,-743.62 777.25,-755.12 721.58,-755.12 679.51,-743.62 679.51,-722.61 721.58,-711.12 777.25,-711.12 819.32,-722.61"/>
<text text-anchor="middle" x="749.41" y="-728.92" font-family="Times,serif" font-size="14.00">Publication(2)</text>
</g>
<!-- ProtDomain(14) -->
<g id="node4" class="node">
<title>ProtDomain(14)</title>
<polygon fill="none" stroke="darkgreen" points="534.09,-347.66 534.09,-362.57 490.83,-373.12 429.64,-373.12 386.38,-362.57 386.38,-347.66 429.64,-337.12 490.83,-337.12 534.09,-347.66"/>
<polygon fill="none" stroke="darkgreen" points="538.1,-344.52 538.1,-365.71 491.31,-377.12 429.16,-377.12 382.37,-365.71 382.37,-344.52 429.16,-333.12 491.31,-333.12 538.1,-344.52"/>
<text text-anchor="middle" x="460.24" y="-350.92" font-family="Times,serif" font-size="14.00">ProtDomain(14)</text>
</g>
<!-- BioProc(4) -->
<g id="node5" class="node">
<title>BioProc(4)</title>
<polygon fill="none" stroke="darkgreen" points="802.87,-384.66 802.87,-399.57 771.56,-410.12 727.27,-410.12 695.96,-399.57 695.96,-384.66 727.27,-374.12 771.56,-374.12 802.87,-384.66"/>
<polygon fill="none" stroke="darkgreen" points="806.87,-381.79 806.87,-402.45 772.21,-414.12 726.62,-414.12 691.96,-402.45 691.96,-381.79 726.62,-370.12 772.21,-370.12 806.87,-381.79"/>
<text text-anchor="middle" x="749.41" y="-387.92" font-family="Times,serif" font-size="14.00">BioProc(4)</text>
</g>
<!-- MolFunc(3) -->
<g id="node6" class="node">
<title>MolFunc(3)</title>
<polygon fill="none" stroke="darkgreen" points="806.81,-151.66 806.81,-166.57 773.19,-177.12 725.64,-177.12 692.02,-166.57 692.02,-151.66 725.64,-141.12 773.19,-141.12 806.81,-151.66"/>
<polygon fill="none" stroke="darkgreen" points="810.82,-148.73 810.82,-169.51 773.8,-181.12 725.03,-181.12 688.01,-169.51 688.01,-148.73 725.03,-137.12 773.8,-137.12 810.82,-148.73"/>
<text text-anchor="middle" x="749.41" y="-154.92" font-family="Times,serif" font-size="14.00">MolFunc(3)</text>
</g>
<!-- Phenotype(13) -->
<g id="node7" class="node">
<title>Phenotype(13)</title>
<polygon fill="none" stroke="darkgreen" points="816.52,-42.66 816.52,-57.57 777.21,-68.12 721.62,-68.12 682.31,-57.57 682.31,-42.66 721.62,-32.12 777.21,-32.12 816.52,-42.66"/>
<polygon fill="none" stroke="darkgreen" points="820.51,-39.59 820.51,-60.64 777.74,-72.12 721.09,-72.12 678.32,-60.64 678.32,-39.59 721.09,-28.12 777.74,-28.12 820.51,-39.59"/>
<text text-anchor="middle" x="749.41" y="-45.92" font-family="Times,serif" font-size="14.00">Phenotype(13)</text>
</g>
<!-- Path(19) -->
<g id="node8" class="node">
<title>Path(19)</title>
<polygon fill="none" stroke="darkgreen" points="1039.11,-783.66 1039.11,-798.57 1013.44,-809.12 977.14,-809.12 951.47,-798.57 951.47,-783.66 977.14,-773.12 1013.44,-773.12 1039.11,-783.66"/>
<polygon fill="none" stroke="darkgreen" points="1043.1,-780.98 1043.1,-801.26 1014.23,-813.12 976.35,-813.12 947.48,-801.26 947.48,-780.98 976.35,-769.12 1014.23,-769.12 1043.1,-780.98"/>
<text text-anchor="middle" x="995.29" y="-786.92" font-family="Times,serif" font-size="14.00">Path(19)</text>
</g>
<!-- Trait(21) -->
<g id="node9" class="node">
<title>Trait(21)</title>
<polygon fill="none" stroke="darkgreen" points="1040.59,-259.66 1040.59,-274.57 1014.05,-285.12 976.53,-285.12 949.99,-274.57 949.99,-259.66 976.53,-249.12 1014.05,-249.12 1040.59,-259.66"/>
<polygon fill="none" stroke="darkgreen" points="1044.6,-256.95 1044.6,-277.28 1014.82,-289.12 975.75,-289.12 945.98,-277.28 945.98,-256.95 975.75,-245.12 1014.82,-245.12 1044.6,-256.95"/>
<text text-anchor="middle" x="995.29" y="-262.92" font-family="Times,serif" font-size="14.00">Trait(21)</text>
</g>
<!-- Gene(8) -->
<g id="node10" class="node">
<title>Gene(8)</title>
<polygon fill="none" stroke="darkgreen" points="791.53,-596.66 791.53,-611.57 766.86,-622.12 731.97,-622.12 707.3,-611.57 707.3,-596.66 731.97,-586.12 766.86,-586.12 791.53,-596.66"/>
<polygon fill="none" stroke="darkgreen" points="795.51,-594.02 795.51,-614.22 767.67,-626.12 731.16,-626.12 703.32,-614.22 703.32,-594.02 731.16,-582.12 767.67,-582.12 795.51,-594.02"/>
<text text-anchor="middle" x="749.41" y="-599.92" font-family="Times,serif" font-size="14.00">Gene(8)</text>
</g>
<!-- Protein(7) -->
<g id="node11" class="node">
<title>Protein(7)</title>
<polygon fill="none" stroke="darkgreen" points="509.76,-77.66 509.76,-92.57 480.75,-103.12 439.72,-103.12 410.71,-92.57 410.71,-77.66 439.72,-67.12 480.75,-67.12 509.76,-77.66"/>
<polygon fill="none" stroke="darkgreen" points="513.74,-74.85 513.74,-95.38 481.45,-107.12 439.02,-107.12 406.73,-95.38 406.73,-74.85 439.02,-63.12 481.45,-63.12 513.74,-74.85"/>
<text text-anchor="middle" x="460.24" y="-80.92" font-family="Times,serif" font-size="14.00">Protein(7)</text>
</g>
<!-- CelComp(5) -->
<g id="node12" class="node">
<title>CelComp(5)</title>
<polygon fill="none" stroke="darkgreen" points="808.02,-467.66 808.02,-482.57 773.69,-493.12 725.14,-493.12 690.81,-482.57 690.81,-467.66 725.14,-457.12 773.69,-457.12 808.02,-467.66"/>
<polygon fill="none" stroke="darkgreen" points="812.01,-464.7 812.01,-485.53 774.29,-497.12 724.54,-497.12 686.82,-485.53 686.82,-464.7 724.54,-453.12 774.29,-453.12 812.01,-464.7"/>
<text text-anchor="middle" x="749.41" y="-470.92" font-family="Times,serif" font-size="14.00">CelComp(5)</text>
</g>
<!-- Reaction(188) -->
<g id="node13" class="node">
<title>Reaction(188)</title>
<polygon fill="none" stroke="darkgreen" points="815.29,-841.66 815.29,-856.57 776.7,-867.12 722.13,-867.12 683.54,-856.57 683.54,-841.66 722.13,-831.12 776.7,-831.12 815.29,-841.66"/>
<polygon fill="none" stroke="darkgreen" points="819.3,-838.61 819.3,-859.62 777.24,-871.12 721.59,-871.12 679.53,-859.62 679.53,-838.61 721.59,-827.12 777.24,-827.12 819.3,-838.61"/>
<text text-anchor="middle" x="749.41" y="-844.92" font-family="Times,serif" font-size="14.00">Reaction(188)</text>
</g>
<!-- Enzyme(177) -->
<g id="node14" class="node">
<title>Enzyme(177)</title>
<polygon fill="none" stroke="darkgreen" points="523.3,-671.66 523.3,-686.57 486.36,-697.12 434.11,-697.12 397.17,-686.57 397.17,-671.66 434.11,-661.12 486.36,-661.12 523.3,-671.66"/>
<polygon fill="none" stroke="darkgreen" points="527.3,-668.64 527.3,-689.59 486.92,-701.12 433.55,-701.12 393.17,-689.59 393.17,-668.64 433.55,-657.12 486.92,-657.12 527.3,-668.64"/>
<text text-anchor="middle" x="460.24" y="-674.92" font-family="Times,serif" font-size="14.00">Enzyme(177)</text>
</g>
<!-- Gene(1) -->
<g id="node15" class="node">
<title>Gene(1)</title>
<ellipse fill="none" stroke="red" cx="43.08" cy="-173.12" rx="39.15" ry="39.15"/>
<ellipse fill="none" stroke="red" cx="43.08" cy="-173.12" rx="43.15" ry="43.15"/>
<text text-anchor="middle" x="43.08" y="-168.92" font-family="Times,serif" font-size="14.00">Gene(1)</text>
</g>
<!-- Gene(1)&#45;&gt;TO(16) -->
<g id="edge34" class="edge">
<title>Gene(1)&#45;&gt;TO(16)</title>
<path fill="none" stroke="blue" d="M46.69,-216.43C54.47,-332.93 80.85,-649.76 141.58,-732.12 219.53,-837.81 257.9,-861.79 382.55,-903.12 489.18,-938.46 623.03,-928.8 695.65,-919.44"/>
<polygon fill="blue" stroke="blue" points="696.46,-922.86 705.91,-918.07 695.53,-915.93 696.46,-922.86"/>
<text text-anchor="middle" x="312.45" y="-898.92" font-family="Times,serif" font-size="14.00">cooc_wi</text>
</g>
<!-- Gene(1)&#45;&gt;Publication(2) -->
<g id="edge37" class="edge">
<title>Gene(1)&#45;&gt;Publication(2)</title>
<path fill="none" stroke="black" d="M43.22,-216.36C43.57,-334.09 63.01,-660.14 260.35,-789.12 283.84,-804.47 559.91,-771.91 660.12,-754.12 667.64,-752.78 675.49,-751.2 683.26,-749.51"/>
<polygon fill="black" stroke="black" points="684.04,-752.92 693.04,-747.32 682.52,-746.09 684.04,-752.92"/>
<text text-anchor="middle" x="312.45" y="-794.92" font-family="Times,serif" font-size="14.00">occ_in</text>
</g>
<!-- Gene(1)&#45;&gt;Phenotype(13) -->
<g id="edge35" class="edge">
<title>Gene(1)&#45;&gt;Phenotype(13)</title>
<path fill="none" stroke="black" d="M64.94,-135.65C82.18,-107.87 109.05,-70.99 141.58,-48.12 187.03,-16.16 205.49,-17.89 260.35,-9.12 409.21,14.7 585.97,-14.14 680.59,-34.12"/>
<polygon fill="black" stroke="black" points="680.09,-37.59 690.6,-36.27 681.56,-30.75 680.09,-37.59"/>
<text text-anchor="middle" x="312.45" y="-11.92" font-family="Times,serif" font-size="14.00">has_observ_pheno</text>
</g>
<!-- Gene(1)&#45;&gt;Protein(7) -->
<g id="edge38" class="edge">
<title>Gene(1)&#45;&gt;Protein(7)</title>
<path fill="none" stroke="blue" d="M82.54,-155.3C125.03,-136.56 195.98,-108.04 260.35,-95.12 305.25,-86.1 356.94,-83.74 396.36,-83.56"/>
<polygon fill="blue" stroke="blue" points="396.37,-87.06 406.37,-83.56 396.37,-80.06 396.37,-87.06"/>
<text text-anchor="middle" x="191.97" y="-132.92" font-family="Times,serif" font-size="14.00">enc</text>
</g>
<!-- Protein(10) -->
<g id="node18" class="node">
<title>Protein(10)</title>
<ellipse fill="none" stroke="black" cx="191.97" cy="-417.12" rx="50.27" ry="18"/>
<text text-anchor="middle" x="191.97" y="-412.92" font-family="Times,serif" font-size="14.00">Protein(10)</text>
</g>
<!-- Gene(1)&#45;&gt;Protein(10) -->
<g id="edge33" class="edge">
<title>Gene(1)&#45;&gt;Protein(10)</title>
<path fill="none" stroke="black" d="M66.07,-209.65C95.96,-259.29 148.69,-346.89 175.04,-390.66"/>
<polygon fill="black" stroke="black" points="172.09,-392.55 180.25,-399.31 178.09,-388.94 172.09,-392.55"/>
<text text-anchor="middle" x="113.87" y="-304.92" font-family="Times,serif" font-size="14.00">enc</text>
</g>
<!-- SNP(20) -->
<g id="node22" class="node">
<title>SNP(20)</title>
<ellipse fill="none" stroke="black" cx="749.41" cy="-267.12" rx="41.13" ry="18"/>
<text text-anchor="middle" x="749.41" y="-262.92" font-family="Times,serif" font-size="14.00">SNP(20)</text>
</g>
<!-- Gene(1)&#45;&gt;SNP(20) -->
<g id="edge36" class="edge">
<title>Gene(1)&#45;&gt;SNP(20)</title>
<path fill="none" stroke="blue" d="M74.65,-143.32C92.77,-127.17 116.96,-108.13 141.58,-96.12 300.78,-18.44 367.16,-7 537.92,-54.12 598.9,-70.95 621.56,-76.96 660.12,-127.12 677.86,-150.21 663.92,-164.69 678.12,-190.12 689.54,-210.57 707.38,-230.03 722.23,-244.27"/>
<polygon fill="blue" stroke="blue" points="719.98,-246.95 729.68,-251.21 724.75,-241.83 719.98,-246.95"/>
<text text-anchor="middle" x="312.45" y="-47.92" font-family="Times,serif" font-size="14.00">has_variation</text>
</g>
<!-- EC(12) -->
<g id="node16" class="node">
<title>EC(12)</title>
<ellipse fill="none" stroke="black" cx="460.24" cy="-193.12" rx="36.28" ry="18"/>
<text text-anchor="middle" x="460.24" y="-188.92" font-family="Times,serif" font-size="14.00">EC(12)</text>
</g>
<!-- EC(12)&#45;&gt;MolFunc(3) -->
<g id="edge1" class="edge">
<title>EC(12)&#45;&gt;MolFunc(3)</title>
<path fill="none" stroke="blue" d="M491.47,-183.81C506.22,-178.46 523.79,-170.86 537.92,-161.12 547.49,-154.51 545.23,-146.71 555.92,-142.12 599.81,-123.24 654.45,-130.63 694.29,-140.9"/>
<polygon fill="blue" stroke="blue" points="693.52,-144.32 704.08,-143.56 695.35,-137.56 693.52,-144.32"/>
<text text-anchor="middle" x="608.02" y="-144.92" font-family="Times,serif" font-size="14.00">equ</text>
</g>
<!-- Reaction(18) -->
<g id="node17" class="node">
<title>Reaction(18)</title>
<ellipse fill="none" stroke="black" cx="749.41" cy="-791.12" rx="56.04" ry="18"/>
<text text-anchor="middle" x="749.41" y="-786.92" font-family="Times,serif" font-size="14.00">Reaction(18)</text>
</g>
<!-- Reaction(18)&#45;&gt;Path(19) -->
<g id="edge2" class="edge">
<title>Reaction(18)&#45;&gt;Path(19)</title>
<path fill="none" stroke="black" d="M805.75,-791.12C845.05,-791.12 897.67,-791.12 937.33,-791.12"/>
<polygon fill="black" stroke="black" points="937.38,-794.62 947.38,-791.12 937.38,-787.62 937.38,-794.62"/>
<text text-anchor="middle" x="883.42" y="-793.92" font-family="Times,serif" font-size="14.00">part_of</text>
</g>
<!-- Protein(10)&#45;&gt;TO(16) -->
<g id="edge17" class="edge">
<title>Protein(10)&#45;&gt;TO(16)</title>
<path fill="none" stroke="blue" d="M193.79,-435.13C197.17,-501.75 212.26,-732.94 260.35,-785.12 292.85,-820.38 327.89,-782.21 364.55,-813.12 379.15,-825.42 367.35,-840.58 382.55,-852.12 407.16,-870.79 600.66,-894.64 695.87,-905.4"/>
<polygon fill="blue" stroke="blue" points="695.54,-908.88 705.87,-906.52 696.32,-901.93 695.54,-908.88"/>
<text text-anchor="middle" x="460.24" y="-887.92" font-family="Times,serif" font-size="14.00">cooc_wi</text>
</g>
<!-- Protein(10)&#45;&gt;EC(15) -->
<g id="edge16" class="edge">
<title>Protein(10)&#45;&gt;EC(15)</title>
<path fill="none" stroke="black" d="M242.43,-417.12C289.22,-417.12 359.22,-417.12 406.93,-417.12"/>
<polygon fill="black" stroke="black" points="407.06,-420.62 417.06,-417.12 407.06,-413.62 407.06,-420.62"/>
<text text-anchor="middle" x="312.45" y="-419.92" font-family="Times,serif" font-size="14.00">cat_c</text>
</g>
<!-- Protein(10)&#45;&gt;Publication(2) -->
<g id="edge7" class="edge">
<title>Protein(10)&#45;&gt;Publication(2)</title>
<path fill="none" stroke="blue" d="M194.65,-435.19C200.26,-491.48 220.33,-661.99 260.35,-697.12 319.28,-748.83 546.92,-744.69 669.37,-738.35"/>
<polygon fill="blue" stroke="blue" points="669.65,-741.84 679.45,-737.81 669.27,-734.85 669.65,-741.84"/>
<text text-anchor="middle" x="460.24" y="-743.92" font-family="Times,serif" font-size="14.00">pub_in</text>
</g>
<!-- Protein(10)&#45;&gt;ProtDomain(14) -->
<g id="edge6" class="edge">
<title>Protein(10)&#45;&gt;ProtDomain(14)</title>
<path fill="none" stroke="black" d="M232.45,-406.26C241.59,-403.84 251.3,-401.33 260.35,-399.12 301.19,-389.15 346.99,-378.95 384.33,-370.89"/>
<polygon fill="black" stroke="black" points="385.09,-374.3 394.13,-368.78 383.62,-367.46 385.09,-374.3"/>
<text text-anchor="middle" x="312.45" y="-401.92" font-family="Times,serif" font-size="14.00">has_domain</text>
</g>
<!-- Protein(10)&#45;&gt;BioProc(4) -->
<g id="edge3" class="edge">
<title>Protein(10)&#45;&gt;BioProc(4)</title>
<path fill="none" stroke="blue" d="M212.92,-400.69C245.8,-374.89 314.5,-326.16 382.55,-310.12 449.76,-294.27 483.2,-268 537.92,-310.12 562.69,-329.19 531.85,-358.16 555.92,-378.12 591.18,-407.36 643.69,-409.36 684.96,-404.88"/>
<polygon fill="blue" stroke="blue" points="685.43,-408.34 694.92,-403.65 684.57,-401.4 685.43,-408.34"/>
<text text-anchor="middle" x="460.24" y="-312.92" font-family="Times,serif" font-size="14.00">participates_in</text>
</g>
<!-- Protein(10)&#45;&gt;MolFunc(3) -->
<g id="edge8" class="edge">
<title>Protein(10)&#45;&gt;MolFunc(3)</title>
<path fill="none" stroke="black" d="M193.08,-399.02C194.37,-357.62 203.46,-255.35 260.35,-200.12 294.85,-166.63 323.37,-195.91 364.55,-171.12 374.52,-165.12 372.22,-157.47 382.55,-152.12 451.68,-116.32 478.27,-132.69 555.92,-127.12 602.11,-123.8 614.5,-119.11 660.12,-127.12 673.43,-129.45 687.37,-133.63 700.15,-138.21"/>
<polygon fill="black" stroke="black" points="699.07,-141.55 709.66,-141.77 701.52,-134.99 699.07,-141.55"/>
<text text-anchor="middle" x="460.24" y="-154.92" font-family="Times,serif" font-size="14.00">has_function</text>
</g>
<!-- Protein(10)&#45;&gt;Gene(8) -->
<g id="edge4" class="edge">
<title>Protein(10)&#45;&gt;Gene(8)</title>
<path fill="none" stroke="black" d="M200.15,-434.99C210.36,-458.35 231.11,-499.2 260.35,-524.12 305.29,-562.39 325.41,-561.35 382.55,-576.12 489.84,-603.84 620.24,-606.82 692.81,-605.88"/>
<polygon fill="black" stroke="black" points="693.15,-609.37 703.09,-605.71 693.04,-602.37 693.15,-609.37"/>
<text text-anchor="middle" x="460.24" y="-602.92" font-family="Times,serif" font-size="14.00">enc</text>
</g>
<!-- Protein(10)&#45;&gt;Protein(7) -->
<g id="edge5" class="edge">
<title>Protein(10)&#45;&gt;Protein(7)</title>
<path fill="none" stroke="blue" d="M194.38,-398.98C199.38,-339.88 218.22,-154.41 260.35,-115.12 270.33,-105.81 342.24,-96.69 396.75,-90.99"/>
<polygon fill="blue" stroke="blue" points="397.12,-94.47 406.71,-89.97 396.4,-87.51 397.12,-94.47"/>
<text text-anchor="middle" x="312.45" y="-159.92" font-family="Times,serif" font-size="14.00">equivalent(&lt;=4)</text>
<text text-anchor="middle" x="312.45" y="-145.92" font-family="Times,serif" font-size="14.00">h_s_s(&lt;=4)</text>
<text text-anchor="middle" x="312.45" y="-131.92" font-family="Times,serif" font-size="14.00">ortho(&lt;=4)</text>
<text text-anchor="middle" x="312.45" y="-117.92" font-family="Times,serif" font-size="14.00">xref(&lt;=6)</text>
</g>
<!-- Protein(10)&#45;&gt;CelComp(5) -->
<g id="edge9" class="edge">
<title>Protein(10)&#45;&gt;CelComp(5)</title>
<path fill="none" stroke="blue" d="M209.19,-434.19C239.64,-464.76 308.95,-527.57 382.55,-548.12 496.21,-579.85 633.38,-529.45 703.05,-497.74"/>
<polygon fill="blue" stroke="blue" points="704.81,-500.78 712.42,-493.4 701.87,-494.43 704.81,-500.78"/>
<text text-anchor="middle" x="460.24" y="-560.92" font-family="Times,serif" font-size="14.00">located_in</text>
</g>
<!-- Protein(10)&#45;&gt;Enzyme(177) -->
<g id="edge12" class="edge">
<title>Protein(10)&#45;&gt;Enzyme(177)</title>
<path fill="none" stroke="black" d="M192.66,-435.28C192.99,-477.82 200.12,-584.42 260.35,-639.12 293.16,-668.91 341.77,-679.08 382.72,-681.72"/>
<polygon fill="black" stroke="black" points="382.79,-685.23 392.95,-682.23 383.14,-678.23 382.79,-685.23"/>
<text text-anchor="middle" x="312.45" y="-681.92" font-family="Times,serif" font-size="14.00">is_a</text>
</g>
<!-- Protein(10)&#45;&gt;EC(12) -->
<g id="edge13" class="edge">
<title>Protein(10)&#45;&gt;EC(12)</title>
<path fill="none" stroke="blue" d="M193.97,-398.97C197.07,-361.76 209.62,-276.65 260.35,-233.12 282.98,-213.7 362.69,-202.47 414.07,-197.09"/>
<polygon fill="blue" stroke="blue" points="414.66,-200.55 424.26,-196.06 413.95,-193.58 414.66,-200.55"/>
<text text-anchor="middle" x="312.45" y="-235.92" font-family="Times,serif" font-size="14.00">cat_c</text>
</g>
<!-- Protein(10)&#45;&gt;Protein(10) -->
<g id="edge10" class="edge">
<title>Protein(10)&#45;&gt;Protein(10)</title>
<path fill="none" stroke="black" d="M178.04,-434.53C175.44,-444.2 180.08,-453.12 191.97,-453.12 199.39,-453.12 203.99,-449.64 205.76,-444.66"/>
<polygon fill="black" stroke="black" points="209.26,-444.57 205.89,-434.53 202.26,-444.48 209.26,-444.57"/>
<text text-anchor="middle" x="191.97" y="-497.92" font-family="Times,serif" font-size="14.00">h_s_s(&lt;=4)</text>
<text text-anchor="middle" x="191.97" y="-483.92" font-family="Times,serif" font-size="14.00">xref(&lt;=6)</text>
<text text-anchor="middle" x="191.97" y="-469.92" font-family="Times,serif" font-size="14.00">equivalent(&lt;=4)</text>
<text text-anchor="middle" x="191.97" y="-455.92" font-family="Times,serif" font-size="14.00">ortho(&lt;=4)</text>
</g>
<!-- Enzyme(17) -->
<g id="node19" class="node">
<title>Enzyme(17)</title>
<ellipse fill="none" stroke="black" cx="460.24" cy="-825.12" rx="53.63" ry="18"/>
<text text-anchor="middle" x="460.24" y="-820.92" font-family="Times,serif" font-size="14.00">Enzyme(17)</text>
</g>
<!-- Protein(10)&#45;&gt;Enzyme(17) -->
<g id="edge11" class="edge">
<title>Protein(10)&#45;&gt;Enzyme(17)</title>
<path fill="none" stroke="blue" d="M194.14,-435.53C198.5,-498.36 215.94,-702.97 260.35,-748.12 293.61,-781.93 320.3,-754.06 364.55,-771.12 386.36,-779.52 409.15,-792.38 426.91,-803.44"/>
<polygon fill="blue" stroke="blue" points="425.39,-806.62 435.71,-809.03 429.15,-800.71 425.39,-806.62"/>
<text text-anchor="middle" x="312.45" y="-773.92" font-family="Times,serif" font-size="14.00">is_a</text>
</g>
<!-- Gene(9) -->
<g id="node20" class="node">
<title>Gene(9)</title>
<ellipse fill="none" stroke="black" cx="460.24" cy="-475.12" rx="39.15" ry="18"/>
<text text-anchor="middle" x="460.24" y="-470.92" font-family="Times,serif" font-size="14.00">Gene(9)</text>
</g>
<!-- Protein(10)&#45;&gt;Gene(9) -->
<g id="edge14" class="edge">
<title>Protein(10)&#45;&gt;Gene(9)</title>
<path fill="none" stroke="black" d="M232.42,-428.1C241.56,-430.52 251.27,-432.99 260.35,-435.12 312.57,-447.33 373.02,-459.16 413.44,-466.75"/>
<polygon fill="black" stroke="black" points="413.05,-470.24 423.52,-468.63 414.34,-463.36 413.05,-470.24"/>
<text text-anchor="middle" x="312.45" y="-458.92" font-family="Times,serif" font-size="14.00">enc</text>
</g>
<!-- ProtDomain(11) -->
<g id="node21" class="node">
<title>ProtDomain(11)</title>
<ellipse fill="none" stroke="black" cx="460.24" cy="-247.12" rx="68" ry="18"/>
<text text-anchor="middle" x="460.24" y="-242.92" font-family="Times,serif" font-size="14.00">ProtDomain(11)</text>
</g>
<!-- Protein(10)&#45;&gt;ProtDomain(11) -->
<g id="edge15" class="edge">
<title>Protein(10)&#45;&gt;ProtDomain(11)</title>
<path fill="none" stroke="blue" d="M195.75,-399.02C201.58,-367.73 218.25,-303.92 260.35,-273.12 279.61,-259.03 335.21,-252.58 382.75,-249.62"/>
<polygon fill="blue" stroke="blue" points="382.97,-253.11 392.76,-249.04 382.57,-246.12 382.97,-253.11"/>
<text text-anchor="middle" x="312.45" y="-275.92" font-family="Times,serif" font-size="14.00">has_domain</text>
</g>
<!-- Enzyme(17)&#45;&gt;Reaction(188) -->
<g id="edge18" class="edge">
<title>Enzyme(17)&#45;&gt;Reaction(188)</title>
<path fill="none" stroke="black" d="M512.58,-829.41C556.2,-833.05 619.51,-838.34 669.56,-842.53"/>
<polygon fill="black" stroke="black" points="669.45,-846.03 679.71,-843.37 670.03,-839.05 669.45,-846.03"/>
<text text-anchor="middle" x="608.02" y="-843.92" font-family="Times,serif" font-size="14.00">ca_by</text>
</g>
<!-- Enzyme(17)&#45;&gt;Reaction(18) -->
<g id="edge19" class="edge">
<title>Enzyme(17)&#45;&gt;Reaction(18)</title>
<path fill="none" stroke="blue" d="M511.26,-819.19C559.77,-813.45 633.52,-804.72 685.88,-798.52"/>
<polygon fill="blue" stroke="blue" points="686.54,-801.97 696.05,-797.32 685.71,-795.02 686.54,-801.97"/>
<text text-anchor="middle" x="608.02" y="-815.92" font-family="Times,serif" font-size="14.00">ca_by</text>
</g>
<!-- Gene(9)&#45;&gt;TO(16) -->
<g id="edge22" class="edge">
<title>Gene(9)&#45;&gt;TO(16)</title>
<path fill="none" stroke="black" d="M482.26,-490.18C500.21,-504.28 525.09,-527.05 537.92,-553.12 563.67,-605.45 529.41,-631.16 555.92,-683.12 585.09,-740.29 629.64,-726.63 660.12,-783.12 680.94,-821.71 650.91,-845.73 678.12,-880.12 683.24,-886.59 689.99,-891.74 697.29,-895.84"/>
<polygon fill="black" stroke="black" points="696.22,-899.21 706.74,-900.48 699.3,-892.93 696.22,-899.21"/>
<text text-anchor="middle" x="608.02" y="-785.92" font-family="Times,serif" font-size="14.00">cooc_wi</text>
</g>
<!-- Gene(9)&#45;&gt;Publication(2) -->
<g id="edge20" class="edge">
<title>Gene(9)&#45;&gt;Publication(2)</title>
<path fill="none" stroke="black" d="M480.25,-490.87C497.1,-505.59 521.52,-528.9 537.92,-553.12 549.08,-569.59 543.4,-578.65 555.92,-594.12 591.81,-638.47 613.86,-635.71 660.12,-669.12 676.69,-681.09 695,-694.35 710.62,-705.68"/>
<polygon fill="black" stroke="black" points="708.85,-708.72 719,-711.76 712.96,-703.05 708.85,-708.72"/>
<text text-anchor="middle" x="608.02" y="-671.92" font-family="Times,serif" font-size="14.00">pub_in</text>
</g>
<!-- Gene(9)&#45;&gt;BioProc(4) -->
<g id="edge25" class="edge">
<title>Gene(9)&#45;&gt;BioProc(4)</title>
<path fill="none" stroke="blue" d="M493.62,-465.76C541.6,-451.89 632.26,-425.69 691.49,-408.57"/>
<polygon fill="blue" stroke="blue" points="692.8,-411.83 701.44,-405.69 690.86,-405.11 692.8,-411.83"/>
<text text-anchor="middle" x="608.02" y="-447.92" font-family="Times,serif" font-size="14.00">participates_in</text>
</g>
<!-- Gene(9)&#45;&gt;MolFunc(3) -->
<g id="edge27" class="edge">
<title>Gene(9)&#45;&gt;MolFunc(3)</title>
<path fill="none" stroke="blue" d="M498.37,-470.79C512.96,-467.13 528.45,-460.42 537.92,-448.12 568.51,-408.37 524.18,-261.96 555.92,-223.12 586.41,-185.8 614.43,-208.46 660.12,-193.12 672.4,-188.99 685.51,-184.18 697.75,-179.49"/>
<polygon fill="blue" stroke="blue" points="699.29,-182.65 707.36,-175.78 696.77,-176.12 699.29,-182.65"/>
<text text-anchor="middle" x="608.02" y="-225.92" font-family="Times,serif" font-size="14.00">has_function</text>
</g>
<!-- Gene(9)&#45;&gt;Phenotype(13) -->
<g id="edge28" class="edge">
<title>Gene(9)&#45;&gt;Phenotype(13)</title>
<path fill="none" stroke="black" d="M498.39,-470.39C512.8,-466.66 528.15,-460 537.92,-448.12 573.54,-404.74 516.98,-363.54 555.92,-323.12 588.58,-289.21 628.16,-338.68 660.12,-304.12 686.81,-275.25 662.17,-164.05 678.12,-128.12 686.29,-109.7 700.51,-92.65 714.03,-79.21"/>
<polygon fill="black" stroke="black" points="716.62,-81.58 721.43,-72.13 711.79,-76.52 716.62,-81.58"/>
<text text-anchor="middle" x="608.02" y="-325.92" font-family="Times,serif" font-size="14.00">has_observ_pheno</text>
</g>
<!-- Gene(9)&#45;&gt;Gene(8) -->
<g id="edge26" class="edge">
<title>Gene(9)&#45;&gt;Gene(8)</title>
<path fill="none" stroke="black" d="M488.77,-487.49C539.01,-510.05 645.86,-558.05 705.64,-584.9"/>
<polygon fill="black" stroke="black" points="704.26,-588.12 714.82,-589.03 707.13,-581.74 704.26,-588.12"/>
<text text-anchor="middle" x="608.02" y="-578.92" font-family="Times,serif" font-size="14.00">physical(&lt;=8)</text>
<text text-anchor="middle" x="608.02" y="-564.92" font-family="Times,serif" font-size="14.00">genetic(&lt;=8)</text>
</g>
<!-- Gene(9)&#45;&gt;CelComp(5) -->
<g id="edge21" class="edge">
<title>Gene(9)&#45;&gt;CelComp(5)</title>
<path fill="none" stroke="blue" d="M499.37,-475.12C544.4,-475.12 620.27,-475.12 676.46,-475.12"/>
<polygon fill="blue" stroke="blue" points="676.71,-478.62 686.71,-475.12 676.71,-471.62 676.71,-478.62"/>
<text text-anchor="middle" x="608.02" y="-477.92" font-family="Times,serif" font-size="14.00">located_in</text>
</g>
<!-- Gene(9)&#45;&gt;Gene(9) -->
<g id="edge23" class="edge">
<title>Gene(9)&#45;&gt;Gene(9)</title>
<path fill="none" stroke="blue" d="M436.1,-489.53C427.67,-500.28 435.71,-511.12 460.24,-511.12 477.1,-511.12 486.17,-506 487.45,-499.3"/>
<polygon fill="blue" stroke="blue" points="490.72,-498.02 484.38,-489.53 484.04,-500.12 490.72,-498.02"/>
<text text-anchor="middle" x="460.24" y="-527.92" font-family="Times,serif" font-size="14.00">physical(&lt;=8)</text>
<text text-anchor="middle" x="460.24" y="-513.92" font-family="Times,serif" font-size="14.00">genetic(&lt;=8)</text>
</g>
<!-- Gene(9)&#45;&gt;SNP(20) -->
<g id="edge24" class="edge">
<title>Gene(9)&#45;&gt;SNP(20)</title>
<path fill="none" stroke="black" d="M497.57,-469.18C511.68,-465.26 527.03,-458.79 537.92,-448.12 554.19,-432.17 541.11,-417.44 555.92,-400.12 590.49,-359.66 616.39,-371.45 660.12,-341.12 682.43,-325.64 705.92,-305.76 723.05,-290.51"/>
<polygon fill="black" stroke="black" points="725.83,-292.72 730.92,-283.43 721.14,-287.52 725.83,-292.72"/>
<text text-anchor="middle" x="608.02" y="-402.92" font-family="Times,serif" font-size="14.00">has_variation</text>
</g>
<!-- ProtDomain(11)&#45;&gt;BioProc(4) -->
<g id="edge32" class="edge">
<title>ProtDomain(11)&#45;&gt;BioProc(4)</title>
<path fill="none" stroke="black" d="M525.24,-241.84C574.91,-239.05 638.79,-238.72 660.12,-253.12 676.61,-264.25 668.26,-276.83 678.12,-294.12 691.75,-318.05 709.94,-343.26 724.39,-362.12"/>
<polygon fill="black" stroke="black" points="721.65,-364.29 730.54,-370.05 727.18,-360 721.65,-364.29"/>
<text text-anchor="middle" x="608.02" y="-255.92" font-family="Times,serif" font-size="14.00">participates_in</text>
</g>
<!-- ProtDomain(11)&#45;&gt;MolFunc(3) -->
<g id="edge31" class="edge">
<title>ProtDomain(11)&#45;&gt;MolFunc(3)</title>
<path fill="none" stroke="blue" d="M512.78,-235.55C521.92,-231.75 530.78,-226.74 537.92,-220.12 552.51,-206.58 539.84,-190.85 555.92,-179.12 575.01,-165.19 631.25,-160.53 678.04,-159.16"/>
<polygon fill="blue" stroke="blue" points="678.26,-162.65 688.17,-158.9 678.09,-155.65 678.26,-162.65"/>
<text text-anchor="middle" x="608.02" y="-181.92" font-family="Times,serif" font-size="14.00">has_function</text>
</g>
<!-- ProtDomain(11)&#45;&gt;CelComp(5) -->
<g id="edge30" class="edge">
<title>ProtDomain(11)&#45;&gt;CelComp(5)</title>
<path fill="none" stroke="black" d="M513.53,-258.24C572.24,-270.75 659.48,-289.43 660.12,-290.12 700.61,-333.92 647.75,-371.78 678.12,-423.12 684.58,-434.04 694.33,-443.38 704.52,-451"/>
<polygon fill="black" stroke="black" points="702.53,-453.88 712.73,-456.74 706.54,-448.15 702.53,-453.88"/>
<text text-anchor="middle" x="608.02" y="-292.92" font-family="Times,serif" font-size="14.00">located_in</text>
</g>
<!-- SNP(20)&#45;&gt;Trait(21) -->
<g id="edge29" class="edge">
<title>SNP(20)&#45;&gt;Trait(21)</title>
<path fill="none" stroke="blue" d="M790.69,-267.12C830.22,-267.12 890.96,-267.12 935.81,-267.12"/>
<polygon fill="blue" stroke="blue" points="935.98,-270.62 945.98,-267.12 935.98,-263.62 935.98,-270.62"/>
<text text-anchor="middle" x="883.42" y="-269.92" font-family="Times,serif" font-size="14.00">associated_with</text>
</g>
</g>
</svg>
