<svg width="1052pt" height="959pt"
 viewBox="0.00 0.00 1052.45 958.75" xmlns="http://www.w3.org/2000/svg" xmlns:xlink="http://www.w3.org/1999/xlink">
<g id="graph0" class="graph" transform="scale(1 1) rotate(0) translate(4 954.75)">
<title>%3</title>
<polygon fill="white" stroke="transparent" points="-4,4 -4,-954.75 1048.45,-954.75 1048.45,4 -4,4"/>
<!-- Protein(7) -->
<g id="node1" class="node">
<title>Protein(7)</title>
<polygon fill="none" stroke="darkgreen" points="509.76,-821.29 509.76,-836.21 480.75,-846.75 439.72,-846.75 410.71,-836.21 410.71,-821.29 439.72,-810.75 480.75,-810.75 509.76,-821.29"/>
<polygon fill="none" stroke="darkgreen" points="513.74,-818.49 513.74,-839.01 481.45,-850.75 439.02,-850.75 406.73,-839.01 406.73,-818.49 439.02,-806.75 481.45,-806.75 513.74,-818.49"/>
<text text-anchor="middle" x="460.24" y="-824.55" font-family="Times,serif" font-size="14.00">Protein(7)</text>
</g>
<!-- CelComp(5) -->
<g id="node2" class="node">
<title>CelComp(5)</title>
<polygon fill="none" stroke="darkgreen" points="808.02,-564.29 808.02,-579.21 773.69,-589.75 725.14,-589.75 690.81,-579.21 690.81,-564.29 725.14,-553.75 773.69,-553.75 808.02,-564.29"/>
<polygon fill="none" stroke="darkgreen" points="812.01,-561.34 812.01,-582.16 774.29,-593.75 724.54,-593.75 686.82,-582.16 686.82,-561.34 724.54,-549.75 774.29,-549.75 812.01,-561.34"/>
<text text-anchor="middle" x="749.41" y="-567.55" font-family="Times,serif" font-size="14.00">CelComp(5)</text>
</g>
<!-- Gene(8) -->
<g id="node3" class="node">
<title>Gene(8)</title>
<polygon fill="none" stroke="darkgreen" points="791.53,-491.29 791.53,-506.21 766.86,-516.75 731.97,-516.75 707.3,-506.21 707.3,-491.29 731.97,-480.75 766.86,-480.75 791.53,-491.29"/>
<polygon fill="none" stroke="darkgreen" points="795.51,-488.65 795.51,-508.85 767.67,-520.75 731.16,-520.75 703.32,-508.85 703.32,-488.65 731.16,-476.75 767.67,-476.75 795.51,-488.65"/>
<text text-anchor="middle" x="749.41" y="-494.55" font-family="Times,serif" font-size="14.00">Gene(8)</text>
</g>
<!-- MolFunc(3) -->
<g id="node4" class="node">
<title>MolFunc(3)</title>
<polygon fill="none" stroke="darkgreen" points="806.81,-273.29 806.81,-288.21 773.19,-298.75 725.64,-298.75 692.02,-288.21 692.02,-273.29 725.64,-262.75 773.19,-262.75 806.81,-273.29"/>
<polygon fill="none" stroke="darkgreen" points="810.82,-270.36 810.82,-291.14 773.8,-302.75 725.03,-302.75 688.01,-291.14 688.01,-270.36 725.03,-258.75 773.8,-258.75 810.82,-270.36"/>
<text text-anchor="middle" x="749.41" y="-276.55" font-family="Times,serif" font-size="14.00">MolFunc(3)</text>
</g>
<!-- TO(16) -->
<g id="node5" class="node">
<title>TO(16)</title>
<polygon fill="none" stroke="darkgreen" points="788.87,-921.29 788.87,-936.21 765.76,-946.75 733.07,-946.75 709.96,-936.21 709.96,-921.29 733.07,-910.75 765.76,-910.75 788.87,-921.29"/>
<polygon fill="none" stroke="darkgreen" points="792.87,-918.72 792.87,-938.78 766.63,-950.75 732.2,-950.75 705.96,-938.78 705.96,-918.72 732.2,-906.75 766.63,-906.75 792.87,-918.72"/>
<text text-anchor="middle" x="749.41" y="-924.55" font-family="Times,serif" font-size="14.00">TO(16)</text>
</g>
<!-- Publication(2) -->
<g id="node6" class="node">
<title>Publication(2)</title>
<polygon fill="none" stroke="darkgreen" points="815.31,-655.29 815.31,-670.21 776.71,-680.75 722.12,-680.75 683.52,-670.21 683.52,-655.29 722.12,-644.75 776.71,-644.75 815.31,-655.29"/>
<polygon fill="none" stroke="darkgreen" points="819.32,-652.24 819.32,-673.26 777.25,-684.75 721.58,-684.75 679.51,-673.26 679.51,-652.24 721.58,-640.75 777.25,-640.75 819.32,-652.24"/>
<text text-anchor="middle" x="749.41" y="-658.55" font-family="Times,serif" font-size="14.00">Publication(2)</text>
</g>
<!-- Trait(21) -->
<g id="node7" class="node">
<title>Trait(21)</title>
<polygon fill="none" stroke="darkgreen" points="1040.59,-210.29 1040.59,-225.21 1014.05,-235.75 976.53,-235.75 949.99,-225.21 949.99,-210.29 976.53,-199.75 1014.05,-199.75 1040.59,-210.29"/>
<polygon fill="none" stroke="darkgreen" points="1044.6,-207.58 1044.6,-227.92 1014.82,-239.75 975.75,-239.75 945.98,-227.92 945.98,-207.58 975.75,-195.75 1014.82,-195.75 1044.6,-207.58"/>
<text text-anchor="middle" x="995.29" y="-213.55" font-family="Times,serif" font-size="14.00">Trait(21)</text>
</g>
<!-- Phenotype(13) -->
<g id="node8" class="node">
<title>Phenotype(13)</title>
<polygon fill="none" stroke="darkgreen" points="816.52,-803.29 816.52,-818.21 777.21,-828.75 721.62,-828.75 682.31,-818.21 682.31,-803.29 721.62,-792.75 777.21,-792.75 816.52,-803.29"/>
<polygon fill="none" stroke="darkgreen" points="820.51,-800.22 820.51,-821.28 777.74,-832.75 721.09,-832.75 678.32,-821.28 678.32,-800.22 721.09,-788.75 777.74,-788.75 820.51,-800.22"/>
<text text-anchor="middle" x="749.41" y="-806.55" font-family="Times,serif" font-size="14.00">Phenotype(13)</text>
</g>
<!-- BioProc(4) -->
<g id="node9" class="node">
<title>BioProc(4)</title>
<polygon fill="none" stroke="darkgreen" points="802.87,-340.29 802.87,-355.21 771.56,-365.75 727.27,-365.75 695.96,-355.21 695.96,-340.29 727.27,-329.75 771.56,-329.75 802.87,-340.29"/>
<polygon fill="none" stroke="darkgreen" points="806.87,-337.42 806.87,-358.08 772.21,-369.75 726.62,-369.75 691.96,-358.08 691.96,-337.42 726.62,-325.75 772.21,-325.75 806.87,-337.42"/>
<text text-anchor="middle" x="749.41" y="-343.55" font-family="Times,serif" font-size="14.00">BioProc(4)</text>
</g>
<!-- Enzyme(177) -->
<g id="node10" class="node">
<title>Enzyme(177)</title>
<polygon fill="none" stroke="darkgreen" points="523.3,-88.29 523.3,-103.21 486.36,-113.75 434.11,-113.75 397.17,-103.21 397.17,-88.29 434.11,-77.75 486.36,-77.75 523.3,-88.29"/>
<polygon fill="none" stroke="darkgreen" points="527.3,-85.28 527.3,-106.22 486.92,-117.75 433.55,-117.75 393.17,-106.22 393.17,-85.28 433.55,-73.75 486.92,-73.75 527.3,-85.28"/>
<text text-anchor="middle" x="460.24" y="-91.55" font-family="Times,serif" font-size="14.00">Enzyme(177)</text>
</g>
<!-- ProtDomain(14) -->
<g id="node11" class="node">
<title>ProtDomain(14)</title>
<polygon fill="none" stroke="darkgreen" points="534.09,-26.29 534.09,-41.21 490.83,-51.75 429.64,-51.75 386.38,-41.21 386.38,-26.29 429.64,-15.75 490.83,-15.75 534.09,-26.29"/>
<polygon fill="none" stroke="darkgreen" points="538.1,-23.15 538.1,-44.35 491.31,-55.75 429.16,-55.75 382.37,-44.35 382.37,-23.15 429.16,-11.75 491.31,-11.75 538.1,-23.15"/>
<text text-anchor="middle" x="460.24" y="-29.55" font-family="Times,serif" font-size="14.00">ProtDomain(14)</text>
</g>
<!-- EC(15) -->
<g id="node12" class="node">
<title>EC(15)</title>
<polygon fill="none" stroke="darkgreen" points="499.46,-709.29 499.46,-724.21 476.48,-734.75 443.99,-734.75 421.01,-724.21 421.01,-709.29 443.99,-698.75 476.48,-698.75 499.46,-709.29"/>
<polygon fill="none" stroke="darkgreen" points="503.47,-706.73 503.47,-726.77 477.36,-738.75 443.11,-738.75 417,-726.77 417,-706.73 443.11,-694.75 477.36,-694.75 503.47,-706.73"/>
<text text-anchor="middle" x="460.24" y="-712.55" font-family="Times,serif" font-size="14.00">EC(15)</text>
</g>
<!-- Reaction(188) -->
<g id="node13" class="node">
<title>Reaction(188)</title>
<polygon fill="none" stroke="darkgreen" points="815.29,-142.29 815.29,-157.21 776.7,-167.75 722.13,-167.75 683.54,-157.21 683.54,-142.29 722.13,-131.75 776.7,-131.75 815.29,-142.29"/>
<polygon fill="none" stroke="darkgreen" points="819.3,-139.24 819.3,-160.26 777.24,-171.75 721.59,-171.75 679.53,-160.26 679.53,-139.24 721.59,-127.75 777.24,-127.75 819.3,-139.24"/>
<text text-anchor="middle" x="749.41" y="-145.55" font-family="Times,serif" font-size="14.00">Reaction(188)</text>
</g>
<!-- Path(19) -->
<g id="node14" class="node">
<title>Path(19)</title>
<polygon fill="none" stroke="darkgreen" points="1039.11,-84.29 1039.11,-99.21 1013.44,-109.75 977.14,-109.75 951.47,-99.21 951.47,-84.29 977.14,-73.75 1013.44,-73.75 1039.11,-84.29"/>
<polygon fill="none" stroke="darkgreen" points="1043.1,-81.61 1043.1,-101.89 1014.23,-113.75 976.35,-113.75 947.48,-101.89 947.48,-81.61 976.35,-69.75 1014.23,-69.75 1043.1,-81.61"/>
<text text-anchor="middle" x="995.29" y="-87.55" font-family="Times,serif" font-size="14.00">Path(19)</text>
</g>
<!-- Gene(1) -->
<g id="node15" class="node">
<title>Gene(1)</title>
<ellipse fill="none" stroke="red" cx="43.08" cy="-857.75" rx="39.15" ry="39.15"/>
<ellipse fill="none" stroke="red" cx="43.08" cy="-857.75" rx="43.15" ry="43.15"/>
<text text-anchor="middle" x="43.08" y="-853.55" font-family="Times,serif" font-size="14.00">Gene(1)</text>
</g>
<!-- Gene(1)&#45;&gt;Protein(7) -->
<g id="edge37" class="edge">
<title>Gene(1)&#45;&gt;Protein(7)</title>
<path fill="none" stroke="blue" d="M86.31,-854.69C103.46,-853.46 123.47,-852.03 141.58,-850.75 229.99,-844.51 332.25,-837.46 396.34,-833.06"/>
<polygon fill="blue" stroke="blue" points="396.94,-836.53 406.68,-832.35 396.46,-829.54 396.94,-836.53"/>
<text text-anchor="middle" x="191.97" y="-853.55" font-family="Times,serif" font-size="14.00">enc</text>
</g>
<!-- Gene(1)&#45;&gt;TO(16) -->
<g id="edge34" class="edge">
<title>Gene(1)&#45;&gt;TO(16)</title>
<path fill="none" stroke="black" d="M73.36,-888.87C82.45,-896.69 93.03,-904.15 104.15,-908.75 119.58,-915.12 124.94,-910.52 141.58,-911.75 194.35,-915.64 207.55,-916.46 260.35,-919.75 314.65,-923.13 328.18,-925.05 382.55,-926.75 494.05,-930.25 624.74,-929.89 695.83,-929.32"/>
<polygon fill="black" stroke="black" points="695.9,-932.82 705.87,-929.23 695.84,-925.82 695.9,-932.82"/>
<text text-anchor="middle" x="312.45" y="-928.55" font-family="Times,serif" font-size="14.00">cooc_wi</text>
</g>
<!-- Gene(1)&#45;&gt;Publication(2) -->
<g id="edge33" class="edge">
<title>Gene(1)&#45;&gt;Publication(2)</title>
<path fill="none" stroke="blue" d="M86.04,-863.27C92.11,-863.88 98.28,-864.41 104.15,-864.75 134.99,-866.54 636.12,-884.2 660.12,-864.75 690.12,-840.44 663.98,-815.68 678.12,-779.75 690.43,-748.46 710.68,-715.92 726.3,-693.12"/>
<polygon fill="blue" stroke="blue" points="729.19,-695.09 732.03,-684.88 723.44,-691.09 729.19,-695.09"/>
<text text-anchor="middle" x="312.45" y="-874.55" font-family="Times,serif" font-size="14.00">occ_in</text>
</g>
<!-- Gene(1)&#45;&gt;Phenotype(13) -->
<g id="edge35" class="edge">
<title>Gene(1)&#45;&gt;Phenotype(13)</title>
<path fill="none" stroke="blue" d="M78.94,-882.05C86.89,-886.44 95.55,-890.37 104.15,-892.75 171.06,-911.28 190.93,-894.31 260.35,-894.75 438.04,-895.89 494.92,-955.2 660.12,-889.75 685.66,-879.63 708.58,-858.57 724.66,-840.74"/>
<polygon fill="blue" stroke="blue" points="727.63,-842.66 731.56,-832.82 722.35,-838.07 727.63,-842.66"/>
<text text-anchor="middle" x="312.45" y="-904.55" font-family="Times,serif" font-size="14.00">has_observ_pheno</text>
</g>
<!-- Protein(10) -->
<g id="node16" class="node">
<title>Protein(10)</title>
<ellipse fill="none" stroke="black" cx="191.97" cy="-462.75" rx="50.27" ry="18"/>
<text text-anchor="middle" x="191.97" y="-458.55" font-family="Times,serif" font-size="14.00">Protein(10)</text>
</g>
<!-- Gene(1)&#45;&gt;Protein(10) -->
<g id="edge38" class="edge">
<title>Gene(1)&#45;&gt;Protein(10)</title>
<path fill="none" stroke="black" d="M58.97,-817.7C88.8,-737.48 155.2,-558.92 180.71,-490.32"/>
<polygon fill="black" stroke="black" points="184.1,-491.25 184.31,-480.66 177.54,-488.81 184.1,-491.25"/>
<text text-anchor="middle" x="113.87" y="-697.55" font-family="Times,serif" font-size="14.00">enc</text>
</g>
<!-- SNP(20) -->
<g id="node21" class="node">
<title>SNP(20)</title>
<ellipse fill="none" stroke="black" cx="749.41" cy="-217.75" rx="41.13" ry="18"/>
<text text-anchor="middle" x="749.41" y="-213.55" font-family="Times,serif" font-size="14.00">SNP(20)</text>
</g>
<!-- Gene(1)&#45;&gt;SNP(20) -->
<g id="edge36" class="edge">
<title>Gene(1)&#45;&gt;SNP(20)</title>
<path fill="none" stroke="black" d="M48.48,-814.9C65.55,-657.91 132.84,-117.85 260.35,-12.75 284.06,6.79 535.94,-2.02 537.92,-2.75 604.85,-27.38 622.71,-46.03 660.12,-106.75 677.87,-135.57 657.3,-154.06 678.12,-180.75 685.47,-190.17 695.89,-197.45 706.47,-202.96"/>
<polygon fill="black" stroke="black" points="705.19,-206.23 715.73,-207.36 708.2,-199.91 705.19,-206.23"/>
<text text-anchor="middle" x="312.45" y="-15.55" font-family="Times,serif" font-size="14.00">has_variation</text>
</g>
<!-- Protein(10)&#45;&gt;Protein(7) -->
<g id="edge1" class="edge">
<title>Protein(10)&#45;&gt;Protein(7)</title>
<path fill="none" stroke="black" d="M194.85,-481.1C201,-537.44 222.32,-706.4 260.35,-743.75 294.19,-776.98 325.18,-740.31 364.55,-766.75 376.22,-774.58 371.82,-783.67 382.55,-792.75 390.39,-799.37 399.64,-805.06 408.97,-809.83"/>
<polygon fill="black" stroke="black" points="407.73,-813.12 418.26,-814.29 410.76,-806.81 407.73,-813.12"/>
<text text-anchor="middle" x="312.45" y="-811.55" font-family="Times,serif" font-size="14.00">xref(&lt;=6)</text>
<text text-anchor="middle" x="312.45" y="-797.55" font-family="Times,serif" font-size="14.00">ortho(&lt;=4)</text>
<text text-anchor="middle" x="312.45" y="-783.55" font-family="Times,serif" font-size="14.00">equivalent(&lt;=4)</text>
<text text-anchor="middle" x="312.45" y="-769.55" font-family="Times,serif" font-size="14.00">h_s_s(&lt;=4)</text>
</g>
<!-- Protein(10)&#45;&gt;CelComp(5) -->
<g id="edge2" class="edge">
<title>Protein(10)&#45;&gt;CelComp(5)</title>
<path fill="none" stroke="blue" d="M213.46,-479.24C226.59,-489.55 244.14,-502.89 260.35,-513.75 312.73,-548.83 323.88,-562.71 382.55,-585.75 455.98,-614.58 477.5,-615.26 555.92,-623.75 601.96,-628.74 615.44,-635.93 660.12,-623.75 678.63,-618.7 697.21,-608.68 712.52,-598.77"/>
<polygon fill="blue" stroke="blue" points="714.78,-601.47 721.13,-592.99 710.88,-595.66 714.78,-601.47"/>
<text text-anchor="middle" x="460.24" y="-623.55" font-family="Times,serif" font-size="14.00">located_in</text>
</g>
<!-- Protein(10)&#45;&gt;Gene(8) -->
<g id="edge9" class="edge">
<title>Protein(10)&#45;&gt;Gene(8)</title>
<path fill="none" stroke="black" d="M242.46,-462.47C309.52,-462.44 432.94,-463.67 537.92,-471.75 545.61,-472.34 633.41,-483.73 693.16,-491.52"/>
<polygon fill="black" stroke="black" points="692.85,-495.01 703.22,-492.83 693.76,-488.07 692.85,-495.01"/>
<text text-anchor="middle" x="460.24" y="-474.55" font-family="Times,serif" font-size="14.00">enc</text>
</g>
<!-- Protein(10)&#45;&gt;MolFunc(3) -->
<g id="edge13" class="edge">
<title>Protein(10)&#45;&gt;MolFunc(3)</title>
<path fill="none" stroke="black" d="M197.81,-444.8C206.11,-417.32 225.61,-364.84 260.35,-334.75 273.53,-323.34 538.74,-232.71 555.92,-229.75 601.56,-221.88 616.57,-213.98 660.12,-229.75 669.91,-233.29 669.43,-239.01 678.12,-244.75 685.43,-249.58 693.48,-254.25 701.43,-258.53"/>
<polygon fill="black" stroke="black" points="699.85,-261.65 710.33,-263.18 703.09,-255.45 699.85,-261.65"/>
<text text-anchor="middle" x="460.24" y="-290.55" font-family="Times,serif" font-size="14.00">has_function</text>
</g>
<!-- Protein(10)&#45;&gt;TO(16) -->
<g id="edge15" class="edge">
<title>Protein(10)&#45;&gt;TO(16)</title>
<path fill="none" stroke="black" d="M195.32,-480.93C202.49,-533.65 225.74,-684.97 260.35,-718.75 283.02,-740.87 516.21,-760.68 537.92,-783.75 570.96,-818.87 522.3,-856.17 555.92,-890.75 591.64,-927.49 651.85,-934.18 695.44,-933.44"/>
<polygon fill="black" stroke="black" points="695.69,-936.93 705.58,-933.13 695.48,-929.94 695.69,-936.93"/>
<text text-anchor="middle" x="460.24" y="-786.55" font-family="Times,serif" font-size="14.00">cooc_wi</text>
</g>
<!-- Protein(10)&#45;&gt;Publication(2) -->
<g id="edge5" class="edge">
<title>Protein(10)&#45;&gt;Publication(2)</title>
<path fill="none" stroke="black" d="M202.67,-480.55C214.44,-501.05 235.78,-534.95 260.35,-558.75 306.99,-603.9 320.99,-618.17 382.55,-638.75 477.4,-670.45 593.63,-672.28 669.27,-668.96"/>
<polygon fill="black" stroke="black" points="669.85,-672.44 679.67,-668.47 669.51,-665.45 669.85,-672.44"/>
<text text-anchor="middle" x="460.24" y="-669.55" font-family="Times,serif" font-size="14.00">pub_in</text>
</g>
<!-- Protein(10)&#45;&gt;BioProc(4) -->
<g id="edge8" class="edge">
<title>Protein(10)&#45;&gt;BioProc(4)</title>
<path fill="none" stroke="blue" d="M208.15,-445.6C221.11,-431.61 240.71,-411.92 260.35,-397.75 310.08,-361.88 323.02,-348.4 382.55,-333.75 485.87,-308.33 610.48,-322.14 684.38,-334.74"/>
<polygon fill="blue" stroke="blue" points="684.01,-338.23 694.46,-336.51 685.22,-331.33 684.01,-338.23"/>
<text text-anchor="middle" x="460.24" y="-336.55" font-family="Times,serif" font-size="14.00">participates_in</text>
</g>
<!-- Protein(10)&#45;&gt;Enzyme(177) -->
<g id="edge6" class="edge">
<title>Protein(10)&#45;&gt;Enzyme(177)</title>
<path fill="none" stroke="blue" d="M193.98,-444.46C197.87,-381.08 214.07,-172.27 260.35,-127.75 292.37,-96.96 341.58,-88.84 383.04,-88.48"/>
<polygon fill="blue" stroke="blue" points="383.1,-91.98 393.12,-88.54 383.14,-84.98 383.1,-91.98"/>
<text text-anchor="middle" x="312.45" y="-130.55" font-family="Times,serif" font-size="14.00">is_a</text>
</g>
<!-- Protein(10)&#45;&gt;ProtDomain(14) -->
<g id="edge7" class="edge">
<title>Protein(10)&#45;&gt;ProtDomain(14)</title>
<path fill="none" stroke="black" d="M193.46,-444.46C195.71,-374.58 207.38,-125.69 260.35,-71.75 289.13,-42.45 333.06,-31.98 372.32,-29.25"/>
<polygon fill="black" stroke="black" points="372.66,-32.74 382.46,-28.71 372.28,-25.75 372.66,-32.74"/>
<text text-anchor="middle" x="312.45" y="-74.55" font-family="Times,serif" font-size="14.00">has_domain</text>
</g>
<!-- Protein(10)&#45;&gt;EC(15) -->
<g id="edge10" class="edge">
<title>Protein(10)&#45;&gt;EC(15)</title>
<path fill="none" stroke="blue" d="M192.9,-480.89C193.79,-522.34 202.12,-624.42 260.35,-676.75 271.24,-686.53 351.77,-700.46 406.96,-709.04"/>
<polygon fill="blue" stroke="blue" points="406.54,-712.52 416.95,-710.58 407.6,-705.6 406.54,-712.52"/>
<text text-anchor="middle" x="312.45" y="-703.55" font-family="Times,serif" font-size="14.00">cat_c</text>
</g>
<!-- Protein(10)&#45;&gt;Protein(10) -->
<g id="edge4" class="edge">
<title>Protein(10)&#45;&gt;Protein(10)</title>
<path fill="none" stroke="blue" d="M178.04,-480.16C175.44,-489.84 180.08,-498.75 191.97,-498.75 199.39,-498.75 203.99,-495.27 205.76,-490.29"/>
<polygon fill="blue" stroke="blue" points="209.26,-490.2 205.89,-480.16 202.26,-490.11 209.26,-490.2"/>
<text text-anchor="middle" x="191.97" y="-543.55" font-family="Times,serif" font-size="14.00">xref(&lt;=6)</text>
<text text-anchor="middle" x="191.97" y="-529.55" font-family="Times,serif" font-size="14.00">h_s_s(&lt;=4)</text>
<text text-anchor="middle" x="191.97" y="-515.55" font-family="Times,serif" font-size="14.00">equivalent(&lt;=4)</text>
<text text-anchor="middle" x="191.97" y="-501.55" font-family="Times,serif" font-size="14.00">ortho(&lt;=4)</text>
</g>
<!-- Gene(9) -->
<g id="node17" class="node">
<title>Gene(9)</title>
<ellipse fill="none" stroke="black" cx="460.24" cy="-512.75" rx="39.15" ry="18"/>
<text text-anchor="middle" x="460.24" y="-508.55" font-family="Times,serif" font-size="14.00">Gene(9)</text>
</g>
<!-- Protein(10)&#45;&gt;Gene(9) -->
<g id="edge3" class="edge">
<title>Protein(10)&#45;&gt;Gene(9)</title>
<path fill="none" stroke="black" d="M235.71,-471.8C243.88,-473.49 252.38,-475.2 260.35,-476.75 312.64,-486.91 372.84,-497.68 413.19,-504.76"/>
<polygon fill="black" stroke="black" points="412.8,-508.25 423.25,-506.52 414.01,-501.35 412.8,-508.25"/>
<text text-anchor="middle" x="312.45" y="-498.55" font-family="Times,serif" font-size="14.00">enc</text>
</g>
<!-- ProtDomain(11) -->
<g id="node18" class="node">
<title>ProtDomain(11)</title>
<ellipse fill="none" stroke="black" cx="460.24" cy="-374.75" rx="68" ry="18"/>
<text text-anchor="middle" x="460.24" y="-370.55" font-family="Times,serif" font-size="14.00">ProtDomain(11)</text>
</g>
<!-- Protein(10)&#45;&gt;ProtDomain(11) -->
<g id="edge11" class="edge">
<title>Protein(10)&#45;&gt;ProtDomain(11)</title>
<path fill="none" stroke="black" d="M224.59,-448.84C235.79,-444.12 248.54,-438.97 260.35,-434.75 307.63,-417.85 362.29,-401.59 402.34,-390.27"/>
<polygon fill="black" stroke="black" points="403.51,-393.57 412.19,-387.5 401.61,-386.83 403.51,-393.57"/>
<text text-anchor="middle" x="312.45" y="-437.55" font-family="Times,serif" font-size="14.00">has_domain</text>
</g>
<!-- Enzyme(17) -->
<g id="node19" class="node">
<title>Enzyme(17)</title>
<ellipse fill="none" stroke="black" cx="460.24" cy="-153.75" rx="53.63" ry="18"/>
<text text-anchor="middle" x="460.24" y="-149.55" font-family="Times,serif" font-size="14.00">Enzyme(17)</text>
</g>
<!-- Protein(10)&#45;&gt;Enzyme(17) -->
<g id="edge12" class="edge">
<title>Protein(10)&#45;&gt;Enzyme(17)</title>
<path fill="none" stroke="blue" d="M194.69,-444.67C200.42,-388.35 220.81,-217.68 260.35,-181.75 297.82,-147.7 356.76,-143.27 400.77,-145.81"/>
<polygon fill="blue" stroke="blue" points="400.54,-149.3 410.76,-146.52 401.03,-142.32 400.54,-149.3"/>
<text text-anchor="middle" x="312.45" y="-184.55" font-family="Times,serif" font-size="14.00">is_a</text>
</g>
<!-- EC(12) -->
<g id="node20" class="node">
<title>EC(12)</title>
<ellipse fill="none" stroke="black" cx="460.24" cy="-207.75" rx="36.28" ry="18"/>
<text text-anchor="middle" x="460.24" y="-203.55" font-family="Times,serif" font-size="14.00">EC(12)</text>
</g>
<!-- Protein(10)&#45;&gt;EC(12) -->
<g id="edge14" class="edge">
<title>Protein(10)&#45;&gt;EC(12)</title>
<path fill="none" stroke="blue" d="M192.22,-444.72C191.48,-400.93 196.25,-288.55 260.35,-233.75 303.11,-197.2 371.11,-196.42 415.46,-200.83"/>
<polygon fill="blue" stroke="blue" points="415.31,-204.33 425.64,-201.97 416.1,-197.38 415.31,-204.33"/>
<text text-anchor="middle" x="312.45" y="-236.55" font-family="Times,serif" font-size="14.00">cat_c</text>
</g>
<!-- Gene(9)&#45;&gt;CelComp(5) -->
<g id="edge23" class="edge">
<title>Gene(9)&#45;&gt;CelComp(5)</title>
<path fill="none" stroke="black" d="M493,-522.78C511.27,-528.3 534.74,-534.99 555.92,-539.75 595.49,-548.65 640.16,-556.23 676.5,-561.77"/>
<polygon fill="black" stroke="black" points="676.11,-565.25 686.52,-563.28 677.15,-558.33 676.11,-565.25"/>
<text text-anchor="middle" x="608.02" y="-560.55" font-family="Times,serif" font-size="14.00">located_in</text>
</g>
<!-- Gene(9)&#45;&gt;Gene(8) -->
<g id="edge17" class="edge">
<title>Gene(9)&#45;&gt;Gene(8)</title>
<path fill="none" stroke="black" d="M499.37,-510.89C548.92,-508.47 635.82,-504.24 692.75,-501.46"/>
<polygon fill="black" stroke="black" points="693.2,-504.95 703.01,-500.96 692.85,-497.95 693.2,-504.95"/>
<text text-anchor="middle" x="608.02" y="-524.55" font-family="Times,serif" font-size="14.00">genetic(&lt;=8)</text>
<text text-anchor="middle" x="608.02" y="-510.55" font-family="Times,serif" font-size="14.00">physical(&lt;=8)</text>
</g>
<!-- Gene(9)&#45;&gt;MolFunc(3) -->
<g id="edge18" class="edge">
<title>Gene(9)&#45;&gt;MolFunc(3)</title>
<path fill="none" stroke="blue" d="M496.12,-505.33C510.85,-500.57 527.06,-492.91 537.92,-480.75 557.03,-459.35 534.62,-437.98 555.92,-418.75 590.86,-387.21 626.28,-432.48 660.12,-399.75 687.25,-373.51 655.11,-346.67 678.12,-316.75 682.66,-310.85 688.43,-305.83 694.72,-301.58"/>
<polygon fill="blue" stroke="blue" points="696.78,-304.43 703.54,-296.27 693.17,-298.43 696.78,-304.43"/>
<text text-anchor="middle" x="608.02" y="-421.55" font-family="Times,serif" font-size="14.00">has_function</text>
</g>
<!-- Gene(9)&#45;&gt;TO(16) -->
<g id="edge19" class="edge">
<title>Gene(9)&#45;&gt;TO(16)</title>
<path fill="none" stroke="black" d="M482.48,-527.7C500.57,-541.74 525.54,-564.46 537.92,-590.75 571.03,-661.09 519.73,-695.94 555.92,-764.75 590.59,-830.69 663.87,-881.27 709.35,-907.88"/>
<polygon fill="black" stroke="black" points="707.64,-910.93 718.05,-912.88 711.12,-904.86 707.64,-910.93"/>
<text text-anchor="middle" x="608.02" y="-875.55" font-family="Times,serif" font-size="14.00">cooc_wi</text>
</g>
<!-- Gene(9)&#45;&gt;Publication(2) -->
<g id="edge20" class="edge">
<title>Gene(9)&#45;&gt;Publication(2)</title>
<path fill="none" stroke="blue" d="M482.05,-528.03C500.83,-541.47 529.49,-561.11 555.92,-575.75 601.46,-600.98 655.69,-624.98 694.97,-641.36"/>
<polygon fill="blue" stroke="blue" points="694.04,-644.76 704.62,-645.35 696.72,-638.29 694.04,-644.76"/>
<text text-anchor="middle" x="608.02" y="-628.55" font-family="Times,serif" font-size="14.00">pub_in</text>
</g>
<!-- Gene(9)&#45;&gt;Phenotype(13) -->
<g id="edge22" class="edge">
<title>Gene(9)&#45;&gt;Phenotype(13)</title>
<path fill="none" stroke="blue" d="M480.75,-528.17C497.94,-542.68 522.58,-565.85 537.92,-590.75 550.97,-611.93 542.04,-623.1 555.92,-643.75 596.29,-703.82 663.68,-755.31 707.06,-784.66"/>
<polygon fill="blue" stroke="blue" points="705.14,-787.59 715.4,-790.23 709.03,-781.77 705.14,-787.59"/>
<text text-anchor="middle" x="608.02" y="-749.55" font-family="Times,serif" font-size="14.00">has_observ_pheno</text>
</g>
<!-- Gene(9)&#45;&gt;BioProc(4) -->
<g id="edge24" class="edge">
<title>Gene(9)&#45;&gt;BioProc(4)</title>
<path fill="none" stroke="blue" d="M492.82,-502.5C541.35,-486.45 631.62,-455.31 660.12,-436.75 684.85,-420.64 708.16,-396.62 724.61,-377.59"/>
<polygon fill="blue" stroke="blue" points="727.44,-379.68 731.23,-369.78 722.1,-375.15 727.44,-379.68"/>
<text text-anchor="middle" x="608.02" y="-482.55" font-family="Times,serif" font-size="14.00">participates_in</text>
</g>
<!-- Gene(9)&#45;&gt;Gene(9) -->
<g id="edge16" class="edge">
<title>Gene(9)&#45;&gt;Gene(9)</title>
<path fill="none" stroke="blue" d="M436.1,-527.17C427.67,-537.92 435.71,-548.75 460.24,-548.75 477.1,-548.75 486.17,-543.63 487.45,-536.94"/>
<polygon fill="blue" stroke="blue" points="490.72,-535.65 484.38,-527.17 484.04,-537.76 490.72,-535.65"/>
<text text-anchor="middle" x="460.24" y="-565.55" font-family="Times,serif" font-size="14.00">physical(&lt;=8)</text>
<text text-anchor="middle" x="460.24" y="-551.55" font-family="Times,serif" font-size="14.00">genetic(&lt;=8)</text>
</g>
<!-- Gene(9)&#45;&gt;SNP(20) -->
<g id="edge21" class="edge">
<title>Gene(9)&#45;&gt;SNP(20)</title>
<path fill="none" stroke="black" d="M496.87,-506.38C511.93,-501.81 528.2,-494.01 537.92,-480.75 564.42,-444.58 527.92,-314.78 555.92,-279.75 589.88,-237.26 653.24,-223.49 697.97,-219.24"/>
<polygon fill="black" stroke="black" points="698.39,-222.72 708.07,-218.41 697.81,-215.74 698.39,-222.72"/>
<text text-anchor="middle" x="608.02" y="-282.55" font-family="Times,serif" font-size="14.00">has_variation</text>
</g>
<!-- ProtDomain(11)&#45;&gt;CelComp(5) -->
<g id="edge26" class="edge">
<title>ProtDomain(11)&#45;&gt;CelComp(5)</title>
<path fill="none" stroke="black" d="M525.54,-369.74C576.13,-367.32 641.16,-368.06 660.12,-385.75 683.7,-407.75 660.49,-502.74 678.12,-529.75 683.2,-537.53 690.26,-544.08 697.97,-549.51"/>
<polygon fill="black" stroke="black" points="696.22,-552.54 706.53,-554.98 699.99,-546.64 696.22,-552.54"/>
<text text-anchor="middle" x="608.02" y="-388.55" font-family="Times,serif" font-size="14.00">located_in</text>
</g>
<!-- ProtDomain(11)&#45;&gt;MolFunc(3) -->
<g id="edge28" class="edge">
<title>ProtDomain(11)&#45;&gt;MolFunc(3)</title>
<path fill="none" stroke="black" d="M488.58,-358.29C507.06,-347.75 532.3,-334.47 555.92,-325.75 595.21,-311.25 640.78,-300.35 677.72,-292.91"/>
<polygon fill="black" stroke="black" points="678.76,-296.27 687.89,-290.9 677.4,-289.4 678.76,-296.27"/>
<text text-anchor="middle" x="608.02" y="-328.55" font-family="Times,serif" font-size="14.00">has_function</text>
</g>
<!-- ProtDomain(11)&#45;&gt;BioProc(4) -->
<g id="edge27" class="edge">
<title>ProtDomain(11)&#45;&gt;BioProc(4)</title>
<path fill="none" stroke="blue" d="M503.16,-360.69C519.43,-355.91 538.35,-351.16 555.92,-348.75 597.38,-343.05 644.34,-342.69 681.5,-343.8"/>
<polygon fill="blue" stroke="blue" points="681.59,-347.31 691.7,-344.16 681.83,-340.31 681.59,-347.31"/>
<text text-anchor="middle" x="608.02" y="-351.55" font-family="Times,serif" font-size="14.00">participates_in</text>
</g>
<!-- Enzyme(17)&#45;&gt;Reaction(188) -->
<g id="edge29" class="edge">
<title>Enzyme(17)&#45;&gt;Reaction(188)</title>
<path fill="none" stroke="black" d="M513.81,-151.84C527.52,-151.41 542.27,-151 555.92,-150.75 593.17,-150.06 634.49,-149.78 669.26,-149.69"/>
<polygon fill="black" stroke="black" points="669.37,-153.19 679.36,-149.67 669.35,-146.19 669.37,-153.19"/>
<text text-anchor="middle" x="608.02" y="-153.55" font-family="Times,serif" font-size="14.00">ca_by</text>
</g>
<!-- Reaction(18) -->
<g id="node22" class="node">
<title>Reaction(18)</title>
<ellipse fill="none" stroke="black" cx="749.41" cy="-91.75" rx="56.04" ry="18"/>
<text text-anchor="middle" x="749.41" y="-87.55" font-family="Times,serif" font-size="14.00">Reaction(18)</text>
</g>
<!-- Enzyme(17)&#45;&gt;Reaction(18) -->
<g id="edge30" class="edge">
<title>Enzyme(17)&#45;&gt;Reaction(18)</title>
<path fill="none" stroke="blue" d="M504.55,-143.46C520.66,-139.69 539.11,-135.45 555.92,-131.75 601.36,-121.75 652.99,-111.06 691.33,-103.25"/>
<polygon fill="blue" stroke="blue" points="692.18,-106.65 701.28,-101.22 690.78,-99.79 692.18,-106.65"/>
<text text-anchor="middle" x="608.02" y="-134.55" font-family="Times,serif" font-size="14.00">ca_by</text>
</g>
<!-- EC(12)&#45;&gt;MolFunc(3) -->
<g id="edge32" class="edge">
<title>EC(12)&#45;&gt;MolFunc(3)</title>
<path fill="none" stroke="black" d="M492.67,-199.61C541.89,-187.67 634.23,-168.77 660.12,-187.75 681.55,-203.45 660.97,-224.46 678.12,-244.75 682.99,-250.51 689.01,-255.46 695.46,-259.67"/>
<polygon fill="black" stroke="black" points="694.07,-262.92 704.46,-264.98 697.62,-256.89 694.07,-262.92"/>
<text text-anchor="middle" x="608.02" y="-190.55" font-family="Times,serif" font-size="14.00">equ</text>
</g>
<!-- SNP(20)&#45;&gt;Trait(21) -->
<g id="edge25" class="edge">
<title>SNP(20)&#45;&gt;Trait(21)</title>
<path fill="none" stroke="blue" d="M790.69,-217.75C830.22,-217.75 890.96,-217.75 935.81,-217.75"/>
<polygon fill="blue" stroke="blue" points="935.98,-221.25 945.98,-217.75 935.98,-214.25 935.98,-221.25"/>
<text text-anchor="middle" x="883.42" y="-220.55" font-family="Times,serif" font-size="14.00">associated_with</text>
</g>
<!-- Reaction(18)&#45;&gt;Path(19) -->
<g id="edge31" class="edge">
<title>Reaction(18)&#45;&gt;Path(19)</title>
<path fill="none" stroke="blue" d="M805.75,-91.75C845.05,-91.75 897.67,-91.75 937.33,-91.75"/>
<polygon fill="blue" stroke="blue" points="937.38,-95.25 947.38,-91.75 937.38,-88.25 937.38,-95.25"/>
<text text-anchor="middle" x="883.42" y="-94.55" font-family="Times,serif" font-size="14.00">part_of</text>
</g>
</g>
</svg>
