<svg width="1039pt" height="921pt"
 viewBox="0.00 0.00 1038.67 921.08" xmlns="http://www.w3.org/2000/svg" xmlns:xlink="http://www.w3.org/1999/xlink">
<g id="graph0" class="graph" transform="scale(1 1) rotate(0) translate(4 917.08)">
<title>%3</title>
<polygon fill="white" stroke="transparent" points="-4,4 -4,-917.08 1034.67,-917.08 1034.67,4 -4,4"/>
<!-- CelComp(5) -->
<g id="node1" class="node">
<title>CelComp(5)</title>
<polygon fill="none" stroke="darkgreen" points="794.24,-524.62 794.24,-539.53 759.91,-550.08 711.37,-550.08 677.04,-539.53 677.04,-524.62 711.37,-514.08 759.91,-514.08 794.24,-524.62"/>
<polygon fill="none" stroke="darkgreen" points="798.23,-521.66 798.23,-542.49 760.51,-554.08 710.77,-554.08 673.05,-542.49 673.05,-521.66 710.77,-510.08 760.51,-510.08 798.23,-521.66"/>
<text text-anchor="middle" x="735.64" y="-527.88" font-family="Times,serif" font-size="14.00">CelComp(5)</text>
</g>
<!-- Reaction(188) -->
<g id="node2" class="node">
<title>Reaction(188)</title>
<polygon fill="none" stroke="darkgreen" points="801.52,-801.62 801.52,-816.53 762.93,-827.08 708.35,-827.08 669.76,-816.53 669.76,-801.62 708.35,-791.08 762.93,-791.08 801.52,-801.62"/>
<polygon fill="none" stroke="darkgreen" points="805.53,-798.57 805.53,-819.58 763.47,-831.08 707.81,-831.08 665.75,-819.58 665.75,-798.57 707.81,-787.08 763.47,-787.08 805.53,-798.57"/>
<text text-anchor="middle" x="735.64" y="-804.88" font-family="Times,serif" font-size="14.00">Reaction(188)</text>
</g>
<!-- Path(19) -->
<g id="node3" class="node">
<title>Path(19)</title>
<polygon fill="none" stroke="darkgreen" points="1025.33,-743.62 1025.33,-758.53 999.66,-769.08 963.37,-769.08 937.7,-758.53 937.7,-743.62 963.37,-733.08 999.66,-733.08 1025.33,-743.62"/>
<polygon fill="none" stroke="darkgreen" points="1029.32,-740.94 1029.32,-761.22 1000.45,-773.08 962.58,-773.08 933.71,-761.22 933.71,-740.94 962.58,-729.08 1000.45,-729.08 1029.32,-740.94"/>
<text text-anchor="middle" x="981.52" y="-746.88" font-family="Times,serif" font-size="14.00">Path(19)</text>
</g>
<!-- TO(16) -->
<g id="node4" class="node">
<title>TO(16)</title>
<polygon fill="none" stroke="darkgreen" points="775.1,-284.62 775.1,-299.53 751.98,-310.08 719.3,-310.08 696.18,-299.53 696.18,-284.62 719.3,-274.08 751.98,-274.08 775.1,-284.62"/>
<polygon fill="none" stroke="darkgreen" points="779.1,-282.05 779.1,-302.11 752.85,-314.08 718.43,-314.08 692.18,-302.11 692.18,-282.05 718.43,-270.08 752.85,-270.08 779.1,-282.05"/>
<text text-anchor="middle" x="735.64" y="-287.88" font-family="Times,serif" font-size="14.00">TO(16)</text>
</g>
<!-- MolFunc(3) -->
<g id="node5" class="node">
<title>MolFunc(3)</title>
<polygon fill="none" stroke="darkgreen" points="793.03,-675.62 793.03,-690.53 759.41,-701.08 711.87,-701.08 678.25,-690.53 678.25,-675.62 711.87,-665.08 759.41,-665.08 793.03,-675.62"/>
<polygon fill="none" stroke="darkgreen" points="797.04,-672.69 797.04,-693.47 760.03,-705.08 711.25,-705.08 674.24,-693.47 674.24,-672.69 711.25,-661.08 760.03,-661.08 797.04,-672.69"/>
<text text-anchor="middle" x="735.64" y="-678.88" font-family="Times,serif" font-size="14.00">MolFunc(3)</text>
</g>
<!-- BioProc(4) -->
<g id="node6" class="node">
<title>BioProc(4)</title>
<polygon fill="none" stroke="darkgreen" points="789.09,-462.62 789.09,-477.53 757.78,-488.08 713.5,-488.08 682.19,-477.53 682.19,-462.62 713.5,-452.08 757.78,-452.08 789.09,-462.62"/>
<polygon fill="none" stroke="darkgreen" points="793.09,-459.75 793.09,-480.41 758.44,-492.08 712.84,-492.08 678.19,-480.41 678.19,-459.75 712.84,-448.08 758.44,-448.08 793.09,-459.75"/>
<text text-anchor="middle" x="735.64" y="-465.88" font-family="Times,serif" font-size="14.00">BioProc(4)</text>
</g>
<!-- ProtDomain(14) -->
<g id="node7" class="node">
<title>ProtDomain(14)</title>
<polygon fill="none" stroke="darkgreen" points="520.32,-102.62 520.32,-117.53 477.05,-128.08 415.87,-128.08 372.61,-117.53 372.61,-102.62 415.87,-92.08 477.05,-92.08 520.32,-102.62"/>
<polygon fill="none" stroke="darkgreen" points="524.32,-99.48 524.32,-120.67 477.54,-132.08 415.39,-132.08 368.6,-120.67 368.6,-99.48 415.39,-88.08 477.54,-88.08 524.32,-99.48"/>
<text text-anchor="middle" x="446.46" y="-105.88" font-family="Times,serif" font-size="14.00">ProtDomain(14)</text>
</g>
<!-- Trait(21) -->
<g id="node8" class="node">
<title>Trait(21)</title>
<polygon fill="none" stroke="darkgreen" points="1026.82,-342.62 1026.82,-357.53 1000.28,-368.08 962.75,-368.08 936.21,-357.53 936.21,-342.62 962.75,-332.08 1000.28,-332.08 1026.82,-342.62"/>
<polygon fill="none" stroke="darkgreen" points="1030.83,-339.91 1030.83,-360.24 1001.05,-372.08 961.98,-372.08 932.2,-360.24 932.2,-339.91 961.98,-328.08 1001.05,-328.08 1030.83,-339.91"/>
<text text-anchor="middle" x="981.52" y="-345.88" font-family="Times,serif" font-size="14.00">Trait(21)</text>
</g>
<!-- Gene(8) -->
<g id="node9" class="node">
<title>Gene(8)</title>
<polygon fill="none" stroke="darkgreen" points="777.75,-222.62 777.75,-237.53 753.08,-248.08 718.2,-248.08 693.53,-237.53 693.53,-222.62 718.2,-212.08 753.08,-212.08 777.75,-222.62"/>
<polygon fill="none" stroke="darkgreen" points="781.73,-219.98 781.73,-240.18 753.9,-252.08 717.38,-252.08 689.55,-240.18 689.55,-219.98 717.38,-208.08 753.9,-208.08 781.73,-219.98"/>
<text text-anchor="middle" x="735.64" y="-225.88" font-family="Times,serif" font-size="14.00">Gene(8)</text>
</g>
<!-- Publication(2) -->
<g id="node10" class="node">
<title>Publication(2)</title>
<polygon fill="none" stroke="darkgreen" points="801.54,-160.62 801.54,-175.53 762.93,-186.08 708.35,-186.08 669.74,-175.53 669.74,-160.62 708.35,-150.08 762.93,-150.08 801.54,-160.62"/>
<polygon fill="none" stroke="darkgreen" points="805.55,-157.57 805.55,-178.58 763.47,-190.08 707.81,-190.08 665.73,-178.58 665.73,-157.57 707.81,-146.08 763.47,-146.08 805.55,-157.57"/>
<text text-anchor="middle" x="735.64" y="-163.88" font-family="Times,serif" font-size="14.00">Publication(2)</text>
</g>
<!-- EC(15) -->
<g id="node11" class="node">
<title>EC(15)</title>
<polygon fill="none" stroke="darkgreen" points="485.69,-883.62 485.69,-898.53 462.71,-909.08 430.21,-909.08 407.24,-898.53 407.24,-883.62 430.21,-873.08 462.71,-873.08 485.69,-883.62"/>
<polygon fill="none" stroke="darkgreen" points="489.7,-881.06 489.7,-901.1 463.59,-913.08 429.33,-913.08 403.22,-901.1 403.22,-881.06 429.33,-869.08 463.59,-869.08 489.7,-881.06"/>
<text text-anchor="middle" x="446.46" y="-886.88" font-family="Times,serif" font-size="14.00">EC(15)</text>
</g>
<!-- Protein(7) -->
<g id="node12" class="node">
<title>Protein(7)</title>
<polygon fill="none" stroke="darkgreen" points="495.98,-30.62 495.98,-45.53 466.97,-56.08 425.95,-56.08 396.94,-45.53 396.94,-30.62 425.95,-20.08 466.97,-20.08 495.98,-30.62"/>
<polygon fill="none" stroke="darkgreen" points="499.97,-27.81 499.97,-48.34 467.67,-60.08 425.25,-60.08 392.96,-48.34 392.96,-27.81 425.25,-16.08 467.67,-16.08 499.97,-27.81"/>
<text text-anchor="middle" x="446.46" y="-33.88" font-family="Times,serif" font-size="14.00">Protein(7)</text>
</g>
<!-- Phenotype(13) -->
<g id="node13" class="node">
<title>Phenotype(13)</title>
<polygon fill="none" stroke="darkgreen" points="802.75,-400.62 802.75,-415.53 763.44,-426.08 707.84,-426.08 668.53,-415.53 668.53,-400.62 707.84,-390.08 763.44,-390.08 802.75,-400.62"/>
<polygon fill="none" stroke="darkgreen" points="806.74,-397.55 806.74,-418.6 763.96,-430.08 707.32,-430.08 664.55,-418.6 664.55,-397.55 707.32,-386.08 763.96,-386.08 806.74,-397.55"/>
<text text-anchor="middle" x="735.64" y="-403.88" font-family="Times,serif" font-size="14.00">Phenotype(13)</text>
</g>
<!-- Enzyme(177) -->
<g id="node14" class="node">
<title>Enzyme(177)</title>
<polygon fill="none" stroke="darkgreen" points="509.53,-821.62 509.53,-836.53 472.58,-847.08 420.34,-847.08 383.39,-836.53 383.39,-821.62 420.34,-811.08 472.58,-811.08 509.53,-821.62"/>
<polygon fill="none" stroke="darkgreen" points="513.53,-818.6 513.53,-839.55 473.14,-851.08 419.78,-851.08 379.39,-839.55 379.39,-818.6 419.78,-807.08 473.14,-807.08 513.53,-818.6"/>
<text text-anchor="middle" x="446.46" y="-824.88" font-family="Times,serif" font-size="14.00">Enzyme(177)</text>
</g>
<!-- Gene(1) -->
<g id="node15" class="node">
<title>Gene(1)</title>
<ellipse fill="none" stroke="red" cx="43.08" cy="-43.08" rx="39.15" ry="39.15"/>
<ellipse fill="none" stroke="red" cx="43.08" cy="-43.08" rx="43.15" ry="43.15"/>
<text text-anchor="middle" x="43.08" y="-38.88" font-family="Times,serif" font-size="14.00">Gene(1)</text>
</g>
<!-- Gene(1)&#45;&gt;Protein(7) -->
<g id="edge33" class="edge">
<title>Gene(1)&#45;&gt;Protein(7)</title>
<path fill="none" stroke="black" d="M86.27,-42.55C157.09,-41.67 300.18,-39.89 382.79,-38.86"/>
<polygon fill="black" stroke="black" points="382.84,-42.36 392.8,-38.73 382.76,-35.36 382.84,-42.36"/>
<text text-anchor="middle" x="191.97" y="-44.88" font-family="Times,serif" font-size="14.00">enc</text>
</g>
<!-- Protein(10) -->
<g id="node20" class="node">
<title>Protein(10)</title>
<ellipse fill="none" stroke="black" cx="191.97" cy="-485.08" rx="50.27" ry="18"/>
<text text-anchor="middle" x="191.97" y="-480.88" font-family="Times,serif" font-size="14.00">Protein(10)</text>
</g>
<!-- Gene(1)&#45;&gt;Protein(10) -->
<g id="edge32" class="edge">
<title>Gene(1)&#45;&gt;Protein(10)</title>
<path fill="none" stroke="blue" d="M57.63,-83.87C87.14,-172.66 156.55,-381.52 181.68,-457.13"/>
<polygon fill="blue" stroke="blue" points="178.45,-458.51 184.92,-466.89 185.09,-456.3 178.45,-458.51"/>
<text text-anchor="middle" x="113.87" y="-280.88" font-family="Times,serif" font-size="14.00">enc</text>
</g>
<!-- Enzyme(17) -->
<g id="node16" class="node">
<title>Enzyme(17)</title>
<ellipse fill="none" stroke="black" cx="446.46" cy="-771.08" rx="53.63" ry="18"/>
<text text-anchor="middle" x="446.46" y="-766.88" font-family="Times,serif" font-size="14.00">Enzyme(17)</text>
</g>
<!-- Enzyme(17)&#45;&gt;Reaction(188) -->
<g id="edge1" class="edge">
<title>Enzyme(17)&#45;&gt;Reaction(188)</title>
<path fill="none" stroke="blue" d="M496.83,-777.61C540.5,-783.39 605,-791.92 655.81,-798.65"/>
<polygon fill="blue" stroke="blue" points="655.41,-802.12 665.78,-799.97 656.33,-795.18 655.41,-802.12"/>
<text text-anchor="middle" x="594.24" y="-798.88" font-family="Times,serif" font-size="14.00">ca_by</text>
</g>
<!-- Reaction(18) -->
<g id="node17" class="node">
<title>Reaction(18)</title>
<ellipse fill="none" stroke="black" cx="735.64" cy="-751.08" rx="56.04" ry="18"/>
<text text-anchor="middle" x="735.64" y="-746.88" font-family="Times,serif" font-size="14.00">Reaction(18)</text>
</g>
<!-- Enzyme(17)&#45;&gt;Reaction(18) -->
<g id="edge2" class="edge">
<title>Enzyme(17)&#45;&gt;Reaction(18)</title>
<path fill="none" stroke="black" d="M499.47,-767.46C547.5,-764.11 619.01,-759.13 670.55,-755.54"/>
<polygon fill="black" stroke="black" points="670.85,-759.03 680.58,-754.84 670.36,-752.04 670.85,-759.03"/>
<text text-anchor="middle" x="594.24" y="-765.88" font-family="Times,serif" font-size="14.00">ca_by</text>
</g>
<!-- Reaction(18)&#45;&gt;Path(19) -->
<g id="edge3" class="edge">
<title>Reaction(18)&#45;&gt;Path(19)</title>
<path fill="none" stroke="black" d="M791.98,-751.08C831.28,-751.08 883.9,-751.08 923.56,-751.08"/>
<polygon fill="black" stroke="black" points="923.6,-754.58 933.6,-751.08 923.6,-747.58 923.6,-754.58"/>
<text text-anchor="middle" x="869.65" y="-753.88" font-family="Times,serif" font-size="14.00">part_of</text>
</g>
<!-- ProtDomain(11) -->
<g id="node18" class="node">
<title>ProtDomain(11)</title>
<ellipse fill="none" stroke="black" cx="446.46" cy="-596.08" rx="68" ry="18"/>
<text text-anchor="middle" x="446.46" y="-591.88" font-family="Times,serif" font-size="14.00">ProtDomain(11)</text>
</g>
<!-- ProtDomain(11)&#45;&gt;CelComp(5) -->
<g id="edge6" class="edge">
<title>ProtDomain(11)&#45;&gt;CelComp(5)</title>
<path fill="none" stroke="blue" d="M500.08,-607.21C541.08,-613.59 598.83,-617.44 646.34,-601.08 669.42,-593.13 691.09,-576.4 707.18,-561.4"/>
<polygon fill="blue" stroke="blue" points="709.85,-563.69 714.62,-554.22 704.99,-558.65 709.85,-563.69"/>
<text text-anchor="middle" x="594.24" y="-614.88" font-family="Times,serif" font-size="14.00">located_in</text>
</g>
<!-- ProtDomain(11)&#45;&gt;MolFunc(3) -->
<g id="edge4" class="edge">
<title>ProtDomain(11)&#45;&gt;MolFunc(3)</title>
<path fill="none" stroke="blue" d="M486.39,-610.81C503.41,-617.05 523.66,-624.22 542.14,-630.08 585.52,-643.82 635.03,-657.4 672.97,-667.38"/>
<polygon fill="blue" stroke="blue" points="672.29,-670.82 682.85,-669.96 674.07,-664.04 672.29,-670.82"/>
<text text-anchor="middle" x="594.24" y="-660.88" font-family="Times,serif" font-size="14.00">has_function</text>
</g>
<!-- ProtDomain(11)&#45;&gt;BioProc(4) -->
<g id="edge5" class="edge">
<title>ProtDomain(11)&#45;&gt;BioProc(4)</title>
<path fill="none" stroke="black" d="M479.24,-580.07C497.51,-571 520.98,-559.61 542.14,-550.08 590.21,-528.43 645.9,-505.52 684.97,-489.79"/>
<polygon fill="black" stroke="black" points="686.56,-492.93 694.53,-485.95 683.95,-486.43 686.56,-492.93"/>
<text text-anchor="middle" x="594.24" y="-552.88" font-family="Times,serif" font-size="14.00">participates_in</text>
</g>
<!-- EC(12) -->
<g id="node19" class="node">
<title>EC(12)</title>
<ellipse fill="none" stroke="black" cx="446.46" cy="-717.08" rx="36.28" ry="18"/>
<text text-anchor="middle" x="446.46" y="-712.88" font-family="Times,serif" font-size="14.00">EC(12)</text>
</g>
<!-- EC(12)&#45;&gt;MolFunc(3) -->
<g id="edge7" class="edge">
<title>EC(12)&#45;&gt;MolFunc(3)</title>
<path fill="none" stroke="blue" d="M482.43,-715.2C522.25,-712.81 589.19,-708 646.34,-700.08 653.47,-699.09 660.88,-697.91 668.26,-696.63"/>
<polygon fill="blue" stroke="blue" points="669.03,-700.05 678.26,-694.84 667.8,-693.16 669.03,-700.05"/>
<text text-anchor="middle" x="594.24" y="-712.88" font-family="Times,serif" font-size="14.00">equ</text>
</g>
<!-- Protein(10)&#45;&gt;CelComp(5) -->
<g id="edge21" class="edge">
<title>Protein(10)&#45;&gt;CelComp(5)</title>
<path fill="none" stroke="blue" d="M240.45,-490.13C247.13,-490.8 253.91,-491.47 260.35,-492.08 402.89,-505.49 569.73,-519.07 662.7,-526.45"/>
<polygon fill="blue" stroke="blue" points="662.59,-529.95 672.83,-527.25 663.14,-522.97 662.59,-529.95"/>
<text text-anchor="middle" x="446.46" y="-516.88" font-family="Times,serif" font-size="14.00">located_in</text>
</g>
<!-- Protein(10)&#45;&gt;MolFunc(3) -->
<g id="edge15" class="edge">
<title>Protein(10)&#45;&gt;MolFunc(3)</title>
<path fill="none" stroke="blue" d="M200.84,-502.98C211.38,-525.01 232.09,-562.17 260.35,-584.08 291.14,-607.93 524.73,-672.15 542.14,-675.08 582.24,-681.82 627.67,-683.96 664.32,-684.35"/>
<polygon fill="blue" stroke="blue" points="664.39,-687.85 674.41,-684.42 664.43,-680.85 664.39,-687.85"/>
<text text-anchor="middle" x="446.46" y="-672.88" font-family="Times,serif" font-size="14.00">has_function</text>
</g>
<!-- Protein(10)&#45;&gt;BioProc(4) -->
<g id="edge12" class="edge">
<title>Protein(10)&#45;&gt;BioProc(4)</title>
<path fill="none" stroke="black" d="M241.81,-481.95C309.3,-477.8 434.9,-470.69 542.14,-468.08 588.44,-466.95 600.03,-467.55 646.34,-468.08 653.33,-468.16 660.62,-468.27 667.89,-468.4"/>
<polygon fill="black" stroke="black" points="668.05,-471.91 678.12,-468.61 668.19,-464.91 668.05,-471.91"/>
<text text-anchor="middle" x="446.46" y="-476.88" font-family="Times,serif" font-size="14.00">participates_in</text>
</g>
<!-- Protein(10)&#45;&gt;ProtDomain(14) -->
<g id="edge9" class="edge">
<title>Protein(10)&#45;&gt;ProtDomain(14)</title>
<path fill="none" stroke="blue" d="M193.87,-466.7C197.44,-402 212.78,-186.14 260.35,-140.08 267.84,-132.83 314.16,-125.32 358.59,-119.63"/>
<polygon fill="blue" stroke="blue" points="359.13,-123.09 368.62,-118.37 358.26,-116.15 359.13,-123.09"/>
<text text-anchor="middle" x="305.57" y="-142.88" font-family="Times,serif" font-size="14.00">has_domain</text>
</g>
<!-- Protein(10)&#45;&gt;Gene(8) -->
<g id="edge10" class="edge">
<title>Protein(10)&#45;&gt;Gene(8)</title>
<path fill="none" stroke="black" d="M201.46,-467.22C212.64,-445.07 233.99,-407.05 260.35,-381.08 286.35,-355.46 512.1,-215.54 542.14,-207.08 590.23,-193.54 647.26,-203.43 686.7,-214.13"/>
<polygon fill="black" stroke="black" points="685.76,-217.51 696.34,-216.86 687.67,-210.77 685.76,-217.51"/>
<text text-anchor="middle" x="446.46" y="-308.88" font-family="Times,serif" font-size="14.00">enc</text>
</g>
<!-- Protein(10)&#45;&gt;Publication(2) -->
<g id="edge11" class="edge">
<title>Protein(10)&#45;&gt;Publication(2)</title>
<path fill="none" stroke="blue" d="M196.98,-466.97C210.14,-412.76 257.64,-252.12 368.78,-198.08 459.69,-153.87 578.41,-152.93 655.57,-158.61"/>
<polygon fill="blue" stroke="blue" points="655.46,-162.11 665.71,-159.41 656.02,-155.13 655.46,-162.11"/>
<text text-anchor="middle" x="446.46" y="-200.88" font-family="Times,serif" font-size="14.00">pub_in</text>
</g>
<!-- Protein(10)&#45;&gt;EC(15) -->
<g id="edge13" class="edge">
<title>Protein(10)&#45;&gt;EC(15)</title>
<path fill="none" stroke="blue" d="M193.84,-503.19C197.37,-569.05 212.8,-794.66 260.35,-845.08 294.15,-880.91 351.16,-890.63 393,-892.49"/>
<polygon fill="blue" stroke="blue" points="392.92,-895.99 403.02,-892.8 393.13,-888.99 392.92,-895.99"/>
<text text-anchor="middle" x="305.57" y="-889.88" font-family="Times,serif" font-size="14.00">cat_c</text>
</g>
<!-- Protein(10)&#45;&gt;Protein(7) -->
<g id="edge14" class="edge">
<title>Protein(10)&#45;&gt;Protein(7)</title>
<path fill="none" stroke="black" d="M193.08,-466.68C193.94,-392.72 201.13,-118.32 260.35,-61.08 277.49,-44.51 336.12,-39.39 382.86,-38.03"/>
<polygon fill="black" stroke="black" points="383.02,-41.53 392.94,-37.79 382.86,-34.53 383.02,-41.53"/>
<text text-anchor="middle" x="305.57" y="-105.88" font-family="Times,serif" font-size="14.00">xref(&lt;=6)</text>
<text text-anchor="middle" x="305.57" y="-91.88" font-family="Times,serif" font-size="14.00">ortho(&lt;=4)</text>
<text text-anchor="middle" x="305.57" y="-77.88" font-family="Times,serif" font-size="14.00">h_s_s(&lt;=4)</text>
<text text-anchor="middle" x="305.57" y="-63.88" font-family="Times,serif" font-size="14.00">equivalent(&lt;=4)</text>
</g>
<!-- Protein(10)&#45;&gt;Enzyme(177) -->
<g id="edge17" class="edge">
<title>Protein(10)&#45;&gt;Enzyme(177)</title>
<path fill="none" stroke="blue" d="M194.47,-503.23C199.72,-562.39 219.25,-748.19 260.35,-789.08 288.59,-817.16 331.54,-827.62 368.96,-830.85"/>
<polygon fill="blue" stroke="blue" points="369.13,-834.37 379.35,-831.58 369.62,-827.39 369.13,-834.37"/>
<text text-anchor="middle" x="305.57" y="-829.88" font-family="Times,serif" font-size="14.00">is_a</text>
</g>
<!-- Protein(10)&#45;&gt;Enzyme(17) -->
<g id="edge19" class="edge">
<title>Protein(10)&#45;&gt;Enzyme(17)</title>
<path fill="none" stroke="blue" d="M195.39,-503.2C202.67,-554.98 226.01,-701.96 260.35,-734.08 292.94,-764.55 343.23,-773.08 383.16,-774.38"/>
<polygon fill="blue" stroke="blue" points="383.28,-777.88 393.34,-774.57 383.4,-770.88 383.28,-777.88"/>
<text text-anchor="middle" x="305.57" y="-773.88" font-family="Times,serif" font-size="14.00">is_a</text>
</g>
<!-- Protein(10)&#45;&gt;ProtDomain(11) -->
<g id="edge20" class="edge">
<title>Protein(10)&#45;&gt;ProtDomain(11)</title>
<path fill="none" stroke="black" d="M214.29,-501.3C227.15,-510.57 244.14,-521.93 260.35,-530.08 302.05,-551.03 352.03,-568.43 389.54,-580.1"/>
<polygon fill="black" stroke="black" points="388.7,-583.5 399.29,-583.09 390.75,-576.81 388.7,-583.5"/>
<text text-anchor="middle" x="305.57" y="-568.88" font-family="Times,serif" font-size="14.00">has_domain</text>
</g>
<!-- Protein(10)&#45;&gt;EC(12) -->
<g id="edge18" class="edge">
<title>Protein(10)&#45;&gt;EC(12)</title>
<path fill="none" stroke="black" d="M193.48,-503.2C195.63,-542.18 206.46,-634.2 260.35,-681.08 298.95,-714.65 359.4,-720.65 400.64,-720.23"/>
<polygon fill="black" stroke="black" points="400.77,-723.73 410.68,-720 400.6,-716.73 400.77,-723.73"/>
<text text-anchor="middle" x="305.57" y="-718.88" font-family="Times,serif" font-size="14.00">cat_c</text>
</g>
<!-- Protein(10)&#45;&gt;Protein(10) -->
<g id="edge8" class="edge">
<title>Protein(10)&#45;&gt;Protein(10)</title>
<path fill="none" stroke="black" d="M178.04,-502.49C175.44,-512.16 180.08,-521.08 191.97,-521.08 199.39,-521.08 203.99,-517.6 205.76,-512.62"/>
<polygon fill="black" stroke="black" points="209.26,-512.53 205.89,-502.49 202.26,-512.44 209.26,-512.53"/>
<text text-anchor="middle" x="191.97" y="-565.88" font-family="Times,serif" font-size="14.00">ortho(&lt;=4)</text>
<text text-anchor="middle" x="191.97" y="-551.88" font-family="Times,serif" font-size="14.00">xref(&lt;=6)</text>
<text text-anchor="middle" x="191.97" y="-537.88" font-family="Times,serif" font-size="14.00">h_s_s(&lt;=4)</text>
<text text-anchor="middle" x="191.97" y="-523.88" font-family="Times,serif" font-size="14.00">equivalent(&lt;=4)</text>
</g>
<!-- Gene(9) -->
<g id="node21" class="node">
<title>Gene(9)</title>
<ellipse fill="none" stroke="black" cx="446.46" cy="-354.08" rx="39.15" ry="18"/>
<text text-anchor="middle" x="446.46" y="-349.88" font-family="Times,serif" font-size="14.00">Gene(9)</text>
</g>
<!-- Protein(10)&#45;&gt;Gene(9) -->
<g id="edge16" class="edge">
<title>Protein(10)&#45;&gt;Gene(9)</title>
<path fill="none" stroke="black" d="M209.11,-468.01C222.02,-455.14 241.07,-437.77 260.35,-426.08 305.83,-398.51 363.69,-378.02 402.51,-366.1"/>
<polygon fill="black" stroke="black" points="403.87,-369.34 412.44,-363.1 401.86,-362.64 403.87,-369.34"/>
<text text-anchor="middle" x="305.57" y="-428.88" font-family="Times,serif" font-size="14.00">enc</text>
</g>
<!-- Gene(9)&#45;&gt;CelComp(5) -->
<g id="edge29" class="edge">
<title>Gene(9)&#45;&gt;CelComp(5)</title>
<path fill="none" stroke="blue" d="M461.72,-370.92C479.09,-390.58 510.08,-423.08 542.14,-444.08 584.2,-471.62 602.53,-463.43 646.34,-488.08 654.94,-492.92 655.78,-496.17 664.34,-501.08 670.55,-504.63 677.24,-508.06 683.94,-511.26"/>
<polygon fill="blue" stroke="blue" points="682.49,-514.44 693.04,-515.46 685.43,-508.09 682.49,-514.44"/>
<text text-anchor="middle" x="594.24" y="-490.88" font-family="Times,serif" font-size="14.00">located_in</text>
</g>
<!-- Gene(9)&#45;&gt;TO(16) -->
<g id="edge22" class="edge">
<title>Gene(9)&#45;&gt;TO(16)</title>
<path fill="none" stroke="black" d="M482.07,-346.33C499.99,-342.33 522.23,-337.4 542.14,-333.08 589.5,-322.78 643.46,-311.31 682.18,-303.13"/>
<polygon fill="black" stroke="black" points="683.12,-306.5 692.18,-301.01 681.67,-299.66 683.12,-306.5"/>
<text text-anchor="middle" x="594.24" y="-335.88" font-family="Times,serif" font-size="14.00">cooc_wi</text>
</g>
<!-- Gene(9)&#45;&gt;MolFunc(3) -->
<g id="edge25" class="edge">
<title>Gene(9)&#45;&gt;MolFunc(3)</title>
<path fill="none" stroke="blue" d="M468.5,-369.13C486.45,-383.23 511.34,-405.99 524.14,-432.08 550.23,-485.23 501.22,-521.28 542.14,-564.08 574.68,-598.1 605.35,-559.94 646.34,-583.08 675.67,-599.63 700.17,-629.65 715.87,-652.49"/>
<polygon fill="blue" stroke="blue" points="712.98,-654.47 721.44,-660.85 718.8,-650.59 712.98,-654.47"/>
<text text-anchor="middle" x="594.24" y="-585.88" font-family="Times,serif" font-size="14.00">has_function</text>
</g>
<!-- Gene(9)&#45;&gt;BioProc(4) -->
<g id="edge28" class="edge">
<title>Gene(9)&#45;&gt;BioProc(4)</title>
<path fill="none" stroke="black" d="M470.81,-368.35C489.51,-379.23 516.73,-393.88 542.14,-403.08 586.74,-419.22 603.07,-406.68 646.34,-426.08 655.35,-430.11 655.78,-434.17 664.34,-439.08 670.87,-442.82 677.93,-446.41 684.97,-449.75"/>
<polygon fill="black" stroke="black" points="683.96,-453.13 694.51,-454.12 686.88,-446.77 683.96,-453.13"/>
<text text-anchor="middle" x="594.24" y="-428.88" font-family="Times,serif" font-size="14.00">participates_in</text>
</g>
<!-- Gene(9)&#45;&gt;Gene(8) -->
<g id="edge27" class="edge">
<title>Gene(9)&#45;&gt;Gene(8)</title>
<path fill="none" stroke="blue" d="M463.8,-337.84C481.6,-321.02 511.65,-295.14 542.14,-280.08 585.72,-258.56 639.56,-245.59 679.22,-238.27"/>
<polygon fill="blue" stroke="blue" points="680,-241.68 689.23,-236.48 678.78,-234.79 680,-241.68"/>
<text text-anchor="middle" x="594.24" y="-296.88" font-family="Times,serif" font-size="14.00">physical(&lt;=8)</text>
<text text-anchor="middle" x="594.24" y="-282.88" font-family="Times,serif" font-size="14.00">genetic(&lt;=8)</text>
</g>
<!-- Gene(9)&#45;&gt;Publication(2) -->
<g id="edge24" class="edge">
<title>Gene(9)&#45;&gt;Publication(2)</title>
<path fill="none" stroke="black" d="M456.19,-336.22C470.42,-308.92 501.22,-256.94 542.14,-228.08 575.76,-204.37 619.07,-189.79 656.09,-180.94"/>
<polygon fill="black" stroke="black" points="656.89,-184.35 665.85,-178.71 655.32,-177.53 656.89,-184.35"/>
<text text-anchor="middle" x="594.24" y="-230.88" font-family="Times,serif" font-size="14.00">pub_in</text>
</g>
<!-- Gene(9)&#45;&gt;Phenotype(13) -->
<g id="edge30" class="edge">
<title>Gene(9)&#45;&gt;Phenotype(13)</title>
<path fill="none" stroke="black" d="M483.47,-359.99C523.36,-366.65 589.57,-377.98 646.34,-389.08 652.16,-390.21 658.18,-391.43 664.23,-392.68"/>
<polygon fill="black" stroke="black" points="663.88,-396.18 674.38,-394.79 665.31,-389.33 663.88,-396.18"/>
<text text-anchor="middle" x="594.24" y="-391.88" font-family="Times,serif" font-size="14.00">has_observ_pheno</text>
</g>
<!-- Gene(9)&#45;&gt;Gene(9) -->
<g id="edge26" class="edge">
<title>Gene(9)&#45;&gt;Gene(9)</title>
<path fill="none" stroke="black" d="M423.04,-368.87C415.41,-379.49 423.22,-390.08 446.46,-390.08 462.08,-390.08 470.73,-385.3 472.41,-378.94"/>
<polygon fill="black" stroke="black" points="475.71,-377.72 469.88,-368.87 468.92,-379.42 475.71,-377.72"/>
<text text-anchor="middle" x="446.46" y="-406.88" font-family="Times,serif" font-size="14.00">physical(&lt;=8)</text>
<text text-anchor="middle" x="446.46" y="-392.88" font-family="Times,serif" font-size="14.00">genetic(&lt;=8)</text>
</g>
<!-- SNP(20) -->
<g id="node22" class="node">
<title>SNP(20)</title>
<ellipse fill="none" stroke="black" cx="735.64" cy="-350.08" rx="41.13" ry="18"/>
<text text-anchor="middle" x="735.64" y="-345.88" font-family="Times,serif" font-size="14.00">SNP(20)</text>
</g>
<!-- Gene(9)&#45;&gt;SNP(20) -->
<g id="edge23" class="edge">
<title>Gene(9)&#45;&gt;SNP(20)</title>
<path fill="none" stroke="blue" d="M485.7,-353.18C502.94,-352.79 523.57,-352.37 542.14,-352.08 590.46,-351.32 645.6,-350.78 684.44,-350.45"/>
<polygon fill="blue" stroke="blue" points="684.48,-353.95 694.45,-350.37 684.42,-346.95 684.48,-353.95"/>
<text text-anchor="middle" x="594.24" y="-354.88" font-family="Times,serif" font-size="14.00">has_variation</text>
</g>
<!-- SNP(20)&#45;&gt;Trait(21) -->
<g id="edge31" class="edge">
<title>SNP(20)&#45;&gt;Trait(21)</title>
<path fill="none" stroke="black" d="M776.91,-350.08C816.45,-350.08 877.18,-350.08 922.04,-350.08"/>
<polygon fill="black" stroke="black" points="922.21,-353.58 932.21,-350.08 922.21,-346.58 922.21,-353.58"/>
<text text-anchor="middle" x="869.65" y="-352.88" font-family="Times,serif" font-size="14.00">associated_with</text>
</g>
</g>
</svg>
