<svg width="1385px" height="1046px"
 viewBox="0.00 0.00 1038.67 784.57" xmlns="http://www.w3.org/2000/svg" xmlns:xlink="http://www.w3.org/1999/xlink">
<g id="graph0" class="graph" transform=" rotate(0) translate(4 780.57)">
<title>%3</title>
<polygon fill="white" stroke="transparent" points="-4,4 -4,-780.57 1034.67,-780.57 1034.67,4 -4,4"/>
<!-- Publication(2) -->
<g id="node1" class="node">
<title>Publication(2)</title>
<polygon fill="none" stroke="darkgreen" points="801.54,-591.11 801.54,-606.02 762.93,-616.57 708.35,-616.57 669.74,-606.02 669.74,-591.11 708.35,-580.57 762.93,-580.57 801.54,-591.11"/>
<polygon fill="none" stroke="darkgreen" points="805.55,-588.06 805.55,-609.08 763.47,-620.57 707.81,-620.57 665.73,-609.08 665.73,-588.06 707.81,-576.57 763.47,-576.57 805.55,-588.06"/>
<text text-anchor="middle" x="735.64" y="-594.37" font-family="Times,serif" font-size="14.00">Publication(2)</text>
</g>
<!-- Gene(1) -->
<g id="node2" class="node">
<title>Gene(1)</title>
<ellipse fill="none" stroke="red" cx="43.08" cy="-585.57" rx="39.15" ry="39.15"/>
<ellipse fill="none" stroke="red" cx="43.08" cy="-585.57" rx="43.15" ry="43.15"/>
<text text-anchor="middle" x="43.08" y="-581.37" font-family="Times,serif" font-size="14.00">Gene(1)</text>
</g>
<!-- Protein(7) -->
<g id="node3" class="node">
<title>Protein(7)</title>
<polygon fill="none" stroke="darkgreen" points="495.98,-747.11 495.98,-762.02 466.97,-772.57 425.95,-772.57 396.94,-762.02 396.94,-747.11 425.95,-736.57 466.97,-736.57 495.98,-747.11"/>
<polygon fill="none" stroke="darkgreen" points="499.97,-744.31 499.97,-764.83 467.67,-776.57 425.25,-776.57 392.96,-764.83 392.96,-744.31 425.25,-732.57 467.67,-732.57 499.97,-744.31"/>
<text text-anchor="middle" x="446.46" y="-750.37" font-family="Times,serif" font-size="14.00">Protein(7)</text>
</g>
<!-- Gene(1)&#45;&gt;Protein(7) -->
<g id="edge1" class="edge">
<title>Gene(1)&#45;&gt;Protein(7)</title>
<path fill="none" stroke="black" d="M71.53,-618.02C109.13,-659.68 181.09,-729.89 260.35,-757.57 303.14,-772.51 354.95,-770.08 392.86,-764.88"/>
<text text-anchor="middle" x="191.97" y="-752.37" font-family="Times,serif" font-size="14.00">enc</text>
</g>
<!-- Protein(10) -->
<g id="node16" class="node">
<title>Protein(10)</title>
<ellipse fill="none" stroke="black" cx="191.97" cy="-392.57" rx="50.27" ry="18"/>
<text text-anchor="middle" x="191.97" y="-388.37" font-family="Times,serif" font-size="14.00">Protein(10)</text>
</g>
<!-- Gene(1)&#45;&gt;Protein(10) -->
<g id="edge2" class="edge">
<title>Gene(1)&#45;&gt;Protein(10)</title>
<path fill="none" stroke="blue" d="M70,-551.51C101.54,-510.06 153.59,-441.68 177.81,-409.86"/>
<text text-anchor="middle" x="113.87" y="-508.37" font-family="Times,serif" font-size="14.00">enc</text>
</g>
<!-- EC(15) -->
<g id="node4" class="node">
<title>EC(15)</title>
<polygon fill="none" stroke="darkgreen" points="485.69,-565.11 485.69,-580.02 462.71,-590.57 430.21,-590.57 407.24,-580.02 407.24,-565.11 430.21,-554.57 462.71,-554.57 485.69,-565.11"/>
<polygon fill="none" stroke="darkgreen" points="489.7,-562.55 489.7,-582.59 463.59,-594.57 429.33,-594.57 403.22,-582.59 403.22,-562.55 429.33,-550.57 463.59,-550.57 489.7,-562.55"/>
<text text-anchor="middle" x="446.46" y="-568.37" font-family="Times,serif" font-size="14.00">EC(15)</text>
</g>
<!-- MolFunc(3) -->
<g id="node5" class="node">
<title>MolFunc(3)</title>
<polygon fill="none" stroke="darkgreen" points="793.03,-277.11 793.03,-292.02 759.41,-302.57 711.87,-302.57 678.25,-292.02 678.25,-277.11 711.87,-266.57 759.41,-266.57 793.03,-277.11"/>
<polygon fill="none" stroke="darkgreen" points="797.04,-274.18 797.04,-294.96 760.03,-306.57 711.25,-306.57 674.24,-294.96 674.24,-274.18 711.25,-262.57 760.03,-262.57 797.04,-274.18"/>
<text text-anchor="middle" x="735.64" y="-280.37" font-family="Times,serif" font-size="14.00">MolFunc(3)</text>
</g>
<!-- Gene(8) -->
<g id="node6" class="node">
<title>Gene(8)</title>
<polygon fill="none" stroke="darkgreen" points="777.75,-527.11 777.75,-542.02 753.08,-552.57 718.2,-552.57 693.53,-542.02 693.53,-527.11 718.2,-516.57 753.08,-516.57 777.75,-527.11"/>
<polygon fill="none" stroke="darkgreen" points="781.73,-524.47 781.73,-544.67 753.9,-556.57 717.38,-556.57 689.55,-544.67 689.55,-524.47 717.38,-512.57 753.9,-512.57 781.73,-524.47"/>
<text text-anchor="middle" x="735.64" y="-530.37" font-family="Times,serif" font-size="14.00">Gene(8)</text>
</g>
<!-- TO(16) -->
<g id="node7" class="node">
<title>TO(16)</title>
<polygon fill="none" stroke="darkgreen" points="775.1,-411.11 775.1,-426.02 751.98,-436.57 719.3,-436.57 696.18,-426.02 696.18,-411.11 719.3,-400.57 751.98,-400.57 775.1,-411.11"/>
<polygon fill="none" stroke="darkgreen" points="779.1,-408.54 779.1,-428.6 752.85,-440.57 718.43,-440.57 692.18,-428.6 692.18,-408.54 718.43,-396.57 752.85,-396.57 779.1,-408.54"/>
<text text-anchor="middle" x="735.64" y="-414.37" font-family="Times,serif" font-size="14.00">TO(16)</text>
</g>
<!-- Phenotype(13) -->
<g id="node8" class="node">
<title>Phenotype(13)</title>
<polygon fill="none" stroke="darkgreen" points="802.75,-349.11 802.75,-364.02 763.44,-374.57 707.84,-374.57 668.53,-364.02 668.53,-349.11 707.84,-338.57 763.44,-338.57 802.75,-349.11"/>
<polygon fill="none" stroke="darkgreen" points="806.74,-346.04 806.74,-367.09 763.96,-378.57 707.32,-378.57 664.55,-367.09 664.55,-346.04 707.32,-334.57 763.96,-334.57 806.74,-346.04"/>
<text text-anchor="middle" x="735.64" y="-352.37" font-family="Times,serif" font-size="14.00">Phenotype(13)</text>
</g>
<!-- Trait(21) -->
<g id="node9" class="node">
<title>Trait(21)</title>
<polygon fill="none" stroke="darkgreen" points="1026.82,-469.11 1026.82,-484.02 1000.28,-494.57 962.75,-494.57 936.21,-484.02 936.21,-469.11 962.75,-458.57 1000.28,-458.57 1026.82,-469.11"/>
<polygon fill="none" stroke="darkgreen" points="1030.83,-466.4 1030.83,-486.74 1001.05,-498.57 961.98,-498.57 932.2,-486.74 932.2,-466.4 961.98,-454.57 1001.05,-454.57 1030.83,-466.4"/>
<text text-anchor="middle" x="981.52" y="-472.37" font-family="Times,serif" font-size="14.00">Trait(21)</text>
</g>
<!-- CelComp(5) -->
<g id="node10" class="node">
<title>CelComp(5)</title>
<polygon fill="none" stroke="darkgreen" points="794.24,-182.11 794.24,-197.02 759.91,-207.57 711.37,-207.57 677.04,-197.02 677.04,-182.11 711.37,-171.57 759.91,-171.57 794.24,-182.11"/>
<polygon fill="none" stroke="darkgreen" points="798.23,-179.15 798.23,-199.98 760.51,-211.57 710.77,-211.57 673.05,-199.98 673.05,-179.15 710.77,-167.57 760.51,-167.57 798.23,-179.15"/>
<text text-anchor="middle" x="735.64" y="-185.37" font-family="Times,serif" font-size="14.00">CelComp(5)</text>
</g>
<!-- BioProc(4) -->
<g id="node11" class="node">
<title>BioProc(4)</title>
<polygon fill="none" stroke="darkgreen" points="789.09,-42.11 789.09,-57.02 757.78,-67.57 713.5,-67.57 682.19,-57.02 682.19,-42.11 713.5,-31.57 757.78,-31.57 789.09,-42.11"/>
<polygon fill="none" stroke="darkgreen" points="793.09,-39.24 793.09,-59.9 758.44,-71.57 712.84,-71.57 678.19,-59.9 678.19,-39.24 712.84,-27.57 758.44,-27.57 793.09,-39.24"/>
<text text-anchor="middle" x="735.64" y="-45.37" font-family="Times,serif" font-size="14.00">BioProc(4)</text>
</g>
<!-- ProtDomain(14) -->
<g id="node12" class="node">
<title>ProtDomain(14)</title>
<polygon fill="none" stroke="darkgreen" points="520.32,-249.11 520.32,-264.02 477.05,-274.57 415.87,-274.57 372.61,-264.02 372.61,-249.11 415.87,-238.57 477.05,-238.57 520.32,-249.11"/>
<polygon fill="none" stroke="darkgreen" points="524.32,-245.97 524.32,-267.16 477.54,-278.57 415.39,-278.57 368.6,-267.16 368.6,-245.97 415.39,-234.57 477.54,-234.57 524.32,-245.97"/>
<text text-anchor="middle" x="446.46" y="-252.37" font-family="Times,serif" font-size="14.00">ProtDomain(14)</text>
</g>
<!-- Path(19) -->
<g id="node13" class="node">
<title>Path(19)</title>
<polygon fill="none" stroke="darkgreen" points="1025.33,-722.11 1025.33,-737.02 999.66,-747.57 963.37,-747.57 937.7,-737.02 937.7,-722.11 963.37,-711.57 999.66,-711.57 1025.33,-722.11"/>
<polygon fill="none" stroke="darkgreen" points="1029.32,-719.43 1029.32,-739.71 1000.45,-751.57 962.58,-751.57 933.71,-739.71 933.71,-719.43 962.58,-707.57 1000.45,-707.57 1029.32,-719.43"/>
<text text-anchor="middle" x="981.52" y="-725.37" font-family="Times,serif" font-size="14.00">Path(19)</text>
</g>
<!-- Reaction(188) -->
<g id="node14" class="node">
<title>Reaction(188)</title>
<polygon fill="none" stroke="darkgreen" points="801.52,-664.11 801.52,-679.02 762.93,-689.57 708.35,-689.57 669.76,-679.02 669.76,-664.11 708.35,-653.57 762.93,-653.57 801.52,-664.11"/>
<polygon fill="none" stroke="darkgreen" points="805.53,-661.06 805.53,-682.08 763.47,-693.57 707.81,-693.57 665.75,-682.08 665.75,-661.06 707.81,-649.57 763.47,-649.57 805.53,-661.06"/>
<text text-anchor="middle" x="735.64" y="-667.37" font-family="Times,serif" font-size="14.00">Reaction(188)</text>
</g>
<!-- Enzyme(177) -->
<g id="node15" class="node">
<title>Enzyme(177)</title>
<polygon fill="none" stroke="darkgreen" points="509.53,-187.11 509.53,-202.02 472.58,-212.57 420.34,-212.57 383.39,-202.02 383.39,-187.11 420.34,-176.57 472.58,-176.57 509.53,-187.11"/>
<polygon fill="none" stroke="darkgreen" points="513.53,-184.09 513.53,-205.04 473.14,-216.57 419.78,-216.57 379.39,-205.04 379.39,-184.09 419.78,-172.57 473.14,-172.57 513.53,-184.09"/>
<text text-anchor="middle" x="446.46" y="-190.37" font-family="Times,serif" font-size="14.00">Enzyme(177)</text>
</g>
<!-- Protein(10)&#45;&gt;Publication(2) -->
<g id="edge16" class="edge">
<title>Protein(10)&#45;&gt;Publication(2)</title>
<path fill="none" stroke="black" d="M193.5,-410.83C195.68,-449.61 206.59,-540.31 260.35,-585.57 319.75,-635.56 548.82,-618.98 665.5,-606.76"/>
<text text-anchor="middle" x="446.46" y="-621.37" font-family="Times,serif" font-size="14.00">pub_in</text>
</g>
<!-- Protein(10)&#45;&gt;Protein(7) -->
<g id="edge7" class="edge">
<title>Protein(10)&#45;&gt;Protein(7)</title>
<path fill="none" stroke="blue" d="M194.81,-410.78C200.91,-467.56 222.28,-639.81 260.35,-678.57 289.42,-708.15 312.26,-686.2 350.78,-701.57 373.7,-710.71 397.96,-724.38 416.18,-735.54"/>
<text text-anchor="middle" x="305.57" y="-746.37" font-family="Times,serif" font-size="14.00">equivalent(&lt;=4)</text>
<text text-anchor="middle" x="305.57" y="-732.37" font-family="Times,serif" font-size="14.00">h_s_s(&lt;=4)</text>
<text text-anchor="middle" x="305.57" y="-718.37" font-family="Times,serif" font-size="14.00">ortho(&lt;=4)</text>
<text text-anchor="middle" x="305.57" y="-704.37" font-family="Times,serif" font-size="14.00">xref(&lt;=6)</text>
</g>
<!-- Protein(10)&#45;&gt;EC(15) -->
<g id="edge3" class="edge">
<title>Protein(10)&#45;&gt;EC(15)</title>
<path fill="none" stroke="blue" d="M196.38,-410.79C203.04,-441.03 220.74,-501.34 260.35,-532.57 301.28,-564.83 362.49,-572.47 403.17,-573.62"/>
<text text-anchor="middle" x="305.57" y="-570.37" font-family="Times,serif" font-size="14.00">cat_c</text>
</g>
<!-- Protein(10)&#45;&gt;MolFunc(3) -->
<g id="edge11" class="edge">
<title>Protein(10)&#45;&gt;MolFunc(3)</title>
<path fill="none" stroke="blue" d="M223.83,-378.55C258.5,-363.25 316.73,-338.91 368.78,-323.57 444.18,-301.35 464.01,-297.2 542.14,-288.57 586.17,-283.71 636.19,-282.81 674.2,-283.07"/>
<text text-anchor="middle" x="446.46" y="-326.37" font-family="Times,serif" font-size="14.00">has_function</text>
</g>
<!-- Protein(10)&#45;&gt;Gene(8) -->
<g id="edge5" class="edge">
<title>Protein(10)&#45;&gt;Gene(8)</title>
<path fill="none" stroke="blue" d="M215.35,-408.53C247.64,-430.74 309.88,-470.59 368.78,-491.57 479.19,-530.88 619,-535.95 689.54,-535.65"/>
<text text-anchor="middle" x="446.46" y="-528.37" font-family="Times,serif" font-size="14.00">enc</text>
</g>
<!-- Protein(10)&#45;&gt;CelComp(5) -->
<g id="edge14" class="edge">
<title>Protein(10)&#45;&gt;CelComp(5)</title>
<path fill="none" stroke="black" d="M194.45,-374.55C198.44,-336.99 212.6,-249.52 260.35,-197.57 296.02,-158.77 317.22,-160.47 368.78,-149.57 436.34,-135.28 462.98,-117.52 524.14,-149.57 536.59,-156.09 529.94,-168.6 542.14,-175.57 581.57,-198.09 633.19,-200.69 673.05,-198.15"/>
<text text-anchor="middle" x="446.46" y="-152.37" font-family="Times,serif" font-size="14.00">located_in</text>
</g>
<!-- Protein(10)&#45;&gt;BioProc(4) -->
<g id="edge15" class="edge">
<title>Protein(10)&#45;&gt;BioProc(4)</title>
<path fill="none" stroke="blue" d="M194.43,-374.24C199.64,-313.57 219.2,-120.64 260.35,-76.57 372.09,43.08 595.7,-6.59 690.52,-34.93"/>
<text text-anchor="middle" x="446.46" y="-16.37" font-family="Times,serif" font-size="14.00">participates_in</text>
</g>
<!-- Protein(10)&#45;&gt;ProtDomain(14) -->
<g id="edge10" class="edge">
<title>Protein(10)&#45;&gt;ProtDomain(14)</title>
<path fill="none" stroke="black" d="M199.05,-374.58C208.25,-350.35 228.12,-307.8 260.35,-286.57 292.02,-265.7 333.21,-257.61 368.68,-255"/>
<text text-anchor="middle" x="305.57" y="-289.37" font-family="Times,serif" font-size="14.00">has_domain</text>
</g>
<!-- Protein(10)&#45;&gt;Enzyme(177) -->
<g id="edge13" class="edge">
<title>Protein(10)&#45;&gt;Enzyme(177)</title>
<path fill="none" stroke="blue" d="M195.66,-374.36C201.44,-342.1 218.08,-274.98 260.35,-239.57 293.32,-211.96 340.53,-200.79 379.03,-196.48"/>
<text text-anchor="middle" x="305.57" y="-242.37" font-family="Times,serif" font-size="14.00">is_a</text>
</g>
<!-- Protein(10)&#45;&gt;Protein(10) -->
<g id="edge8" class="edge">
<title>Protein(10)&#45;&gt;Protein(10)</title>
<path fill="none" stroke="black" d="M178.04,-409.98C175.44,-419.66 180.08,-428.57 191.97,-428.57 203.85,-428.57 208.49,-419.66 205.89,-409.98"/>
<text text-anchor="middle" x="191.97" y="-473.37" font-family="Times,serif" font-size="14.00">equivalent(&lt;=4)</text>
<text text-anchor="middle" x="191.97" y="-459.37" font-family="Times,serif" font-size="14.00">h_s_s(&lt;=4)</text>
<text text-anchor="middle" x="191.97" y="-445.37" font-family="Times,serif" font-size="14.00">ortho(&lt;=4)</text>
<text text-anchor="middle" x="191.97" y="-431.37" font-family="Times,serif" font-size="14.00">xref(&lt;=6)</text>
</g>
<!-- EC(12) -->
<g id="node17" class="node">
<title>EC(12)</title>
<ellipse fill="none" stroke="black" cx="446.46" cy="-364.57" rx="36.28" ry="18"/>
<text text-anchor="middle" x="446.46" y="-360.37" font-family="Times,serif" font-size="14.00">EC(12)</text>
</g>
<!-- Protein(10)&#45;&gt;EC(12) -->
<g id="edge4" class="edge">
<title>Protein(10)&#45;&gt;EC(12)</title>
<path fill="none" stroke="black" d="M236.74,-384.18C244.58,-382.85 252.7,-381.58 260.35,-380.57 312.48,-373.69 373.27,-369.08 410.56,-366.64"/>
<text text-anchor="middle" x="305.57" y="-383.37" font-family="Times,serif" font-size="14.00">cat_c</text>
</g>
<!-- Gene(9) -->
<g id="node18" class="node">
<title>Gene(9)</title>
<ellipse fill="none" stroke="black" cx="446.46" cy="-418.57" rx="39.15" ry="18"/>
<text text-anchor="middle" x="446.46" y="-414.37" font-family="Times,serif" font-size="14.00">Gene(9)</text>
</g>
<!-- Protein(10)&#45;&gt;Gene(9) -->
<g id="edge6" class="edge">
<title>Protein(10)&#45;&gt;Gene(9)</title>
<path fill="none" stroke="black" d="M240.46,-397.46C289.03,-402.46 363.49,-410.13 408.04,-414.72"/>
<text text-anchor="middle" x="305.57" y="-411.37" font-family="Times,serif" font-size="14.00">enc</text>
</g>
<!-- ProtDomain(11) -->
<g id="node19" class="node">
<title>ProtDomain(11)</title>
<ellipse fill="none" stroke="black" cx="446.46" cy="-86.57" rx="68" ry="18"/>
<text text-anchor="middle" x="446.46" y="-82.37" font-family="Times,serif" font-size="14.00">ProtDomain(11)</text>
</g>
<!-- Protein(10)&#45;&gt;ProtDomain(11) -->
<g id="edge9" class="edge">
<title>Protein(10)&#45;&gt;ProtDomain(11)</title>
<path fill="none" stroke="blue" d="M194.7,-374.55C200.46,-318.43 220.93,-148.36 260.35,-112.57 293.51,-82.47 344.71,-77.26 384.87,-78.86"/>
<text text-anchor="middle" x="305.57" y="-115.37" font-family="Times,serif" font-size="14.00">has_domain</text>
</g>
<!-- Enzyme(17) -->
<g id="node20" class="node">
<title>Enzyme(17)</title>
<ellipse fill="none" stroke="black" cx="446.46" cy="-680.57" rx="53.63" ry="18"/>
<text text-anchor="middle" x="446.46" y="-676.37" font-family="Times,serif" font-size="14.00">Enzyme(17)</text>
</g>
<!-- Protein(10)&#45;&gt;Enzyme(17) -->
<g id="edge12" class="edge">
<title>Protein(10)&#45;&gt;Enzyme(17)</title>
<path fill="none" stroke="black" d="M195.4,-410.67C202.73,-462.41 226.17,-609.27 260.35,-641.57 265.44,-646.38 345.86,-662.08 399.01,-672.03"/>
<text text-anchor="middle" x="305.57" y="-665.37" font-family="Times,serif" font-size="14.00">is_a</text>
</g>
<!-- EC(12)&#45;&gt;MolFunc(3) -->
<g id="edge17" class="edge">
<title>EC(12)&#45;&gt;MolFunc(3)</title>
<path fill="none" stroke="black" d="M478.2,-355.94C493.07,-350.77 510.6,-343.11 524.14,-332.57 534.67,-324.38 530.61,-315.26 542.14,-308.57 563.99,-295.89 626.32,-289.83 674.2,-286.99"/>
<text text-anchor="middle" x="594.24" y="-311.37" font-family="Times,serif" font-size="14.00">equ</text>
</g>
<!-- Gene(9)&#45;&gt;Publication(2) -->
<g id="edge26" class="edge">
<title>Gene(9)&#45;&gt;Publication(2)</title>
<path fill="none" stroke="blue" d="M465.36,-434.61C481.68,-449.71 505.95,-473.43 524.14,-496.57 533.52,-508.49 530.43,-515.93 542.14,-525.57 579.8,-556.58 632.03,-575.28 672.58,-585.97"/>
<text text-anchor="middle" x="594.24" y="-580.37" font-family="Times,serif" font-size="14.00">pub_in</text>
</g>
<!-- Gene(9)&#45;&gt;MolFunc(3) -->
<g id="edge21" class="edge">
<title>Gene(9)&#45;&gt;MolFunc(3)</title>
<path fill="none" stroke="black" d="M483.01,-411.76C497,-407.71 512.47,-401.37 524.14,-391.57 536.64,-381.08 529.66,-370.08 542.14,-359.57 579.74,-327.92 600.59,-340.51 646.34,-322.57 662.66,-316.17 680.44,-308.63 695.75,-301.96"/>
<text text-anchor="middle" x="594.24" y="-362.37" font-family="Times,serif" font-size="14.00">has_function</text>
</g>
<!-- Gene(9)&#45;&gt;Gene(8) -->
<g id="edge19" class="edge">
<title>Gene(9)&#45;&gt;Gene(8)</title>
<path fill="none" stroke="black" d="M469.93,-433.31C488.58,-444.94 516.16,-460.8 542.14,-470.57 586.53,-487.26 601.99,-476.77 646.34,-493.57 654.9,-496.81 656.15,-499.5 664.34,-503.57 675.69,-509.21 688.3,-514.93 699.66,-519.9"/>
<text text-anchor="middle" x="594.24" y="-510.37" font-family="Times,serif" font-size="14.00">genetic(&lt;=8)</text>
<text text-anchor="middle" x="594.24" y="-496.37" font-family="Times,serif" font-size="14.00">physical(&lt;=8)</text>
</g>
<!-- Gene(9)&#45;&gt;TO(16) -->
<g id="edge18" class="edge">
<title>Gene(9)&#45;&gt;TO(16)</title>
<path fill="none" stroke="blue" d="M485.6,-418.57C539.15,-418.57 636.32,-418.57 692.14,-418.57"/>
<text text-anchor="middle" x="594.24" y="-421.37" font-family="Times,serif" font-size="14.00">cooc_wi</text>
</g>
<!-- Gene(9)&#45;&gt;Phenotype(13) -->
<g id="edge22" class="edge">
<title>Gene(9)&#45;&gt;Phenotype(13)</title>
<path fill="none" stroke="blue" d="M482.1,-411.09C529.62,-400.83 615.74,-382.24 674.05,-369.65"/>
<text text-anchor="middle" x="594.24" y="-399.37" font-family="Times,serif" font-size="14.00">has_observ_pheno</text>
</g>
<!-- Gene(9)&#45;&gt;CelComp(5) -->
<g id="edge24" class="edge">
<title>Gene(9)&#45;&gt;CelComp(5)</title>
<path fill="none" stroke="blue" d="M484.58,-413.82C498.99,-410.08 514.34,-403.43 524.14,-391.57 558.49,-349.99 509.14,-314.22 542.14,-271.57 573.71,-230.77 629.48,-210 672.9,-199.6"/>
<text text-anchor="middle" x="594.24" y="-274.37" font-family="Times,serif" font-size="14.00">located_in</text>
</g>
<!-- Gene(9)&#45;&gt;BioProc(4) -->
<g id="edge25" class="edge">
<title>Gene(9)&#45;&gt;BioProc(4)</title>
<path fill="none" stroke="black" d="M484.68,-414.31C499.28,-410.66 514.76,-403.93 524.14,-391.57 560.63,-343.49 501.97,-165.61 542.14,-120.57 573.48,-85.44 602.22,-117.99 646.34,-101.57 667.68,-93.63 689.76,-80.63 706.5,-69.61"/>
<text text-anchor="middle" x="594.24" y="-123.37" font-family="Times,serif" font-size="14.00">participates_in</text>
</g>
<!-- Gene(9)&#45;&gt;Gene(9) -->
<g id="edge20" class="edge">
<title>Gene(9)&#45;&gt;Gene(9)</title>
<path fill="none" stroke="blue" d="M423.04,-433.36C415.41,-443.98 423.22,-454.57 446.46,-454.57 469.7,-454.57 477.51,-443.98 469.88,-433.36"/>
<text text-anchor="middle" x="446.46" y="-471.37" font-family="Times,serif" font-size="14.00">genetic(&lt;=8)</text>
<text text-anchor="middle" x="446.46" y="-457.37" font-family="Times,serif" font-size="14.00">physical(&lt;=8)</text>
</g>
<!-- SNP(20) -->
<g id="node21" class="node">
<title>SNP(20)</title>
<ellipse fill="none" stroke="black" cx="735.64" cy="-476.57" rx="41.13" ry="18"/>
<text text-anchor="middle" x="735.64" y="-472.37" font-family="Times,serif" font-size="14.00">SNP(20)</text>
</g>
<!-- Gene(9)&#45;&gt;SNP(20) -->
<g id="edge23" class="edge">
<title>Gene(9)&#45;&gt;SNP(20)</title>
<path fill="none" stroke="black" d="M483.1,-425C522.96,-432.28 589.39,-444.68 646.34,-456.57 663.73,-460.2 682.97,-464.52 699.04,-468.22"/>
<text text-anchor="middle" x="594.24" y="-459.37" font-family="Times,serif" font-size="14.00">has_variation</text>
</g>
<!-- ProtDomain(11)&#45;&gt;MolFunc(3) -->
<g id="edge28" class="edge">
<title>ProtDomain(11)&#45;&gt;MolFunc(3)</title>
<path fill="none" stroke="blue" d="M490.21,-100.5C501.77,-105.29 513.9,-111.31 524.14,-118.57 533.9,-125.48 532.85,-131.05 542.14,-138.57 583.69,-172.18 605.6,-163.99 646.34,-198.57 655.97,-206.74 655.65,-211.4 664.34,-220.57 678.43,-235.42 695.36,-250.9 709.08,-262.91"/>
<text text-anchor="middle" x="594.24" y="-201.37" font-family="Times,serif" font-size="14.00">has_function</text>
</g>
<!-- ProtDomain(11)&#45;&gt;CelComp(5) -->
<g id="edge29" class="edge">
<title>ProtDomain(11)&#45;&gt;CelComp(5)</title>
<path fill="none" stroke="black" d="M499.84,-75.42C541.5,-69.17 600.23,-66.36 646.34,-87.57 682.09,-104.01 708.95,-142.8 723.18,-167.53"/>
<text text-anchor="middle" x="594.24" y="-90.37" font-family="Times,serif" font-size="14.00">located_in</text>
</g>
<!-- ProtDomain(11)&#45;&gt;BioProc(4) -->
<g id="edge30" class="edge">
<title>ProtDomain(11)&#45;&gt;BioProc(4)</title>
<path fill="none" stroke="blue" d="M479.92,-70.91C497.82,-63.14 520.71,-54.56 542.14,-50.57 587.32,-42.15 639.5,-42.49 678.13,-44.6"/>
<text text-anchor="middle" x="594.24" y="-53.37" font-family="Times,serif" font-size="14.00">participates_in</text>
</g>
<!-- Enzyme(17)&#45;&gt;Reaction(188) -->
<g id="edge32" class="edge">
<title>Enzyme(17)&#45;&gt;Reaction(188)</title>
<path fill="none" stroke="black" d="M500.13,-678.92C546.69,-677.46 614.9,-675.32 665.77,-673.73"/>
<text text-anchor="middle" x="594.24" y="-679.37" font-family="Times,serif" font-size="14.00">ca_by</text>
</g>
<!-- Reaction(18) -->
<g id="node22" class="node">
<title>Reaction(18)</title>
<ellipse fill="none" stroke="black" cx="735.64" cy="-729.57" rx="56.04" ry="18"/>
<text text-anchor="middle" x="735.64" y="-725.37" font-family="Times,serif" font-size="14.00">Reaction(18)</text>
</g>
<!-- Enzyme(17)&#45;&gt;Reaction(18) -->
<g id="edge31" class="edge">
<title>Enzyme(17)&#45;&gt;Reaction(18)</title>
<path fill="none" stroke="blue" d="M494.88,-688.66C547.61,-697.66 632.37,-712.12 685.71,-721.22"/>
<text text-anchor="middle" x="594.24" y="-716.37" font-family="Times,serif" font-size="14.00">ca_by</text>
</g>
<!-- SNP(20)&#45;&gt;Trait(21) -->
<g id="edge27" class="edge">
<title>SNP(20)&#45;&gt;Trait(21)</title>
<path fill="none" stroke="black" d="M776.91,-476.57C819.53,-476.57 886.77,-476.57 932.21,-476.57"/>
<text text-anchor="middle" x="869.65" y="-479.37" font-family="Times,serif" font-size="14.00">associated_with</text>
</g>
<!-- Reaction(18)&#45;&gt;Path(19) -->
<g id="edge33" class="edge">
<title>Reaction(18)&#45;&gt;Path(19)</title>
<path fill="none" stroke="black" d="M791.98,-729.57C834.7,-729.57 893.16,-729.57 933.6,-729.57"/>
<text text-anchor="middle" x="869.65" y="-732.37" font-family="Times,serif" font-size="14.00">part_of</text>
</g>
</g>
</svg>
