<?xml version="1.0" encoding="UTF-8" standalone="no"?>
<svg
   xmlns:dc="http://purl.org/dc/elements/1.1/"
   xmlns:cc="http://creativecommons.org/ns#"
   xmlns:rdf="http://www.w3.org/1999/02/22-rdf-syntax-ns#"
   xmlns:svg="http://www.w3.org/2000/svg"
   xmlns="http://www.w3.org/2000/svg"
   xmlns:sodipodi="http://sodipodi.sourceforge.net/DTD/sodipodi-0.dtd"
   xmlns:inkscape="http://www.inkscape.org/namespaces/inkscape"
   xml:space="preserve"
   width="36"
   height="36"
   viewBox="0 0 360 360"
   id="svg2"
   version="1.1"
   inkscape:version="0.91 r13725"
   sodipodi:docname="fit_to_size.svg"
   style="clip-rule:evenodd;fill-rule:evenodd;image-rendering:optimizeQuality;shape-rendering:geometricPrecision;text-rendering:geometricPrecision"
   inkscape:export-filename="C:\code\qtl\common\client\src\main\webapp\html\GeneMap\assets\img\fit_to_size.png"
   inkscape:export-xdpi="90"
   inkscape:export-ydpi="90"><metadata
     id="metadata17"><rdf:RDF><cc:Work
         rdf:about=""><dc:format>image/svg+xml</dc:format><dc:type
           rdf:resource="http://purl.org/dc/dcmitype/StillImage" /><dc:title>fit_to_size icon</dc:title></cc:Work></rdf:RDF></metadata><defs
     id="defs15" /><sodipodi:namedview
     pagecolor="#ffffff"
     bordercolor="#666666"
     borderopacity="1"
     objecttolerance="10"
     gridtolerance="10"
     guidetolerance="10"
     inkscape:pageopacity="0"
     inkscape:pageshadow="2"
     inkscape:window-width="1661"
     inkscape:window-height="792"
     id="namedview13"
     showgrid="false"
     inkscape:zoom="7.375"
     inkscape:cx="24.89515"
     inkscape:cy="37.246734"
     inkscape:window-x="0"
     inkscape:window-y="0"
     inkscape:window-maximized="0"
     inkscape:current-layer="svg2" /><title
     id="title4">fit_to_size icon</title><desc
     id="desc6">fit_to_size icon from the IconExperience.com O-Collection. Copyright by INCORS GmbH (www.incors.com).</desc><path
     id="curve4"
     d="m 30,287.14315 21.428571,0 0,-214.285803 -21.428571,0 0,-21.4286 21.428571,0 0,-21.4286 21.428569,0 0,21.4286 214.28572,0 0,-21.4286 21.42857,0 0,21.4286 21.42857,0 0,21.4286 -21.42857,0 0,214.285803 21.42857,0 0,21.429 -21.42857,0 0,21.428 -21.42857,0 0,-21.428 -214.28572,0 0,21.428 -21.428569,0 0,-21.428 -21.428571,0 0,-21.429 z m 42.85714,-214.285803 0,94.653803 c -5.256695,3.148 -10.714283,5.29 -10.714283,12.489 0,7.199 5.457588,9.342 10.714283,12.489 l 0,94.654 94.65402,0 c 3.14732,5.257 5.29018,10.714 12.48884,10.714 7.19866,0 9.34152,-5.457 12.48884,-10.714 l 94.65402,0 0,-94.654 c 5.25669,-3.147 10.71428,-5.29 10.71428,-12.489 0,-7.199 -5.45759,-9.341 -10.71428,-12.489 l 0,-94.653803 -94.65402,0 c -3.14732,-5.2567 -5.29018,-10.7143 -12.48884,-10.7143 -7.19866,0 -9.34152,5.4576 -12.48884,10.7143 l -94.65402,0 z"
     inkscape:connector-curvature="0"
     style="fill:#252525" /><path
     id="curve3"
     d="m 287.14286,180.00015 -53.57143,-32.143 0,64.286 z"
     inkscape:connector-curvature="0"
     style="fill:#252525" /><path
     id="curve2"
     d="m 180,287.14315 32.14286,-53.571 -64.28572,0 z"
     inkscape:connector-curvature="0"
     style="fill:#252525" /><path
     id="curve1"
     d="m 72.85714,180.00015 53.57143,-32.143 0,64.286 z"
     inkscape:connector-curvature="0"
     style="fill:#252525" /><path
     id="curve0"
     d="m 180,72.857347 32.14286,53.571803 -64.28572,0 z"
     inkscape:connector-curvature="0"
     style="fill:#252525" /></svg>