<?xml version="1.0" encoding="UTF-8" standalone="no"?>
<svg
   xmlns:dc="http://purl.org/dc/elements/1.1/"
   xmlns:cc="http://creativecommons.org/ns#"
   xmlns:rdf="http://www.w3.org/1999/02/22-rdf-syntax-ns#"
   xmlns:svg="http://www.w3.org/2000/svg"
   xmlns="http://www.w3.org/2000/svg"
   xmlns:sodipodi="http://sodipodi.sourceforge.net/DTD/sodipodi-0.dtd"
   xmlns:inkscape="http://www.inkscape.org/namespaces/inkscape"
   xml:space="preserve"
   width="36"
   height="36"
   viewBox="0 0 360 360"
   id="svg2"
   version="1.1"
   inkscape:version="0.91 r13725"
   sodipodi:docname="graph.svg"
   style="clip-rule:evenodd;fill-rule:evenodd;image-rendering:optimizeQuality;shape-rendering:geometricPrecision;text-rendering:geometricPrecision"
   inkscape:export-filename="C:\code\qtl\common\client\src\main\webapp\html\GeneMap\assets\img\graph_no_shadow.png"
   inkscape:export-xdpi="90"
   inkscape:export-ydpi="90"><metadata
     id="metadata20"><rdf:RDF><cc:Work
         rdf:about=""><dc:format>image/svg+xml</dc:format><dc:type
           rdf:resource="http://purl.org/dc/dcmitype/StillImage" /><dc:title>graph icon</dc:title></cc:Work></rdf:RDF></metadata><defs
     id="defs18" /><sodipodi:namedview
     pagecolor="#ffffff"
     bordercolor="#666666"
     borderopacity="1"
     objecttolerance="10"
     gridtolerance="10"
     guidetolerance="10"
     inkscape:pageopacity="0"
     inkscape:pageshadow="2"
     inkscape:window-width="1920"
     inkscape:window-height="1018"
     id="namedview16"
     showgrid="false"
     inkscape:zoom="14.707821"
     inkscape:cx="38.463197"
     inkscape:cy="25.998186"
     inkscape:window-x="-8"
     inkscape:window-y="-8"
     inkscape:window-maximized="1"
     inkscape:current-layer="svg2" /><title
     id="title4">graph icon</title><desc
     id="desc6">graph icon from the IconExperience.com O-Collection. Copyright by INCORS GmbH (www.incors.com).</desc><path
     id="curve7"
     d="m 164.0625,264.04004 69.57589,-17.37749 c 0.33482,7.39999 2.14286,14.43082 5.18974,20.75915 l -69.57589,17.37749 c -0.33483,-7.39999 -2.14286,-14.43082 -5.18974,-20.75915 z"
     style="fill:#444444;fill-opacity:1"
     inkscape:connector-curvature="0" /><path
     id="curve6"
     d="m 262.43304,196.74091 -14.02902,-49.0508 c 7.36607,-0.57 14.33036,-2.61167 20.59152,-5.89333 l 14.02901,49.05163 c -7.36607,0.56917 -14.33036,2.61167 -20.59151,5.8925 z"
     style="fill:#444444;fill-opacity:1"
     inkscape:connector-curvature="0" /><path
     id="curve5"
     d="M 135.90402,237.52255 206.25,132.02011 c 5.0558,5.08917 11.08259,9.14083 17.8125,11.88583 l -70.34598,105.50244 c -5.0558,-5.08916 -11.08259,-9.14083 -17.8125,-11.88583 z"
     style="fill:#444444;fill-opacity:1"
     inkscape:connector-curvature="0" /><path
     id="curve4"
     d="m 126.26116,68.73881 67.23214,8.403995 c -1.80803,5.39066 -2.8125,11.14958 -2.8125,17.14291 0,1.37275 0.067,2.7455 0.16741,4.11824 l -67.23214,-8.40399 c 1.80804,-5.39058 2.8125,-11.14958 2.8125,-17.14282 0,-1.37275 -0.067,-2.74559 -0.16741,-4.118335 z"
     style="fill:#444444;fill-opacity:1"
     inkscape:connector-curvature="0" /><path
     id="curve3"
     d="m 115.71428,244.28588 c 23.67188,0 42.85715,19.18499 42.85715,42.85664 0,23.67249 -19.18527,42.85748 -42.85715,42.85748 -23.671871,0 -42.857138,-19.18499 -42.857138,-42.85748 0,-23.67165 19.185267,-42.85664 42.857138,-42.85664 z m 0,21.42832 c 11.8192,0 21.42858,9.60916 21.42858,21.42832 0,11.81916 -9.60938,21.42916 -21.42858,21.42916 -11.81919,0 -21.428563,-9.61 -21.428563,-21.42916 0,-11.81916 9.609373,-21.42832 21.428563,-21.42832 z"
     style="fill:#444444;fill-opacity:1"
     inkscape:connector-curvature="0" /><path
     id="curve2"
     d="m 287.14285,201.42841 c 23.67188,0 42.85715,19.18499 42.85715,42.85747 0,23.67166 -19.18527,42.85664 -42.85715,42.85664 -23.67187,0 -42.85714,-19.18498 -42.85714,-42.85664 0,-23.67248 19.18527,-42.85747 42.85714,-42.85747 z m 0,21.42832 c 11.8192,0 21.42858,9.60999 21.42858,21.42915 0,11.81916 -9.60938,21.42832 -21.42858,21.42832 -11.81919,0 -21.42856,-9.60916 -21.42856,-21.42832 0,-11.81916 9.60937,-21.42915 21.42856,-21.42915 z"
     style="fill:#444444;fill-opacity:1"
     inkscape:connector-curvature="0" /><path
     id="curve1"
     d="m 244.28571,51.42857 c 23.67188,0 42.85714,19.185235 42.85714,42.857145 0,23.671825 -19.18526,42.856895 -42.85714,42.856895 -23.67187,0 -42.85714,-19.18507 -42.85714,-42.856895 0,-23.67191 19.18527,-42.857145 42.85714,-42.857145 z m 0,21.428575 c 11.8192,0 21.42858,9.60932 21.42858,21.42857 0,11.819165 -9.60938,21.428495 -21.42858,21.428495 -11.81919,0 -21.42857,-9.60933 -21.42857,-21.428495 0,-11.81925 9.60938,-21.42857 21.42857,-21.42857 z"
     style="fill:#444444;fill-opacity:1"
     inkscape:connector-curvature="0" /><path
     id="curve0"
     d="m 72.857142,29.999999 c 23.671876,0 42.857138,19.185239 42.857138,42.857146 0,23.67182 -19.185262,42.857065 -42.857138,42.857065 C 49.185267,115.71421 30,96.528965 30,72.857145 30,49.185238 49.185267,29.999999 72.857142,29.999999 Z m 0,21.428571 c 11.8192,0 21.428575,9.609328 21.428575,21.428575 0,11.81916 -9.609375,21.42857 -21.428575,21.42857 -11.819192,0 -21.428567,-9.60941 -21.428567,-21.42857 0,-11.819247 9.609375,-21.428575 21.428567,-21.428575 z"
     style="fill:#444444;fill-opacity:1"
     inkscape:connector-curvature="0" /></svg>