<svg xmlns="http://www.w3.org/2000/svg" viewBox="0 0 100 100" shape-rendering="geometricPrecision" fill-rule="evenodd" image-rendering="optimizeQuality" clip-rule="evenodd">
 <ellipse cx="50" cy="50" rx="48" ry="48" fill="#FFF" fill-rule="nonzero" stroke="#000" stroke-linecap="square" stroke-width="4"/>
 <g fill="#252525">
  <path d="m46.28 71.61l16.234-4.055c.078 1.727.5 3.368 1.211 4.844l-16.234 4.054c-.078-1.727-.5-3.367-1.211-4.843"/>
  <path d="m69.23 55.906l-3.273-11.445c1.719-.136 3.344-.609 4.805-1.375l3.273 11.445c-1.719.129-3.344.609-4.805 1.375"/>
  <path d="m39.711 65.42l16.414-24.618c1.18 1.188 2.586 2.133 4.156 2.774l-16.414 24.617c-1.18-1.188-2.586-2.133-4.156-2.773"/>
  <path d="m37.461 26.04l15.688 1.961c-.422 1.257-.656 2.601-.656 4 0 .323.014.638.036.961l-15.687-1.961c.422-1.258.656-2.601.656-4 0-.323-.014-.638-.036-.961"/>
 </g>
 <g fill="#a1c057">
  <path d="m35 67c5.523 0 10 4.476 10 10 0 5.524-4.477 10-10 10-5.523 0-10-4.476-10-10 0-5.524 4.477-10 10-10m0 5c2.758 0 5 2.242 5 5 0 2.758-2.242 5-5 5-2.758 0-5-2.242-5-5 0-2.758 2.242-5 5-5"/>
  <path d="m75 57c5.523 0 10 4.477 10 10 0 5.524-4.477 10-10 10-5.523 0-10-4.476-10-10 0-5.523 4.477-10 10-10m0 5c2.758 0 5 2.242 5 5 0 2.758-2.242 5-5 5-2.758 0-5-2.242-5-5 0-2.758 2.242-5 5-5"/>
  <path d="m65 22c5.523 0 10 4.476 10 10 0 5.524-4.477 10-10 10-5.523 0-10-4.476-10-10 0-5.524 4.477-10 10-10m0 5c2.758 0 5 2.242 5 5 0 2.758-2.242 5-5 5-2.758 0-5-2.243-5-5 0-2.758 2.242-5 5-5"/>
  <path d="m25 17c5.523 0 10 4.476 10 10 0 5.523-4.477 10-10 10-5.523 0-10-4.477-10-10 0-5.524 4.477-10 10-10m0 5c2.758 0 5 2.242 5 5 0 2.758-2.242 5-5 5-2.758 0-5-2.242-5-5 0-2.758 2.242-5 5-5"/>
 </g>
</svg>
