<?xml version="1.0" encoding="UTF-8"?>
<!DOCTYPE svg PUBLIC "-//W3C//DTD SVG 1.1//EN" "http://www.w3.org/Graphics/SVG/1.1/DTD/svg11.dtd">
<svg xmlns="http://www.w3.org/2000/svg" xml:space="preserve" width="1024px" height="1024px" shape-rendering="geometricPrecision" text-rendering="geometricPrecision" image-rendering="optimizeQuality" fill-rule="evenodd" clip-rule="evenodd" viewBox="0 0 10240 10240" xmlns:xlink="http://www.w3.org/1999/xlink">
	<title>arrow_circle icon</title>
	<desc>arrow_circle icon from the IconExperience.com O-Collection. Copyright by INCORS GmbH (www.incors.com).</desc>
	<path id="curve0" fill="#444444" d="M4308 3973l-1186 -1186c-125,-125 -124,-328 0,-453l1186 -1186c124,-124 277,-186 453,-187l839 -7c66,-1 123,38 148,99 25,61 12,128 -35,174l-687 687 94 7c884,0 1684,358 2263,937 579,579 937,1379 937,2263 0,884 -358,1684 -937,2263 -579,579 -1379,937 -2263,937 -884,0 -1684,-358 -2263,-937 -579,-579 -937,-1379 -937,-2263 0,-859 339,-1639 890,-2214 24,38 53,74 86,107l809 809c-314,342 -505,798 -505,1298 0,530 215,1010 562,1358 347,347 827,562 1358,562 530,0 1010,-215 1358,-562 347,-347 562,-827 562,-1358 0,-530 -215,-1010 -562,-1358 -347,-347 -827,-562 -1358,-562 -29,0 -57,1 -85,2l678 678c47,47 60,113 35,174 -25,61 -82,98 -148,99l-839 7c-176,1 -328,-63 -453,-187z"/>
</svg>
