<?xml version="1.0" encoding="UTF-8" standalone="no"?>
<svg
   xmlns:dc="http://purl.org/dc/elements/1.1/"
   xmlns:cc="http://creativecommons.org/ns#"
   xmlns:rdf="http://www.w3.org/1999/02/22-rdf-syntax-ns#"
   xmlns:svg="http://www.w3.org/2000/svg"
   xmlns="http://www.w3.org/2000/svg"
   xmlns:sodipodi="http://sodipodi.sourceforge.net/DTD/sodipodi-0.dtd"
   xmlns:inkscape="http://www.inkscape.org/namespaces/inkscape"
   xml:space="preserve"
   width="36"
   height="36"
   viewBox="0 0 360 360"
   id="svg2"
   version="1.1"
   inkscape:version="0.91 r13725"
   sodipodi:docname="tag_manual.svg"
   style="clip-rule:evenodd;fill-rule:evenodd;image-rendering:optimizeQuality;shape-rendering:geometricPrecision;text-rendering:geometricPrecision"
   inkscape:export-filename="C:\code\qtl\common\client\src\main\webapp\html\GeneMap\assets\img\tag_manual.png"
   inkscape:export-xdpi="90"
   inkscape:export-ydpi="90"><metadata
     id="metadata13"><rdf:RDF><cc:Work
         rdf:about=""><dc:format>image/svg+xml</dc:format><dc:type
           rdf:resource="http://purl.org/dc/dcmitype/StillImage" /><dc:title>tag icon</dc:title></cc:Work></rdf:RDF></metadata><defs
     id="defs11" /><sodipodi:namedview
     pagecolor="#ffffff"
     bordercolor="#666666"
     borderopacity="1"
     objecttolerance="10"
     gridtolerance="10"
     guidetolerance="10"
     inkscape:pageopacity="0"
     inkscape:pageshadow="2"
     inkscape:window-width="1920"
     inkscape:window-height="1018"
     id="namedview9"
     showgrid="false"
     inkscape:zoom="14.75"
     inkscape:cx="28.346425"
     inkscape:cy="27.943826"
     inkscape:window-x="-8"
     inkscape:window-y="-8"
     inkscape:window-maximized="1"
     inkscape:current-layer="svg2" /><title
     id="title4">tag icon</title><desc
     id="desc6">tag icon from the IconExperience.com O-Collection. Copyright by INCORS GmbH (www.incors.com).</desc><path
     id="curve0"
     d="M 30,157.74843 30,54.369354 c 0,-13.403092 10.964815,-24.36935 24.366255,-24.36935 l 103.366225,0 c 6.70072,0 12.4877,2.398835 17.24674,7.120422 L 322.89,185.05011 c 9.47999,9.48084 9.47999,24.97835 0,34.46002 L 219.52378,322.88937 c -9.48,9.48084 -24.97541,9.48084 -34.45541,0 L 37.119515,174.95927 C 32.360481,170.2001 30,164.4501 30,157.71093 Z M 64.455408,167.83927 167.82163,64.459778 305.64326,202.29929 202.27703,305.67853 64.455408,167.83927 Z M 78.73251,54.369354 c 13.439515,0 24.36626,10.928174 24.36626,24.36935 0,13.441259 -10.926745,24.369436 -24.36626,24.369436 -13.439512,0 -24.366255,-10.928177 -24.366255,-24.369436 0,-13.441176 10.926743,-24.36935 24.366255,-24.36935 z"
     inkscape:connector-curvature="0"
     style="fill:#444444;fill-opacity:1" /><path
     id="curve1-8-8"
     d="m 197.87839,237.10126 11.86194,11.86194 41.51683,-41.51682 -11.86195,-11.86195 c -3.27129,-3.27129 -8.59063,-3.27129 -11.86194,2e-5 l -29.65489,29.65489 c -3.27131,3.27131 -3.27129,8.59063 1e-5,11.86192 z"
     inkscape:connector-curvature="0"
     style="clip-rule:evenodd;fill:#444444;fill-opacity:1;fill-rule:evenodd;image-rendering:optimizeQuality;shape-rendering:geometricPrecision;text-rendering:geometricPrecision" /><path
     id="curve0-8-1"
     d="m 214.06806,168.71894 c 1.5013,6.6167 7.19134,14.66068 10.34212,17.81146 l 3.64199,3.64199 c -1.26036,0.59311 -2.43723,1.41794 -3.47512,2.45584 l -2.96553,2.96552 -3.13235,-3.13235 c -5.26374,-5.26374 -10.98151,-14.63285 -12.59404,-21.93533 l -7.15421,-32.45364 c -0.4911,-2.21487 -2.77084,-3.66053 -4.98573,-3.16934 -1.82559,0.39844 -3.16941,2.0388 -3.26199,3.89218 l 4.59649,21.1662 c 0.43554,2.01098 -0.62089,4.01265 -2.53922,4.78188 -1.91831,0.76915 -4.05902,0.0556 -5.14324,-1.69593 l -15.93028,-25.97581 c -1.18619,-1.92757 -3.81801,-2.55778 -5.74558,-1.37158 -1.92764,1.18625 -2.54848,3.80882 -1.37155,5.74564 l 15.55028,25.35494 c 1.07499,1.76076 0.7413,4.00346 -0.82483,5.36573 -1.55682,1.35295 -3.82726,1.38074 -5.42128,0.0648 L 144.20301,147.8956 c -1.74222,-1.44567 -4.43896,-1.19546 -5.89391,0.55603 -1.44567,1.74222 -1.19546,4.43895 0.54671,5.88468 l 29.40475,24.28919 c 1.59394,1.31591 1.9924,3.54934 0.96374,5.33793 -1.02866,1.78852 -3.17863,2.54844 -5.10619,1.82561 l -30.37773,-11.45423 c -2.15001,-0.81548 -4.58721,0.28726 -5.40272,2.43723 -0.8155,2.14998 0.28723,4.58728 2.43726,5.40274 l 21.69442,8.18291 6.36647,2.40025 c 3.3269,1.25106 5.41205,4.26288 5.43057,7.82148 0.009,3.5493 -2.05726,6.57963 -5.37493,7.8585 l -3.12305,1.58472 c -4.00341,2.14997 -10.1846,6.92256 -7.35809,12.12142 0,0 0,0 0,0 5.93096,-4.20726 12.47358,-6.69089 19.79462,-6.72795 2.7801,-0.0185 5.51397,0.34287 8.2477,0.85256 3.92008,0.73218 5.28233,0.63018 9.24869,0.0926 1.81635,-0.24096 3.53079,-0.45403 5.37492,-0.29646 2.72456,0.24096 4.87454,1.35293 6.79289,3.27128 l -2.96548,2.96548 c -1.03795,1.03795 -1.8628,2.2148 -2.45587,3.4751 l -0.50961,-0.50961 c -0.52828,-0.52827 -0.88029,-0.7878 -1.61252,-0.85262 -1.08428,-0.10184 -2.43728,0.10201 -3.51227,0.25025 -5.09696,0.68571 -6.88552,0.76922 -11.89898,-0.16682 -2.20564,-0.40778 -4.42978,-0.72281 -6.66318,-0.71354 -5.58807,0.0278 -10.48111,1.97388 -14.98491,5.18031 -4.13316,2.92842 -9.81397,1.60324 -12.23266,-2.83573 -5.27309,-9.72123 1.97389,-18.78453 10.75912,-23.51078 l 2.97475,-1.60318 1.0936,-0.42636 -28.06102,-10.58302 c -6.48702,-2.44654 -9.76757,-9.73052 -7.32106,-16.21752 2.45581,-6.47776 9.72131,-9.75836 16.20829,-7.31182 l 6.79284,2.56696 -9.9808,-8.23843 c -5.32856,-4.40195 -6.07919,-12.38097 -1.67729,-17.69107 4.40187,-5.32854 12.37159,-6.06991 17.69104,-1.67735 l 10.03625,8.29418 -2.38163,-3.88299 c -3.60493,-5.88463 -1.76075,-13.65978 4.11463,-17.27401 5.88462,-3.62339 13.67828,-1.76069 17.29247,4.11468 l 3.48451,5.67145 c 0.27795,-5.50465 4.20725,-10.39773 9.8324,-11.64877 6.7465,-1.50128 13.50227,2.80794 14.98503,9.55441 l 7.15425,32.45359 z"
     inkscape:connector-curvature="0"
     style="clip-rule:evenodd;fill:#444444;fill-opacity:1;fill-rule:evenodd;image-rendering:optimizeQuality;shape-rendering:geometricPrecision;text-rendering:geometricPrecision" /></svg>