<svg width="1363px" height="1372px"
 viewBox="0.00 0.00 1022.45 1028.85" xmlns="http://www.w3.org/2000/svg" xmlns:xlink="http://www.w3.org/1999/xlink">
<g id="graph0" class="graph" transform=" rotate(0) translate(4 1024.85)">
<polygon fill="white" stroke="transparent" points="-4,4 -4,-1024.85 1018.45,-1024.85 1018.45,4 -4,4"/>
<!-- MolFunc(3) -->
<g id="node1" class="node">
<title>MolFunc(3)</title>
<polygon fill="none" stroke="darkgreen" points="804.65,-815.39 804.65,-830.3 770.5,-840.85 722.22,-840.85 688.07,-830.3 688.07,-815.39 722.22,-804.85 770.5,-804.85 804.65,-815.39"/>
<polygon fill="none" stroke="darkgreen" points="808.64,-812.44 808.64,-833.26 771.1,-844.85 721.61,-844.85 684.08,-833.26 684.08,-812.44 721.61,-800.85 771.1,-800.85 808.64,-812.44"/>
<text text-anchor="middle" x="746.36" y="-819.15" font-family="Times,serif" font-size="14.00">MolFunc(3)</text>
</g>
<!-- Phenotype(13) -->
<g id="node2" class="node">
<title>Phenotype(13)</title>
<polygon fill="none" stroke="darkgreen" points="813.93,-728.39 813.93,-743.3 774.35,-753.85 718.37,-753.85 678.79,-743.3 678.79,-728.39 718.37,-717.85 774.35,-717.85 813.93,-728.39"/>
<polygon fill="none" stroke="darkgreen" points="817.93,-725.32 817.93,-746.38 774.87,-757.85 717.85,-757.85 674.79,-746.38 674.79,-725.32 717.85,-713.85 774.87,-713.85 817.93,-725.32"/>
<text text-anchor="middle" x="746.36" y="-732.15" font-family="Times,serif" font-size="14.00">Phenotype(13)</text>
</g>
<!-- EC(15) -->
<g id="node3" class="node">
<title>EC(15)</title>
<polygon fill="none" stroke="darkgreen" points="498.56,-903.39 498.56,-918.3 475.53,-928.85 442.98,-928.85 419.95,-918.3 419.95,-903.39 442.98,-892.85 475.53,-892.85 498.56,-903.39"/>
<polygon fill="none" stroke="darkgreen" points="502.55,-900.82 502.55,-920.87 476.4,-932.85 442.11,-932.85 415.96,-920.87 415.96,-900.82 442.11,-888.85 476.4,-888.85 502.55,-900.82"/>
<text text-anchor="middle" x="459.25" y="-907.15" font-family="Times,serif" font-size="14.00">EC(15)</text>
</g>
<!-- EC(15)&#45;&gt;MolFunc(3) -->
<g id="edge20" class="edge">
<title>EC(15)&#45;&gt;MolFunc(3)</title>
<path fill="none" stroke="blue" d="M502.61,-902.09C542.8,-893.3 604.64,-878.56 656.82,-860.85 673.77,-855.09 692.02,-847.51 707.52,-840.63"/>
<text text-anchor="middle" x="606.32" y="-892.65" font-family="Times,serif" font-size="14.00">equ</text>
</g>
<!-- Protein(7) -->
<g id="node4" class="node">
<title>Protein(7)</title>
<polygon fill="none" stroke="darkgreen" points="509.15,-190.39 509.15,-205.3 479.92,-215.85 438.58,-215.85 409.35,-205.3 409.35,-190.39 438.58,-179.85 479.92,-179.85 509.15,-190.39"/>
<polygon fill="none" stroke="darkgreen" points="513.15,-187.58 513.15,-208.11 480.62,-219.85 437.89,-219.85 405.36,-208.11 405.36,-187.58 437.89,-175.85 480.62,-175.85 513.15,-187.58"/>
<text text-anchor="middle" x="459.25" y="-194.15" font-family="Times,serif" font-size="14.00">Protein(7)</text>
</g>
<!-- Protein(7)&#45;&gt;Protein(7) -->
<g id="edge23" class="edge">
<title>Protein(7)&#45;&gt;Protein(7)</title>
<path fill="none" stroke="black" d="M432.69,-218.43C429.01,-228.69 437.87,-237.85 459.25,-237.85 472.96,-237.85 481.51,-234.09 484.93,-228.69"/>
<polygon fill="black" stroke="black" points="488.44,-228.69 485.82,-218.43 481.47,-228.09 488.44,-228.69"/>
<text text-anchor="middle" x="459.25" y="-241.65" font-family="Times,serif" font-size="14.00">it_wi(&lt;=5)</text>
</g>
<!-- Disease(22) -->
<g id="node5" class="node">
<title>Disease(22)</title>
<polygon fill="none" stroke="darkgreen" points="803.33,-307.39 803.33,-322.3 769.96,-332.85 722.76,-332.85 689.39,-322.3 689.39,-307.39 722.76,-296.85 769.96,-296.85 803.33,-307.39"/>
<polygon fill="none" stroke="darkgreen" points="807.33,-304.46 807.33,-325.23 770.57,-336.85 722.15,-336.85 685.39,-325.23 685.39,-304.46 722.15,-292.85 770.57,-292.85 807.33,-304.46"/>
<text text-anchor="middle" x="746.36" y="-311.15" font-family="Times,serif" font-size="14.00">Disease(22)</text>
</g>
<!-- Protein(7)&#45;&gt;Disease(22) -->
<g id="edge22" class="edge">
<title>Protein(7)&#45;&gt;Disease(22)</title>
<path fill="none" stroke="black" d="M498.41,-213.5C552.12,-235.55 649.61,-275.56 704.67,-298.15"/>
<text text-anchor="middle" x="606.32" y="-281.65" font-family="Times,serif" font-size="14.00">inv_in</text>
</g>
<!-- KO(23) -->
<g id="node20" class="node">
<title>KO(23)</title>
<ellipse fill="none" stroke="black" cx="746.36" cy="-169.85" rx="38.19" ry="18"/>
<text text-anchor="middle" x="746.36" y="-166.15" font-family="Times,serif" font-size="14.00">KO(23)</text>
</g>
<!-- Protein(7)&#45;&gt;KO(23) -->
<g id="edge21" class="edge">
<title>Protein(7)&#45;&gt;KO(23)</title>
<path fill="none" stroke="blue" d="M513.21,-192.65C570.06,-187.06 658.87,-178.34 708.55,-173.46"/>
<text text-anchor="middle" x="606.32" y="-192.65" font-family="Times,serif" font-size="14.00">has_function</text>
</g>
<!-- Gene(8) -->
<g id="node6" class="node">
<title>Gene(8)</title>
<polygon fill="none" stroke="darkgreen" points="502.09,-565.39 502.09,-580.3 477,-590.85 441.51,-590.85 416.42,-580.3 416.42,-565.39 441.51,-554.85 477,-554.85 502.09,-565.39"/>
<polygon fill="none" stroke="darkgreen" points="506.08,-562.73 506.08,-582.96 477.8,-594.85 440.71,-594.85 412.43,-582.96 412.43,-562.73 440.71,-550.85 477.8,-550.85 506.08,-562.73"/>
<text text-anchor="middle" x="459.25" y="-569.15" font-family="Times,serif" font-size="14.00">Gene(8)</text>
</g>
<!-- CelComp(5) -->
<g id="node7" class="node">
<title>CelComp(5)</title>
<polygon fill="none" stroke="darkgreen" points="805.97,-654.39 805.97,-669.3 771.05,-679.85 721.67,-679.85 686.75,-669.3 686.75,-654.39 721.67,-643.85 771.05,-643.85 805.97,-654.39"/>
<polygon fill="none" stroke="darkgreen" points="809.95,-651.42 809.95,-672.28 771.64,-683.85 721.08,-683.85 682.77,-672.28 682.77,-651.42 721.08,-639.85 771.64,-639.85 809.95,-651.42"/>
<text text-anchor="middle" x="746.36" y="-658.15" font-family="Times,serif" font-size="14.00">CelComp(5)</text>
</g>
<!-- Publication(2) -->
<g id="node8" class="node">
<title>Publication(2)</title>
<polygon fill="none" stroke="darkgreen" points="812.61,-57.39 812.61,-72.3 773.8,-82.85 718.92,-82.85 680.11,-72.3 680.11,-57.39 718.92,-46.85 773.8,-46.85 812.61,-57.39"/>
<polygon fill="none" stroke="darkgreen" points="816.62,-54.33 816.62,-75.36 774.34,-86.85 718.38,-86.85 676.1,-75.36 676.1,-54.33 718.38,-42.85 774.34,-42.85 816.62,-54.33"/>
<text text-anchor="middle" x="746.36" y="-61.15" font-family="Times,serif" font-size="14.00">Publication(2)</text>
</g>
<!-- BioProc(4) -->
<g id="node9" class="node">
<title>BioProc(4)</title>
<polygon fill="none" stroke="darkgreen" points="800.69,-580.39 800.69,-595.3 768.86,-605.85 723.86,-605.85 692.03,-595.3 692.03,-580.39 723.86,-569.85 768.86,-569.85 800.69,-580.39"/>
<polygon fill="none" stroke="darkgreen" points="804.7,-577.51 804.7,-598.19 769.51,-609.85 723.21,-609.85 688.02,-598.19 688.02,-577.51 723.21,-565.85 769.51,-565.85 804.7,-577.51"/>
<text text-anchor="middle" x="746.36" y="-584.15" font-family="Times,serif" font-size="14.00">BioProc(4)</text>
</g>
<!-- ProtDomain(14) -->
<g id="node10" class="node">
<title>ProtDomain(14)</title>
<polygon fill="none" stroke="darkgreen" points="533.89,-449.39 533.89,-464.3 490.17,-474.85 428.34,-474.85 384.62,-464.3 384.62,-449.39 428.34,-438.85 490.17,-438.85 533.89,-449.39"/>
<polygon fill="none" stroke="darkgreen" points="537.89,-446.24 537.89,-467.45 490.65,-478.85 427.86,-478.85 380.61,-467.45 380.61,-446.24 427.86,-434.85 490.65,-434.85 537.89,-446.24"/>
<text text-anchor="middle" x="459.25" y="-453.15" font-family="Times,serif" font-size="14.00">ProtDomain(14)</text>
</g>
<!-- Enzyme(17) -->
<g id="node11" class="node">
<title>Enzyme(17)</title>
<polygon fill="none" stroke="darkgreen" points="518.44,-285.39 518.44,-300.3 483.77,-310.85 434.74,-310.85 400.07,-300.3 400.07,-285.39 434.74,-274.85 483.77,-274.85 518.44,-285.39"/>
<polygon fill="none" stroke="darkgreen" points="522.44,-282.43 522.44,-303.27 484.36,-314.85 434.14,-314.85 396.07,-303.27 396.07,-282.43 434.14,-270.85 484.36,-270.85 522.44,-282.43"/>
<text text-anchor="middle" x="459.25" y="-289.15" font-family="Times,serif" font-size="14.00">Enzyme(17)</text>
</g>
<!-- Path(24) -->
<g id="node12" class="node">
<title>Path(24)</title>
<polygon fill="none" stroke="darkgreen" points="998.33,-553.39 998.33,-568.3 972.46,-578.85 935.88,-578.85 910.02,-568.3 910.02,-553.39 935.88,-542.85 972.46,-542.85 998.33,-553.39"/>
<polygon fill="none" stroke="darkgreen" points="1002.32,-550.7 1002.32,-571 973.24,-582.85 935.11,-582.85 906.03,-571 906.03,-550.7 935.11,-538.85 973.24,-538.85 1002.32,-550.7"/>
<text text-anchor="middle" x="954.17" y="-557.15" font-family="Times,serif" font-size="14.00">Path(24)</text>
</g>
<!-- Path(20) -->
<g id="node13" class="node">
<title>Path(20)</title>
<polygon fill="none" stroke="darkgreen" points="998.33,-491.39 998.33,-506.3 972.46,-516.85 935.88,-516.85 910.02,-506.3 910.02,-491.39 935.88,-480.85 972.46,-480.85 998.33,-491.39"/>
<polygon fill="none" stroke="darkgreen" points="1002.32,-488.7 1002.32,-509 973.24,-520.85 935.11,-520.85 906.03,-509 906.03,-488.7 935.11,-476.85 973.24,-476.85 1002.32,-488.7"/>
<text text-anchor="middle" x="954.17" y="-495.15" font-family="Times,serif" font-size="14.00">Path(20)</text>
</g>
<!-- Comp(255) -->
<g id="node14" class="node">
<title>Comp(255)</title>
<polygon fill="none" stroke="darkgreen" points="1010.25,-429.39 1010.25,-444.3 977.4,-454.85 930.95,-454.85 898.1,-444.3 898.1,-429.39 930.95,-418.85 977.4,-418.85 1010.25,-429.39"/>
<polygon fill="none" stroke="darkgreen" points="1014.23,-426.47 1014.23,-447.22 978.02,-458.85 930.33,-458.85 894.11,-447.22 894.11,-426.47 930.33,-414.85 978.02,-414.85 1014.23,-426.47"/>
<text text-anchor="middle" x="954.17" y="-433.15" font-family="Times,serif" font-size="14.00">Comp(255)</text>
</g>
<!-- Reaction(19) -->
<g id="node15" class="node">
<title>Reaction(19)</title>
<polygon fill="none" stroke="darkgreen" points="807.76,-518.39 807.76,-533.3 771.79,-543.85 720.93,-543.85 684.96,-533.3 684.96,-518.39 720.93,-507.85 771.79,-507.85 807.76,-518.39"/>
<polygon fill="none" stroke="darkgreen" points="811.77,-515.4 811.77,-536.3 772.37,-547.85 720.35,-547.85 680.95,-536.3 680.95,-515.4 720.35,-503.85 772.37,-503.85 811.77,-515.4"/>
<text text-anchor="middle" x="746.36" y="-522.15" font-family="Times,serif" font-size="14.00">Reaction(19)</text>
</g>
<!-- Gene(1) -->
<g id="node16" class="node">
<title>Gene(1)</title>
<ellipse fill="none" stroke="red" cx="43.65" cy="-286.85" rx="39.78" ry="39.78"/>
<ellipse fill="none" stroke="red" cx="43.65" cy="-286.85" rx="43.79" ry="43.79"/>
<text text-anchor="middle" x="43.65" y="-283.15" font-family="Times,serif" font-size="14.00">Gene(1)</text>
</g>
<!-- Gene(1)&#45;&gt;Phenotype(13) -->
<g id="edge35" class="edge">
<title>Gene(1)&#45;&gt;Phenotype(13)</title>
<path fill="none" stroke="blue" d="M43.86,-330.55C44.37,-450.55 64.14,-786.02 261.68,-933.85 402.59,-1039.3 540.35,-1039.79 656.82,-907.85 691.35,-868.73 648.59,-836.94 674.82,-791.85 683.24,-777.39 696.94,-765.23 710.04,-755.98"/>
<text text-anchor="middle" x="312.18" y="-1009.65" font-family="Times,serif" font-size="14.00">cooc_wi</text>
<text text-anchor="middle" x="312.18" y="-994.65" font-family="Times,serif" font-size="14.00">has_observ_pheno</text>
</g>
<!-- Gene(1)&#45;&gt;Protein(7) -->
<g id="edge36" class="edge">
<title>Gene(1)&#45;&gt;Protein(7)</title>
<path fill="none" stroke="black" d="M77.62,-258.94C117.97,-226.8 189.82,-175.86 261.68,-155.85 304.93,-143.81 318.75,-146.62 362.68,-155.85 369.02,-157.18 398.1,-170.13 422.54,-181.3"/>
<text text-anchor="middle" x="192.99" y="-215.65" font-family="Times,serif" font-size="14.00">enc</text>
</g>
<!-- Gene(1)&#45;&gt;Publication(2) -->
<g id="edge38" class="edge">
<title>Gene(1)&#45;&gt;Publication(2)</title>
<path fill="none" stroke="black" d="M67.57,-249.94C85.71,-222.55 112.82,-185.35 142.29,-157.85 233.3,-72.93 260.48,-43.18 380.68,-10.85 494.41,19.74 633.05,-21.54 702.03,-47.18"/>
<text text-anchor="middle" x="312.18" y="-75.65" font-family="Times,serif" font-size="14.00">occ_in</text>
<text text-anchor="middle" x="312.18" y="-60.65" font-family="Times,serif" font-size="14.00">pub_in</text>
</g>
<!-- Protein(10) -->
<g id="node18" class="node">
<title>Protein(10)</title>
<ellipse fill="none" stroke="black" cx="192.99" cy="-456.85" rx="50.89" ry="18"/>
<text text-anchor="middle" x="192.99" y="-453.15" font-family="Times,serif" font-size="14.00">Protein(10)</text>
</g>
<!-- Gene(1)&#45;&gt;Protein(10) -->
<g id="edge37" class="edge">
<title>Gene(1)&#45;&gt;Protein(10)</title>
<path fill="none" stroke="blue" d="M73.06,-319.62C104.16,-355.52 152.85,-411.69 177.15,-439.73"/>
<text text-anchor="middle" x="114.79" y="-380.65" font-family="Times,serif" font-size="14.00">enc</text>
</g>
<!-- EC(12) -->
<g id="node17" class="node">
<title>EC(12)</title>
<ellipse fill="none" stroke="black" cx="459.25" cy="-852.85" rx="36.29" ry="18"/>
<text text-anchor="middle" x="459.25" y="-849.15" font-family="Times,serif" font-size="14.00">EC(12)</text>
</g>
<!-- EC(12)&#45;&gt;MolFunc(3) -->
<g id="edge1" class="edge">
<title>EC(12)&#45;&gt;MolFunc(3)</title>
<path fill="none" stroke="black" d="M494.93,-849.2C541.82,-844.26 626.23,-835.38 683.98,-829.31"/>
<text text-anchor="middle" x="606.32" y="-845.65" font-family="Times,serif" font-size="14.00">equ</text>
</g>
<!-- Protein(10)&#45;&gt;MolFunc(3) -->
<g id="edge11" class="edge">
<title>Protein(10)&#45;&gt;MolFunc(3)</title>
<path fill="none" stroke="blue" d="M194.36,-475.12C196.16,-518.68 206.25,-630.06 261.68,-698.85 299.24,-745.44 324,-742.66 380.68,-761.85 483.75,-796.73 610.2,-812.16 683.89,-818.61"/>
<text text-anchor="middle" x="459.25" y="-802.65" font-family="Times,serif" font-size="14.00">has_function</text>
</g>
<!-- Protein(10)&#45;&gt;Phenotype(13) -->
<g id="edge5" class="edge">
<title>Protein(10)&#45;&gt;Phenotype(13)</title>
<path fill="none" stroke="blue" d="M194.32,-474.91C196.09,-515.21 206.19,-612.99 261.68,-664.85 320.13,-719.46 554.74,-732.14 674.4,-735.03"/>
<text text-anchor="middle" x="459.25" y="-746.65" font-family="Times,serif" font-size="14.00">cooc_wi</text>
<text text-anchor="middle" x="459.25" y="-731.65" font-family="Times,serif" font-size="14.00">has_observ_pheno</text>
</g>
<!-- Protein(10)&#45;&gt;EC(15) -->
<g id="edge2" class="edge">
<title>Protein(10)&#45;&gt;EC(15)</title>
<path fill="none" stroke="black" d="M194.25,-474.9C195.69,-547.46 204.84,-816.82 261.68,-874.85 301.5,-915.49 370.98,-918.84 415.77,-915.99"/>
<text text-anchor="middle" x="312.18" y="-918.65" font-family="Times,serif" font-size="14.00">cat_c</text>
</g>
<!-- Protein(10)&#45;&gt;Protein(7) -->
<g id="edge4" class="edge">
<title>Protein(10)&#45;&gt;Protein(7)</title>
<path fill="none" stroke="black" d="M193.97,-438.73C194.98,-397.33 203.57,-295.35 261.68,-242.85 295.7,-212.11 318,-232.1 362.68,-221.85 378.36,-218.25 395.41,-214.06 410.71,-210.2"/>
<text text-anchor="middle" x="312.18" y="-291.65" font-family="Times,serif" font-size="14.00">cat_c</text>
<text text-anchor="middle" x="312.18" y="-276.65" font-family="Times,serif" font-size="14.00">h_s_s(&lt;=6)</text>
<text text-anchor="middle" x="312.18" y="-261.65" font-family="Times,serif" font-size="14.00">ortho(&lt;=6)</text>
<text text-anchor="middle" x="312.18" y="-246.65" font-family="Times,serif" font-size="14.00">xref(&lt;=6)</text>
</g>
<!-- Protein(10)&#45;&gt;Protein(7) -->
<g id="edge19" class="edge">
<title>Protein(10)&#45;&gt;Protein(7)</title>
<path fill="none" stroke="blue" d="M195.46,-438.74C200.5,-381.51 219.22,-206.38 261.68,-172.85 296.91,-145.03 318.16,-167.12 362.68,-172.85 376.65,-174.64 391.48,-177.86 405.19,-181.4"/>
<polygon fill="blue" stroke="blue" points="404.38,-184.8 414.95,-184.01 406.19,-178.04 404.38,-184.8"/>
<text text-anchor="middle" x="312.18" y="-206.65" font-family="Times,serif" font-size="14.00">genetic(&lt;=6)</text>
<text text-anchor="middle" x="312.18" y="-191.65" font-family="Times,serif" font-size="14.00">it_wi(&lt;=6)</text>
<text text-anchor="middle" x="312.18" y="-176.65" font-family="Times,serif" font-size="14.00">physical(&lt;=6)</text>
</g>
<!-- Protein(10)&#45;&gt;Disease(22) -->
<g id="edge12" class="edge">
<title>Protein(10)&#45;&gt;Disease(22)</title>
<path fill="none" stroke="black" d="M214.92,-440.37C227.94,-430.54 245.29,-418.19 261.68,-408.85 311.99,-380.19 324.82,-371.04 380.68,-355.85 485.35,-327.39 612.09,-318.65 685.25,-315.99"/>
<text text-anchor="middle" x="459.25" y="-359.65" font-family="Times,serif" font-size="14.00">inv_in</text>
</g>
<!-- Protein(10)&#45;&gt;Gene(8) -->
<g id="edge6" class="edge">
<title>Protein(10)&#45;&gt;Gene(8)</title>
<path fill="none" stroke="black" d="M210.01,-474.06C222.87,-486.95 241.97,-504.13 261.68,-514.85 309.68,-540.92 370.79,-556.58 412.03,-564.94"/>
<text text-anchor="middle" x="312.18" y="-555.65" font-family="Times,serif" font-size="14.00">enc</text>
</g>
<!-- Protein(10)&#45;&gt;CelComp(5) -->
<g id="edge15" class="edge">
<title>Protein(10)&#45;&gt;CelComp(5)</title>
<path fill="none" stroke="blue" d="M195.25,-475C198.82,-511.38 212.21,-593.25 261.68,-634.85 329.17,-691.59 568.76,-675.31 656.82,-670.85 665.16,-670.42 673.91,-669.78 682.54,-669.03"/>
<text text-anchor="middle" x="459.25" y="-679.65" font-family="Times,serif" font-size="14.00">located_in</text>
</g>
<!-- Protein(10)&#45;&gt;Publication(2) -->
<g id="edge17" class="edge">
<title>Protein(10)&#45;&gt;Publication(2)</title>
<path fill="none" stroke="blue" d="M198.26,-438.74C207.23,-400.48 228.43,-308.51 243.68,-230.85 248.2,-207.83 244.79,-143.12 261.68,-126.85 263.54,-125.06 542.85,-90.07 676.12,-73.46"/>
<text text-anchor="middle" x="459.25" y="-114.65" font-family="Times,serif" font-size="14.00">pub_in</text>
</g>
<!-- Protein(10)&#45;&gt;BioProc(4) -->
<g id="edge16" class="edge">
<title>Protein(10)&#45;&gt;BioProc(4)</title>
<path fill="none" stroke="black" d="M231.04,-444.9C268.36,-433.54 327.83,-417.26 380.68,-410.85 502.54,-396.06 566.42,-332.82 656.82,-415.85 703.35,-458.58 637,-506.24 674.82,-556.85 680.43,-564.35 688.24,-570.06 696.64,-574.41"/>
<text text-anchor="middle" x="459.25" y="-414.65" font-family="Times,serif" font-size="14.00">participates_in</text>
</g>
<!-- Protein(10)&#45;&gt;ProtDomain(14) -->
<g id="edge9" class="edge">
<title>Protein(10)&#45;&gt;ProtDomain(14)</title>
<path fill="none" stroke="blue" d="M243.69,-456.85C282.19,-456.85 336.24,-456.85 380.45,-456.85"/>
<text text-anchor="middle" x="312.18" y="-460.65" font-family="Times,serif" font-size="14.00">has_domain</text>
</g>
<!-- Protein(10)&#45;&gt;Enzyme(17) -->
<g id="edge13" class="edge">
<title>Protein(10)&#45;&gt;Enzyme(17)</title>
<path fill="none" stroke="blue" d="M198.13,-438.5C205.59,-409.95 224.13,-355.33 261.68,-327.85 272.54,-319.9 342.52,-308.72 395.93,-301.15"/>
<text text-anchor="middle" x="312.18" y="-331.65" font-family="Times,serif" font-size="14.00">is_a</text>
</g>
<!-- Protein(10)&#45;&gt;EC(12) -->
<g id="edge3" class="edge">
<title>Protein(10)&#45;&gt;EC(12)</title>
<path fill="none" stroke="blue" d="M194.79,-475C198.08,-541.01 212.79,-766.97 261.68,-815.85 304.42,-858.57 379.87,-860.31 423.82,-857.04"/>
<text text-anchor="middle" x="312.18" y="-859.65" font-family="Times,serif" font-size="14.00">cat_c</text>
</g>
<!-- Protein(10)&#45;&gt;Protein(10) -->
<g id="edge8" class="edge">
<title>Protein(10)&#45;&gt;Protein(10)</title>
<path fill="none" stroke="black" d="M185.93,-475C184.85,-484.39 187.2,-492.85 192.99,-492.85 198.78,-492.85 201.13,-484.39 200.04,-475"/>
<text text-anchor="middle" x="192.99" y="-526.65" font-family="Times,serif" font-size="14.00">h_s_s(&lt;=6)</text>
<text text-anchor="middle" x="192.99" y="-511.65" font-family="Times,serif" font-size="14.00">ortho(&lt;=6)</text>
<text text-anchor="middle" x="192.99" y="-496.65" font-family="Times,serif" font-size="14.00">xref(&lt;=6)</text>
</g>
<!-- Protein(10)&#45;&gt;Protein(10) -->
<g id="edge18" class="edge">
<title>Protein(10)&#45;&gt;Protein(10)</title>
<path fill="none" stroke="black" d="M182.74,-474.76C174.49,-500.16 177.91,-537.85 192.99,-537.85 206.19,-537.85 210.45,-508.99 205.79,-484.76"/>
<polygon fill="black" stroke="black" points="209.1,-483.58 203.24,-474.76 202.31,-485.31 209.1,-483.58"/>
<text text-anchor="middle" x="192.99" y="-571.65" font-family="Times,serif" font-size="14.00">genetic(&lt;=6)</text>
<text text-anchor="middle" x="192.99" y="-556.65" font-family="Times,serif" font-size="14.00">it_wi(&lt;=6)</text>
<text text-anchor="middle" x="192.99" y="-541.65" font-family="Times,serif" font-size="14.00">physical(&lt;=6)</text>
</g>
<!-- Gene(9) -->
<g id="node19" class="node">
<title>Gene(9)</title>
<ellipse fill="none" stroke="black" cx="459.25" cy="-630.85" rx="39.79" ry="18"/>
<text text-anchor="middle" x="459.25" y="-627.15" font-family="Times,serif" font-size="14.00">Gene(9)</text>
</g>
<!-- Protein(10)&#45;&gt;Gene(9) -->
<g id="edge7" class="edge">
<title>Protein(10)&#45;&gt;Gene(9)</title>
<path fill="none" stroke="blue" d="M200.04,-475.1C209.32,-500.31 229.46,-545.55 261.68,-570.85 308.41,-607.53 377.51,-621.88 420.11,-627.43"/>
<text text-anchor="middle" x="312.18" y="-619.65" font-family="Times,serif" font-size="14.00">enc</text>
</g>
<!-- Protein(10)&#45;&gt;KO(23) -->
<g id="edge10" class="edge">
<title>Protein(10)&#45;&gt;KO(23)</title>
<path fill="none" stroke="black" d="M197.93,-438.69C211.98,-374.1 258.9,-159.17 261.68,-156.85 329.32,-100.4 610.82,-145.18 710.33,-163.2"/>
<text text-anchor="middle" x="459.25" y="-141.65" font-family="Times,serif" font-size="14.00">has_function</text>
</g>
<!-- Enzyme(16) -->
<g id="node21" class="node">
<title>Enzyme(16)</title>
<ellipse fill="none" stroke="black" cx="459.25" cy="-514.85" rx="54.69" ry="18"/>
<text text-anchor="middle" x="459.25" y="-511.15" font-family="Times,serif" font-size="14.00">Enzyme(16)</text>
</g>
<!-- Protein(10)&#45;&gt;Enzyme(16) -->
<g id="edge14" class="edge">
<title>Protein(10)&#45;&gt;Enzyme(16)</title>
<path fill="none" stroke="black" d="M232.52,-468.22C242.01,-470.87 252.19,-473.58 261.68,-475.85 312.27,-487.95 370.81,-499.21 410.76,-506.5"/>
<text text-anchor="middle" x="312.18" y="-499.65" font-family="Times,serif" font-size="14.00">is_a</text>
</g>
<!-- Gene(9)&#45;&gt;MolFunc(3) -->
<g id="edge25" class="edge">
<title>Gene(9)&#45;&gt;MolFunc(3)</title>
<path fill="none" stroke="blue" d="M495.56,-638.15C510.46,-642.89 526.86,-650.57 537.82,-662.85 557.22,-684.57 536.91,-703.7 555.82,-725.85 587.98,-763.5 612.79,-750.21 656.82,-772.85 675.51,-782.45 695.95,-793.93 712.48,-803.47"/>
<text text-anchor="middle" x="606.32" y="-776.65" font-family="Times,serif" font-size="14.00">has_function</text>
</g>
<!-- Gene(9)&#45;&gt;Phenotype(13) -->
<g id="edge24" class="edge">
<title>Gene(9)&#45;&gt;Phenotype(13)</title>
<path fill="none" stroke="black" d="M494.21,-639.6C533.86,-650.23 601.1,-669.52 656.82,-691.85 674.35,-698.87 693.16,-707.98 708.92,-716.09"/>
<text text-anchor="middle" x="606.32" y="-710.65" font-family="Times,serif" font-size="14.00">cooc_wi</text>
<text text-anchor="middle" x="606.32" y="-695.65" font-family="Times,serif" font-size="14.00">has_observ_pheno</text>
</g>
<!-- Gene(9)&#45;&gt;CelComp(5) -->
<g id="edge26" class="edge">
<title>Gene(9)&#45;&gt;CelComp(5)</title>
<path fill="none" stroke="black" d="M490.32,-619.64C508.9,-613.32 533.4,-606.06 555.82,-602.85 600.26,-596.47 614.87,-586.89 656.82,-602.85 666.83,-606.65 666.22,-612.48 674.82,-618.85 686.24,-627.29 699.37,-635.64 711.19,-642.7"/>
<text text-anchor="middle" x="606.32" y="-606.65" font-family="Times,serif" font-size="14.00">located_in</text>
</g>
<!-- Gene(9)&#45;&gt;Publication(2) -->
<g id="edge27" class="edge">
<title>Gene(9)&#45;&gt;Publication(2)</title>
<path fill="none" stroke="blue" d="M498,-626.36C512.6,-622.67 528.11,-615.98 537.82,-603.85 559.64,-576.61 543.79,-480.6 555.82,-447.85 583.68,-372.06 628.92,-372.61 656.82,-296.85 680.64,-232.18 646.36,-205.61 674.82,-142.85 684.7,-121.07 702.94,-101.15 718.4,-86.9"/>
<text text-anchor="middle" x="606.32" y="-466.65" font-family="Times,serif" font-size="14.00">occ_in</text>
<text text-anchor="middle" x="606.32" y="-451.65" font-family="Times,serif" font-size="14.00">pub_in</text>
</g>
<!-- Gene(9)&#45;&gt;BioProc(4) -->
<g id="edge28" class="edge">
<title>Gene(9)&#45;&gt;BioProc(4)</title>
<path fill="none" stroke="black" d="M496,-623.86C510.12,-619.78 525.8,-613.47 537.82,-603.85 549.67,-594.37 542.57,-582.22 555.82,-574.85 601.22,-549.59 662.5,-560.33 702.94,-572.34"/>
<text text-anchor="middle" x="606.32" y="-578.65" font-family="Times,serif" font-size="14.00">participates_in</text>
</g>
<!-- Enzyme(16)&#45;&gt;Reaction(19) -->
<g id="edge30" class="edge">
<title>Enzyme(16)&#45;&gt;Reaction(19)</title>
<path fill="none" stroke="blue" d="M513.55,-516.9C561.01,-518.73 630.57,-521.42 681.1,-523.37"/>
<text text-anchor="middle" x="606.32" y="-525.65" font-family="Times,serif" font-size="14.00">ca_by</text>
</g>
<!-- Reaction(18) -->
<g id="node22" class="node">
<title>Reaction(18)</title>
<ellipse fill="none" stroke="black" cx="746.36" cy="-467.85" rx="56.59" ry="18"/>
<text text-anchor="middle" x="746.36" y="-464.15" font-family="Times,serif" font-size="14.00">Reaction(18)</text>
</g>
<!-- Enzyme(16)&#45;&gt;Reaction(18) -->
<g id="edge29" class="edge">
<title>Enzyme(16)&#45;&gt;Reaction(18)</title>
<path fill="none" stroke="black" d="M508.38,-506.75C523.56,-504.21 540.39,-501.4 555.82,-498.85 603.19,-491.01 657.24,-482.18 695.47,-475.95"/>
<text text-anchor="middle" x="606.32" y="-502.65" font-family="Times,serif" font-size="14.00">ca_by</text>
</g>
<!-- Reaction(18)&#45;&gt;Path(24) -->
<g id="edge31" class="edge">
<title>Reaction(18)&#45;&gt;Path(24)</title>
<path fill="none" stroke="black" d="M785.61,-481.03C796.23,-485.08 807.66,-489.81 817.89,-494.85 826.31,-498.98 827.64,-501.41 835.89,-505.85 862.93,-520.39 894.48,-535.06 918.04,-545.59"/>
<text text-anchor="middle" x="855.89" y="-528.65" font-family="Times,serif" font-size="14.00">part_of</text>
</g>
<!-- Reaction(18)&#45;&gt;Path(20) -->
<g id="edge32" class="edge">
<title>Reaction(18)&#45;&gt;Path(20)</title>
<path fill="none" stroke="blue" d="M797.71,-475.43C830.67,-480.4 873.47,-486.84 905.82,-491.71"/>
<text text-anchor="middle" x="855.89" y="-490.65" font-family="Times,serif" font-size="14.00">part_of</text>
</g>
<!-- Reaction(18)&#45;&gt;Comp(255) -->
<g id="edge33" class="edge">
<title>Reaction(18)&#45;&gt;Comp(255)</title>
<path fill="none" stroke="black" d="M797.71,-460.26C826.75,-455.89 863.41,-450.37 893.85,-445.78"/>
<text text-anchor="middle" x="855.89" y="-457.65" font-family="Times,serif" font-size="14.00">pd_by</text>
</g>
<!-- Comp(25) -->
<g id="node23" class="node">
<title>Comp(25)</title>
<ellipse fill="none" stroke="black" cx="954.17" cy="-378.85" rx="47.39" ry="18"/>
<text text-anchor="middle" x="954.17" y="-375.15" font-family="Times,serif" font-size="14.00">Comp(25)</text>
</g>
<!-- Reaction(18)&#45;&gt;Comp(25) -->
<g id="edge34" class="edge">
<title>Reaction(18)&#45;&gt;Comp(25)</title>
<path fill="none" stroke="blue" d="M780.11,-453.31C796.79,-445.93 817.4,-436.86 835.89,-428.85 864.94,-416.26 898.13,-402.13 921.77,-392.12"/>
<text text-anchor="middle" x="855.89" y="-432.65" font-family="Times,serif" font-size="14.00">pd_by</text>
</g>
<!-- Phenotype(21) -->
<g id="node24" class="node">
<title>Phenotype(21)</title>
<ellipse fill="none" stroke="black" cx="459.25" cy="-37.85" rx="62.29" ry="18"/>
<text text-anchor="middle" x="459.25" y="-34.15" font-family="Times,serif" font-size="14.00">Phenotype(21)</text>
</g>
<!-- Phenotype(21)&#45;&gt;Publication(2) -->
<g id="edge39" class="edge">
<title>Phenotype(21)&#45;&gt;Publication(2)</title>
<path fill="none" stroke="blue" d="M518.64,-43.38C564.25,-47.7 627.78,-53.71 675.99,-58.28"/>
<text text-anchor="middle" x="606.32" y="-60.65" font-family="Times,serif" font-size="14.00">occ_in</text>
</g>
</g>
</svg>
