<svg width="1993px" height="1636px"
 viewBox="0.00 0.00 1494.90 1227.00" xmlns="http://www.w3.org/2000/svg" xmlns:xlink="http://www.w3.org/1999/xlink">
<g id="graph0" class="graph" transform=" rotate(0) translate(4 1223)">
<polygon fill="white" stroke="transparent" points="-4,4 -4,-1223 1490.9,-1223 1490.9,4 -4,4"/>
<!-- BioProc(4) -->
<g id="node1" class="node">
<title>BioProc(4)</title>
<polygon fill="none" stroke="darkgreen" points="987.36,-541.54 987.36,-556.46 955.54,-567 910.53,-567 878.71,-556.46 878.71,-541.54 910.53,-531 955.54,-531 987.36,-541.54"/>
<polygon fill="none" stroke="darkgreen" points="991.37,-538.66 991.37,-559.34 956.19,-571 909.88,-571 874.7,-559.34 874.7,-538.66 909.88,-527 956.19,-527 991.37,-538.66"/>
<text text-anchor="middle" x="933.03" y="-545.3" font-family="Times,serif" font-size="14.00">BioProc(4)</text>
</g>
<!-- Trait(21) -->
<g id="node2" class="node">
<title>Trait(21)</title>
<polygon fill="none" stroke="darkgreen" points="1462.71,-1052.54 1462.71,-1067.46 1435.8,-1078 1397.74,-1078 1370.83,-1067.46 1370.83,-1052.54 1397.74,-1042 1435.8,-1042 1462.71,-1052.54"/>
<polygon fill="none" stroke="darkgreen" points="1466.72,-1049.82 1466.72,-1070.18 1436.56,-1082 1396.98,-1082 1366.81,-1070.18 1366.81,-1049.82 1396.98,-1038 1436.56,-1038 1466.72,-1049.82"/>
<text text-anchor="middle" x="1416.77" y="-1056.3" font-family="Times,serif" font-size="14.00">Trait(21)</text>
</g>
<!-- Publication(2) -->
<g id="node3" class="node">
<title>Publication(2)</title>
<polygon fill="none" stroke="darkgreen" points="1483.02,-568.54 1483.02,-583.46 1444.21,-594 1389.33,-594 1350.52,-583.46 1350.52,-568.54 1389.33,-558 1444.21,-558 1483.02,-568.54"/>
<polygon fill="none" stroke="darkgreen" points="1487.03,-565.49 1487.03,-586.51 1444.75,-598 1388.79,-598 1346.51,-586.51 1346.51,-565.49 1388.79,-554 1444.75,-554 1487.03,-565.49"/>
<text text-anchor="middle" x="1416.77" y="-572.3" font-family="Times,serif" font-size="14.00">Publication(2)</text>
</g>
<!-- Enzyme(177) -->
<g id="node4" class="node">
<title>Enzyme(177)</title>
<polygon fill="none" stroke="darkgreen" points="652.53,-927.54 652.53,-942.46 615.02,-953 561.97,-953 524.46,-942.46 524.46,-927.54 561.97,-917 615.02,-917 652.53,-927.54"/>
<polygon fill="none" stroke="darkgreen" points="656.53,-924.51 656.53,-945.49 615.57,-957 561.42,-957 520.46,-945.49 520.46,-924.51 561.42,-913 615.57,-913 656.53,-924.51"/>
<text text-anchor="middle" x="588.49" y="-931.3" font-family="Times,serif" font-size="14.00">Enzyme(177)</text>
</g>
<!-- DGES(22) -->
<g id="node5" class="node">
<title>DGES(22)</title>
<polygon fill="none" stroke="darkgreen" points="985.15,-345.54 985.15,-360.46 954.62,-371 911.45,-371 880.92,-360.46 880.92,-345.54 911.45,-335 954.62,-335 985.15,-345.54"/>
<polygon fill="none" stroke="darkgreen" points="989.15,-342.69 989.15,-363.31 955.29,-375 910.78,-375 876.92,-363.31 876.92,-342.69 910.78,-331 955.29,-331 989.15,-342.69"/>
<text text-anchor="middle" x="933.03" y="-349.3" font-family="Times,serif" font-size="14.00">DGES(22)</text>
</g>
<!-- Gene(8) -->
<g id="node6" class="node">
<title>Gene(8)</title>
<polygon fill="none" stroke="darkgreen" points="975.87,-732.54 975.87,-747.46 950.78,-758 915.29,-758 890.2,-747.46 890.2,-732.54 915.29,-722 950.78,-722 975.87,-732.54"/>
<polygon fill="none" stroke="darkgreen" points="979.86,-729.88 979.86,-750.12 951.58,-762 914.49,-762 886.21,-750.12 886.21,-729.88 914.49,-718 951.58,-718 979.86,-729.88"/>
<text text-anchor="middle" x="933.03" y="-736.3" font-family="Times,serif" font-size="14.00">Gene(8)</text>
</g>
<!-- MolFunc(3) -->
<g id="node7" class="node">
<title>MolFunc(3)</title>
<polygon fill="none" stroke="darkgreen" points="991.32,-1016.54 991.32,-1031.46 957.18,-1042 908.89,-1042 874.75,-1031.46 874.75,-1016.54 908.89,-1006 957.18,-1006 991.32,-1016.54"/>
<polygon fill="none" stroke="darkgreen" points="995.31,-1013.59 995.31,-1034.41 957.78,-1046 908.29,-1046 870.75,-1034.41 870.75,-1013.59 908.29,-1002 957.78,-1002 995.31,-1013.59"/>
<text text-anchor="middle" x="933.03" y="-1020.3" font-family="Times,serif" font-size="14.00">MolFunc(3)</text>
</g>
<!-- Phenotype(13) -->
<g id="node8" class="node">
<title>Phenotype(13)</title>
<polygon fill="none" stroke="darkgreen" points="1265.97,-485.54 1265.97,-500.46 1226.39,-511 1170.41,-511 1130.83,-500.46 1130.83,-485.54 1170.41,-475 1226.39,-475 1265.97,-485.54"/>
<polygon fill="none" stroke="darkgreen" points="1269.97,-482.47 1269.97,-503.53 1226.91,-515 1169.89,-515 1126.83,-503.53 1126.83,-482.47 1169.89,-471 1226.91,-471 1269.97,-482.47"/>
<text text-anchor="middle" x="1198.4" y="-489.3" font-family="Times,serif" font-size="14.00">Phenotype(13)</text>
</g>
<!-- SNPEffect(26) -->
<g id="node9" class="node">
<title>SNPEffect(26)</title>
<polygon fill="none" stroke="darkgreen" points="1266.87,-423.54 1266.87,-438.46 1226.76,-449 1170.04,-449 1129.94,-438.46 1129.94,-423.54 1170.04,-413 1226.76,-413 1266.87,-423.54"/>
<polygon fill="none" stroke="darkgreen" points="1270.88,-420.46 1270.88,-441.54 1227.28,-453 1169.52,-453 1125.92,-441.54 1125.92,-420.46 1169.52,-409 1227.28,-409 1270.88,-420.46"/>
<text text-anchor="middle" x="1198.4" y="-427.3" font-family="Times,serif" font-size="14.00">SNPEffect(26)</text>
</g>
<!-- CelComp(5) -->
<g id="node10" class="node">
<title>CelComp(5)</title>
<polygon fill="none" stroke="darkgreen" points="992.64,-818.54 992.64,-833.46 957.72,-844 908.34,-844 873.43,-833.46 873.43,-818.54 908.34,-808 957.72,-808 992.64,-818.54"/>
<polygon fill="none" stroke="darkgreen" points="996.63,-815.57 996.63,-836.43 958.31,-848 907.76,-848 869.44,-836.43 869.44,-815.57 907.76,-804 958.31,-804 996.63,-815.57"/>
<text text-anchor="middle" x="933.03" y="-822.3" font-family="Times,serif" font-size="14.00">CelComp(5)</text>
</g>
<!-- Protein(7) -->
<g id="node11" class="node">
<title>Protein(7)</title>
<polygon fill="none" stroke="darkgreen" points="638.39,-432.54 638.39,-447.46 609.16,-458 567.82,-458 538.59,-447.46 538.59,-432.54 567.82,-422 609.16,-422 638.39,-432.54"/>
<polygon fill="none" stroke="darkgreen" points="642.39,-429.73 642.39,-450.27 609.86,-462 567.13,-462 534.6,-450.27 534.6,-429.73 567.13,-418 609.86,-418 642.39,-429.73"/>
<text text-anchor="middle" x="588.49" y="-436.3" font-family="Times,serif" font-size="14.00">Protein(7)</text>
</g>
<!-- PlantOntologyTerm(24) -->
<g id="node12" class="node">
<title>PlantOntologyTerm(24)</title>
<polygon fill="none" stroke="darkgreen" points="691.82,-240.54 691.82,-255.46 631.29,-266 545.69,-266 485.16,-255.46 485.16,-240.54 545.69,-230 631.29,-230 691.82,-240.54"/>
<polygon fill="none" stroke="darkgreen" points="695.82,-237.18 695.82,-258.82 631.64,-270 545.35,-270 481.17,-258.82 481.17,-237.18 545.35,-226 631.64,-226 695.82,-237.18"/>
<text text-anchor="middle" x="588.49" y="-244.3" font-family="Times,serif" font-size="14.00">PlantOntologyTerm(24)</text>
</g>
<!-- CoExpStudy(25) -->
<g id="node13" class="node">
<title>CoExpStudy(25)</title>
<polygon fill="none" stroke="darkgreen" points="664.45,-178.54 664.45,-193.46 619.95,-204 557.03,-204 512.54,-193.46 512.54,-178.54 557.03,-168 619.95,-168 664.45,-178.54"/>
<polygon fill="none" stroke="darkgreen" points="668.45,-175.38 668.45,-196.62 620.42,-208 556.56,-208 508.54,-196.62 508.54,-175.38 556.56,-164 620.42,-164 668.45,-175.38"/>
<text text-anchor="middle" x="588.49" y="-182.3" font-family="Times,serif" font-size="14.00">CoExpStudy(25)</text>
</g>
<!-- ProtDomain(14) -->
<g id="node14" class="node">
<title>ProtDomain(14)</title>
<polygon fill="none" stroke="darkgreen" points="663.13,-760.54 663.13,-775.46 619.41,-786 557.58,-786 513.86,-775.46 513.86,-760.54 557.58,-750 619.41,-750 663.13,-760.54"/>
<polygon fill="none" stroke="darkgreen" points="667.13,-757.39 667.13,-778.61 619.88,-790 557.1,-790 509.85,-778.61 509.85,-757.39 557.1,-746 619.88,-746 667.13,-757.39"/>
<text text-anchor="middle" x="588.49" y="-764.3" font-family="Times,serif" font-size="14.00">ProtDomain(14)</text>
</g>
<!-- Gene(1) -->
<g id="node15" class="node">
<title>Gene(1)</title>
<ellipse fill="none" stroke="red" cx="43.65" cy="-436" rx="39.78" ry="39.78"/>
<ellipse fill="none" stroke="red" cx="43.65" cy="-436" rx="43.79" ry="43.79"/>
<text text-anchor="middle" x="43.65" y="-432.3" font-family="Times,serif" font-size="14.00">Gene(1)</text>
</g>
<!-- Gene(1)&#45;&gt;Trait(21) -->
<g id="edge18" class="edge">
<title>Gene(1)&#45;&gt;Trait(21)</title>
<path fill="none" stroke="black" d="M46.16,-479.77C52.94,-642.6 87.23,-1204 237.69,-1204 237.69,-1204 237.69,-1204 1199.4,-1204 1286.26,-1204 1364.83,-1122.58 1398.47,-1082.18"/>
<text text-anchor="middle" x="779.41" y="-1207.8" font-family="Times,serif" font-size="14.00">cooc_wi</text>
</g>
<!-- Gene(1)&#45;&gt;Publication(2) -->
<g id="edge26" class="edge">
<title>Gene(1)&#45;&gt;Publication(2)</title>
<path fill="none" stroke="black" d="M45.54,-479.89C50.98,-611.22 87.84,-999.55 332.08,-1121 399.17,-1154.36 949.03,-1106.8 1003.16,-1055 1031.06,-1028.3 995.34,-998.71 1021.16,-970 1117.26,-863.16 1228.37,-972.94 1328.64,-870 1404.23,-792.39 1414.7,-652.39 1415.82,-598.23"/>
<text text-anchor="middle" x="779.41" y="-1118.8" font-family="Times,serif" font-size="14.00">occ_in</text>
</g>
<!-- Gene(1)&#45;&gt;DGES(22) -->
<g id="edge19" class="edge">
<title>Gene(1)&#45;&gt;DGES(22)</title>
<path fill="none" stroke="blue" d="M55.62,-394.01C71.45,-340.63 105.34,-248.39 163.29,-190 222.18,-130.66 250.66,-125.94 332.08,-107 443.38,-81.11 769.64,-59.01 844.91,-145 870.22,-173.92 841.29,-285.23 862.91,-317 869.22,-326.29 878.71,-333.33 888.65,-338.62"/>
<text text-anchor="middle" x="397.58" y="-110.8" font-family="Times,serif" font-size="14.00">differentially_expressed</text>
</g>
<!-- Gene(1)&#45;&gt;Gene(8) -->
<g id="edge23" class="edge">
<title>Gene(1)&#45;&gt;Gene(8)</title>
<path fill="none" stroke="blue" d="M56.03,-478.05C67.73,-520.6 86.79,-588.17 105.29,-646 158.07,-811 170.99,-899.29 332.08,-963 438.09,-1004.93 764.18,-1029.5 844.91,-949 869.3,-924.67 846.16,-825.11 862.91,-795 871.78,-779.05 887.34,-766.04 901.45,-756.69"/>
<text text-anchor="middle" x="397.58" y="-1039.8" font-family="Times,serif" font-size="14.00">genetic(&lt;=2)</text>
<text text-anchor="middle" x="397.58" y="-1024.8" font-family="Times,serif" font-size="14.00">homoeolog(&lt;=2)</text>
<text text-anchor="middle" x="397.58" y="-1009.8" font-family="Times,serif" font-size="14.00">physical(&lt;=2)</text>
<text text-anchor="middle" x="397.58" y="-994.8" font-family="Times,serif" font-size="14.00">regulates(&lt;=2)</text>
</g>
<!-- Gene(1)&#45;&gt;Protein(7) -->
<g id="edge20" class="edge">
<title>Gene(1)&#45;&gt;Protein(7)</title>
<path fill="none" stroke="black" d="M87.7,-436.32C186,-437.04 426.75,-438.82 534.2,-439.61"/>
<text text-anchor="middle" x="238.69" y="-440.8" font-family="Times,serif" font-size="14.00">enc</text>
</g>
<!-- Reaction(188) -->
<g id="node17" class="node">
<title>Reaction(188)</title>
<polygon fill="none" stroke="darkgreen" points="999.28,-55.54 999.28,-70.46 960.48,-81 905.59,-81 866.79,-70.46 866.79,-55.54 905.59,-45 960.48,-45 999.28,-55.54"/>
<polygon fill="none" stroke="darkgreen" points="1003.29,-52.49 1003.29,-73.51 961.01,-85 905.06,-85 862.78,-73.51 862.78,-52.49 905.06,-41 961.01,-41 1003.29,-52.49"/>
<text text-anchor="middle" x="933.03" y="-59.3" font-family="Times,serif" font-size="14.00">Reaction(188)</text>
</g>
<!-- Gene(1)&#45;&gt;Reaction(188) -->
<g id="edge25" class="edge">
<title>Gene(1)&#45;&gt;Reaction(188)</title>
<path fill="none" stroke="blue" d="M45.83,-392.36C50.43,-319.41 71.33,-174.12 163.29,-107 273.3,-26.71 695.16,-46.35 862.78,-57.72"/>
<text text-anchor="middle" x="397.58" y="-61.8" font-family="Times,serif" font-size="14.00">inv_in</text>
</g>
<!-- Path(19) -->
<g id="node18" class="node">
<title>Path(19)</title>
<polygon fill="none" stroke="darkgreen" points="1242.56,-133.54 1242.56,-148.46 1216.69,-159 1180.11,-159 1154.25,-148.46 1154.25,-133.54 1180.11,-123 1216.69,-123 1242.56,-133.54"/>
<polygon fill="none" stroke="darkgreen" points="1246.54,-130.85 1246.54,-151.15 1217.47,-163 1179.33,-163 1150.26,-151.15 1150.26,-130.85 1179.33,-119 1217.47,-119 1246.54,-130.85"/>
<text text-anchor="middle" x="1198.4" y="-137.3" font-family="Times,serif" font-size="14.00">Path(19)</text>
</g>
<!-- Gene(1)&#45;&gt;Path(19) -->
<g id="edge27" class="edge">
<title>Gene(1)&#45;&gt;Path(19)</title>
<path fill="none" stroke="blue" d="M44.35,-392.2C46.13,-281.63 67.36,0 237.69,0 237.69,0 237.69,0 934.03,0 1034.65,0 1134.02,-80.97 1176.25,-120.19"/>
<text text-anchor="middle" x="588.49" y="-3.8" font-family="Times,serif" font-size="14.00">part_of</text>
</g>
<!-- Gene(9) -->
<g id="node20" class="node">
<title>Gene(9)</title>
<ellipse fill="none" stroke="black" cx="588.49" cy="-549" rx="39.79" ry="18"/>
<text text-anchor="middle" x="588.49" y="-545.3" font-family="Times,serif" font-size="14.00">Gene(9)</text>
</g>
<!-- Gene(1)&#45;&gt;Gene(9) -->
<g id="edge22" class="edge">
<title>Gene(1)&#45;&gt;Gene(9)</title>
<path fill="none" stroke="black" d="M84.2,-453.07C138.8,-475.76 240.87,-515.08 332.08,-533 407.72,-547.86 498.15,-549.93 548.58,-549.72"/>
<text text-anchor="middle" x="238.69" y="-576.8" font-family="Times,serif" font-size="14.00">genetic(&lt;=2)</text>
<text text-anchor="middle" x="238.69" y="-561.8" font-family="Times,serif" font-size="14.00">homoeolog(&lt;=2)</text>
<text text-anchor="middle" x="238.69" y="-546.8" font-family="Times,serif" font-size="14.00">physical(&lt;=2)</text>
<text text-anchor="middle" x="238.69" y="-531.8" font-family="Times,serif" font-size="14.00">regulates(&lt;=2)</text>
</g>
<!-- SNP(20) -->
<g id="node21" class="node">
<title>SNP(20)</title>
<ellipse fill="none" stroke="black" cx="933.03" cy="-491" rx="41.69" ry="18"/>
<text text-anchor="middle" x="933.03" y="-487.3" font-family="Times,serif" font-size="14.00">SNP(20)</text>
</g>
<!-- Gene(1)&#45;&gt;SNP(20) -->
<g id="edge24" class="edge">
<title>Gene(1)&#45;&gt;SNP(20)</title>
<path fill="none" stroke="black" d="M86.89,-429.81C142.83,-421.96 244.6,-408.85 332.08,-404 445.87,-397.69 747.27,-345.22 844.91,-404 859.55,-412.82 851.87,-424.94 862.91,-438 875.79,-453.24 893.77,-466.86 908.16,-476.47"/>
<text text-anchor="middle" x="397.58" y="-422.8" font-family="Times,serif" font-size="14.00">has_mutant</text>
<text text-anchor="middle" x="397.58" y="-407.8" font-family="Times,serif" font-size="14.00">has_variation</text>
</g>
<!-- CoExpCluster(23) -->
<g id="node22" class="node">
<title>CoExpCluster(23)</title>
<ellipse fill="none" stroke="black" cx="238.69" cy="-217" rx="75.29" ry="18"/>
<text text-anchor="middle" x="238.69" y="-213.3" font-family="Times,serif" font-size="14.00">CoExpCluster(23)</text>
</g>
<!-- Gene(1)&#45;&gt;CoExpCluster(23) -->
<g id="edge28" class="edge">
<title>Gene(1)&#45;&gt;CoExpCluster(23)</title>
<path fill="none" stroke="black" d="M71.37,-402.02C81.78,-389.04 93.92,-374.19 105.29,-361 145.44,-314.45 195,-261.74 220.59,-234.85"/>
<text text-anchor="middle" x="125.29" y="-364.8" font-family="Times,serif" font-size="14.00">part_of</text>
</g>
<!-- Protein(10) -->
<g id="node23" class="node">
<title>Protein(10)</title>
<ellipse fill="none" stroke="black" cx="238.69" cy="-706" rx="50.89" ry="18"/>
<text text-anchor="middle" x="238.69" y="-702.3" font-family="Times,serif" font-size="14.00">Protein(10)</text>
</g>
<!-- Gene(1)&#45;&gt;Protein(10) -->
<g id="edge21" class="edge">
<title>Gene(1)&#45;&gt;Protein(10)</title>
<path fill="none" stroke="blue" d="M56.7,-477.69C66.75,-508.25 83.02,-549.85 105.29,-582 136.5,-627.04 186.45,-668.14 215.24,-689.85"/>
<text text-anchor="middle" x="125.29" y="-630.8" font-family="Times,serif" font-size="14.00">enc</text>
</g>
<!-- EC(15) -->
<g id="node16" class="node">
<title>EC(15)</title>
<polygon fill="none" stroke="darkgreen" points="627.79,-698.54 627.79,-713.46 604.77,-724 572.21,-724 549.19,-713.46 549.19,-698.54 572.21,-688 604.77,-688 627.79,-698.54"/>
<polygon fill="none" stroke="darkgreen" points="631.78,-695.97 631.78,-716.03 605.64,-728 571.35,-728 545.2,-716.03 545.2,-695.97 571.35,-684 605.64,-684 631.78,-695.97"/>
<text text-anchor="middle" x="588.49" y="-702.3" font-family="Times,serif" font-size="14.00">EC(15)</text>
</g>
<!-- Phenotype(133) -->
<g id="node19" class="node">
<title>Phenotype(133)</title>
<ellipse fill="none" stroke="black" cx="1198.4" cy="-553" rx="66.89" ry="18"/>
<text text-anchor="middle" x="1198.4" y="-549.3" font-family="Times,serif" font-size="14.00">Phenotype(133)</text>
</g>
<!-- Phenotype(133)&#45;&gt;Trait(21) -->
<g id="edge1" class="edge">
<title>Phenotype(133)&#45;&gt;Trait(21)</title>
<path fill="none" stroke="black" d="M1207.1,-571.04C1240.15,-648.48 1369.93,-952.59 1406.27,-1037.74"/>
<text text-anchor="middle" x="1308.64" y="-854.8" font-family="Times,serif" font-size="14.00">part_of</text>
</g>
<!-- Phenotype(133)&#45;&gt;Publication(2) -->
<g id="edge2" class="edge">
<title>Phenotype(133)&#45;&gt;Publication(2)</title>
<path fill="none" stroke="blue" d="M1260.83,-559.53C1287.56,-562.37 1319.02,-565.72 1346.57,-568.64"/>
<text text-anchor="middle" x="1308.64" y="-569.8" font-family="Times,serif" font-size="14.00">pub_in</text>
</g>
<!-- Gene(9)&#45;&gt;BioProc(4) -->
<g id="edge10" class="edge">
<title>Gene(9)&#45;&gt;BioProc(4)</title>
<path fill="none" stroke="black" d="M628.45,-549C688.69,-549 804.74,-549 874.61,-549"/>
<text text-anchor="middle" x="779.41" y="-552.8" font-family="Times,serif" font-size="14.00">participates_in</text>
</g>
<!-- Gene(9)&#45;&gt;Trait(21) -->
<g id="edge3" class="edge">
<title>Gene(9)&#45;&gt;Trait(21)</title>
<path fill="none" stroke="blue" d="M621.67,-559.22C670.43,-574.93 765.71,-606.51 844.91,-638 916.54,-666.49 938.65,-666.8 1003.16,-709 1146.53,-802.78 1155.61,-860.06 1288.64,-968 1321.64,-994.78 1361.63,-1023.08 1387.84,-1041.11"/>
<text text-anchor="middle" x="1064.66" y="-792.8" font-family="Times,serif" font-size="14.00">cooc_wi</text>
</g>
<!-- Gene(9)&#45;&gt;Publication(2) -->
<g id="edge11" class="edge">
<title>Gene(9)&#45;&gt;Publication(2)</title>
<path fill="none" stroke="blue" d="M625.88,-555.25C650.63,-559.34 684.17,-564.54 713.91,-568 967.74,-597.57 1033.1,-583.5 1288.64,-585 1306.42,-585.1 1310.89,-585.91 1328.64,-585 1334.41,-584.7 1340.39,-584.3 1346.38,-583.82"/>
<text text-anchor="middle" x="1064.66" y="-590.8" font-family="Times,serif" font-size="14.00">pub_in</text>
</g>
<!-- Gene(9)&#45;&gt;DGES(22) -->
<g id="edge4" class="edge">
<title>Gene(9)&#45;&gt;DGES(22)</title>
<path fill="none" stroke="black" d="M627.07,-544.57C648.98,-540.41 676.11,-532.4 695.91,-517 708.18,-507.45 703.27,-498.34 713.91,-487 768.97,-428.27 792.77,-423.53 862.91,-384 872.42,-378.64 883.03,-373.5 893.02,-368.99"/>
<text text-anchor="middle" x="779.41" y="-490.8" font-family="Times,serif" font-size="14.00">differentially_expressed</text>
</g>
<!-- Gene(9)&#45;&gt;Gene(8) -->
<g id="edge6" class="edge">
<title>Gene(9)&#45;&gt;Gene(8)</title>
<path fill="none" stroke="black" d="M607.39,-565.16C630.32,-584.93 672.12,-617.86 713.91,-635 768.6,-657.44 793.2,-629.35 844.91,-658 855.37,-663.8 854.44,-669.55 862.91,-678 877.62,-692.69 895.06,-708.32 908.74,-720.21"/>
<text text-anchor="middle" x="779.41" y="-676.8" font-family="Times,serif" font-size="14.00">genetic(&lt;=8)</text>
<text text-anchor="middle" x="779.41" y="-661.8" font-family="Times,serif" font-size="14.00">physical(&lt;=8)</text>
</g>
<!-- Gene(9)&#45;&gt;MolFunc(3) -->
<g id="edge7" class="edge">
<title>Gene(9)&#45;&gt;MolFunc(3)</title>
<path fill="none" stroke="blue" d="M617.62,-561.59C642.9,-574.56 678.64,-597.35 695.91,-629 722.36,-677.51 681.38,-832.33 713.91,-877 750.88,-927.77 793.21,-894.34 844.91,-930 873.85,-949.96 900.25,-981.09 916.23,-1002"/>
<text text-anchor="middle" x="779.41" y="-933.8" font-family="Times,serif" font-size="14.00">has_function</text>
</g>
<!-- Gene(9)&#45;&gt;CelComp(5) -->
<g id="edge9" class="edge">
<title>Gene(9)&#45;&gt;CelComp(5)</title>
<path fill="none" stroke="blue" d="M616.86,-562.03C641.62,-575.31 677,-598.3 695.91,-629 719.59,-667.45 686.03,-693.47 713.91,-729 735.97,-757.12 827.34,-791.39 884.6,-810.75"/>
<text text-anchor="middle" x="779.41" y="-798.8" font-family="Times,serif" font-size="14.00">located_in</text>
</g>
<!-- Gene(9)&#45;&gt;Gene(9) -->
<g id="edge5" class="edge">
<title>Gene(9)&#45;&gt;Gene(9)</title>
<path fill="none" stroke="blue" d="M559.21,-561.54C544.96,-572.87 554.72,-585 588.49,-585 622.26,-585 632.02,-572.87 617.78,-561.54"/>
<text text-anchor="middle" x="588.49" y="-603.8" font-family="Times,serif" font-size="14.00">genetic(&lt;=8)</text>
<text text-anchor="middle" x="588.49" y="-588.8" font-family="Times,serif" font-size="14.00">physical(&lt;=8)</text>
</g>
<!-- Gene(9)&#45;&gt;SNP(20) -->
<g id="edge8" class="edge">
<title>Gene(9)&#45;&gt;SNP(20)</title>
<path fill="none" stroke="black" d="M625.83,-542.85C691.08,-531.8 827.52,-508.7 893.99,-497.44"/>
<text text-anchor="middle" x="779.41" y="-529.8" font-family="Times,serif" font-size="14.00">has_variation</text>
</g>
<!-- SNP(20)&#45;&gt;Phenotype(13) -->
<g id="edge13" class="edge">
<title>SNP(20)&#45;&gt;Phenotype(13)</title>
<path fill="none" stroke="blue" d="M974.9,-491.31C1015.35,-491.62 1078.1,-492.09 1126.67,-492.46"/>
<text text-anchor="middle" x="1064.66" y="-495.8" font-family="Times,serif" font-size="14.00">associated_with</text>
</g>
<!-- SNP(20)&#45;&gt;SNPEffect(26) -->
<g id="edge14" class="edge">
<title>SNP(20)&#45;&gt;SNPEffect(26)</title>
<path fill="none" stroke="black" d="M970.1,-482.78C1013.21,-472.96 1085.98,-456.38 1137.56,-444.63"/>
<text text-anchor="middle" x="1064.66" y="-472.8" font-family="Times,serif" font-size="14.00">leads_to</text>
</g>
<!-- SNP(20)&#45;&gt;Phenotype(133) -->
<g id="edge12" class="edge">
<title>SNP(20)&#45;&gt;Phenotype(133)</title>
<path fill="none" stroke="black" d="M969.83,-499.43C1015.68,-510.22 1095.4,-528.99 1147.27,-541.2"/>
<text text-anchor="middle" x="1064.66" y="-534.8" font-family="Times,serif" font-size="14.00">associated_with</text>
</g>
<!-- CoExpCluster(23)&#45;&gt;BioProc(4) -->
<g id="edge15" class="edge">
<title>CoExpCluster(23)&#45;&gt;BioProc(4)</title>
<path fill="none" stroke="black" d="M269.14,-200.52C344.29,-160.82 547.65,-68.33 695.91,-140 791.89,-186.4 805.13,-229.08 844.91,-328 860.73,-367.35 838.2,-483.53 862.91,-518 868.27,-525.48 875.87,-531.19 884.08,-535.54"/>
<text text-anchor="middle" x="588.49" y="-143.8" font-family="Times,serif" font-size="14.00">enriched_for</text>
</g>
<!-- CoExpCluster(23)&#45;&gt;PlantOntologyTerm(24) -->
<g id="edge16" class="edge">
<title>CoExpCluster(23)&#45;&gt;PlantOntologyTerm(24)</title>
<path fill="none" stroke="blue" d="M309.65,-223.24C358.75,-227.61 425.3,-233.54 480.96,-238.51"/>
<text text-anchor="middle" x="397.58" y="-239.8" font-family="Times,serif" font-size="14.00">enriched_for</text>
</g>
<!-- CoExpCluster(23)&#45;&gt;CoExpStudy(25) -->
<g id="edge17" class="edge">
<title>CoExpCluster(23)&#45;&gt;CoExpStudy(25)</title>
<path fill="none" stroke="black" d="M306.02,-208.78C314.78,-207.79 323.64,-206.83 332.08,-206 391.06,-200.18 457.84,-195 508.32,-191.37"/>
<text text-anchor="middle" x="397.58" y="-209.8" font-family="Times,serif" font-size="14.00">part_of</text>
</g>
<!-- Protein(10)&#45;&gt;BioProc(4) -->
<g id="edge42" class="edge">
<title>Protein(10)&#45;&gt;BioProc(4)</title>
<path fill="none" stroke="black" d="M248.57,-688.04C262.74,-661.06 292.92,-610.06 332.08,-580 381.64,-541.96 412.53,-565.72 463.08,-529 473.3,-521.58 469.66,-512.41 481.08,-507 554.15,-472.37 765.95,-494.55 844.91,-512 855.02,-514.23 876.28,-523.23 895.27,-531.8"/>
<text text-anchor="middle" x="588.49" y="-510.8" font-family="Times,serif" font-size="14.00">participates_in</text>
</g>
<!-- Protein(10)&#45;&gt;Trait(21) -->
<g id="edge31" class="edge">
<title>Protein(10)&#45;&gt;Trait(21)</title>
<path fill="none" stroke="blue" d="M241.57,-724.08C249.02,-792.01 278.64,-1030.65 332.08,-1081 416.09,-1160.15 472.07,-1128 587.49,-1128 587.49,-1128 587.49,-1128 1199.4,-1128 1267.32,-1128 1341.95,-1097.12 1383.41,-1076.98"/>
<text text-anchor="middle" x="933.03" y="-1131.8" font-family="Times,serif" font-size="14.00">cooc_wi</text>
</g>
<!-- Protein(10)&#45;&gt;Publication(2) -->
<g id="edge43" class="edge">
<title>Protein(10)&#45;&gt;Publication(2)</title>
<path fill="none" stroke="blue" d="M255.25,-688.58C273.09,-667.44 301.47,-629.9 314.08,-592 323.92,-562.42 309.93,-333.94 332.08,-312 412.85,-231.99 473.81,-298 587.49,-298 587.49,-298 587.49,-298 1199.4,-298 1328.75,-298 1392.06,-487.75 1410.15,-553.72"/>
<text text-anchor="middle" x="933.03" y="-301.8" font-family="Times,serif" font-size="14.00">pub_in</text>
</g>
<!-- Protein(10)&#45;&gt;Enzyme(177) -->
<g id="edge40" class="edge">
<title>Protein(10)&#45;&gt;Enzyme(177)</title>
<path fill="none" stroke="black" d="M243.36,-723.98C251.89,-760.82 276.67,-844.84 332.08,-886 379.6,-921.3 404.95,-898.84 463.08,-910 483.85,-913.99 506.54,-918.5 526.79,-922.58"/>
<text text-anchor="middle" x="397.58" y="-913.8" font-family="Times,serif" font-size="14.00">is_a</text>
</g>
<!-- Protein(10)&#45;&gt;Gene(8) -->
<g id="edge33" class="edge">
<title>Protein(10)&#45;&gt;Gene(8)</title>
<path fill="none" stroke="blue" d="M280.78,-695.72C328.55,-684.34 409.94,-666.72 481.08,-660 576.14,-651.02 620.03,-602.05 695.91,-660 720.07,-678.46 690.35,-706.78 713.91,-726 739.34,-746.75 830.01,-745.85 886.14,-743.08"/>
<text text-anchor="middle" x="588.49" y="-663.8" font-family="Times,serif" font-size="14.00">enc</text>
</g>
<!-- Protein(10)&#45;&gt;MolFunc(3) -->
<g id="edge38" class="edge">
<title>Protein(10)&#45;&gt;MolFunc(3)</title>
<path fill="none" stroke="black" d="M241.8,-724.06C249.75,-788.66 280.1,-1006.62 332.08,-1049 420.41,-1121.02 732.76,-1074.32 844.91,-1054 860.49,-1051.18 877.05,-1046.05 891.5,-1040.82"/>
<text text-anchor="middle" x="588.49" y="-1090.8" font-family="Times,serif" font-size="14.00">has_function</text>
</g>
<!-- Protein(10)&#45;&gt;CelComp(5) -->
<g id="edge41" class="edge">
<title>Protein(10)&#45;&gt;CelComp(5)</title>
<path fill="none" stroke="blue" d="M260.12,-722.37C278.09,-735.97 305.44,-754.83 332.08,-766 515.26,-842.79 756.5,-838.71 869.1,-831.45"/>
<text text-anchor="middle" x="588.49" y="-836.8" font-family="Times,serif" font-size="14.00">located_in</text>
</g>
<!-- Protein(10)&#45;&gt;Protein(7) -->
<g id="edge34" class="edge">
<title>Protein(10)&#45;&gt;Protein(7)</title>
<path fill="none" stroke="black" d="M262.69,-690.02C279.96,-676.66 302.53,-655.96 314.08,-632 329.9,-599.17 306.35,-494.81 332.08,-469 346.08,-454.96 463.77,-446.43 534.42,-442.54"/>
<text text-anchor="middle" x="397.58" y="-517.8" font-family="Times,serif" font-size="14.00">equivalent(&lt;=4)</text>
<text text-anchor="middle" x="397.58" y="-502.8" font-family="Times,serif" font-size="14.00">h_s_s(&lt;=4)</text>
<text text-anchor="middle" x="397.58" y="-487.8" font-family="Times,serif" font-size="14.00">ortho(&lt;=4)</text>
<text text-anchor="middle" x="397.58" y="-472.8" font-family="Times,serif" font-size="14.00">xref(&lt;=8)</text>
</g>
<!-- Protein(10)&#45;&gt;ProtDomain(14) -->
<g id="edge37" class="edge">
<title>Protein(10)&#45;&gt;ProtDomain(14)</title>
<path fill="none" stroke="blue" d="M282.4,-715.12C298.01,-718.36 315.82,-721.96 332.08,-725 393.19,-736.42 462.78,-748.05 513.88,-756.33"/>
<text text-anchor="middle" x="397.58" y="-750.8" font-family="Times,serif" font-size="14.00">has_domain</text>
</g>
<!-- Protein(10)&#45;&gt;EC(15) -->
<g id="edge29" class="edge">
<title>Protein(10)&#45;&gt;EC(15)</title>
<path fill="none" stroke="blue" d="M289.52,-706C358.17,-706 480.66,-706 545.13,-706"/>
<text text-anchor="middle" x="397.58" y="-709.8" font-family="Times,serif" font-size="14.00">cat_c</text>
</g>
<!-- Protein(10)&#45;&gt;Gene(9) -->
<g id="edge32" class="edge">
<title>Protein(10)&#45;&gt;Gene(9)</title>
<path fill="none" stroke="black" d="M254.26,-688.65C271.12,-669.63 300.64,-639.51 332.08,-622 341.98,-616.49 487.16,-576.43 554.12,-558.1"/>
<text text-anchor="middle" x="397.58" y="-625.8" font-family="Times,serif" font-size="14.00">enc</text>
</g>
<!-- Protein(10)&#45;&gt;Protein(10) -->
<g id="edge35" class="edge">
<title>Protein(10)&#45;&gt;Protein(10)</title>
<path fill="none" stroke="blue" d="M219,-722.66C214.62,-732.62 221.19,-742 238.69,-742 256.19,-742 262.75,-732.62 258.37,-722.66"/>
<text text-anchor="middle" x="238.69" y="-790.8" font-family="Times,serif" font-size="14.00">equivalent(&lt;=4)</text>
<text text-anchor="middle" x="238.69" y="-775.8" font-family="Times,serif" font-size="14.00">h_s_s(&lt;=4)</text>
<text text-anchor="middle" x="238.69" y="-760.8" font-family="Times,serif" font-size="14.00">ortho(&lt;=4)</text>
<text text-anchor="middle" x="238.69" y="-745.8" font-family="Times,serif" font-size="14.00">xref(&lt;=8)</text>
</g>
<!-- EC(12) -->
<g id="node24" class="node">
<title>EC(12)</title>
<ellipse fill="none" stroke="black" cx="588.49" cy="-1031" rx="36.29" ry="18"/>
<text text-anchor="middle" x="588.49" y="-1027.3" font-family="Times,serif" font-size="14.00">EC(12)</text>
</g>
<!-- Protein(10)&#45;&gt;EC(12) -->
<g id="edge30" class="edge">
<title>Protein(10)&#45;&gt;EC(12)</title>
<path fill="none" stroke="black" d="M241.58,-724.19C247.05,-766.73 266.88,-873.06 332.08,-925 378.31,-961.83 410.64,-920.72 463.08,-948 473.12,-953.22 472.19,-959 481.08,-966 507.28,-986.62 540.46,-1005.95 562.75,-1018.09"/>
<text text-anchor="middle" x="397.58" y="-951.8" font-family="Times,serif" font-size="14.00">cat_c</text>
</g>
<!-- ProtDomain(11) -->
<g id="node25" class="node">
<title>ProtDomain(11)</title>
<ellipse fill="none" stroke="black" cx="588.49" cy="-877" rx="68.79" ry="18"/>
<text text-anchor="middle" x="588.49" y="-873.3" font-family="Times,serif" font-size="14.00">ProtDomain(11)</text>
</g>
<!-- Protein(10)&#45;&gt;ProtDomain(11) -->
<g id="edge36" class="edge">
<title>Protein(10)&#45;&gt;ProtDomain(11)</title>
<path fill="none" stroke="black" d="M246.42,-723.88C258.58,-753.48 287.18,-812.13 332.08,-840 362.72,-859.02 455.85,-868.75 520.74,-873.35"/>
<text text-anchor="middle" x="397.58" y="-870.8" font-family="Times,serif" font-size="14.00">has_domain</text>
</g>
<!-- Enzyme(17) -->
<g id="node26" class="node">
<title>Enzyme(17)</title>
<ellipse fill="none" stroke="black" cx="588.49" cy="-344" rx="54.69" ry="18"/>
<text text-anchor="middle" x="588.49" y="-340.3" font-family="Times,serif" font-size="14.00">Enzyme(17)</text>
</g>
<!-- Protein(10)&#45;&gt;Enzyme(17) -->
<g id="edge39" class="edge">
<title>Protein(10)&#45;&gt;Enzyme(17)</title>
<path fill="none" stroke="blue" d="M263,-690.17C280.43,-676.88 303.08,-656.22 314.08,-632 326.92,-603.71 309.8,-374.64 332.08,-353 389.53,-297.2 492.94,-315.61 548.94,-331.33"/>
<text text-anchor="middle" x="397.58" y="-356.8" font-family="Times,serif" font-size="14.00">is_a</text>
</g>
<!-- EC(12)&#45;&gt;MolFunc(3) -->
<g id="edge44" class="edge">
<title>EC(12)&#45;&gt;MolFunc(3)</title>
<path fill="none" stroke="blue" d="M625.06,-1032.61C674.43,-1034.54 766.52,-1037.04 844.91,-1033 853.26,-1032.57 862.04,-1031.91 870.69,-1031.14"/>
<text text-anchor="middle" x="779.41" y="-1038.8" font-family="Times,serif" font-size="14.00">equ</text>
</g>
<!-- ProtDomain(11)&#45;&gt;BioProc(4) -->
<g id="edge47" class="edge">
<title>ProtDomain(11)&#45;&gt;BioProc(4)</title>
<path fill="none" stroke="black" d="M652.88,-870.36C669.06,-865.65 684.96,-857.85 695.91,-845 735.16,-798.92 671.83,-753.52 713.91,-710 754.94,-667.55 795.8,-720.78 844.91,-688 887.43,-659.61 913.15,-602.7 924.73,-571.21"/>
<text text-anchor="middle" x="779.41" y="-713.8" font-family="Times,serif" font-size="14.00">participates_in</text>
</g>
<!-- ProtDomain(11)&#45;&gt;MolFunc(3) -->
<g id="edge45" class="edge">
<title>ProtDomain(11)&#45;&gt;MolFunc(3)</title>
<path fill="none" stroke="black" d="M653.58,-883.12C668.82,-887.15 684.08,-893.64 695.91,-904 712.11,-918.19 698.3,-934.15 713.91,-949 756.55,-989.59 822.14,-1008.29 870.27,-1016.86"/>
<text text-anchor="middle" x="779.41" y="-1013.8" font-family="Times,serif" font-size="14.00">has_function</text>
</g>
<!-- ProtDomain(11)&#45;&gt;CelComp(5) -->
<g id="edge46" class="edge">
<title>ProtDomain(11)&#45;&gt;CelComp(5)</title>
<path fill="none" stroke="blue" d="M649.65,-868.55C701.44,-861.22 778.14,-850.2 844.91,-840 852.78,-838.8 861.05,-837.5 869.23,-836.21"/>
<text text-anchor="middle" x="779.41" y="-861.8" font-family="Times,serif" font-size="14.00">located_in</text>
</g>
<!-- Enzyme(17)&#45;&gt;Reaction(188) -->
<g id="edge48" class="edge">
<title>Enzyme(17)&#45;&gt;Reaction(188)</title>
<path fill="none" stroke="blue" d="M618.01,-328.58C640.01,-316.21 670.82,-297.86 695.91,-279 780.95,-215.07 870.89,-125.92 910.82,-85.05"/>
<text text-anchor="middle" x="779.41" y="-266.8" font-family="Times,serif" font-size="14.00">ca_by</text>
</g>
<!-- Reaction(18) -->
<g id="node27" class="node">
<title>Reaction(18)</title>
<ellipse fill="none" stroke="black" cx="933.03" cy="-411" rx="56.59" ry="18"/>
<text text-anchor="middle" x="933.03" y="-407.3" font-family="Times,serif" font-size="14.00">Reaction(18)</text>
</g>
<!-- Enzyme(17)&#45;&gt;Reaction(18) -->
<g id="edge49" class="edge">
<title>Enzyme(17)&#45;&gt;Reaction(18)</title>
<path fill="none" stroke="black" d="M637.82,-336.03C691.66,-329.6 779.7,-326.5 844.91,-361 856.38,-367.07 852.49,-376.25 862.91,-384 871.18,-390.15 881.03,-395.1 890.67,-398.99"/>
<text text-anchor="middle" x="779.41" y="-364.8" font-family="Times,serif" font-size="14.00">ca_by</text>
</g>
<!-- Reaction(18)&#45;&gt;Path(19) -->
<g id="edge50" class="edge">
<title>Reaction(18)&#45;&gt;Path(19)</title>
<path fill="none" stroke="blue" d="M975.36,-398.92C985,-395.04 994.86,-390.11 1003.16,-384 1089.29,-320.62 1158.39,-209.92 1185.27,-163.01"/>
<text text-anchor="middle" x="1064.66" y="-371.8" font-family="Times,serif" font-size="14.00">part_of</text>
</g>
</g>
</svg>
