<svg width="20" height="20" viewBox="0 0 20 20" fill="none" xmlns="http://www.w3.org/2000/svg">
<path d="M18.3332 13.9501V3.89174C18.3332 2.89174 17.5165 2.15008 16.5248 2.23341H16.4748C14.7248 2.38341 12.0665 3.27508 10.5832 4.20841L10.4415 4.30008C10.1998 4.45008 9.79984 4.45008 9.55817 4.30008L9.34984 4.17508C7.8665 3.25008 5.2165 2.36674 3.4665 2.22508C2.47484 2.14174 1.6665 2.89174 1.6665 3.88341V13.9501C1.6665 14.7501 2.3165 15.5001 3.1165 15.6001L3.35817 15.6334C5.1665 15.8751 7.95817 16.7917 9.55817 17.6667L9.5915 17.6834C9.8165 17.8084 10.1748 17.8084 10.3915 17.6834C11.9915 16.8001 14.7915 15.8751 16.6082 15.6334L16.8832 15.6001C17.6832 15.5001 18.3332 14.7501 18.3332 13.9501Z" stroke="#6F7F8F" stroke-width="1.5" stroke-linecap="round" stroke-linejoin="round" class="currentColor"/>
<path d="M10 4.5752V17.0752" stroke="#6F7F8F" stroke-width="1.5" stroke-linecap="round" stroke-linejoin="round" class="currentColor"/>
<path d="M6.4585 7.0752H4.5835" stroke="#6F7F8F" stroke-width="1.5" stroke-linecap="round" stroke-linejoin="round" class="currentColor"/>
<path d="M7.0835 9.5752H4.5835" stroke="#6F7F8F" stroke-width="1.5" stroke-linecap="round" stroke-linejoin="round" class="currentColor"/>
</svg>
