<?xml version="1.0" encoding="UTF-8" standalone="no"?>
<svg
   width="31.96875"
   zoomAndPan="magnify"
   viewBox="0 0 23.976562 27.750007"
   height="37.000011"
   preserveAspectRatio="xMidYMid"
   version="1.0"
   id="svg13"
   sodipodi:docname="Wheat Pathogenomics Presentation KnetMiner 2023 (1).svg"
   xmlns:inkscape="http://www.inkscape.org/namespaces/inkscape"
   xmlns:sodipodi="http://sodipodi.sourceforge.net/DTD/sodipodi-0.dtd"
   xmlns="http://www.w3.org/2000/svg"
   xmlns:svg="http://www.w3.org/2000/svg">
  <sodipodi:namedview
     id="namedview15"
     pagecolor="#ffffff"
     bordercolor="#000000"
     borderopacity="0.25"
     inkscape:showpageshadow="2"
     inkscape:pageopacity="0.0"
     inkscape:pagecheckerboard="0"
     inkscape:deskcolor="#d1d1d1"
     showgrid="false" />
  <defs
     id="defs5">
    <clipPath
       id="db7e03656a">
      <path
         d="m 75.714844,75.40625 h 24 v 27.75 h -24 z m 0,0"
         clip-rule="nonzero"
         id="path2" />
    </clipPath>
  </defs>
  <g
     clip-path="url(#db7e03656a)"
     id="g11"
     transform="translate(-75.726559,-75.406245)">
    <path
       fill="#bdc5ce"
       d="m 99.59375,85.148438 v -0.0039 c -0.03906,-0.07031 -0.08594,-0.136719 -0.144531,-0.199219 l -0.01563,-0.01562 c 0,0 -5.359375,-5.375 -5.359375,-5.375 -0.03906,-0.0625 -0.08203,-0.121094 -0.132813,-0.175782 C 93.76562,79.207042 93.531245,79.10548 93.285151,79.10548 H 80.335938 c -0.507813,0 -0.921876,0.417969 -0.921876,0.925781 v 22.199219 c 0,0.51172 0.414063,0.92578 0.921876,0.92578 H 98.78125 c 0.507812,0 0.921875,-0.41406 0.921875,-0.92578 V 85.582031 c 0,-0.15625 -0.03906,-0.304687 -0.109375,-0.433593 z m -7.269531,0.425781 c 0,0.25 0.09375,0.484375 0.269531,0.660156 0.171875,0.175781 0.40625,0.273437 0.652344,0.273437 h 4.613281 c 0,0 0,14.800778 0,14.800778 0,0 -16.601563,0 -16.601563,0 0,0 0,-20.351559 0,-20.351559 0,0 11.097657,0 11.097657,0 0,0 -0.03125,4.617188 -0.03125,4.617188 z M 91.402344,75.40625 H 76.648438 c -0.511719,0 -0.921876,0.414062 -0.921876,0.925781 V 98.53125 c 0,0.511719 0.410157,0.925781 0.921876,0.925781 0.507812,0 0.921874,-0.414062 0.921874,-0.925781 V 77.257812 c 0,0 13.832032,0 13.832032,0 0.507812,0 0.921875,-0.414062 0.921875,-0.925781 0,-0.511719 -0.414063,-0.925781 -0.921875,-0.925781 z m -7.378906,19.824219 h 10.144531 c 0.511719,0 0.921875,-0.417969 0.921875,-0.925781 0,-0.511719 -0.410156,-0.925782 -0.921875,-0.925782 H 84.023438 c -0.507813,0 -0.921876,0.414063 -0.921876,0.925782 0,0.507812 0.414063,0.925781 0.921876,0.925781 z m 0,-3.171875 h 7.378906 c 0.507812,0 0.921875,-0.414063 0.921875,-0.925782 0,-0.511718 -0.414063,-0.925781 -0.921875,-0.925781 h -7.378906 c -0.507813,0 -0.921876,0.414063 -0.921876,0.925781 0,0.511719 0.414063,0.925782 0.921876,0.925782 z m 0,-3.171875 h 5.535156 c 0.507812,0 0.921875,-0.414063 0.921875,-0.925781 0,-0.511719 -0.414063,-0.925782 -0.921875,-0.925782 h -5.535156 c -0.507813,0 -0.921876,0.414063 -0.921876,0.925782 0,0.511718 0.414063,0.925781 0.921876,0.925781 z M 94.175781,84.65625 h 2.378907 l -2.363282,-2.367188 z m 0,0"
       fill-opacity="1"
       fill-rule="evenodd"
       id="path7" />
    <path
       fill="#bdc5ce"
       d="m 99.59375,85.148438 v -0.0039 c -0.03906,-0.07031 -0.08594,-0.136719 -0.144531,-0.199219 l -0.01563,-0.01562 c 0,0 -5.359375,-5.375 -5.359375,-5.375 -0.03906,-0.0625 -0.08203,-0.121094 -0.132813,-0.175782 C 93.76562,79.207042 93.531245,79.10548 93.285151,79.10548 H 80.335938 c -0.507813,0 -0.921876,0.417969 -0.921876,0.925781 v 22.199219 c 0,0.51172 0.414063,0.92578 0.921876,0.92578 H 98.78125 c 0.507812,0 0.921875,-0.41406 0.921875,-0.92578 V 85.582031 c 0,-0.15625 -0.03906,-0.304687 -0.109375,-0.433593 z m -7.269531,0.425781 c 0,0.25 0.09375,0.484375 0.269531,0.660156 0.171875,0.175781 0.40625,0.273437 0.652344,0.273437 h 4.613281 c 0,0 0,14.800778 0,14.800778 0,0 -16.601563,0 -16.601563,0 0,0 0,-20.351559 0,-20.351559 0,0 11.097657,0 11.097657,0 0,0 -0.03125,4.617188 -0.03125,4.617188 z M 91.402344,75.40625 H 76.648438 c -0.511719,0 -0.921876,0.414062 -0.921876,0.925781 V 98.53125 c 0,0.511719 0.410157,0.925781 0.921876,0.925781 0.507812,0 0.921874,-0.414062 0.921874,-0.925781 V 77.257812 c 0,0 13.832032,0 13.832032,0 0.507812,0 0.921875,-0.414062 0.921875,-0.925781 0,-0.511719 -0.414063,-0.925781 -0.921875,-0.925781 z m -7.378906,19.824219 h 10.144531 c 0.511719,0 0.921875,-0.417969 0.921875,-0.925781 0,-0.511719 -0.410156,-0.925782 -0.921875,-0.925782 H 84.023438 c -0.507813,0 -0.921876,0.414063 -0.921876,0.925782 0,0.507812 0.414063,0.925781 0.921876,0.925781 z m 0,-3.171875 h 7.378906 c 0.507812,0 0.921875,-0.414063 0.921875,-0.925782 0,-0.511718 -0.414063,-0.925781 -0.921875,-0.925781 h -7.378906 c -0.507813,0 -0.921876,0.414063 -0.921876,0.925781 0,0.511719 0.414063,0.925782 0.921876,0.925782 z m 0,-3.171875 h 5.535156 c 0.507812,0 0.921875,-0.414063 0.921875,-0.925781 0,-0.511719 -0.414063,-0.925782 -0.921875,-0.925782 h -5.535156 c -0.507813,0 -0.921876,0.414063 -0.921876,0.925782 0,0.511718 0.414063,0.925781 0.921876,0.925781 z M 94.175781,84.65625 h 2.378907 l -2.363282,-2.367188 z m 0,0"
       fill-opacity="1"
       fill-rule="evenodd"
       id="path9" />
  </g>
</svg>
