<svg width="20" height="20" viewBox="0 0 20 20" fill="none" xmlns="http://www.w3.org/2000/svg">
<path d="M10.5693 9.74203C7.82934 8.22641 5.24121 6.79594 5.24121 2.30859C5.24121 2.10139 5.1589 1.90268 5.01239 1.75617C4.86588 1.60965 4.66716 1.52734 4.45996 1.52734C4.25276 1.52734 4.05405 1.60965 3.90753 1.75617C3.76102 1.90268 3.67871 2.10139 3.67871 2.30859C3.67871 7.71734 6.93793 9.51938 9.81324 11.1094C12.4668 12.5767 14.7584 13.8438 14.7584 17.692C14.7584 17.8992 14.8407 18.0979 14.9872 18.2445C15.1337 18.391 15.3325 18.4733 15.5397 18.4733C15.7469 18.4733 15.9456 18.391 16.0921 18.2445C16.2386 18.0979 16.3209 17.8992 16.3209 17.692C16.3209 12.9222 13.2654 11.2328 10.5693 9.74203Z" fill="#FFFFFF" class="currentColor"/>
<path d="M15.5397 1.52734C15.3325 1.52734 15.1337 1.60965 14.9872 1.75617C14.8407 1.90268 14.7584 2.10139 14.7584 2.30859C14.7584 6.79594 12.1703 8.22703 9.43027 9.74203C6.73418 11.2328 3.67871 12.9222 3.67871 17.692C3.67871 17.8992 3.76102 18.0979 3.90753 18.2445C4.05405 18.391 4.25276 18.4733 4.45996 18.4733C4.66716 18.4733 4.86588 18.391 5.01239 18.2445C5.1589 18.0979 5.24121 17.8992 5.24121 17.692C5.24121 13.8439 7.53277 12.5767 10.1864 11.1094C13.0614 9.51938 16.3209 7.71734 16.3209 2.30859C16.3209 2.10139 16.2386 1.90268 16.0921 1.75617C15.9456 1.60965 15.7469 1.52734 15.5397 1.52734Z" fill="#FFFFFF" class="currentColor"/>
<rect x="7.8042" y="1.6709" width="4.39183" height="1.41667" rx="0.708334" fill="#FFFFFF" class="currentColor"/>
<rect x="12.1958" y="18.4736" width="4.39183" height="1.41667" rx="0.708334" transform="rotate(-180 12.1958 18.4736)" fill="#FFFFFF" class="currentColor"/>
<rect x="8.79102" y="4.95801" width="2.41825" height="1.41667" rx="0.708334" fill="#FFFFFF" class="currentColor"/>
<rect x="11.209" y="15.1865" width="2.41825" height="1.41667" rx="0.708333" transform="rotate(-180 11.209 15.1865)" fill="#FFFFFF" class="currentColor"/>
</svg>
