<svg width="134" height="32" viewBox="0 0 134 32" fill="none" xmlns="http://www.w3.org/2000/svg">
<g clip-path="url(#clip0_2623_14434)">
<path d="M8.59173 31.95C8.59173 31.95 8.6414 31.95 8.69106 32H0.993264C0.993264 31.45 0.546295 31 0 31V25.35C0.397306 25.35 0.744948 25.3 1.14225 25.2C2.48316 27.6 4.86699 30.6 8.59173 31.95ZM21.2062 23.3C20.1136 23.3 19.2197 22.4 19.2197 21.3C19.2197 21.25 19.2197 21.15 19.2197 21.1C17.4814 20.85 15.9916 21.25 14.6506 21.65C14.2533 21.75 13.9057 21.85 13.5084 21.95C13.2104 23.3 12.0185 24.3 10.5783 24.3C8.93938 24.3 7.59847 22.95 7.59847 21.3C7.59847 20.9 7.64813 20.55 7.79712 20.2C5.76093 17.9 3.52609 13.15 0.645622 3.94995C0.446969 3.99995 0.248316 3.99995 0 3.99995V9.64995C0.546295 9.64995 0.993264 10.1 0.993264 10.65C0.993264 11.2 0.546295 11.65 0 11.65V17.3C2.18518 17.3 3.97306 19.1 3.97306 21.3C3.97306 22.75 3.22811 24 2.08585 24.7C3.3771 26.95 5.56228 29.7 8.88971 30.95C9.23736 30.35 9.88298 29.95 10.6279 29.95C11.7205 29.95 12.6145 30.85 12.6145 31.95H18.2264C18.2264 30.3 19.5673 28.95 21.2062 28.95C21.2559 28.95 21.2559 28.95 21.3055 28.95C21.6035 26.7 21.6035 24.85 21.3055 23.25C21.2559 23.3 21.2062 23.3 21.2062 23.3ZM22.7457 22.55C22.5968 22.75 22.3981 22.9 22.1995 23.05C22.4974 24.75 22.5471 26.8 22.1995 29.2C23.3417 29.65 24.0867 30.75 24.0867 32H27.8114C27.8114 30.8 28.308 29.75 29.1026 29.05C26.6691 25.75 24.5833 23.75 22.7457 22.55ZM10.5783 18.35C12.0682 18.35 13.3594 19.5 13.5084 20.95C13.7567 20.9 14.0547 20.8 14.303 20.7C15.8426 20.25 17.5311 19.75 19.5176 20.1C19.617 19.95 19.766 19.8 19.9149 19.7C18.4747 17.2 16.1405 15.8 14.1043 14.55C12.9621 13.9 11.9688 13.25 11.1742 12.5C10.9756 12.6 10.7273 12.6 10.5286 12.6C9.43601 12.6 8.54207 11.7 8.54207 10.6C8.54207 9.89995 8.88971 9.29995 9.43601 8.94995C8.93938 6.79995 9.08837 4.59995 9.33668 2.89995C8.29375 2.44995 7.54881 1.39995 7.54881 0.149951C7.54881 0.0499512 7.54881 -4.88155e-05 7.54881 -0.0500488H3.97306C3.97306 1.59995 2.97979 2.99995 1.63889 3.59995C4.42002 12.5 6.50588 17.1 8.39308 19.3C8.93938 18.75 9.68432 18.35 10.5783 18.35ZM30.7912 -4.88155e-05H23.1927C23.1927 0.0499512 23.1927 0.149951 23.1927 0.199951C23.1927 1.29995 22.2988 2.19995 21.2062 2.19995C21.1565 2.19995 21.1069 2.19995 21.0075 2.19995C20.3619 4.49995 20.1136 6.34995 20.3122 7.79995C20.6102 7.69995 20.9082 7.64995 21.2062 7.64995C22.8451 7.64995 24.186 8.99995 24.186 10.65C24.186 11 24.1363 11.35 24.037 11.65C25.2786 11.8 26.6691 11.65 27.9107 11.35C27.8114 11.15 27.8114 10.9 27.8114 10.65C27.8114 8.44995 29.5993 6.64995 31.7844 6.64995V0.999951C31.2382 0.999951 30.7912 0.549951 30.7912 -4.88155e-05ZM28.159 12.35C27.1658 12.55 26.0732 12.75 25.0303 12.75C24.484 12.75 23.9873 12.7 23.4907 12.6C22.9444 13.25 22.1001 13.65 21.2062 13.65C19.5673 13.65 18.2264 12.3 18.2264 10.65C18.2264 9.69995 18.6734 8.79995 19.3686 8.24995C19.1203 6.54995 19.319 4.44995 20.0639 1.84995C19.5176 1.49995 19.17 0.899951 19.17 0.199951C19.17 0.0999512 19.17 0.0499512 19.17 -4.88155e-05H13.5581C13.5581 0.0499512 13.5581 0.149951 13.5581 0.199951C13.5581 1.84995 12.2171 3.19995 10.5783 3.19995C10.4789 3.19995 10.4293 3.19995 10.3299 3.19995C10.0816 4.74995 9.9823 6.74995 10.3796 8.64995C10.4293 8.64995 10.4789 8.64995 10.5286 8.64995C11.6212 8.64995 12.5151 9.54995 12.5151 10.65C12.5151 11.15 12.3165 11.6 12.0185 11.95C12.7138 12.55 13.6574 13.1 14.6506 13.7C16.8358 15 19.3686 16.5 20.9579 19.35C21.0572 19.35 21.1069 19.35 21.2062 19.35C22.2988 19.35 23.1927 20.25 23.1927 21.35C23.1927 21.45 23.1927 21.55 23.1927 21.6C25.1296 22.85 27.3644 25 29.9469 28.5C30.4932 28.2 31.1388 28.05 31.7844 28.05V22.35C31.2382 22.35 30.7912 21.9 30.7912 21.35C30.7912 20.8 31.2382 20.35 31.7844 20.35V14.65C30.1952 14.65 28.8047 13.7 28.159 12.35Z" fill="#51CE7B"/>
<path d="M50.4085 16.0501L56.4177 22.4001V22.5501H53.4876L48.273 16.9501V22.5501H45.8892V9.95007H48.273V15.3001L53.0406 9.95007H55.9708V10.0001L50.4085 16.0501Z" fill="#121212"/>
<path d="M63.5199 17.9C63.5199 16.55 62.7749 15.5 61.3844 15.5C60.0435 15.5 59.1495 16.65 59.1495 18V22.55H56.9644V13.65H58.9012L59.0502 14.85C59.9441 13.95 60.8381 13.5 61.9307 13.5C64.0165 13.5 65.6554 15.05 65.6554 17.85V22.5H63.4702V17.9H63.5199Z" fill="#121212"/>
<path d="M71.9622 20.8C72.7568 20.8 73.7998 20.5 74.346 19.95L75.7366 21.35C74.793 22.3 73.3031 22.8 71.9622 22.8C68.9327 22.8 67.0952 20.9 67.0952 18.05C67.0952 15.35 68.9328 13.4 71.7636 13.4C74.495 13.4 76.2333 14.95 76.2333 18.05C76.2333 18.3 76.2333 18.6 76.1836 18.9H69.2804C69.479 20 70.4226 20.8 71.9622 20.8ZM71.8132 15.35C70.6213 15.35 69.6777 15.95 69.3301 17.1H74.0977C73.9984 15.95 73.1045 15.35 71.8132 15.35Z" fill="#121212"/>
<path d="M80.5043 13.7H82.9378V15.6H80.5043V19.45C80.5043 20.3 80.9512 20.7 81.6465 20.7C81.9942 20.7 82.3915 20.6 82.6895 20.45L83.2854 22.3C82.5901 22.55 82.0438 22.7 81.2989 22.7C79.511 22.7 78.3191 21.6 78.3191 19.45V15.6H76.6802V13.7H78.3191V11.4L80.5043 11.15V13.7Z" fill="#121212"/>
<path d="M91.4801 18.9001H91.0332L87.0601 13.4001V22.5501H84.6763V9.95007H87.4077L91.3311 15.3501L95.2545 9.95007H97.9363V22.5501H95.5525V13.4501L91.4801 18.9001Z" fill="#121212"/>
<path d="M100.966 9.90002C101.611 9.90002 102.257 10.3 102.257 11.2C102.257 12.05 101.611 12.5 100.966 12.5C100.32 12.5 99.6743 12.05 99.6743 11.2C99.6743 10.3 100.32 9.90002 100.966 9.90002ZM99.873 22.55H102.058V13.65H99.873V22.55Z" fill="#121212"/>
<path d="M110.402 17.9C110.402 16.55 109.657 15.5 108.266 15.5C106.925 15.5 106.031 16.65 106.031 18V22.55H103.846V13.65H105.783L105.932 14.85C106.826 13.95 107.72 13.5 108.813 13.5C110.898 13.5 112.537 15.05 112.537 17.85V22.5H110.352V17.9H110.402Z" fill="#121212"/>
<path d="M118.844 20.8C119.639 20.8 120.682 20.5 121.228 19.95L122.618 21.35C121.675 22.3 120.185 22.8 118.844 22.8C115.815 22.8 113.977 20.9 113.977 18.05C113.977 15.35 115.815 13.4 118.645 13.4C121.377 13.4 123.115 14.95 123.115 18.05C123.115 18.3 123.115 18.6 123.065 18.9H116.162C116.361 20 117.354 20.8 118.844 20.8ZM118.745 15.35C117.553 15.35 116.609 15.95 116.262 17.1H121.029C120.88 15.95 119.986 15.35 118.745 15.35Z" fill="#121212"/>
<path d="M126.89 14.7001C127.585 13.6001 128.479 13.4501 129.373 13.4501C130.267 13.4501 131.161 13.8001 131.657 14.3001L130.664 16.2001C130.217 15.8001 129.82 15.6001 129.075 15.6001C127.933 15.6001 126.89 16.2001 126.89 17.8501V22.5501H124.705V13.7001H126.741L126.89 14.7001Z" fill="#121212"/>
</g>
<defs>
<clipPath id="clip0_2623_14434">
<rect width="134" height="32" fill="white"/>
</clipPath>
</defs>
</svg>
