<svg width="20" height="20" viewBox="0 0 20 20" fill="none" xmlns="http://www.w3.org/2000/svg">
<path d="M15.2245 11.9748L14.3774 8.2207" stroke="white" stroke-width="1.5" stroke-miterlimit="10" stroke-linecap="round" stroke-linejoin="round" class="currentColor"/>
<path d="M11.39 5.34515L6.6665 4.43359" stroke="white" stroke-width="1.5" stroke-miterlimit="10" stroke-linecap="round" stroke-linejoin="round" class="currentColor" />
<path d="M4.1665 6.5752C5.54722 6.5752 6.6665 5.45591 6.6665 4.0752C6.6665 2.69448 5.54722 1.5752 4.1665 1.5752C2.78579 1.5752 1.6665 2.69448 1.6665 4.0752C1.6665 5.45591 2.78579 6.5752 4.1665 6.5752Z" stroke="white" stroke-width="1.5" stroke-miterlimit="10" stroke-linecap="round" stroke-linejoin="round" class="currentColor"/>
<path d="M13.8901 8.2207C15.2708 8.2207 16.3901 7.10142 16.3901 5.7207C16.3901 4.33999 15.2708 3.2207 13.8901 3.2207C12.5094 3.2207 11.3901 4.33999 11.3901 5.7207C11.3901 7.10142 12.5094 8.2207 13.8901 8.2207Z" stroke="white" stroke-width="1.5" stroke-miterlimit="10" stroke-linecap="round" stroke-linejoin="round" class="currentColor" />
<path d="M13.2131 14.7969L8.50928 15.8623" stroke="white" stroke-width="1.5" stroke-miterlimit="10" stroke-linecap="round" stroke-linejoin="round" class="currentColor" />
<path d="M12.2821 7.75269L7.51172 13.6377" stroke="white" stroke-width="1.5" stroke-miterlimit="10" stroke-linecap="round" stroke-linejoin="round" class="currentColor"/>
<path d="M6.00928 18.3623C7.38999 18.3623 8.50928 17.243 8.50928 15.8623C8.50928 14.4816 7.38999 13.3623 6.00928 13.3623C4.62857 13.3623 3.50928 14.4816 3.50928 15.8623C3.50928 17.243 4.62857 18.3623 6.00928 18.3623Z" stroke="white" stroke-width="1.5" stroke-miterlimit="10" stroke-linecap="round" stroke-linejoin="round" class="currentColor" />
<path d="M15.7129 16.9746C17.0936 16.9746 18.2129 15.8553 18.2129 14.4746C18.2129 13.0939 17.0936 11.9746 15.7129 11.9746C14.3322 11.9746 13.2129 13.0939 13.2129 14.4746C13.2129 15.8553 14.3322 16.9746 15.7129 16.9746Z" stroke="white" stroke-width="1.5" stroke-miterlimit="10" stroke-linecap="round" stroke-linejoin="round" class="currentColor"/>
</svg>
