<svg width="964pt" height="826pt"
 viewBox="0.00 0.00 964.40 826.00" xmlns="http://www.w3.org/2000/svg" xmlns:xlink="http://www.w3.org/1999/xlink">
<g id="graph0" class="graph" transform="scale(1 1) rotate(0) translate(4 822)">
<title>%3</title>
<polygon fill="white" stroke="transparent" points="-4,4 -4,-822 960.4,-822 960.4,4 -4,4"/>
<!-- Gene(8) -->
<g id="node1" class="node">
<title>Gene(8)</title>
<polygon fill="none" stroke="darkgreen" points="754.98,-501.54 754.98,-516.46 730.31,-527 695.43,-527 670.76,-516.46 670.76,-501.54 695.43,-491 730.31,-491 754.98,-501.54"/>
<polygon fill="none" stroke="darkgreen" points="758.96,-498.9 758.96,-519.1 731.12,-531 694.61,-531 666.78,-519.1 666.78,-498.9 694.61,-487 731.12,-487 758.96,-498.9"/>
<text text-anchor="middle" x="712.87" y="-504.8" font-family="Times,serif" font-size="14.00">Gene(8)</text>
</g>
<!-- Protein(7) -->
<g id="node2" class="node">
<title>Protein(7)</title>
<polygon fill="none" stroke="darkgreen" points="473.21,-705.54 473.21,-720.46 444.2,-731 403.18,-731 374.17,-720.46 374.17,-705.54 403.18,-695 444.2,-695 473.21,-705.54"/>
<polygon fill="none" stroke="darkgreen" points="477.19,-702.74 477.19,-723.26 444.9,-735 402.48,-735 370.19,-723.26 370.19,-702.74 402.48,-691 444.9,-691 477.19,-702.74"/>
<text text-anchor="middle" x="423.69" y="-708.8" font-family="Times,serif" font-size="14.00">Protein(7)</text>
</g>
<!-- Publication(2) -->
<g id="node3" class="node">
<title>Publication(2)</title>
<polygon fill="none" stroke="darkgreen" points="778.77,-577.54 778.77,-592.46 740.16,-603 685.57,-603 646.97,-592.46 646.97,-577.54 685.57,-567 740.16,-567 778.77,-577.54"/>
<polygon fill="none" stroke="darkgreen" points="782.78,-574.49 782.78,-595.51 740.7,-607 685.04,-607 642.96,-595.51 642.96,-574.49 685.04,-563 740.7,-563 782.78,-574.49"/>
<text text-anchor="middle" x="712.87" y="-580.8" font-family="Times,serif" font-size="14.00">Publication(2)</text>
</g>
<!-- EC(15) -->
<g id="node4" class="node">
<title>EC(15)</title>
<polygon fill="none" stroke="darkgreen" points="462.92,-403.54 462.92,-418.46 439.94,-429 407.44,-429 384.46,-418.46 384.46,-403.54 407.44,-393 439.94,-393 462.92,-403.54"/>
<polygon fill="none" stroke="darkgreen" points="466.93,-400.98 466.93,-421.02 440.82,-433 406.56,-433 380.45,-421.02 380.45,-400.98 406.56,-389 440.82,-389 466.93,-400.98"/>
<text text-anchor="middle" x="423.69" y="-406.8" font-family="Times,serif" font-size="14.00">EC(15)</text>
</g>
<!-- Path(19) -->
<g id="node5" class="node">
<title>Path(19)</title>
<polygon fill="none" stroke="darkgreen" points="952.32,-788.54 952.32,-803.46 926.65,-814 890.35,-814 864.68,-803.46 864.68,-788.54 890.35,-778 926.65,-778 952.32,-788.54"/>
<polygon fill="none" stroke="darkgreen" points="956.31,-785.86 956.31,-806.14 927.44,-818 889.56,-818 860.69,-806.14 860.69,-785.86 889.56,-774 927.44,-774 956.31,-785.86"/>
<text text-anchor="middle" x="908.5" y="-791.8" font-family="Times,serif" font-size="14.00">Path(19)</text>
</g>
<!-- ProtDomain(14) -->
<g id="node6" class="node">
<title>ProtDomain(14)</title>
<polygon fill="none" stroke="darkgreen" points="497.55,-341.54 497.55,-356.46 454.28,-367 393.1,-367 349.84,-356.46 349.84,-341.54 393.1,-331 454.28,-331 497.55,-341.54"/>
<polygon fill="none" stroke="darkgreen" points="501.55,-338.4 501.55,-359.6 454.76,-371 392.62,-371 345.83,-359.6 345.83,-338.4 392.62,-327 454.76,-327 501.55,-338.4"/>
<text text-anchor="middle" x="423.69" y="-344.8" font-family="Times,serif" font-size="14.00">ProtDomain(14)</text>
</g>
<!-- Reaction(188) -->
<g id="node7" class="node">
<title>Reaction(188)</title>
<polygon fill="none" stroke="darkgreen" points="778.75,-647.54 778.75,-662.46 740.16,-673 685.58,-673 646.99,-662.46 646.99,-647.54 685.58,-637 740.16,-637 778.75,-647.54"/>
<polygon fill="none" stroke="darkgreen" points="782.76,-644.49 782.76,-665.51 740.7,-677 685.04,-677 642.98,-665.51 642.98,-644.49 685.04,-633 740.7,-633 782.76,-644.49"/>
<text text-anchor="middle" x="712.87" y="-650.8" font-family="Times,serif" font-size="14.00">Reaction(188)</text>
</g>
<!-- BioProc(4) -->
<g id="node8" class="node">
<title>BioProc(4)</title>
<polygon fill="none" stroke="darkgreen" points="766.32,-299.54 766.32,-314.46 735.01,-325 690.73,-325 659.42,-314.46 659.42,-299.54 690.73,-289 735.01,-289 766.32,-299.54"/>
<polygon fill="none" stroke="darkgreen" points="770.32,-296.67 770.32,-317.33 735.67,-329 690.07,-329 655.42,-317.33 655.42,-296.67 690.07,-285 735.67,-285 770.32,-296.67"/>
<text text-anchor="middle" x="712.87" y="-302.8" font-family="Times,serif" font-size="14.00">BioProc(4)</text>
</g>
<!-- Phenotype(13) -->
<g id="node9" class="node">
<title>Phenotype(13)</title>
<polygon fill="none" stroke="darkgreen" points="779.98,-432.54 779.98,-447.46 740.67,-458 685.07,-458 645.76,-447.46 645.76,-432.54 685.07,-422 740.67,-422 779.98,-432.54"/>
<polygon fill="none" stroke="darkgreen" points="783.96,-429.47 783.96,-450.53 741.19,-462 684.55,-462 641.77,-450.53 641.77,-429.47 684.55,-418 741.19,-418 783.96,-429.47"/>
<text text-anchor="middle" x="712.87" y="-435.8" font-family="Times,serif" font-size="14.00">Phenotype(13)</text>
</g>
<!-- CelComp(5) -->
<g id="node10" class="node">
<title>CelComp(5)</title>
<polygon fill="none" stroke="darkgreen" points="771.47,-237.54 771.47,-252.46 737.14,-263 688.59,-263 654.27,-252.46 654.27,-237.54 688.59,-227 737.14,-227 771.47,-237.54"/>
<polygon fill="none" stroke="darkgreen" points="775.46,-234.59 775.46,-255.41 737.74,-267 688,-267 650.28,-255.41 650.28,-234.59 688,-223 737.74,-223 775.46,-234.59"/>
<text text-anchor="middle" x="712.87" y="-240.8" font-family="Times,serif" font-size="14.00">CelComp(5)</text>
</g>
<!-- TO(16) -->
<g id="node11" class="node">
<title>TO(16)</title>
<polygon fill="none" stroke="darkgreen" points="752.33,-719.54 752.33,-734.46 729.21,-745 696.53,-745 673.41,-734.46 673.41,-719.54 696.53,-709 729.21,-709 752.33,-719.54"/>
<polygon fill="none" stroke="darkgreen" points="756.33,-716.97 756.33,-737.03 730.08,-749 695.66,-749 669.41,-737.03 669.41,-716.97 695.66,-705 730.08,-705 756.33,-716.97"/>
<text text-anchor="middle" x="712.87" y="-722.8" font-family="Times,serif" font-size="14.00">TO(16)</text>
</g>
<!-- MolFunc(3) -->
<g id="node12" class="node">
<title>MolFunc(3)</title>
<polygon fill="none" stroke="darkgreen" points="770.26,-80.54 770.26,-95.46 736.64,-106 689.1,-106 655.48,-95.46 655.48,-80.54 689.1,-70 736.64,-70 770.26,-80.54"/>
<polygon fill="none" stroke="darkgreen" points="774.27,-77.61 774.27,-98.39 737.26,-110 688.48,-110 651.47,-98.39 651.47,-77.61 688.48,-66 737.26,-66 774.27,-77.61"/>
<text text-anchor="middle" x="712.87" y="-83.8" font-family="Times,serif" font-size="14.00">MolFunc(3)</text>
</g>
<!-- Gene(1) -->
<g id="node13" class="node">
<title>Gene(1)</title>
<ellipse fill="none" stroke="red" cx="43.08" cy="-718" rx="39.15" ry="39.15"/>
<ellipse fill="none" stroke="red" cx="43.08" cy="-718" rx="43.15" ry="43.15"/>
<text text-anchor="middle" x="43.08" y="-713.8" font-family="Times,serif" font-size="14.00">Gene(1)</text>
</g>
<!-- Gene(1)&#45;&gt;Protein(7) -->
<g id="edge3" class="edge">
<title>Gene(1)&#45;&gt;Protein(7)</title>
<path fill="none" stroke="black" d="M86.41,-717.44C152.98,-716.56 282.53,-714.85 359.95,-713.83"/>
<polygon fill="black" stroke="black" points="360.1,-717.33 370.06,-713.7 360.01,-710.33 360.1,-717.33"/>
<text text-anchor="middle" x="191.97" y="-718.8" font-family="Times,serif" font-size="14.00">enc</text>
</g>
<!-- Gene(1)&#45;&gt;TO(16) -->
<g id="edge5" class="edge">
<title>Gene(1)&#45;&gt;TO(16)</title>
<path fill="none" stroke="black" d="M85.31,-727.68C91.6,-728.93 98.03,-730.1 104.15,-731 120.66,-733.44 124.93,-732.93 141.58,-734 301.22,-744.3 341.53,-750.44 501.37,-744 555.18,-741.83 616.54,-736.55 659.07,-732.45"/>
<polygon fill="black" stroke="black" points="659.58,-735.92 669.2,-731.46 658.9,-728.95 659.58,-735.92"/>
<text text-anchor="middle" x="294.18" y="-747.8" font-family="Times,serif" font-size="14.00">cooc_wi</text>
</g>
<!-- Protein(10) -->
<g id="node17" class="node">
<title>Protein(10)</title>
<ellipse fill="none" stroke="black" cx="191.97" cy="-380" rx="50.27" ry="18"/>
<text text-anchor="middle" x="191.97" y="-375.8" font-family="Times,serif" font-size="14.00">Protein(10)</text>
</g>
<!-- Gene(1)&#45;&gt;Protein(10) -->
<g id="edge4" class="edge">
<title>Gene(1)&#45;&gt;Protein(10)</title>
<path fill="none" stroke="blue" d="M61.21,-678.57C91.33,-609.26 153.03,-467.31 179.01,-407.52"/>
<polygon fill="blue" stroke="blue" points="182.37,-408.56 183.15,-397.99 175.95,-405.77 182.37,-408.56"/>
<text text-anchor="middle" x="113.87" y="-581.8" font-family="Times,serif" font-size="14.00">enc</text>
</g>
<!-- Enzyme(177) -->
<g id="node14" class="node">
<title>Enzyme(177)</title>
<polygon fill="none" stroke="darkgreen" points="486.76,-125.54 486.76,-140.46 449.81,-151 397.57,-151 360.62,-140.46 360.62,-125.54 397.57,-115 449.81,-115 486.76,-125.54"/>
<polygon fill="none" stroke="darkgreen" points="490.76,-122.53 490.76,-143.47 450.37,-155 397.01,-155 356.62,-143.47 356.62,-122.53 397.01,-111 450.37,-111 490.76,-122.53"/>
<text text-anchor="middle" x="423.69" y="-128.8" font-family="Times,serif" font-size="14.00">Enzyme(177)</text>
</g>
<!-- Reaction(18) -->
<g id="node15" class="node">
<title>Reaction(18)</title>
<ellipse fill="none" stroke="black" cx="712.87" cy="-796" rx="56.04" ry="18"/>
<text text-anchor="middle" x="712.87" y="-791.8" font-family="Times,serif" font-size="14.00">Reaction(18)</text>
</g>
<!-- Reaction(18)&#45;&gt;Path(19) -->
<g id="edge1" class="edge">
<title>Reaction(18)&#45;&gt;Path(19)</title>
<path fill="none" stroke="blue" d="M769.36,-796C794.7,-796 824.69,-796 850.24,-796"/>
<polygon fill="blue" stroke="blue" points="850.52,-799.5 860.52,-796 850.52,-792.5 850.52,-799.5"/>
<text text-anchor="middle" x="822.38" y="-798.8" font-family="Times,serif" font-size="14.00">part_of</text>
</g>
<!-- EC(12) -->
<g id="node16" class="node">
<title>EC(12)</title>
<ellipse fill="none" stroke="black" cx="423.69" cy="-18" rx="36.28" ry="18"/>
<text text-anchor="middle" x="423.69" y="-13.8" font-family="Times,serif" font-size="14.00">EC(12)</text>
</g>
<!-- EC(12)&#45;&gt;MolFunc(3) -->
<g id="edge2" class="edge">
<title>EC(12)&#45;&gt;MolFunc(3)</title>
<path fill="none" stroke="black" d="M459.92,-19.09C500.26,-21.14 567.95,-27.03 623.57,-44 639.43,-48.84 655.92,-56.31 670.3,-63.73"/>
<polygon fill="black" stroke="black" points="668.94,-66.97 679.41,-68.57 672.22,-60.79 668.94,-66.97"/>
<text text-anchor="middle" x="571.47" y="-46.8" font-family="Times,serif" font-size="14.00">equ</text>
</g>
<!-- Protein(10)&#45;&gt;Gene(8) -->
<g id="edge19" class="edge">
<title>Protein(10)&#45;&gt;Gene(8)</title>
<path fill="none" stroke="black" d="M203.69,-397.52C225.48,-431.13 278.63,-503.48 346.01,-528 453.04,-566.94 589.36,-542.11 661.61,-523.66"/>
<polygon fill="black" stroke="black" points="662.59,-527.03 671.37,-521.11 660.81,-520.26 662.59,-527.03"/>
<text text-anchor="middle" x="423.69" y="-550.8" font-family="Times,serif" font-size="14.00">enc</text>
</g>
<!-- Protein(10)&#45;&gt;Protein(7) -->
<g id="edge16" class="edge">
<title>Protein(10)&#45;&gt;Protein(7)</title>
<path fill="none" stroke="blue" d="M195.15,-398.04C202.11,-452.67 225.36,-614.88 260.35,-653 281.83,-676.4 298.18,-665.11 328.01,-676 343.24,-681.56 359.73,-687.9 374.62,-693.73"/>
<polygon fill="blue" stroke="blue" points="373.56,-697.08 384.14,-697.48 376.12,-690.56 373.56,-697.08"/>
<text text-anchor="middle" x="294.18" y="-692.8" font-family="Times,serif" font-size="14.00">ortho(&lt;=5)</text>
<text text-anchor="middle" x="294.18" y="-678.8" font-family="Times,serif" font-size="14.00">h_s_s(&lt;=5)</text>
</g>
<!-- Protein(10)&#45;&gt;Publication(2) -->
<g id="edge12" class="edge">
<title>Protein(10)&#45;&gt;Publication(2)</title>
<path fill="none" stroke="blue" d="M199.29,-398.24C209.14,-424.72 230.21,-474.32 260.35,-508 291.02,-542.26 303.13,-549.41 346.01,-566 439.68,-602.25 556.99,-601.01 633.15,-594.73"/>
<polygon fill="blue" stroke="blue" points="633.49,-598.22 643.15,-593.86 632.88,-591.24 633.49,-598.22"/>
<text text-anchor="middle" x="423.69" y="-598.8" font-family="Times,serif" font-size="14.00">pub_in</text>
</g>
<!-- Protein(10)&#45;&gt;EC(15) -->
<g id="edge17" class="edge">
<title>Protein(10)&#45;&gt;EC(15)</title>
<path fill="none" stroke="black" d="M239.46,-386.27C277.45,-391.4 331.13,-398.64 370.57,-403.97"/>
<polygon fill="black" stroke="black" points="370.15,-407.44 380.53,-405.31 371.08,-400.5 370.15,-407.44"/>
<text text-anchor="middle" x="294.18" y="-399.8" font-family="Times,serif" font-size="14.00">cat_c</text>
</g>
<!-- Protein(10)&#45;&gt;ProtDomain(14) -->
<g id="edge14" class="edge">
<title>Protein(10)&#45;&gt;ProtDomain(14)</title>
<path fill="none" stroke="blue" d="M239.46,-373.73C267.14,-369.99 303.15,-365.13 335.92,-360.71"/>
<polygon fill="blue" stroke="blue" points="336.53,-364.16 345.97,-359.35 335.59,-357.22 336.53,-364.16"/>
<text text-anchor="middle" x="294.18" y="-372.8" font-family="Times,serif" font-size="14.00">has_domain</text>
</g>
<!-- Protein(10)&#45;&gt;BioProc(4) -->
<g id="edge15" class="edge">
<title>Protein(10)&#45;&gt;BioProc(4)</title>
<path fill="none" stroke="black" d="M216.3,-364.1C245.23,-345.43 296.77,-315.55 346.01,-304 400.87,-291.13 555.4,-297.54 645.11,-302.69"/>
<polygon fill="black" stroke="black" points="645,-306.19 655.19,-303.28 645.41,-299.2 645,-306.19"/>
<text text-anchor="middle" x="423.69" y="-306.8" font-family="Times,serif" font-size="14.00">participates_in</text>
</g>
<!-- Protein(10)&#45;&gt;CelComp(5) -->
<g id="edge13" class="edge">
<title>Protein(10)&#45;&gt;CelComp(5)</title>
<path fill="none" stroke="black" d="M204.55,-362.29C216.57,-345.26 236.87,-319.94 260.35,-305 377.18,-230.65 545.46,-229.94 640.12,-236.92"/>
<polygon fill="black" stroke="black" points="639.93,-240.41 650.17,-237.71 640.48,-233.44 639.93,-240.41"/>
<text text-anchor="middle" x="423.69" y="-267.8" font-family="Times,serif" font-size="14.00">located_in</text>
</g>
<!-- Protein(10)&#45;&gt;MolFunc(3) -->
<g id="edge10" class="edge">
<title>Protein(10)&#45;&gt;MolFunc(3)</title>
<path fill="none" stroke="blue" d="M193.44,-361.77C195.45,-318.3 205.94,-206.99 260.35,-137 287.27,-102.38 303.69,-99.51 346.01,-88 445.67,-60.89 566.33,-68.22 641.11,-77.18"/>
<polygon fill="blue" stroke="blue" points="640.99,-80.69 651.34,-78.45 641.85,-73.74 640.99,-80.69"/>
<text text-anchor="middle" x="423.69" y="-90.8" font-family="Times,serif" font-size="14.00">has_function</text>
</g>
<!-- Protein(10)&#45;&gt;Enzyme(177) -->
<g id="edge8" class="edge">
<title>Protein(10)&#45;&gt;Enzyme(177)</title>
<path fill="none" stroke="blue" d="M193.28,-362C195,-321.86 204.99,-224.46 260.35,-173 283.47,-151.52 316.22,-141.07 346.27,-136.15"/>
<polygon fill="blue" stroke="blue" points="346.94,-139.59 356.33,-134.69 345.93,-132.66 346.94,-139.59"/>
<text text-anchor="middle" x="294.18" y="-175.8" font-family="Times,serif" font-size="14.00">is_a</text>
</g>
<!-- Protein(10)&#45;&gt;EC(12) -->
<g id="edge18" class="edge">
<title>Protein(10)&#45;&gt;EC(12)</title>
<path fill="none" stroke="blue" d="M193.97,-361.66C197.83,-298.09 213.93,-88.64 260.35,-44 291.25,-14.29 341.76,-10.49 378.24,-12.42"/>
<polygon fill="blue" stroke="blue" points="378.39,-15.94 388.6,-13.15 378.87,-8.96 378.39,-15.94"/>
<text text-anchor="middle" x="294.18" y="-46.8" font-family="Times,serif" font-size="14.00">cat_c</text>
</g>
<!-- Protein(10)&#45;&gt;Protein(10) -->
<g id="edge11" class="edge">
<title>Protein(10)&#45;&gt;Protein(10)</title>
<path fill="none" stroke="black" d="M178.04,-397.41C175.44,-407.09 180.08,-416 191.97,-416 199.39,-416 203.99,-412.52 205.76,-407.54"/>
<polygon fill="black" stroke="black" points="209.26,-407.45 205.89,-397.41 202.26,-407.36 209.26,-407.45"/>
<text text-anchor="middle" x="191.97" y="-432.8" font-family="Times,serif" font-size="14.00">h_s_s(&lt;=5)</text>
<text text-anchor="middle" x="191.97" y="-418.8" font-family="Times,serif" font-size="14.00">ortho(&lt;=5)</text>
</g>
<!-- ProtDomain(11) -->
<g id="node18" class="node">
<title>ProtDomain(11)</title>
<ellipse fill="none" stroke="black" cx="423.69" cy="-191" rx="68" ry="18"/>
<text text-anchor="middle" x="423.69" y="-186.8" font-family="Times,serif" font-size="14.00">ProtDomain(11)</text>
</g>
<!-- Protein(10)&#45;&gt;ProtDomain(11) -->
<g id="edge6" class="edge">
<title>Protein(10)&#45;&gt;ProtDomain(11)</title>
<path fill="none" stroke="blue" d="M194.78,-361.9C199.23,-327.68 213.99,-253.64 260.35,-217 284.49,-197.92 317.08,-190.3 346.73,-187.87"/>
<polygon fill="blue" stroke="blue" points="347.32,-191.34 357.08,-187.22 346.88,-184.36 347.32,-191.34"/>
<text text-anchor="middle" x="294.18" y="-219.8" font-family="Times,serif" font-size="14.00">has_domain</text>
</g>
<!-- Gene(9) -->
<g id="node19" class="node">
<title>Gene(9)</title>
<ellipse fill="none" stroke="black" cx="423.69" cy="-469" rx="39.15" ry="18"/>
<text text-anchor="middle" x="423.69" y="-464.8" font-family="Times,serif" font-size="14.00">Gene(9)</text>
</g>
<!-- Protein(10)&#45;&gt;Gene(9) -->
<g id="edge7" class="edge">
<title>Protein(10)&#45;&gt;Gene(9)</title>
<path fill="none" stroke="black" d="M219.71,-395.13C231.9,-401.7 246.63,-409.2 260.35,-415 300.02,-431.77 346.83,-446.87 379.97,-456.81"/>
<polygon fill="black" stroke="black" points="379.21,-460.23 389.79,-459.72 381.2,-453.52 379.21,-460.23"/>
<text text-anchor="middle" x="294.18" y="-441.8" font-family="Times,serif" font-size="14.00">enc</text>
</g>
<!-- Enzyme(17) -->
<g id="node20" class="node">
<title>Enzyme(17)</title>
<ellipse fill="none" stroke="black" cx="423.69" cy="-655" rx="53.63" ry="18"/>
<text text-anchor="middle" x="423.69" y="-650.8" font-family="Times,serif" font-size="14.00">Enzyme(17)</text>
</g>
<!-- Protein(10)&#45;&gt;Enzyme(17) -->
<g id="edge9" class="edge">
<title>Protein(10)&#45;&gt;Enzyme(17)</title>
<path fill="none" stroke="black" d="M192.41,-398.13C192.1,-442.26 197.76,-556 260.35,-616 268.19,-623.51 322.46,-635.59 366.13,-644.32"/>
<polygon fill="black" stroke="black" points="365.62,-647.78 376.11,-646.29 366.98,-640.92 365.62,-647.78"/>
<text text-anchor="middle" x="294.18" y="-638.8" font-family="Times,serif" font-size="14.00">is_a</text>
</g>
<!-- ProtDomain(11)&#45;&gt;BioProc(4) -->
<g id="edge20" class="edge">
<title>ProtDomain(11)&#45;&gt;BioProc(4)</title>
<path fill="none" stroke="blue" d="M490.65,-194.45C532.54,-199.66 585.78,-212.21 623.57,-242 637,-252.58 629.06,-264.35 641.57,-276 646.49,-280.58 652.2,-284.56 658.19,-287.99"/>
<polygon fill="blue" stroke="blue" points="656.63,-291.13 667.12,-292.65 659.87,-284.92 656.63,-291.13"/>
<text text-anchor="middle" x="571.47" y="-244.8" font-family="Times,serif" font-size="14.00">participates_in</text>
</g>
<!-- ProtDomain(11)&#45;&gt;CelComp(5) -->
<g id="edge21" class="edge">
<title>ProtDomain(11)&#45;&gt;CelComp(5)</title>
<path fill="none" stroke="black" d="M472.79,-178.41C482.71,-174.65 492.75,-169.9 501.37,-164 511.52,-157.06 508.2,-148.14 519.37,-143 561.45,-123.65 581.45,-123.75 623.57,-143 655.31,-157.5 680.01,-189.67 695.11,-214.02"/>
<polygon fill="black" stroke="black" points="692.3,-216.13 700.43,-222.93 698.31,-212.55 692.3,-216.13"/>
<text text-anchor="middle" x="571.47" y="-145.8" font-family="Times,serif" font-size="14.00">located_in</text>
</g>
<!-- ProtDomain(11)&#45;&gt;MolFunc(3) -->
<g id="edge22" class="edge">
<title>ProtDomain(11)&#45;&gt;MolFunc(3)</title>
<path fill="none" stroke="blue" d="M477.1,-179.74C486.05,-175.93 494.62,-170.82 501.37,-164 518.86,-146.31 500.05,-126.66 519.37,-111 537.76,-96.09 594.07,-90.62 641.07,-88.72"/>
<polygon fill="blue" stroke="blue" points="641.38,-92.21 651.25,-88.36 641.13,-85.22 641.38,-92.21"/>
<text text-anchor="middle" x="571.47" y="-113.8" font-family="Times,serif" font-size="14.00">has_function</text>
</g>
<!-- Gene(9)&#45;&gt;Gene(8) -->
<g id="edge25" class="edge">
<title>Gene(9)&#45;&gt;Gene(8)</title>
<path fill="none" stroke="blue" d="M462.84,-467.45C503.16,-466.57 568.43,-467.31 623.57,-478 638.2,-480.84 653.69,-485.62 667.53,-490.59"/>
<polygon fill="blue" stroke="blue" points="666.7,-494.01 677.29,-494.22 669.14,-487.45 666.7,-494.01"/>
<text text-anchor="middle" x="571.47" y="-480.8" font-family="Times,serif" font-size="14.00">it_wi(&lt;=8)</text>
</g>
<!-- Gene(9)&#45;&gt;Publication(2) -->
<g id="edge24" class="edge">
<title>Gene(9)&#45;&gt;Publication(2)</title>
<path fill="none" stroke="black" d="M456.52,-478.96C496.2,-491.7 565.84,-515.1 623.57,-540 637.82,-546.14 652.99,-553.54 666.66,-560.55"/>
<polygon fill="black" stroke="black" points="665.37,-563.82 675.86,-565.32 668.59,-557.61 665.37,-563.82"/>
<text text-anchor="middle" x="571.47" y="-542.8" font-family="Times,serif" font-size="14.00">pub_in</text>
</g>
<!-- Gene(9)&#45;&gt;BioProc(4) -->
<g id="edge29" class="edge">
<title>Gene(9)&#45;&gt;BioProc(4)</title>
<path fill="none" stroke="blue" d="M459.71,-461.52C473.62,-457.37 489.17,-451.14 501.37,-442 512.33,-433.79 509.2,-426.16 519.37,-417 562.63,-378.06 621.95,-346.74 663.27,-327.63"/>
<polygon fill="blue" stroke="blue" points="664.93,-330.71 672.58,-323.38 662.02,-324.34 664.93,-330.71"/>
<text text-anchor="middle" x="571.47" y="-419.8" font-family="Times,serif" font-size="14.00">participates_in</text>
</g>
<!-- Gene(9)&#45;&gt;Phenotype(13) -->
<g id="edge26" class="edge">
<title>Gene(9)&#45;&gt;Phenotype(13)</title>
<path fill="none" stroke="black" d="M454.48,-457.83C472.88,-451.53 497.16,-444.27 519.37,-441 555.93,-435.61 596.83,-434.69 631.49,-435.38"/>
<polygon fill="black" stroke="black" points="631.48,-438.88 641.56,-435.63 631.65,-431.89 631.48,-438.88"/>
<text text-anchor="middle" x="571.47" y="-443.8" font-family="Times,serif" font-size="14.00">has_observ_pheno</text>
</g>
<!-- Gene(9)&#45;&gt;CelComp(5) -->
<g id="edge28" class="edge">
<title>Gene(9)&#45;&gt;CelComp(5)</title>
<path fill="none" stroke="black" d="M461.74,-464.19C476.14,-460.45 491.5,-453.8 501.37,-442 533.44,-403.66 488.95,-370.66 519.37,-331 549.13,-292.2 600.26,-270.48 642.34,-258.57"/>
<polygon fill="black" stroke="black" points="643.25,-261.95 651.99,-255.96 641.43,-255.19 643.25,-261.95"/>
<text text-anchor="middle" x="571.47" y="-333.8" font-family="Times,serif" font-size="14.00">located_in</text>
</g>
<!-- Gene(9)&#45;&gt;TO(16) -->
<g id="edge27" class="edge">
<title>Gene(9)&#45;&gt;TO(16)</title>
<path fill="none" stroke="blue" d="M444.69,-484.19C460.64,-496.65 483.23,-515.09 501.37,-533 510.12,-541.64 510.53,-545.47 519.37,-554 561.98,-595.11 588.93,-588.99 623.57,-637 637.15,-655.81 626.67,-668.22 641.57,-686 649.01,-694.88 658.9,-702.28 668.9,-708.23"/>
<polygon fill="blue" stroke="blue" points="667.21,-711.3 677.66,-713.09 670.61,-705.18 667.21,-711.3"/>
<text text-anchor="middle" x="571.47" y="-639.8" font-family="Times,serif" font-size="14.00">cooc_wi</text>
</g>
<!-- Gene(9)&#45;&gt;MolFunc(3) -->
<g id="edge23" class="edge">
<title>Gene(9)&#45;&gt;MolFunc(3)</title>
<path fill="none" stroke="blue" d="M461.89,-464.72C476.49,-461.08 491.97,-454.35 501.37,-442 536.45,-395.92 481.96,-226.21 519.37,-182 550.13,-145.64 580.68,-177.69 623.57,-157 644.81,-146.76 665.72,-130.75 681.86,-116.74"/>
<polygon fill="blue" stroke="blue" points="684.23,-119.31 689.38,-110.05 679.58,-114.08 684.23,-119.31"/>
<text text-anchor="middle" x="571.47" y="-184.8" font-family="Times,serif" font-size="14.00">has_function</text>
</g>
<!-- Gene(9)&#45;&gt;Gene(9) -->
<g id="edge30" class="edge">
<title>Gene(9)&#45;&gt;Gene(9)</title>
<path fill="none" stroke="black" d="M402.03,-484.17C395.47,-494.66 402.69,-505 423.69,-505 437.8,-505 445.69,-500.33 447.36,-494.09"/>
<polygon fill="black" stroke="black" points="450.76,-493.27 445.35,-484.17 443.9,-494.66 450.76,-493.27"/>
<text text-anchor="middle" x="423.69" y="-507.8" font-family="Times,serif" font-size="14.00">it_wi(&lt;=8)</text>
</g>
<!-- Enzyme(17)&#45;&gt;Reaction(188) -->
<g id="edge31" class="edge">
<title>Enzyme(17)&#45;&gt;Reaction(188)</title>
<path fill="none" stroke="blue" d="M477.7,-655C521.29,-655 583.71,-655 633.14,-655"/>
<polygon fill="blue" stroke="blue" points="633.16,-658.5 643.16,-655 633.16,-651.5 633.16,-658.5"/>
<text text-anchor="middle" x="571.47" y="-657.8" font-family="Times,serif" font-size="14.00">ca_by</text>
</g>
<!-- Enzyme(17)&#45;&gt;Reaction(18) -->
<g id="edge32" class="edge">
<title>Enzyme(17)&#45;&gt;Reaction(18)</title>
<path fill="none" stroke="black" d="M463.38,-667.29C475.69,-671.55 489.25,-676.62 501.37,-682 566.16,-710.75 579.24,-724.26 641.57,-758 652.14,-763.72 663.61,-769.92 674.15,-775.62"/>
<polygon fill="black" stroke="black" points="672.67,-778.8 683.14,-780.48 676,-772.64 672.67,-778.8"/>
<text text-anchor="middle" x="571.47" y="-748.8" font-family="Times,serif" font-size="14.00">ca_by</text>
</g>
</g>
</svg>
